<?xml version="1.0" encoding="iso-8859-1"?>
<!-- Generator: Adobe Illustrator 14.0.0, SVG Export Plug-In . SVG Version: 6.00 Build 43363)  -->
<!DOCTYPE svg PUBLIC "-//W3C//DTD SVG 1.1//EN" "http://www.w3.org/Graphics/SVG/1.1/DTD/svg11.dtd">
<svg version="1.1" id="Layer_1" xmlns="http://www.w3.org/2000/svg" xmlns:xlink="http://www.w3.org/1999/xlink" x="0px" y="0px"
	 width="449.62px" height="26.842px" viewBox="0 0 449.62 26.842" style="enable-background:new 0 0 449.62 26.842;"
	 xml:space="preserve">
<path d="M14.851,14.319c2.043-0.137,3.133-0.872,3.133-1.847c0-0.688-0.459-1.136-1.182-1.136c-0.562,0-1.308,0.333-1.893,0.94
	c-0.643,0.677-1.021,1.642-1.021,2.605c0,1.331,0.654,2.088,1.732,2.088c0.758,0,1.515-0.344,2.226-1.033v-0.539
	c-0.665,0.62-1.308,0.941-1.836,0.941c-0.734,0-1.193-0.563-1.193-1.492C14.817,14.664,14.829,14.48,14.851,14.319 M14.909,13.93
	c0.333-1.388,0.987-2.111,1.652-2.111c0.333,0,0.597,0.265,0.597,0.62C17.158,13.16,16.343,13.85,14.909,13.93 M8.573,16.478
	l1.458,0.677c0.436,0.195,0.642,0.437,0.642,0.734c0,0.516-0.608,0.998-1.606,0.998c-0.918,0-1.549-0.539-1.549-1.273
	C7.518,17.027,7.885,16.638,8.573,16.478 M10.547,12.794c0,1.044-0.677,1.848-1.331,1.848c-0.47,0-0.769-0.345-0.769-0.964
	c0-1.079,0.654-1.928,1.32-1.928C10.26,11.75,10.547,12.116,10.547,12.794 M10.845,11.611c-0.355-0.183-0.7-0.286-1.067-0.286
	c-1.25,0-2.237,0.976-2.237,2.227c0,0.607,0.367,1.112,1.055,1.388c-0.309,0.39-0.459,0.734-0.459,1.113l0.012,0.195
	c-1.033,0.401-1.526,0.86-1.526,1.595c0,0.918,0.826,1.525,2.168,1.525c1.584,0,2.766-0.859,2.766-1.709
	c0-0.493-0.298-0.86-0.895-1.136l-1.825-0.827v-0.067c0-0.22,0.046-0.414,0.15-0.609c0.149,0.012,0.24,0.012,0.263,0.012
	c1.182,0,2.204-0.906,2.204-2.169c0-0.241-0.046-0.493-0.15-0.757h1.182v-0.494H10.845z M3.443,11.784l0.459,0.699l-0.597,3.03
	c-0.47,0.505-0.918,0.757-1.354,0.757c-0.665,0-0.998-0.459-0.998-1.377c0-1.824,0.987-3.109,2.329-3.109H3.443z M4.51,11.337
	l-0.229,0.252c-0.356-0.172-0.712-0.252-1.033-0.252c-1.136,0-2.066,0.539-2.651,1.503C0.207,13.482,0,14.193,0,14.963
	c0,1.262,0.609,2.008,1.584,2.008c0.551,0,1.102-0.321,1.71-0.964v0.092c0,0.585,0.218,0.872,0.7,0.872
	c0.309,0,0.78-0.138,1.411-0.402v-0.344c-0.31,0.069-0.516,0.115-0.643,0.115c-0.424,0-0.619-0.161-0.619-0.528
	c0-0.161,0.034-0.424,0.115-0.803l0.413-2.031c0.172-0.849,0.321-1.4,0.436-1.641H4.51z"/>
<path d="M20.418,13.563c0-3.144,0.918-4.705,2.238-4.934V8.101c-1.905,0.23-3.213,1.997-3.213,5.462s1.308,5.232,3.213,5.462v-0.527
	C21.336,18.268,20.418,16.707,20.418,13.563"/>
<path d="M45.805,11.336l-1.698,0.379v0.287l0.941,0.172l-0.952,4.693h0.964l0.47-2.696c0.184-1.056,0.551-1.676,1.675-2.111
	l0.299,0.619h0.08c0.47,0,0.769-0.31,0.769-0.745c0-0.345-0.253-0.598-0.643-0.598c-0.574,0-1.308,0.528-2.042,1.572l0.367-1.572
	H45.805z M40.526,11.784l0.459,0.7l-0.597,3.029c-0.47,0.505-0.918,0.758-1.354,0.758c-0.665,0-0.998-0.459-0.998-1.377
	c0-1.825,0.987-3.11,2.329-3.11H40.526z M41.593,11.336l-0.23,0.253c-0.355-0.172-0.711-0.253-1.032-0.253
	c-1.136,0-2.066,0.54-2.651,1.504c-0.39,0.643-0.597,1.354-0.597,2.122c0,1.264,0.609,2.008,1.584,2.008
	c0.551,0,1.101-0.32,1.71-0.963v0.092c0,0.586,0.218,0.871,0.7,0.871c0.309,0,0.78-0.137,1.411-0.4v-0.344
	c-0.31,0.067-0.516,0.113-0.643,0.113c-0.424,0-0.619-0.16-0.619-0.526c0-0.161,0.034-0.426,0.114-0.805l0.414-2.03
	c0.172-0.85,0.321-1.4,0.436-1.642H41.593z M32.653,14.32c2.043-0.138,3.133-0.872,3.133-1.848c0-0.688-0.459-1.137-1.182-1.137
	c-0.562,0-1.308,0.333-1.894,0.941c-0.642,0.677-1.021,1.641-1.021,2.604c0,1.331,0.654,2.088,1.733,2.088
	c0.757,0,1.515-0.344,2.226-1.031v-0.54c-0.666,0.62-1.308,0.94-1.836,0.94c-0.734,0-1.193-0.562-1.193-1.49
	C32.619,14.664,32.63,14.48,32.653,14.32 M32.71,13.93c0.333-1.389,0.987-2.111,1.653-2.111c0.333,0,0.596,0.264,0.596,0.62
	C34.959,13.161,34.145,13.85,32.71,13.93 M25.698,11.302l-1.125,0.367v0.253l0.976,0.08c0.206,0.275,0.356,0.665,0.459,1.193
	l0.711,3.454l0.035-0.023c-0.677,1.297-1.308,1.975-2.008,2.021l-0.677-0.678c-0.379,0.058-0.62,0.321-0.62,0.632
	c0,0.413,0.402,0.757,0.964,0.757c0.952,0,1.996-0.964,3.052-2.88c0.952-1.722,1.411-3.316,2.249-4.258l0.585-0.344v-0.241
	l-0.906-0.299h-0.218c-0.723,1.688-1.32,3.133-1.802,4.361l-0.378-1.939c-0.333-1.676-0.413-2.467-1.148-2.467L25.698,11.302z"/>
<path d="M57.036,15.146h7.711v-0.688h-7.711V15.146z M57.036,12.668h7.711v-0.688h-7.711V12.668z M52.095,13.563
	c0,3.145-0.918,4.705-2.238,4.935v0.527c1.905-0.229,3.213-1.997,3.213-5.462s-1.308-5.231-3.213-5.462v0.528
	C51.177,8.857,52.095,10.419,52.095,13.563"/>
<path d="M70.894,13.576c0.448,0.241,0.815,0.598,1.021,1.079c0.459,1.067,0.608,2.214,0.608,3.373c0,0.689-0.057,1.377-0.126,2.066
	c-0.057,0.631-0.103,1.262-0.103,1.893c0,0.896,0.092,1.778,0.356,2.64c0.252,0.814,0.814,1.537,1.629,1.537v0.678
	c-1.079,0-1.997-0.735-2.421-1.733c-0.459-1.067-0.62-2.215-0.62-3.374c0-0.585,0.046-1.17,0.104-1.744
	c0.08-0.849,0.16-1.698,0.16-2.536c0-0.895-0.092-1.767-0.356-2.627c-0.206-0.666-0.963-0.918-1.686-0.918v-0.666
	c0.723,0,1.48-0.252,1.686-0.918c0.264-0.859,0.356-1.731,0.356-2.627c0-0.838-0.08-1.687-0.16-2.536
	c-0.058-0.573-0.104-1.158-0.104-1.744c0-1.158,0.161-2.307,0.62-3.373c0.424-0.998,1.342-1.733,2.421-1.733v0.677
	c-0.815,0-1.377,0.724-1.629,1.538c-0.264,0.861-0.356,1.744-0.356,2.639c0,0.632,0.046,1.263,0.103,1.894
	c0.069,0.688,0.126,1.377,0.126,2.065c0,1.159-0.149,2.307-0.608,3.373C71.708,12.979,71.341,13.336,70.894,13.576"/>
<path d="M83.84,1.918c1.056,0,1.629,1.171,1.629,3.443c0,2.271-0.573,3.441-1.629,3.441c-1.056,0-1.641-1.158-1.641-3.431
	C82.199,3.089,82.785,1.918,83.84,1.918 M83.84,1.379c-1.641,0-2.719,1.446-2.719,3.982s1.078,3.993,2.719,3.993
	s2.719-1.457,2.719-3.993S85.481,1.379,83.84,1.379"/>
<path d="M288.489,8.714h-0.035c-0.135,0-0.257-0.012-0.374-0.023c-0.123-0.023-0.228-0.059-0.315-0.11
	c-0.088-0.054-0.158-0.136-0.21-0.24c-0.054-0.111-0.082-0.251-0.082-0.427V5.389c0-0.257,0.022-0.503,0.076-0.737
	c0.047-0.232,0.128-0.438,0.238-0.618c0.111-0.182,0.264-0.322,0.445-0.428c0.187-0.104,0.414-0.158,0.689-0.158
	c0.239,0,0.443,0.036,0.613,0.111c0.169,0.071,0.305,0.176,0.409,0.316c0.099,0.14,0.175,0.31,0.222,0.514
	c0.048,0.205,0.07,0.433,0.07,0.696v4.132h2.086V8.714h-0.04c-0.135,0-0.258-0.012-0.369-0.029c-0.11-0.018-0.21-0.059-0.292-0.117
	c-0.082-0.063-0.146-0.151-0.187-0.263c-0.047-0.111-0.07-0.263-0.07-0.45V5.025c0-0.408-0.047-0.759-0.134-1.057
	c-0.094-0.298-0.229-0.538-0.398-0.725c-0.175-0.193-0.386-0.333-0.631-0.422c-0.251-0.093-0.532-0.14-0.847-0.14
	c-0.193,0-0.374,0.018-0.55,0.047c-0.169,0.029-0.333,0.081-0.491,0.163c-0.152,0.076-0.298,0.188-0.432,0.333
	c-0.141,0.142-0.275,0.322-0.397,0.544h-0.059l-0.158-0.97h-1.935v0.502h0.035c0.134,0,0.257,0.012,0.374,0.03
	c0.123,0.017,0.229,0.058,0.316,0.115c0.087,0.06,0.157,0.142,0.21,0.253c0.053,0.104,0.082,0.244,0.082,0.421v3.733
	c0,0.188-0.029,0.339-0.082,0.45s-0.123,0.199-0.21,0.263c-0.088,0.059-0.188,0.1-0.311,0.117c-0.116,0.018-0.246,0.029-0.38,0.029
	h-0.099v0.503h3.22V8.714z M282.357,0.859c0,0.141,0.018,0.258,0.053,0.351c0.035,0.094,0.082,0.17,0.146,0.228l0.216,0.129
	c0.082,0.023,0.17,0.035,0.269,0.035c0.094,0,0.182-0.012,0.264-0.035l0.216-0.129c0.059-0.058,0.104-0.134,0.14-0.228
	c0.041-0.093,0.06-0.21,0.06-0.351s-0.019-0.258-0.06-0.351c-0.035-0.094-0.081-0.17-0.146-0.228l-0.21-0.123
	c-0.082-0.023-0.17-0.035-0.264-0.035c-0.099,0-0.187,0.012-0.269,0.035l-0.216,0.123c-0.064,0.058-0.111,0.134-0.146,0.228
	C282.375,0.602,282.357,0.719,282.357,0.859 M281.545,8.714h-0.158v0.503h3.4V8.714h-0.156c-0.136,0-0.259-0.012-0.381-0.029
	c-0.123-0.018-0.222-0.059-0.31-0.117c-0.094-0.063-0.164-0.151-0.21-0.263c-0.059-0.111-0.082-0.263-0.082-0.45V2.8h-2.139v0.502
	h0.035c0.134,0,0.257,0.012,0.373,0.03c0.123,0.017,0.229,0.058,0.315,0.115c0.088,0.06,0.158,0.142,0.211,0.253
	c0.052,0.104,0.082,0.244,0.082,0.421v3.792c0,0.176-0.03,0.315-0.082,0.427c-0.053,0.104-0.123,0.187-0.211,0.24
	c-0.087,0.052-0.192,0.093-0.315,0.11C281.802,8.708,281.679,8.714,281.545,8.714 M273.846,8.714h-0.035
	c-0.134,0-0.257-0.012-0.374-0.023c-0.123-0.023-0.229-0.059-0.315-0.11c-0.088-0.054-0.157-0.136-0.211-0.24
	c-0.052-0.111-0.082-0.251-0.082-0.427V5.389c0-0.257,0.024-0.503,0.076-0.737c0.047-0.232,0.129-0.438,0.24-0.618
	c0.111-0.182,0.263-0.322,0.444-0.428c0.187-0.104,0.415-0.158,0.689-0.158c0.239,0,0.444,0.036,0.613,0.111
	c0.17,0.071,0.304,0.176,0.409,0.316c0.1,0.14,0.176,0.31,0.222,0.514c0.047,0.205,0.071,0.433,0.071,0.696v4.132h2.086V8.714
	h-0.041c-0.134,0-0.257-0.012-0.368-0.029s-0.21-0.059-0.292-0.117c-0.082-0.063-0.146-0.151-0.188-0.263
	c-0.047-0.111-0.069-0.263-0.069-0.45V5.025c0-0.408-0.047-0.759-0.136-1.057c-0.093-0.298-0.228-0.538-0.396-0.725
	c-0.176-0.193-0.386-0.333-0.631-0.422c-0.252-0.093-0.532-0.14-0.848-0.14c-0.193,0-0.375,0.018-0.55,0.047
	c-0.17,0.029-0.333,0.081-0.49,0.163c-0.152,0.076-0.299,0.188-0.434,0.333c-0.14,0.142-0.273,0.322-0.396,0.544h-0.059l-0.158-0.97
	h-1.935v0.502h0.035c0.135,0,0.258,0.012,0.375,0.03c0.122,0.017,0.227,0.058,0.314,0.115c0.088,0.06,0.158,0.142,0.21,0.253
	c0.054,0.104,0.082,0.244,0.082,0.421v3.733c0,0.188-0.028,0.339-0.082,0.45c-0.052,0.111-0.122,0.199-0.21,0.263
	c-0.088,0.059-0.187,0.1-0.31,0.117c-0.117,0.018-0.245,0.029-0.38,0.029h-0.1v0.503h3.221V8.714z M268.511,9.217V8.714h-0.333
	c-0.135,0-0.257-0.012-0.374-0.023c-0.123-0.023-0.229-0.059-0.316-0.11c-0.087-0.054-0.157-0.136-0.21-0.24
	c-0.053-0.111-0.082-0.251-0.082-0.427V6.032c0-0.152,0.006-0.322,0.023-0.51c0.018-0.187,0.041-0.374,0.082-0.561
	c0.035-0.193,0.082-0.374,0.141-0.555c0.064-0.182,0.14-0.34,0.222-0.479c0.094-0.135,0.193-0.246,0.31-0.333
	c0.117-0.082,0.252-0.123,0.397-0.123c0.234,0,0.397,0.07,0.491,0.216c0.093,0.146,0.14,0.387,0.14,0.72
	c0.204,0,0.374-0.023,0.515-0.064c0.14-0.041,0.257-0.1,0.345-0.176s0.152-0.163,0.199-0.27c0.041-0.104,0.058-0.222,0.058-0.344
	c0-0.275-0.104-0.491-0.314-0.643c-0.217-0.152-0.538-0.229-0.977-0.229c-0.263,0-0.484,0.035-0.661,0.1
	c-0.175,0.069-0.32,0.163-0.438,0.28c-0.123,0.122-0.222,0.257-0.304,0.415c-0.082,0.157-0.164,0.327-0.24,0.508h-0.059L266.898,2.8
	h-1.841v0.502h0.035c0.135,0,0.257,0.012,0.38,0.03c0.117,0.017,0.222,0.058,0.31,0.115c0.088,0.06,0.163,0.142,0.216,0.246
	c0.054,0.111,0.076,0.251,0.076,0.428v3.733c0,0.188-0.022,0.339-0.076,0.45c-0.053,0.111-0.123,0.199-0.21,0.257
	c-0.088,0.064-0.192,0.105-0.31,0.123c-0.123,0.018-0.251,0.029-0.386,0.029h-0.035v0.503H268.511z M259.578,5.997
	c0-0.445,0.029-0.836,0.088-1.169s0.152-0.614,0.28-0.843c0.129-0.222,0.298-0.391,0.503-0.502c0.204-0.111,0.461-0.17,0.76-0.17
	s0.556,0.059,0.766,0.17c0.205,0.111,0.374,0.28,0.503,0.502c0.128,0.229,0.222,0.51,0.28,0.843s0.088,0.724,0.088,1.169
	c0,0.443-0.029,0.835-0.082,1.174c-0.059,0.339-0.152,0.62-0.28,0.848c-0.129,0.228-0.298,0.403-0.503,0.521
	s-0.462,0.175-0.76,0.175s-0.556-0.058-0.761-0.175c-0.21-0.117-0.379-0.293-0.508-0.521c-0.134-0.228-0.228-0.509-0.286-0.848
	S259.578,6.44,259.578,5.997 M264.008,5.997c0-0.563-0.064-1.047-0.193-1.468c-0.123-0.408-0.304-0.76-0.549-1.028
	c-0.234-0.28-0.526-0.479-0.871-0.619c-0.345-0.129-0.731-0.199-1.163-0.199c-0.929,0-1.625,0.275-2.098,0.818
	c-0.475,0.544-0.713,1.379-0.713,2.496c0,0.561,0.063,1.051,0.192,1.466c0.122,0.421,0.31,0.771,0.549,1.046
	c0.24,0.275,0.526,0.486,0.871,0.62c0.346,0.134,0.73,0.204,1.163,0.204c0.917,0,1.619-0.274,2.099-0.824
	C263.768,7.96,264.008,7.124,264.008,5.997 M254.467,3.447c0.263,0,0.49,0.054,0.678,0.158c0.191,0.105,0.344,0.264,0.461,0.475
	c0.123,0.21,0.211,0.473,0.263,0.789c0.054,0.32,0.082,0.688,0.082,1.115c0,0.422-0.028,0.789-0.082,1.116
	c-0.052,0.316-0.14,0.59-0.263,0.808c-0.117,0.216-0.27,0.385-0.456,0.489c-0.181,0.117-0.409,0.17-0.672,0.17
	c-0.315,0-0.578-0.053-0.789-0.17c-0.204-0.104-0.374-0.273-0.502-0.489c-0.123-0.218-0.216-0.486-0.27-0.808
	c-0.053-0.321-0.075-0.689-0.075-1.104c0-0.434,0.022-0.808,0.075-1.128c0.054-0.322,0.146-0.585,0.27-0.795
	c0.123-0.212,0.292-0.368,0.497-0.469C253.894,3.501,254.157,3.447,254.467,3.447 M257.114,5.997c0-0.573-0.053-1.07-0.158-1.485
	c-0.11-0.415-0.269-0.76-0.473-1.034c-0.205-0.269-0.462-0.468-0.766-0.596c-0.305-0.135-0.654-0.199-1.046-0.199
	c-0.234,0-0.444,0.029-0.632,0.082c-0.187,0.058-0.355,0.14-0.503,0.245c-0.146,0.099-0.279,0.228-0.391,0.374
	c-0.111,0.146-0.216,0.316-0.304,0.497h-0.047c0.006-0.199,0.018-0.393,0.023-0.579c0.005-0.163,0.011-0.333,0.018-0.514
	c0.006-0.176,0.006-0.333,0.006-0.468V0.123h-2.203v0.503h0.093c0.135,0,0.257,0.011,0.374,0.028
	c0.123,0.018,0.228,0.054,0.316,0.111c0.088,0.059,0.157,0.141,0.21,0.251c0.053,0.105,0.082,0.246,0.082,0.421v6.417
	c0,0.188-0.029,0.339-0.082,0.45s-0.122,0.199-0.21,0.263c-0.089,0.059-0.188,0.1-0.311,0.117c-0.117,0.018-0.245,0.029-0.38,0.029
	h-0.093v0.503h1.917l0.21-0.935h0.076c0.088,0.156,0.187,0.298,0.298,0.426c0.117,0.129,0.251,0.239,0.396,0.333
	c0.152,0.094,0.322,0.164,0.51,0.216c0.187,0.053,0.396,0.076,0.625,0.076c0.392,0,0.741-0.064,1.046-0.198
	c0.304-0.129,0.561-0.327,0.766-0.602c0.204-0.275,0.362-0.62,0.467-1.04C257.061,7.071,257.114,6.575,257.114,5.997 M244.364,9.333
	c0.357,0,0.661-0.04,0.924-0.116c0.264-0.076,0.485-0.176,0.66-0.293c0.175-0.116,0.304-0.245,0.392-0.385
	c0.088-0.136,0.129-0.264,0.129-0.387c0-0.099-0.023-0.187-0.076-0.263l-0.152-0.146c-0.069,0.11-0.158,0.21-0.274,0.31
	c-0.105,0.099-0.233,0.192-0.379,0.268c-0.147,0.076-0.305,0.142-0.48,0.188c-0.181,0.047-0.374,0.071-0.578,0.071
	c-0.287,0-0.538-0.047-0.754-0.147c-0.216-0.093-0.403-0.239-0.549-0.444c-0.152-0.203-0.27-0.461-0.345-0.776
	c-0.082-0.311-0.13-0.685-0.136-1.122h3.986V5.541c0-0.475-0.058-0.89-0.169-1.245c-0.117-0.357-0.281-0.655-0.497-0.895
	s-0.474-0.415-0.783-0.538c-0.31-0.122-0.655-0.181-1.041-0.181c-0.847,0-1.501,0.28-1.963,0.847
	c-0.462,0.567-0.689,1.409-0.689,2.525c0,0.521,0.063,0.982,0.192,1.385c0.123,0.409,0.304,0.754,0.544,1.034
	c0.239,0.281,0.531,0.491,0.876,0.637C243.546,9.257,243.932,9.333,244.364,9.333 M244.218,3.326c0.239,0,0.443,0.052,0.607,0.151
	c0.169,0.1,0.305,0.245,0.403,0.433c0.099,0.187,0.175,0.408,0.222,0.672c0.047,0.263,0.07,0.55,0.07,0.864h-2.752
	c0.041-0.694,0.181-1.221,0.421-1.584C243.429,3.507,243.774,3.326,244.218,3.326 M239.146,9.217V8.714h-0.333
	c-0.135,0-0.257-0.012-0.374-0.023c-0.123-0.023-0.228-0.059-0.316-0.11c-0.088-0.054-0.157-0.136-0.21-0.24
	c-0.053-0.111-0.082-0.251-0.082-0.427V6.032c0-0.152,0.006-0.322,0.023-0.51c0.018-0.187,0.041-0.374,0.082-0.561
	c0.035-0.193,0.082-0.374,0.14-0.555c0.065-0.182,0.142-0.34,0.223-0.479c0.094-0.135,0.192-0.246,0.31-0.333
	c0.117-0.082,0.251-0.123,0.398-0.123c0.232,0,0.396,0.07,0.489,0.216c0.095,0.146,0.142,0.387,0.142,0.72
	c0.204,0,0.374-0.023,0.514-0.064s0.257-0.1,0.345-0.176c0.087-0.076,0.152-0.163,0.199-0.27c0.04-0.104,0.058-0.222,0.058-0.344
	c0-0.275-0.104-0.491-0.315-0.643c-0.216-0.152-0.537-0.229-0.976-0.229c-0.264,0-0.485,0.035-0.66,0.1
	c-0.176,0.069-0.321,0.163-0.438,0.28c-0.123,0.122-0.222,0.257-0.304,0.415c-0.082,0.157-0.164,0.327-0.24,0.508h-0.058
	L237.533,2.8h-1.841v0.502h0.035c0.134,0,0.257,0.012,0.38,0.03c0.117,0.017,0.222,0.058,0.31,0.115
	c0.088,0.06,0.163,0.142,0.217,0.246c0.052,0.111,0.075,0.251,0.075,0.428v3.733c0,0.188-0.023,0.339-0.075,0.45
	c-0.054,0.111-0.123,0.199-0.211,0.257c-0.088,0.064-0.192,0.105-0.31,0.123c-0.123,0.018-0.252,0.029-0.386,0.029h-0.035v0.503
	H239.146z M232.333,9.333c0.356,0,0.66-0.04,0.924-0.116c0.263-0.076,0.484-0.176,0.659-0.293c0.177-0.116,0.305-0.245,0.393-0.385
	c0.088-0.136,0.128-0.264,0.128-0.387c0-0.099-0.023-0.187-0.076-0.263l-0.152-0.146c-0.069,0.11-0.156,0.21-0.273,0.31
	c-0.105,0.099-0.234,0.192-0.38,0.268c-0.146,0.076-0.305,0.142-0.479,0.188c-0.181,0.047-0.374,0.071-0.579,0.071
	c-0.286,0-0.537-0.047-0.754-0.147c-0.216-0.093-0.402-0.239-0.549-0.444c-0.152-0.203-0.269-0.461-0.345-0.776
	c-0.082-0.311-0.128-0.685-0.134-1.122h3.984V5.541c0-0.475-0.058-0.89-0.169-1.245c-0.117-0.357-0.281-0.655-0.497-0.895
	s-0.473-0.415-0.783-0.538c-0.31-0.122-0.653-0.181-1.04-0.181c-0.848,0-1.502,0.28-1.964,0.847
	c-0.461,0.567-0.688,1.409-0.688,2.525c0,0.521,0.063,0.982,0.191,1.385c0.123,0.409,0.305,0.754,0.544,1.034
	c0.24,0.281,0.532,0.491,0.878,0.637C231.514,9.257,231.9,9.333,232.333,9.333 M232.186,3.326c0.24,0,0.445,0.052,0.607,0.151
	c0.171,0.1,0.305,0.245,0.403,0.433c0.101,0.187,0.176,0.408,0.224,0.672c0.046,0.263,0.069,0.55,0.069,0.864h-2.753
	c0.041-0.694,0.181-1.221,0.421-1.584C231.397,3.507,231.742,3.326,232.186,3.326 M224.291,2.835h-0.753l-1.245,3.617
	c-0.053,0.146-0.1,0.298-0.151,0.456c-0.053,0.157-0.101,0.315-0.146,0.474c-0.041,0.151-0.082,0.292-0.117,0.432
	c-0.028,0.129-0.059,0.251-0.075,0.352h-0.035c-0.019-0.101-0.047-0.229-0.076-0.374c-0.029-0.146-0.065-0.305-0.1-0.475
	c-0.04-0.169-0.081-0.345-0.122-0.514c-0.041-0.17-0.082-0.327-0.123-0.473l-0.562-2.012c-0.022-0.087-0.047-0.181-0.063-0.273
	c-0.024-0.094-0.035-0.176-0.035-0.24c0-0.193,0.058-0.327,0.181-0.396c0.122-0.071,0.298-0.106,0.537-0.106h0.158V2.8h-2.957v0.502
	h0.035c0.117,0,0.216,0.012,0.304,0.03l0.229,0.099l0.175,0.199c0.053,0.081,0.1,0.187,0.146,0.309l1.567,5.278h0.946l1.694-5.003
	l0.216,0.789l1.427,4.214h0.959l1.543-4.98c0.058-0.197,0.116-0.355,0.175-0.479c0.058-0.123,0.123-0.216,0.193-0.286l0.228-0.135
	c0.087-0.023,0.187-0.035,0.304-0.035h0.152V2.8h-2.561v0.502h0.082c0.269,0,0.468,0.047,0.603,0.141
	c0.128,0.094,0.192,0.245,0.192,0.45c0,0.064-0.012,0.157-0.029,0.269c-0.023,0.116-0.052,0.228-0.082,0.327l-0.596,1.929
	c-0.122,0.386-0.223,0.725-0.299,1.011c-0.075,0.293-0.134,0.538-0.169,0.737h-0.034c-0.019-0.101-0.048-0.223-0.089-0.369
	s-0.082-0.298-0.129-0.461c-0.046-0.158-0.099-0.322-0.146-0.491c-0.059-0.164-0.105-0.316-0.152-0.462L224.291,2.835z
	 M214.202,7.913V2.8h-2.139v0.502h0.035c0.134,0,0.263,0.012,0.38,0.03c0.123,0.017,0.222,0.058,0.314,0.115
	c0.089,0.065,0.158,0.152,0.212,0.264c0.052,0.117,0.075,0.269,0.075,0.456v2.466c0,0.287-0.028,0.55-0.088,0.789
	c-0.058,0.24-0.146,0.438-0.269,0.607c-0.122,0.171-0.28,0.305-0.467,0.398c-0.193,0.093-0.422,0.14-0.685,0.14
	c-0.24,0-0.444-0.034-0.602-0.11c-0.164-0.07-0.292-0.175-0.387-0.316c-0.099-0.14-0.162-0.309-0.203-0.514
	s-0.064-0.433-0.064-0.695V2.8h-2.145v0.502h0.034c0.135,0,0.258,0.012,0.381,0.03c0.116,0.017,0.222,0.058,0.309,0.115
	c0.088,0.06,0.164,0.142,0.217,0.246c0.052,0.111,0.076,0.251,0.076,0.428V6.99c0,0.408,0.046,0.76,0.134,1.058
	s0.21,0.537,0.38,0.729c0.169,0.193,0.374,0.333,0.619,0.422c0.246,0.088,0.526,0.134,0.842,0.134c0.193,0,0.38-0.012,0.562-0.046
	c0.181-0.024,0.351-0.082,0.514-0.164c0.164-0.076,0.322-0.188,0.468-0.327c0.146-0.14,0.274-0.322,0.397-0.55h0.059l0.157,0.971
	h1.9V8.714h-0.035c-0.135,0-0.257-0.012-0.374-0.023c-0.123-0.023-0.229-0.059-0.316-0.11c-0.088-0.054-0.157-0.136-0.21-0.24
	C214.231,8.229,214.202,8.089,214.202,7.913 M202.814,5.997c0-0.445,0.03-0.836,0.088-1.169s0.152-0.614,0.281-0.843
	c0.128-0.222,0.298-0.391,0.502-0.502c0.205-0.111,0.462-0.17,0.76-0.17s0.555,0.059,0.765,0.17c0.205,0.111,0.374,0.28,0.504,0.502
	c0.129,0.229,0.222,0.51,0.28,0.843s0.087,0.724,0.087,1.169c0,0.443-0.028,0.835-0.082,1.174c-0.058,0.339-0.151,0.62-0.279,0.848
	c-0.129,0.228-0.298,0.403-0.503,0.521c-0.204,0.117-0.461,0.175-0.76,0.175c-0.298,0-0.556-0.058-0.76-0.175
	c-0.211-0.117-0.38-0.293-0.509-0.521c-0.134-0.228-0.229-0.509-0.286-0.848S202.814,6.44,202.814,5.997 M207.244,5.997
	c0-0.563-0.063-1.047-0.192-1.468c-0.122-0.408-0.305-0.76-0.55-1.028c-0.233-0.28-0.525-0.479-0.87-0.619
	c-0.346-0.129-0.73-0.199-1.163-0.199c-0.93,0-1.624,0.275-2.099,0.818c-0.473,0.544-0.713,1.379-0.713,2.496
	c0,0.561,0.064,1.051,0.193,1.466c0.123,0.421,0.31,0.771,0.549,1.046c0.24,0.275,0.526,0.486,0.871,0.62s0.73,0.204,1.163,0.204
	c0.918,0,1.619-0.274,2.098-0.824C207.005,7.96,207.244,7.124,207.244,5.997 M201.005,2.8h-2.489v0.502h0.035
	c0.263,0,0.461,0.047,0.59,0.141c0.134,0.094,0.199,0.245,0.199,0.45l-0.024,0.233c-0.023,0.088-0.047,0.182-0.082,0.281l-0.8,2.331
	c-0.101,0.286-0.193,0.556-0.263,0.807c-0.082,0.251-0.142,0.468-0.182,0.643h-0.035c-0.018-0.099-0.047-0.222-0.088-0.361
	c-0.041-0.142-0.094-0.293-0.14-0.45c-0.06-0.158-0.111-0.316-0.176-0.48c-0.059-0.157-0.117-0.309-0.169-0.443l-0.877-2.134
	l-0.07-0.238l-0.023-0.199c0-0.199,0.059-0.345,0.182-0.438c0.116-0.094,0.298-0.141,0.537-0.141h0.035V2.8h-2.875v0.502h0.035
	c0.117,0,0.217,0.012,0.304,0.03l0.222,0.104l0.17,0.193c0.052,0.081,0.105,0.187,0.158,0.309l2.214,5.231
	c-0.1,0.333-0.216,0.643-0.356,0.935c-0.146,0.28-0.32,0.532-0.538,0.742c-0.21,0.21-0.461,0.374-0.754,0.497
	c-0.292,0.123-0.642,0.181-1.046,0.181v0.567h0.106c0.356,0,0.666-0.018,0.935-0.047s0.508-0.088,0.713-0.169
	c0.204-0.082,0.392-0.193,0.549-0.328c0.164-0.134,0.316-0.31,0.45-0.521c0.135-0.203,0.27-0.456,0.392-0.748
	c0.123-0.292,0.258-0.631,0.397-1.017l1.817-5.026c0.071-0.191,0.135-0.344,0.192-0.467c0.06-0.123,0.123-0.216,0.193-0.286
	l0.229-0.146c0.082-0.023,0.181-0.035,0.298-0.035h0.035V2.8z M190.743,8.714h-0.455c-0.135,0-0.258-0.012-0.38-0.029
	c-0.123-0.018-0.222-0.059-0.31-0.117c-0.094-0.063-0.164-0.151-0.21-0.263c-0.059-0.111-0.082-0.263-0.082-0.45V3.367h1.689V2.8
	h-1.689V2.093c0-0.252,0.011-0.474,0.047-0.667c0.023-0.192,0.075-0.35,0.146-0.479c0.07-0.134,0.163-0.233,0.274-0.298
	c0.117-0.063,0.263-0.099,0.433-0.099c0.152,0,0.28,0.029,0.38,0.082c0.099,0.052,0.181,0.128,0.239,0.216
	c0.065,0.087,0.105,0.193,0.129,0.311c0.029,0.11,0.041,0.227,0.041,0.35c0.146,0,0.274-0.011,0.391-0.041
	c0.123-0.029,0.222-0.076,0.31-0.128l0.205-0.211c0.052-0.087,0.076-0.182,0.076-0.292c0-0.123-0.03-0.239-0.088-0.339
	c-0.059-0.1-0.152-0.188-0.287-0.264c-0.128-0.075-0.298-0.128-0.514-0.169S190.609,0,190.299,0c-0.327,0-0.619,0.047-0.882,0.146
	c-0.263,0.094-0.485,0.233-0.666,0.42c-0.182,0.188-0.322,0.415-0.421,0.69c-0.1,0.275-0.146,0.59-0.146,0.947V2.8h-1.093v0.567
	h1.093v4.487c0,0.188-0.03,0.339-0.082,0.45c-0.053,0.111-0.123,0.199-0.211,0.263c-0.087,0.059-0.187,0.1-0.309,0.117
	c-0.117,0.018-0.246,0.029-0.38,0.029h-0.158v0.503h3.699V8.714z M184.144,0.859c0,0.141,0.018,0.258,0.053,0.351
	c0.035,0.094,0.082,0.17,0.146,0.228l0.216,0.129c0.082,0.023,0.17,0.035,0.269,0.035c0.094,0,0.181-0.012,0.263-0.035l0.216-0.129
	c0.059-0.058,0.106-0.134,0.141-0.228c0.04-0.093,0.058-0.21,0.058-0.351s-0.018-0.258-0.058-0.351
	c-0.035-0.094-0.082-0.17-0.147-0.228l-0.21-0.123c-0.082-0.023-0.169-0.035-0.263-0.035c-0.099,0-0.187,0.012-0.269,0.035
	l-0.216,0.123c-0.064,0.058-0.111,0.134-0.146,0.228C184.162,0.602,184.144,0.719,184.144,0.859 M183.332,8.714h-0.158v0.503h3.401
	V8.714h-0.157c-0.135,0-0.257-0.012-0.38-0.029s-0.222-0.059-0.31-0.117c-0.093-0.063-0.164-0.151-0.21-0.263
	c-0.059-0.111-0.082-0.263-0.082-0.45V2.8h-2.139v0.502h0.035c0.134,0,0.257,0.012,0.374,0.03c0.123,0.017,0.228,0.058,0.316,0.115
	c0.087,0.06,0.157,0.142,0.21,0.253c0.053,0.104,0.082,0.244,0.082,0.421v3.792c0,0.176-0.029,0.315-0.082,0.427
	c-0.053,0.104-0.123,0.187-0.21,0.24c-0.088,0.052-0.193,0.093-0.316,0.11C183.589,8.708,183.466,8.714,183.332,8.714"/>
<path d="M318.25,3.686l-1.697,0.379v0.287l0.94,0.172l-0.952,4.692h0.965l0.47-2.695c0.184-1.057,0.551-1.677,1.675-2.112
	l0.299,0.62h0.08c0.47,0,0.77-0.311,0.77-0.746c0-0.344-0.253-0.597-0.644-0.597c-0.574,0-1.308,0.527-2.042,1.571l0.367-1.571
	H318.25z M312.971,4.133l0.459,0.7l-0.598,3.029c-0.47,0.505-0.918,0.758-1.354,0.758c-0.665,0-0.998-0.459-0.998-1.377
	c0-1.825,0.987-3.11,2.329-3.11H312.971z M314.038,3.686l-0.229,0.253c-0.355-0.172-0.711-0.253-1.032-0.253
	c-1.136,0-2.066,0.54-2.651,1.504c-0.39,0.642-0.597,1.354-0.597,2.122c0,1.263,0.609,2.008,1.584,2.008
	c0.551,0,1.102-0.321,1.71-0.963v0.091c0,0.586,0.218,0.872,0.7,0.872c0.309,0,0.78-0.137,1.411-0.401V8.574
	c-0.311,0.068-0.517,0.114-0.644,0.114c-0.424,0-0.618-0.16-0.618-0.527c0-0.161,0.033-0.425,0.113-0.804l0.414-2.031
	c0.172-0.849,0.321-1.4,0.437-1.641H314.038z M305.098,6.669c2.043-0.138,3.133-0.872,3.133-1.848c0-0.688-0.459-1.136-1.182-1.136
	c-0.563,0-1.309,0.333-1.895,0.94c-0.642,0.677-1.021,1.642-1.021,2.605c0,1.331,0.653,2.088,1.732,2.088
	c0.757,0,1.516-0.344,2.227-1.032v-0.54c-0.666,0.62-1.309,0.941-1.836,0.941c-0.734,0-1.193-0.563-1.193-1.491
	C305.064,7.014,305.075,6.829,305.098,6.669 M305.155,6.279c0.333-1.389,0.987-2.112,1.653-2.112c0.333,0,0.596,0.265,0.596,0.62
	C307.404,5.51,306.59,6.198,305.155,6.279 M298.143,3.651l-1.125,0.367v0.253l0.976,0.08c0.206,0.274,0.356,0.665,0.459,1.192
	l0.711,3.454l0.035-0.022c-0.677,1.297-1.308,1.974-2.008,2.02l-0.677-0.677c-0.379,0.057-0.62,0.32-0.62,0.631
	c0,0.413,0.402,0.757,0.964,0.757c0.952,0,1.996-0.964,3.052-2.88c0.952-1.721,1.411-3.316,2.249-4.257l0.585-0.344V3.984
	l-0.905-0.299h-0.219c-0.723,1.687-1.319,3.133-1.802,4.36l-0.378-1.938c-0.333-1.676-0.413-2.467-1.148-2.467L298.143,3.651z"/>
<path d="M418.832,5.424c0,0.473-0.019,0.946-0.054,1.407c-0.041,0.462-0.122,0.9-0.245,1.315c-0.129,0.415-0.315,0.801-0.555,1.152
	c-0.24,0.35-0.567,0.647-0.976,0.899v0.549c0.549-0.216,1.017-0.484,1.407-0.795c0.393-0.31,0.707-0.684,0.953-1.109
	c0.245-0.434,0.427-0.93,0.537-1.496c0.117-0.562,0.176-1.204,0.176-1.923c0-0.72-0.059-1.362-0.176-1.917
	c-0.11-0.562-0.292-1.059-0.537-1.484c-0.246-0.427-0.561-0.795-0.953-1.105c-0.391-0.31-0.858-0.577-1.407-0.795V0.66
	c0.408,0.251,0.735,0.549,0.976,0.9c0.239,0.345,0.426,0.725,0.555,1.14c0.123,0.415,0.204,0.854,0.245,1.315
	C418.813,4.477,418.832,4.95,418.832,5.424 M413.654,9.333c0.357,0,0.66-0.041,0.923-0.116c0.264-0.076,0.486-0.176,0.661-0.292
	c0.175-0.117,0.305-0.246,0.392-0.387c0.088-0.134,0.129-0.263,0.129-0.386c0-0.099-0.023-0.187-0.076-0.263l-0.152-0.146
	c-0.069,0.111-0.157,0.211-0.274,0.311c-0.105,0.099-0.233,0.192-0.379,0.269c-0.147,0.076-0.305,0.141-0.48,0.188
	c-0.181,0.046-0.374,0.069-0.578,0.069c-0.287,0-0.538-0.047-0.754-0.146c-0.216-0.094-0.403-0.24-0.55-0.444
	c-0.151-0.205-0.268-0.462-0.344-0.777c-0.082-0.31-0.129-0.684-0.136-1.122h3.986V5.54c0-0.473-0.059-0.888-0.17-1.244
	c-0.116-0.356-0.28-0.654-0.496-0.895c-0.217-0.24-0.474-0.415-0.783-0.538c-0.31-0.122-0.654-0.181-1.041-0.181
	c-0.847,0-1.502,0.281-1.963,0.848c-0.462,0.566-0.689,1.408-0.689,2.524c0,0.52,0.063,0.981,0.192,1.385
	c0.123,0.409,0.305,0.754,0.543,1.035c0.24,0.28,0.532,0.491,0.877,0.637C412.836,9.258,413.222,9.333,413.654,9.333 M413.508,3.325
	c0.24,0,0.443,0.054,0.607,0.152c0.169,0.099,0.305,0.245,0.403,0.432c0.099,0.188,0.175,0.409,0.222,0.672
	c0.047,0.264,0.07,0.551,0.07,0.865h-2.752c0.041-0.695,0.181-1.221,0.42-1.583C412.719,3.507,413.064,3.325,413.508,3.325
	 M407.337,9.333c0.355,0,0.678-0.041,0.97-0.116c0.286-0.076,0.537-0.199,0.742-0.352c0.204-0.163,0.368-0.355,0.479-0.59
	c0.111-0.234,0.17-0.508,0.17-0.818c0-0.252-0.035-0.468-0.105-0.66s-0.175-0.362-0.321-0.515c-0.146-0.151-0.333-0.292-0.561-0.421
	c-0.229-0.128-0.497-0.257-0.813-0.391c-0.263-0.111-0.491-0.205-0.678-0.292c-0.193-0.088-0.345-0.183-0.462-0.275
	c-0.123-0.094-0.21-0.192-0.264-0.304c-0.053-0.111-0.082-0.245-0.082-0.397c0-0.141,0.024-0.269,0.064-0.386
	c0.041-0.117,0.112-0.216,0.205-0.304c0.088-0.088,0.205-0.152,0.351-0.199c0.146-0.046,0.315-0.07,0.521-0.07
	c0.355,0,0.613,0.111,0.783,0.333c0.164,0.223,0.245,0.532,0.245,0.936c0.274,0,0.49-0.064,0.643-0.193
	c0.146-0.134,0.222-0.309,0.222-0.525c0-0.146-0.035-0.286-0.11-0.421c-0.076-0.135-0.188-0.252-0.333-0.351
	c-0.146-0.099-0.333-0.181-0.549-0.24c-0.217-0.058-0.469-0.087-0.755-0.087c-0.339,0-0.648,0.035-0.923,0.111
	s-0.515,0.181-0.713,0.327c-0.199,0.14-0.351,0.315-0.456,0.525c-0.11,0.21-0.164,0.45-0.164,0.726c0,0.263,0.035,0.484,0.111,0.678
	c0.076,0.187,0.187,0.355,0.333,0.502c0.146,0.146,0.339,0.287,0.566,0.415c0.229,0.123,0.491,0.257,0.802,0.392
	c0.286,0.122,0.525,0.234,0.719,0.333c0.192,0.1,0.344,0.193,0.455,0.286c0.111,0.094,0.187,0.193,0.233,0.304
	c0.041,0.105,0.064,0.234,0.064,0.381c0,0.157-0.029,0.31-0.087,0.443c-0.059,0.135-0.14,0.246-0.251,0.346
	c-0.112,0.093-0.252,0.169-0.415,0.222c-0.164,0.053-0.351,0.076-0.567,0.076c-0.239,0-0.443-0.041-0.607-0.117
	c-0.17-0.082-0.305-0.193-0.403-0.327c-0.1-0.14-0.176-0.304-0.217-0.485c-0.04-0.181-0.064-0.38-0.064-0.59l-0.233,0.04
	l-0.245,0.129c-0.076,0.064-0.14,0.146-0.193,0.257c-0.052,0.105-0.082,0.24-0.082,0.398c0,0.21,0.047,0.391,0.142,0.555
	c0.093,0.152,0.227,0.286,0.396,0.397c0.169,0.104,0.38,0.187,0.625,0.233C406.764,9.31,407.04,9.333,407.337,9.333 M401.301,3.278
	c0.246,0,0.443,0.035,0.591,0.105c0.14,0.075,0.257,0.176,0.333,0.304c0.076,0.135,0.128,0.287,0.152,0.468
	c0.022,0.182,0.035,0.38,0.035,0.596v0.72l-0.994,0.035c-0.917,0.028-1.602,0.192-2.052,0.502c-0.449,0.31-0.678,0.777-0.678,1.415
	c0,0.326,0.047,0.607,0.141,0.847c0.094,0.24,0.222,0.438,0.392,0.596c0.163,0.158,0.362,0.275,0.59,0.352
	c0.229,0.075,0.473,0.116,0.736,0.116c0.252,0,0.462-0.029,0.643-0.088c0.176-0.053,0.333-0.134,0.475-0.233
	c0.14-0.1,0.268-0.223,0.385-0.362s0.24-0.292,0.363-0.462h0.099l0.187,1.029h1.619V8.714h-0.035c-0.135,0-0.246-0.012-0.339-0.041
	c-0.099-0.029-0.175-0.076-0.233-0.141c-0.059-0.063-0.1-0.151-0.128-0.263c-0.03-0.111-0.041-0.245-0.041-0.415V4.751
	c0-0.38-0.048-0.706-0.136-0.97c-0.093-0.263-0.233-0.474-0.415-0.637c-0.181-0.164-0.408-0.281-0.684-0.357
	c-0.274-0.069-0.59-0.104-0.958-0.104c-0.298,0-0.573,0.023-0.836,0.063c-0.263,0.041-0.491,0.111-0.689,0.199
	c-0.192,0.094-0.351,0.21-0.462,0.357c-0.11,0.146-0.169,0.32-0.169,0.525c0,0.274,0.087,0.474,0.257,0.584
	c0.176,0.111,0.427,0.169,0.76,0.169c0-0.187,0.012-0.361,0.041-0.52c0.029-0.157,0.082-0.298,0.164-0.415
	c0.075-0.116,0.187-0.21,0.333-0.274C400.886,3.308,401.073,3.278,401.301,3.278 M399.852,7.48c0-0.234,0.029-0.438,0.088-0.619
	c0.064-0.181,0.163-0.328,0.304-0.45c0.141-0.129,0.327-0.222,0.55-0.293c0.233-0.063,0.514-0.104,0.853-0.122l0.767-0.034v0.97
	c0,0.251-0.035,0.484-0.111,0.688c-0.076,0.205-0.183,0.38-0.316,0.526c-0.14,0.146-0.31,0.258-0.503,0.333
	c-0.198,0.076-0.42,0.117-0.66,0.117c-0.333,0-0.572-0.093-0.729-0.28C399.934,8.136,399.852,7.854,399.852,7.48 M395.278,0.55
	c-0.631,0-1.186,0.104-1.665,0.32c-0.479,0.218-0.883,0.516-1.197,0.9c-0.328,0.386-0.567,0.848-0.731,1.385
	c-0.164,0.538-0.245,1.128-0.245,1.777c0,0.66,0.076,1.257,0.233,1.8c0.158,0.544,0.386,1.005,0.695,1.391
	c0.305,0.387,0.685,0.685,1.135,0.895c0.449,0.211,0.976,0.315,1.571,0.315c0.444,0,0.83-0.041,1.151-0.129
	c0.321-0.082,0.59-0.187,0.801-0.314c0.21-0.129,0.368-0.27,0.467-0.434c0.105-0.151,0.158-0.31,0.158-0.462
	c0-0.122-0.022-0.216-0.063-0.292l-0.164-0.175c-0.1,0.134-0.216,0.257-0.352,0.38c-0.128,0.123-0.279,0.234-0.449,0.327
	c-0.169,0.094-0.368,0.17-0.591,0.222c-0.228,0.06-0.484,0.089-0.776,0.089c-0.438,0-0.818-0.089-1.128-0.264
	c-0.316-0.176-0.573-0.421-0.777-0.742c-0.205-0.315-0.351-0.695-0.444-1.14s-0.141-0.935-0.141-1.467
	c0-0.603,0.047-1.134,0.135-1.602c0.087-0.462,0.233-0.853,0.433-1.175c0.198-0.314,0.456-0.555,0.771-0.725
	c0.315-0.163,0.701-0.245,1.151-0.245c0.263,0,0.479,0.047,0.66,0.134c0.176,0.094,0.321,0.211,0.433,0.357
	c0.111,0.146,0.187,0.315,0.239,0.497c0.047,0.181,0.069,0.367,0.069,0.555c0.147,0,0.287-0.018,0.415-0.059
	c0.123-0.04,0.234-0.094,0.328-0.163c0.093-0.076,0.169-0.164,0.223-0.264c0.052-0.104,0.075-0.222,0.075-0.351
	c0-0.193-0.047-0.368-0.146-0.532c-0.101-0.163-0.252-0.304-0.45-0.426c-0.205-0.123-0.456-0.216-0.754-0.281
	C396.044,0.584,395.687,0.55,395.278,0.55 M384.685,9.333c0.356,0,0.66-0.041,0.923-0.116c0.264-0.076,0.485-0.176,0.66-0.292
	c0.176-0.117,0.304-0.246,0.392-0.387c0.089-0.134,0.129-0.263,0.129-0.386c0-0.099-0.023-0.187-0.075-0.263l-0.152-0.146
	c-0.071,0.111-0.158,0.211-0.275,0.311c-0.104,0.099-0.233,0.192-0.38,0.269c-0.146,0.076-0.304,0.141-0.479,0.188
	c-0.181,0.046-0.374,0.069-0.579,0.069c-0.286,0-0.537-0.047-0.754-0.146c-0.216-0.094-0.403-0.24-0.549-0.444
	c-0.152-0.205-0.27-0.462-0.346-0.777c-0.082-0.31-0.128-0.684-0.134-1.122h3.985V5.54c0-0.473-0.059-0.888-0.169-1.244
	c-0.117-0.356-0.281-0.654-0.497-0.895s-0.473-0.415-0.783-0.538c-0.31-0.122-0.654-0.181-1.04-0.181
	c-0.848,0-1.502,0.281-1.964,0.848c-0.461,0.566-0.689,1.408-0.689,2.524c0,0.52,0.064,0.981,0.193,1.385
	c0.122,0.409,0.303,0.754,0.543,1.035c0.24,0.28,0.532,0.491,0.877,0.637C383.866,9.258,384.252,9.333,384.685,9.333 M384.54,3.325
	c0.238,0,0.443,0.054,0.606,0.152c0.17,0.099,0.304,0.245,0.404,0.432c0.099,0.188,0.175,0.409,0.222,0.672
	c0.046,0.264,0.07,0.551,0.07,0.865h-2.753c0.041-0.695,0.181-1.221,0.421-1.583C383.75,3.507,384.094,3.325,384.54,3.325
	 M378.367,9.333c0.357,0,0.679-0.041,0.971-0.116c0.287-0.076,0.538-0.199,0.742-0.352c0.204-0.163,0.368-0.355,0.479-0.59
	s0.169-0.508,0.169-0.818c0-0.252-0.035-0.468-0.104-0.66c-0.07-0.192-0.176-0.362-0.321-0.515
	c-0.147-0.151-0.334-0.292-0.563-0.421c-0.227-0.128-0.496-0.257-0.812-0.391c-0.263-0.111-0.491-0.205-0.678-0.292
	c-0.193-0.088-0.346-0.183-0.461-0.275c-0.123-0.094-0.211-0.192-0.264-0.304s-0.082-0.245-0.082-0.397
	c0-0.141,0.023-0.269,0.064-0.386s0.11-0.216,0.205-0.304c0.087-0.088,0.204-0.152,0.35-0.199c0.146-0.046,0.316-0.07,0.521-0.07
	c0.356,0,0.613,0.111,0.782,0.333c0.164,0.223,0.246,0.532,0.246,0.936c0.275,0,0.491-0.064,0.644-0.193
	c0.146-0.134,0.222-0.309,0.222-0.525c0-0.146-0.035-0.286-0.111-0.421c-0.075-0.135-0.187-0.252-0.333-0.351
	c-0.146-0.099-0.333-0.181-0.55-0.24c-0.216-0.058-0.467-0.087-0.754-0.087c-0.339,0-0.647,0.035-0.923,0.111
	s-0.514,0.181-0.713,0.327c-0.199,0.14-0.352,0.315-0.456,0.525c-0.111,0.21-0.163,0.45-0.163,0.726
	c0,0.263,0.035,0.484,0.111,0.678c0.075,0.187,0.187,0.355,0.333,0.502c0.146,0.146,0.339,0.287,0.566,0.415
	c0.229,0.123,0.491,0.257,0.8,0.392c0.287,0.122,0.526,0.234,0.72,0.333c0.192,0.1,0.345,0.193,0.456,0.286
	c0.11,0.094,0.187,0.193,0.233,0.304c0.041,0.105,0.064,0.234,0.064,0.381c0,0.157-0.029,0.31-0.088,0.443
	c-0.059,0.135-0.141,0.246-0.251,0.346c-0.111,0.093-0.251,0.169-0.415,0.222s-0.352,0.076-0.567,0.076
	c-0.239,0-0.444-0.041-0.607-0.117c-0.17-0.082-0.304-0.193-0.403-0.327c-0.1-0.14-0.175-0.304-0.216-0.485
	c-0.041-0.181-0.064-0.38-0.064-0.59l-0.233,0.04l-0.246,0.129c-0.076,0.064-0.141,0.146-0.192,0.257
	c-0.053,0.105-0.082,0.24-0.082,0.398c0,0.21,0.047,0.391,0.14,0.555c0.095,0.152,0.229,0.286,0.397,0.397
	c0.17,0.104,0.38,0.187,0.626,0.233C377.794,9.31,378.069,9.333,378.367,9.333 M372.333,3.278c0.244,0,0.443,0.035,0.59,0.105
	c0.14,0.075,0.257,0.176,0.333,0.304c0.076,0.135,0.129,0.287,0.151,0.468c0.024,0.182,0.035,0.38,0.035,0.596v0.72l-0.993,0.035
	c-0.918,0.028-1.602,0.192-2.052,0.502s-0.677,0.777-0.677,1.415c0,0.326,0.046,0.607,0.14,0.847
	c0.094,0.24,0.223,0.438,0.392,0.596c0.164,0.158,0.362,0.275,0.591,0.352c0.228,0.075,0.473,0.116,0.736,0.116
	c0.251,0,0.462-0.029,0.643-0.088c0.175-0.053,0.333-0.134,0.473-0.233c0.141-0.1,0.27-0.223,0.387-0.362
	c0.116-0.14,0.239-0.292,0.361-0.462h0.101l0.187,1.029h1.618V8.714h-0.035c-0.134,0-0.245-0.012-0.339-0.041
	c-0.099-0.029-0.175-0.076-0.233-0.141c-0.059-0.063-0.1-0.151-0.129-0.263c-0.028-0.111-0.041-0.245-0.041-0.415V4.751
	c0-0.38-0.047-0.706-0.134-0.97c-0.094-0.263-0.234-0.474-0.415-0.637c-0.181-0.164-0.409-0.281-0.684-0.357
	c-0.275-0.069-0.59-0.104-0.958-0.104c-0.298,0-0.573,0.023-0.836,0.063c-0.264,0.041-0.491,0.111-0.69,0.199
	c-0.193,0.094-0.35,0.21-0.461,0.357c-0.111,0.146-0.17,0.32-0.17,0.525c0,0.274,0.088,0.474,0.257,0.584
	c0.176,0.111,0.427,0.169,0.76,0.169c0-0.187,0.013-0.361,0.041-0.52c0.029-0.157,0.082-0.298,0.164-0.415
	c0.076-0.116,0.188-0.21,0.333-0.274C371.917,3.308,372.104,3.278,372.333,3.278 M370.883,7.48c0-0.234,0.029-0.438,0.087-0.619
	c0.063-0.181,0.164-0.328,0.304-0.45c0.141-0.129,0.327-0.222,0.549-0.293c0.234-0.063,0.516-0.104,0.854-0.122l0.765-0.034v0.97
	c0,0.251-0.035,0.484-0.11,0.688c-0.076,0.205-0.182,0.38-0.315,0.526c-0.141,0.146-0.31,0.258-0.503,0.333
	c-0.199,0.076-0.421,0.117-0.66,0.117c-0.333,0-0.573-0.093-0.73-0.28C370.964,8.136,370.883,7.854,370.883,7.48 M364.107,4.441
	V1.269h0.8c0.34,0,0.626,0.022,0.859,0.076c0.24,0.052,0.433,0.134,0.579,0.257c0.146,0.123,0.257,0.28,0.321,0.473
	c0.064,0.199,0.1,0.444,0.1,0.737c0,0.286-0.029,0.537-0.094,0.742c-0.059,0.204-0.158,0.374-0.298,0.503
	c-0.141,0.134-0.327,0.227-0.562,0.292c-0.233,0.063-0.525,0.093-0.876,0.093H364.107z M364.107,8.62V5.037h1.187
	c0.351,0,0.643,0.035,0.877,0.111c0.232,0.076,0.42,0.188,0.561,0.339c0.146,0.152,0.245,0.345,0.304,0.573
	c0.059,0.228,0.088,0.503,0.088,0.812c0,0.322-0.035,0.592-0.1,0.813c-0.063,0.222-0.175,0.403-0.322,0.537
	c-0.146,0.141-0.338,0.24-0.571,0.304c-0.234,0.065-0.521,0.094-0.859,0.094H364.107z M368.046,2.812
	c0-0.737-0.252-1.274-0.761-1.625c-0.509-0.339-1.279-0.514-2.313-0.514h-3.209v0.502h0.152c0.135,0,0.257,0.012,0.374,0.023
	c0.123,0.023,0.228,0.059,0.315,0.117c0.087,0.058,0.158,0.14,0.21,0.245c0.053,0.111,0.082,0.251,0.082,0.427v5.867
	c0,0.187-0.022,0.339-0.076,0.45c-0.053,0.11-0.123,0.199-0.21,0.257c-0.088,0.064-0.192,0.104-0.31,0.123
	c-0.123,0.018-0.251,0.029-0.386,0.029h-0.152v0.503h3.565c1.034,0,1.806-0.193,2.313-0.579c0.509-0.38,0.76-0.958,0.76-1.73
	c0-0.314-0.047-0.596-0.134-0.847c-0.088-0.245-0.217-0.462-0.38-0.644c-0.158-0.181-0.351-0.326-0.579-0.438
	c-0.228-0.111-0.473-0.193-0.748-0.24V4.693c0.211-0.071,0.403-0.158,0.585-0.263c0.181-0.101,0.339-0.229,0.473-0.38
	c0.135-0.152,0.234-0.328,0.311-0.532C368.005,3.313,368.046,3.08,368.046,2.812 M359.097,5.424c0-0.474,0.018-0.947,0.058-1.408
	c0.036-0.462,0.117-0.9,0.24-1.315s0.311-0.795,0.549-1.14c0.246-0.352,0.573-0.649,0.982-0.9V0.122
	c-0.549,0.218-1.018,0.48-1.408,0.795c-0.392,0.305-0.707,0.679-0.959,1.105c-0.245,0.426-0.426,0.923-0.537,1.478
	c-0.111,0.562-0.17,1.204-0.17,1.924c0,0.719,0.059,1.361,0.17,1.923c0.111,0.566,0.292,1.063,0.537,1.49
	c0.252,0.432,0.567,0.806,0.959,1.115c0.391,0.311,0.859,0.579,1.408,0.795v-0.549c-0.409-0.252-0.736-0.55-0.982-0.899
	c-0.238-0.352-0.426-0.737-0.549-1.152s-0.204-0.854-0.24-1.315C359.115,6.37,359.097,5.896,359.097,5.424"/>
<polygon points="84.219,15.825 81.729,16.571 81.729,17.053 83.531,16.731 83.531,22.905 83.393,23.101 82.073,23.169 
	82.073,23.662 85.917,23.662 85.917,23.18 84.678,23.123 84.54,22.951 84.54,15.825 "/>
<polygon points="92.999,20.702 92.999,23.892 93.687,23.892 93.687,20.702 96.877,20.702 96.877,20.014 93.687,20.014 
	93.687,16.824 92.999,16.824 92.999,20.014 89.809,20.014 89.809,20.702 90.153,20.702 "/>
<path d="M115.023,21.114c2.043-0.137,3.133-0.872,3.133-1.847c0-0.688-0.459-1.136-1.182-1.136c-0.562,0-1.308,0.333-1.893,0.94
	c-0.643,0.678-1.021,1.642-1.021,2.605c0,1.331,0.654,2.088,1.732,2.088c0.758,0,1.515-0.344,2.226-1.033v-0.539
	c-0.665,0.62-1.308,0.941-1.836,0.941c-0.734,0-1.193-0.563-1.193-1.492C114.989,21.46,115.001,21.275,115.023,21.114
	 M115.081,20.725c0.333-1.388,0.987-2.111,1.652-2.111c0.333,0,0.597,0.265,0.597,0.62C117.33,19.955,116.515,20.645,115.081,20.725
	 M108.745,23.272l1.458,0.677c0.436,0.195,0.642,0.437,0.642,0.734c0,0.516-0.608,0.998-1.606,0.998
	c-0.918,0-1.549-0.539-1.549-1.273C107.69,23.822,108.057,23.433,108.745,23.272 M110.719,19.589c0,1.044-0.677,1.848-1.331,1.848
	c-0.47,0-0.769-0.345-0.769-0.964c0-1.079,0.654-1.928,1.32-1.928C110.432,18.545,110.719,18.911,110.719,19.589 M111.017,18.406
	c-0.355-0.183-0.7-0.286-1.067-0.286c-1.25,0-2.237,0.976-2.237,2.227c0,0.607,0.367,1.113,1.055,1.388
	c-0.309,0.391-0.459,0.734-0.459,1.113l0.012,0.195c-1.033,0.401-1.526,0.86-1.526,1.595c0,0.918,0.826,1.525,2.168,1.525
	c1.584,0,2.766-0.859,2.766-1.709c0-0.493-0.299-0.86-0.895-1.136l-1.825-0.827v-0.067c0-0.22,0.046-0.414,0.15-0.609
	c0.149,0.012,0.24,0.012,0.263,0.012c1.182,0,2.204-0.906,2.204-2.169c0-0.24-0.046-0.493-0.15-0.757h1.182v-0.494H111.017z
	 M103.615,18.579l0.459,0.699l-0.597,3.03c-0.47,0.505-0.918,0.757-1.354,0.757c-0.665,0-0.998-0.459-0.998-1.377
	c0-1.824,0.987-3.109,2.329-3.109H103.615z M104.682,18.132l-0.229,0.252c-0.356-0.172-0.712-0.252-1.033-0.252
	c-1.136,0-2.066,0.539-2.651,1.503c-0.39,0.643-0.597,1.354-0.597,2.123c0,1.262,0.609,2.008,1.584,2.008
	c0.551,0,1.102-0.321,1.71-0.964v0.092c0,0.585,0.218,0.872,0.7,0.872c0.309,0,0.78-0.138,1.411-0.402V23.02
	c-0.31,0.069-0.516,0.115-0.643,0.115c-0.424,0-0.619-0.161-0.619-0.528c0-0.161,0.034-0.424,0.115-0.803l0.413-2.031
	c0.172-0.849,0.321-1.399,0.436-1.641H104.682z"/>
<path d="M120.589,20.357c0-3.144,0.918-4.705,2.238-4.934v-0.528c-1.905,0.23-3.213,1.997-3.213,5.462s1.308,5.232,3.213,5.462
	v-0.527C121.507,25.063,120.589,23.502,120.589,20.357"/>
<path d="M145.976,18.131l-1.698,0.379v0.287l0.941,0.172l-0.952,4.693h0.964l0.47-2.696c0.184-1.056,0.551-1.676,1.675-2.111
	l0.299,0.62h0.08c0.47,0,0.769-0.311,0.769-0.746c0-0.345-0.253-0.598-0.643-0.598c-0.574,0-1.308,0.528-2.042,1.572l0.367-1.572
	H145.976z M140.697,18.579l0.459,0.7l-0.597,3.029c-0.47,0.505-0.918,0.758-1.354,0.758c-0.665,0-0.998-0.459-0.998-1.377
	c0-1.825,0.987-3.11,2.329-3.11H140.697z M141.764,18.131l-0.23,0.253c-0.355-0.172-0.711-0.253-1.032-0.253
	c-1.136,0-2.066,0.54-2.651,1.504c-0.39,0.643-0.597,1.354-0.597,2.122c0,1.264,0.609,2.009,1.584,2.009
	c0.551,0,1.101-0.321,1.71-0.964v0.092c0,0.586,0.218,0.872,0.7,0.872c0.309,0,0.78-0.138,1.411-0.401v-0.344
	c-0.31,0.067-0.516,0.113-0.643,0.113c-0.424,0-0.619-0.159-0.619-0.526c0-0.161,0.034-0.425,0.114-0.805l0.414-2.03
	c0.172-0.85,0.321-1.4,0.436-1.642H141.764z M132.824,21.115c2.043-0.138,3.133-0.872,3.133-1.848c0-0.688-0.459-1.137-1.182-1.137
	c-0.562,0-1.308,0.333-1.894,0.941c-0.642,0.677-1.021,1.641-1.021,2.604c0,1.331,0.654,2.089,1.733,2.089
	c0.757,0,1.515-0.345,2.226-1.032v-0.54c-0.666,0.62-1.308,0.94-1.836,0.94c-0.734,0-1.193-0.562-1.193-1.49
	C132.79,21.459,132.801,21.275,132.824,21.115 M132.881,20.726c0.333-1.39,0.987-2.112,1.653-2.112c0.333,0,0.596,0.264,0.596,0.62
	C135.13,19.956,134.316,20.645,132.881,20.726 M125.869,18.097l-1.125,0.367v0.253l0.976,0.08c0.206,0.275,0.356,0.665,0.459,1.193
	l0.711,3.454l0.035-0.023c-0.677,1.297-1.308,1.975-2.008,2.021l-0.677-0.678c-0.379,0.058-0.62,0.321-0.62,0.632
	c0,0.413,0.402,0.757,0.964,0.757c0.952,0,1.996-0.964,3.052-2.88c0.952-1.722,1.411-3.316,2.249-4.257l0.585-0.345V18.43
	l-0.906-0.299h-0.218c-0.723,1.688-1.32,3.133-1.802,4.361l-0.378-1.939c-0.333-1.676-0.413-2.467-1.148-2.467L125.869,18.097z"/>
<rect x="151.795" y="20.015" width="7.803" height="0.688"/>
<polygon points="165.614,15.825 163.124,16.571 163.124,17.053 164.926,16.731 164.926,22.905 164.788,23.101 163.468,23.169 
	163.468,23.662 167.312,23.662 167.312,23.18 166.073,23.123 165.935,22.951 165.935,15.825 "/>
<path d="M171.307,20.357c0,3.145-0.918,4.705-2.238,4.935v0.527c1.905-0.229,3.213-1.997,3.213-5.462s-1.308-5.231-3.213-5.462
	v0.528C170.389,15.652,171.307,17.214,171.307,20.357"/>
<path d="M315.23,23.778c0.357,0,0.66-0.04,0.923-0.115c0.264-0.076,0.486-0.177,0.661-0.293s0.304-0.245,0.391-0.386
	c0.089-0.135,0.13-0.263,0.13-0.386c0-0.099-0.023-0.187-0.076-0.263l-0.152-0.146c-0.07,0.111-0.158,0.21-0.275,0.311
	c-0.104,0.099-0.232,0.191-0.379,0.268s-0.304,0.142-0.479,0.188c-0.181,0.047-0.374,0.07-0.578,0.07
	c-0.287,0-0.538-0.047-0.754-0.146c-0.216-0.093-0.403-0.239-0.55-0.444c-0.151-0.204-0.269-0.461-0.345-0.776
	c-0.081-0.311-0.129-0.685-0.135-1.122h3.986v-0.55c0-0.474-0.06-0.889-0.17-1.244c-0.116-0.357-0.28-0.655-0.496-0.895
	c-0.217-0.24-0.474-0.415-0.783-0.538s-0.655-0.181-1.041-0.181c-0.847,0-1.502,0.28-1.963,0.847
	c-0.462,0.567-0.69,1.409-0.69,2.525c0,0.52,0.064,0.981,0.193,1.385c0.123,0.409,0.304,0.754,0.543,1.034
	c0.24,0.281,0.532,0.491,0.877,0.637C314.412,23.704,314.798,23.778,315.23,23.778 M315.084,17.771c0.239,0,0.443,0.053,0.607,0.152
	c0.169,0.099,0.304,0.245,0.403,0.432c0.099,0.188,0.175,0.409,0.222,0.672c0.047,0.264,0.07,0.551,0.07,0.865h-2.752
	c0.041-0.695,0.181-1.221,0.42-1.584C314.295,17.953,314.64,17.771,315.084,17.771 M310.012,23.663V23.16h-0.333
	c-0.135,0-0.258-0.013-0.374-0.023c-0.123-0.024-0.229-0.059-0.316-0.111s-0.158-0.135-0.21-0.239
	c-0.053-0.111-0.082-0.251-0.082-0.428v-1.881c0-0.151,0.006-0.322,0.023-0.509c0.018-0.188,0.041-0.374,0.082-0.561
	c0.035-0.193,0.082-0.374,0.14-0.556c0.065-0.181,0.142-0.339,0.223-0.479c0.094-0.136,0.192-0.246,0.31-0.333
	c0.117-0.082,0.251-0.123,0.396-0.123c0.234,0,0.398,0.069,0.491,0.216c0.094,0.146,0.142,0.386,0.142,0.719
	c0.204,0,0.374-0.023,0.514-0.063c0.14-0.041,0.257-0.101,0.345-0.177c0.087-0.075,0.152-0.162,0.198-0.269
	c0.041-0.105,0.059-0.222,0.059-0.344c0-0.275-0.104-0.491-0.315-0.644c-0.216-0.151-0.537-0.228-0.977-0.228
	c-0.263,0-0.484,0.035-0.659,0.099c-0.176,0.07-0.322,0.164-0.438,0.281c-0.123,0.122-0.222,0.257-0.304,0.415
	c-0.082,0.157-0.164,0.327-0.24,0.508h-0.058l-0.229-1.186h-1.841v0.502h0.035c0.134,0,0.257,0.012,0.38,0.029
	c0.117,0.018,0.222,0.059,0.31,0.116c0.087,0.06,0.163,0.142,0.217,0.246c0.052,0.111,0.075,0.251,0.075,0.427v3.734
	c0,0.187-0.023,0.339-0.075,0.45c-0.054,0.11-0.123,0.199-0.212,0.257c-0.087,0.063-0.191,0.104-0.309,0.123
	c-0.123,0.017-0.252,0.029-0.386,0.029h-0.035v0.503H310.012z M301.079,20.441c0-0.443,0.029-0.835,0.088-1.168
	s0.151-0.613,0.28-0.842c0.128-0.222,0.298-0.391,0.502-0.502c0.205-0.112,0.462-0.17,0.761-0.17c0.298,0,0.555,0.058,0.766,0.17
	c0.204,0.111,0.374,0.28,0.502,0.502c0.129,0.229,0.222,0.509,0.281,0.842c0.058,0.333,0.088,0.725,0.088,1.168
	c0,0.445-0.03,0.836-0.082,1.176c-0.06,0.339-0.152,0.619-0.281,0.848c-0.128,0.227-0.298,0.403-0.502,0.52
	c-0.205,0.117-0.462,0.176-0.76,0.176s-0.555-0.059-0.76-0.176c-0.21-0.116-0.381-0.293-0.509-0.52
	c-0.135-0.229-0.228-0.509-0.286-0.848C301.108,21.277,301.079,20.887,301.079,20.441 M305.509,20.441
	c0-0.561-0.065-1.046-0.193-1.466c-0.123-0.409-0.304-0.76-0.55-1.029c-0.233-0.279-0.526-0.479-0.87-0.618
	c-0.345-0.129-0.731-0.199-1.163-0.199c-0.93,0-1.625,0.274-2.098,0.817c-0.475,0.545-0.713,1.38-0.713,2.495
	c0,0.563,0.063,1.053,0.191,1.468c0.123,0.421,0.311,0.771,0.551,1.046c0.238,0.274,0.525,0.485,0.87,0.62
	c0.345,0.134,0.73,0.203,1.163,0.203c0.917,0,1.618-0.273,2.099-0.823C305.269,22.405,305.509,21.569,305.509,20.441 M298.869,23.16
	h-0.454c-0.136,0-0.259-0.013-0.381-0.029c-0.123-0.019-0.222-0.06-0.31-0.117c-0.094-0.063-0.164-0.152-0.21-0.263
	c-0.06-0.111-0.082-0.264-0.082-0.45v-4.488h1.688v-0.566h-1.688v-0.707c0-0.252,0.011-0.475,0.047-0.667
	c0.023-0.192,0.075-0.351,0.146-0.479c0.069-0.134,0.162-0.233,0.273-0.298c0.117-0.064,0.263-0.099,0.434-0.099
	c0.151,0,0.279,0.028,0.38,0.082c0.099,0.052,0.181,0.128,0.238,0.216c0.065,0.087,0.105,0.192,0.129,0.31
	c0.029,0.111,0.041,0.228,0.041,0.351c0.146,0,0.274-0.012,0.392-0.041c0.123-0.029,0.222-0.076,0.31-0.128l0.205-0.211
	c0.052-0.088,0.076-0.182,0.076-0.293c0-0.122-0.03-0.238-0.088-0.339c-0.06-0.099-0.152-0.187-0.287-0.263
	c-0.128-0.076-0.298-0.128-0.514-0.169s-0.479-0.065-0.789-0.065c-0.327,0-0.619,0.048-0.882,0.147
	c-0.264,0.093-0.485,0.233-0.666,0.42c-0.183,0.188-0.322,0.415-0.422,0.69c-0.1,0.274-0.146,0.59-0.146,0.946v0.597h-1.093v0.566
	h1.093v4.488c0,0.187-0.03,0.339-0.082,0.45c-0.053,0.11-0.123,0.199-0.211,0.263c-0.087,0.058-0.188,0.099-0.309,0.117
	c-0.117,0.017-0.246,0.029-0.381,0.029h-0.157v0.503h3.698V23.16z M291.887,23.778c0.355,0,0.66-0.04,0.923-0.115
	c0.263-0.076,0.485-0.177,0.66-0.293c0.176-0.116,0.304-0.245,0.392-0.386c0.088-0.135,0.129-0.263,0.129-0.386
	c0-0.099-0.023-0.187-0.076-0.263l-0.151-0.146c-0.071,0.111-0.158,0.21-0.275,0.311c-0.104,0.099-0.233,0.191-0.38,0.268
	c-0.146,0.076-0.304,0.142-0.479,0.188c-0.182,0.047-0.374,0.07-0.579,0.07c-0.286,0-0.537-0.047-0.754-0.146
	c-0.217-0.093-0.403-0.239-0.55-0.444c-0.151-0.204-0.269-0.461-0.345-0.776c-0.082-0.311-0.128-0.685-0.134-1.122h3.986v-0.55
	c0-0.474-0.06-0.889-0.17-1.244c-0.117-0.357-0.28-0.655-0.497-0.895c-0.217-0.24-0.474-0.415-0.783-0.538
	c-0.311-0.123-0.654-0.181-1.04-0.181c-0.847,0-1.502,0.28-1.964,0.847c-0.461,0.567-0.689,1.409-0.689,2.525
	c0,0.52,0.064,0.981,0.193,1.385c0.122,0.409,0.303,0.754,0.543,1.034c0.24,0.281,0.532,0.491,0.877,0.637
	C291.068,23.704,291.454,23.778,291.887,23.778 M291.741,17.771c0.239,0,0.444,0.053,0.607,0.152
	c0.17,0.099,0.304,0.245,0.404,0.432c0.099,0.188,0.175,0.409,0.222,0.672c0.046,0.264,0.07,0.551,0.07,0.865h-2.753
	c0.041-0.695,0.181-1.221,0.421-1.584C290.952,17.953,291.296,17.771,291.741,17.771 M285.156,17.894
	c0.264,0,0.491,0.053,0.679,0.158c0.192,0.104,0.345,0.263,0.462,0.474c0.123,0.21,0.21,0.474,0.263,0.789
	c0.053,0.321,0.082,0.689,0.082,1.116c0,0.421-0.029,0.789-0.082,1.116c-0.053,0.315-0.14,0.59-0.263,0.807
	c-0.117,0.216-0.27,0.385-0.456,0.49c-0.182,0.117-0.409,0.17-0.672,0.17c-0.315,0-0.578-0.053-0.789-0.17
	c-0.204-0.105-0.374-0.274-0.502-0.49c-0.123-0.217-0.218-0.485-0.27-0.807c-0.053-0.321-0.076-0.69-0.076-1.105
	c0-0.432,0.023-0.806,0.076-1.127c0.052-0.321,0.146-0.585,0.27-0.795c0.122-0.211,0.292-0.368,0.496-0.468
	C284.584,17.946,284.847,17.894,285.156,17.894 M287.804,20.441c0-0.571-0.053-1.068-0.158-1.483
	c-0.111-0.415-0.269-0.761-0.473-1.034c-0.205-0.27-0.462-0.468-0.767-0.596c-0.304-0.136-0.653-0.199-1.046-0.199
	c-0.233,0-0.443,0.029-0.631,0.082c-0.187,0.058-0.356,0.14-0.503,0.245c-0.146,0.1-0.28,0.228-0.391,0.374
	c-0.111,0.146-0.218,0.315-0.305,0.497h-0.047c0.006-0.199,0.019-0.393,0.023-0.579c0.006-0.163,0.012-0.333,0.018-0.515
	c0.006-0.175,0.006-0.333,0.006-0.467v-2.198h-2.203v0.503h0.094c0.134,0,0.257,0.012,0.374,0.029
	c0.123,0.018,0.228,0.053,0.315,0.111c0.087,0.058,0.157,0.14,0.21,0.251c0.054,0.105,0.082,0.246,0.082,0.421v6.417
	c0,0.187-0.028,0.339-0.082,0.45c-0.053,0.11-0.123,0.199-0.21,0.263c-0.088,0.058-0.187,0.099-0.31,0.117
	c-0.117,0.017-0.246,0.029-0.38,0.029h-0.094v0.503h1.916l0.211-0.936h0.076c0.087,0.157,0.188,0.298,0.298,0.426
	c0.117,0.13,0.251,0.24,0.397,0.333c0.152,0.095,0.322,0.164,0.509,0.218c0.188,0.052,0.397,0.074,0.625,0.074
	c0.393,0,0.742-0.063,1.046-0.197c0.305-0.129,0.562-0.327,0.767-0.603c0.204-0.274,0.361-0.62,0.467-1.04
	C287.751,21.518,287.804,21.021,287.804,20.441 M273.846,23.16h-0.035c-0.134,0-0.257-0.013-0.374-0.023
	c-0.123-0.024-0.228-0.059-0.315-0.111s-0.157-0.135-0.211-0.239c-0.052-0.111-0.082-0.251-0.082-0.428v-2.523
	c0-0.257,0.024-0.503,0.076-0.737c0.047-0.232,0.129-0.438,0.24-0.619c0.111-0.181,0.263-0.322,0.444-0.427
	c0.187-0.105,0.415-0.158,0.689-0.158c0.239,0,0.444,0.036,0.613,0.111c0.17,0.071,0.304,0.176,0.409,0.315
	c0.1,0.141,0.176,0.311,0.223,0.515c0.046,0.205,0.07,0.433,0.07,0.695v4.133h2.086V23.16h-0.041c-0.134,0-0.257-0.013-0.368-0.029
	c-0.111-0.019-0.21-0.06-0.292-0.117c-0.082-0.063-0.146-0.152-0.187-0.263c-0.048-0.111-0.07-0.264-0.07-0.45v-2.829
	c0-0.409-0.047-0.759-0.135-1.057c-0.094-0.298-0.229-0.538-0.397-0.726c-0.176-0.192-0.386-0.333-0.631-0.421
	c-0.252-0.093-0.532-0.14-0.848-0.14c-0.193,0-0.374,0.017-0.55,0.047c-0.17,0.029-0.333,0.081-0.49,0.163
	c-0.152,0.076-0.298,0.187-0.434,0.333c-0.14,0.141-0.273,0.322-0.396,0.544h-0.059l-0.157-0.97h-1.936v0.502h0.035
	c0.135,0,0.258,0.012,0.375,0.029c0.122,0.018,0.227,0.059,0.314,0.116c0.089,0.06,0.158,0.142,0.211,0.252
	c0.053,0.105,0.082,0.245,0.082,0.421v3.734c0,0.187-0.029,0.339-0.082,0.45c-0.053,0.11-0.122,0.199-0.211,0.263
	c-0.088,0.058-0.187,0.099-0.31,0.117c-0.117,0.017-0.245,0.029-0.38,0.029h-0.099v0.503h3.22V23.16z M268.511,23.663V23.16h-0.333
	c-0.135,0-0.257-0.013-0.374-0.023c-0.123-0.024-0.229-0.059-0.316-0.111c-0.087-0.053-0.157-0.135-0.21-0.239
	c-0.053-0.111-0.082-0.251-0.082-0.428v-1.881c0-0.151,0.006-0.322,0.023-0.509c0.018-0.188,0.041-0.374,0.082-0.561
	c0.035-0.193,0.082-0.374,0.141-0.556c0.064-0.181,0.141-0.339,0.223-0.479c0.093-0.136,0.191-0.246,0.309-0.333
	c0.117-0.082,0.252-0.123,0.397-0.123c0.234,0,0.397,0.069,0.491,0.216c0.093,0.146,0.141,0.386,0.141,0.719
	c0.203,0,0.374-0.023,0.514-0.063c0.14-0.041,0.257-0.101,0.345-0.177c0.088-0.075,0.152-0.162,0.199-0.269
	c0.041-0.105,0.058-0.222,0.058-0.344c0-0.275-0.104-0.491-0.314-0.644c-0.217-0.151-0.538-0.228-0.977-0.228
	c-0.263,0-0.484,0.035-0.66,0.099c-0.176,0.07-0.321,0.164-0.438,0.281c-0.123,0.122-0.222,0.257-0.304,0.415
	c-0.082,0.157-0.164,0.327-0.24,0.508h-0.058l-0.229-1.186h-1.841v0.502h0.035c0.135,0,0.257,0.012,0.38,0.029
	c0.117,0.018,0.222,0.059,0.31,0.116c0.087,0.06,0.163,0.142,0.217,0.246c0.053,0.111,0.075,0.251,0.075,0.427v3.734
	c0,0.187-0.022,0.339-0.075,0.45c-0.054,0.11-0.123,0.199-0.211,0.257c-0.088,0.063-0.192,0.104-0.31,0.123
	c-0.123,0.017-0.251,0.029-0.386,0.029h-0.035v0.503H268.511z M259.578,20.441c0-0.443,0.029-0.835,0.089-1.168
	c0.058-0.333,0.151-0.613,0.279-0.842c0.129-0.222,0.298-0.391,0.503-0.502c0.204-0.112,0.461-0.17,0.761-0.17
	c0.298,0,0.555,0.058,0.765,0.17c0.205,0.111,0.374,0.28,0.503,0.502c0.128,0.229,0.222,0.509,0.28,0.842s0.088,0.725,0.088,1.168
	c0,0.445-0.029,0.836-0.082,1.176c-0.059,0.339-0.152,0.619-0.28,0.848c-0.129,0.227-0.299,0.403-0.503,0.52
	c-0.205,0.117-0.462,0.176-0.76,0.176s-0.556-0.059-0.76-0.176c-0.21-0.116-0.38-0.293-0.509-0.52
	c-0.134-0.229-0.228-0.509-0.285-0.848C259.607,21.277,259.578,20.887,259.578,20.441 M264.008,20.441
	c0-0.561-0.064-1.046-0.193-1.466c-0.123-0.409-0.304-0.76-0.549-1.029c-0.234-0.279-0.526-0.479-0.871-0.618
	c-0.345-0.129-0.73-0.199-1.163-0.199c-0.929,0-1.625,0.274-2.098,0.817c-0.475,0.545-0.713,1.38-0.713,2.495
	c0,0.563,0.063,1.053,0.192,1.468c0.122,0.421,0.31,0.771,0.549,1.046c0.24,0.274,0.526,0.485,0.871,0.62
	c0.346,0.134,0.73,0.203,1.163,0.203c0.917,0,1.619-0.273,2.099-0.823C263.768,22.405,264.008,21.569,264.008,20.441
	 M254.467,17.894c0.263,0,0.491,0.053,0.678,0.158c0.192,0.104,0.344,0.263,0.461,0.474c0.123,0.21,0.211,0.474,0.263,0.789
	c0.054,0.321,0.082,0.689,0.082,1.116c0,0.421-0.028,0.789-0.082,1.116c-0.052,0.315-0.14,0.59-0.263,0.807
	c-0.117,0.216-0.269,0.385-0.456,0.49c-0.181,0.117-0.409,0.17-0.672,0.17c-0.315,0-0.578-0.053-0.789-0.17
	c-0.204-0.105-0.374-0.274-0.502-0.49c-0.123-0.217-0.216-0.485-0.269-0.807c-0.054-0.321-0.076-0.69-0.076-1.105
	c0-0.432,0.022-0.806,0.076-1.127c0.053-0.321,0.146-0.585,0.269-0.795c0.123-0.211,0.292-0.368,0.497-0.468
	C253.894,17.946,254.157,17.894,254.467,17.894 M257.114,20.441c0-0.571-0.053-1.068-0.158-1.483
	c-0.11-0.415-0.269-0.761-0.473-1.034c-0.205-0.27-0.462-0.468-0.766-0.596c-0.305-0.136-0.654-0.199-1.046-0.199
	c-0.234,0-0.444,0.029-0.632,0.082c-0.187,0.058-0.355,0.14-0.503,0.245c-0.146,0.1-0.279,0.228-0.391,0.374
	c-0.111,0.146-0.216,0.315-0.304,0.497h-0.047c0.006-0.199,0.018-0.393,0.023-0.579c0.005-0.163,0.011-0.333,0.018-0.515
	c0.006-0.175,0.006-0.333,0.006-0.467v-2.198h-2.203v0.503h0.093c0.135,0,0.257,0.012,0.374,0.029
	c0.123,0.018,0.229,0.053,0.316,0.111c0.088,0.058,0.157,0.14,0.21,0.251c0.053,0.105,0.082,0.246,0.082,0.421v6.417
	c0,0.187-0.029,0.339-0.082,0.45c-0.053,0.11-0.122,0.199-0.21,0.263c-0.088,0.058-0.188,0.099-0.311,0.117
	c-0.117,0.017-0.245,0.029-0.38,0.029h-0.093v0.503h1.917l0.21-0.936h0.076c0.088,0.157,0.187,0.298,0.298,0.426
	c0.117,0.13,0.251,0.24,0.396,0.333c0.152,0.095,0.322,0.164,0.51,0.218c0.187,0.052,0.396,0.074,0.625,0.074
	c0.392,0,0.741-0.063,1.046-0.197c0.304-0.129,0.561-0.327,0.766-0.603c0.204-0.274,0.362-0.62,0.467-1.04
	C257.061,21.518,257.114,21.021,257.114,20.441 M244.364,23.778c0.357,0,0.661-0.04,0.924-0.115c0.264-0.076,0.485-0.177,0.66-0.293
	c0.176-0.116,0.305-0.245,0.392-0.386c0.088-0.135,0.129-0.263,0.129-0.386c0-0.099-0.023-0.187-0.076-0.263l-0.152-0.146
	c-0.069,0.111-0.157,0.21-0.274,0.311c-0.105,0.099-0.233,0.191-0.379,0.268c-0.147,0.076-0.305,0.142-0.48,0.188
	c-0.181,0.047-0.374,0.07-0.578,0.07c-0.287,0-0.538-0.047-0.754-0.146c-0.216-0.093-0.403-0.239-0.549-0.444
	c-0.152-0.204-0.27-0.461-0.345-0.776c-0.082-0.311-0.129-0.685-0.136-1.122h3.986v-0.55c0-0.474-0.058-0.889-0.169-1.244
	c-0.117-0.357-0.281-0.655-0.497-0.895c-0.216-0.24-0.474-0.415-0.783-0.538s-0.654-0.181-1.041-0.181
	c-0.847,0-1.501,0.28-1.963,0.847c-0.462,0.567-0.689,1.409-0.689,2.525c0,0.52,0.063,0.981,0.192,1.385
	c0.123,0.409,0.305,0.754,0.544,1.034c0.239,0.281,0.531,0.491,0.876,0.637C243.546,23.704,243.932,23.778,244.364,23.778
	 M244.218,17.771c0.24,0,0.443,0.053,0.607,0.152c0.169,0.099,0.305,0.245,0.403,0.432c0.099,0.188,0.175,0.409,0.222,0.672
	c0.048,0.264,0.07,0.551,0.07,0.865h-2.752c0.041-0.695,0.181-1.221,0.42-1.584C243.429,17.953,243.774,17.771,244.218,17.771
	 M239.146,23.663V23.16h-0.333c-0.135,0-0.257-0.013-0.374-0.023c-0.123-0.024-0.228-0.059-0.315-0.111
	c-0.089-0.053-0.158-0.135-0.211-0.239c-0.053-0.111-0.082-0.251-0.082-0.428v-1.881c0-0.151,0.007-0.322,0.023-0.509
	c0.018-0.188,0.041-0.374,0.082-0.561c0.035-0.193,0.082-0.374,0.14-0.556c0.065-0.181,0.142-0.339,0.223-0.479
	c0.094-0.136,0.192-0.246,0.31-0.333c0.117-0.082,0.251-0.123,0.398-0.123c0.232,0,0.396,0.069,0.489,0.216
	c0.095,0.146,0.142,0.386,0.142,0.719c0.204,0,0.374-0.023,0.514-0.063c0.141-0.041,0.257-0.101,0.345-0.177
	c0.088-0.075,0.152-0.162,0.199-0.269c0.04-0.105,0.059-0.222,0.059-0.344c0-0.275-0.105-0.491-0.316-0.644
	c-0.216-0.151-0.537-0.228-0.976-0.228c-0.264,0-0.485,0.035-0.66,0.099c-0.175,0.07-0.321,0.164-0.438,0.281
	c-0.123,0.122-0.222,0.257-0.304,0.415c-0.082,0.157-0.164,0.327-0.24,0.508h-0.058l-0.229-1.186h-1.841v0.502h0.035
	c0.134,0,0.257,0.012,0.38,0.029c0.117,0.018,0.222,0.059,0.311,0.116c0.087,0.06,0.162,0.142,0.216,0.246
	c0.052,0.111,0.076,0.251,0.076,0.427v3.734c0,0.187-0.024,0.339-0.076,0.45c-0.054,0.11-0.123,0.199-0.211,0.257
	c-0.087,0.063-0.192,0.104-0.31,0.123c-0.123,0.017-0.252,0.029-0.386,0.029h-0.035v0.503H239.146z M232.333,23.778
	c0.355,0,0.659-0.04,0.923-0.115c0.263-0.076,0.484-0.177,0.66-0.293s0.304-0.245,0.392-0.386c0.088-0.135,0.128-0.263,0.128-0.386
	c0-0.099-0.023-0.187-0.076-0.263l-0.15-0.146c-0.071,0.111-0.158,0.21-0.275,0.311c-0.105,0.099-0.234,0.191-0.38,0.268
	c-0.146,0.076-0.304,0.142-0.479,0.188c-0.181,0.047-0.374,0.07-0.579,0.07c-0.285,0-0.536-0.047-0.754-0.146
	c-0.216-0.093-0.402-0.239-0.549-0.444c-0.151-0.204-0.269-0.461-0.345-0.776c-0.082-0.311-0.128-0.685-0.134-1.122h3.984v-0.55
	c0-0.474-0.058-0.889-0.169-1.244c-0.117-0.357-0.28-0.655-0.497-0.895c-0.216-0.24-0.473-0.415-0.782-0.538
	c-0.311-0.123-0.654-0.181-1.04-0.181c-0.849,0-1.502,0.28-1.965,0.847c-0.461,0.567-0.688,1.409-0.688,2.525
	c0,0.52,0.063,0.981,0.192,1.385c0.122,0.409,0.304,0.754,0.544,1.034c0.239,0.281,0.531,0.491,0.877,0.637
	C231.514,23.704,231.9,23.778,232.333,23.778 M232.186,17.771c0.24,0,0.445,0.053,0.608,0.152c0.17,0.099,0.304,0.245,0.402,0.432
	c0.101,0.188,0.177,0.409,0.224,0.672c0.046,0.264,0.069,0.551,0.069,0.865h-2.753c0.041-0.695,0.182-1.221,0.421-1.584
	C231.397,17.953,231.742,17.771,232.186,17.771 M224.292,17.28h-0.754l-1.244,3.617c-0.054,0.146-0.101,0.298-0.152,0.456
	c-0.053,0.158-0.1,0.316-0.146,0.475c-0.041,0.15-0.082,0.292-0.116,0.432c-0.029,0.129-0.06,0.251-0.076,0.351h-0.035
	c-0.018-0.1-0.047-0.228-0.076-0.374c-0.029-0.146-0.064-0.304-0.1-0.474c-0.04-0.169-0.081-0.345-0.122-0.514
	c-0.041-0.17-0.082-0.327-0.123-0.474l-0.562-2.011c-0.022-0.087-0.047-0.181-0.063-0.273c-0.024-0.095-0.035-0.177-0.035-0.24
	c0-0.193,0.058-0.327,0.181-0.397c0.122-0.07,0.298-0.105,0.537-0.105h0.158v-0.502h-2.957v0.502h0.035
	c0.117,0,0.216,0.012,0.304,0.029l0.229,0.1l0.175,0.199c0.053,0.08,0.1,0.187,0.146,0.309l1.567,5.278h0.946l1.694-5.003
	l0.217,0.789l1.426,4.214h0.959l1.543-4.98c0.058-0.198,0.117-0.355,0.175-0.479s0.123-0.217,0.193-0.286l0.228-0.135
	c0.087-0.023,0.188-0.035,0.304-0.035h0.152v-0.502h-2.56v0.502h0.082c0.268,0,0.467,0.047,0.602,0.141
	c0.128,0.093,0.192,0.245,0.192,0.45c0,0.063-0.012,0.157-0.029,0.268c-0.023,0.117-0.052,0.229-0.082,0.328l-0.596,1.928
	c-0.122,0.387-0.223,0.726-0.298,1.012c-0.076,0.293-0.135,0.538-0.169,0.736h-0.035c-0.019-0.1-0.047-0.222-0.088-0.368
	s-0.082-0.299-0.129-0.462c-0.047-0.157-0.1-0.321-0.146-0.49c-0.058-0.164-0.105-0.316-0.152-0.462L224.292,17.28z M214.202,22.358
	v-5.112h-2.139v0.502h0.035c0.134,0,0.263,0.012,0.38,0.029c0.123,0.018,0.222,0.059,0.315,0.116
	c0.088,0.065,0.157,0.152,0.211,0.263c0.052,0.117,0.075,0.27,0.075,0.456v2.467c0,0.287-0.028,0.55-0.088,0.789
	c-0.058,0.239-0.146,0.438-0.269,0.607c-0.122,0.17-0.28,0.304-0.467,0.398c-0.193,0.093-0.421,0.14-0.685,0.14
	c-0.239,0-0.443-0.035-0.602-0.111c-0.164-0.069-0.292-0.175-0.386-0.315c-0.1-0.141-0.163-0.31-0.204-0.515
	c-0.041-0.204-0.064-0.432-0.064-0.694v-4.132h-2.145v0.502h0.034c0.135,0,0.258,0.012,0.381,0.029
	c0.116,0.018,0.222,0.059,0.309,0.116c0.088,0.06,0.164,0.142,0.217,0.246c0.053,0.111,0.076,0.251,0.076,0.427v2.869
	c0,0.409,0.046,0.76,0.134,1.059c0.088,0.298,0.21,0.536,0.38,0.729c0.169,0.193,0.374,0.333,0.619,0.421
	c0.246,0.088,0.526,0.134,0.842,0.134c0.193,0,0.381-0.011,0.562-0.046c0.181-0.023,0.351-0.082,0.514-0.164
	c0.164-0.075,0.322-0.187,0.468-0.326c0.146-0.141,0.274-0.322,0.397-0.551h0.059l0.157,0.972h1.9V23.16h-0.035
	c-0.135,0-0.257-0.013-0.374-0.023c-0.123-0.024-0.228-0.059-0.316-0.111c-0.088-0.053-0.157-0.135-0.21-0.239
	C214.231,22.675,214.202,22.535,214.202,22.358 M202.814,20.441c0-0.443,0.03-0.835,0.088-1.168
	c0.059-0.333,0.152-0.613,0.281-0.842c0.128-0.222,0.298-0.391,0.502-0.502c0.205-0.112,0.462-0.17,0.76-0.17
	s0.556,0.058,0.766,0.17c0.204,0.111,0.374,0.28,0.503,0.502c0.129,0.229,0.222,0.509,0.28,0.842s0.087,0.725,0.087,1.168
	c0,0.445-0.028,0.836-0.081,1.176c-0.059,0.339-0.152,0.619-0.28,0.848c-0.129,0.227-0.298,0.403-0.503,0.52
	c-0.204,0.117-0.461,0.176-0.759,0.176c-0.3,0-0.557-0.059-0.761-0.176c-0.211-0.116-0.38-0.293-0.509-0.52
	c-0.134-0.229-0.228-0.509-0.286-0.848C202.844,21.277,202.814,20.887,202.814,20.441 M207.244,20.441
	c0-0.561-0.063-1.046-0.192-1.466c-0.122-0.409-0.305-0.76-0.549-1.029c-0.234-0.279-0.526-0.479-0.871-0.618
	c-0.346-0.129-0.73-0.199-1.163-0.199c-0.929,0-1.624,0.274-2.099,0.817c-0.473,0.545-0.713,1.38-0.713,2.495
	c0,0.563,0.064,1.053,0.193,1.468c0.123,0.421,0.31,0.771,0.549,1.046c0.24,0.274,0.526,0.485,0.871,0.62
	c0.345,0.134,0.731,0.203,1.163,0.203c0.918,0,1.619-0.273,2.098-0.823C207.005,22.405,207.244,21.569,207.244,20.441
	 M201.005,17.246h-2.489v0.502h0.035c0.263,0,0.461,0.047,0.59,0.141c0.134,0.093,0.199,0.245,0.199,0.45l-0.024,0.232
	c-0.022,0.089-0.047,0.183-0.082,0.281l-0.8,2.332c-0.1,0.286-0.193,0.556-0.263,0.807c-0.082,0.251-0.142,0.468-0.182,0.643h-0.036
	c-0.017-0.099-0.046-0.222-0.087-0.362s-0.094-0.293-0.14-0.45c-0.059-0.157-0.111-0.315-0.176-0.479
	c-0.059-0.157-0.117-0.309-0.169-0.444l-0.877-2.133l-0.07-0.239l-0.023-0.198c0-0.199,0.059-0.346,0.182-0.438
	c0.117-0.094,0.298-0.141,0.537-0.141h0.036v-0.502h-2.876v0.502h0.035c0.117,0,0.217,0.012,0.304,0.029l0.222,0.105l0.17,0.193
	c0.052,0.08,0.105,0.187,0.158,0.309l2.214,5.231c-0.099,0.333-0.216,0.643-0.356,0.935c-0.146,0.28-0.32,0.532-0.537,0.742
	c-0.211,0.211-0.462,0.374-0.755,0.497c-0.292,0.123-0.642,0.181-1.045,0.181v0.567h0.106c0.356,0,0.666-0.019,0.935-0.047
	c0.269-0.029,0.509-0.089,0.713-0.17s0.392-0.192,0.55-0.327c0.164-0.135,0.315-0.31,0.449-0.521
	c0.135-0.204,0.27-0.456,0.392-0.748c0.123-0.292,0.258-0.631,0.397-1.017l1.817-5.026c0.071-0.191,0.135-0.344,0.193-0.467
	s0.123-0.216,0.192-0.286l0.229-0.146c0.082-0.023,0.181-0.035,0.298-0.035h0.035V17.246z M190.743,23.16h-0.455
	c-0.135,0-0.258-0.013-0.38-0.029c-0.123-0.019-0.222-0.06-0.31-0.117c-0.094-0.063-0.164-0.152-0.21-0.263
	c-0.059-0.111-0.082-0.264-0.082-0.45v-4.488h1.689v-0.566h-1.689v-0.707c0-0.252,0.011-0.475,0.047-0.667
	c0.023-0.192,0.075-0.351,0.146-0.479c0.07-0.134,0.163-0.233,0.274-0.298c0.117-0.064,0.263-0.099,0.433-0.099
	c0.152,0,0.28,0.028,0.38,0.082c0.099,0.052,0.181,0.128,0.239,0.216c0.064,0.087,0.105,0.192,0.129,0.31
	c0.029,0.111,0.041,0.228,0.041,0.351c0.146,0,0.274-0.012,0.391-0.041c0.123-0.029,0.222-0.076,0.31-0.128l0.205-0.211
	c0.052-0.088,0.076-0.182,0.076-0.293c0-0.122-0.03-0.238-0.088-0.339c-0.059-0.099-0.152-0.187-0.286-0.263
	c-0.129-0.076-0.299-0.128-0.515-0.169c-0.216-0.041-0.479-0.065-0.789-0.065c-0.327,0-0.619,0.048-0.882,0.147
	c-0.263,0.093-0.485,0.233-0.666,0.42c-0.182,0.188-0.322,0.415-0.421,0.69c-0.1,0.274-0.146,0.59-0.146,0.946v0.597h-1.093v0.566
	h1.093v4.488c0,0.187-0.03,0.339-0.082,0.45c-0.053,0.11-0.123,0.199-0.211,0.263c-0.087,0.058-0.187,0.099-0.309,0.117
	c-0.117,0.017-0.246,0.029-0.38,0.029h-0.158v0.503h3.699V23.16z M184.144,15.306c0,0.14,0.018,0.257,0.053,0.35
	c0.035,0.095,0.082,0.171,0.146,0.229l0.216,0.129c0.082,0.023,0.17,0.035,0.269,0.035c0.094,0,0.181-0.012,0.263-0.035l0.216-0.129
	c0.059-0.058,0.106-0.134,0.141-0.229c0.04-0.093,0.058-0.21,0.058-0.35c0-0.141-0.018-0.258-0.058-0.351
	c-0.035-0.095-0.082-0.17-0.147-0.229l-0.21-0.123c-0.082-0.022-0.169-0.035-0.263-0.035c-0.099,0-0.187,0.013-0.269,0.035
	l-0.216,0.123c-0.064,0.059-0.111,0.134-0.146,0.229C184.162,15.048,184.144,15.165,184.144,15.306 M183.332,23.16h-0.158v0.503
	h3.401V23.16h-0.157c-0.135,0-0.257-0.013-0.38-0.029c-0.123-0.019-0.222-0.06-0.31-0.117c-0.093-0.063-0.164-0.152-0.21-0.263
	c-0.059-0.111-0.082-0.264-0.082-0.45v-5.055h-2.139v0.502h0.035c0.134,0,0.257,0.012,0.374,0.029
	c0.123,0.018,0.228,0.059,0.316,0.116c0.087,0.06,0.157,0.142,0.21,0.252c0.053,0.105,0.082,0.245,0.082,0.421v3.792
	c0,0.177-0.029,0.316-0.082,0.428c-0.053,0.104-0.123,0.187-0.21,0.239c-0.088,0.053-0.193,0.094-0.316,0.111
	C183.589,23.153,183.466,23.16,183.332,23.16"/>
<path d="M343.796,18.131l-1.698,0.379v0.287l0.94,0.172l-0.951,4.693h0.964l0.47-2.696c0.184-1.056,0.551-1.676,1.675-2.111
	l0.299,0.62h0.08c0.471,0,0.77-0.311,0.77-0.746c0-0.345-0.253-0.598-0.644-0.598c-0.573,0-1.308,0.528-2.042,1.572l0.367-1.572
	H343.796z M338.517,18.579l0.459,0.7l-0.597,3.029c-0.471,0.505-0.918,0.758-1.354,0.758c-0.665,0-0.998-0.459-0.998-1.377
	c0-1.825,0.987-3.11,2.329-3.11H338.517z M339.583,18.131l-0.229,0.253c-0.355-0.172-0.711-0.253-1.032-0.253
	c-1.136,0-2.065,0.54-2.65,1.504c-0.391,0.643-0.598,1.354-0.598,2.122c0,1.264,0.609,2.009,1.584,2.009
	c0.551,0,1.102-0.321,1.71-0.964v0.092c0,0.586,0.219,0.872,0.7,0.872c0.31,0,0.78-0.138,1.411-0.401v-0.344
	c-0.311,0.067-0.516,0.113-0.643,0.113c-0.425,0-0.619-0.159-0.619-0.526c0-0.161,0.033-0.425,0.113-0.805l0.414-2.03
	c0.172-0.85,0.321-1.4,0.437-1.642H339.583z M330.644,21.115c2.043-0.138,3.133-0.872,3.133-1.848c0-0.688-0.459-1.137-1.182-1.137
	c-0.563,0-1.309,0.333-1.895,0.941c-0.642,0.677-1.021,1.641-1.021,2.604c0,1.331,0.653,2.089,1.732,2.089
	c0.758,0,1.516-0.345,2.227-1.032v-0.54c-0.666,0.62-1.309,0.94-1.836,0.94c-0.734,0-1.193-0.562-1.193-1.49
	C330.61,21.459,330.621,21.275,330.644,21.115 M330.701,20.726c0.333-1.39,0.987-2.112,1.653-2.112c0.333,0,0.596,0.264,0.596,0.62
	C332.95,19.956,332.136,20.645,330.701,20.726 M323.689,18.097l-1.125,0.367v0.253l0.976,0.08c0.206,0.275,0.356,0.665,0.459,1.193
	l0.711,3.454l0.035-0.023c-0.677,1.297-1.308,1.975-2.008,2.021l-0.677-0.678c-0.379,0.058-0.62,0.321-0.62,0.632
	c0,0.413,0.402,0.757,0.964,0.757c0.952,0,1.996-0.964,3.052-2.88c0.952-1.722,1.411-3.316,2.249-4.257l0.585-0.345V18.43
	l-0.905-0.299h-0.219c-0.723,1.688-1.319,3.133-1.802,4.361l-0.378-1.939c-0.333-1.676-0.413-2.467-1.147-2.467L323.689,18.097z"/>
<path d="M448.376,19.869c0,0.474-0.019,0.947-0.054,1.408c-0.041,0.462-0.123,0.9-0.246,1.315c-0.128,0.415-0.314,0.801-0.555,1.151
	c-0.239,0.351-0.566,0.648-0.976,0.9v0.549c0.55-0.216,1.017-0.484,1.409-0.795c0.391-0.31,0.707-0.684,0.951-1.11
	c0.246-0.433,0.428-0.929,0.538-1.495c0.117-0.562,0.175-1.204,0.175-1.924c0-0.719-0.058-1.361-0.175-1.917
	c-0.11-0.561-0.292-1.058-0.538-1.483c-0.244-0.427-0.561-0.795-0.951-1.105c-0.393-0.31-0.859-0.578-1.409-0.795v0.538
	c0.409,0.251,0.736,0.549,0.976,0.9c0.24,0.345,0.427,0.725,0.555,1.14c0.123,0.415,0.205,0.854,0.246,1.315
	C448.358,18.923,448.376,19.396,448.376,19.869 M443.199,23.779c0.356,0,0.66-0.041,0.924-0.117
	c0.263-0.075,0.484-0.176,0.659-0.292c0.177-0.116,0.305-0.245,0.393-0.386c0.088-0.135,0.129-0.263,0.129-0.386
	c0-0.099-0.024-0.188-0.076-0.263l-0.152-0.146c-0.069,0.111-0.157,0.21-0.274,0.311c-0.105,0.099-0.234,0.192-0.38,0.269
	c-0.146,0.076-0.305,0.14-0.479,0.187c-0.181,0.047-0.374,0.07-0.579,0.07c-0.286,0-0.537-0.047-0.754-0.146
	c-0.216-0.095-0.402-0.24-0.549-0.444c-0.152-0.205-0.269-0.462-0.345-0.778c-0.082-0.309-0.128-0.683-0.134-1.122h3.985v-0.549
	c0-0.474-0.059-0.888-0.17-1.245c-0.117-0.355-0.28-0.653-0.497-0.894c-0.216-0.24-0.473-0.415-0.783-0.538
	c-0.31-0.122-0.653-0.181-1.04-0.181c-0.847,0-1.502,0.28-1.964,0.848c-0.461,0.566-0.688,1.408-0.688,2.524
	c0,0.52,0.063,0.981,0.192,1.385c0.122,0.409,0.304,0.754,0.543,1.035c0.24,0.279,0.532,0.49,0.877,0.637
	C442.38,23.703,442.766,23.779,443.199,23.779 M443.053,17.771c0.239,0,0.444,0.053,0.606,0.152
	c0.171,0.099,0.305,0.245,0.404,0.432c0.099,0.188,0.175,0.409,0.222,0.672c0.047,0.264,0.07,0.55,0.07,0.865h-2.753
	c0.041-0.695,0.181-1.221,0.421-1.583C442.264,17.952,442.608,17.771,443.053,17.771 M436.881,23.779
	c0.356,0,0.678-0.041,0.97-0.117c0.287-0.075,0.538-0.198,0.742-0.351c0.205-0.163,0.369-0.356,0.479-0.59
	c0.111-0.234,0.169-0.509,0.169-0.818c0-0.252-0.034-0.468-0.104-0.661c-0.07-0.192-0.175-0.361-0.321-0.514
	s-0.334-0.292-0.561-0.421c-0.229-0.128-0.497-0.257-0.813-0.391c-0.263-0.111-0.491-0.205-0.678-0.292
	c-0.193-0.089-0.345-0.183-0.461-0.275c-0.123-0.094-0.211-0.193-0.263-0.304c-0.054-0.111-0.082-0.245-0.082-0.397
	c0-0.141,0.022-0.269,0.063-0.386s0.111-0.216,0.205-0.304c0.087-0.089,0.204-0.152,0.35-0.199c0.146-0.046,0.316-0.07,0.521-0.07
	c0.356,0,0.614,0.111,0.783,0.333c0.164,0.222,0.246,0.532,0.246,0.936c0.274,0,0.49-0.064,0.643-0.193
	c0.146-0.134,0.222-0.31,0.222-0.526c0-0.146-0.034-0.286-0.11-0.42c-0.076-0.135-0.188-0.252-0.333-0.351
	c-0.146-0.1-0.333-0.182-0.55-0.24c-0.217-0.058-0.468-0.087-0.755-0.087c-0.338,0-0.647,0.035-0.923,0.111
	c-0.274,0.075-0.514,0.181-0.713,0.326c-0.199,0.141-0.351,0.316-0.456,0.526c-0.11,0.21-0.163,0.45-0.163,0.725
	c0,0.264,0.035,0.485,0.111,0.679c0.076,0.187,0.187,0.355,0.333,0.502c0.146,0.146,0.339,0.287,0.567,0.415
	c0.228,0.123,0.49,0.257,0.8,0.392c0.287,0.122,0.525,0.233,0.719,0.333s0.345,0.193,0.456,0.286
	c0.111,0.094,0.187,0.193,0.234,0.304c0.041,0.105,0.063,0.234,0.063,0.38c0,0.158-0.029,0.311-0.088,0.444
	c-0.058,0.135-0.14,0.246-0.251,0.345c-0.111,0.094-0.251,0.169-0.415,0.223c-0.164,0.053-0.351,0.076-0.567,0.076
	c-0.238,0-0.443-0.041-0.607-0.117c-0.169-0.082-0.303-0.193-0.403-0.327c-0.099-0.14-0.175-0.304-0.216-0.485
	c-0.041-0.181-0.064-0.38-0.064-0.59l-0.233,0.04l-0.246,0.129c-0.076,0.064-0.14,0.146-0.192,0.257
	c-0.053,0.105-0.082,0.24-0.082,0.398c0,0.21,0.048,0.391,0.141,0.555c0.094,0.152,0.228,0.286,0.396,0.397
	c0.17,0.104,0.38,0.187,0.626,0.233C436.308,23.756,436.583,23.779,436.881,23.779 M430.846,17.725c0.245,0,0.444,0.035,0.59,0.104
	c0.14,0.076,0.257,0.177,0.333,0.305c0.076,0.135,0.129,0.287,0.152,0.468s0.035,0.38,0.035,0.596v0.72l-0.993,0.034
	c-0.918,0.029-1.603,0.193-2.053,0.502c-0.449,0.311-0.677,0.778-0.677,1.415c0,0.327,0.046,0.607,0.141,0.848
	c0.093,0.239,0.222,0.438,0.391,0.596c0.164,0.158,0.363,0.275,0.591,0.351c0.229,0.076,0.473,0.117,0.736,0.117
	c0.251,0,0.462-0.029,0.643-0.088c0.175-0.053,0.333-0.134,0.474-0.233c0.14-0.1,0.269-0.223,0.386-0.362
	c0.117-0.141,0.239-0.292,0.362-0.462h0.1l0.187,1.028h1.618v-0.503h-0.035c-0.134,0-0.244-0.011-0.339-0.041
	c-0.099-0.028-0.175-0.075-0.232-0.14c-0.06-0.064-0.101-0.152-0.129-0.263c-0.029-0.111-0.041-0.245-0.041-0.415v-3.104
	c0-0.38-0.047-0.707-0.135-0.97c-0.094-0.263-0.233-0.474-0.415-0.637c-0.181-0.164-0.408-0.281-0.684-0.357
	c-0.275-0.07-0.59-0.104-0.958-0.104c-0.298,0-0.573,0.022-0.836,0.063s-0.491,0.111-0.69,0.199c-0.192,0.094-0.35,0.21-0.461,0.357
	c-0.11,0.146-0.17,0.32-0.17,0.525c0,0.274,0.088,0.474,0.257,0.584c0.177,0.111,0.428,0.169,0.761,0.169
	c0-0.187,0.012-0.361,0.041-0.52c0.028-0.157,0.082-0.298,0.164-0.415c0.075-0.116,0.187-0.21,0.333-0.274
	C430.431,17.754,430.618,17.725,430.846,17.725 M429.397,21.927c0-0.234,0.029-0.438,0.087-0.619
	c0.064-0.182,0.164-0.328,0.304-0.45c0.141-0.129,0.327-0.222,0.55-0.293c0.233-0.063,0.515-0.104,0.854-0.122l0.766-0.035v0.971
	c0,0.251-0.035,0.484-0.111,0.688c-0.076,0.205-0.181,0.38-0.315,0.526c-0.141,0.146-0.31,0.257-0.503,0.333
	c-0.198,0.076-0.421,0.117-0.66,0.117c-0.333,0-0.572-0.094-0.73-0.28C429.478,22.582,429.397,22.301,429.397,21.927
	 M424.823,14.995c-0.631,0-1.187,0.105-1.666,0.321c-0.479,0.217-0.882,0.516-1.197,0.9c-0.327,0.386-0.567,0.848-0.73,1.385
	c-0.164,0.538-0.246,1.128-0.246,1.777c0,0.659,0.076,1.257,0.234,1.8c0.158,0.544,0.386,1.005,0.695,1.391
	c0.304,0.386,0.684,0.685,1.134,0.895c0.45,0.211,0.976,0.315,1.571,0.315c0.444,0,0.83-0.041,1.152-0.129
	c0.321-0.082,0.59-0.187,0.8-0.314c0.211-0.129,0.368-0.27,0.468-0.434c0.105-0.151,0.158-0.31,0.158-0.462
	c0-0.122-0.023-0.216-0.064-0.292l-0.163-0.175c-0.101,0.134-0.217,0.257-0.352,0.38c-0.129,0.122-0.28,0.233-0.449,0.327
	c-0.17,0.094-0.368,0.169-0.591,0.222c-0.228,0.06-0.484,0.088-0.777,0.088c-0.438,0-0.818-0.088-1.127-0.263
	c-0.316-0.176-0.573-0.421-0.778-0.742c-0.204-0.315-0.35-0.696-0.444-1.14c-0.093-0.444-0.14-0.936-0.14-1.467
	c0-0.603,0.047-1.135,0.134-1.602c0.088-0.462,0.234-0.853,0.434-1.175c0.197-0.315,0.456-0.555,0.771-0.725
	c0.316-0.163,0.701-0.245,1.151-0.245c0.263,0,0.479,0.047,0.661,0.134c0.175,0.094,0.32,0.211,0.432,0.357
	c0.111,0.146,0.187,0.314,0.24,0.496c0.047,0.182,0.069,0.368,0.069,0.556c0.146,0,0.286-0.019,0.415-0.06
	c0.123-0.041,0.234-0.093,0.327-0.163c0.094-0.075,0.17-0.164,0.223-0.263c0.053-0.104,0.075-0.222,0.075-0.351
	c0-0.193-0.046-0.368-0.146-0.532c-0.099-0.163-0.251-0.304-0.45-0.426c-0.204-0.123-0.456-0.218-0.754-0.281
	C425.588,15.03,425.232,14.995,424.823,14.995 M414.229,23.779c0.357,0,0.661-0.041,0.924-0.117c0.264-0.075,0.485-0.176,0.66-0.292
	s0.304-0.245,0.391-0.386c0.089-0.135,0.13-0.263,0.13-0.386c0-0.099-0.023-0.188-0.076-0.263l-0.152-0.146
	c-0.07,0.111-0.158,0.21-0.274,0.311c-0.105,0.099-0.233,0.192-0.38,0.269s-0.304,0.14-0.479,0.187
	c-0.181,0.047-0.374,0.07-0.578,0.07c-0.287,0-0.538-0.047-0.754-0.146c-0.216-0.095-0.403-0.24-0.549-0.444
	c-0.152-0.205-0.27-0.462-0.346-0.778c-0.082-0.309-0.129-0.683-0.135-1.122h3.986v-0.549c0-0.474-0.059-0.888-0.169-1.245
	c-0.117-0.355-0.281-0.653-0.497-0.894s-0.474-0.415-0.783-0.538c-0.31-0.122-0.655-0.181-1.041-0.181
	c-0.847,0-1.502,0.28-1.963,0.848c-0.462,0.566-0.689,1.408-0.689,2.524c0,0.52,0.064,0.981,0.192,1.385
	c0.123,0.409,0.304,0.754,0.544,1.035c0.239,0.279,0.531,0.49,0.876,0.637C413.411,23.703,413.797,23.779,414.229,23.779
	 M414.083,17.771c0.239,0,0.443,0.053,0.607,0.152c0.169,0.099,0.304,0.245,0.403,0.432c0.099,0.188,0.175,0.409,0.222,0.672
	c0.047,0.264,0.07,0.55,0.07,0.865h-2.752c0.041-0.695,0.181-1.221,0.42-1.583C413.294,17.952,413.639,17.771,414.083,17.771
	 M403.917,17.749h0.035c0.116,0,0.217,0.011,0.304,0.028l0.228,0.1l0.176,0.198c0.053,0.082,0.1,0.188,0.146,0.311l1.922,5.276
	h1.093l1.889-4.979c0.075-0.193,0.14-0.345,0.204-0.468c0.059-0.123,0.122-0.216,0.187-0.286l0.223-0.146
	c0.081-0.023,0.182-0.034,0.298-0.034h0.146v-0.504H408.2v0.504h0.088c0.264,0,0.462,0.046,0.591,0.14
	c0.134,0.093,0.198,0.245,0.198,0.45l-0.028,0.233c-0.013,0.087-0.041,0.182-0.082,0.28l-0.859,2.332
	c-0.053,0.146-0.11,0.292-0.17,0.45c-0.063,0.158-0.123,0.31-0.175,0.456c-0.059,0.151-0.111,0.292-0.152,0.415
	c-0.047,0.128-0.082,0.232-0.099,0.32h-0.041c-0.019-0.099-0.041-0.228-0.082-0.367c-0.041-0.152-0.082-0.305-0.129-0.469
	c-0.052-0.163-0.105-0.327-0.158-0.502c-0.052-0.164-0.104-0.321-0.157-0.462l-0.813-2.262l-0.07-0.233l-0.023-0.205
	c0-0.198,0.059-0.345,0.182-0.438c0.117-0.094,0.298-0.14,0.538-0.14h0.151v-0.504h-2.992V17.749z M401.292,15.306
	c0,0.14,0.018,0.257,0.053,0.35c0.035,0.095,0.082,0.17,0.146,0.229l0.217,0.129c0.081,0.022,0.17,0.035,0.269,0.035
	c0.094,0,0.181-0.013,0.263-0.035l0.216-0.129c0.06-0.059,0.105-0.134,0.142-0.229c0.04-0.093,0.058-0.21,0.058-0.35
	c0-0.142-0.018-0.257-0.058-0.352c-0.036-0.093-0.082-0.169-0.147-0.228l-0.21-0.123c-0.082-0.023-0.169-0.035-0.263-0.035
	c-0.099,0-0.188,0.012-0.269,0.035l-0.217,0.123c-0.063,0.059-0.11,0.135-0.146,0.228C401.309,15.049,401.292,15.164,401.292,15.306
	 M400.479,23.159h-0.158v0.503h3.401v-0.503h-0.157c-0.135,0-0.257-0.011-0.38-0.028c-0.123-0.019-0.222-0.059-0.31-0.117
	c-0.094-0.064-0.164-0.152-0.21-0.263c-0.06-0.111-0.082-0.264-0.082-0.45v-5.056h-2.14v0.504h0.035
	c0.134,0,0.257,0.011,0.374,0.028c0.123,0.018,0.229,0.059,0.316,0.117c0.087,0.058,0.156,0.14,0.21,0.251
	c0.053,0.105,0.082,0.245,0.082,0.421v3.793c0,0.175-0.029,0.315-0.082,0.426c-0.054,0.105-0.123,0.188-0.21,0.24
	c-0.088,0.052-0.193,0.093-0.316,0.111C400.736,23.153,400.613,23.159,400.479,23.159 M397.166,23.779
	c0.356,0,0.678-0.041,0.971-0.117c0.286-0.075,0.537-0.198,0.742-0.351c0.204-0.163,0.368-0.356,0.479-0.59
	c0.111-0.234,0.169-0.509,0.169-0.818c0-0.252-0.035-0.468-0.104-0.661c-0.07-0.192-0.175-0.361-0.321-0.514
	c-0.146-0.152-0.333-0.292-0.561-0.421c-0.229-0.128-0.497-0.257-0.813-0.391c-0.263-0.111-0.49-0.205-0.677-0.292
	c-0.193-0.089-0.345-0.183-0.462-0.275c-0.123-0.094-0.211-0.193-0.264-0.304c-0.053-0.111-0.082-0.245-0.082-0.397
	c0-0.141,0.023-0.269,0.064-0.386s0.111-0.216,0.205-0.304c0.087-0.089,0.204-0.152,0.35-0.199c0.147-0.046,0.316-0.07,0.521-0.07
	c0.355,0,0.612,0.111,0.783,0.333c0.163,0.222,0.244,0.532,0.244,0.936c0.275,0,0.491-0.064,0.644-0.193
	c0.146-0.134,0.222-0.31,0.222-0.526c0-0.146-0.035-0.286-0.11-0.42c-0.076-0.135-0.188-0.252-0.333-0.351
	c-0.146-0.1-0.333-0.182-0.55-0.24c-0.217-0.058-0.468-0.087-0.754-0.087c-0.339,0-0.648,0.035-0.924,0.111
	c-0.273,0.075-0.514,0.181-0.713,0.326c-0.198,0.141-0.35,0.316-0.455,0.526c-0.111,0.21-0.164,0.45-0.164,0.725
	c0,0.264,0.035,0.485,0.111,0.679c0.076,0.187,0.187,0.355,0.333,0.502c0.146,0.146,0.339,0.287,0.566,0.415
	c0.229,0.123,0.491,0.257,0.802,0.392c0.285,0.122,0.525,0.233,0.718,0.333s0.345,0.193,0.456,0.286
	c0.11,0.094,0.187,0.193,0.233,0.304c0.041,0.105,0.064,0.234,0.064,0.38c0,0.158-0.029,0.311-0.087,0.444
	c-0.06,0.135-0.141,0.246-0.252,0.345c-0.111,0.094-0.251,0.169-0.415,0.223c-0.163,0.053-0.351,0.076-0.566,0.076
	c-0.239,0-0.444-0.041-0.607-0.117c-0.17-0.082-0.305-0.193-0.404-0.327c-0.099-0.14-0.175-0.304-0.216-0.485
	c-0.041-0.181-0.064-0.38-0.064-0.59l-0.233,0.04l-0.245,0.129c-0.076,0.064-0.141,0.146-0.193,0.257
	c-0.053,0.105-0.082,0.24-0.082,0.398c0,0.21,0.047,0.391,0.141,0.555c0.094,0.152,0.228,0.286,0.397,0.397
	c0.169,0.104,0.38,0.187,0.625,0.233C396.593,23.756,396.867,23.779,397.166,23.779 M392.87,23.662v-0.503h-0.332
	c-0.135,0-0.258-0.011-0.374-0.022c-0.122-0.024-0.229-0.06-0.315-0.111c-0.088-0.053-0.158-0.135-0.211-0.24
	c-0.052-0.11-0.082-0.251-0.082-0.426v-1.882c0-0.152,0.006-0.322,0.024-0.509c0.017-0.188,0.04-0.374,0.081-0.562
	c0.035-0.192,0.081-0.374,0.141-0.555c0.063-0.181,0.14-0.339,0.222-0.479c0.094-0.136,0.193-0.246,0.311-0.333
	c0.116-0.082,0.251-0.123,0.396-0.123c0.234,0,0.398,0.069,0.491,0.216c0.094,0.146,0.14,0.386,0.14,0.719
	c0.205,0,0.374-0.023,0.516-0.064c0.14-0.04,0.257-0.1,0.344-0.176c0.088-0.075,0.152-0.163,0.199-0.268
	c0.041-0.106,0.059-0.222,0.059-0.345c0-0.275-0.105-0.491-0.315-0.644c-0.217-0.152-0.538-0.228-0.977-0.228
	c-0.263,0-0.485,0.034-0.66,0.099c-0.176,0.071-0.321,0.164-0.438,0.281c-0.122,0.123-0.223,0.257-0.305,0.415
	c-0.081,0.158-0.163,0.327-0.238,0.508h-0.06l-0.228-1.187h-1.84v0.504h0.034c0.135,0,0.258,0.011,0.38,0.028
	c0.116,0.018,0.223,0.059,0.31,0.117c0.088,0.058,0.164,0.14,0.216,0.245c0.053,0.111,0.076,0.251,0.076,0.427v3.734
	c0,0.187-0.023,0.339-0.076,0.45c-0.052,0.11-0.122,0.198-0.21,0.257c-0.088,0.064-0.192,0.104-0.31,0.123
	c-0.122,0.018-0.251,0.028-0.386,0.028h-0.034v0.503H392.87z M387.736,22.359v-5.114h-2.139v0.504h0.035
	c0.134,0,0.263,0.011,0.38,0.028c0.123,0.018,0.222,0.059,0.316,0.117c0.087,0.064,0.156,0.152,0.21,0.263
	c0.052,0.117,0.075,0.269,0.075,0.455v2.467c0,0.286-0.028,0.55-0.088,0.789c-0.058,0.239-0.146,0.438-0.269,0.607
	c-0.122,0.17-0.28,0.304-0.467,0.398c-0.193,0.093-0.422,0.14-0.685,0.14c-0.239,0-0.443-0.035-0.602-0.111
	c-0.163-0.069-0.292-0.175-0.387-0.315c-0.099-0.141-0.162-0.31-0.203-0.515c-0.041-0.204-0.064-0.432-0.064-0.694v-4.133h-2.145
	v0.504h0.034c0.135,0,0.258,0.011,0.38,0.028c0.117,0.018,0.223,0.059,0.31,0.117c0.088,0.058,0.164,0.14,0.217,0.245
	c0.052,0.111,0.076,0.251,0.076,0.427v2.869c0,0.409,0.046,0.76,0.134,1.058c0.088,0.299,0.211,0.538,0.38,0.73
	c0.169,0.193,0.374,0.334,0.619,0.421c0.246,0.088,0.526,0.135,0.842,0.135c0.193,0,0.38-0.012,0.562-0.047
	c0.181-0.022,0.351-0.082,0.514-0.164c0.164-0.076,0.322-0.187,0.468-0.327c0.146-0.14,0.275-0.32,0.397-0.549h0.059l0.158,0.97
	h1.899v-0.503h-0.035c-0.135,0-0.257-0.011-0.374-0.022c-0.123-0.024-0.229-0.06-0.316-0.111c-0.087-0.053-0.158-0.135-0.21-0.24
	C387.765,22.675,387.736,22.534,387.736,22.359 M378.935,23.779c0.339,0,0.637-0.035,0.889-0.104
	c0.251-0.065,0.468-0.152,0.638-0.264c0.169-0.111,0.292-0.233,0.38-0.368c0.087-0.135,0.128-0.274,0.128-0.409
	c0-0.111-0.018-0.204-0.059-0.28l-0.146-0.187c-0.135,0.244-0.345,0.443-0.62,0.602c-0.275,0.157-0.602,0.233-0.97,0.233
	c-0.644,0-1.104-0.21-1.385-0.625c-0.286-0.415-0.428-1.053-0.428-1.899c0-0.532,0.035-0.976,0.106-1.333
	c0.07-0.356,0.169-0.637,0.303-0.847c0.135-0.21,0.293-0.357,0.48-0.444c0.181-0.088,0.391-0.129,0.619-0.129
	c0.204,0,0.367,0.035,0.503,0.111c0.128,0.069,0.233,0.17,0.309,0.298c0.076,0.123,0.129,0.269,0.158,0.438
	c0.028,0.169,0.047,0.345,0.047,0.531c0.356,0,0.619-0.058,0.801-0.169c0.181-0.111,0.27-0.31,0.27-0.584
	c0-0.205-0.065-0.386-0.188-0.538c-0.122-0.158-0.286-0.287-0.485-0.386c-0.197-0.1-0.42-0.175-0.666-0.223
	c-0.251-0.053-0.496-0.075-0.747-0.075c-0.381,0-0.73,0.053-1.053,0.164c-0.327,0.11-0.607,0.292-0.847,0.555
	c-0.24,0.263-0.427,0.607-0.562,1.04c-0.135,0.427-0.204,0.964-0.204,1.601c0,0.591,0.069,1.094,0.204,1.508
	c0.135,0.415,0.321,0.755,0.562,1.018c0.239,0.263,0.532,0.462,0.865,0.585C378.17,23.721,378.539,23.779,378.935,23.779
	 M372.584,23.779c0.355,0,0.659-0.041,0.923-0.117c0.263-0.075,0.484-0.176,0.661-0.292c0.175-0.116,0.303-0.245,0.391-0.386
	c0.088-0.135,0.129-0.263,0.129-0.386c0-0.099-0.023-0.188-0.076-0.263l-0.151-0.146c-0.07,0.111-0.158,0.21-0.275,0.311
	c-0.104,0.099-0.234,0.192-0.38,0.269c-0.146,0.076-0.304,0.14-0.479,0.187c-0.181,0.047-0.374,0.07-0.578,0.07
	c-0.286,0-0.537-0.047-0.754-0.146c-0.217-0.095-0.403-0.24-0.55-0.444c-0.151-0.205-0.269-0.462-0.345-0.778
	c-0.081-0.309-0.128-0.683-0.134-1.122h3.985v-0.549c0-0.474-0.059-0.888-0.17-1.245c-0.116-0.355-0.279-0.653-0.497-0.894
	c-0.216-0.24-0.473-0.415-0.782-0.538c-0.31-0.122-0.654-0.181-1.04-0.181c-0.848,0-1.502,0.28-1.964,0.848
	c-0.462,0.566-0.689,1.408-0.689,2.524c0,0.52,0.064,0.981,0.193,1.385c0.122,0.409,0.304,0.754,0.543,1.035
	c0.239,0.279,0.531,0.49,0.877,0.637C371.766,23.703,372.151,23.779,372.584,23.779 M372.438,17.771
	c0.239,0,0.444,0.053,0.608,0.152c0.169,0.099,0.303,0.245,0.402,0.432c0.1,0.188,0.176,0.409,0.223,0.672
	c0.047,0.264,0.069,0.55,0.069,0.865h-2.753c0.041-0.695,0.183-1.221,0.421-1.583C371.649,17.952,371.994,17.771,372.438,17.771
	 M364.107,19.332V15.69h0.813c0.339,0,0.625,0.036,0.864,0.101c0.234,0.063,0.428,0.162,0.573,0.31
	c0.146,0.14,0.257,0.321,0.321,0.549c0.063,0.222,0.099,0.491,0.099,0.813c0,0.31-0.028,0.585-0.093,0.817
	c-0.058,0.234-0.158,0.428-0.298,0.585c-0.14,0.158-0.327,0.274-0.562,0.351c-0.233,0.076-0.525,0.117-0.877,0.117H364.107z
	 M367.94,22.201l-1.642-2.595c0.211-0.07,0.421-0.164,0.631-0.281c0.211-0.115,0.397-0.263,0.567-0.438s0.304-0.38,0.403-0.625
	c0.105-0.234,0.157-0.514,0.157-0.836c0-0.771-0.251-1.351-0.759-1.736c-0.509-0.379-1.28-0.572-2.315-0.572h-3.22v0.502h0.152
	c0.135,0,0.257,0.013,0.374,0.03c0.123,0.018,0.228,0.052,0.315,0.111c0.087,0.058,0.158,0.14,0.21,0.251
	c0.053,0.104,0.082,0.245,0.082,0.421v5.926c0,0.175-0.029,0.315-0.082,0.426c-0.052,0.105-0.123,0.188-0.21,0.24
	c-0.088,0.052-0.192,0.093-0.315,0.111c-0.117,0.017-0.239,0.022-0.374,0.022h-0.152v0.503h3.483v-0.503h-0.158
	c-0.134,0-0.257-0.006-0.379-0.022c-0.117-0.019-0.223-0.06-0.311-0.111c-0.088-0.053-0.158-0.135-0.21-0.24
	c-0.053-0.11-0.082-0.251-0.082-0.426v-2.467h0.993l1.619,2.694c0.134,0.228,0.263,0.409,0.386,0.55
	c0.117,0.14,0.257,0.251,0.426,0.327c0.17,0.075,0.369,0.129,0.614,0.157c0.24,0.029,0.543,0.041,0.917,0.041h0.17v-0.503h-0.035
	c-0.251,0-0.473-0.082-0.666-0.238C368.338,22.763,368.145,22.522,367.94,22.201 M359.097,19.869c0-0.473,0.018-0.946,0.058-1.407
	c0.036-0.462,0.117-0.9,0.24-1.315s0.311-0.795,0.549-1.14c0.246-0.352,0.573-0.649,0.982-0.9v-0.538
	c-0.549,0.217-1.018,0.48-1.408,0.795c-0.392,0.305-0.707,0.679-0.959,1.105c-0.245,0.426-0.426,0.923-0.537,1.478
	c-0.111,0.562-0.17,1.204-0.17,1.923c0,0.72,0.059,1.362,0.17,1.924c0.111,0.566,0.292,1.063,0.537,1.489
	c0.252,0.433,0.567,0.807,0.959,1.116c0.391,0.311,0.859,0.579,1.408,0.795v-0.549c-0.409-0.252-0.736-0.55-0.982-0.9
	c-0.238-0.351-0.426-0.736-0.549-1.151s-0.204-0.854-0.24-1.315C359.115,20.816,359.097,20.343,359.097,19.869"/>
</svg>
