<?xml version="1.0" encoding="iso-8859-1"?>
<!-- Generator: Adobe Illustrator 14.0.0, SVG Export Plug-In . SVG Version: 6.00 Build 43363)  -->
<!DOCTYPE svg PUBLIC "-//W3C//DTD SVG 1.1//EN" "http://www.w3.org/Graphics/SVG/1.1/DTD/svg11.dtd">
<svg version="1.1" id="Layer_1" xmlns="http://www.w3.org/2000/svg" xmlns:xlink="http://www.w3.org/1999/xlink" x="0px" y="0px"
	 width="223.155px" height="26.842px" viewBox="0 0 223.155 26.842" style="enable-background:new 0 0 223.155 26.842;"
	 xml:space="preserve">
<path d="M3.443,11.784l0.459,0.699l-0.597,3.03c-0.47,0.505-0.918,0.757-1.354,0.757c-0.665,0-0.998-0.459-0.998-1.377
	c0-1.824,0.987-3.109,2.329-3.109H3.443z M4.51,11.336l-0.229,0.252c-0.356-0.172-0.712-0.252-1.033-0.252
	c-1.136,0-2.066,0.539-2.651,1.504C0.207,13.482,0,14.193,0,14.962c0,1.263,0.609,2.009,1.584,2.009c0.551,0,1.102-0.321,1.71-0.964
	v0.092c0,0.585,0.218,0.872,0.7,0.872c0.309,0,0.78-0.139,1.411-0.402v-0.344c-0.31,0.068-0.516,0.115-0.643,0.115
	c-0.424,0-0.619-0.161-0.619-0.528c0-0.161,0.034-0.424,0.115-0.803l0.413-2.031c0.172-0.85,0.321-1.4,0.436-1.642H4.51z"/>
<path d="M7.692,8.305L6.562,8.557v0.19l0.626,0.115l-0.634,3.127h0.65l0.474-2.584c0.466-0.428,0.871-0.627,1.131-0.627
	c0.291,0,0.413,0.146,0.413,0.482c0,0.099-0.015,0.267-0.069,0.488l-0.329,1.414c-0.038,0.168-0.061,0.314-0.061,0.413
	c0,0.307,0.184,0.459,0.558,0.459c0.214,0,0.52-0.077,0.918-0.229v-0.214c-0.176,0.046-0.314,0.068-0.421,0.068
	c-0.252,0-0.397-0.13-0.397-0.375c0-0.113,0.038-0.281,0.084-0.504l0.26-1.185c0.061-0.275,0.107-0.489,0.107-0.681
	c0-0.375-0.245-0.611-0.642-0.611c-0.406,0-0.88,0.252-1.483,0.733l0.137-0.733H7.692z"/>
<path d="M14.372,15.146h7.711v-0.688h-7.711V15.146z M14.372,12.667h7.711v-0.688h-7.711V12.667z"/>
<path d="M28.23,13.576c0.448,0.241,0.815,0.598,1.021,1.079c0.459,1.067,0.608,2.214,0.608,3.373c0,0.689-0.057,1.377-0.126,2.066
	c-0.057,0.631-0.103,1.262-0.103,1.893c0,0.896,0.092,1.778,0.356,2.639c0.252,0.815,0.814,1.538,1.629,1.538v0.678
	c-1.079,0-1.997-0.735-2.421-1.733c-0.459-1.067-0.62-2.215-0.62-3.374c0-0.585,0.046-1.17,0.104-1.744
	c0.08-0.849,0.16-1.698,0.16-2.536c0-0.895-0.092-1.767-0.356-2.627c-0.206-0.666-0.963-0.918-1.686-0.918v-0.666
	c0.723,0,1.48-0.252,1.686-0.918c0.264-0.859,0.356-1.731,0.356-2.627c0-0.838-0.08-1.687-0.16-2.536
	c-0.058-0.574-0.104-1.159-0.104-1.744c0-1.158,0.161-2.307,0.62-3.374c0.424-0.998,1.342-1.732,2.421-1.732v0.677
	c-0.815,0-1.377,0.723-1.629,1.538c-0.264,0.861-0.356,1.744-0.356,2.639c0,0.631,0.046,1.263,0.103,1.894
	c0.069,0.688,0.126,1.377,0.126,2.065c0,1.159-0.149,2.307-0.608,3.373C29.045,12.979,28.678,13.335,28.23,13.576"/>
<path d="M41.911,4.134l0.459,0.698l-0.597,3.03c-0.47,0.505-0.918,0.757-1.354,0.757c-0.665,0-0.998-0.459-0.998-1.377
	c0-1.824,0.987-3.108,2.329-3.108H41.911z M42.978,3.686l-0.229,0.252c-0.356-0.172-0.712-0.252-1.033-0.252
	c-1.136,0-2.066,0.539-2.651,1.503c-0.39,0.643-0.597,1.354-0.597,2.123c0,1.262,0.609,2.008,1.584,2.008
	c0.551,0,1.102-0.321,1.71-0.964v0.092c0,0.585,0.218,0.872,0.7,0.872c0.309,0,0.78-0.138,1.411-0.402V8.573
	c-0.31,0.069-0.516,0.115-0.643,0.115c-0.424,0-0.619-0.161-0.619-0.528c0-0.161,0.034-0.424,0.115-0.803l0.413-2.031
	c0.172-0.849,0.321-1.399,0.436-1.641H42.978z"/>
<path d="M91.277,8.714h-0.455c-0.135,0-0.258-0.013-0.38-0.029c-0.123-0.018-0.222-0.059-0.31-0.117
	c-0.094-0.063-0.164-0.151-0.21-0.263c-0.059-0.111-0.082-0.263-0.082-0.45V3.366h1.689V2.8H89.84V2.093
	c0-0.252,0.011-0.475,0.047-0.667c0.023-0.192,0.075-0.351,0.146-0.479c0.07-0.134,0.163-0.233,0.274-0.298
	C90.424,0.585,90.57,0.55,90.74,0.55c0.152,0,0.28,0.028,0.38,0.082c0.099,0.052,0.181,0.128,0.239,0.216
	c0.065,0.087,0.105,0.193,0.129,0.31c0.029,0.111,0.041,0.228,0.041,0.351c0.146,0,0.274-0.012,0.391-0.041
	c0.123-0.029,0.222-0.076,0.31-0.128l0.205-0.211c0.052-0.087,0.076-0.182,0.076-0.292c0-0.123-0.03-0.239-0.088-0.34
	c-0.059-0.099-0.152-0.187-0.287-0.263c-0.128-0.076-0.298-0.128-0.514-0.169S91.143,0,90.833,0c-0.327,0-0.619,0.047-0.882,0.146
	c-0.263,0.093-0.485,0.233-0.666,0.42c-0.182,0.188-0.322,0.415-0.421,0.69c-0.1,0.274-0.146,0.59-0.146,0.946V2.8h-1.093v0.566
	h1.093v4.488c0,0.188-0.03,0.339-0.082,0.45c-0.053,0.111-0.123,0.199-0.211,0.263c-0.087,0.059-0.187,0.1-0.309,0.117
	c-0.117,0.017-0.246,0.029-0.38,0.029h-0.158v0.503h3.699V8.714z M84.678,0.859c0,0.141,0.018,0.257,0.053,0.351
	c0.035,0.094,0.082,0.17,0.146,0.228l0.216,0.129c0.082,0.023,0.17,0.035,0.269,0.035c0.094,0,0.181-0.012,0.263-0.035l0.216-0.129
	C85.9,1.38,85.947,1.304,85.982,1.21C86.022,1.116,86.04,1,86.04,0.859s-0.018-0.258-0.058-0.351
	c-0.035-0.094-0.082-0.17-0.147-0.229l-0.21-0.123c-0.082-0.022-0.169-0.034-0.263-0.034c-0.099,0-0.187,0.012-0.269,0.034
	L84.877,0.28c-0.064,0.059-0.111,0.135-0.146,0.229C84.696,0.602,84.678,0.719,84.678,0.859 M83.866,8.714h-0.158v0.503h3.401V8.714
	h-0.157c-0.135,0-0.257-0.013-0.38-0.029c-0.123-0.018-0.222-0.059-0.31-0.117c-0.093-0.063-0.164-0.151-0.21-0.263
	c-0.059-0.111-0.082-0.263-0.082-0.45V2.8h-2.139v0.502h0.035c0.134,0,0.257,0.012,0.374,0.03c0.123,0.017,0.228,0.058,0.316,0.115
	c0.087,0.06,0.157,0.142,0.21,0.252c0.053,0.105,0.082,0.245,0.082,0.421v3.792c0,0.177-0.029,0.316-0.082,0.428
	c-0.053,0.104-0.123,0.187-0.21,0.24c-0.088,0.052-0.193,0.093-0.316,0.11C84.123,8.708,84,8.714,83.866,8.714"/>
<path d="M97.139,3.686L95.44,4.064v0.287l0.941,0.172l-0.953,4.693h0.976l0.711-3.88c0.7-0.642,1.308-0.94,1.698-0.94
	c0.436,0,0.62,0.218,0.62,0.723c0,0.149-0.023,0.402-0.103,0.735l-0.494,2.123c-0.057,0.252-0.092,0.47-0.092,0.619
	c0,0.459,0.276,0.688,0.838,0.688c0.321,0,0.78-0.115,1.377-0.345V8.619c-0.264,0.069-0.47,0.104-0.631,0.104
	c-0.379,0-0.597-0.195-0.597-0.563c0-0.172,0.058-0.424,0.126-0.757l0.391-1.779c0.091-0.413,0.16-0.733,0.16-1.021
	c0-0.563-0.367-0.918-0.964-0.918c-0.608,0-1.319,0.379-2.226,1.102l0.207-1.102H97.139z"/>
<path d="M104.754,7.495h7.711V6.808h-7.711V7.495z M104.754,5.017h7.711V4.328h-7.711V5.017z"/>
<polygon points="119.381,1.379 116.892,2.125 116.892,2.607 118.693,2.285 118.693,8.459 118.556,8.654 117.235,8.723 
	117.235,9.216 121.079,9.216 121.079,8.734 119.84,8.677 119.702,8.505 119.702,1.379 "/>
<path d="M192.365,5.424c0,0.473-0.018,0.946-0.052,1.407c-0.041,0.462-0.123,0.9-0.246,1.315c-0.128,0.415-0.315,0.801-0.556,1.152
	c-0.239,0.35-0.566,0.647-0.976,0.899v0.549c0.549-0.216,1.017-0.484,1.409-0.795c0.391-0.31,0.707-0.684,0.952-1.109
	c0.246-0.434,0.427-0.93,0.537-1.496c0.117-0.562,0.176-1.204,0.176-1.923c0-0.72-0.059-1.362-0.176-1.917
	c-0.11-0.562-0.291-1.059-0.537-1.484c-0.245-0.427-0.562-0.795-0.952-1.105c-0.393-0.31-0.86-0.577-1.409-0.795V0.66
	c0.409,0.251,0.736,0.549,0.976,0.9c0.24,0.345,0.428,0.725,0.556,1.14c0.123,0.415,0.205,0.854,0.246,1.315
	C192.348,4.477,192.365,4.95,192.365,5.424 M187.188,9.333c0.356,0,0.66-0.041,0.924-0.116c0.263-0.076,0.484-0.176,0.66-0.292
	c0.175-0.117,0.304-0.246,0.392-0.387c0.087-0.135,0.128-0.263,0.128-0.386c0-0.099-0.022-0.187-0.076-0.263l-0.151-0.146
	c-0.07,0.111-0.157,0.211-0.274,0.311c-0.105,0.099-0.234,0.192-0.38,0.269c-0.146,0.076-0.304,0.14-0.479,0.188
	c-0.182,0.046-0.374,0.069-0.578,0.069c-0.286,0-0.538-0.047-0.755-0.146c-0.216-0.094-0.402-0.24-0.549-0.444
	c-0.151-0.205-0.269-0.462-0.345-0.778c-0.082-0.309-0.129-0.683-0.134-1.121h3.984V5.54c0-0.473-0.058-0.888-0.169-1.245
	c-0.116-0.355-0.28-0.653-0.497-0.894c-0.216-0.24-0.473-0.415-0.782-0.538c-0.311-0.122-0.655-0.181-1.04-0.181
	c-0.849,0-1.502,0.28-1.964,0.848c-0.463,0.566-0.69,1.408-0.69,2.524c0,0.52,0.065,0.981,0.193,1.385
	c0.123,0.409,0.304,0.754,0.544,1.035c0.238,0.279,0.531,0.491,0.876,0.637C186.37,9.258,186.756,9.333,187.188,9.333
	 M187.042,3.325c0.24,0,0.444,0.053,0.608,0.152c0.17,0.099,0.304,0.245,0.402,0.432c0.101,0.188,0.177,0.409,0.223,0.672
	c0.047,0.264,0.069,0.551,0.069,0.865h-2.752c0.041-0.695,0.182-1.221,0.421-1.583C186.253,3.507,186.598,3.325,187.042,3.325
	 M180.871,9.333c0.356,0,0.678-0.041,0.97-0.116c0.286-0.076,0.538-0.199,0.742-0.352c0.205-0.163,0.368-0.355,0.479-0.59
	c0.11-0.234,0.17-0.509,0.17-0.818c0-0.252-0.035-0.468-0.105-0.661c-0.07-0.191-0.176-0.361-0.322-0.514
	c-0.146-0.151-0.333-0.292-0.561-0.421c-0.229-0.128-0.496-0.257-0.813-0.391c-0.263-0.111-0.49-0.205-0.678-0.292
	c-0.192-0.088-0.345-0.183-0.462-0.275c-0.122-0.094-0.21-0.193-0.263-0.304c-0.052-0.111-0.081-0.245-0.081-0.397
	c0-0.141,0.022-0.269,0.063-0.386s0.111-0.216,0.204-0.304c0.088-0.088,0.205-0.152,0.352-0.199c0.146-0.046,0.315-0.07,0.52-0.07
	c0.357,0,0.614,0.111,0.783,0.333c0.164,0.223,0.246,0.532,0.246,0.936c0.273,0,0.491-0.064,0.643-0.193
	c0.146-0.134,0.223-0.309,0.223-0.526c0-0.146-0.035-0.285-0.111-0.42s-0.188-0.252-0.334-0.351s-0.333-0.181-0.549-0.24
	c-0.216-0.058-0.467-0.087-0.754-0.087c-0.339,0-0.648,0.035-0.924,0.111c-0.274,0.076-0.514,0.181-0.713,0.327
	c-0.198,0.14-0.351,0.315-0.456,0.525c-0.11,0.21-0.163,0.45-0.163,0.726c0,0.263,0.034,0.484,0.11,0.678
	c0.076,0.187,0.188,0.355,0.334,0.502c0.146,0.146,0.339,0.287,0.566,0.415c0.228,0.123,0.491,0.257,0.801,0.392
	c0.286,0.122,0.526,0.234,0.719,0.333c0.193,0.1,0.346,0.193,0.456,0.286c0.111,0.094,0.188,0.193,0.234,0.304
	c0.04,0.105,0.063,0.234,0.063,0.381c0,0.157-0.028,0.31-0.088,0.443c-0.058,0.135-0.14,0.246-0.251,0.345
	c-0.11,0.094-0.251,0.17-0.415,0.223s-0.351,0.076-0.566,0.076c-0.24,0-0.444-0.041-0.608-0.117
	c-0.169-0.082-0.304-0.193-0.403-0.327c-0.099-0.14-0.175-0.304-0.216-0.485c-0.041-0.181-0.064-0.38-0.064-0.59l-0.233,0.04
	L179.17,7.41c-0.076,0.064-0.14,0.146-0.192,0.257c-0.053,0.105-0.081,0.24-0.081,0.398c0,0.21,0.046,0.391,0.14,0.555
	c0.093,0.152,0.228,0.286,0.396,0.397c0.171,0.104,0.381,0.187,0.627,0.233C180.298,9.31,180.573,9.333,180.871,9.333
	 M174.836,3.278c0.245,0,0.444,0.035,0.59,0.105c0.141,0.075,0.257,0.176,0.333,0.304c0.076,0.135,0.129,0.287,0.152,0.468
	s0.035,0.38,0.035,0.596v0.72l-0.993,0.035c-0.918,0.028-1.603,0.192-2.052,0.502c-0.45,0.31-0.679,0.777-0.679,1.415
	c0,0.326,0.048,0.606,0.142,0.847c0.093,0.24,0.222,0.438,0.391,0.596c0.164,0.158,0.362,0.275,0.59,0.352
	c0.229,0.075,0.475,0.116,0.737,0.116c0.251,0,0.461-0.029,0.643-0.088c0.176-0.053,0.333-0.134,0.474-0.233
	c0.14-0.1,0.269-0.223,0.386-0.362s0.239-0.292,0.362-0.462h0.099l0.188,1.029h1.618V8.713h-0.034c-0.135,0-0.245-0.011-0.339-0.04
	c-0.1-0.029-0.176-0.076-0.234-0.141c-0.059-0.063-0.099-0.151-0.128-0.263s-0.041-0.245-0.041-0.415V4.751
	c0-0.38-0.047-0.707-0.134-0.97c-0.095-0.263-0.234-0.474-0.415-0.637c-0.183-0.164-0.41-0.281-0.685-0.357
	c-0.274-0.069-0.59-0.104-0.959-0.104c-0.298,0-0.572,0.022-0.835,0.063s-0.491,0.111-0.689,0.199
	c-0.193,0.094-0.352,0.21-0.462,0.357c-0.111,0.146-0.17,0.32-0.17,0.525c0,0.274,0.089,0.474,0.258,0.584
	c0.175,0.111,0.427,0.169,0.76,0.169c0-0.187,0.011-0.361,0.041-0.52c0.029-0.157,0.081-0.298,0.163-0.415
	c0.076-0.116,0.187-0.21,0.333-0.274C174.421,3.308,174.608,3.278,174.836,3.278 M173.386,7.48c0-0.234,0.03-0.438,0.088-0.619
	c0.064-0.182,0.164-0.328,0.305-0.45c0.14-0.129,0.327-0.222,0.549-0.293c0.234-0.063,0.514-0.104,0.853-0.122l0.767-0.035v0.971
	c0,0.251-0.035,0.484-0.111,0.688c-0.076,0.205-0.181,0.38-0.315,0.526c-0.141,0.146-0.31,0.257-0.503,0.333
	c-0.198,0.076-0.421,0.117-0.66,0.117c-0.333,0-0.572-0.094-0.73-0.28C173.468,8.136,173.386,7.854,173.386,7.48 M169.133,9.333
	c0.338,0,0.638-0.034,0.889-0.104c0.251-0.065,0.467-0.152,0.637-0.263c0.169-0.112,0.292-0.234,0.38-0.369
	c0.087-0.135,0.128-0.274,0.128-0.409c0-0.111-0.017-0.204-0.058-0.28l-0.146-0.187c-0.135,0.245-0.345,0.443-0.62,0.602
	c-0.273,0.157-0.602,0.233-0.97,0.233c-0.643,0-1.104-0.21-1.385-0.625c-0.286-0.415-0.428-1.053-0.428-1.899
	c0-0.532,0.036-0.976,0.106-1.333c0.07-0.355,0.169-0.637,0.304-0.847s0.292-0.357,0.479-0.444c0.181-0.088,0.391-0.129,0.619-0.129
	c0.205,0,0.368,0.035,0.503,0.111c0.128,0.069,0.233,0.17,0.31,0.298c0.076,0.123,0.128,0.269,0.157,0.438
	c0.03,0.169,0.047,0.345,0.047,0.531c0.357,0,0.62-0.058,0.801-0.169c0.182-0.111,0.27-0.31,0.27-0.584
	c0-0.205-0.065-0.386-0.188-0.538c-0.123-0.158-0.287-0.286-0.485-0.386c-0.198-0.099-0.42-0.175-0.666-0.222
	c-0.251-0.054-0.496-0.076-0.748-0.076c-0.38,0-0.73,0.053-1.053,0.164c-0.326,0.11-0.606,0.292-0.847,0.555
	s-0.427,0.608-0.561,1.04c-0.136,0.427-0.205,0.964-0.205,1.601c0,0.592,0.069,1.094,0.205,1.509
	c0.134,0.415,0.32,0.754,0.561,1.017s0.532,0.462,0.865,0.585C168.367,9.274,168.735,9.333,169.133,9.333 M159.673,9.333
	c0.356,0,0.66-0.041,0.923-0.116c0.264-0.076,0.485-0.176,0.66-0.292c0.176-0.117,0.304-0.246,0.393-0.387
	c0.088-0.135,0.128-0.263,0.128-0.386c0-0.099-0.023-0.187-0.075-0.263l-0.152-0.146c-0.07,0.111-0.158,0.211-0.274,0.311
	c-0.105,0.099-0.234,0.192-0.38,0.269c-0.146,0.076-0.305,0.14-0.479,0.188c-0.181,0.046-0.374,0.069-0.579,0.069
	c-0.286,0-0.537-0.047-0.754-0.146c-0.216-0.094-0.403-0.24-0.549-0.444c-0.152-0.205-0.27-0.462-0.345-0.778
	c-0.082-0.309-0.129-0.683-0.135-1.121h3.985V5.54c0-0.473-0.058-0.888-0.169-1.245c-0.117-0.355-0.281-0.653-0.497-0.894
	s-0.473-0.415-0.783-0.538c-0.31-0.122-0.653-0.181-1.04-0.181c-0.848,0-1.502,0.28-1.964,0.848
	c-0.461,0.566-0.688,1.408-0.688,2.524c0,0.52,0.063,0.981,0.192,1.385c0.122,0.409,0.304,0.754,0.543,1.035
	c0.24,0.279,0.532,0.491,0.877,0.637C158.854,9.258,159.24,9.333,159.673,9.333 M159.526,3.325c0.239,0,0.444,0.053,0.607,0.152
	c0.17,0.099,0.305,0.245,0.404,0.432c0.099,0.188,0.175,0.409,0.222,0.672c0.046,0.264,0.07,0.551,0.07,0.865h-2.753
	c0.041-0.695,0.181-1.221,0.421-1.583C158.738,3.507,159.082,3.325,159.526,3.325 M153.355,9.333c0.356,0,0.678-0.041,0.97-0.116
	c0.287-0.076,0.538-0.199,0.742-0.352c0.205-0.163,0.369-0.355,0.479-0.59c0.111-0.234,0.169-0.509,0.169-0.818
	c0-0.252-0.035-0.468-0.104-0.661c-0.07-0.191-0.175-0.361-0.322-0.514c-0.146-0.151-0.333-0.292-0.561-0.421
	c-0.228-0.128-0.496-0.257-0.813-0.391c-0.263-0.111-0.491-0.205-0.678-0.292c-0.193-0.088-0.345-0.183-0.461-0.275
	c-0.123-0.094-0.211-0.193-0.264-0.304c-0.053-0.111-0.082-0.245-0.082-0.397c0-0.141,0.023-0.269,0.064-0.386
	s0.111-0.216,0.205-0.304c0.087-0.088,0.204-0.152,0.35-0.199c0.146-0.046,0.316-0.07,0.521-0.07c0.356,0,0.613,0.111,0.783,0.333
	c0.164,0.223,0.245,0.532,0.245,0.936c0.275,0,0.491-0.064,0.644-0.193c0.146-0.134,0.222-0.309,0.222-0.526
	c0-0.146-0.035-0.285-0.11-0.42c-0.076-0.135-0.188-0.252-0.333-0.351c-0.146-0.099-0.333-0.181-0.551-0.24
	c-0.216-0.058-0.467-0.087-0.754-0.087c-0.339,0-0.647,0.035-0.923,0.111c-0.274,0.076-0.514,0.181-0.713,0.327
	c-0.199,0.14-0.351,0.315-0.456,0.525c-0.111,0.21-0.163,0.45-0.163,0.726c0,0.263,0.035,0.484,0.111,0.678
	c0.076,0.187,0.187,0.355,0.333,0.502c0.146,0.146,0.339,0.287,0.566,0.415c0.229,0.123,0.491,0.257,0.801,0.392
	c0.286,0.122,0.525,0.234,0.719,0.333c0.192,0.1,0.345,0.193,0.456,0.286c0.111,0.094,0.187,0.193,0.233,0.304
	c0.041,0.105,0.064,0.234,0.064,0.381c0,0.157-0.029,0.31-0.088,0.443c-0.059,0.135-0.14,0.246-0.251,0.345
	c-0.111,0.094-0.251,0.17-0.415,0.223s-0.352,0.076-0.567,0.076c-0.238,0-0.443-0.041-0.607-0.117
	c-0.169-0.082-0.304-0.193-0.403-0.327c-0.099-0.14-0.175-0.304-0.216-0.485c-0.041-0.181-0.064-0.38-0.064-0.59l-0.233,0.04
	l-0.246,0.129c-0.076,0.064-0.141,0.146-0.192,0.257c-0.053,0.105-0.082,0.24-0.082,0.398c0,0.21,0.047,0.391,0.141,0.555
	c0.094,0.152,0.228,0.286,0.396,0.397c0.17,0.104,0.38,0.187,0.626,0.233C152.782,9.31,153.057,9.333,153.355,9.333 M147.32,3.278
	c0.245,0,0.443,0.035,0.59,0.105c0.14,0.075,0.257,0.176,0.333,0.304c0.076,0.135,0.129,0.287,0.152,0.468s0.034,0.38,0.034,0.596
	v0.72l-0.992,0.035c-0.918,0.028-1.603,0.192-2.053,0.502s-0.677,0.777-0.677,1.415c0,0.326,0.046,0.606,0.14,0.847
	s0.223,0.438,0.392,0.596c0.164,0.158,0.363,0.275,0.591,0.352c0.228,0.075,0.473,0.116,0.736,0.116
	c0.251,0,0.462-0.029,0.643-0.088c0.175-0.053,0.333-0.134,0.473-0.233c0.141-0.1,0.27-0.223,0.387-0.362
	c0.116-0.14,0.239-0.292,0.361-0.462h0.101l0.187,1.029h1.618V8.713H150.3c-0.134,0-0.245-0.011-0.339-0.04
	c-0.099-0.029-0.175-0.076-0.232-0.141c-0.06-0.063-0.101-0.151-0.13-0.263c-0.028-0.111-0.041-0.245-0.041-0.415V4.751
	c0-0.38-0.047-0.707-0.134-0.97c-0.094-0.263-0.233-0.474-0.415-0.637c-0.181-0.164-0.409-0.281-0.684-0.357
	c-0.275-0.069-0.59-0.104-0.958-0.104c-0.298,0-0.573,0.022-0.836,0.063s-0.491,0.111-0.69,0.199
	c-0.192,0.094-0.35,0.21-0.461,0.357c-0.11,0.146-0.17,0.32-0.17,0.525c0,0.274,0.088,0.474,0.257,0.584
	c0.177,0.111,0.428,0.169,0.761,0.169c0-0.187,0.012-0.361,0.041-0.52c0.028-0.157,0.081-0.298,0.163-0.415
	c0.076-0.116,0.188-0.21,0.333-0.274C146.905,3.308,147.092,3.278,147.32,3.278 M145.87,7.48c0-0.234,0.03-0.438,0.088-0.619
	c0.064-0.182,0.164-0.328,0.304-0.45c0.141-0.129,0.327-0.222,0.55-0.293c0.233-0.063,0.515-0.104,0.854-0.122l0.765-0.035v0.971
	c0,0.251-0.034,0.484-0.11,0.688c-0.076,0.205-0.182,0.38-0.315,0.526c-0.141,0.146-0.31,0.257-0.503,0.333
	c-0.199,0.076-0.421,0.117-0.66,0.117c-0.333,0-0.572-0.094-0.73-0.28C145.952,8.136,145.87,7.854,145.87,7.48 M139.095,4.441V1.269
	h0.801c0.339,0,0.626,0.022,0.858,0.076c0.24,0.052,0.434,0.134,0.579,0.257c0.146,0.123,0.257,0.28,0.321,0.473
	c0.064,0.199,0.1,0.444,0.1,0.737c0,0.286-0.029,0.537-0.094,0.742c-0.058,0.204-0.158,0.374-0.298,0.502
	c-0.141,0.135-0.327,0.228-0.562,0.293c-0.233,0.063-0.525,0.093-0.876,0.093H139.095z M139.095,8.62V5.037h1.187
	c0.351,0,0.643,0.035,0.877,0.111c0.232,0.076,0.42,0.187,0.561,0.339c0.146,0.152,0.245,0.345,0.305,0.573
	c0.058,0.228,0.087,0.503,0.087,0.812c0,0.322-0.035,0.591-0.1,0.813c-0.063,0.222-0.175,0.402-0.321,0.537
	c-0.146,0.141-0.339,0.239-0.572,0.304c-0.234,0.065-0.521,0.094-0.859,0.094H139.095z M143.034,2.812
	c0-0.737-0.252-1.274-0.76-1.625c-0.51-0.339-1.28-0.514-2.314-0.514h-3.209v0.502h0.152c0.135,0,0.257,0.012,0.374,0.023
	c0.123,0.023,0.228,0.059,0.315,0.117c0.087,0.058,0.158,0.14,0.21,0.245c0.054,0.11,0.082,0.251,0.082,0.427v5.867
	c0,0.187-0.022,0.339-0.075,0.45c-0.054,0.11-0.123,0.198-0.211,0.257c-0.088,0.064-0.192,0.104-0.31,0.123
	c-0.123,0.018-0.251,0.028-0.386,0.028h-0.152v0.504h3.565c1.034,0,1.806-0.193,2.313-0.579c0.509-0.38,0.76-0.958,0.76-1.73
	c0-0.314-0.047-0.596-0.134-0.847c-0.088-0.245-0.217-0.462-0.38-0.644c-0.158-0.181-0.351-0.326-0.579-0.438
	c-0.228-0.111-0.473-0.193-0.748-0.24V4.692c0.211-0.07,0.403-0.157,0.585-0.262c0.182-0.101,0.339-0.229,0.474-0.38
	c0.134-0.152,0.233-0.328,0.31-0.532C142.993,3.313,143.034,3.08,143.034,2.812 M134.085,5.424c0-0.474,0.019-0.947,0.059-1.408
	c0.035-0.462,0.116-0.9,0.239-1.315s0.311-0.795,0.549-1.14c0.246-0.352,0.573-0.649,0.982-0.9V0.122
	c-0.549,0.218-1.017,0.48-1.408,0.795c-0.392,0.305-0.707,0.679-0.959,1.105c-0.245,0.426-0.426,0.923-0.537,1.478
	c-0.11,0.562-0.17,1.204-0.17,1.924c0,0.719,0.06,1.361,0.17,1.923c0.111,0.566,0.292,1.063,0.537,1.489
	c0.252,0.433,0.567,0.807,0.959,1.116c0.392,0.311,0.859,0.579,1.408,0.795v-0.549c-0.409-0.252-0.736-0.55-0.982-0.899
	c-0.238-0.352-0.426-0.737-0.549-1.152s-0.204-0.854-0.239-1.315C134.104,6.37,134.085,5.896,134.085,5.424"/>
<path d="M41.911,18.579l0.459,0.699l-0.597,3.03c-0.47,0.505-0.918,0.757-1.354,0.757c-0.665,0-0.998-0.459-0.998-1.377
	c0-1.824,0.987-3.109,2.329-3.109H41.911z M42.978,18.132l-0.229,0.252c-0.356-0.173-0.712-0.252-1.033-0.252
	c-1.136,0-2.066,0.538-2.651,1.503c-0.39,0.643-0.597,1.354-0.597,2.123c0,1.262,0.609,2.008,1.584,2.008
	c0.551,0,1.102-0.321,1.71-0.964v0.092c0,0.585,0.218,0.872,0.7,0.872c0.309,0,0.78-0.139,1.411-0.402V23.02
	c-0.31,0.068-0.516,0.115-0.643,0.115c-0.424,0-0.619-0.161-0.619-0.528c0-0.161,0.034-0.424,0.115-0.803l0.413-2.031
	c0.172-0.849,0.321-1.4,0.436-1.641H42.978z"/>
<path d="M49.05,20.357c0-0.402-0.321-0.734-0.723-0.734c-0.402,0-0.734,0.332-0.734,0.734s0.332,0.723,0.734,0.723
	C48.729,21.08,49.05,20.76,49.05,20.357"/>
<path d="M56.005,18.579l0.459,0.699l-0.597,3.03c-0.47,0.505-0.918,0.757-1.354,0.757c-0.665,0-0.998-0.459-0.998-1.377
	c0-1.824,0.987-3.109,2.329-3.109H56.005z M57.072,18.132l-0.229,0.252c-0.356-0.173-0.712-0.252-1.033-0.252
	c-1.136,0-2.066,0.538-2.651,1.503c-0.39,0.643-0.597,1.354-0.597,2.123c0,1.262,0.609,2.008,1.584,2.008
	c0.551,0,1.102-0.321,1.71-0.964v0.092c0,0.585,0.218,0.872,0.7,0.872c0.309,0,0.78-0.139,1.411-0.402V23.02
	c-0.31,0.068-0.516,0.115-0.643,0.115c-0.424,0-0.619-0.161-0.619-0.528c0-0.161,0.034-0.424,0.115-0.803l0.413-2.031
	c0.172-0.849,0.321-1.4,0.436-1.641H57.072z"/>
<path d="M60.254,15.398l-1.131,0.252v0.191l0.626,0.114l-0.634,3.127h0.65l0.474-2.584c0.466-0.428,0.871-0.627,1.131-0.627
	c0.291,0,0.413,0.146,0.413,0.482c0,0.099-0.015,0.267-0.069,0.489l-0.329,1.414c-0.038,0.168-0.061,0.313-0.061,0.413
	c0,0.306,0.184,0.459,0.558,0.459c0.214,0,0.52-0.077,0.918-0.23v-0.214c-0.176,0.046-0.314,0.069-0.421,0.069
	c-0.252,0-0.397-0.131-0.397-0.375c0-0.114,0.038-0.282,0.084-0.505l0.26-1.185c0.061-0.275,0.107-0.489,0.107-0.68
	c0-0.375-0.245-0.612-0.642-0.612c-0.406,0-0.88,0.252-1.483,0.734l0.137-0.734H60.254z"/>
<rect x="63.308" y="16.652" width="5.198" height="0.459"/>
<polygon points="71.093,13.862 69.434,14.359 69.434,14.68 70.634,14.466 70.634,18.579 70.542,18.709 69.663,18.755 69.663,19.083 
	72.224,19.083 72.224,18.762 71.398,18.724 71.307,18.609 71.307,13.862 "/>
<path d="M91.277,23.159h-0.455c-0.135,0-0.258-0.012-0.38-0.028c-0.123-0.019-0.222-0.06-0.31-0.117
	c-0.094-0.064-0.164-0.152-0.21-0.263c-0.059-0.111-0.082-0.264-0.082-0.45v-4.488h1.689v-0.567H89.84v-0.706
	c0-0.253,0.011-0.475,0.047-0.668c0.023-0.191,0.075-0.35,0.146-0.479c0.07-0.134,0.163-0.234,0.274-0.298
	c0.117-0.064,0.263-0.1,0.433-0.1c0.152,0,0.28,0.029,0.38,0.082c0.099,0.053,0.181,0.129,0.239,0.217
	c0.064,0.087,0.105,0.192,0.129,0.31c0.029,0.111,0.041,0.228,0.041,0.35c0.146,0,0.274-0.011,0.391-0.041
	c0.123-0.028,0.222-0.075,0.31-0.128l0.205-0.211c0.052-0.087,0.076-0.181,0.076-0.292c0-0.123-0.03-0.238-0.088-0.339
	c-0.059-0.099-0.152-0.187-0.286-0.263c-0.129-0.076-0.299-0.128-0.515-0.169c-0.216-0.041-0.479-0.065-0.789-0.065
	c-0.327,0-0.619,0.047-0.882,0.147c-0.263,0.093-0.485,0.232-0.666,0.42c-0.182,0.187-0.322,0.415-0.421,0.689
	c-0.1,0.275-0.146,0.591-0.146,0.947v0.596h-1.093v0.567h1.093v4.488c0,0.187-0.03,0.339-0.082,0.45
	c-0.053,0.11-0.123,0.198-0.211,0.263c-0.087,0.058-0.187,0.099-0.309,0.117c-0.117,0.017-0.246,0.028-0.38,0.028h-0.158v0.503
	h3.699V23.159z M84.678,15.306c0,0.14,0.018,0.257,0.053,0.35c0.035,0.095,0.082,0.17,0.146,0.229l0.216,0.129
	c0.082,0.022,0.17,0.035,0.269,0.035c0.094,0,0.181-0.013,0.263-0.035l0.216-0.129c0.059-0.059,0.106-0.134,0.141-0.229
	c0.04-0.093,0.058-0.21,0.058-0.35c0-0.141-0.018-0.258-0.058-0.351c-0.035-0.095-0.082-0.171-0.147-0.229l-0.21-0.123
	c-0.082-0.022-0.169-0.035-0.263-0.035c-0.099,0-0.187,0.013-0.269,0.035l-0.216,0.123c-0.064,0.058-0.111,0.134-0.146,0.229
	C84.696,15.048,84.678,15.165,84.678,15.306 M83.866,23.159h-0.158v0.503h3.401v-0.503h-0.157c-0.135,0-0.257-0.012-0.38-0.028
	c-0.123-0.019-0.222-0.06-0.31-0.117c-0.093-0.064-0.164-0.152-0.21-0.263c-0.059-0.111-0.082-0.264-0.082-0.45v-5.056h-2.139v0.503
	h0.035c0.134,0,0.257,0.012,0.374,0.029c0.123,0.018,0.228,0.059,0.316,0.116c0.087,0.059,0.157,0.141,0.21,0.252
	c0.053,0.105,0.082,0.245,0.082,0.421v3.792c0,0.176-0.029,0.316-0.082,0.427c-0.053,0.105-0.123,0.188-0.21,0.24
	c-0.088,0.052-0.193,0.093-0.316,0.111C84.123,23.153,84,23.159,83.866,23.159"/>
<path d="M97.139,18.132l-1.698,0.379v0.287l0.941,0.172l-0.953,4.692h0.976l0.711-3.879c0.7-0.642,1.308-0.94,1.698-0.94
	c0.436,0,0.62,0.218,0.62,0.723c0,0.149-0.023,0.402-0.103,0.735l-0.494,2.123c-0.057,0.252-0.092,0.47-0.092,0.618
	c0,0.459,0.276,0.689,0.838,0.689c0.321,0,0.78-0.115,1.377-0.345v-0.321c-0.264,0.069-0.47,0.103-0.631,0.103
	c-0.379,0-0.597-0.194-0.597-0.562c0-0.172,0.058-0.424,0.126-0.757l0.391-1.779c0.091-0.413,0.16-0.734,0.16-1.021
	c0-0.563-0.367-0.918-0.964-0.918c-0.608,0-1.319,0.379-2.226,1.102l0.207-1.102H97.139z"/>
<polygon points="104.754,17.811 110.904,20.357 104.754,22.905 104.754,23.651 112.144,20.587 112.144,20.128 104.754,17.064 "/>
<polygon points="119.381,15.825 116.891,16.571 116.891,17.053 118.693,16.731 118.693,22.905 118.555,23.1 117.235,23.169 
	117.235,23.662 121.079,23.662 121.079,23.18 119.84,23.123 119.702,22.951 119.702,15.825 "/>
<path d="M221.91,19.869c0,0.474-0.019,0.947-0.053,1.408c-0.041,0.462-0.122,0.9-0.245,1.315c-0.129,0.415-0.316,0.801-0.556,1.151
	s-0.566,0.648-0.976,0.9v0.549c0.549-0.216,1.017-0.485,1.408-0.795c0.392-0.311,0.707-0.684,0.953-1.11
	c0.245-0.433,0.426-0.929,0.537-1.496c0.116-0.561,0.176-1.204,0.176-1.923s-0.06-1.361-0.176-1.917
	c-0.111-0.561-0.292-1.058-0.537-1.483c-0.246-0.428-0.562-0.795-0.953-1.105c-0.392-0.31-0.859-0.578-1.408-0.795v0.538
	c0.409,0.251,0.736,0.549,0.976,0.9c0.239,0.345,0.427,0.725,0.556,1.14c0.123,0.415,0.204,0.853,0.245,1.314
	C221.892,18.923,221.91,19.396,221.91,19.869 M216.733,23.779c0.355,0,0.66-0.041,0.923-0.117s0.484-0.175,0.661-0.292
	c0.175-0.117,0.304-0.246,0.391-0.386c0.088-0.135,0.129-0.263,0.129-0.386c0-0.1-0.023-0.188-0.076-0.264l-0.151-0.146
	c-0.07,0.111-0.158,0.211-0.275,0.31c-0.104,0.1-0.234,0.193-0.38,0.27c-0.146,0.076-0.304,0.14-0.479,0.187
	c-0.181,0.046-0.374,0.07-0.577,0.07c-0.287,0-0.538-0.047-0.754-0.146c-0.218-0.094-0.404-0.239-0.551-0.443
	c-0.151-0.205-0.268-0.462-0.344-0.778c-0.082-0.309-0.129-0.683-0.135-1.122h3.985v-0.549c0-0.473-0.059-0.888-0.17-1.245
	c-0.116-0.355-0.279-0.654-0.495-0.894c-0.218-0.24-0.475-0.415-0.784-0.538c-0.31-0.122-0.654-0.182-1.04-0.182
	c-0.848,0-1.502,0.281-1.963,0.849c-0.463,0.565-0.69,1.408-0.69,2.523c0,0.521,0.064,0.982,0.193,1.386
	c0.123,0.408,0.304,0.754,0.543,1.034s0.531,0.491,0.877,0.638C215.915,23.703,216.3,23.779,216.733,23.779 M216.587,17.771
	c0.239,0,0.444,0.053,0.608,0.152c0.169,0.099,0.304,0.244,0.402,0.432c0.1,0.187,0.176,0.409,0.223,0.672s0.069,0.55,0.069,0.865
	h-2.753c0.041-0.695,0.183-1.222,0.421-1.583C215.798,17.952,216.144,17.771,216.587,17.771 M210.415,23.779
	c0.357,0,0.678-0.041,0.971-0.117c0.286-0.076,0.537-0.199,0.742-0.351c0.204-0.163,0.368-0.356,0.479-0.59
	c0.11-0.234,0.169-0.51,0.169-0.818c0-0.252-0.035-0.468-0.105-0.661c-0.07-0.191-0.175-0.361-0.321-0.514
	c-0.146-0.152-0.333-0.292-0.561-0.421c-0.228-0.128-0.497-0.257-0.813-0.392c-0.263-0.11-0.489-0.205-0.677-0.292
	c-0.192-0.088-0.345-0.182-0.462-0.274c-0.123-0.094-0.211-0.193-0.263-0.305c-0.053-0.11-0.082-0.244-0.082-0.396
	c0-0.141,0.022-0.27,0.063-0.386c0.041-0.117,0.111-0.217,0.205-0.305c0.088-0.088,0.204-0.151,0.352-0.198
	c0.146-0.047,0.314-0.07,0.52-0.07c0.356,0,0.613,0.111,0.783,0.333c0.163,0.222,0.245,0.532,0.245,0.935
	c0.274,0,0.491-0.063,0.643-0.192c0.146-0.134,0.223-0.31,0.223-0.526c0-0.146-0.035-0.286-0.111-0.42
	c-0.076-0.135-0.187-0.252-0.333-0.351c-0.146-0.1-0.333-0.182-0.549-0.24c-0.217-0.059-0.468-0.087-0.754-0.087
	c-0.339,0-0.649,0.035-0.924,0.11c-0.274,0.076-0.515,0.182-0.714,0.327c-0.197,0.141-0.35,0.316-0.454,0.526
	c-0.111,0.21-0.164,0.45-0.164,0.725c0,0.264,0.034,0.485,0.11,0.679c0.076,0.187,0.188,0.355,0.333,0.502
	c0.146,0.146,0.339,0.286,0.567,0.415c0.228,0.123,0.491,0.257,0.801,0.392c0.286,0.122,0.526,0.234,0.718,0.333
	c0.193,0.099,0.346,0.193,0.456,0.286c0.111,0.094,0.188,0.192,0.234,0.304c0.041,0.105,0.063,0.234,0.063,0.38
	c0,0.158-0.028,0.311-0.087,0.444c-0.059,0.135-0.141,0.246-0.252,0.345c-0.11,0.093-0.251,0.169-0.415,0.223
	c-0.163,0.053-0.35,0.075-0.565,0.075c-0.24,0-0.445-0.041-0.608-0.116c-0.17-0.082-0.304-0.193-0.403-0.327
	c-0.1-0.141-0.176-0.305-0.217-0.485s-0.063-0.38-0.063-0.59l-0.234,0.04l-0.245,0.129c-0.076,0.063-0.14,0.146-0.192,0.257
	c-0.054,0.105-0.082,0.24-0.082,0.398c0,0.21,0.047,0.391,0.14,0.555c0.094,0.152,0.228,0.286,0.398,0.396
	c0.169,0.105,0.38,0.188,0.625,0.234C209.843,23.756,210.117,23.779,210.415,23.779 M204.38,17.725c0.246,0,0.444,0.035,0.59,0.104
	c0.142,0.076,0.259,0.177,0.334,0.305c0.076,0.135,0.128,0.286,0.151,0.468c0.024,0.181,0.036,0.38,0.036,0.596v0.719l-0.994,0.035
	c-0.917,0.029-1.601,0.193-2.051,0.502c-0.45,0.311-0.678,0.778-0.678,1.415c0,0.327,0.047,0.607,0.14,0.848
	c0.094,0.239,0.222,0.438,0.392,0.596c0.163,0.158,0.362,0.274,0.59,0.351c0.229,0.076,0.474,0.117,0.736,0.117
	c0.252,0,0.462-0.03,0.644-0.088c0.175-0.053,0.333-0.134,0.474-0.234c0.14-0.099,0.268-0.222,0.385-0.361
	c0.117-0.141,0.24-0.292,0.363-0.462h0.099l0.188,1.028h1.619v-0.503h-0.035c-0.136,0-0.246-0.011-0.339-0.041
	c-0.101-0.028-0.177-0.076-0.234-0.14c-0.058-0.064-0.099-0.152-0.129-0.263c-0.029-0.111-0.041-0.245-0.041-0.415v-3.104
	c0-0.38-0.046-0.707-0.134-0.97c-0.094-0.263-0.234-0.475-0.415-0.637c-0.182-0.164-0.409-0.281-0.685-0.357
	c-0.273-0.07-0.59-0.105-0.958-0.105c-0.298,0-0.572,0.023-0.836,0.064c-0.263,0.041-0.491,0.111-0.688,0.199
	c-0.193,0.094-0.352,0.21-0.462,0.356c-0.111,0.146-0.17,0.321-0.17,0.526c0,0.274,0.088,0.473,0.258,0.584
	c0.175,0.111,0.426,0.169,0.759,0.169c0-0.187,0.012-0.362,0.041-0.52s0.082-0.299,0.164-0.415c0.076-0.116,0.187-0.21,0.333-0.274
	C203.965,17.753,204.152,17.725,204.38,17.725 M202.931,21.927c0-0.234,0.029-0.438,0.089-0.619c0.063-0.183,0.162-0.328,0.303-0.45
	c0.141-0.129,0.328-0.222,0.55-0.293c0.234-0.064,0.514-0.105,0.853-0.122l0.767-0.035v0.97c0,0.251-0.036,0.485-0.111,0.689
	c-0.076,0.205-0.182,0.38-0.315,0.526c-0.141,0.146-0.311,0.257-0.503,0.333c-0.198,0.075-0.421,0.116-0.66,0.116
	c-0.333,0-0.573-0.093-0.731-0.279C203.013,22.581,202.931,22.301,202.931,21.927 M198.677,23.779c0.339,0,0.638-0.035,0.889-0.104
	c0.252-0.065,0.468-0.152,0.637-0.264c0.17-0.111,0.293-0.233,0.38-0.369c0.088-0.134,0.129-0.273,0.129-0.408
	c0-0.111-0.018-0.204-0.059-0.28l-0.146-0.188c-0.134,0.245-0.345,0.444-0.619,0.603c-0.274,0.157-0.602,0.232-0.97,0.232
	c-0.643,0-1.104-0.21-1.385-0.625c-0.287-0.415-0.427-1.052-0.427-1.898c0-0.532,0.034-0.977,0.104-1.333s0.17-0.637,0.304-0.847
	c0.135-0.211,0.292-0.357,0.479-0.444c0.181-0.088,0.392-0.129,0.62-0.129c0.204,0,0.368,0.035,0.502,0.11
	c0.129,0.07,0.233,0.171,0.31,0.299c0.076,0.123,0.129,0.269,0.158,0.438c0.029,0.169,0.047,0.344,0.047,0.531
	c0.356,0,0.619-0.059,0.8-0.169c0.182-0.111,0.27-0.311,0.27-0.584c0-0.205-0.064-0.386-0.188-0.538
	c-0.123-0.158-0.286-0.286-0.484-0.386c-0.199-0.1-0.421-0.176-0.666-0.223c-0.251-0.053-0.497-0.076-0.748-0.076
	c-0.38,0-0.731,0.054-1.052,0.164c-0.327,0.111-0.608,0.292-0.849,0.556c-0.239,0.263-0.426,0.607-0.561,1.04
	c-0.134,0.427-0.204,0.964-0.204,1.601c0,0.591,0.07,1.093,0.204,1.508c0.135,0.415,0.321,0.754,0.561,1.018
	c0.24,0.263,0.532,0.462,0.865,0.585C197.911,23.721,198.28,23.779,198.677,23.779 M189.217,23.779c0.357,0,0.661-0.041,0.924-0.117
	c0.264-0.076,0.485-0.175,0.66-0.292s0.305-0.246,0.392-0.386c0.088-0.135,0.129-0.263,0.129-0.386c0-0.1-0.023-0.188-0.076-0.264
	l-0.152-0.146c-0.069,0.111-0.158,0.211-0.274,0.31c-0.105,0.1-0.233,0.193-0.379,0.27c-0.147,0.076-0.305,0.14-0.48,0.187
	c-0.181,0.046-0.374,0.07-0.578,0.07c-0.287,0-0.538-0.047-0.754-0.146c-0.216-0.094-0.403-0.239-0.549-0.443
	c-0.152-0.205-0.269-0.462-0.345-0.778c-0.082-0.309-0.129-0.683-0.136-1.122h3.986v-0.549c0-0.473-0.058-0.888-0.169-1.245
	c-0.117-0.355-0.281-0.654-0.497-0.894c-0.216-0.24-0.474-0.415-0.783-0.538c-0.31-0.122-0.654-0.182-1.041-0.182
	c-0.847,0-1.501,0.281-1.963,0.849c-0.462,0.565-0.689,1.408-0.689,2.523c0,0.521,0.064,0.982,0.192,1.386
	c0.123,0.408,0.305,0.754,0.544,1.034s0.531,0.491,0.876,0.638C188.399,23.703,188.785,23.779,189.217,23.779 M189.071,17.771
	c0.24,0,0.443,0.053,0.607,0.152c0.169,0.099,0.305,0.244,0.403,0.432c0.099,0.187,0.175,0.409,0.222,0.672s0.07,0.55,0.07,0.865
	h-2.752c0.041-0.695,0.181-1.222,0.421-1.583C188.282,17.952,188.627,17.771,189.071,17.771 M178.904,17.748h0.035
	c0.116,0,0.217,0.012,0.304,0.029l0.228,0.099l0.177,0.199c0.052,0.082,0.099,0.188,0.146,0.311l1.922,5.276h1.093l1.889-4.979
	c0.076-0.193,0.14-0.346,0.204-0.468c0.059-0.123,0.123-0.217,0.188-0.286l0.222-0.146c0.081-0.023,0.182-0.035,0.299-0.035h0.146
	v-0.503h-2.565v0.503h0.088c0.263,0,0.462,0.046,0.59,0.141c0.134,0.093,0.199,0.245,0.199,0.449l-0.029,0.234
	c-0.012,0.087-0.041,0.181-0.082,0.28l-0.859,2.332c-0.053,0.146-0.11,0.292-0.17,0.45c-0.063,0.157-0.123,0.31-0.175,0.456
	c-0.059,0.151-0.111,0.292-0.152,0.415c-0.047,0.128-0.082,0.232-0.099,0.32h-0.041c-0.018-0.099-0.041-0.228-0.082-0.368
	c-0.041-0.151-0.082-0.304-0.129-0.468c-0.052-0.163-0.105-0.327-0.158-0.502c-0.052-0.164-0.104-0.322-0.157-0.462l-0.813-2.262
	l-0.07-0.233l-0.022-0.205c0-0.199,0.058-0.345,0.181-0.438c0.117-0.095,0.298-0.141,0.538-0.141h0.152v-0.503h-2.993V17.748z
	 M176.279,15.306c0,0.14,0.018,0.257,0.053,0.35c0.035,0.094,0.082,0.17,0.146,0.229l0.216,0.129
	c0.082,0.022,0.17,0.035,0.269,0.035c0.094,0,0.182-0.013,0.263-0.035l0.217-0.129c0.059-0.059,0.104-0.135,0.141-0.229
	c0.04-0.093,0.058-0.21,0.058-0.35c0-0.142-0.018-0.257-0.058-0.352c-0.036-0.093-0.082-0.169-0.146-0.228l-0.211-0.123
	c-0.081-0.023-0.169-0.035-0.263-0.035c-0.099,0-0.187,0.012-0.269,0.035l-0.216,0.123c-0.064,0.059-0.111,0.135-0.146,0.228
	C176.297,15.049,176.279,15.164,176.279,15.306 M175.467,23.159h-0.157v0.503h3.4v-0.503h-0.157c-0.135,0-0.257-0.011-0.38-0.028
	c-0.123-0.019-0.222-0.059-0.31-0.117c-0.093-0.064-0.164-0.152-0.21-0.264c-0.06-0.11-0.082-0.263-0.082-0.449v-5.056h-2.14v0.503
	h0.035c0.134,0,0.257,0.012,0.374,0.029c0.123,0.017,0.229,0.058,0.316,0.117c0.087,0.058,0.157,0.14,0.21,0.251
	c0.053,0.104,0.082,0.245,0.082,0.421v3.793c0,0.175-0.029,0.315-0.082,0.426c-0.053,0.105-0.123,0.188-0.21,0.24
	c-0.088,0.052-0.193,0.093-0.316,0.111C175.724,23.153,175.601,23.159,175.467,23.159 M172.153,23.779
	c0.356,0,0.678-0.041,0.971-0.117c0.286-0.076,0.537-0.199,0.742-0.351c0.204-0.163,0.368-0.356,0.479-0.59
	c0.111-0.234,0.169-0.51,0.169-0.818c0-0.252-0.034-0.468-0.104-0.661c-0.07-0.191-0.175-0.361-0.321-0.514
	c-0.146-0.152-0.333-0.292-0.561-0.421c-0.229-0.128-0.497-0.257-0.813-0.392c-0.263-0.11-0.49-0.205-0.677-0.292
	c-0.193-0.088-0.345-0.182-0.462-0.274c-0.123-0.094-0.211-0.193-0.263-0.305c-0.054-0.11-0.082-0.244-0.082-0.396
	c0-0.141,0.022-0.27,0.063-0.386c0.041-0.117,0.111-0.217,0.205-0.305c0.088-0.088,0.204-0.151,0.35-0.198
	c0.147-0.047,0.316-0.07,0.521-0.07c0.355,0,0.613,0.111,0.783,0.333c0.163,0.222,0.245,0.532,0.245,0.935
	c0.274,0,0.49-0.063,0.643-0.192c0.146-0.134,0.222-0.31,0.222-0.526c0-0.146-0.034-0.286-0.11-0.42
	c-0.076-0.135-0.188-0.252-0.333-0.351c-0.146-0.1-0.333-0.182-0.549-0.24c-0.218-0.059-0.469-0.087-0.755-0.087
	c-0.339,0-0.648,0.035-0.924,0.11c-0.273,0.076-0.514,0.182-0.713,0.327c-0.198,0.141-0.35,0.316-0.455,0.526
	c-0.111,0.21-0.164,0.45-0.164,0.725c0,0.264,0.035,0.485,0.111,0.679c0.076,0.187,0.187,0.355,0.333,0.502
	c0.146,0.146,0.339,0.286,0.567,0.415c0.228,0.123,0.49,0.257,0.801,0.392c0.286,0.122,0.525,0.234,0.718,0.333
	c0.193,0.099,0.345,0.193,0.456,0.286c0.111,0.094,0.187,0.192,0.234,0.304c0.041,0.105,0.063,0.234,0.063,0.38
	c0,0.158-0.029,0.311-0.087,0.444c-0.059,0.135-0.141,0.246-0.252,0.345c-0.111,0.093-0.251,0.169-0.415,0.223
	c-0.163,0.053-0.35,0.075-0.566,0.075c-0.239,0-0.444-0.041-0.607-0.116c-0.17-0.082-0.304-0.193-0.403-0.327
	c-0.1-0.141-0.176-0.305-0.217-0.485s-0.064-0.38-0.064-0.59l-0.233,0.04l-0.245,0.129c-0.076,0.063-0.141,0.146-0.193,0.257
	c-0.053,0.105-0.082,0.24-0.082,0.398c0,0.21,0.047,0.391,0.141,0.555c0.094,0.152,0.228,0.286,0.397,0.396
	c0.169,0.105,0.38,0.188,0.625,0.234C171.581,23.756,171.855,23.779,172.153,23.779 M167.858,23.662v-0.503h-0.333
	c-0.135,0-0.257-0.011-0.374-0.022c-0.122-0.024-0.229-0.06-0.315-0.111c-0.088-0.053-0.158-0.135-0.211-0.24
	c-0.052-0.11-0.082-0.251-0.082-0.426v-1.882c0-0.152,0.006-0.322,0.024-0.509c0.017-0.188,0.041-0.374,0.082-0.562
	c0.035-0.192,0.081-0.374,0.14-0.555c0.064-0.182,0.14-0.339,0.222-0.479c0.095-0.135,0.193-0.246,0.311-0.333
	c0.117-0.082,0.251-0.123,0.396-0.123c0.234,0,0.398,0.07,0.491,0.217c0.094,0.146,0.14,0.386,0.14,0.719
	c0.205,0,0.374-0.023,0.516-0.064c0.14-0.041,0.257-0.1,0.344-0.175c0.088-0.076,0.152-0.164,0.199-0.269
	c0.041-0.106,0.059-0.223,0.059-0.346c0-0.274-0.105-0.49-0.315-0.643c-0.216-0.152-0.538-0.229-0.977-0.229
	c-0.263,0-0.484,0.035-0.66,0.1c-0.176,0.071-0.321,0.164-0.438,0.281c-0.122,0.123-0.222,0.257-0.304,0.415
	c-0.081,0.157-0.163,0.326-0.239,0.508h-0.06l-0.228-1.187h-1.84v0.503h0.035c0.134,0,0.257,0.012,0.379,0.029
	c0.117,0.017,0.223,0.058,0.31,0.117c0.088,0.058,0.164,0.14,0.216,0.245c0.054,0.11,0.076,0.251,0.076,0.427v3.734
	c0,0.187-0.022,0.339-0.076,0.449c-0.052,0.111-0.122,0.199-0.21,0.258c-0.088,0.064-0.192,0.104-0.31,0.123
	c-0.122,0.018-0.251,0.028-0.385,0.028h-0.035v0.503H167.858z M162.724,22.359v-5.114h-2.139v0.503h0.035
	c0.134,0,0.263,0.012,0.38,0.029c0.123,0.017,0.222,0.058,0.315,0.117c0.088,0.063,0.157,0.151,0.211,0.263
	c0.052,0.117,0.076,0.27,0.076,0.456v2.466c0,0.286-0.029,0.549-0.089,0.789c-0.058,0.239-0.146,0.438-0.269,0.607
	c-0.122,0.17-0.28,0.304-0.467,0.397c-0.193,0.094-0.421,0.141-0.685,0.141c-0.239,0-0.443-0.035-0.602-0.111
	c-0.164-0.07-0.292-0.175-0.386-0.315c-0.1-0.141-0.163-0.31-0.204-0.515c-0.041-0.204-0.064-0.432-0.064-0.695v-4.132h-2.145v0.503
	h0.035c0.134,0,0.257,0.012,0.38,0.029c0.116,0.017,0.222,0.058,0.309,0.117c0.088,0.058,0.164,0.14,0.217,0.245
	c0.053,0.11,0.076,0.251,0.076,0.427v2.869c0,0.409,0.046,0.76,0.134,1.058s0.21,0.538,0.38,0.731
	c0.17,0.191,0.374,0.333,0.619,0.42c0.246,0.088,0.526,0.135,0.842,0.135c0.193,0,0.381-0.012,0.562-0.047
	c0.181-0.023,0.351-0.082,0.514-0.164c0.164-0.076,0.322-0.187,0.469-0.327c0.146-0.14,0.274-0.321,0.396-0.549h0.06l0.156,0.97h1.9
	v-0.503h-0.035c-0.135,0-0.257-0.011-0.374-0.022c-0.123-0.024-0.228-0.06-0.316-0.111c-0.088-0.053-0.157-0.135-0.21-0.24
	C162.753,22.675,162.724,22.534,162.724,22.359 M153.923,23.779c0.339,0,0.637-0.035,0.89-0.104
	c0.251-0.065,0.467-0.152,0.637-0.264c0.169-0.111,0.292-0.233,0.38-0.369c0.087-0.134,0.128-0.273,0.128-0.408
	c0-0.111-0.017-0.204-0.058-0.28l-0.146-0.188c-0.135,0.245-0.345,0.444-0.62,0.603c-0.274,0.157-0.602,0.232-0.97,0.232
	c-0.643,0-1.104-0.21-1.385-0.625c-0.286-0.415-0.428-1.052-0.428-1.898c0-0.532,0.035-0.977,0.106-1.333
	c0.07-0.356,0.169-0.637,0.303-0.847c0.136-0.211,0.293-0.357,0.48-0.444c0.181-0.088,0.391-0.129,0.619-0.129
	c0.205,0,0.368,0.035,0.503,0.11c0.128,0.07,0.232,0.171,0.309,0.299c0.076,0.123,0.129,0.269,0.158,0.438
	c0.029,0.169,0.047,0.344,0.047,0.531c0.357,0,0.62-0.059,0.801-0.169c0.182-0.111,0.27-0.311,0.27-0.584
	c0-0.205-0.065-0.386-0.188-0.538c-0.122-0.158-0.286-0.286-0.484-0.386s-0.42-0.176-0.666-0.223
	c-0.251-0.053-0.497-0.076-0.748-0.076c-0.38,0-0.73,0.054-1.053,0.164c-0.326,0.111-0.607,0.292-0.847,0.556
	c-0.24,0.263-0.427,0.607-0.561,1.04c-0.136,0.427-0.205,0.964-0.205,1.601c0,0.591,0.069,1.093,0.205,1.508
	c0.134,0.415,0.32,0.754,0.561,1.018c0.239,0.263,0.532,0.462,0.865,0.585C153.158,23.721,153.526,23.779,153.923,23.779
	 M147.572,23.779c0.355,0,0.66-0.041,0.923-0.117s0.485-0.175,0.661-0.292c0.175-0.117,0.304-0.246,0.391-0.386
	c0.088-0.135,0.129-0.263,0.129-0.386c0-0.1-0.023-0.188-0.076-0.264l-0.151-0.146c-0.07,0.111-0.158,0.211-0.275,0.31
	c-0.104,0.1-0.233,0.193-0.38,0.27c-0.146,0.076-0.304,0.14-0.479,0.187c-0.182,0.046-0.374,0.07-0.579,0.07
	c-0.286,0-0.537-0.047-0.753-0.146c-0.218-0.094-0.404-0.239-0.551-0.443c-0.151-0.205-0.269-0.462-0.345-0.778
	c-0.081-0.309-0.128-0.683-0.134-1.122h3.986v-0.549c0-0.473-0.06-0.888-0.17-1.245c-0.117-0.355-0.28-0.654-0.496-0.894
	c-0.218-0.24-0.475-0.415-0.784-0.538c-0.31-0.122-0.654-0.182-1.04-0.182c-0.847,0-1.502,0.281-1.963,0.849
	c-0.462,0.565-0.69,1.408-0.69,2.523c0,0.521,0.064,0.982,0.193,1.386c0.122,0.408,0.304,0.754,0.543,1.034
	c0.24,0.28,0.532,0.491,0.877,0.638C146.754,23.703,147.139,23.779,147.572,23.779 M147.426,17.771c0.239,0,0.444,0.053,0.608,0.152
	c0.169,0.099,0.303,0.244,0.403,0.432c0.099,0.187,0.175,0.409,0.222,0.672s0.07,0.55,0.07,0.865h-2.754
	c0.041-0.695,0.183-1.222,0.422-1.583C146.637,17.952,146.982,17.771,147.426,17.771 M139.095,19.331V15.69h0.813
	c0.339,0,0.625,0.036,0.865,0.1c0.233,0.064,0.427,0.163,0.572,0.311c0.146,0.14,0.258,0.32,0.321,0.549
	c0.064,0.222,0.099,0.491,0.099,0.812c0,0.311-0.028,0.585-0.093,0.818c-0.059,0.234-0.158,0.427-0.298,0.585
	s-0.327,0.274-0.561,0.351c-0.234,0.075-0.526,0.116-0.877,0.116H139.095z M142.928,22.201l-1.642-2.595
	c0.211-0.07,0.421-0.164,0.631-0.281c0.211-0.116,0.398-0.262,0.567-0.438c0.17-0.176,0.304-0.38,0.402-0.625
	c0.106-0.234,0.158-0.515,0.158-0.836c0-0.771-0.251-1.351-0.759-1.736c-0.509-0.379-1.28-0.572-2.315-0.572h-3.22v0.502h0.152
	c0.135,0,0.257,0.013,0.374,0.03c0.123,0.017,0.228,0.052,0.315,0.111c0.087,0.058,0.158,0.14,0.21,0.251
	c0.054,0.104,0.082,0.245,0.082,0.421v5.926c0,0.175-0.028,0.315-0.082,0.426c-0.052,0.105-0.123,0.188-0.21,0.24
	c-0.088,0.052-0.192,0.093-0.315,0.111c-0.117,0.017-0.239,0.022-0.374,0.022h-0.152v0.503h3.483v-0.503h-0.158
	c-0.134,0-0.257-0.006-0.379-0.022c-0.117-0.019-0.223-0.06-0.311-0.111c-0.088-0.053-0.157-0.135-0.211-0.24
	c-0.052-0.11-0.081-0.251-0.081-0.426v-2.467h0.993l1.619,2.694c0.134,0.228,0.263,0.409,0.386,0.55
	c0.117,0.14,0.257,0.251,0.427,0.326c0.17,0.076,0.367,0.13,0.613,0.158c0.24,0.029,0.543,0.041,0.917,0.041h0.17v-0.503h-0.035
	c-0.25,0-0.473-0.082-0.665-0.239C143.326,22.763,143.133,22.522,142.928,22.201 M134.085,19.869c0-0.473,0.019-0.946,0.059-1.408
	c0.035-0.462,0.116-0.899,0.239-1.314s0.311-0.795,0.549-1.14c0.246-0.352,0.573-0.649,0.982-0.9v-0.538
	c-0.549,0.217-1.017,0.48-1.408,0.795c-0.392,0.304-0.707,0.678-0.959,1.105c-0.245,0.426-0.426,0.923-0.537,1.478
	c-0.11,0.562-0.17,1.204-0.17,1.923s0.06,1.362,0.17,1.923c0.111,0.567,0.292,1.063,0.537,1.49c0.252,0.433,0.567,0.806,0.959,1.116
	c0.392,0.31,0.859,0.579,1.408,0.795v-0.549c-0.409-0.252-0.736-0.55-0.982-0.9c-0.238-0.351-0.426-0.736-0.549-1.151
	s-0.204-0.854-0.239-1.315C134.104,20.816,134.085,20.343,134.085,19.869"/>
</svg>
