<?xml version="1.0" encoding="iso-8859-1"?>
<!-- Generator: Adobe Illustrator 14.0.0, SVG Export Plug-In . SVG Version: 6.00 Build 43363)  -->
<!DOCTYPE svg PUBLIC "-//W3C//DTD SVG 1.1//EN" "http://www.w3.org/Graphics/SVG/1.1/DTD/svg11.dtd">
<svg version="1.1" id="Layer_1" xmlns="http://www.w3.org/2000/svg" xmlns:xlink="http://www.w3.org/1999/xlink" x="0px" y="0px"
	 width="217.2px" height="30.905px" viewBox="0 0 217.2 30.905" style="enable-background:new 0 0 217.2 30.905;"
	 xml:space="preserve">
<path d="M3.443,13.704l0.459,0.699l-0.597,3.03c-0.47,0.505-0.918,0.757-1.354,0.757c-0.665,0-0.998-0.459-0.998-1.377
	c0-1.824,0.987-3.109,2.329-3.109H3.443z M4.51,13.257l-0.229,0.252c-0.356-0.172-0.712-0.252-1.033-0.252
	c-1.136,0-2.066,0.539-2.651,1.503C0.207,15.402,0,16.113,0,16.883c0,1.262,0.609,2.008,1.584,2.008c0.551,0,1.102-0.321,1.71-0.964
	v0.092c0,0.585,0.218,0.872,0.7,0.872c0.309,0,0.78-0.138,1.411-0.402v-0.344c-0.31,0.069-0.516,0.115-0.643,0.115
	c-0.424,0-0.619-0.161-0.619-0.528c0-0.161,0.034-0.424,0.115-0.803l0.413-2.031c0.172-0.849,0.321-1.4,0.436-1.641H4.51z"/>
<path d="M7.692,10.225l-1.131,0.252v0.191l0.626,0.114l-0.634,3.127h0.65l0.474-2.584c0.466-0.428,0.871-0.627,1.131-0.627
	c0.291,0,0.413,0.146,0.413,0.482c0,0.099-0.015,0.267-0.069,0.489l-0.329,1.414c-0.038,0.168-0.061,0.313-0.061,0.412
	c0,0.307,0.184,0.46,0.558,0.46c0.214,0,0.52-0.077,0.918-0.23v-0.214c-0.176,0.046-0.314,0.069-0.421,0.069
	c-0.252,0-0.397-0.131-0.397-0.375c0-0.114,0.038-0.282,0.084-0.505l0.26-1.185c0.061-0.275,0.107-0.489,0.107-0.68
	c0-0.375-0.245-0.612-0.642-0.612c-0.406,0-0.88,0.252-1.483,0.734l0.137-0.734H7.692z"/>
<path d="M14.372,17.066h7.711v-0.688h-7.711V17.066z M14.372,14.587h7.711v-0.688h-7.711V14.587z"/>
<path d="M28.276,15.215c0.516,0.275,0.929,0.7,1.147,1.251c0.517,1.285,0.666,2.64,0.666,4.017c0,0.733-0.046,1.479-0.103,2.214
	c-0.046,0.677-0.092,1.354-0.092,2.031c0,1.091,0.103,2.181,0.413,3.235c0.252,0.907,0.815,1.779,1.71,1.779v0.688
	c-1.159,0-2.089-0.884-2.525-1.974c-0.505-1.273-0.665-2.639-0.665-4.016c0-0.609,0.034-1.217,0.08-1.836
	c0.069-0.907,0.138-1.825,0.138-2.743c0-1.09-0.103-2.168-0.402-3.213c-0.206-0.734-0.987-1.09-1.767-1.09v-0.688
	c0.78,0,1.561-0.355,1.767-1.09c0.299-1.045,0.402-2.123,0.402-3.213c0-0.918-0.069-1.836-0.138-2.743
	c-0.046-0.619-0.08-1.227-0.08-1.836c0-1.377,0.16-2.742,0.665-4.016C29.928,0.883,30.858,0,32.017,0v0.688
	c-0.895,0-1.458,0.872-1.71,1.778c-0.31,1.056-0.413,2.146-0.413,3.236c0,0.677,0.046,1.354,0.092,2.031
	c0.057,0.733,0.103,1.479,0.103,2.214c0,1.377-0.149,2.73-0.666,4.016C29.205,14.516,28.792,14.94,28.276,15.215"/>
<path d="M42.404,4.602l0.459,0.699L42.266,8.33c-0.47,0.506-0.918,0.758-1.354,0.758c-0.665,0-0.998-0.459-0.998-1.377
	c0-1.824,0.987-3.109,2.329-3.109H42.404z M43.471,4.153l-0.229,0.252c-0.356-0.172-0.712-0.252-1.033-0.252
	c-1.136,0-2.066,0.539-2.651,1.503c-0.39,0.644-0.597,1.354-0.597,2.123c0,1.262,0.609,2.008,1.584,2.008
	c0.551,0,1.102-0.32,1.71-0.964v0.092c0,0.585,0.218,0.872,0.7,0.872c0.309,0,0.78-0.138,1.411-0.401V9.041
	c-0.31,0.069-0.516,0.115-0.643,0.115c-0.424,0-0.619-0.161-0.619-0.527c0-0.161,0.034-0.425,0.115-0.804l0.413-2.03
	c0.172-0.85,0.321-1.4,0.436-1.642H43.471z"/>
<path d="M83.869,9.182h-0.455c-0.135,0-0.258-0.012-0.38-0.029c-0.123-0.018-0.222-0.059-0.31-0.116
	c-0.094-0.064-0.164-0.152-0.21-0.264c-0.059-0.11-0.082-0.263-0.082-0.45V3.835h1.689V3.268h-1.689V2.561
	c0-0.252,0.011-0.474,0.047-0.667c0.023-0.191,0.075-0.35,0.146-0.479c0.07-0.135,0.163-0.234,0.274-0.298
	c0.117-0.064,0.263-0.1,0.433-0.1c0.152,0,0.28,0.029,0.38,0.082c0.099,0.052,0.181,0.128,0.239,0.216
	c0.064,0.087,0.105,0.193,0.129,0.311c0.029,0.11,0.041,0.227,0.041,0.35c0.146,0,0.274-0.011,0.391-0.041
	c0.123-0.029,0.222-0.076,0.31-0.128l0.205-0.211c0.052-0.087,0.076-0.181,0.076-0.292c0-0.123-0.03-0.239-0.088-0.339
	c-0.059-0.1-0.152-0.188-0.286-0.263c-0.129-0.076-0.299-0.129-0.515-0.17c-0.216-0.04-0.479-0.064-0.789-0.064
	c-0.327,0-0.619,0.047-0.882,0.146c-0.263,0.094-0.485,0.233-0.666,0.421c-0.182,0.187-0.322,0.414-0.421,0.689
	C81.356,2,81.31,2.314,81.31,2.672v0.596h-1.093v0.567h1.093v4.487c0,0.188-0.03,0.34-0.082,0.45
	c-0.053,0.111-0.123,0.199-0.211,0.264c-0.087,0.058-0.187,0.099-0.309,0.116c-0.117,0.018-0.246,0.029-0.38,0.029H80.17v0.503
	h3.699V9.182z M77.27,1.328c0,0.14,0.018,0.257,0.053,0.35c0.035,0.094,0.082,0.17,0.146,0.228l0.216,0.13
	c0.082,0.022,0.17,0.034,0.269,0.034c0.094,0,0.181-0.012,0.263-0.034l0.216-0.13c0.059-0.058,0.106-0.134,0.141-0.228
	c0.04-0.093,0.058-0.21,0.058-0.35c0-0.142-0.018-0.259-0.058-0.352c-0.035-0.094-0.082-0.17-0.147-0.228l-0.21-0.123
	c-0.082-0.023-0.169-0.035-0.263-0.035c-0.099,0-0.187,0.012-0.269,0.035l-0.216,0.123c-0.064,0.058-0.111,0.134-0.146,0.228
	C77.288,1.069,77.27,1.187,77.27,1.328 M76.458,9.182H76.3v0.503h3.401V9.182h-0.157c-0.135,0-0.257-0.012-0.38-0.029
	s-0.222-0.059-0.31-0.116c-0.093-0.064-0.164-0.152-0.21-0.264c-0.059-0.11-0.082-0.263-0.082-0.45V3.268h-2.139V3.77h0.035
	c0.134,0,0.257,0.012,0.374,0.03c0.123,0.017,0.228,0.058,0.316,0.116c0.087,0.059,0.157,0.141,0.21,0.252
	c0.053,0.104,0.082,0.245,0.082,0.421v3.792c0,0.176-0.029,0.315-0.082,0.427c-0.053,0.105-0.123,0.188-0.21,0.24
	c-0.088,0.052-0.193,0.093-0.316,0.11C76.715,9.176,76.592,9.182,76.458,9.182"/>
<path d="M89.731,4.153l-1.698,0.379v0.287l0.941,0.172l-0.953,4.693h0.976l0.711-3.879c0.7-0.643,1.308-0.941,1.698-0.941
	c0.436,0,0.62,0.218,0.62,0.724c0,0.148-0.023,0.401-0.103,0.734l-0.494,2.123c-0.057,0.252-0.092,0.47-0.092,0.619
	c0,0.459,0.276,0.689,0.838,0.689c0.321,0,0.78-0.115,1.377-0.346v-0.32c-0.264,0.068-0.47,0.103-0.631,0.103
	c-0.379,0-0.597-0.195-0.597-0.562c0-0.173,0.058-0.425,0.126-0.758l0.391-1.778c0.091-0.413,0.16-0.734,0.16-1.021
	c0-0.562-0.367-0.918-0.964-0.918c-0.608,0-1.319,0.379-2.226,1.103l0.207-1.103H89.731z"/>
<path d="M97.346,7.963h7.711V7.275h-7.711V7.963z M97.346,5.484h7.711V4.796h-7.711V5.484z"/>
<polygon points="111.973,1.847 109.483,2.593 109.483,3.075 111.286,2.753 111.286,8.927 111.147,9.122 109.827,9.191 
	109.827,9.684 113.671,9.684 113.671,9.202 112.432,9.146 112.293,8.973 112.293,1.847 "/>
<path d="M186.411,5.892c0,0.473-0.018,0.947-0.053,1.408c-0.041,0.462-0.122,0.899-0.245,1.314
	c-0.129,0.415-0.315,0.801-0.555,1.152c-0.24,0.35-0.567,0.647-0.976,0.899v0.55c0.549-0.217,1.017-0.485,1.407-0.795
	c0.393-0.311,0.707-0.685,0.953-1.11c0.245-0.433,0.426-0.929,0.537-1.496c0.117-0.561,0.176-1.204,0.176-1.923
	s-0.059-1.362-0.176-1.917c-0.111-0.562-0.292-1.059-0.537-1.484c-0.246-0.427-0.561-0.795-0.953-1.104
	c-0.391-0.311-0.858-0.578-1.407-0.795v0.538c0.408,0.251,0.735,0.549,0.976,0.899c0.239,0.345,0.426,0.726,0.555,1.141
	c0.123,0.414,0.204,0.853,0.245,1.314C186.393,4.944,186.411,5.419,186.411,5.892 M181.234,9.802c0.357,0,0.66-0.041,0.923-0.117
	c0.264-0.076,0.485-0.175,0.661-0.292c0.175-0.117,0.304-0.246,0.392-0.386c0.088-0.136,0.129-0.264,0.129-0.387
	c0-0.099-0.023-0.187-0.076-0.263l-0.152-0.146c-0.07,0.11-0.158,0.211-0.274,0.31c-0.105,0.099-0.233,0.193-0.381,0.269
	c-0.146,0.076-0.303,0.141-0.479,0.188c-0.181,0.046-0.374,0.07-0.578,0.07c-0.287,0-0.538-0.048-0.754-0.146
	c-0.216-0.094-0.403-0.24-0.55-0.444c-0.151-0.204-0.269-0.462-0.344-0.777c-0.082-0.31-0.13-0.684-0.136-1.122h3.986V6.009
	c0-0.474-0.058-0.889-0.17-1.245c-0.116-0.356-0.28-0.654-0.496-0.895c-0.217-0.239-0.474-0.415-0.783-0.538
	c-0.31-0.121-0.655-0.181-1.041-0.181c-0.847,0-1.502,0.281-1.963,0.848c-0.462,0.566-0.69,1.408-0.69,2.524
	c0,0.521,0.064,0.982,0.193,1.385c0.123,0.409,0.304,0.754,0.543,1.035c0.24,0.28,0.532,0.491,0.877,0.637
	C180.417,9.726,180.802,9.802,181.234,9.802 M181.088,3.794c0.239,0,0.443,0.053,0.607,0.151c0.169,0.1,0.305,0.245,0.403,0.433
	c0.099,0.187,0.175,0.408,0.222,0.672c0.047,0.263,0.07,0.55,0.07,0.864h-2.752c0.041-0.694,0.181-1.221,0.42-1.583
	C180.299,3.975,180.644,3.794,181.088,3.794 M174.917,9.802c0.355,0,0.677-0.041,0.97-0.117c0.286-0.076,0.537-0.199,0.742-0.352
	c0.203-0.162,0.367-0.355,0.479-0.59c0.111-0.233,0.17-0.509,0.17-0.817c0-0.252-0.035-0.469-0.105-0.661s-0.176-0.362-0.321-0.515
	c-0.146-0.151-0.333-0.292-0.562-0.421c-0.228-0.128-0.496-0.257-0.812-0.391c-0.263-0.111-0.491-0.205-0.678-0.292
	c-0.193-0.088-0.346-0.182-0.462-0.275c-0.123-0.094-0.21-0.192-0.264-0.304c-0.053-0.111-0.082-0.245-0.082-0.396
	c0-0.142,0.024-0.27,0.064-0.387c0.041-0.116,0.112-0.216,0.205-0.304c0.088-0.088,0.205-0.152,0.351-0.199
	c0.146-0.046,0.315-0.069,0.521-0.069c0.355,0,0.612,0.11,0.783,0.333c0.163,0.222,0.244,0.531,0.244,0.935
	c0.275,0,0.491-0.064,0.644-0.193c0.146-0.134,0.222-0.309,0.222-0.525c0-0.146-0.035-0.286-0.111-0.42
	c-0.075-0.136-0.187-0.252-0.332-0.352c-0.146-0.099-0.334-0.181-0.55-0.24c-0.216-0.058-0.468-0.087-0.754-0.087
	c-0.339,0-0.648,0.035-0.923,0.111c-0.275,0.076-0.515,0.181-0.713,0.327c-0.199,0.14-0.351,0.315-0.456,0.526
	c-0.111,0.21-0.164,0.449-0.164,0.725c0,0.263,0.035,0.485,0.111,0.678c0.076,0.188,0.187,0.356,0.333,0.502
	c0.146,0.146,0.339,0.287,0.566,0.415c0.229,0.123,0.491,0.257,0.802,0.393c0.285,0.122,0.525,0.233,0.719,0.333
	c0.191,0.099,0.344,0.192,0.455,0.285c0.11,0.095,0.187,0.193,0.233,0.305c0.041,0.104,0.064,0.233,0.064,0.38
	c0,0.158-0.029,0.31-0.087,0.444c-0.06,0.135-0.141,0.245-0.251,0.345c-0.112,0.093-0.252,0.169-0.415,0.222
	c-0.164,0.053-0.352,0.076-0.567,0.076c-0.24,0-0.443-0.041-0.607-0.117c-0.17-0.082-0.305-0.192-0.403-0.327
	c-0.1-0.14-0.176-0.304-0.217-0.484c-0.04-0.182-0.064-0.38-0.064-0.59l-0.233,0.039l-0.245,0.13
	c-0.076,0.063-0.141,0.146-0.193,0.257c-0.053,0.104-0.082,0.239-0.082,0.397c0,0.21,0.047,0.392,0.142,0.556
	c0.093,0.151,0.227,0.285,0.396,0.396c0.169,0.105,0.38,0.188,0.625,0.234C174.344,9.777,174.618,9.802,174.917,9.802
	 M168.881,3.746c0.246,0,0.443,0.035,0.591,0.105c0.14,0.076,0.257,0.176,0.333,0.304c0.076,0.135,0.128,0.287,0.152,0.468
	c0.022,0.182,0.034,0.381,0.034,0.597v0.719l-0.994,0.035c-0.917,0.029-1.601,0.192-2.051,0.502s-0.678,0.778-0.678,1.415
	c0,0.327,0.047,0.606,0.14,0.847c0.095,0.24,0.223,0.438,0.393,0.596c0.163,0.158,0.361,0.275,0.59,0.352
	c0.228,0.076,0.473,0.117,0.736,0.117c0.252,0,0.462-0.03,0.643-0.088c0.176-0.054,0.333-0.135,0.474-0.234
	c0.141-0.099,0.269-0.222,0.386-0.362c0.116-0.14,0.239-0.292,0.362-0.462h0.1l0.187,1.029h1.619V9.182h-0.035
	c-0.135,0-0.246-0.011-0.339-0.041c-0.1-0.029-0.175-0.076-0.234-0.141c-0.058-0.063-0.099-0.151-0.129-0.263
	c-0.028-0.11-0.04-0.245-0.04-0.415V5.22c0-0.38-0.047-0.707-0.135-0.971c-0.093-0.263-0.233-0.474-0.415-0.637
	c-0.181-0.164-0.409-0.281-0.683-0.356c-0.275-0.07-0.591-0.105-0.959-0.105c-0.298,0-0.573,0.023-0.836,0.064
	c-0.264,0.041-0.491,0.11-0.689,0.198c-0.192,0.095-0.351,0.21-0.462,0.357c-0.111,0.146-0.169,0.321-0.169,0.526
	c0,0.273,0.087,0.473,0.257,0.584c0.175,0.11,0.426,0.169,0.759,0.169c0-0.188,0.013-0.362,0.041-0.521
	c0.03-0.157,0.082-0.298,0.164-0.415c0.076-0.116,0.188-0.21,0.333-0.273C168.466,3.775,168.653,3.746,168.881,3.746 M167.432,7.948
	c0-0.233,0.029-0.438,0.088-0.619c0.064-0.182,0.163-0.327,0.304-0.449c0.141-0.13,0.327-0.223,0.549-0.293
	c0.234-0.064,0.515-0.105,0.854-0.122l0.766-0.035v0.97c0,0.251-0.034,0.485-0.11,0.689c-0.076,0.205-0.183,0.38-0.316,0.525
	c-0.14,0.146-0.31,0.257-0.503,0.333c-0.198,0.076-0.42,0.117-0.66,0.117c-0.333,0-0.573-0.093-0.729-0.28
	C167.514,8.604,167.432,8.322,167.432,7.948 M162.858,1.018c-0.631,0-1.186,0.104-1.665,0.321s-0.883,0.515-1.198,0.899
	c-0.327,0.386-0.566,0.849-0.73,1.385c-0.164,0.538-0.245,1.129-0.245,1.777c0,0.66,0.076,1.257,0.233,1.8
	c0.157,0.544,0.386,1.005,0.695,1.392c0.305,0.386,0.685,0.684,1.135,0.894c0.449,0.211,0.976,0.316,1.571,0.316
	c0.444,0,0.83-0.041,1.151-0.129c0.321-0.082,0.59-0.188,0.801-0.315c0.21-0.129,0.368-0.269,0.467-0.433
	c0.105-0.152,0.158-0.311,0.158-0.462c0-0.122-0.023-0.217-0.063-0.292l-0.164-0.176c-0.1,0.135-0.217,0.258-0.352,0.38
	c-0.128,0.122-0.28,0.234-0.45,0.327c-0.169,0.095-0.367,0.169-0.59,0.223c-0.228,0.059-0.484,0.088-0.776,0.088
	c-0.438,0-0.818-0.088-1.128-0.264c-0.316-0.176-0.573-0.421-0.777-0.741c-0.205-0.316-0.352-0.696-0.444-1.141
	c-0.094-0.443-0.141-0.935-0.141-1.467c0-0.602,0.047-1.134,0.135-1.601c0.087-0.462,0.233-0.854,0.432-1.176
	c0.199-0.314,0.456-0.555,0.772-0.725c0.314-0.163,0.701-0.245,1.151-0.245c0.263,0,0.479,0.047,0.659,0.134
	c0.177,0.095,0.322,0.211,0.434,0.357c0.11,0.146,0.187,0.316,0.239,0.497c0.047,0.181,0.069,0.368,0.069,0.555
	c0.147,0,0.287-0.018,0.415-0.059c0.123-0.04,0.234-0.093,0.328-0.163c0.093-0.076,0.169-0.164,0.222-0.263
	c0.053-0.105,0.076-0.223,0.076-0.352c0-0.192-0.047-0.368-0.146-0.532c-0.101-0.163-0.252-0.304-0.45-0.426
	c-0.205-0.123-0.456-0.217-0.754-0.281C163.624,1.053,163.267,1.018,162.858,1.018 M152.265,9.802c0.355,0,0.66-0.041,0.923-0.117
	s0.485-0.175,0.66-0.292c0.176-0.117,0.304-0.246,0.392-0.386c0.088-0.136,0.128-0.264,0.128-0.387c0-0.099-0.022-0.187-0.074-0.263
	l-0.152-0.146c-0.071,0.11-0.158,0.211-0.275,0.31c-0.104,0.099-0.233,0.193-0.38,0.269c-0.146,0.076-0.304,0.141-0.479,0.188
	c-0.182,0.046-0.374,0.07-0.579,0.07c-0.286,0-0.537-0.048-0.754-0.146c-0.217-0.094-0.403-0.24-0.549-0.444
	c-0.152-0.204-0.27-0.462-0.346-0.777c-0.082-0.31-0.128-0.684-0.134-1.122h3.985V6.009c0-0.474-0.059-0.889-0.169-1.245
	c-0.117-0.356-0.281-0.654-0.497-0.895c-0.217-0.239-0.474-0.415-0.783-0.538c-0.311-0.121-0.654-0.181-1.04-0.181
	c-0.848,0-1.502,0.281-1.964,0.848c-0.461,0.566-0.689,1.408-0.689,2.524c0,0.521,0.064,0.982,0.193,1.385
	c0.122,0.409,0.303,0.754,0.543,1.035c0.24,0.28,0.532,0.491,0.877,0.637C151.446,9.726,151.833,9.802,152.265,9.802 M152.118,3.794
	c0.24,0,0.445,0.053,0.608,0.151c0.17,0.1,0.304,0.245,0.404,0.433c0.099,0.187,0.175,0.408,0.222,0.672
	c0.046,0.263,0.07,0.55,0.07,0.864h-2.753c0.041-0.694,0.181-1.221,0.421-1.583C151.33,3.975,151.674,3.794,152.118,3.794
	 M145.947,9.802c0.357,0,0.679-0.041,0.971-0.117c0.286-0.076,0.537-0.199,0.741-0.352c0.205-0.162,0.369-0.355,0.48-0.59
	c0.111-0.233,0.169-0.509,0.169-0.817c0-0.252-0.035-0.469-0.105-0.661c-0.069-0.192-0.175-0.362-0.321-0.515
	c-0.146-0.151-0.333-0.292-0.562-0.421c-0.227-0.128-0.496-0.257-0.812-0.391c-0.264-0.111-0.491-0.205-0.679-0.292
	c-0.192-0.088-0.345-0.182-0.461-0.275c-0.123-0.094-0.211-0.192-0.263-0.304c-0.053-0.111-0.082-0.245-0.082-0.396
	c0-0.142,0.023-0.27,0.064-0.387c0.041-0.116,0.11-0.216,0.205-0.304c0.087-0.088,0.203-0.152,0.35-0.199
	c0.146-0.046,0.316-0.069,0.52-0.069c0.357,0,0.614,0.11,0.783,0.333c0.164,0.222,0.246,0.531,0.246,0.935
	c0.275,0,0.491-0.064,0.644-0.193c0.146-0.134,0.222-0.309,0.222-0.525c0-0.146-0.035-0.286-0.111-0.42
	c-0.076-0.136-0.187-0.252-0.333-0.352c-0.146-0.099-0.333-0.181-0.55-0.24c-0.216-0.058-0.467-0.087-0.754-0.087
	c-0.339,0-0.648,0.035-0.923,0.111c-0.275,0.076-0.515,0.181-0.713,0.327c-0.199,0.14-0.352,0.315-0.456,0.526
	c-0.111,0.21-0.163,0.449-0.163,0.725c0,0.263,0.035,0.485,0.11,0.678c0.076,0.188,0.188,0.356,0.333,0.502
	c0.146,0.146,0.34,0.287,0.567,0.415c0.229,0.123,0.491,0.257,0.8,0.393c0.287,0.122,0.526,0.233,0.72,0.333
	c0.192,0.099,0.345,0.192,0.455,0.285c0.111,0.095,0.188,0.193,0.234,0.305c0.041,0.104,0.064,0.233,0.064,0.38
	c0,0.158-0.029,0.31-0.088,0.444s-0.141,0.245-0.252,0.345c-0.11,0.093-0.251,0.169-0.414,0.222
	c-0.164,0.053-0.352,0.076-0.567,0.076c-0.239,0-0.444-0.041-0.608-0.117c-0.169-0.082-0.303-0.192-0.402-0.327
	c-0.1-0.14-0.176-0.304-0.217-0.484c-0.041-0.182-0.063-0.38-0.063-0.59l-0.234,0.039l-0.246,0.13
	c-0.075,0.063-0.14,0.146-0.191,0.257c-0.053,0.104-0.082,0.239-0.082,0.397c0,0.21,0.047,0.392,0.14,0.556
	c0.094,0.151,0.229,0.285,0.397,0.396c0.17,0.105,0.38,0.188,0.626,0.234C145.374,9.777,145.649,9.802,145.947,9.802 M139.912,3.746
	c0.245,0,0.444,0.035,0.591,0.105c0.14,0.076,0.257,0.176,0.333,0.304c0.075,0.135,0.129,0.287,0.151,0.468
	c0.024,0.182,0.035,0.381,0.035,0.597v0.719l-0.993,0.035c-0.918,0.029-1.602,0.192-2.052,0.502S137.3,7.254,137.3,7.891
	c0,0.327,0.046,0.606,0.14,0.847c0.093,0.24,0.222,0.438,0.391,0.596c0.164,0.158,0.363,0.275,0.592,0.352
	c0.228,0.076,0.473,0.117,0.735,0.117c0.251,0,0.462-0.03,0.644-0.088c0.175-0.054,0.333-0.135,0.473-0.234
	c0.14-0.099,0.27-0.222,0.386-0.362c0.117-0.14,0.24-0.292,0.362-0.462h0.1l0.188,1.029h1.618V9.182h-0.035
	c-0.134,0-0.245-0.011-0.339-0.041c-0.1-0.029-0.175-0.076-0.233-0.141c-0.059-0.063-0.1-0.151-0.129-0.263
	c-0.029-0.11-0.041-0.245-0.041-0.415V5.22c0-0.38-0.047-0.707-0.134-0.971c-0.094-0.263-0.234-0.474-0.415-0.637
	c-0.181-0.164-0.409-0.281-0.684-0.356c-0.275-0.07-0.591-0.105-0.958-0.105c-0.299,0-0.573,0.023-0.837,0.064
	c-0.263,0.041-0.49,0.11-0.689,0.198c-0.193,0.095-0.351,0.21-0.461,0.357c-0.111,0.146-0.17,0.321-0.17,0.526
	c0,0.273,0.088,0.473,0.257,0.584c0.176,0.11,0.427,0.169,0.76,0.169c0-0.188,0.012-0.362,0.041-0.521
	c0.029-0.157,0.082-0.298,0.164-0.415c0.076-0.116,0.188-0.21,0.333-0.273C139.497,3.775,139.684,3.746,139.912,3.746
	 M138.462,7.948c0-0.233,0.029-0.438,0.088-0.619c0.063-0.182,0.164-0.327,0.304-0.449c0.14-0.13,0.327-0.223,0.549-0.293
	c0.234-0.064,0.516-0.105,0.854-0.122l0.765-0.035v0.97c0,0.251-0.035,0.485-0.111,0.689c-0.075,0.205-0.181,0.38-0.314,0.525
	c-0.142,0.146-0.311,0.257-0.503,0.333c-0.199,0.076-0.421,0.117-0.66,0.117c-0.333,0-0.573-0.093-0.731-0.28
	C138.544,8.604,138.462,8.322,138.462,7.948 M131.687,4.909V1.736h0.8c0.339,0,0.626,0.023,0.859,0.076
	c0.24,0.052,0.433,0.134,0.579,0.257c0.146,0.123,0.257,0.28,0.32,0.474c0.065,0.198,0.101,0.443,0.101,0.736
	c0,0.286-0.029,0.537-0.094,0.742c-0.059,0.204-0.158,0.374-0.299,0.502c-0.14,0.135-0.326,0.229-0.561,0.293
	s-0.526,0.093-0.876,0.093H131.687z M131.687,9.089V5.506h1.186c0.352,0,0.644,0.034,0.878,0.11c0.232,0.076,0.42,0.188,0.561,0.339
	c0.146,0.152,0.245,0.346,0.304,0.573c0.059,0.229,0.087,0.503,0.087,0.813c0,0.321-0.034,0.591-0.099,0.813
	s-0.175,0.403-0.322,0.537c-0.146,0.141-0.338,0.24-0.571,0.304c-0.234,0.065-0.521,0.095-0.859,0.095H131.687z M135.626,3.279
	c0-0.736-0.253-1.273-0.761-1.625c-0.509-0.339-1.279-0.514-2.313-0.514h-3.209v0.502h0.151c0.136,0,0.258,0.012,0.374,0.023
	c0.123,0.023,0.229,0.059,0.316,0.117c0.087,0.059,0.158,0.141,0.21,0.245c0.053,0.111,0.082,0.251,0.082,0.427v5.867
	c0,0.188-0.023,0.339-0.076,0.45s-0.123,0.199-0.21,0.257c-0.088,0.065-0.193,0.105-0.31,0.123
	c-0.123,0.019-0.251,0.029-0.387,0.029h-0.151v0.503h3.564c1.035,0,1.807-0.193,2.314-0.579c0.509-0.38,0.76-0.958,0.76-1.73
	c0-0.314-0.047-0.596-0.134-0.847c-0.088-0.245-0.217-0.462-0.38-0.643c-0.158-0.182-0.352-0.327-0.579-0.438
	c-0.229-0.11-0.473-0.192-0.748-0.24V5.16c0.211-0.069,0.403-0.156,0.585-0.262c0.181-0.1,0.339-0.228,0.473-0.38
	s0.234-0.328,0.311-0.532C135.585,3.781,135.626,3.549,135.626,3.279 M126.677,5.892c0-0.473,0.018-0.947,0.058-1.408
	c0.036-0.462,0.117-0.9,0.24-1.314c0.123-0.415,0.31-0.796,0.549-1.141c0.246-0.351,0.573-0.648,0.982-0.899V0.591
	c-0.549,0.217-1.018,0.479-1.408,0.795c-0.393,0.304-0.707,0.678-0.959,1.104c-0.245,0.426-0.426,0.923-0.537,1.479
	c-0.111,0.561-0.17,1.204-0.17,1.923s0.059,1.362,0.17,1.923c0.111,0.567,0.292,1.063,0.537,1.49
	c0.252,0.432,0.566,0.806,0.959,1.116c0.391,0.31,0.859,0.578,1.408,0.795v-0.55c-0.409-0.252-0.736-0.55-0.982-0.899
	c-0.239-0.352-0.426-0.737-0.549-1.152s-0.204-0.853-0.24-1.314C126.695,6.839,126.677,6.364,126.677,5.892"/>
<path d="M40.282,23.492c0-4.303,1.033-6.586,2.536-6.839v-0.574c-2.088,0.265-3.534,2.767-3.534,7.413
	c0,4.647,1.446,7.149,3.534,7.413v-0.574C41.315,30.078,40.282,27.795,40.282,23.492"/>
<path d="M47.408,21.952l0.459,0.699l-0.597,3.03c-0.47,0.505-0.918,0.757-1.354,0.757c-0.665,0-0.998-0.459-0.998-1.377
	c0-1.824,0.987-3.109,2.329-3.109H47.408z M48.475,21.505l-0.229,0.252c-0.356-0.172-0.712-0.252-1.033-0.252
	c-1.136,0-2.066,0.539-2.651,1.503c-0.39,0.643-0.597,1.354-0.597,2.123c0,1.262,0.609,2.008,1.584,2.008
	c0.551,0,1.102-0.321,1.71-0.964v0.092c0,0.585,0.218,0.872,0.7,0.872c0.309,0,0.78-0.139,1.411-0.402v-0.344
	c-0.31,0.069-0.516,0.115-0.643,0.115c-0.424,0-0.619-0.161-0.619-0.528c0-0.161,0.034-0.424,0.115-0.803l0.413-2.031
	c0.172-0.849,0.321-1.4,0.436-1.641H48.475z"/>
<path d="M52.461,16.14l-0.849,0.189v0.144l0.47,0.086l-0.476,2.347h0.488l0.356-1.939c0.35-0.321,0.654-0.47,0.849-0.47
	c0.218,0,0.309,0.108,0.309,0.36c0,0.075-0.011,0.201-0.051,0.367l-0.247,1.063c-0.029,0.126-0.046,0.234-0.046,0.31
	c0,0.229,0.138,0.344,0.419,0.344c0.161,0,0.39-0.058,0.689-0.172v-0.161c-0.132,0.034-0.236,0.053-0.316,0.053
	c-0.189,0-0.298-0.099-0.298-0.281c0-0.087,0.028-0.213,0.063-0.379l0.195-0.889c0.046-0.207,0.08-0.368,0.08-0.512
	c0-0.28-0.183-0.459-0.482-0.459c-0.304,0-0.66,0.189-1.113,0.551l0.103-0.551H52.461z"/>
<line style="fill:none;stroke:#000000;stroke-width:0.459;stroke-miterlimit:10;" x1="51.279" y1="20.244" x2="54.613" y2="20.244"/>
<path d="M52.16,24.542c1.268-1.01,1.962-1.658,1.962-2.381c0-0.648-0.453-1.084-1.193-1.084c-0.712,0-1.217,0.407-1.217,0.809
	c0,0.195,0.121,0.321,0.322,0.321c0.092,0,0.178-0.029,0.258-0.086v-0.614c0.172-0.098,0.338-0.138,0.511-0.138
	c0.476,0,0.763,0.322,0.763,0.867c0,0.751-0.718,1.377-1.974,2.397v0.361h2.656v-0.941H53.99l-0.103,0.488H52.16z"/>
<path d="M59.485,23.492c0,4.303-1.033,6.586-2.536,6.839v0.574c2.088-0.264,3.534-2.766,3.534-7.413
	c0-4.646-1.446-7.148-3.534-7.413v0.574C58.452,16.906,59.485,19.189,59.485,23.492"/>
<path d="M62.389,18.666c1.689-1.345,2.614-2.209,2.614-3.173c0-0.862-0.603-1.443-1.59-1.443c-0.948,0-1.62,0.542-1.62,1.077
	c0,0.26,0.16,0.429,0.428,0.429c0.122,0,0.237-0.039,0.344-0.115v-0.818c0.229-0.13,0.451-0.183,0.68-0.183
	c0.635,0,1.017,0.428,1.017,1.154c0,1.001-0.956,1.835-2.63,3.194v0.482h3.54v-1.254h-0.344l-0.138,0.649H62.389z"/>
<path d="M83.869,26.532h-0.455c-0.135,0-0.258-0.012-0.38-0.028c-0.123-0.019-0.222-0.06-0.31-0.117
	c-0.094-0.064-0.164-0.152-0.21-0.263c-0.059-0.111-0.082-0.264-0.082-0.45v-4.488h1.689v-0.566h-1.689v-0.707
	c0-0.252,0.011-0.475,0.047-0.667c0.023-0.192,0.075-0.351,0.146-0.479c0.07-0.134,0.163-0.234,0.274-0.298
	c0.117-0.064,0.263-0.099,0.433-0.099c0.152,0,0.28,0.028,0.38,0.082c0.099,0.052,0.181,0.128,0.239,0.216
	c0.065,0.087,0.105,0.192,0.129,0.31c0.029,0.111,0.041,0.228,0.041,0.351c0.146,0,0.274-0.012,0.391-0.041
	c0.123-0.029,0.222-0.076,0.31-0.129l0.205-0.211c0.052-0.087,0.076-0.181,0.076-0.292c0-0.123-0.03-0.238-0.088-0.339
	c-0.059-0.099-0.152-0.187-0.287-0.263c-0.128-0.076-0.298-0.128-0.514-0.169c-0.216-0.041-0.479-0.065-0.789-0.065
	c-0.327,0-0.619,0.047-0.882,0.147c-0.263,0.093-0.485,0.232-0.666,0.42c-0.182,0.187-0.322,0.415-0.421,0.69
	c-0.1,0.274-0.146,0.59-0.146,0.946v0.597h-1.093v0.566h1.093v4.488c0,0.187-0.03,0.339-0.082,0.45
	c-0.053,0.11-0.123,0.198-0.211,0.263c-0.087,0.058-0.187,0.099-0.309,0.117c-0.117,0.017-0.246,0.028-0.38,0.028H80.17v0.504h3.699
	V26.532z M77.27,18.679c0,0.14,0.018,0.257,0.053,0.35c0.035,0.095,0.082,0.17,0.146,0.229l0.216,0.129
	c0.082,0.022,0.17,0.035,0.269,0.035c0.094,0,0.181-0.013,0.263-0.035l0.216-0.129c0.059-0.059,0.106-0.134,0.141-0.229
	c0.04-0.093,0.058-0.21,0.058-0.35c0-0.141-0.018-0.258-0.058-0.351c-0.035-0.095-0.082-0.171-0.147-0.229l-0.21-0.123
	c-0.082-0.022-0.169-0.035-0.263-0.035c-0.099,0-0.187,0.013-0.269,0.035L77.469,18.1c-0.064,0.058-0.111,0.134-0.146,0.229
	C77.288,18.421,77.27,18.538,77.27,18.679 M76.458,26.532H76.3v0.504h3.401v-0.504h-0.157c-0.135,0-0.257-0.012-0.38-0.028
	c-0.123-0.019-0.222-0.06-0.31-0.117c-0.093-0.064-0.164-0.152-0.21-0.263c-0.059-0.111-0.082-0.264-0.082-0.45v-5.055h-2.139v0.502
	h0.035c0.134,0,0.257,0.012,0.374,0.029c0.123,0.018,0.228,0.059,0.316,0.116c0.087,0.06,0.157,0.141,0.21,0.252
	c0.053,0.105,0.082,0.245,0.082,0.421v3.792c0,0.176-0.029,0.316-0.082,0.427c-0.053,0.105-0.123,0.188-0.21,0.24
	c-0.088,0.053-0.193,0.094-0.316,0.111C76.715,26.526,76.592,26.532,76.458,26.532"/>
<path d="M89.73,21.505l-1.698,0.379v0.287l0.941,0.172l-0.953,4.692h0.976l0.711-3.879c0.7-0.642,1.308-0.94,1.698-0.94
	c0.436,0,0.62,0.218,0.62,0.723c0,0.149-0.023,0.402-0.103,0.735l-0.494,2.123c-0.057,0.252-0.092,0.47-0.092,0.618
	c0,0.459,0.276,0.689,0.838,0.689c0.321,0,0.78-0.115,1.377-0.345v-0.321c-0.264,0.069-0.47,0.103-0.631,0.103
	c-0.379,0-0.597-0.194-0.597-0.562c0-0.172,0.058-0.424,0.126-0.757l0.391-1.779C92.932,23.03,93,22.71,93,22.423
	c0-0.563-0.367-0.918-0.964-0.918c-0.608,0-1.319,0.379-2.226,1.102l0.207-1.102H89.73z"/>
<polygon points="97.346,21.184 103.496,23.73 97.346,26.278 97.346,27.024 104.736,23.96 104.736,23.501 97.346,20.438 "/>
<polygon points="111.973,19.198 109.483,19.944 109.483,20.426 111.286,20.104 111.286,26.278 111.147,26.473 109.827,26.542 
	109.827,27.035 113.671,27.035 113.671,26.553 112.432,26.496 112.294,26.324 112.294,19.198 "/>
<path d="M215.957,23.242c0,0.474-0.019,0.947-0.054,1.408c-0.041,0.462-0.123,0.9-0.246,1.315c-0.128,0.415-0.314,0.801-0.555,1.151
	c-0.239,0.351-0.566,0.648-0.976,0.9v0.549c0.55-0.216,1.017-0.485,1.409-0.795c0.391-0.31,0.706-0.684,0.951-1.11
	c0.246-0.433,0.428-0.929,0.538-1.496c0.117-0.561,0.175-1.203,0.175-1.923c0-0.719-0.058-1.361-0.175-1.917
	c-0.11-0.561-0.292-1.058-0.538-1.483c-0.245-0.428-0.561-0.795-0.951-1.105c-0.393-0.31-0.859-0.578-1.409-0.795v0.538
	c0.409,0.251,0.736,0.549,0.976,0.9c0.24,0.345,0.427,0.725,0.555,1.14c0.123,0.415,0.205,0.853,0.246,1.315
	C215.938,22.296,215.957,22.77,215.957,23.242 M210.779,27.152c0.356,0,0.66-0.041,0.923-0.117c0.264-0.075,0.485-0.175,0.66-0.292
	c0.177-0.116,0.305-0.246,0.393-0.386c0.088-0.135,0.129-0.263,0.129-0.386c0-0.1-0.024-0.188-0.076-0.264l-0.152-0.146
	c-0.07,0.111-0.157,0.211-0.274,0.31c-0.105,0.1-0.234,0.193-0.38,0.27c-0.146,0.076-0.305,0.14-0.479,0.187
	c-0.181,0.046-0.374,0.07-0.579,0.07c-0.286,0-0.537-0.047-0.754-0.146c-0.216-0.095-0.402-0.24-0.549-0.444
	c-0.152-0.205-0.269-0.462-0.345-0.778c-0.082-0.309-0.128-0.683-0.134-1.122h3.984v-0.549c0-0.473-0.058-0.888-0.169-1.245
	c-0.117-0.355-0.281-0.653-0.497-0.894s-0.473-0.415-0.783-0.538c-0.31-0.122-0.653-0.181-1.04-0.181
	c-0.847,0-1.502,0.28-1.964,0.848c-0.461,0.565-0.688,1.408-0.688,2.523c0,0.521,0.063,0.982,0.192,1.386
	c0.122,0.409,0.304,0.754,0.543,1.035c0.24,0.279,0.532,0.49,0.877,0.637C209.96,27.076,210.346,27.152,210.779,27.152
	 M210.633,21.145c0.239,0,0.443,0.053,0.606,0.152c0.171,0.099,0.305,0.244,0.404,0.432c0.099,0.187,0.175,0.409,0.222,0.672
	s0.07,0.55,0.07,0.865h-2.753c0.041-0.695,0.181-1.221,0.421-1.583C209.844,21.325,210.188,21.145,210.633,21.145 M204.461,27.152
	c0.356,0,0.678-0.041,0.97-0.117c0.287-0.075,0.538-0.198,0.742-0.351c0.205-0.163,0.369-0.356,0.479-0.59
	c0.111-0.234,0.169-0.509,0.169-0.818c0-0.252-0.034-0.468-0.104-0.661c-0.07-0.191-0.175-0.361-0.321-0.514
	s-0.334-0.292-0.561-0.421c-0.229-0.128-0.497-0.257-0.813-0.392c-0.263-0.11-0.491-0.204-0.678-0.292
	c-0.193-0.088-0.345-0.182-0.461-0.274c-0.123-0.094-0.211-0.193-0.263-0.304c-0.054-0.111-0.082-0.245-0.082-0.397
	c0-0.141,0.022-0.269,0.063-0.386s0.111-0.216,0.205-0.305c0.087-0.088,0.204-0.151,0.35-0.198c0.146-0.046,0.316-0.07,0.521-0.07
	c0.356,0,0.614,0.111,0.783,0.333c0.164,0.222,0.246,0.532,0.246,0.935c0.274,0,0.49-0.063,0.643-0.192
	c0.146-0.134,0.222-0.31,0.222-0.526c0-0.146-0.035-0.286-0.11-0.42c-0.076-0.135-0.188-0.252-0.333-0.351
	c-0.146-0.1-0.333-0.182-0.551-0.24c-0.216-0.058-0.467-0.087-0.754-0.087c-0.339,0-0.647,0.035-0.923,0.11
	c-0.274,0.076-0.514,0.182-0.713,0.327c-0.199,0.141-0.351,0.316-0.456,0.526c-0.11,0.21-0.163,0.45-0.163,0.725
	c0,0.264,0.035,0.485,0.111,0.679c0.076,0.187,0.187,0.355,0.333,0.502c0.146,0.146,0.339,0.287,0.567,0.415
	c0.228,0.123,0.49,0.257,0.8,0.392c0.287,0.122,0.525,0.234,0.719,0.333s0.345,0.193,0.456,0.286
	c0.111,0.094,0.187,0.193,0.234,0.304c0.041,0.105,0.063,0.234,0.063,0.38c0,0.158-0.029,0.311-0.088,0.444
	c-0.058,0.135-0.14,0.246-0.251,0.345c-0.111,0.093-0.251,0.169-0.415,0.223c-0.164,0.053-0.351,0.075-0.567,0.075
	c-0.238,0-0.443-0.041-0.607-0.116c-0.169-0.082-0.303-0.193-0.403-0.327c-0.099-0.141-0.175-0.305-0.216-0.485
	s-0.064-0.38-0.064-0.59l-0.233,0.04l-0.246,0.129c-0.075,0.064-0.14,0.146-0.192,0.257c-0.053,0.105-0.082,0.24-0.082,0.398
	c0,0.21,0.047,0.391,0.141,0.555c0.094,0.152,0.228,0.286,0.396,0.397c0.17,0.104,0.38,0.187,0.626,0.233
	C203.888,27.129,204.164,27.152,204.461,27.152 M198.426,21.098c0.245,0,0.444,0.035,0.59,0.104c0.14,0.076,0.257,0.177,0.333,0.305
	c0.076,0.135,0.129,0.287,0.152,0.468s0.034,0.38,0.034,0.596v0.719l-0.992,0.035c-0.918,0.029-1.603,0.193-2.053,0.502
	c-0.449,0.311-0.677,0.778-0.677,1.415c0,0.327,0.046,0.607,0.141,0.848c0.093,0.239,0.222,0.438,0.391,0.596
	c0.164,0.158,0.363,0.275,0.591,0.351c0.229,0.076,0.473,0.117,0.736,0.117c0.251,0,0.462-0.03,0.643-0.088
	c0.175-0.053,0.333-0.134,0.474-0.234c0.14-0.099,0.269-0.222,0.386-0.361c0.117-0.141,0.24-0.292,0.361-0.462h0.101l0.187,1.028
	h1.618v-0.503h-0.035c-0.134,0-0.245-0.011-0.339-0.041c-0.099-0.028-0.175-0.076-0.232-0.14c-0.06-0.064-0.101-0.152-0.129-0.263
	c-0.029-0.111-0.041-0.245-0.041-0.415V22.57c0-0.38-0.048-0.707-0.135-0.97c-0.094-0.263-0.233-0.474-0.415-0.637
	c-0.181-0.164-0.408-0.281-0.684-0.357c-0.275-0.07-0.59-0.104-0.958-0.104c-0.298,0-0.573,0.022-0.836,0.063
	s-0.491,0.111-0.69,0.199c-0.192,0.094-0.35,0.21-0.461,0.356c-0.11,0.146-0.17,0.321-0.17,0.526c0,0.274,0.088,0.473,0.257,0.584
	c0.177,0.111,0.428,0.169,0.761,0.169c0-0.187,0.012-0.362,0.041-0.52c0.028-0.157,0.082-0.299,0.164-0.415
	c0.075-0.116,0.187-0.21,0.333-0.274C198.011,21.127,198.198,21.098,198.426,21.098 M196.977,25.3c0-0.234,0.029-0.438,0.087-0.619
	c0.064-0.183,0.164-0.328,0.304-0.45c0.141-0.129,0.327-0.222,0.55-0.293c0.233-0.064,0.515-0.105,0.854-0.122l0.765-0.035v0.97
	c0,0.252-0.034,0.485-0.11,0.689c-0.076,0.205-0.181,0.38-0.315,0.526c-0.141,0.146-0.31,0.257-0.503,0.333
	c-0.199,0.075-0.421,0.116-0.66,0.116c-0.333,0-0.572-0.093-0.73-0.279C197.058,25.954,196.977,25.674,196.977,25.3 M192.403,18.368
	c-0.631,0-1.187,0.105-1.666,0.321c-0.479,0.217-0.882,0.515-1.197,0.9c-0.327,0.386-0.567,0.848-0.73,1.385
	c-0.164,0.538-0.246,1.128-0.246,1.777c0,0.659,0.076,1.257,0.234,1.8c0.158,0.544,0.386,1.005,0.694,1.391
	c0.305,0.386,0.685,0.685,1.135,0.895c0.449,0.211,0.976,0.315,1.571,0.315c0.444,0,0.83-0.041,1.152-0.129
	c0.321-0.082,0.59-0.187,0.8-0.315c0.211-0.129,0.368-0.269,0.468-0.433c0.105-0.152,0.158-0.31,0.158-0.462
	c0-0.122-0.023-0.216-0.064-0.292l-0.163-0.175c-0.101,0.134-0.217,0.257-0.352,0.38c-0.129,0.122-0.28,0.234-0.449,0.327
	c-0.171,0.094-0.368,0.169-0.591,0.222c-0.228,0.06-0.484,0.088-0.777,0.088c-0.438,0-0.818-0.088-1.127-0.263
	c-0.316-0.176-0.573-0.421-0.778-0.742c-0.204-0.315-0.35-0.696-0.444-1.14c-0.093-0.444-0.14-0.936-0.14-1.467
	c0-0.603,0.047-1.135,0.134-1.602c0.088-0.462,0.234-0.853,0.434-1.175c0.197-0.315,0.456-0.555,0.771-0.726
	c0.316-0.162,0.701-0.244,1.151-0.244c0.263,0,0.479,0.047,0.661,0.134c0.175,0.094,0.32,0.211,0.432,0.356
	c0.111,0.146,0.187,0.316,0.24,0.497c0.047,0.182,0.069,0.368,0.069,0.556c0.146,0,0.286-0.019,0.415-0.06
	c0.123-0.04,0.234-0.093,0.327-0.163c0.094-0.076,0.17-0.164,0.223-0.263c0.053-0.105,0.075-0.222,0.075-0.351
	c0-0.193-0.046-0.368-0.146-0.532c-0.1-0.163-0.251-0.304-0.45-0.426c-0.204-0.123-0.456-0.218-0.754-0.281
	C193.168,18.403,192.812,18.368,192.403,18.368 M181.809,27.152c0.357,0,0.661-0.041,0.924-0.117
	c0.264-0.075,0.485-0.175,0.66-0.292c0.175-0.116,0.304-0.246,0.391-0.386c0.089-0.135,0.13-0.263,0.13-0.386
	c0-0.1-0.023-0.188-0.076-0.264l-0.152-0.146c-0.07,0.111-0.158,0.211-0.274,0.31c-0.105,0.1-0.233,0.193-0.38,0.27
	s-0.304,0.14-0.479,0.187c-0.181,0.046-0.374,0.07-0.578,0.07c-0.287,0-0.538-0.047-0.754-0.146
	c-0.216-0.095-0.403-0.24-0.549-0.444c-0.152-0.205-0.27-0.462-0.346-0.778c-0.082-0.309-0.129-0.683-0.135-1.122h3.986v-0.549
	c0-0.473-0.059-0.888-0.169-1.245c-0.117-0.355-0.281-0.653-0.497-0.894s-0.475-0.415-0.783-0.538
	c-0.31-0.122-0.655-0.181-1.041-0.181c-0.847,0-1.501,0.28-1.963,0.848c-0.462,0.565-0.69,1.408-0.69,2.523
	c0,0.521,0.065,0.982,0.193,1.386c0.123,0.409,0.304,0.754,0.544,1.035c0.239,0.279,0.531,0.49,0.876,0.637
	C180.991,27.076,181.377,27.152,181.809,27.152 M181.664,21.145c0.239,0,0.443,0.053,0.607,0.152
	c0.169,0.099,0.304,0.244,0.403,0.432c0.099,0.187,0.175,0.409,0.222,0.672s0.07,0.55,0.07,0.865h-2.752
	c0.041-0.695,0.181-1.221,0.42-1.583C180.875,21.325,181.219,21.145,181.664,21.145 M171.497,21.121h0.034
	c0.117,0,0.218,0.012,0.305,0.029l0.228,0.099l0.176,0.199c0.053,0.082,0.1,0.188,0.146,0.311l1.922,5.276h1.093l1.889-4.979
	c0.075-0.193,0.14-0.345,0.203-0.468c0.06-0.123,0.123-0.217,0.188-0.286l0.222-0.146c0.081-0.023,0.182-0.035,0.298-0.035h0.146
	v-0.503h-2.566v0.503h0.088c0.264,0,0.462,0.047,0.591,0.141c0.134,0.093,0.198,0.245,0.198,0.45l-0.028,0.233
	c-0.013,0.087-0.041,0.182-0.082,0.28l-0.859,2.332c-0.053,0.146-0.111,0.292-0.17,0.45c-0.063,0.157-0.123,0.31-0.175,0.456
	c-0.06,0.151-0.111,0.292-0.152,0.415c-0.047,0.128-0.082,0.232-0.099,0.32h-0.041c-0.019-0.099-0.041-0.228-0.082-0.368
	c-0.041-0.151-0.082-0.304-0.129-0.468c-0.052-0.163-0.105-0.327-0.158-0.502c-0.052-0.164-0.105-0.322-0.157-0.462l-0.813-2.262
	l-0.07-0.233l-0.023-0.205c0-0.199,0.059-0.345,0.182-0.438c0.117-0.094,0.298-0.141,0.538-0.141h0.151v-0.503h-2.992V21.121z
	 M168.872,18.679c0,0.14,0.018,0.257,0.053,0.35c0.035,0.094,0.082,0.17,0.146,0.229l0.216,0.129
	c0.082,0.022,0.171,0.035,0.27,0.035c0.094,0,0.181-0.013,0.263-0.035l0.216-0.129c0.06-0.059,0.105-0.135,0.142-0.229
	c0.04-0.093,0.058-0.21,0.058-0.35c0-0.142-0.018-0.257-0.058-0.352c-0.036-0.093-0.082-0.169-0.147-0.228l-0.21-0.123
	c-0.082-0.023-0.169-0.035-0.263-0.035c-0.099,0-0.188,0.012-0.27,0.035L169.07,18.1c-0.063,0.059-0.11,0.135-0.146,0.228
	C168.889,18.422,168.872,18.537,168.872,18.679 M168.059,26.532h-0.158v0.503h3.401v-0.503h-0.157c-0.135,0-0.257-0.011-0.38-0.028
	c-0.123-0.019-0.222-0.059-0.31-0.117c-0.094-0.064-0.164-0.152-0.21-0.264c-0.06-0.11-0.082-0.263-0.082-0.449v-5.056h-2.14v0.503
	h0.035c0.134,0,0.257,0.012,0.374,0.029c0.123,0.018,0.228,0.058,0.316,0.117c0.087,0.058,0.156,0.14,0.21,0.251
	c0.053,0.104,0.082,0.245,0.082,0.421v3.793c0,0.175-0.029,0.315-0.082,0.426c-0.054,0.105-0.123,0.188-0.21,0.24
	c-0.089,0.052-0.193,0.093-0.316,0.111C168.316,26.526,168.193,26.532,168.059,26.532 M164.746,27.152
	c0.356,0,0.678-0.041,0.971-0.117c0.286-0.075,0.537-0.198,0.742-0.351c0.204-0.163,0.367-0.356,0.479-0.59
	c0.111-0.234,0.169-0.509,0.169-0.818c0-0.252-0.035-0.468-0.104-0.661c-0.07-0.191-0.176-0.361-0.321-0.514
	c-0.146-0.152-0.333-0.292-0.561-0.421c-0.229-0.128-0.497-0.257-0.813-0.392c-0.263-0.11-0.49-0.204-0.677-0.292
	c-0.193-0.088-0.346-0.182-0.462-0.274c-0.123-0.094-0.211-0.193-0.264-0.304c-0.053-0.111-0.082-0.245-0.082-0.397
	c0-0.141,0.023-0.269,0.064-0.386s0.111-0.216,0.205-0.305c0.087-0.088,0.204-0.151,0.35-0.198c0.147-0.046,0.316-0.07,0.521-0.07
	c0.355,0,0.612,0.111,0.783,0.333c0.162,0.222,0.244,0.532,0.244,0.935c0.275,0,0.491-0.063,0.644-0.192
	c0.146-0.134,0.222-0.31,0.222-0.526c0-0.146-0.035-0.286-0.11-0.42c-0.076-0.135-0.188-0.252-0.334-0.351
	c-0.146-0.1-0.332-0.182-0.549-0.24c-0.217-0.058-0.468-0.087-0.754-0.087c-0.339,0-0.648,0.035-0.924,0.11
	c-0.273,0.076-0.514,0.182-0.713,0.327c-0.198,0.141-0.35,0.316-0.455,0.526c-0.111,0.21-0.164,0.45-0.164,0.725
	c0,0.264,0.035,0.485,0.111,0.679c0.076,0.187,0.187,0.355,0.333,0.502c0.146,0.146,0.339,0.287,0.566,0.415
	c0.229,0.123,0.491,0.257,0.802,0.392c0.285,0.122,0.525,0.234,0.718,0.333s0.345,0.193,0.456,0.286
	c0.11,0.094,0.187,0.193,0.233,0.304c0.041,0.105,0.064,0.234,0.064,0.38c0,0.158-0.029,0.311-0.087,0.444
	c-0.06,0.135-0.142,0.246-0.252,0.345c-0.111,0.093-0.251,0.169-0.415,0.223c-0.163,0.053-0.351,0.075-0.566,0.075
	c-0.24,0-0.444-0.041-0.607-0.116c-0.17-0.082-0.305-0.193-0.404-0.327c-0.099-0.141-0.175-0.305-0.216-0.485
	s-0.064-0.38-0.064-0.59l-0.233,0.04l-0.245,0.129c-0.076,0.064-0.141,0.146-0.193,0.257c-0.053,0.105-0.082,0.24-0.082,0.398
	c0,0.21,0.047,0.391,0.141,0.555c0.094,0.152,0.228,0.286,0.397,0.397c0.169,0.104,0.38,0.187,0.625,0.233
	C164.173,27.129,164.447,27.152,164.746,27.152 M160.45,27.035v-0.503h-0.333c-0.134,0-0.257-0.011-0.374-0.022
	c-0.121-0.024-0.228-0.06-0.314-0.111c-0.088-0.053-0.158-0.135-0.211-0.24c-0.052-0.11-0.082-0.251-0.082-0.426v-1.882
	c0-0.152,0.006-0.322,0.023-0.509c0.018-0.188,0.041-0.374,0.082-0.562c0.035-0.192,0.081-0.374,0.141-0.555
	c0.063-0.181,0.14-0.339,0.222-0.479c0.094-0.135,0.193-0.246,0.311-0.333c0.116-0.082,0.251-0.123,0.396-0.123
	c0.234,0,0.398,0.07,0.491,0.217c0.094,0.146,0.14,0.386,0.14,0.719c0.205,0,0.374-0.023,0.516-0.064
	c0.14-0.041,0.257-0.1,0.344-0.175c0.088-0.076,0.151-0.164,0.199-0.269c0.041-0.106,0.059-0.223,0.059-0.346
	c0-0.274-0.106-0.49-0.316-0.643c-0.216-0.152-0.537-0.228-0.976-0.228c-0.263,0-0.485,0.034-0.66,0.099
	c-0.176,0.071-0.322,0.164-0.438,0.281c-0.122,0.123-0.223,0.257-0.305,0.415c-0.081,0.157-0.163,0.326-0.238,0.508h-0.06
	l-0.228-1.187h-1.84v0.503h0.034c0.135,0,0.258,0.012,0.379,0.029c0.117,0.018,0.224,0.058,0.311,0.117
	c0.088,0.058,0.164,0.14,0.216,0.245c0.053,0.11,0.076,0.251,0.076,0.427v3.734c0,0.187-0.023,0.339-0.076,0.449
	c-0.052,0.111-0.122,0.199-0.21,0.258c-0.088,0.064-0.193,0.104-0.31,0.123c-0.122,0.018-0.251,0.028-0.386,0.028h-0.034v0.503
	H160.45z M155.316,25.732v-5.114h-2.139v0.503h0.035c0.134,0,0.263,0.012,0.38,0.029c0.123,0.018,0.222,0.058,0.315,0.117
	c0.088,0.063,0.157,0.152,0.21,0.263c0.053,0.117,0.076,0.27,0.076,0.456v2.466c0,0.286-0.028,0.55-0.088,0.789
	c-0.058,0.239-0.146,0.438-0.269,0.607c-0.122,0.17-0.28,0.304-0.467,0.397c-0.193,0.094-0.422,0.141-0.685,0.141
	c-0.239,0-0.444-0.035-0.602-0.111c-0.163-0.07-0.292-0.175-0.387-0.314c-0.099-0.142-0.163-0.311-0.203-0.516
	c-0.041-0.204-0.064-0.432-0.064-0.695v-4.132h-2.146v0.503h0.035c0.135,0,0.257,0.012,0.38,0.029
	c0.117,0.018,0.223,0.058,0.31,0.117c0.088,0.058,0.164,0.14,0.217,0.245c0.052,0.11,0.076,0.251,0.076,0.427v2.869
	c0,0.409,0.046,0.76,0.134,1.058s0.211,0.538,0.38,0.731c0.169,0.191,0.374,0.333,0.619,0.42c0.246,0.088,0.526,0.135,0.842,0.135
	c0.193,0,0.38-0.012,0.562-0.047c0.181-0.023,0.351-0.082,0.514-0.164c0.164-0.076,0.322-0.187,0.468-0.327
	c0.146-0.14,0.275-0.32,0.397-0.549h0.059l0.158,0.97h1.899v-0.503h-0.035c-0.135,0-0.257-0.011-0.374-0.022
	c-0.123-0.024-0.229-0.06-0.316-0.111c-0.087-0.053-0.158-0.135-0.21-0.24C155.345,26.048,155.316,25.907,155.316,25.732
	 M146.515,27.152c0.339,0,0.637-0.035,0.889-0.104c0.251-0.065,0.468-0.152,0.638-0.264c0.169-0.111,0.292-0.233,0.38-0.369
	c0.087-0.134,0.128-0.273,0.128-0.408c0-0.111-0.018-0.204-0.059-0.28l-0.146-0.188c-0.135,0.245-0.345,0.444-0.62,0.603
	c-0.275,0.157-0.602,0.232-0.97,0.232c-0.644,0-1.104-0.21-1.385-0.625c-0.286-0.414-0.428-1.052-0.428-1.898
	c0-0.532,0.035-0.977,0.106-1.333c0.07-0.356,0.169-0.637,0.303-0.847c0.135-0.21,0.293-0.357,0.48-0.444
	c0.181-0.088,0.391-0.129,0.618-0.129c0.205,0,0.368,0.035,0.504,0.11c0.128,0.07,0.233,0.171,0.309,0.299
	c0.076,0.123,0.129,0.269,0.158,0.438c0.028,0.169,0.047,0.344,0.047,0.531c0.356,0,0.619-0.058,0.801-0.169
	c0.181-0.111,0.27-0.311,0.27-0.584c0-0.205-0.065-0.386-0.188-0.538c-0.122-0.158-0.286-0.286-0.485-0.386
	c-0.197-0.1-0.42-0.176-0.666-0.223c-0.251-0.053-0.497-0.075-0.748-0.075c-0.38,0-0.729,0.053-1.052,0.163
	c-0.327,0.111-0.607,0.292-0.847,0.556c-0.24,0.263-0.427,0.607-0.562,1.04c-0.135,0.427-0.205,0.964-0.205,1.601
	c0,0.591,0.07,1.093,0.205,1.508s0.321,0.754,0.562,1.018c0.239,0.263,0.532,0.462,0.865,0.585
	C145.75,27.094,146.118,27.152,146.515,27.152 M140.165,27.152c0.355,0,0.659-0.041,0.923-0.117
	c0.263-0.075,0.484-0.175,0.661-0.292c0.175-0.116,0.303-0.246,0.391-0.386c0.088-0.135,0.129-0.263,0.129-0.386
	c0-0.1-0.023-0.188-0.076-0.264l-0.151-0.146c-0.07,0.111-0.158,0.211-0.275,0.31c-0.105,0.1-0.234,0.193-0.38,0.27
	c-0.146,0.076-0.304,0.14-0.479,0.187c-0.181,0.046-0.374,0.07-0.579,0.07c-0.285,0-0.536-0.047-0.753-0.146
	c-0.217-0.095-0.403-0.24-0.55-0.444c-0.151-0.205-0.269-0.462-0.345-0.778c-0.081-0.309-0.128-0.683-0.134-1.122h3.985v-0.549
	c0-0.473-0.059-0.888-0.17-1.245c-0.116-0.355-0.279-0.653-0.497-0.894c-0.216-0.24-0.473-0.415-0.782-0.538
	c-0.31-0.122-0.654-0.181-1.04-0.181c-0.848,0-1.502,0.28-1.965,0.848c-0.461,0.565-0.688,1.408-0.688,2.523
	c0,0.521,0.063,0.982,0.193,1.386c0.122,0.409,0.304,0.754,0.543,1.035c0.239,0.279,0.531,0.49,0.877,0.637
	C139.346,27.076,139.731,27.152,140.165,27.152 M140.018,21.145c0.239,0,0.444,0.053,0.608,0.152
	c0.169,0.099,0.303,0.244,0.402,0.432c0.1,0.187,0.176,0.409,0.223,0.672s0.069,0.55,0.069,0.865h-2.753
	c0.041-0.695,0.183-1.221,0.421-1.583C139.229,21.325,139.574,21.145,140.018,21.145 M131.687,22.704v-3.641h0.813
	c0.339,0,0.625,0.036,0.864,0.1c0.234,0.064,0.428,0.163,0.573,0.311c0.146,0.14,0.257,0.321,0.321,0.549
	c0.063,0.222,0.099,0.491,0.099,0.813c0,0.31-0.028,0.585-0.093,0.817c-0.058,0.234-0.158,0.427-0.298,0.585
	c-0.141,0.158-0.327,0.274-0.562,0.351c-0.233,0.075-0.525,0.116-0.877,0.116H131.687z M135.52,25.574l-1.642-2.595
	c0.211-0.07,0.421-0.164,0.631-0.281c0.211-0.116,0.397-0.262,0.566-0.438c0.171-0.175,0.305-0.38,0.404-0.625
	c0.105-0.234,0.157-0.515,0.157-0.836c0-0.771-0.251-1.351-0.759-1.736c-0.509-0.379-1.28-0.572-2.315-0.572h-3.22v0.502h0.152
	c0.135,0,0.257,0.013,0.374,0.03c0.122,0.017,0.228,0.052,0.315,0.111c0.087,0.058,0.158,0.14,0.21,0.251
	c0.053,0.104,0.082,0.245,0.082,0.421v5.926c0,0.175-0.029,0.315-0.082,0.426c-0.052,0.105-0.123,0.188-0.21,0.24
	c-0.088,0.052-0.193,0.093-0.315,0.111c-0.117,0.017-0.239,0.022-0.374,0.022h-0.152v0.503h3.482v-0.503h-0.157
	c-0.135,0-0.258-0.006-0.379-0.022c-0.117-0.019-0.223-0.06-0.311-0.111c-0.088-0.053-0.158-0.135-0.21-0.24
	c-0.053-0.11-0.082-0.251-0.082-0.426v-2.467h0.993l1.619,2.695c0.134,0.227,0.263,0.408,0.386,0.549
	c0.117,0.14,0.257,0.251,0.426,0.327c0.17,0.075,0.369,0.129,0.614,0.157c0.24,0.029,0.543,0.041,0.917,0.041h0.17v-0.503h-0.035
	c-0.251,0-0.473-0.082-0.666-0.238C135.918,26.136,135.725,25.896,135.52,25.574 M126.677,23.242c0-0.473,0.018-0.946,0.058-1.407
	c0.036-0.463,0.117-0.9,0.24-1.315s0.31-0.795,0.549-1.14c0.246-0.352,0.573-0.649,0.982-0.9v-0.538
	c-0.549,0.217-1.018,0.48-1.408,0.795c-0.392,0.304-0.707,0.678-0.959,1.105c-0.245,0.426-0.426,0.923-0.537,1.478
	c-0.111,0.562-0.17,1.204-0.17,1.923c0,0.72,0.059,1.362,0.17,1.923c0.111,0.567,0.292,1.063,0.537,1.49
	c0.252,0.433,0.567,0.807,0.959,1.116c0.391,0.31,0.859,0.579,1.408,0.795v-0.549c-0.409-0.252-0.736-0.55-0.982-0.9
	c-0.239-0.351-0.426-0.736-0.549-1.151s-0.204-0.854-0.24-1.315C126.695,24.189,126.677,23.716,126.677,23.242"/>
</svg>
