<?xml version="1.0" encoding="iso-8859-1"?>
<!-- Generator: Adobe Illustrator 14.0.0, SVG Export Plug-In . SVG Version: 6.00 Build 43363)  -->
<!DOCTYPE svg PUBLIC "-//W3C//DTD SVG 1.1//EN" "http://www.w3.org/Graphics/SVG/1.1/DTD/svg11.dtd">
<svg version="1.1" id="Layer_1" xmlns="http://www.w3.org/2000/svg" xmlns:xlink="http://www.w3.org/1999/xlink" x="0px" y="0px"
	 width="240.728px" height="26.841px" viewBox="0 0 240.728 26.841" style="enable-background:new 0 0 240.728 26.841;"
	 xml:space="preserve">
<path d="M1.71,11.336l-1.698,0.379v0.287l0.941,0.172L0,16.867h0.976l0.711-3.88c0.7-0.642,1.308-0.94,1.698-0.94
	c0.436,0,0.62,0.218,0.62,0.723c0,0.149-0.023,0.402-0.103,0.735l-0.494,2.123c-0.057,0.252-0.092,0.47-0.092,0.619
	c0,0.459,0.276,0.688,0.838,0.688c0.321,0,0.78-0.115,1.377-0.345V16.27c-0.264,0.069-0.47,0.104-0.631,0.104
	c-0.379,0-0.597-0.195-0.597-0.563c0-0.172,0.058-0.424,0.126-0.757l0.391-1.779c0.091-0.413,0.16-0.733,0.16-1.021
	c0-0.563-0.367-0.918-0.964-0.918c-0.608,0-1.319,0.379-2.226,1.102l0.207-1.102H1.71z"/>
<path d="M7.953,15.662c-0.355,0-0.654,0.286-0.654,0.654c0,0.366,0.299,0.653,0.654,0.653c0.368,0,0.654-0.299,0.654-0.653
	C8.607,15.948,8.321,15.662,7.953,15.662 M8.55,10.521C8.573,10.2,8.584,9.982,8.584,9.855c0-0.539-0.218-0.826-0.631-0.826
	S7.322,9.305,7.322,9.855c0,0.195,0.012,0.413,0.035,0.666l0.321,4.383h0.551L8.55,10.521z"/>
<path d="M13.205,15.146h7.711v-0.688h-7.711V15.146z M13.205,12.667h7.711v-0.688h-7.711V12.667z"/>
<path d="M27.062,13.576c0.448,0.24,0.815,0.597,1.021,1.078c0.459,1.067,0.608,2.215,0.608,3.373c0,0.689-0.057,1.377-0.126,2.066
	c-0.057,0.631-0.103,1.262-0.103,1.893c0,0.896,0.092,1.778,0.356,2.64c0.252,0.814,0.814,1.538,1.629,1.538v0.677
	c-1.079,0-1.997-0.735-2.421-1.733c-0.459-1.066-0.62-2.215-0.62-3.374c0-0.585,0.046-1.17,0.104-1.744
	c0.08-0.849,0.16-1.697,0.16-2.535c0-0.896-0.092-1.768-0.356-2.627c-0.206-0.666-0.963-0.918-1.686-0.918v-0.666
	c0.723,0,1.48-0.252,1.686-0.918c0.264-0.86,0.356-1.732,0.356-2.628c0-0.838-0.08-1.687-0.16-2.535
	c-0.058-0.574-0.104-1.159-0.104-1.744c0-1.159,0.161-2.308,0.62-3.374c0.424-0.998,1.342-1.733,2.421-1.733v0.677
	c-0.815,0-1.377,0.724-1.629,1.538c-0.264,0.861-0.356,1.744-0.356,2.64c0,0.631,0.046,1.262,0.103,1.893
	c0.069,0.689,0.126,1.377,0.126,2.066c0,1.158-0.149,2.306-0.608,3.373C27.876,12.979,27.51,13.335,27.062,13.576"/>
<polygon points="40.388,1.379 37.897,2.125 37.897,2.607 39.7,2.285 39.7,8.459 39.562,8.654 38.242,8.724 38.242,9.217 
	42.085,9.217 42.085,8.734 40.847,8.678 40.708,8.505 40.708,1.379 "/>
<path d="M107.396,8.714h-0.455c-0.135,0-0.258-0.012-0.38-0.029c-0.123-0.018-0.222-0.059-0.31-0.116
	c-0.093-0.064-0.163-0.152-0.21-0.264c-0.059-0.11-0.082-0.263-0.082-0.45V3.366h1.689V2.8h-1.689V2.093
	c0-0.252,0.012-0.474,0.047-0.667c0.023-0.191,0.076-0.35,0.146-0.479c0.07-0.135,0.163-0.234,0.274-0.298
	c0.117-0.064,0.263-0.1,0.433-0.1c0.152,0,0.281,0.029,0.38,0.081c0.099,0.053,0.181,0.129,0.239,0.217
	c0.064,0.087,0.105,0.193,0.129,0.311c0.029,0.11,0.041,0.227,0.041,0.35c0.146,0,0.275-0.012,0.392-0.041
	c0.122-0.029,0.221-0.076,0.309-0.128l0.205-0.211c0.052-0.087,0.076-0.181,0.076-0.292c0-0.123-0.03-0.24-0.088-0.339
	c-0.059-0.1-0.152-0.188-0.286-0.263c-0.129-0.076-0.298-0.128-0.515-0.169C107.525,0.024,107.262,0,106.952,0
	c-0.327,0-0.619,0.047-0.882,0.146c-0.263,0.094-0.485,0.233-0.666,0.421c-0.181,0.187-0.322,0.414-0.421,0.689
	c-0.1,0.274-0.146,0.59-0.146,0.947V2.8h-1.093v0.566h1.093v4.488c0,0.188-0.03,0.34-0.082,0.45
	c-0.053,0.111-0.123,0.199-0.21,0.264c-0.088,0.058-0.187,0.099-0.31,0.116c-0.117,0.018-0.246,0.029-0.38,0.029h-0.158v0.503h3.699
	V8.714 M100.797,0.859c0,0.141,0.018,0.258,0.053,0.351c0.035,0.094,0.082,0.17,0.146,0.228l0.216,0.13
	c0.082,0.022,0.17,0.034,0.269,0.034c0.094,0,0.181-0.012,0.263-0.034l0.216-0.13c0.059-0.058,0.106-0.134,0.141-0.228
	c0.041-0.093,0.058-0.21,0.058-0.351s-0.017-0.258-0.058-0.351c-0.035-0.094-0.082-0.17-0.146-0.228l-0.211-0.123
	c-0.082-0.023-0.169-0.035-0.263-0.035c-0.099,0-0.187,0.012-0.269,0.035l-0.216,0.123c-0.064,0.058-0.111,0.134-0.146,0.228
	C100.815,0.602,100.797,0.719,100.797,0.859 M99.985,8.714h-0.158v0.503h3.402V8.714h-0.158c-0.135,0-0.257-0.012-0.38-0.029
	s-0.222-0.059-0.31-0.116c-0.093-0.064-0.163-0.152-0.21-0.264c-0.059-0.11-0.082-0.263-0.082-0.45V2.8H99.95v0.502h0.035
	c0.134,0,0.257,0.012,0.374,0.029c0.123,0.018,0.228,0.059,0.316,0.117c0.087,0.059,0.157,0.141,0.21,0.252
	c0.053,0.104,0.082,0.245,0.082,0.42v3.793c0,0.176-0.029,0.315-0.082,0.427c-0.053,0.105-0.123,0.188-0.21,0.24
	c-0.088,0.052-0.193,0.093-0.316,0.111C100.242,8.708,100.119,8.714,99.985,8.714"/>
<path d="M113.258,3.686l-1.698,0.379v0.287l0.941,0.172l-0.953,4.693h0.976l0.711-3.879c0.7-0.643,1.308-0.941,1.698-0.941
	c0.436,0,0.62,0.218,0.62,0.724c0,0.148-0.023,0.401-0.103,0.734l-0.494,2.123c-0.057,0.252-0.092,0.471-0.092,0.619
	c0,0.459,0.276,0.689,0.838,0.689c0.321,0,0.78-0.115,1.377-0.346V8.62c-0.264,0.068-0.47,0.103-0.631,0.103
	c-0.379,0-0.597-0.195-0.597-0.562c0-0.173,0.058-0.425,0.126-0.758l0.391-1.778c0.091-0.413,0.16-0.734,0.16-1.021
	c0-0.562-0.367-0.918-0.964-0.918c-0.608,0-1.319,0.379-2.226,1.103l0.207-1.103H113.258z"/>
<path d="M120.874,7.495h7.711V6.808h-7.711V7.495z M120.874,5.017h7.711V4.328h-7.711V5.017z"/>
<path d="M135.122,1.919c1.056,0,1.629,1.17,1.629,3.442c0,2.271-0.573,3.442-1.629,3.442c-1.057,0-1.642-1.159-1.642-3.432
	C133.48,3.089,134.065,1.919,135.122,1.919 M135.122,1.379c-1.642,0-2.719,1.446-2.719,3.982s1.077,3.993,2.719,3.993
	c1.641,0,2.719-1.457,2.719-3.993S136.763,1.379,135.122,1.379"/>
<path d="M209.938,5.424c0,0.473-0.018,0.947-0.053,1.408c-0.04,0.462-0.122,0.899-0.245,1.314c-0.129,0.415-0.316,0.802-0.555,1.152
	c-0.24,0.35-0.567,0.647-0.977,0.9v0.549c0.549-0.216,1.018-0.485,1.408-0.795c0.392-0.311,0.707-0.685,0.953-1.11
	c0.245-0.433,0.426-0.929,0.537-1.496c0.116-0.561,0.176-1.204,0.176-1.923s-0.06-1.362-0.176-1.917
	c-0.111-0.562-0.292-1.058-0.537-1.484c-0.246-0.427-0.562-0.795-0.953-1.104c-0.391-0.311-0.859-0.578-1.408-0.795v0.538
	c0.409,0.251,0.736,0.549,0.977,0.899c0.238,0.345,0.426,0.726,0.555,1.141c0.123,0.415,0.205,0.853,0.245,1.314
	C209.921,4.477,209.938,4.951,209.938,5.424 M204.762,9.334c0.356,0,0.66-0.041,0.923-0.117s0.486-0.176,0.661-0.292
	c0.175-0.117,0.304-0.246,0.391-0.386c0.088-0.136,0.129-0.264,0.129-0.387c0-0.099-0.022-0.187-0.076-0.263l-0.151-0.146
	c-0.07,0.11-0.158,0.21-0.275,0.31c-0.104,0.099-0.232,0.193-0.379,0.27c-0.146,0.075-0.304,0.14-0.479,0.187
	c-0.182,0.046-0.374,0.07-0.578,0.07c-0.287,0-0.538-0.047-0.754-0.146c-0.217-0.094-0.403-0.24-0.551-0.444
	c-0.15-0.204-0.268-0.462-0.344-0.777c-0.082-0.31-0.129-0.684-0.135-1.122h3.986V5.541c0-0.475-0.06-0.889-0.17-1.245
	c-0.116-0.356-0.28-0.654-0.496-0.895c-0.218-0.239-0.475-0.415-0.783-0.538c-0.311-0.121-0.655-0.181-1.041-0.181
	c-0.848,0-1.502,0.281-1.963,0.848c-0.462,0.566-0.69,1.408-0.69,2.524c0,0.521,0.064,0.982,0.193,1.385
	c0.123,0.409,0.304,0.754,0.543,1.035c0.24,0.28,0.532,0.491,0.877,0.637C203.943,9.258,204.329,9.334,204.762,9.334 M204.615,3.326
	c0.24,0,0.444,0.053,0.608,0.151c0.169,0.1,0.304,0.245,0.403,0.433c0.099,0.187,0.175,0.408,0.222,0.672
	c0.047,0.263,0.07,0.55,0.07,0.864h-2.753c0.041-0.694,0.182-1.221,0.421-1.583C203.826,3.507,204.172,3.326,204.615,3.326
	 M198.444,9.334c0.356,0,0.677-0.041,0.97-0.117c0.286-0.076,0.537-0.199,0.742-0.351c0.204-0.163,0.368-0.356,0.479-0.591
	c0.11-0.233,0.17-0.509,0.17-0.817c0-0.252-0.035-0.469-0.106-0.661c-0.069-0.193-0.175-0.362-0.32-0.514
	c-0.146-0.152-0.333-0.292-0.562-0.422c-0.228-0.128-0.497-0.257-0.812-0.391c-0.264-0.111-0.491-0.205-0.679-0.292
	c-0.192-0.088-0.345-0.182-0.462-0.275c-0.123-0.094-0.21-0.192-0.263-0.304s-0.082-0.245-0.082-0.396
	c0-0.142,0.024-0.27,0.063-0.387c0.041-0.116,0.112-0.216,0.205-0.304c0.089-0.088,0.205-0.152,0.352-0.199
	c0.146-0.046,0.314-0.069,0.52-0.069c0.356,0,0.613,0.11,0.783,0.333c0.164,0.222,0.245,0.531,0.245,0.935
	c0.275,0,0.491-0.063,0.643-0.193c0.146-0.134,0.223-0.309,0.223-0.525c0-0.146-0.035-0.286-0.111-0.42
	c-0.076-0.136-0.187-0.252-0.333-0.352c-0.146-0.099-0.333-0.181-0.549-0.239s-0.468-0.088-0.754-0.088
	c-0.339,0-0.649,0.035-0.923,0.111c-0.275,0.076-0.516,0.181-0.713,0.327c-0.199,0.14-0.352,0.316-0.456,0.526
	c-0.111,0.21-0.164,0.449-0.164,0.725c0,0.263,0.035,0.485,0.11,0.678c0.076,0.188,0.188,0.356,0.333,0.502
	c0.146,0.146,0.34,0.287,0.567,0.415c0.228,0.123,0.491,0.257,0.801,0.393c0.286,0.122,0.526,0.232,0.719,0.333
	c0.192,0.099,0.345,0.192,0.455,0.285c0.111,0.095,0.188,0.193,0.234,0.305c0.041,0.104,0.063,0.233,0.063,0.38
	c0,0.158-0.028,0.31-0.087,0.444s-0.14,0.245-0.251,0.345c-0.111,0.093-0.252,0.169-0.415,0.222s-0.351,0.076-0.566,0.076
	c-0.24,0-0.444-0.041-0.608-0.117c-0.17-0.082-0.304-0.192-0.402-0.327c-0.101-0.14-0.177-0.304-0.218-0.484
	c-0.04-0.182-0.063-0.38-0.063-0.59l-0.234,0.04l-0.245,0.129c-0.075,0.063-0.14,0.146-0.192,0.257
	c-0.054,0.104-0.082,0.24-0.082,0.397c0,0.21,0.047,0.392,0.141,0.556c0.093,0.151,0.228,0.286,0.397,0.396
	c0.169,0.105,0.38,0.188,0.625,0.234C197.871,9.31,198.146,9.334,198.444,9.334 M192.408,3.278c0.246,0,0.444,0.035,0.591,0.105
	c0.141,0.076,0.258,0.176,0.333,0.304c0.076,0.136,0.129,0.287,0.152,0.468c0.023,0.182,0.035,0.381,0.035,0.597v0.719l-0.994,0.035
	c-0.917,0.029-1.601,0.193-2.051,0.502c-0.45,0.31-0.678,0.778-0.678,1.415c0,0.327,0.047,0.606,0.14,0.847
	c0.094,0.24,0.222,0.438,0.392,0.597c0.163,0.157,0.362,0.274,0.591,0.351c0.228,0.076,0.473,0.117,0.735,0.117
	c0.252,0,0.462-0.03,0.644-0.088c0.176-0.054,0.333-0.135,0.474-0.234c0.14-0.099,0.268-0.222,0.385-0.362
	c0.117-0.14,0.24-0.292,0.363-0.462h0.099l0.188,1.029h1.619V8.714h-0.035c-0.135,0-0.246-0.011-0.339-0.041
	c-0.101-0.029-0.176-0.076-0.234-0.14c-0.058-0.064-0.099-0.152-0.128-0.264c-0.03-0.11-0.041-0.245-0.041-0.415V4.752
	c0-0.38-0.047-0.707-0.135-0.97c-0.093-0.264-0.234-0.475-0.415-0.638c-0.182-0.164-0.409-0.281-0.685-0.356
	c-0.273-0.07-0.59-0.105-0.958-0.105c-0.298,0-0.572,0.023-0.836,0.064c-0.263,0.041-0.49,0.11-0.688,0.198
	c-0.193,0.095-0.352,0.21-0.462,0.357c-0.111,0.146-0.169,0.321-0.169,0.526c0,0.273,0.087,0.473,0.257,0.584
	c0.175,0.11,0.426,0.169,0.759,0.169c0-0.188,0.012-0.362,0.041-0.521c0.03-0.157,0.082-0.298,0.164-0.415
	c0.076-0.116,0.187-0.21,0.333-0.273C191.993,3.308,192.181,3.278,192.408,3.278 M190.959,7.48c0-0.233,0.029-0.438,0.089-0.619
	c0.063-0.182,0.163-0.327,0.304-0.449c0.14-0.129,0.327-0.223,0.549-0.293c0.234-0.064,0.514-0.105,0.854-0.122l0.766-0.035v0.97
	c0,0.251-0.035,0.485-0.111,0.689c-0.076,0.205-0.182,0.38-0.315,0.525c-0.141,0.146-0.311,0.257-0.503,0.333
	c-0.198,0.076-0.42,0.117-0.66,0.117c-0.333,0-0.573-0.093-0.73-0.28C191.041,8.136,190.959,7.854,190.959,7.48 M186.386,0.55
	c-0.631,0-1.187,0.104-1.665,0.321c-0.48,0.217-0.883,0.515-1.198,0.899c-0.328,0.387-0.567,0.849-0.731,1.385
	c-0.163,0.538-0.244,1.129-0.244,1.777c0,0.66,0.075,1.257,0.232,1.8c0.158,0.544,0.386,1.005,0.696,1.392
	c0.304,0.386,0.684,0.684,1.134,0.894c0.45,0.211,0.977,0.316,1.572,0.316c0.443,0,0.83-0.041,1.15-0.129
	c0.321-0.082,0.591-0.188,0.802-0.315c0.21-0.129,0.368-0.269,0.467-0.433c0.104-0.152,0.158-0.311,0.158-0.462
	c0-0.122-0.023-0.217-0.064-0.292l-0.164-0.176c-0.099,0.135-0.216,0.258-0.351,0.381c-0.128,0.121-0.28,0.232-0.45,0.326
	c-0.169,0.095-0.368,0.169-0.59,0.223c-0.229,0.059-0.485,0.088-0.777,0.088c-0.438,0-0.817-0.088-1.128-0.263
	c-0.315-0.177-0.573-0.422-0.777-0.742c-0.204-0.316-0.351-0.696-0.443-1.141c-0.094-0.443-0.142-0.935-0.142-1.467
	c0-0.602,0.048-1.134,0.136-1.601c0.087-0.462,0.232-0.854,0.432-1.175c0.199-0.315,0.456-0.556,0.772-0.726
	c0.314-0.163,0.7-0.245,1.15-0.245c0.263,0,0.479,0.047,0.66,0.134c0.176,0.095,0.322,0.212,0.433,0.357
	c0.111,0.146,0.188,0.315,0.239,0.497c0.047,0.181,0.07,0.368,0.07,0.555c0.146,0,0.287-0.018,0.415-0.059
	c0.123-0.041,0.233-0.093,0.328-0.163c0.093-0.076,0.169-0.164,0.222-0.263c0.052-0.105,0.076-0.223,0.076-0.352
	c0-0.192-0.047-0.368-0.146-0.532c-0.1-0.162-0.252-0.304-0.45-0.426c-0.204-0.123-0.455-0.217-0.754-0.281
	C187.151,0.585,186.795,0.55,186.386,0.55 M175.793,9.334c0.355,0,0.659-0.041,0.923-0.117c0.263-0.076,0.484-0.176,0.659-0.292
	c0.177-0.117,0.305-0.246,0.393-0.386c0.088-0.136,0.128-0.264,0.128-0.387c0-0.099-0.023-0.187-0.075-0.263l-0.151-0.146
	c-0.071,0.11-0.158,0.21-0.275,0.31c-0.105,0.099-0.234,0.193-0.38,0.27c-0.146,0.075-0.305,0.14-0.479,0.187
	c-0.181,0.046-0.374,0.07-0.579,0.07c-0.285,0-0.536-0.047-0.754-0.146c-0.216-0.094-0.402-0.24-0.549-0.444
	c-0.152-0.204-0.269-0.462-0.345-0.777c-0.082-0.31-0.128-0.684-0.134-1.122h3.984V5.541c0-0.475-0.058-0.889-0.169-1.245
	c-0.117-0.356-0.28-0.654-0.497-0.895c-0.216-0.239-0.473-0.415-0.783-0.538c-0.31-0.121-0.653-0.181-1.039-0.181
	c-0.849,0-1.502,0.281-1.965,0.848c-0.461,0.566-0.688,1.408-0.688,2.524c0,0.521,0.063,0.982,0.192,1.385
	c0.122,0.409,0.304,0.754,0.544,1.035c0.239,0.28,0.531,0.491,0.877,0.637C174.974,9.258,175.359,9.334,175.793,9.334
	 M175.646,3.326c0.239,0,0.444,0.053,0.607,0.151c0.17,0.1,0.304,0.245,0.403,0.433c0.1,0.187,0.175,0.408,0.223,0.672
	c0.046,0.263,0.069,0.55,0.069,0.864h-2.753c0.041-0.694,0.182-1.221,0.421-1.583C174.857,3.507,175.201,3.326,175.646,3.326
	 M169.475,9.334c0.356,0,0.678-0.041,0.97-0.117c0.287-0.076,0.538-0.199,0.742-0.351c0.205-0.163,0.369-0.356,0.479-0.591
	c0.111-0.233,0.17-0.509,0.17-0.817c0-0.252-0.035-0.469-0.105-0.661c-0.07-0.193-0.175-0.362-0.321-0.514
	c-0.146-0.152-0.334-0.292-0.562-0.422c-0.228-0.128-0.496-0.257-0.813-0.391c-0.263-0.111-0.49-0.205-0.678-0.292
	c-0.193-0.088-0.345-0.182-0.461-0.275c-0.123-0.094-0.211-0.192-0.263-0.304c-0.054-0.111-0.082-0.245-0.082-0.396
	c0-0.142,0.022-0.27,0.063-0.387c0.041-0.116,0.111-0.216,0.205-0.304c0.087-0.088,0.204-0.152,0.351-0.199
	c0.146-0.046,0.315-0.069,0.52-0.069c0.357,0,0.614,0.11,0.783,0.333c0.164,0.222,0.246,0.531,0.246,0.935
	c0.274,0,0.491-0.063,0.643-0.193c0.146-0.134,0.222-0.309,0.222-0.525c0-0.146-0.034-0.286-0.11-0.42
	c-0.076-0.136-0.188-0.252-0.333-0.352c-0.146-0.099-0.333-0.181-0.55-0.239s-0.468-0.088-0.754-0.088
	c-0.34,0-0.648,0.035-0.924,0.111c-0.274,0.076-0.514,0.181-0.713,0.327c-0.198,0.14-0.351,0.316-0.456,0.526
	c-0.11,0.21-0.163,0.449-0.163,0.725c0,0.263,0.035,0.485,0.111,0.678c0.076,0.188,0.188,0.356,0.333,0.502
	c0.146,0.146,0.339,0.287,0.567,0.415c0.228,0.123,0.491,0.257,0.8,0.393c0.287,0.122,0.526,0.232,0.719,0.333
	c0.193,0.099,0.345,0.192,0.456,0.285c0.111,0.095,0.188,0.193,0.234,0.305c0.041,0.104,0.063,0.233,0.063,0.38
	c0,0.158-0.028,0.31-0.088,0.444c-0.058,0.135-0.14,0.245-0.251,0.345c-0.111,0.093-0.251,0.169-0.415,0.222
	s-0.351,0.076-0.566,0.076c-0.239,0-0.444-0.041-0.608-0.117c-0.169-0.082-0.303-0.192-0.403-0.327
	c-0.099-0.14-0.175-0.304-0.216-0.484c-0.041-0.182-0.063-0.38-0.063-0.59l-0.234,0.04l-0.246,0.129
	c-0.076,0.063-0.14,0.146-0.192,0.257c-0.053,0.104-0.082,0.24-0.082,0.397c0,0.21,0.048,0.392,0.141,0.556
	c0.094,0.151,0.228,0.286,0.396,0.396c0.17,0.105,0.38,0.188,0.626,0.234C168.901,9.31,169.177,9.334,169.475,9.334 M163.439,3.278
	c0.245,0,0.444,0.035,0.59,0.105c0.141,0.076,0.257,0.176,0.333,0.304c0.076,0.136,0.129,0.287,0.152,0.468
	c0.023,0.182,0.035,0.381,0.035,0.597v0.719l-0.993,0.035c-0.918,0.029-1.603,0.193-2.052,0.502c-0.45,0.31-0.678,0.778-0.678,1.415
	c0,0.327,0.046,0.606,0.141,0.847c0.093,0.24,0.222,0.438,0.391,0.597c0.164,0.157,0.363,0.274,0.591,0.351
	c0.229,0.076,0.474,0.117,0.736,0.117c0.251,0,0.462-0.03,0.643-0.088c0.176-0.054,0.333-0.135,0.474-0.234
	c0.14-0.099,0.269-0.222,0.386-0.362c0.117-0.14,0.24-0.292,0.362-0.462h0.1l0.188,1.029h1.617V8.714h-0.034
	c-0.135,0-0.245-0.011-0.34-0.041c-0.099-0.029-0.175-0.076-0.232-0.14c-0.06-0.064-0.101-0.152-0.129-0.264
	c-0.029-0.11-0.041-0.245-0.041-0.415V4.752c0-0.38-0.047-0.707-0.134-0.97c-0.095-0.264-0.234-0.475-0.415-0.638
	c-0.182-0.164-0.409-0.281-0.685-0.356c-0.274-0.07-0.59-0.105-0.958-0.105c-0.298,0-0.573,0.023-0.836,0.064
	s-0.491,0.11-0.689,0.198c-0.193,0.095-0.351,0.21-0.462,0.357c-0.11,0.146-0.17,0.321-0.17,0.526c0,0.273,0.089,0.473,0.258,0.584
	c0.176,0.11,0.427,0.169,0.76,0.169c0-0.188,0.012-0.362,0.041-0.521c0.028-0.157,0.082-0.298,0.164-0.415
	c0.076-0.116,0.187-0.21,0.333-0.273C163.024,3.308,163.212,3.278,163.439,3.278 M161.99,7.48c0-0.233,0.029-0.438,0.087-0.619
	c0.064-0.182,0.164-0.327,0.305-0.449c0.14-0.129,0.327-0.223,0.549-0.293c0.233-0.064,0.515-0.105,0.854-0.122l0.766-0.035v0.97
	c0,0.251-0.035,0.485-0.111,0.689c-0.076,0.205-0.181,0.38-0.315,0.525c-0.141,0.146-0.31,0.257-0.503,0.333
	c-0.198,0.076-0.421,0.117-0.659,0.117c-0.333,0-0.573-0.093-0.731-0.28C162.071,8.136,161.99,7.854,161.99,7.48 M155.215,4.441
	V1.269h0.8c0.339,0,0.626,0.023,0.858,0.076c0.24,0.052,0.434,0.134,0.579,0.257c0.146,0.123,0.257,0.28,0.321,0.474
	c0.065,0.198,0.1,0.443,0.1,0.736c0,0.286-0.028,0.537-0.094,0.742c-0.058,0.204-0.158,0.374-0.298,0.502
	c-0.14,0.135-0.327,0.229-0.561,0.293c-0.234,0.064-0.526,0.093-0.876,0.093H155.215z M155.215,8.621V5.038h1.186
	c0.352,0,0.644,0.035,0.877,0.11c0.233,0.076,0.42,0.188,0.562,0.339c0.146,0.152,0.245,0.346,0.304,0.573
	c0.058,0.229,0.087,0.503,0.087,0.813c0,0.321-0.035,0.591-0.099,0.813c-0.064,0.223-0.176,0.403-0.322,0.537
	c-0.146,0.141-0.338,0.24-0.572,0.304c-0.233,0.064-0.52,0.095-0.858,0.095H155.215z M159.153,2.812c0-0.736-0.252-1.273-0.76-1.625
	c-0.509-0.339-1.28-0.514-2.314-0.514h-3.209v0.502h0.152c0.135,0,0.257,0.012,0.374,0.024c0.123,0.022,0.228,0.058,0.316,0.116
	c0.087,0.059,0.157,0.141,0.21,0.245c0.053,0.111,0.082,0.251,0.082,0.427v5.867c0,0.188-0.023,0.339-0.076,0.45
	c-0.054,0.111-0.123,0.199-0.21,0.257c-0.088,0.065-0.193,0.105-0.311,0.123c-0.123,0.019-0.251,0.029-0.386,0.029h-0.152v0.503
	h3.565c1.035,0,1.806-0.193,2.313-0.579c0.51-0.38,0.761-0.958,0.761-1.729c0-0.315-0.047-0.597-0.135-0.848
	c-0.088-0.245-0.217-0.462-0.38-0.643c-0.157-0.182-0.351-0.327-0.579-0.438c-0.228-0.11-0.473-0.192-0.747-0.24V4.692
	c0.211-0.069,0.402-0.156,0.585-0.263c0.181-0.099,0.339-0.227,0.473-0.379s0.234-0.328,0.31-0.532
	C159.112,3.313,159.153,3.08,159.153,2.812 M150.204,5.424c0-0.473,0.019-0.947,0.059-1.408c0.036-0.462,0.117-0.899,0.24-1.314
	c0.122-0.415,0.31-0.796,0.549-1.141c0.246-0.351,0.572-0.648,0.981-0.899V0.123c-0.549,0.217-1.017,0.479-1.408,0.795
	c-0.392,0.304-0.706,0.678-0.959,1.104c-0.244,0.427-0.426,0.923-0.536,1.479c-0.111,0.561-0.171,1.204-0.171,1.923
	s0.06,1.362,0.171,1.923c0.11,0.567,0.292,1.063,0.536,1.49c0.253,0.432,0.567,0.806,0.959,1.116
	c0.392,0.31,0.859,0.579,1.408,0.795v-0.549c-0.409-0.253-0.735-0.551-0.981-0.9c-0.239-0.351-0.427-0.737-0.549-1.152
	c-0.123-0.415-0.204-0.853-0.24-1.314C150.223,6.371,150.204,5.896,150.204,5.424"/>
<path d="M39.183,18.131l-1.698,0.379v0.287l0.941,0.172l-0.953,4.693h0.976l0.711-3.879c0.7-0.643,1.308-0.941,1.698-0.941
	c0.436,0,0.62,0.218,0.62,0.723c0,0.149-0.023,0.402-0.103,0.735l-0.494,2.123c-0.057,0.252-0.092,0.47-0.092,0.619
	c0,0.459,0.276,0.688,0.838,0.688c0.321,0,0.78-0.114,1.377-0.345v-0.321c-0.264,0.069-0.47,0.104-0.631,0.104
	c-0.379,0-0.597-0.195-0.597-0.563c0-0.172,0.058-0.424,0.126-0.757l0.391-1.779c0.091-0.412,0.16-0.733,0.16-1.021
	c0-0.563-0.367-0.918-0.964-0.918c-0.608,0-1.319,0.379-2.226,1.102l0.207-1.102H39.183z"/>
<path d="M47.951,20.356c0-0.401-0.321-0.733-0.723-0.733c-0.402,0-0.734,0.332-0.734,0.733c0,0.402,0.332,0.724,0.734,0.724
	C47.63,21.08,47.951,20.759,47.951,20.356"/>
<path d="M52.599,20.356c0-3.144,0.918-4.705,2.238-4.934v-0.528c-1.905,0.23-3.213,1.997-3.213,5.462
	c0,3.466,1.308,5.232,3.213,5.462v-0.527C53.517,25.062,52.599,23.501,52.599,20.356"/>
<path d="M57.856,18.131l-1.698,0.379v0.287l0.941,0.172l-0.953,4.693h0.976l0.711-3.879c0.7-0.643,1.308-0.941,1.698-0.941
	c0.436,0,0.62,0.218,0.62,0.723c0,0.149-0.023,0.402-0.103,0.735l-0.494,2.123c-0.057,0.252-0.092,0.47-0.092,0.619
	c0,0.459,0.276,0.688,0.838,0.688c0.321,0,0.78-0.114,1.377-0.345v-0.321c-0.264,0.069-0.47,0.104-0.631,0.104
	c-0.379,0-0.597-0.195-0.597-0.563c0-0.172,0.058-0.424,0.126-0.757l0.391-1.779c0.091-0.412,0.16-0.733,0.16-1.021
	c0-0.563-0.367-0.918-0.964-0.918c-0.608,0-1.319,0.379-2.226,1.102l0.207-1.102H57.856z"/>
<rect x="64.57" y="20.014" width="7.803" height="0.688"/>
<polygon points="78.388,15.824 75.897,16.57 75.897,17.053 77.699,16.73 77.699,22.904 77.562,23.1 76.241,23.168 76.241,23.661 
	80.085,23.661 80.085,23.18 78.847,23.122 78.708,22.95 78.708,15.824 "/>
<path d="M84.08,20.356c0,3.145-0.918,4.705-2.238,4.935v0.527c1.905-0.229,3.213-1.996,3.213-5.462c0-3.465-1.308-5.231-3.213-5.462
	v0.528C83.162,15.651,84.08,17.213,84.08,20.356"/>
<path d="M87.65,22.457c-0.355,0-0.654,0.286-0.654,0.654c0,0.366,0.299,0.653,0.654,0.653c0.368,0,0.654-0.299,0.654-0.653
	C88.304,22.743,88.018,22.457,87.65,22.457 M88.247,17.316c0.023-0.321,0.034-0.539,0.034-0.666c0-0.539-0.218-0.826-0.631-0.826
	s-0.631,0.275-0.631,0.826c0,0.195,0.012,0.414,0.035,0.666l0.321,4.383h0.551L88.247,17.316z"/>
<path d="M107.396,23.159h-0.455c-0.135,0-0.258-0.013-0.38-0.029c-0.123-0.018-0.222-0.059-0.31-0.117
	c-0.094-0.063-0.164-0.151-0.21-0.263c-0.059-0.111-0.082-0.263-0.082-0.45v-4.488h1.689v-0.566h-1.689v-0.707
	c0-0.252,0.011-0.475,0.047-0.667c0.023-0.192,0.075-0.351,0.146-0.479c0.07-0.134,0.163-0.233,0.274-0.298
	c0.117-0.063,0.263-0.099,0.433-0.099c0.152,0,0.28,0.029,0.38,0.082c0.099,0.052,0.181,0.128,0.239,0.216
	c0.065,0.087,0.105,0.193,0.129,0.31c0.029,0.111,0.041,0.228,0.041,0.351c0.146,0,0.274-0.011,0.391-0.041
	c0.123-0.029,0.222-0.076,0.31-0.128l0.205-0.211c0.052-0.087,0.076-0.182,0.076-0.292c0-0.123-0.03-0.239-0.088-0.339
	c-0.059-0.1-0.152-0.188-0.287-0.264c-0.128-0.076-0.298-0.128-0.514-0.169c-0.216-0.041-0.479-0.064-0.789-0.064
	c-0.327,0-0.619,0.047-0.882,0.146c-0.263,0.093-0.485,0.233-0.666,0.42c-0.182,0.188-0.322,0.415-0.421,0.69
	c-0.1,0.274-0.146,0.59-0.146,0.947v0.596h-1.093v0.566h1.093V22.3c0,0.188-0.03,0.339-0.082,0.45
	c-0.053,0.111-0.123,0.199-0.211,0.263c-0.087,0.059-0.187,0.1-0.309,0.117c-0.117,0.017-0.246,0.029-0.38,0.029h-0.158v0.503h3.699
	V23.159z M100.797,15.305c0,0.141,0.018,0.257,0.053,0.351c0.035,0.094,0.082,0.17,0.146,0.228l0.216,0.129
	c0.082,0.023,0.17,0.035,0.269,0.035c0.094,0,0.181-0.012,0.263-0.035l0.216-0.129c0.059-0.058,0.106-0.134,0.141-0.228
	c0.04-0.094,0.058-0.21,0.058-0.351s-0.018-0.258-0.058-0.351c-0.035-0.094-0.082-0.17-0.147-0.229l-0.21-0.123
	c-0.082-0.022-0.169-0.034-0.263-0.034c-0.099,0-0.187,0.012-0.269,0.034l-0.216,0.123c-0.064,0.059-0.111,0.135-0.146,0.229
	C100.815,15.047,100.797,15.164,100.797,15.305 M99.985,23.159h-0.158v0.503h3.401v-0.503h-0.157c-0.135,0-0.257-0.013-0.38-0.029
	c-0.123-0.018-0.222-0.059-0.31-0.117c-0.093-0.063-0.164-0.151-0.21-0.263c-0.059-0.111-0.082-0.263-0.082-0.45v-5.055H99.95v0.502
	h0.035c0.134,0,0.257,0.012,0.374,0.03c0.123,0.017,0.228,0.058,0.316,0.115c0.087,0.06,0.157,0.142,0.21,0.252
	c0.053,0.105,0.082,0.245,0.082,0.422v3.792c0,0.176-0.029,0.315-0.082,0.427c-0.053,0.104-0.123,0.187-0.21,0.24
	c-0.088,0.052-0.193,0.093-0.316,0.11C100.242,23.153,100.119,23.159,99.985,23.159"/>
<path d="M113.258,18.131l-1.698,0.379v0.287l0.941,0.172l-0.953,4.693h0.976l0.711-3.879c0.7-0.643,1.308-0.941,1.698-0.941
	c0.436,0,0.62,0.218,0.62,0.723c0,0.149-0.023,0.402-0.103,0.735l-0.494,2.123c-0.057,0.252-0.092,0.47-0.092,0.619
	c0,0.459,0.276,0.688,0.838,0.688c0.321,0,0.78-0.114,1.377-0.345v-0.321c-0.264,0.069-0.47,0.104-0.631,0.104
	c-0.379,0-0.597-0.195-0.597-0.563c0-0.172,0.058-0.424,0.126-0.757l0.391-1.779c0.091-0.412,0.16-0.733,0.16-1.021
	c0-0.563-0.367-0.918-0.964-0.918c-0.608,0-1.319,0.379-2.226,1.102l0.207-1.102H113.258z"/>
<polygon points="120.874,17.81 127.023,20.356 120.874,22.904 120.874,23.65 128.264,20.587 128.264,20.128 120.874,17.063 "/>
<path d="M135.122,16.363c1.056,0,1.629,1.171,1.629,3.443c0,2.271-0.573,3.441-1.629,3.441c-1.057,0-1.642-1.159-1.642-3.431
	C133.48,17.534,134.065,16.363,135.122,16.363 M135.122,15.824c-1.642,0-2.72,1.446-2.72,3.982s1.078,3.993,2.72,3.993
	c1.641,0,2.719-1.457,2.719-3.993S136.763,15.824,135.122,15.824"/>
<path d="M239.483,19.869c0,0.473-0.018,0.946-0.053,1.407c-0.041,0.462-0.123,0.9-0.246,1.315c-0.128,0.415-0.315,0.801-0.556,1.152
	c-0.238,0.35-0.566,0.647-0.976,0.899v0.549c0.55-0.216,1.017-0.484,1.409-0.795c0.391-0.31,0.707-0.684,0.952-1.109
	c0.246-0.434,0.427-0.93,0.538-1.496c0.116-0.562,0.175-1.204,0.175-1.923c0-0.72-0.059-1.362-0.175-1.917
	c-0.111-0.562-0.292-1.059-0.538-1.484c-0.245-0.427-0.562-0.795-0.952-1.105c-0.393-0.31-0.859-0.577-1.409-0.795v0.538
	c0.409,0.251,0.737,0.549,0.976,0.9c0.24,0.345,0.428,0.725,0.556,1.14c0.123,0.415,0.205,0.854,0.246,1.315
	C239.466,18.922,239.483,19.396,239.483,19.869 M234.307,23.778c0.355,0,0.66-0.041,0.923-0.116c0.263-0.076,0.485-0.176,0.66-0.292
	c0.176-0.117,0.304-0.246,0.392-0.387c0.088-0.135,0.129-0.263,0.129-0.386c0-0.099-0.023-0.187-0.076-0.263l-0.151-0.146
	c-0.071,0.111-0.158,0.211-0.275,0.311c-0.104,0.099-0.233,0.192-0.38,0.269c-0.146,0.076-0.304,0.141-0.479,0.188
	c-0.182,0.046-0.374,0.069-0.579,0.069c-0.286,0-0.537-0.047-0.754-0.146c-0.217-0.094-0.403-0.24-0.55-0.444
	c-0.151-0.205-0.269-0.462-0.345-0.777c-0.082-0.31-0.128-0.684-0.134-1.122h3.984v-0.55c0-0.473-0.058-0.888-0.169-1.244
	c-0.116-0.356-0.28-0.654-0.496-0.895c-0.217-0.24-0.474-0.415-0.783-0.538c-0.311-0.122-0.654-0.181-1.04-0.181
	c-0.848,0-1.502,0.281-1.964,0.848c-0.461,0.566-0.689,1.408-0.689,2.524c0,0.52,0.064,0.981,0.193,1.385
	c0.122,0.409,0.303,0.754,0.543,1.035c0.24,0.28,0.532,0.491,0.877,0.637C233.487,23.703,233.873,23.778,234.307,23.778
	 M234.16,17.771c0.239,0,0.444,0.053,0.607,0.152c0.17,0.099,0.304,0.245,0.403,0.432c0.1,0.188,0.176,0.409,0.223,0.672
	c0.046,0.264,0.069,0.551,0.069,0.865h-2.753c0.041-0.695,0.182-1.221,0.422-1.583C233.371,17.952,233.716,17.771,234.16,17.771
	 M227.988,23.778c0.357,0,0.678-0.041,0.97-0.116c0.287-0.076,0.538-0.199,0.742-0.352c0.205-0.163,0.369-0.355,0.48-0.59
	c0.11-0.234,0.169-0.509,0.169-0.818c0-0.252-0.035-0.468-0.105-0.66c-0.069-0.192-0.175-0.362-0.32-0.515
	c-0.147-0.151-0.334-0.292-0.562-0.421c-0.228-0.128-0.497-0.257-0.813-0.391c-0.264-0.111-0.491-0.205-0.679-0.292
	c-0.192-0.088-0.345-0.183-0.461-0.275c-0.123-0.094-0.211-0.193-0.263-0.304c-0.053-0.111-0.082-0.245-0.082-0.397
	c0-0.141,0.022-0.269,0.063-0.386s0.111-0.216,0.205-0.304c0.087-0.088,0.204-0.152,0.351-0.199c0.146-0.046,0.315-0.07,0.52-0.07
	c0.357,0,0.614,0.111,0.783,0.333c0.164,0.223,0.246,0.532,0.246,0.936c0.275,0,0.491-0.064,0.643-0.193
	c0.146-0.134,0.223-0.309,0.223-0.526c0-0.146-0.035-0.285-0.111-0.42s-0.187-0.252-0.333-0.351c-0.146-0.099-0.333-0.181-0.55-0.24
	c-0.216-0.058-0.467-0.087-0.754-0.087c-0.339,0-0.648,0.035-0.923,0.111c-0.275,0.076-0.515,0.181-0.713,0.327
	c-0.199,0.14-0.352,0.315-0.456,0.525c-0.111,0.21-0.163,0.45-0.163,0.726c0,0.263,0.035,0.484,0.11,0.678
	c0.076,0.187,0.188,0.355,0.333,0.502c0.146,0.146,0.339,0.287,0.567,0.415c0.228,0.123,0.491,0.257,0.8,0.392
	c0.287,0.122,0.526,0.234,0.719,0.333c0.193,0.1,0.346,0.193,0.456,0.286c0.111,0.094,0.188,0.193,0.234,0.304
	c0.041,0.105,0.063,0.234,0.063,0.381c0,0.157-0.028,0.31-0.088,0.443c-0.058,0.135-0.14,0.246-0.251,0.346
	c-0.11,0.093-0.251,0.169-0.415,0.222s-0.351,0.076-0.566,0.076c-0.239,0-0.444-0.041-0.608-0.117
	c-0.169-0.082-0.303-0.193-0.403-0.327c-0.099-0.14-0.175-0.304-0.216-0.485c-0.041-0.181-0.063-0.38-0.063-0.59l-0.234,0.04
	l-0.246,0.129c-0.075,0.064-0.14,0.146-0.191,0.257c-0.054,0.105-0.082,0.24-0.082,0.398c0,0.21,0.047,0.391,0.14,0.555
	c0.094,0.152,0.229,0.286,0.397,0.397c0.17,0.104,0.38,0.187,0.626,0.233C227.415,23.755,227.69,23.778,227.988,23.778
	 M221.953,17.724c0.245,0,0.444,0.035,0.59,0.105c0.141,0.075,0.258,0.176,0.333,0.304c0.076,0.135,0.13,0.287,0.152,0.468
	c0.024,0.182,0.035,0.38,0.035,0.596v0.72l-0.993,0.035c-0.918,0.028-1.602,0.192-2.052,0.502s-0.677,0.777-0.677,1.415
	c0,0.326,0.046,0.606,0.14,0.847c0.093,0.24,0.222,0.438,0.391,0.596c0.164,0.158,0.363,0.275,0.591,0.352
	c0.229,0.075,0.474,0.116,0.736,0.116c0.251,0,0.462-0.029,0.644-0.088c0.175-0.053,0.333-0.134,0.473-0.233
	s0.269-0.223,0.386-0.362s0.24-0.292,0.362-0.462h0.1l0.188,1.029h1.618v-0.503h-0.035c-0.134,0-0.245-0.012-0.339-0.041
	c-0.1-0.029-0.176-0.076-0.233-0.141c-0.059-0.063-0.1-0.151-0.129-0.263s-0.041-0.245-0.041-0.415v-3.104
	c0-0.38-0.047-0.707-0.134-0.97c-0.095-0.263-0.234-0.474-0.415-0.637c-0.182-0.164-0.409-0.281-0.685-0.357
	c-0.274-0.069-0.59-0.104-0.958-0.104c-0.298,0-0.572,0.022-0.836,0.063c-0.263,0.041-0.49,0.111-0.689,0.199
	c-0.193,0.094-0.351,0.21-0.461,0.357c-0.111,0.146-0.17,0.32-0.17,0.525c0,0.274,0.088,0.474,0.257,0.584
	c0.176,0.111,0.427,0.169,0.76,0.169c0-0.187,0.012-0.361,0.041-0.52c0.029-0.157,0.082-0.298,0.164-0.415
	c0.076-0.116,0.187-0.21,0.333-0.274C221.538,17.753,221.726,17.724,221.953,17.724 M220.504,21.926
	c0-0.234,0.029-0.438,0.088-0.619c0.063-0.182,0.164-0.328,0.304-0.45c0.14-0.129,0.327-0.222,0.549-0.293
	c0.234-0.063,0.515-0.104,0.854-0.122l0.765-0.034v0.97c0,0.251-0.035,0.484-0.111,0.688c-0.076,0.205-0.181,0.38-0.314,0.526
	c-0.142,0.146-0.311,0.257-0.503,0.333c-0.199,0.076-0.422,0.117-0.66,0.117c-0.333,0-0.573-0.094-0.731-0.28
	C220.585,22.581,220.504,22.3,220.504,21.926 M215.931,14.995c-0.631,0-1.188,0.104-1.666,0.32c-0.479,0.218-0.882,0.516-1.198,0.9
	c-0.327,0.386-0.567,0.848-0.73,1.385c-0.164,0.538-0.245,1.128-0.245,1.777c0,0.66,0.075,1.257,0.233,1.8
	c0.158,0.544,0.386,1.005,0.695,1.391c0.304,0.387,0.684,0.685,1.134,0.895c0.45,0.211,0.976,0.315,1.572,0.315
	c0.443,0,0.83-0.041,1.151-0.129c0.321-0.082,0.591-0.187,0.801-0.314c0.211-0.129,0.367-0.27,0.468-0.434
	c0.104-0.151,0.158-0.31,0.158-0.462c0-0.122-0.024-0.216-0.065-0.292l-0.163-0.175c-0.1,0.134-0.217,0.257-0.351,0.38
	c-0.129,0.122-0.281,0.234-0.45,0.327c-0.17,0.094-0.368,0.169-0.59,0.222c-0.229,0.06-0.485,0.088-0.778,0.088
	c-0.438,0-0.818-0.088-1.127-0.263c-0.316-0.176-0.573-0.421-0.778-0.742c-0.204-0.315-0.35-0.695-0.443-1.14
	c-0.093-0.444-0.141-0.935-0.141-1.467c0-0.603,0.048-1.134,0.135-1.602c0.088-0.462,0.233-0.853,0.433-1.175
	c0.198-0.314,0.456-0.555,0.771-0.725c0.315-0.163,0.7-0.245,1.15-0.245c0.263,0,0.48,0.047,0.661,0.134
	c0.175,0.094,0.321,0.211,0.432,0.357c0.111,0.146,0.188,0.315,0.24,0.497c0.047,0.181,0.07,0.367,0.07,0.555
	c0.146,0,0.286-0.018,0.415-0.059c0.123-0.041,0.233-0.094,0.327-0.163c0.094-0.076,0.17-0.164,0.222-0.264
	c0.053-0.104,0.076-0.222,0.076-0.351c0-0.193-0.046-0.368-0.146-0.532c-0.099-0.163-0.251-0.304-0.45-0.426
	c-0.203-0.123-0.456-0.217-0.754-0.281C216.695,15.029,216.34,14.995,215.931,14.995 M205.336,23.778
	c0.357,0,0.661-0.041,0.925-0.116c0.263-0.076,0.484-0.176,0.659-0.292c0.176-0.117,0.305-0.246,0.392-0.387
	c0.088-0.135,0.129-0.263,0.129-0.386c0-0.099-0.023-0.187-0.076-0.263l-0.152-0.146c-0.069,0.111-0.157,0.211-0.274,0.311
	c-0.105,0.099-0.233,0.192-0.379,0.269c-0.147,0.076-0.305,0.141-0.48,0.188c-0.181,0.046-0.374,0.069-0.578,0.069
	c-0.287,0-0.538-0.047-0.754-0.146c-0.216-0.094-0.402-0.24-0.549-0.444c-0.152-0.205-0.269-0.462-0.345-0.777
	c-0.082-0.31-0.129-0.684-0.135-1.122h3.985v-0.55c0-0.473-0.058-0.888-0.169-1.244c-0.117-0.356-0.281-0.654-0.497-0.895
	s-0.474-0.415-0.783-0.538c-0.31-0.122-0.654-0.181-1.041-0.181c-0.847,0-1.501,0.281-1.963,0.848s-0.689,1.408-0.689,2.524
	c0,0.52,0.064,0.981,0.192,1.385c0.123,0.409,0.305,0.754,0.544,1.035c0.239,0.28,0.531,0.491,0.877,0.637
	C204.519,23.703,204.904,23.778,205.336,23.778 M205.19,17.771c0.24,0,0.444,0.053,0.608,0.152c0.169,0.099,0.304,0.245,0.402,0.432
	c0.1,0.188,0.175,0.409,0.223,0.672c0.047,0.264,0.069,0.551,0.069,0.865h-2.752c0.041-0.695,0.181-1.221,0.42-1.583
	C204.401,17.952,204.746,17.771,205.19,17.771 M195.023,17.748h0.035c0.117,0,0.217,0.011,0.304,0.028l0.229,0.1l0.176,0.199
	c0.052,0.082,0.099,0.187,0.146,0.31l1.922,5.277h1.094l1.888-4.979c0.076-0.193,0.14-0.345,0.204-0.468
	c0.059-0.123,0.123-0.216,0.188-0.286l0.223-0.146c0.081-0.024,0.181-0.035,0.298-0.035h0.146v-0.503h-2.565v0.503h0.088
	c0.263,0,0.461,0.046,0.59,0.14c0.134,0.093,0.199,0.245,0.199,0.45l-0.029,0.233c-0.012,0.088-0.041,0.182-0.082,0.28l-0.858,2.332
	c-0.054,0.146-0.111,0.292-0.171,0.45c-0.063,0.158-0.123,0.31-0.175,0.456c-0.059,0.152-0.11,0.292-0.151,0.415
	c-0.048,0.128-0.082,0.232-0.1,0.321h-0.041c-0.018-0.1-0.041-0.229-0.082-0.368c-0.041-0.152-0.082-0.305-0.129-0.469
	c-0.052-0.162-0.104-0.326-0.158-0.502c-0.052-0.164-0.104-0.321-0.156-0.462l-0.813-2.262l-0.07-0.233l-0.022-0.204
	c0-0.199,0.058-0.346,0.181-0.438c0.117-0.094,0.298-0.14,0.538-0.14h0.152v-0.503h-2.993V17.748z M192.398,15.305
	c0,0.14,0.018,0.257,0.053,0.35c0.035,0.095,0.082,0.171,0.146,0.229l0.216,0.129c0.082,0.023,0.17,0.035,0.269,0.035
	c0.095,0,0.182-0.012,0.264-0.035l0.216-0.129c0.059-0.058,0.104-0.134,0.141-0.229c0.04-0.093,0.059-0.21,0.059-0.35
	c0-0.141-0.019-0.257-0.059-0.351c-0.036-0.094-0.082-0.169-0.146-0.229l-0.21-0.123c-0.082-0.022-0.169-0.035-0.264-0.035
	c-0.099,0-0.187,0.013-0.269,0.035l-0.216,0.123c-0.064,0.06-0.111,0.135-0.146,0.229S192.398,15.164,192.398,15.305
	 M191.586,23.159h-0.157v0.503h3.4v-0.503h-0.157c-0.135,0-0.257-0.012-0.38-0.029c-0.123-0.019-0.222-0.059-0.31-0.117
	c-0.093-0.064-0.164-0.152-0.21-0.263c-0.06-0.111-0.082-0.264-0.082-0.45v-5.055h-2.139v0.503h0.034
	c0.135,0,0.258,0.011,0.374,0.028c0.123,0.018,0.229,0.059,0.316,0.117c0.087,0.059,0.157,0.141,0.21,0.251
	c0.053,0.105,0.082,0.245,0.082,0.421v3.793c0,0.176-0.029,0.315-0.082,0.427c-0.053,0.104-0.123,0.187-0.21,0.239
	c-0.088,0.053-0.193,0.094-0.316,0.111C191.844,23.152,191.721,23.159,191.586,23.159 M188.272,23.778
	c0.356,0,0.678-0.041,0.971-0.116c0.286-0.076,0.537-0.199,0.742-0.352c0.204-0.163,0.368-0.355,0.479-0.59
	c0.11-0.234,0.169-0.509,0.169-0.818c0-0.252-0.035-0.468-0.105-0.66s-0.175-0.362-0.321-0.515
	c-0.146-0.151-0.333-0.292-0.561-0.421c-0.229-0.128-0.497-0.257-0.813-0.391c-0.263-0.111-0.489-0.205-0.677-0.292
	c-0.193-0.088-0.345-0.183-0.462-0.275c-0.123-0.094-0.211-0.193-0.263-0.304c-0.054-0.111-0.082-0.245-0.082-0.397
	c0-0.141,0.022-0.269,0.063-0.386s0.111-0.216,0.205-0.304c0.087-0.088,0.204-0.152,0.351-0.199c0.146-0.046,0.315-0.07,0.521-0.07
	c0.356,0,0.613,0.111,0.783,0.333c0.163,0.223,0.245,0.532,0.245,0.936c0.274,0,0.491-0.064,0.643-0.193
	c0.146-0.134,0.223-0.309,0.223-0.526c0-0.146-0.035-0.285-0.111-0.42s-0.188-0.252-0.333-0.351
	c-0.146-0.099-0.333-0.181-0.549-0.24c-0.218-0.058-0.469-0.087-0.754-0.087c-0.34,0-0.649,0.035-0.925,0.111
	c-0.273,0.076-0.514,0.181-0.713,0.327c-0.197,0.14-0.35,0.315-0.455,0.525c-0.11,0.21-0.164,0.45-0.164,0.726
	c0,0.263,0.035,0.484,0.111,0.678c0.076,0.187,0.188,0.355,0.333,0.502c0.146,0.146,0.339,0.287,0.567,0.415
	c0.228,0.123,0.49,0.257,0.801,0.392c0.286,0.122,0.526,0.234,0.718,0.333c0.193,0.1,0.345,0.193,0.456,0.286
	c0.111,0.094,0.188,0.193,0.234,0.304c0.041,0.105,0.063,0.234,0.063,0.381c0,0.157-0.028,0.31-0.087,0.443
	c-0.059,0.135-0.141,0.246-0.252,0.346c-0.111,0.093-0.251,0.169-0.415,0.222c-0.163,0.053-0.35,0.076-0.565,0.076
	c-0.24,0-0.445-0.041-0.608-0.117c-0.17-0.082-0.304-0.193-0.404-0.327c-0.099-0.14-0.175-0.304-0.216-0.485
	c-0.041-0.181-0.063-0.38-0.063-0.59l-0.234,0.04l-0.245,0.129c-0.076,0.064-0.14,0.146-0.193,0.257
	c-0.053,0.105-0.082,0.24-0.082,0.398c0,0.21,0.048,0.391,0.141,0.555c0.094,0.152,0.228,0.286,0.397,0.397
	c0.169,0.104,0.381,0.187,0.625,0.233C187.7,23.755,187.975,23.778,188.272,23.778 M183.978,23.662v-0.503h-0.333
	c-0.134,0-0.257-0.012-0.374-0.023c-0.122-0.024-0.229-0.059-0.315-0.111c-0.088-0.053-0.158-0.135-0.211-0.239
	c-0.052-0.111-0.082-0.251-0.082-0.427v-1.882c0-0.151,0.006-0.322,0.024-0.509c0.017-0.188,0.041-0.374,0.082-0.561
	c0.035-0.193,0.081-0.374,0.14-0.556c0.064-0.181,0.141-0.339,0.223-0.479c0.094-0.136,0.192-0.246,0.31-0.333
	c0.117-0.082,0.251-0.123,0.396-0.123c0.234,0,0.398,0.069,0.491,0.216c0.094,0.146,0.141,0.386,0.141,0.719
	c0.205,0,0.374-0.022,0.515-0.063c0.14-0.041,0.257-0.101,0.344-0.176c0.088-0.075,0.152-0.164,0.199-0.269
	c0.041-0.106,0.059-0.222,0.059-0.345c0-0.275-0.105-0.491-0.315-0.644c-0.216-0.151-0.538-0.228-0.977-0.228
	c-0.263,0-0.484,0.035-0.659,0.099c-0.177,0.071-0.322,0.164-0.439,0.281c-0.122,0.123-0.222,0.257-0.304,0.415
	c-0.081,0.158-0.163,0.327-0.239,0.508h-0.059l-0.229-1.186h-1.84v0.503h0.035c0.134,0,0.257,0.011,0.379,0.028
	c0.117,0.018,0.223,0.059,0.31,0.117c0.088,0.059,0.164,0.141,0.217,0.245c0.053,0.111,0.075,0.251,0.075,0.427V22.3
	c0,0.187-0.022,0.339-0.075,0.45c-0.053,0.11-0.122,0.198-0.211,0.257c-0.088,0.064-0.192,0.104-0.31,0.123
	c-0.122,0.018-0.251,0.029-0.385,0.029h-0.035v0.503H183.978z M178.844,22.358v-5.113h-2.14v0.503h0.035
	c0.134,0,0.263,0.011,0.38,0.028c0.123,0.018,0.223,0.059,0.316,0.117c0.087,0.064,0.157,0.152,0.21,0.264
	c0.052,0.116,0.076,0.269,0.076,0.455v2.467c0,0.285-0.029,0.549-0.088,0.789c-0.059,0.238-0.146,0.438-0.27,0.606
	c-0.122,0.17-0.28,0.304-0.467,0.398c-0.193,0.093-0.421,0.14-0.685,0.14c-0.238,0-0.443-0.035-0.602-0.111
	c-0.163-0.069-0.292-0.175-0.386-0.314c-0.1-0.142-0.163-0.311-0.204-0.516c-0.041-0.203-0.064-0.432-0.064-0.694v-4.132h-2.145
	v0.503h0.035c0.134,0,0.257,0.011,0.38,0.028c0.117,0.018,0.222,0.059,0.309,0.117c0.088,0.059,0.164,0.141,0.217,0.245
	c0.053,0.111,0.076,0.251,0.076,0.427v2.869c0,0.409,0.046,0.76,0.134,1.059c0.089,0.298,0.212,0.537,0.381,0.73
	c0.169,0.192,0.374,0.333,0.618,0.42c0.246,0.088,0.526,0.135,0.843,0.135c0.192,0,0.38-0.012,0.561-0.047
	c0.181-0.022,0.352-0.082,0.514-0.164c0.164-0.075,0.322-0.187,0.469-0.326c0.146-0.141,0.274-0.321,0.396-0.55h0.06l0.157,0.971
	h1.899v-0.503h-0.035c-0.135,0-0.257-0.012-0.374-0.023c-0.123-0.024-0.228-0.059-0.315-0.111c-0.087-0.053-0.158-0.135-0.21-0.239
	C178.872,22.674,178.844,22.534,178.844,22.358 M170.042,23.778c0.339,0,0.638-0.034,0.89-0.104
	c0.251-0.065,0.467-0.152,0.637-0.263c0.169-0.112,0.292-0.234,0.38-0.369c0.087-0.134,0.128-0.274,0.128-0.409
	c0-0.111-0.017-0.204-0.058-0.28l-0.146-0.187c-0.135,0.245-0.345,0.443-0.62,0.602c-0.274,0.157-0.602,0.233-0.97,0.233
	c-0.643,0-1.104-0.21-1.385-0.625c-0.286-0.415-0.427-1.053-0.427-1.899c0-0.532,0.035-0.976,0.105-1.333
	c0.07-0.355,0.169-0.637,0.303-0.847c0.136-0.21,0.293-0.357,0.48-0.444c0.181-0.088,0.391-0.129,0.619-0.129
	c0.205,0,0.368,0.035,0.503,0.111c0.128,0.069,0.234,0.17,0.309,0.298c0.076,0.123,0.129,0.269,0.158,0.438s0.047,0.345,0.047,0.531
	c0.357,0,0.619-0.058,0.801-0.169c0.182-0.11,0.27-0.31,0.27-0.584c0-0.205-0.065-0.386-0.188-0.538
	c-0.121-0.158-0.285-0.286-0.484-0.386c-0.198-0.099-0.42-0.175-0.666-0.222c-0.251-0.054-0.497-0.076-0.748-0.076
	c-0.38,0-0.73,0.053-1.052,0.164c-0.327,0.11-0.608,0.292-0.848,0.555s-0.427,0.608-0.561,1.04
	c-0.135,0.427-0.205,0.964-0.205,1.601c0,0.592,0.07,1.094,0.205,1.509c0.134,0.415,0.321,0.754,0.561,1.017
	s0.532,0.462,0.865,0.585C169.277,23.72,169.646,23.778,170.042,23.778 M163.691,23.778c0.355,0,0.66-0.041,0.923-0.116
	c0.263-0.076,0.485-0.176,0.661-0.292c0.175-0.117,0.303-0.246,0.391-0.387c0.088-0.135,0.129-0.263,0.129-0.386
	c0-0.099-0.023-0.187-0.075-0.263l-0.152-0.146c-0.07,0.111-0.158,0.211-0.275,0.311c-0.104,0.099-0.233,0.192-0.38,0.269
	c-0.146,0.076-0.304,0.141-0.479,0.188c-0.182,0.046-0.374,0.069-0.579,0.069c-0.286,0-0.537-0.047-0.753-0.146
	c-0.217-0.094-0.404-0.24-0.55-0.444c-0.152-0.205-0.27-0.462-0.346-0.777c-0.081-0.31-0.128-0.684-0.134-1.122h3.986v-0.55
	c0-0.473-0.06-0.888-0.17-1.244c-0.117-0.356-0.28-0.654-0.497-0.895c-0.216-0.24-0.474-0.415-0.783-0.538
	c-0.309-0.122-0.654-0.181-1.04-0.181c-0.847,0-1.502,0.281-1.964,0.848c-0.461,0.566-0.689,1.408-0.689,2.524
	c0,0.52,0.064,0.981,0.193,1.385c0.122,0.409,0.304,0.754,0.543,1.035c0.24,0.28,0.532,0.491,0.877,0.637
	C162.873,23.703,163.259,23.778,163.691,23.778 M163.545,17.771c0.239,0,0.444,0.053,0.608,0.152
	c0.169,0.099,0.303,0.245,0.403,0.432c0.099,0.188,0.175,0.409,0.222,0.672c0.047,0.264,0.07,0.551,0.07,0.865h-2.753
	c0.041-0.695,0.182-1.221,0.421-1.583C162.756,17.952,163.102,17.771,163.545,17.771 M155.215,19.331v-3.642h0.812
	c0.339,0,0.625,0.036,0.865,0.101c0.233,0.063,0.427,0.163,0.573,0.31c0.146,0.14,0.257,0.321,0.32,0.549
	c0.064,0.223,0.1,0.491,0.1,0.813c0,0.31-0.029,0.585-0.094,0.817c-0.058,0.234-0.157,0.428-0.298,0.585
	c-0.14,0.158-0.327,0.274-0.561,0.351c-0.234,0.076-0.526,0.117-0.877,0.117H155.215z M159.047,22.201l-1.642-2.596
	c0.211-0.069,0.421-0.164,0.631-0.28c0.211-0.116,0.398-0.264,0.567-0.438c0.17-0.175,0.304-0.38,0.404-0.625
	c0.104-0.234,0.156-0.514,0.156-0.836c0-0.771-0.251-1.35-0.759-1.736c-0.509-0.379-1.28-0.571-2.314-0.571h-3.221v0.502h0.152
	c0.135,0,0.257,0.012,0.374,0.029c0.123,0.018,0.228,0.053,0.315,0.111c0.088,0.058,0.158,0.14,0.21,0.251
	c0.054,0.105,0.082,0.245,0.082,0.421v5.926c0,0.176-0.028,0.315-0.082,0.427c-0.052,0.104-0.122,0.187-0.21,0.239
	s-0.192,0.094-0.315,0.111c-0.117,0.017-0.239,0.023-0.374,0.023h-0.152v0.503h3.483v-0.503h-0.158
	c-0.134,0-0.257-0.007-0.379-0.023c-0.117-0.018-0.222-0.059-0.311-0.111c-0.088-0.053-0.157-0.135-0.21-0.239
	c-0.053-0.111-0.081-0.251-0.081-0.427v-2.467h0.992l1.619,2.695c0.134,0.227,0.264,0.409,0.386,0.549
	c0.117,0.14,0.258,0.251,0.427,0.327c0.17,0.076,0.369,0.129,0.613,0.158c0.24,0.028,0.543,0.041,0.917,0.041h0.171v-0.503h-0.035
	c-0.251,0-0.474-0.082-0.666-0.239C159.445,22.762,159.252,22.521,159.047,22.201 M150.204,19.869c0-0.474,0.019-0.947,0.059-1.408
	c0.036-0.462,0.116-0.9,0.239-1.315s0.311-0.795,0.55-1.14c0.245-0.352,0.572-0.649,0.981-0.9v-0.538
	c-0.549,0.218-1.017,0.48-1.408,0.795c-0.392,0.305-0.707,0.679-0.959,1.105c-0.245,0.426-0.426,0.923-0.537,1.478
	c-0.11,0.562-0.17,1.204-0.17,1.924c0,0.719,0.06,1.361,0.17,1.923c0.111,0.566,0.292,1.063,0.537,1.49
	c0.252,0.432,0.567,0.806,0.959,1.115c0.392,0.311,0.859,0.579,1.408,0.795v-0.549c-0.409-0.252-0.736-0.55-0.981-0.899
	c-0.239-0.352-0.427-0.737-0.55-1.152s-0.203-0.854-0.239-1.315C150.223,20.815,150.204,20.342,150.204,19.869"/>
</svg>
