<?xml version="1.0" encoding="iso-8859-1"?>
<!-- Generator: Adobe Illustrator 14.0.0, SVG Export Plug-In . SVG Version: 6.00 Build 43363)  -->
<!DOCTYPE svg PUBLIC "-//W3C//DTD SVG 1.1//EN" "http://www.w3.org/Graphics/SVG/1.1/DTD/svg11.dtd">
<svg version="1.1" id="Layer_1" xmlns="http://www.w3.org/2000/svg" xmlns:xlink="http://www.w3.org/1999/xlink" x="0px" y="0px"
	 width="290.381px" height="26.842px" viewBox="0 0 290.381 26.842" style="enable-background:new 0 0 290.381 26.842;"
	 xml:space="preserve">
<polygon points="1.285,9.168 1.285,9.604 2.019,9.673 2.134,9.834 0.906,16.213 0.723,16.374 0,16.432 0,16.867 2.88,16.867 
	2.88,16.408 2.077,16.352 1.916,16.18 2.478,13.253 4.096,13.253 4.234,13.426 4.188,14.251 4.681,14.251 5.175,11.728 4.67,11.728 
	4.406,12.554 4.2,12.726 2.582,12.726 3.155,9.696 5.473,9.696 5.588,9.879 5.588,10.971 6.139,10.971 6.494,9.168 "/>
<path d="M7.715,15.776l-1.131,0.252v0.19l0.626,0.115l-0.634,3.127h0.65L7.7,16.877c0.466-0.428,0.871-0.627,1.131-0.627
	c0.291,0,0.413,0.146,0.413,0.482c0,0.099-0.015,0.267-0.069,0.488l-0.329,1.414c-0.038,0.168-0.061,0.314-0.061,0.413
	c0,0.307,0.184,0.459,0.558,0.459c0.214,0,0.52-0.077,0.918-0.229v-0.214c-0.176,0.046-0.314,0.068-0.421,0.068
	c-0.252,0-0.397-0.13-0.397-0.375c0-0.113,0.038-0.281,0.084-0.504l0.26-1.185c0.061-0.275,0.107-0.489,0.107-0.681
	c0-0.375-0.245-0.611-0.642-0.611c-0.406,0-0.88,0.252-1.483,0.733l0.137-0.733H7.715z"/>
<path d="M14.395,15.146h7.711v-0.688h-7.711V15.146z M14.395,12.668h7.711v-0.688h-7.711V12.668z"/>
<path d="M28.253,13.577c0.448,0.241,0.815,0.597,1.021,1.079c0.459,1.066,0.608,2.214,0.608,3.373c0,0.688-0.057,1.377-0.126,2.065
	c-0.057,0.631-0.103,1.263-0.103,1.894c0,0.895,0.092,1.777,0.356,2.639c0.252,0.815,0.814,1.538,1.629,1.538v0.677
	c-1.079,0-1.997-0.734-2.421-1.732c-0.459-1.067-0.62-2.216-0.62-3.374c0-0.585,0.046-1.17,0.104-1.744
	c0.08-0.85,0.16-1.698,0.16-2.536c0-0.896-0.092-1.767-0.356-2.627c-0.206-0.666-0.963-0.918-1.686-0.918v-0.666
	c0.723,0,1.48-0.252,1.686-0.918c0.264-0.86,0.356-1.732,0.356-2.627c0-0.838-0.08-1.688-0.16-2.536
	c-0.058-0.574-0.104-1.159-0.104-1.744c0-1.159,0.161-2.307,0.62-3.374c0.424-0.998,1.342-1.732,2.421-1.732v0.677
	c-0.815,0-1.377,0.723-1.629,1.538c-0.264,0.86-0.356,1.744-0.356,2.639c0,0.631,0.046,1.262,0.103,1.893
	c0.069,0.689,0.126,1.378,0.126,2.066c0,1.159-0.149,2.306-0.608,3.373C29.068,12.98,28.701,13.336,28.253,13.577"/>
<polygon points="41.578,1.38 39.087,2.126 39.087,2.607 40.89,2.286 40.89,8.46 40.751,8.654 39.432,8.724 39.432,9.217 
	43.275,9.217 43.275,8.734 42.037,8.678 41.898,8.506 41.898,1.38 "/>
<path d="M110.886,8.714h-0.455c-0.135,0-0.258-0.012-0.38-0.028c-0.123-0.019-0.222-0.06-0.31-0.117
	c-0.094-0.064-0.164-0.152-0.21-0.263c-0.059-0.111-0.082-0.264-0.082-0.45V3.367h1.689V2.8h-1.689V2.093
	c0-0.252,0.011-0.474,0.047-0.667c0.023-0.191,0.075-0.35,0.146-0.479c0.07-0.134,0.163-0.234,0.274-0.298
	c0.117-0.064,0.263-0.1,0.433-0.1c0.152,0,0.28,0.029,0.38,0.082c0.099,0.053,0.181,0.128,0.239,0.217
	c0.064,0.087,0.105,0.192,0.129,0.31c0.029,0.111,0.041,0.227,0.041,0.35c0.146,0,0.274-0.011,0.391-0.041
	c0.123-0.028,0.222-0.075,0.31-0.128l0.205-0.211c0.052-0.087,0.076-0.181,0.076-0.292c0-0.123-0.03-0.238-0.088-0.339
	c-0.059-0.099-0.152-0.187-0.286-0.263c-0.129-0.076-0.299-0.128-0.515-0.169S110.752,0,110.442,0c-0.327,0-0.619,0.047-0.882,0.147
	c-0.263,0.093-0.485,0.232-0.666,0.42c-0.182,0.187-0.322,0.415-0.421,0.689c-0.1,0.275-0.146,0.591-0.146,0.947V2.8h-1.093v0.567
	h1.093v4.488c0,0.187-0.03,0.339-0.082,0.45c-0.053,0.11-0.123,0.198-0.211,0.263c-0.087,0.058-0.187,0.099-0.309,0.117
	c-0.117,0.017-0.246,0.028-0.38,0.028h-0.158v0.503h3.699V8.714z M104.288,0.86c0,0.14,0.018,0.257,0.053,0.35
	c0.035,0.095,0.082,0.17,0.146,0.229l0.216,0.129c0.082,0.022,0.17,0.035,0.269,0.035c0.094,0,0.181-0.013,0.263-0.035l0.216-0.129
	c0.059-0.059,0.106-0.134,0.141-0.229c0.04-0.093,0.058-0.21,0.058-0.35c0-0.141-0.018-0.258-0.058-0.352
	c-0.035-0.094-0.082-0.17-0.147-0.228l-0.21-0.123c-0.082-0.023-0.169-0.035-0.263-0.035c-0.099,0-0.187,0.012-0.269,0.035
	l-0.216,0.123c-0.064,0.058-0.111,0.134-0.146,0.228C104.306,0.603,104.288,0.72,104.288,0.86 M103.476,8.714h-0.158v0.503h3.401
	V8.714h-0.157c-0.135,0-0.257-0.012-0.38-0.028c-0.123-0.019-0.222-0.06-0.31-0.117c-0.093-0.064-0.164-0.152-0.21-0.263
	c-0.059-0.111-0.082-0.264-0.082-0.45V2.8h-2.139v0.502h0.035c0.134,0,0.257,0.013,0.374,0.03c0.123,0.018,0.228,0.059,0.316,0.116
	c0.087,0.059,0.157,0.141,0.21,0.252c0.053,0.105,0.082,0.245,0.082,0.421v3.792c0,0.176-0.029,0.316-0.082,0.427
	c-0.053,0.105-0.123,0.188-0.21,0.24c-0.088,0.052-0.193,0.093-0.316,0.111C103.732,8.708,103.609,8.714,103.476,8.714"/>
<path d="M116.749,3.687l-1.698,0.379v0.286l0.941,0.173l-0.953,4.692h0.976l0.711-3.879c0.7-0.642,1.308-0.94,1.698-0.94
	c0.436,0,0.62,0.218,0.62,0.723c0,0.148-0.023,0.402-0.103,0.735l-0.494,2.123c-0.057,0.252-0.092,0.47-0.092,0.618
	c0,0.459,0.276,0.689,0.838,0.689c0.321,0,0.78-0.115,1.377-0.345V8.62c-0.264,0.069-0.47,0.103-0.631,0.103
	c-0.379,0-0.597-0.194-0.597-0.562c0-0.172,0.058-0.424,0.126-0.757l0.391-1.779c0.091-0.413,0.16-0.734,0.16-1.021
	c0-0.563-0.367-0.918-0.964-0.918c-0.608,0-1.319,0.379-2.226,1.102l0.207-1.102H116.749z"/>
<path d="M124.365,7.496h7.711V6.808h-7.711V7.496z M124.365,5.017h7.711V4.329h-7.711V5.017z"/>
<path d="M138.613,1.919c1.056,0,1.629,1.171,1.629,3.442c0,2.272-0.573,3.442-1.629,3.442c-1.056,0-1.641-1.159-1.641-3.431
	C136.972,3.09,137.557,1.919,138.613,1.919 M138.613,1.38c-1.641,0-2.719,1.445-2.719,3.981s1.078,3.993,2.719,3.993
	s2.719-1.457,2.719-3.993S140.254,1.38,138.613,1.38"/>
<path d="M155.661,9.217V8.715h-0.333c-0.135,0-0.257-0.012-0.374-0.024c-0.123-0.022-0.229-0.058-0.316-0.11
	c-0.087-0.053-0.157-0.135-0.21-0.24c-0.053-0.111-0.082-0.251-0.082-0.426V6.032c0-0.152,0.006-0.321,0.024-0.509
	c0.017-0.187,0.041-0.374,0.081-0.561c0.034-0.193,0.082-0.374,0.141-0.556c0.064-0.182,0.14-0.34,0.222-0.479
	c0.094-0.134,0.193-0.245,0.311-0.333c0.116-0.082,0.251-0.123,0.396-0.123c0.234,0,0.397,0.07,0.491,0.217
	c0.093,0.146,0.14,0.386,0.14,0.719c0.205,0,0.374-0.023,0.515-0.064s0.258-0.099,0.345-0.175c0.088-0.076,0.152-0.164,0.199-0.27
	c0.041-0.104,0.058-0.222,0.058-0.345c0-0.275-0.104-0.491-0.314-0.643c-0.218-0.152-0.538-0.229-0.977-0.229
	c-0.263,0-0.484,0.035-0.661,0.101c-0.175,0.069-0.32,0.162-0.438,0.279c-0.123,0.123-0.222,0.257-0.304,0.415
	s-0.163,0.327-0.239,0.509h-0.06L154.047,2.8h-1.841v0.503h0.035c0.135,0,0.257,0.012,0.38,0.029
	c0.117,0.018,0.222,0.059,0.31,0.117c0.088,0.058,0.164,0.14,0.216,0.244c0.054,0.111,0.076,0.252,0.076,0.428v3.733
	c0,0.188-0.022,0.339-0.076,0.45c-0.052,0.111-0.123,0.199-0.21,0.258c-0.088,0.064-0.192,0.105-0.31,0.122
	c-0.123,0.019-0.251,0.03-0.386,0.03h-0.035v0.502H155.661z M146.727,5.997c0-0.444,0.029-0.836,0.088-1.169s0.152-0.613,0.28-0.842
	c0.129-0.222,0.298-0.392,0.503-0.503c0.204-0.11,0.462-0.169,0.76-0.169c0.299,0,0.555,0.059,0.766,0.169
	c0.205,0.111,0.374,0.281,0.503,0.503c0.128,0.229,0.222,0.509,0.28,0.842s0.088,0.725,0.088,1.169c0,0.443-0.029,0.836-0.082,1.175
	c-0.059,0.339-0.152,0.619-0.28,0.847c-0.129,0.229-0.298,0.403-0.503,0.521c-0.204,0.116-0.462,0.176-0.76,0.176
	c-0.299,0-0.555-0.06-0.76-0.176c-0.211-0.117-0.379-0.292-0.509-0.521c-0.134-0.228-0.228-0.508-0.286-0.847
	S146.727,6.44,146.727,5.997 M151.158,5.997c0-0.562-0.064-1.046-0.193-1.468c-0.123-0.408-0.304-0.76-0.549-1.027
	c-0.234-0.281-0.526-0.48-0.871-0.62c-0.345-0.128-0.731-0.199-1.163-0.199c-0.93,0-1.625,0.275-2.098,0.819
	c-0.473,0.543-0.713,1.379-0.713,2.495c0,0.561,0.064,1.052,0.193,1.467c0.123,0.421,0.31,0.771,0.549,1.046
	c0.24,0.275,0.526,0.485,0.871,0.619c0.345,0.135,0.731,0.205,1.163,0.205c0.918,0,1.619-0.275,2.098-0.824
	C150.917,7.961,151.158,7.125,151.158,5.997"/>
<path d="M162.912,3.687l-1.698,0.379v0.286l0.941,0.173l-0.953,4.692h0.977l0.711-3.879c0.699-0.642,1.308-0.94,1.697-0.94
	c0.437,0,0.62,0.218,0.62,0.723c0,0.148-0.022,0.402-0.103,0.735l-0.494,2.123c-0.057,0.252-0.092,0.47-0.092,0.618
	c0,0.459,0.275,0.689,0.838,0.689c0.321,0,0.78-0.115,1.377-0.345V8.62c-0.264,0.069-0.47,0.103-0.631,0.103
	c-0.379,0-0.598-0.194-0.598-0.562c0-0.172,0.059-0.424,0.127-0.757l0.391-1.779c0.091-0.413,0.16-0.734,0.16-1.021
	c0-0.563-0.367-0.918-0.964-0.918c-0.608,0-1.319,0.379-2.227,1.102l0.207-1.102H162.912z"/>
<path d="M170.528,7.496h7.711V6.808h-7.711V7.496z M170.528,5.017h7.711V4.329h-7.711V5.017z"/>
<polygon points="185.155,1.38 182.665,2.126 182.665,2.607 184.466,2.286 184.466,8.46 184.329,8.654 183.008,8.724 183.008,9.217 
	186.852,9.217 186.852,8.734 185.614,8.678 185.475,8.506 185.475,1.38 "/>
<path d="M264.987,5.424c0,0.474-0.018,0.947-0.053,1.408c-0.041,0.462-0.123,0.9-0.246,1.315c-0.129,0.415-0.315,0.801-0.555,1.151
	c-0.24,0.351-0.566,0.648-0.976,0.9v0.549c0.549-0.216,1.017-0.485,1.408-0.795c0.392-0.311,0.707-0.685,0.952-1.11
	c0.245-0.433,0.428-0.929,0.538-1.496c0.116-0.561,0.176-1.204,0.176-1.923s-0.06-1.361-0.176-1.917
	c-0.11-0.561-0.293-1.058-0.538-1.483c-0.245-0.428-0.561-0.795-0.952-1.105c-0.392-0.31-0.859-0.578-1.408-0.795v0.538
	c0.409,0.251,0.735,0.549,0.976,0.9c0.239,0.345,0.426,0.725,0.555,1.14c0.123,0.415,0.205,0.853,0.246,1.314
	C264.969,4.478,264.987,4.951,264.987,5.424 M259.89,9.334c0.357,0,0.679-0.041,0.971-0.117c0.287-0.076,0.538-0.199,0.741-0.351
	c0.205-0.163,0.369-0.356,0.48-0.59c0.111-0.234,0.169-0.51,0.169-0.818c0-0.252-0.035-0.468-0.104-0.661
	c-0.07-0.191-0.176-0.362-0.322-0.514c-0.146-0.152-0.333-0.292-0.562-0.421c-0.228-0.128-0.496-0.257-0.812-0.392
	c-0.264-0.11-0.491-0.205-0.678-0.292c-0.193-0.088-0.346-0.182-0.463-0.274c-0.121-0.095-0.21-0.193-0.263-0.305
	c-0.052-0.11-0.081-0.244-0.081-0.396c0-0.141,0.023-0.27,0.064-0.386c0.041-0.117,0.11-0.217,0.205-0.305
	c0.087-0.088,0.204-0.151,0.35-0.198c0.146-0.047,0.316-0.07,0.521-0.07c0.356,0,0.613,0.111,0.782,0.333
	c0.164,0.222,0.246,0.532,0.246,0.935c0.275,0,0.491-0.063,0.644-0.192C261.924,4.185,262,4.01,262,3.793
	c0-0.146-0.035-0.286-0.111-0.42c-0.076-0.135-0.187-0.252-0.333-0.351c-0.146-0.1-0.333-0.182-0.55-0.24
	c-0.216-0.059-0.467-0.087-0.754-0.087c-0.339,0-0.648,0.035-0.923,0.11c-0.275,0.076-0.514,0.182-0.713,0.327
	c-0.199,0.141-0.352,0.316-0.456,0.526c-0.111,0.21-0.163,0.45-0.163,0.725c0,0.264,0.035,0.485,0.111,0.679
	c0.075,0.187,0.187,0.355,0.333,0.502c0.146,0.146,0.339,0.286,0.566,0.415c0.229,0.123,0.49,0.257,0.8,0.392
	c0.287,0.122,0.526,0.234,0.72,0.333c0.192,0.099,0.345,0.193,0.456,0.286c0.11,0.094,0.187,0.192,0.233,0.304
	c0.041,0.105,0.064,0.234,0.064,0.38c0,0.158-0.029,0.311-0.088,0.444c-0.059,0.135-0.141,0.246-0.251,0.345
	c-0.111,0.093-0.251,0.169-0.415,0.222c-0.164,0.054-0.352,0.076-0.567,0.076c-0.239,0-0.444-0.041-0.608-0.117
	c-0.169-0.081-0.304-0.192-0.402-0.326c-0.1-0.141-0.175-0.305-0.216-0.485s-0.064-0.38-0.064-0.59l-0.234,0.04l-0.245,0.129
	c-0.076,0.063-0.141,0.146-0.192,0.257c-0.053,0.105-0.082,0.24-0.082,0.398c0,0.21,0.046,0.391,0.14,0.555
	c0.094,0.152,0.229,0.286,0.397,0.396c0.17,0.105,0.38,0.188,0.626,0.234C259.318,9.31,259.592,9.334,259.89,9.334 M254.416,9.334
	c0.357,0,0.66-0.041,0.923-0.117s0.485-0.175,0.661-0.292c0.175-0.117,0.304-0.246,0.391-0.386c0.088-0.135,0.129-0.263,0.129-0.386
	c0-0.1-0.022-0.188-0.075-0.264l-0.152-0.146c-0.07,0.111-0.158,0.211-0.275,0.31c-0.104,0.1-0.232,0.193-0.38,0.27
	c-0.146,0.076-0.303,0.14-0.479,0.187c-0.182,0.046-0.374,0.07-0.578,0.07c-0.287,0-0.538-0.047-0.754-0.146
	c-0.216-0.094-0.403-0.239-0.55-0.443c-0.151-0.205-0.269-0.462-0.345-0.778c-0.082-0.309-0.129-0.683-0.135-1.122h3.986V5.541
	c0-0.473-0.059-0.888-0.17-1.245c-0.116-0.355-0.28-0.654-0.496-0.894c-0.217-0.24-0.475-0.415-0.783-0.538
	c-0.31-0.122-0.655-0.182-1.041-0.182c-0.847,0-1.502,0.281-1.963,0.849c-0.462,0.565-0.69,1.408-0.69,2.523
	c0,0.521,0.064,0.982,0.193,1.386c0.123,0.408,0.304,0.754,0.543,1.034c0.24,0.28,0.532,0.491,0.877,0.638
	C253.597,9.258,253.984,9.334,254.416,9.334 M254.269,3.326c0.24,0,0.444,0.053,0.608,0.152c0.169,0.099,0.304,0.244,0.403,0.432
	c0.099,0.187,0.175,0.409,0.222,0.672s0.07,0.55,0.07,0.865h-2.752c0.041-0.695,0.181-1.222,0.42-1.583
	C253.481,3.507,253.826,3.326,254.269,3.326 M248.098,9.334c0.356,0,0.678-0.041,0.971-0.117c0.285-0.076,0.537-0.199,0.741-0.351
	c0.204-0.163,0.368-0.356,0.479-0.59c0.111-0.234,0.17-0.51,0.17-0.818c0-0.252-0.035-0.468-0.106-0.661
	c-0.069-0.191-0.175-0.362-0.32-0.514c-0.146-0.152-0.333-0.292-0.562-0.421c-0.228-0.128-0.497-0.257-0.812-0.392
	c-0.263-0.11-0.491-0.205-0.678-0.292c-0.193-0.088-0.346-0.182-0.463-0.274c-0.122-0.095-0.21-0.193-0.263-0.305
	c-0.053-0.11-0.082-0.244-0.082-0.396c0-0.141,0.024-0.27,0.064-0.386c0.041-0.117,0.111-0.217,0.205-0.305
	c0.088-0.088,0.205-0.151,0.351-0.198c0.146-0.047,0.315-0.07,0.521-0.07c0.355,0,0.612,0.111,0.782,0.333
	c0.164,0.222,0.245,0.532,0.245,0.935c0.275,0,0.491-0.063,0.644-0.192c0.146-0.135,0.222-0.31,0.222-0.526
	c0-0.146-0.035-0.286-0.111-0.42c-0.076-0.135-0.187-0.252-0.333-0.351c-0.146-0.1-0.333-0.182-0.549-0.24s-0.468-0.087-0.754-0.087
	c-0.339,0-0.649,0.035-0.923,0.11c-0.275,0.076-0.515,0.182-0.713,0.327c-0.199,0.141-0.352,0.316-0.456,0.526
	c-0.111,0.21-0.164,0.45-0.164,0.725c0,0.264,0.035,0.485,0.111,0.679c0.075,0.187,0.187,0.355,0.333,0.502
	c0.146,0.146,0.339,0.286,0.566,0.415c0.229,0.123,0.491,0.257,0.801,0.392c0.286,0.122,0.526,0.234,0.72,0.333
	c0.191,0.099,0.344,0.193,0.455,0.286c0.11,0.094,0.187,0.192,0.233,0.304c0.041,0.105,0.064,0.234,0.064,0.38
	c0,0.158-0.029,0.311-0.087,0.444c-0.06,0.135-0.141,0.246-0.251,0.345c-0.112,0.093-0.252,0.169-0.415,0.222
	c-0.164,0.054-0.352,0.076-0.567,0.076c-0.24,0-0.444-0.041-0.608-0.117c-0.17-0.081-0.304-0.192-0.402-0.326
	c-0.101-0.141-0.176-0.305-0.217-0.485c-0.04-0.181-0.064-0.38-0.064-0.59l-0.234,0.04l-0.244,0.129
	c-0.076,0.063-0.141,0.146-0.193,0.257c-0.053,0.105-0.082,0.24-0.082,0.398c0,0.21,0.047,0.391,0.141,0.555
	c0.094,0.152,0.228,0.286,0.397,0.396c0.169,0.105,0.38,0.188,0.625,0.234C247.526,9.31,247.799,9.334,248.098,9.334 M242.062,3.279
	c0.246,0,0.444,0.035,0.592,0.104c0.14,0.076,0.257,0.176,0.333,0.305c0.075,0.135,0.128,0.286,0.151,0.468
	c0.023,0.181,0.035,0.38,0.035,0.596v0.719l-0.994,0.035c-0.917,0.029-1.601,0.193-2.051,0.502c-0.45,0.311-0.678,0.778-0.678,1.415
	c0,0.327,0.047,0.607,0.14,0.848c0.094,0.239,0.222,0.438,0.393,0.596c0.162,0.158,0.361,0.274,0.59,0.351
	c0.228,0.076,0.473,0.117,0.735,0.117c0.252,0,0.462-0.03,0.644-0.088c0.176-0.053,0.333-0.134,0.474-0.234
	c0.141-0.099,0.269-0.222,0.385-0.361c0.117-0.141,0.24-0.292,0.363-0.462h0.1l0.187,1.028h1.619V8.714h-0.035
	c-0.135,0-0.246-0.011-0.339-0.041c-0.101-0.029-0.175-0.076-0.234-0.14c-0.058-0.064-0.099-0.152-0.129-0.263
	c-0.029-0.111-0.04-0.245-0.04-0.415V4.752c0-0.38-0.047-0.707-0.135-0.97c-0.093-0.264-0.234-0.475-0.415-0.637
	c-0.181-0.164-0.409-0.281-0.683-0.357c-0.275-0.07-0.592-0.105-0.959-0.105c-0.299,0-0.573,0.023-0.836,0.064
	c-0.264,0.041-0.491,0.111-0.689,0.199c-0.193,0.094-0.351,0.21-0.462,0.356s-0.169,0.321-0.169,0.526
	c0,0.274,0.087,0.473,0.257,0.584c0.175,0.111,0.426,0.169,0.759,0.169c0-0.187,0.013-0.362,0.041-0.52
	c0.03-0.157,0.082-0.299,0.164-0.415c0.076-0.116,0.188-0.21,0.333-0.274C241.648,3.308,241.834,3.279,242.062,3.279 M240.614,7.481
	c0-0.234,0.028-0.438,0.088-0.619c0.063-0.183,0.163-0.328,0.304-0.45c0.14-0.129,0.327-0.222,0.549-0.293
	c0.234-0.064,0.515-0.105,0.854-0.122l0.766-0.035v0.97c0,0.251-0.035,0.485-0.111,0.689c-0.075,0.205-0.182,0.38-0.315,0.526
	c-0.14,0.146-0.311,0.257-0.503,0.333c-0.198,0.075-0.42,0.116-0.66,0.116c-0.333,0-0.573-0.093-0.73-0.279
	C240.696,8.136,240.614,7.855,240.614,7.481 M236.04,0.55c-0.631,0-1.187,0.105-1.665,0.321c-0.48,0.217-0.883,0.515-1.198,0.9
	c-0.328,0.386-0.566,0.848-0.73,1.385c-0.164,0.538-0.245,1.128-0.245,1.776c0,0.66,0.076,1.258,0.232,1.801
	c0.158,0.544,0.387,1.005,0.696,1.391c0.304,0.386,0.684,0.684,1.134,0.894c0.45,0.212,0.977,0.316,1.572,0.316
	c0.444,0,0.83-0.041,1.151-0.129c0.32-0.082,0.59-0.188,0.801-0.315c0.21-0.129,0.368-0.269,0.467-0.433
	c0.105-0.152,0.158-0.31,0.158-0.462c0-0.122-0.023-0.216-0.064-0.292l-0.164-0.175c-0.099,0.134-0.216,0.257-0.351,0.38
	c-0.128,0.122-0.28,0.233-0.45,0.327c-0.169,0.094-0.368,0.169-0.59,0.222c-0.228,0.059-0.485,0.088-0.777,0.088
	c-0.438,0-0.817-0.088-1.128-0.263c-0.315-0.176-0.572-0.421-0.776-0.742c-0.205-0.316-0.352-0.696-0.444-1.14
	c-0.094-0.444-0.141-0.936-0.141-1.468c0-0.602,0.047-1.134,0.135-1.601c0.087-0.462,0.232-0.853,0.432-1.175
	c0.199-0.315,0.456-0.555,0.772-0.726c0.314-0.163,0.701-0.244,1.15-0.244c0.264,0,0.479,0.047,0.66,0.134
	c0.176,0.094,0.322,0.211,0.434,0.356c0.11,0.146,0.187,0.316,0.238,0.497c0.047,0.182,0.07,0.368,0.07,0.556
	c0.147,0,0.287-0.019,0.415-0.06c0.123-0.04,0.234-0.093,0.328-0.163c0.093-0.076,0.169-0.164,0.222-0.263
	c0.052-0.105,0.076-0.222,0.076-0.352c0-0.192-0.047-0.367-0.146-0.531c-0.1-0.163-0.252-0.305-0.449-0.426
	c-0.205-0.123-0.456-0.218-0.754-0.281C236.805,0.585,236.449,0.55,236.04,0.55 M225.447,9.334c0.355,0,0.66-0.041,0.923-0.117
	s0.484-0.175,0.66-0.292s0.304-0.246,0.392-0.386c0.088-0.135,0.128-0.263,0.128-0.386c0-0.1-0.022-0.188-0.075-0.264l-0.151-0.146
	c-0.071,0.111-0.158,0.211-0.275,0.31c-0.104,0.1-0.234,0.193-0.38,0.27s-0.304,0.14-0.479,0.187
	c-0.181,0.046-0.373,0.07-0.578,0.07c-0.286,0-0.537-0.047-0.754-0.146c-0.217-0.094-0.403-0.239-0.55-0.443
	c-0.151-0.205-0.269-0.462-0.345-0.778c-0.082-0.309-0.128-0.683-0.134-1.122h3.984V5.541c0-0.473-0.058-0.888-0.169-1.245
	c-0.116-0.355-0.28-0.654-0.496-0.894c-0.217-0.24-0.474-0.415-0.783-0.538c-0.311-0.122-0.654-0.182-1.04-0.182
	c-0.849,0-1.502,0.281-1.964,0.849c-0.461,0.565-0.689,1.408-0.689,2.523c0,0.521,0.064,0.982,0.193,1.386
	c0.122,0.408,0.303,0.754,0.543,1.034s0.531,0.491,0.877,0.638C224.627,9.258,225.013,9.334,225.447,9.334 M225.299,3.326
	c0.24,0,0.445,0.053,0.608,0.152c0.17,0.099,0.304,0.244,0.403,0.432c0.1,0.187,0.176,0.409,0.223,0.672
	c0.046,0.263,0.069,0.55,0.069,0.865h-2.753c0.041-0.695,0.182-1.222,0.422-1.583C224.511,3.507,224.856,3.326,225.299,3.326
	 M219.128,9.334c0.357,0,0.678-0.041,0.97-0.117c0.287-0.076,0.538-0.199,0.742-0.351c0.205-0.163,0.369-0.356,0.48-0.59
	c0.11-0.234,0.169-0.51,0.169-0.818c0-0.252-0.035-0.468-0.105-0.661c-0.069-0.191-0.175-0.362-0.322-0.514
	c-0.146-0.152-0.333-0.292-0.561-0.421c-0.227-0.128-0.496-0.257-0.812-0.392c-0.264-0.11-0.491-0.205-0.679-0.292
	c-0.192-0.088-0.345-0.182-0.461-0.274c-0.123-0.095-0.211-0.193-0.263-0.305c-0.053-0.11-0.082-0.244-0.082-0.396
	c0-0.141,0.022-0.27,0.063-0.386c0.041-0.117,0.111-0.217,0.205-0.305c0.087-0.088,0.204-0.151,0.351-0.198
	c0.146-0.047,0.315-0.07,0.52-0.07c0.357,0,0.614,0.111,0.783,0.333c0.164,0.222,0.246,0.532,0.246,0.935
	c0.275,0,0.491-0.063,0.643-0.192c0.146-0.135,0.223-0.31,0.223-0.526c0-0.146-0.035-0.286-0.111-0.42
	c-0.076-0.135-0.187-0.252-0.333-0.351c-0.146-0.1-0.333-0.182-0.55-0.24c-0.216-0.059-0.467-0.087-0.754-0.087
	c-0.339,0-0.648,0.035-0.923,0.11c-0.275,0.076-0.515,0.182-0.714,0.327c-0.198,0.141-0.351,0.316-0.455,0.526
	c-0.111,0.21-0.163,0.45-0.163,0.725c0,0.264,0.034,0.485,0.11,0.679c0.076,0.187,0.188,0.355,0.333,0.502
	c0.146,0.146,0.339,0.286,0.567,0.415c0.228,0.123,0.491,0.257,0.8,0.392c0.287,0.122,0.526,0.234,0.719,0.333
	c0.193,0.099,0.346,0.193,0.456,0.286c0.111,0.094,0.188,0.192,0.234,0.304c0.041,0.105,0.063,0.234,0.063,0.38
	c0,0.158-0.028,0.311-0.088,0.444c-0.058,0.135-0.14,0.246-0.251,0.345c-0.11,0.093-0.251,0.169-0.415,0.222
	c-0.164,0.054-0.351,0.076-0.566,0.076c-0.239,0-0.444-0.041-0.608-0.117c-0.169-0.081-0.303-0.192-0.403-0.326
	c-0.099-0.141-0.175-0.305-0.216-0.485s-0.063-0.38-0.063-0.59l-0.234,0.04l-0.246,0.129c-0.076,0.063-0.14,0.146-0.191,0.257
	c-0.054,0.105-0.082,0.24-0.082,0.398c0,0.21,0.047,0.391,0.14,0.555c0.094,0.152,0.229,0.286,0.397,0.396
	c0.17,0.105,0.38,0.188,0.626,0.234C218.555,9.31,218.831,9.334,219.128,9.334 M213.093,3.279c0.245,0,0.444,0.035,0.59,0.104
	c0.141,0.076,0.258,0.176,0.333,0.305c0.076,0.135,0.129,0.286,0.152,0.468c0.024,0.181,0.035,0.38,0.035,0.596v0.719l-0.993,0.035
	c-0.918,0.029-1.602,0.193-2.052,0.502c-0.45,0.311-0.677,0.778-0.677,1.415c0,0.327,0.046,0.607,0.14,0.848
	c0.093,0.239,0.222,0.438,0.391,0.596c0.164,0.158,0.363,0.274,0.591,0.351c0.229,0.076,0.474,0.117,0.736,0.117
	c0.251,0,0.462-0.03,0.644-0.088c0.175-0.053,0.333-0.134,0.473-0.234c0.14-0.099,0.269-0.222,0.386-0.361
	c0.117-0.141,0.24-0.292,0.362-0.462h0.1l0.188,1.028h1.618V8.714h-0.035c-0.134,0-0.245-0.011-0.339-0.041
	c-0.1-0.029-0.176-0.076-0.233-0.14c-0.059-0.064-0.1-0.152-0.129-0.263c-0.029-0.111-0.041-0.245-0.041-0.415V4.752
	c0-0.38-0.047-0.707-0.134-0.97c-0.095-0.264-0.234-0.475-0.415-0.637c-0.182-0.164-0.409-0.281-0.685-0.357
	c-0.274-0.07-0.59-0.105-0.958-0.105c-0.298,0-0.572,0.023-0.836,0.064c-0.263,0.041-0.491,0.111-0.689,0.199
	c-0.193,0.094-0.351,0.21-0.461,0.356c-0.111,0.146-0.17,0.321-0.17,0.526c0,0.274,0.088,0.473,0.257,0.584
	c0.176,0.111,0.427,0.169,0.76,0.169c0-0.187,0.012-0.362,0.041-0.52s0.082-0.299,0.164-0.415c0.076-0.116,0.187-0.21,0.333-0.274
	C212.678,3.308,212.866,3.279,213.093,3.279 M211.643,7.481c0-0.234,0.03-0.438,0.089-0.619c0.063-0.183,0.163-0.328,0.304-0.45
	c0.14-0.129,0.327-0.222,0.549-0.293c0.234-0.064,0.515-0.105,0.854-0.122l0.766-0.035v0.97c0,0.251-0.035,0.485-0.111,0.689
	c-0.076,0.205-0.181,0.38-0.314,0.526c-0.142,0.146-0.311,0.257-0.503,0.333c-0.199,0.075-0.422,0.116-0.66,0.116
	c-0.333,0-0.573-0.093-0.731-0.279C211.725,8.136,211.643,7.855,211.643,7.481 M204.869,4.442V1.269h0.8
	c0.339,0,0.626,0.023,0.859,0.076c0.239,0.053,0.433,0.135,0.579,0.258c0.146,0.122,0.257,0.279,0.32,0.473
	c0.065,0.199,0.101,0.443,0.101,0.737c0,0.285-0.029,0.536-0.095,0.741c-0.058,0.204-0.157,0.374-0.298,0.502
	c-0.14,0.136-0.327,0.229-0.561,0.293c-0.234,0.064-0.526,0.094-0.876,0.094H204.869z M204.869,8.621V5.038h1.186
	c0.352,0,0.644,0.035,0.877,0.111c0.233,0.075,0.42,0.187,0.562,0.339c0.146,0.151,0.245,0.345,0.304,0.573
	c0.058,0.228,0.087,0.503,0.087,0.812c0,0.322-0.035,0.591-0.099,0.813c-0.064,0.222-0.175,0.402-0.322,0.536
	c-0.146,0.142-0.338,0.24-0.572,0.305c-0.233,0.064-0.52,0.094-0.858,0.094H204.869z M208.807,2.813c0-0.737-0.252-1.274-0.76-1.625
	c-0.509-0.34-1.28-0.515-2.313-0.515h-3.209v0.502h0.151c0.135,0,0.257,0.013,0.374,0.024c0.123,0.022,0.229,0.058,0.316,0.117
	c0.087,0.058,0.158,0.14,0.21,0.245c0.053,0.11,0.082,0.251,0.082,0.427v5.867c0,0.187-0.023,0.339-0.076,0.449
	c-0.053,0.111-0.123,0.199-0.21,0.258c-0.088,0.064-0.193,0.104-0.311,0.122c-0.122,0.019-0.251,0.029-0.386,0.029h-0.151v0.503
	h3.564c1.035,0,1.806-0.192,2.314-0.579c0.509-0.38,0.76-0.958,0.76-1.729c0-0.315-0.047-0.596-0.134-0.847
	c-0.088-0.245-0.218-0.463-0.38-0.644c-0.158-0.181-0.352-0.327-0.579-0.438c-0.229-0.111-0.474-0.193-0.748-0.24V4.693
	c0.211-0.07,0.402-0.157,0.585-0.263c0.181-0.1,0.339-0.228,0.473-0.38c0.134-0.151,0.234-0.328,0.311-0.532
	C208.766,3.314,208.807,3.081,208.807,2.813 M199.859,5.424c0-0.473,0.018-0.946,0.058-1.408c0.036-0.462,0.117-0.899,0.24-1.314
	s0.31-0.795,0.549-1.14c0.246-0.352,0.573-0.649,0.981-0.9V0.123c-0.549,0.217-1.017,0.48-1.407,0.795
	c-0.393,0.304-0.707,0.678-0.959,1.105c-0.245,0.426-0.427,0.923-0.537,1.478c-0.111,0.562-0.17,1.204-0.17,1.923
	s0.059,1.362,0.17,1.923c0.11,0.567,0.292,1.063,0.537,1.49c0.252,0.432,0.566,0.806,0.959,1.116
	c0.391,0.31,0.858,0.579,1.407,0.795v-0.549c-0.408-0.252-0.735-0.55-0.981-0.9c-0.239-0.351-0.426-0.736-0.549-1.151
	s-0.204-0.854-0.24-1.315C199.876,6.371,199.859,5.897,199.859,5.424"/>
<polygon points="39.57,15.963 39.57,16.399 40.304,16.469 40.418,16.629 39.191,23.009 39.008,23.169 38.285,23.227 38.285,23.662 
	41.165,23.662 41.165,23.203 40.362,23.146 40.201,22.975 40.763,20.048 42.381,20.048 42.519,20.221 42.473,21.046 42.966,21.046 
	43.459,18.522 42.955,18.522 42.691,19.349 42.485,19.521 40.867,19.521 41.44,16.491 43.758,16.491 43.873,16.675 43.873,17.766 
	44.424,17.766 44.779,15.963 "/>
<path d="M46,22.572l-1.131,0.252v0.191l0.626,0.114l-0.634,3.127h0.65l0.474-2.584c0.466-0.428,0.871-0.627,1.131-0.627
	c0.291,0,0.413,0.146,0.413,0.482c0,0.099-0.015,0.267-0.069,0.489l-0.329,1.413c-0.038,0.169-0.061,0.314-0.061,0.413
	c0,0.307,0.184,0.459,0.558,0.459c0.214,0,0.52-0.076,0.918-0.229v-0.214c-0.176,0.046-0.314,0.068-0.421,0.068
	c-0.252,0-0.397-0.13-0.397-0.375c0-0.113,0.038-0.281,0.084-0.504l0.26-1.185c0.061-0.275,0.107-0.489,0.107-0.68
	c0-0.375-0.245-0.612-0.642-0.612c-0.406,0-0.88,0.252-1.483,0.733l0.137-0.733H46z"/>
<rect x="49.053" y="23.826" width="5.198" height="0.459"/>
<polygon points="56.838,21.035 55.179,21.532 55.179,21.854 56.379,21.64 56.379,25.753 56.288,25.883 55.408,25.929 55.408,26.257 
	57.969,26.257 57.969,25.936 57.144,25.897 57.052,25.782 57.052,21.035 "/>
<polygon points="65.183,20.702 65.183,23.893 65.871,23.893 65.871,20.702 69.061,20.702 69.061,20.015 65.871,20.015 
	65.871,16.824 65.183,16.824 65.183,20.015 61.992,20.015 61.992,20.702 62.336,20.702 "/>
<polygon points="73.435,15.963 73.435,16.399 74.168,16.469 74.284,16.629 73.056,23.009 72.873,23.169 72.15,23.227 72.15,23.662 
	75.03,23.662 75.03,23.203 74.227,23.146 74.066,22.975 74.628,20.048 76.246,20.048 76.384,20.221 76.338,21.046 76.831,21.046 
	77.325,18.522 76.82,18.522 76.556,19.349 76.35,19.521 74.732,19.521 75.305,16.491 77.623,16.491 77.738,16.675 77.738,17.766 
	78.289,17.766 78.644,15.963 "/>
<path d="M79.865,22.572l-1.131,0.252v0.191l0.626,0.114l-0.634,3.127h0.65l0.474-2.584c0.466-0.428,0.871-0.627,1.131-0.627
	c0.291,0,0.413,0.146,0.413,0.482c0,0.099-0.015,0.267-0.069,0.489l-0.329,1.413c-0.038,0.169-0.061,0.314-0.061,0.413
	c0,0.307,0.184,0.459,0.558,0.459c0.214,0,0.52-0.076,0.918-0.229v-0.214c-0.176,0.046-0.314,0.068-0.421,0.068
	c-0.252,0-0.397-0.13-0.397-0.375c0-0.113,0.038-0.281,0.084-0.504l0.26-1.185c0.061-0.275,0.107-0.489,0.107-0.68
	c0-0.375-0.245-0.612-0.642-0.612c-0.406,0-0.88,0.252-1.483,0.733l0.137-0.733H79.865z"/>
<rect x="82.918" y="23.826" width="5.198" height="0.459"/>
<path d="M89.403,25.653c1.689-1.346,2.614-2.209,2.614-3.174c0-0.862-0.603-1.443-1.59-1.443c-0.948,0-1.62,0.542-1.62,1.078
	c0,0.259,0.16,0.428,0.428,0.428c0.122,0,0.237-0.039,0.344-0.115v-0.817c0.229-0.131,0.451-0.184,0.68-0.184
	c0.635,0,1.017,0.428,1.017,1.154c0,1.001-0.956,1.835-2.63,3.195v0.481h3.54v-1.254h-0.344l-0.138,0.65H89.403z"/>
<path d="M110.887,23.16h-0.455c-0.135,0-0.258-0.012-0.38-0.029c-0.123-0.018-0.222-0.059-0.31-0.116
	c-0.094-0.064-0.164-0.152-0.21-0.264c-0.059-0.11-0.082-0.263-0.082-0.45v-4.487h1.689v-0.567h-1.689v-0.707
	c0-0.252,0.011-0.474,0.047-0.667c0.023-0.191,0.075-0.35,0.146-0.479c0.07-0.135,0.163-0.234,0.274-0.298
	c0.117-0.064,0.263-0.1,0.433-0.1c0.152,0,0.28,0.029,0.38,0.082c0.099,0.052,0.181,0.128,0.239,0.216
	c0.065,0.087,0.105,0.193,0.129,0.311c0.029,0.11,0.041,0.227,0.041,0.35c0.146,0,0.274-0.011,0.391-0.041
	c0.123-0.029,0.222-0.076,0.31-0.128l0.205-0.211c0.052-0.087,0.076-0.181,0.076-0.292c0-0.123-0.03-0.239-0.088-0.339
	c-0.059-0.099-0.152-0.188-0.287-0.263c-0.128-0.076-0.298-0.129-0.514-0.169c-0.216-0.041-0.479-0.065-0.789-0.065
	c-0.327,0-0.619,0.047-0.882,0.146c-0.263,0.094-0.485,0.233-0.666,0.421c-0.182,0.187-0.322,0.415-0.421,0.689
	c-0.1,0.275-0.146,0.59-0.146,0.947v0.596h-1.093v0.567h1.093v4.487c0,0.188-0.03,0.34-0.082,0.45
	c-0.053,0.111-0.123,0.199-0.211,0.264c-0.087,0.058-0.188,0.099-0.309,0.116c-0.117,0.018-0.246,0.029-0.38,0.029h-0.158v0.503
	h3.699V23.16z M104.289,15.307c0,0.14,0.018,0.257,0.053,0.35c0.035,0.094,0.082,0.17,0.146,0.228l0.216,0.13
	c0.082,0.022,0.17,0.034,0.269,0.034c0.094,0,0.181-0.012,0.263-0.034l0.216-0.13c0.059-0.058,0.106-0.134,0.141-0.228
	c0.04-0.093,0.058-0.21,0.058-0.35c0-0.142-0.018-0.259-0.058-0.352c-0.035-0.094-0.082-0.17-0.147-0.228l-0.21-0.123
	c-0.082-0.023-0.169-0.035-0.263-0.035c-0.099,0-0.187,0.012-0.269,0.035l-0.216,0.123c-0.064,0.058-0.111,0.134-0.146,0.228
	C104.306,15.048,104.289,15.165,104.289,15.307 M103.477,23.16h-0.158v0.503h3.401V23.16h-0.157c-0.135,0-0.257-0.012-0.38-0.029
	c-0.123-0.018-0.222-0.059-0.31-0.116c-0.093-0.064-0.164-0.152-0.21-0.264c-0.059-0.11-0.082-0.263-0.082-0.45v-5.055h-2.139v0.502
	h0.035c0.134,0,0.257,0.012,0.374,0.03c0.123,0.017,0.228,0.058,0.316,0.116c0.087,0.059,0.157,0.141,0.21,0.252
	c0.053,0.104,0.082,0.245,0.082,0.421v3.792c0,0.176-0.029,0.315-0.082,0.427c-0.053,0.105-0.123,0.188-0.21,0.24
	c-0.088,0.052-0.193,0.093-0.316,0.111C103.733,23.154,103.61,23.16,103.477,23.16"/>
<path d="M116.749,18.132l-1.698,0.379v0.287l0.941,0.172l-0.953,4.693h0.976l0.711-3.879c0.7-0.643,1.308-0.941,1.698-0.941
	c0.436,0,0.62,0.219,0.62,0.724c0,0.148-0.023,0.401-0.103,0.734l-0.494,2.123c-0.057,0.252-0.092,0.47-0.092,0.619
	c0,0.459,0.276,0.689,0.838,0.689c0.321,0,0.78-0.115,1.377-0.346v-0.32c-0.264,0.068-0.47,0.103-0.631,0.103
	c-0.379,0-0.597-0.195-0.597-0.562c0-0.173,0.058-0.425,0.126-0.758l0.391-1.778c0.091-0.413,0.16-0.734,0.16-1.021
	c0-0.562-0.367-0.918-0.964-0.918c-0.608,0-1.319,0.379-2.226,1.103l0.207-1.103H116.749z"/>
<polygon points="124.365,17.811 130.515,20.357 124.365,22.906 124.365,23.651 131.754,20.588 131.754,20.129 124.365,17.064 "/>
<polygon points="138.992,15.825 136.501,16.571 136.501,17.054 138.304,16.731 138.304,22.905 138.166,23.101 136.846,23.17 
	136.846,23.663 140.689,23.663 140.689,23.181 139.451,23.124 139.313,22.951 139.313,15.825 "/>
<path d="M289.137,19.87c0,0.473-0.018,0.947-0.053,1.408c-0.041,0.462-0.123,0.899-0.246,1.314
	c-0.128,0.415-0.314,0.801-0.555,1.152c-0.239,0.35-0.567,0.647-0.977,0.9v0.549c0.551-0.216,1.018-0.485,1.409-0.795
	c0.392-0.311,0.707-0.685,0.952-1.11c0.246-0.433,0.427-0.929,0.538-1.496c0.117-0.561,0.175-1.204,0.175-1.923
	s-0.058-1.362-0.175-1.917c-0.111-0.562-0.292-1.058-0.538-1.484c-0.245-0.427-0.561-0.795-0.952-1.104
	c-0.392-0.311-0.858-0.578-1.409-0.795v0.538c0.409,0.251,0.737,0.549,0.977,0.899c0.24,0.346,0.427,0.726,0.555,1.141
	c0.123,0.415,0.205,0.853,0.246,1.314C289.12,18.923,289.137,19.397,289.137,19.87 M283.96,23.78c0.356,0,0.66-0.041,0.923-0.117
	c0.264-0.076,0.485-0.175,0.66-0.292c0.176-0.117,0.304-0.246,0.392-0.386c0.089-0.136,0.13-0.264,0.13-0.387
	c0-0.099-0.024-0.187-0.076-0.263l-0.152-0.146c-0.071,0.11-0.158,0.211-0.275,0.31c-0.104,0.099-0.233,0.193-0.38,0.269
	c-0.146,0.076-0.304,0.141-0.479,0.188c-0.181,0.046-0.374,0.07-0.579,0.07c-0.286,0-0.537-0.047-0.754-0.146
	c-0.216-0.094-0.403-0.24-0.549-0.443c-0.152-0.205-0.27-0.463-0.346-0.778c-0.082-0.31-0.128-0.684-0.134-1.122h3.986v-0.549
	c0-0.474-0.06-0.889-0.17-1.245c-0.117-0.356-0.281-0.654-0.497-0.895c-0.216-0.239-0.474-0.415-0.783-0.538
	c-0.31-0.121-0.654-0.181-1.04-0.181c-0.847,0-1.502,0.281-1.964,0.849c-0.461,0.565-0.689,1.407-0.689,2.523
	c0,0.521,0.064,0.982,0.193,1.385c0.122,0.409,0.303,0.754,0.543,1.035c0.24,0.28,0.532,0.491,0.877,0.637
	C283.141,23.704,283.528,23.78,283.96,23.78 M283.815,17.772c0.238,0,0.443,0.053,0.606,0.151c0.17,0.1,0.304,0.245,0.404,0.433
	c0.099,0.187,0.175,0.408,0.222,0.672c0.046,0.263,0.07,0.55,0.07,0.864h-2.753c0.041-0.694,0.181-1.221,0.421-1.583
	C283.026,17.953,283.37,17.772,283.815,17.772 M277.642,23.78c0.357,0,0.679-0.041,0.971-0.117c0.287-0.076,0.538-0.199,0.741-0.351
	c0.205-0.163,0.369-0.356,0.48-0.591c0.111-0.233,0.169-0.509,0.169-0.817c0-0.252-0.035-0.468-0.104-0.661
	c-0.07-0.192-0.176-0.362-0.321-0.514c-0.147-0.152-0.334-0.292-0.563-0.422c-0.227-0.128-0.496-0.257-0.812-0.391
	c-0.263-0.111-0.491-0.205-0.678-0.292c-0.193-0.088-0.346-0.182-0.461-0.275c-0.123-0.094-0.212-0.192-0.264-0.304
	c-0.053-0.111-0.082-0.245-0.082-0.396c0-0.142,0.023-0.27,0.064-0.387c0.041-0.116,0.11-0.216,0.205-0.304
	c0.087-0.088,0.204-0.152,0.35-0.199c0.146-0.046,0.316-0.069,0.521-0.069c0.356,0,0.613,0.11,0.782,0.333
	c0.164,0.222,0.246,0.531,0.246,0.935c0.275,0,0.491-0.064,0.644-0.193c0.146-0.134,0.222-0.309,0.222-0.525
	c0-0.146-0.035-0.286-0.111-0.42c-0.075-0.136-0.187-0.252-0.333-0.352c-0.146-0.099-0.333-0.181-0.55-0.239
	c-0.216-0.059-0.467-0.088-0.754-0.088c-0.339,0-0.647,0.035-0.923,0.111s-0.514,0.181-0.713,0.327
	c-0.199,0.14-0.352,0.316-0.456,0.526c-0.111,0.21-0.163,0.449-0.163,0.725c0,0.263,0.035,0.485,0.111,0.678
	c0.075,0.188,0.187,0.356,0.333,0.502c0.146,0.146,0.339,0.287,0.566,0.415c0.229,0.123,0.491,0.257,0.8,0.393
	c0.287,0.122,0.526,0.233,0.72,0.333c0.192,0.099,0.345,0.192,0.456,0.286c0.11,0.094,0.187,0.192,0.233,0.304
	c0.041,0.104,0.064,0.233,0.064,0.38c0,0.158-0.029,0.31-0.088,0.444s-0.141,0.245-0.251,0.345
	c-0.111,0.093-0.251,0.169-0.415,0.222c-0.163,0.053-0.352,0.076-0.567,0.076c-0.239,0-0.444-0.041-0.608-0.117
	c-0.169-0.082-0.303-0.192-0.402-0.327c-0.1-0.14-0.175-0.304-0.216-0.484c-0.041-0.182-0.064-0.38-0.064-0.59l-0.234,0.04
	l-0.245,0.129c-0.075,0.063-0.141,0.146-0.192,0.257c-0.053,0.104-0.082,0.24-0.082,0.397c0,0.21,0.047,0.392,0.14,0.556
	c0.095,0.151,0.229,0.286,0.397,0.396c0.17,0.105,0.38,0.188,0.626,0.234C277.07,23.756,277.344,23.78,277.642,23.78
	 M271.608,17.725c0.244,0,0.443,0.035,0.59,0.105c0.14,0.076,0.257,0.176,0.333,0.304c0.076,0.135,0.129,0.287,0.151,0.469
	c0.024,0.181,0.035,0.38,0.035,0.596v0.719l-0.993,0.035c-0.918,0.029-1.602,0.193-2.052,0.502c-0.449,0.31-0.677,0.778-0.677,1.415
	c0,0.327,0.046,0.606,0.14,0.847c0.093,0.24,0.223,0.438,0.392,0.597c0.164,0.157,0.362,0.274,0.591,0.351
	c0.228,0.076,0.473,0.117,0.735,0.117c0.251,0,0.463-0.03,0.644-0.088c0.175-0.054,0.333-0.135,0.473-0.234
	c0.141-0.099,0.27-0.222,0.387-0.362c0.116-0.14,0.239-0.292,0.361-0.462h0.101l0.187,1.029h1.618V23.16h-0.035
	c-0.134,0-0.245-0.011-0.339-0.041c-0.099-0.029-0.175-0.076-0.233-0.14c-0.059-0.064-0.1-0.152-0.129-0.264
	c-0.028-0.11-0.041-0.245-0.041-0.415v-3.103c0-0.38-0.047-0.707-0.134-0.97c-0.094-0.264-0.234-0.475-0.415-0.638
	c-0.181-0.164-0.409-0.281-0.684-0.356c-0.275-0.07-0.59-0.105-0.958-0.105c-0.298,0-0.573,0.023-0.836,0.064
	c-0.264,0.041-0.491,0.11-0.69,0.198c-0.193,0.095-0.35,0.211-0.461,0.357s-0.17,0.321-0.17,0.526c0,0.273,0.088,0.473,0.257,0.584
	c0.176,0.11,0.427,0.169,0.76,0.169c0-0.188,0.013-0.362,0.041-0.521c0.029-0.157,0.082-0.298,0.164-0.415
	c0.076-0.115,0.188-0.21,0.333-0.273C271.193,17.754,271.379,17.725,271.608,17.725 M270.159,21.927
	c0-0.233,0.028-0.438,0.087-0.619c0.063-0.182,0.164-0.327,0.304-0.449c0.141-0.129,0.327-0.223,0.549-0.293
	c0.234-0.064,0.516-0.105,0.854-0.122l0.765-0.035v0.97c0,0.251-0.035,0.485-0.11,0.689c-0.076,0.205-0.182,0.38-0.315,0.525
	c-0.141,0.146-0.31,0.257-0.503,0.333c-0.199,0.076-0.421,0.117-0.66,0.117c-0.333,0-0.573-0.093-0.73-0.28
	C270.24,22.582,270.159,22.301,270.159,21.927 M265.584,14.996c-0.631,0-1.187,0.104-1.666,0.321
	c-0.479,0.217-0.882,0.515-1.198,0.899c-0.327,0.387-0.566,0.849-0.729,1.386c-0.164,0.537-0.246,1.128-0.246,1.776
	c0,0.66,0.076,1.257,0.233,1.8c0.158,0.544,0.387,1.005,0.695,1.392c0.304,0.386,0.685,0.684,1.134,0.894
	c0.45,0.211,0.977,0.316,1.572,0.316c0.444,0,0.83-0.041,1.152-0.129c0.32-0.082,0.59-0.188,0.8-0.315
	c0.211-0.129,0.368-0.269,0.468-0.433c0.105-0.152,0.158-0.311,0.158-0.462c0-0.122-0.024-0.217-0.065-0.292l-0.163-0.176
	c-0.1,0.135-0.217,0.258-0.351,0.381c-0.129,0.121-0.281,0.233-0.45,0.326c-0.17,0.095-0.368,0.169-0.59,0.223
	c-0.228,0.059-0.485,0.088-0.778,0.088c-0.438,0-0.817-0.088-1.127-0.263c-0.315-0.177-0.572-0.422-0.777-0.742
	c-0.204-0.316-0.351-0.696-0.444-1.141c-0.093-0.443-0.14-0.935-0.14-1.467c0-0.602,0.047-1.134,0.134-1.601
	c0.088-0.462,0.234-0.854,0.433-1.175c0.198-0.315,0.456-0.556,0.771-0.726c0.315-0.163,0.701-0.245,1.15-0.245
	c0.264,0,0.48,0.047,0.661,0.134c0.176,0.095,0.321,0.212,0.433,0.357c0.11,0.146,0.187,0.316,0.239,0.497
	c0.048,0.181,0.07,0.368,0.07,0.555c0.146,0,0.286-0.018,0.415-0.059c0.123-0.04,0.234-0.093,0.327-0.163
	c0.094-0.076,0.17-0.164,0.222-0.263c0.054-0.105,0.076-0.223,0.076-0.352c0-0.192-0.046-0.368-0.146-0.532
	c-0.1-0.162-0.251-0.304-0.45-0.426c-0.204-0.123-0.456-0.217-0.754-0.281C266.349,15.031,265.994,14.996,265.584,14.996
	 M254.991,23.78c0.356,0,0.661-0.041,0.924-0.117s0.485-0.175,0.66-0.292s0.304-0.246,0.391-0.386
	c0.088-0.136,0.129-0.264,0.129-0.387c0-0.099-0.022-0.187-0.076-0.263l-0.151-0.146c-0.07,0.11-0.158,0.211-0.275,0.31
	c-0.104,0.099-0.232,0.193-0.379,0.269c-0.146,0.076-0.304,0.141-0.479,0.188c-0.182,0.046-0.374,0.07-0.578,0.07
	c-0.287,0-0.538-0.047-0.754-0.146c-0.217-0.094-0.403-0.24-0.55-0.443c-0.151-0.205-0.269-0.463-0.345-0.778
	c-0.082-0.31-0.129-0.684-0.135-1.122h3.986v-0.549c0-0.474-0.059-0.889-0.17-1.245c-0.116-0.356-0.28-0.654-0.496-0.895
	c-0.217-0.239-0.475-0.415-0.783-0.538c-0.311-0.121-0.655-0.181-1.041-0.181c-0.848,0-1.501,0.281-1.963,0.849
	c-0.462,0.565-0.69,1.407-0.69,2.523c0,0.521,0.065,0.982,0.193,1.385c0.123,0.409,0.304,0.754,0.544,1.035
	c0.239,0.28,0.531,0.491,0.876,0.637C254.172,23.704,254.558,23.78,254.991,23.78 M254.844,17.772c0.24,0,0.444,0.053,0.608,0.151
	c0.169,0.1,0.304,0.245,0.403,0.433c0.099,0.187,0.175,0.408,0.222,0.672c0.047,0.263,0.07,0.55,0.07,0.864h-2.753
	c0.041-0.694,0.182-1.221,0.422-1.583C254.055,17.953,254.401,17.772,254.844,17.772 M244.677,17.749h0.035
	c0.117,0,0.217,0.011,0.304,0.029l0.229,0.099l0.176,0.199c0.052,0.082,0.099,0.187,0.146,0.31l1.922,5.277h1.093l1.888-4.979
	c0.076-0.192,0.141-0.345,0.204-0.468c0.06-0.123,0.123-0.216,0.188-0.286l0.222-0.146c0.081-0.024,0.181-0.035,0.298-0.035h0.146
	v-0.503h-2.566v0.503h0.088c0.263,0,0.462,0.046,0.59,0.14c0.135,0.094,0.199,0.245,0.199,0.45l-0.029,0.234
	c-0.012,0.087-0.041,0.181-0.082,0.28l-0.858,2.331c-0.053,0.146-0.111,0.293-0.17,0.45c-0.064,0.158-0.123,0.311-0.175,0.456
	c-0.06,0.152-0.111,0.292-0.152,0.415c-0.047,0.128-0.082,0.233-0.099,0.321h-0.041c-0.019-0.099-0.041-0.229-0.082-0.368
	c-0.041-0.152-0.082-0.304-0.13-0.468c-0.052-0.163-0.104-0.327-0.157-0.502c-0.053-0.164-0.105-0.322-0.157-0.462l-0.813-2.263
	l-0.069-0.232l-0.023-0.205c0-0.199,0.059-0.345,0.182-0.438c0.116-0.094,0.298-0.14,0.537-0.14h0.152v-0.503h-2.993V17.749z
	 M242.052,15.306c0,0.141,0.019,0.258,0.054,0.351c0.034,0.094,0.081,0.17,0.146,0.228l0.216,0.129
	c0.082,0.023,0.17,0.035,0.27,0.035c0.094,0,0.181-0.012,0.263-0.035l0.216-0.129c0.06-0.058,0.105-0.134,0.142-0.228
	c0.04-0.093,0.058-0.21,0.058-0.351s-0.018-0.257-0.058-0.351c-0.036-0.093-0.082-0.169-0.147-0.228L243,14.604
	c-0.082-0.023-0.169-0.035-0.263-0.035c-0.1,0-0.188,0.012-0.27,0.035l-0.216,0.123c-0.064,0.059-0.111,0.135-0.146,0.228
	C242.071,15.049,242.052,15.165,242.052,15.306 M241.241,23.16h-0.158v0.503h3.401V23.16h-0.157c-0.135,0-0.257-0.011-0.38-0.029
	c-0.123-0.018-0.223-0.058-0.311-0.117c-0.093-0.063-0.164-0.151-0.21-0.263c-0.059-0.111-0.082-0.263-0.082-0.45v-5.055h-2.139
	v0.503h0.035c0.134,0,0.257,0.011,0.374,0.029c0.123,0.017,0.228,0.058,0.315,0.117c0.087,0.058,0.157,0.14,0.21,0.251
	c0.054,0.104,0.082,0.244,0.082,0.421v3.793c0,0.175-0.028,0.314-0.082,0.426c-0.053,0.104-0.123,0.187-0.21,0.24
	c-0.088,0.052-0.192,0.093-0.315,0.11C241.498,23.154,241.375,23.16,241.241,23.16 M237.926,23.78c0.357,0,0.678-0.041,0.972-0.117
	c0.285-0.076,0.536-0.199,0.741-0.351c0.204-0.163,0.368-0.356,0.479-0.591c0.11-0.233,0.169-0.509,0.169-0.817
	c0-0.252-0.035-0.468-0.105-0.661c-0.069-0.192-0.175-0.362-0.32-0.514c-0.146-0.152-0.333-0.292-0.562-0.422
	c-0.228-0.128-0.497-0.257-0.813-0.391c-0.264-0.111-0.49-0.205-0.678-0.292c-0.192-0.088-0.345-0.182-0.462-0.275
	c-0.123-0.094-0.211-0.192-0.263-0.304c-0.053-0.111-0.082-0.245-0.082-0.396c0-0.142,0.023-0.27,0.064-0.387
	c0.041-0.116,0.11-0.216,0.205-0.304c0.088-0.088,0.203-0.152,0.35-0.199c0.146-0.046,0.315-0.069,0.521-0.069
	c0.356,0,0.613,0.11,0.783,0.333c0.163,0.222,0.245,0.531,0.245,0.935c0.275,0,0.491-0.064,0.644-0.193
	c0.146-0.134,0.222-0.309,0.222-0.525c0-0.146-0.035-0.286-0.111-0.42c-0.076-0.136-0.187-0.252-0.333-0.352
	c-0.146-0.099-0.333-0.181-0.549-0.239c-0.217-0.059-0.468-0.088-0.754-0.088c-0.339,0-0.649,0.035-0.924,0.111
	s-0.515,0.181-0.713,0.327c-0.198,0.14-0.351,0.316-0.455,0.526c-0.112,0.21-0.164,0.449-0.164,0.725
	c0,0.263,0.035,0.485,0.11,0.678c0.076,0.188,0.188,0.356,0.333,0.502c0.146,0.146,0.34,0.287,0.567,0.415
	c0.229,0.123,0.491,0.257,0.801,0.393c0.286,0.122,0.526,0.233,0.718,0.333c0.193,0.099,0.346,0.192,0.456,0.286
	c0.111,0.094,0.188,0.192,0.234,0.304c0.041,0.104,0.064,0.233,0.064,0.38c0,0.158-0.029,0.31-0.087,0.444
	c-0.06,0.135-0.142,0.245-0.253,0.345c-0.11,0.093-0.251,0.169-0.415,0.222c-0.162,0.053-0.35,0.076-0.565,0.076
	c-0.24,0-0.445-0.041-0.608-0.117c-0.17-0.082-0.304-0.192-0.402-0.327c-0.101-0.14-0.177-0.304-0.218-0.484
	c-0.041-0.182-0.063-0.38-0.063-0.59l-0.234,0.04l-0.245,0.129c-0.075,0.063-0.141,0.146-0.192,0.257
	c-0.053,0.104-0.082,0.24-0.082,0.397c0,0.21,0.047,0.392,0.14,0.556c0.094,0.151,0.229,0.286,0.398,0.396
	c0.169,0.105,0.38,0.188,0.625,0.234C237.354,23.756,237.628,23.78,237.926,23.78 M233.631,23.663V23.16h-0.333
	c-0.134,0-0.257-0.011-0.374-0.023c-0.122-0.023-0.228-0.059-0.314-0.11c-0.088-0.054-0.158-0.136-0.211-0.24
	c-0.053-0.111-0.082-0.251-0.082-0.426v-1.882c0-0.152,0.006-0.322,0.023-0.51c0.018-0.187,0.041-0.374,0.082-0.561
	c0.035-0.193,0.081-0.374,0.14-0.555c0.064-0.182,0.141-0.34,0.223-0.479c0.094-0.135,0.192-0.246,0.31-0.333
	c0.117-0.082,0.251-0.123,0.397-0.123c0.233,0,0.397,0.07,0.491,0.216c0.094,0.146,0.14,0.387,0.14,0.72
	c0.205,0,0.374-0.023,0.515-0.064s0.257-0.1,0.345-0.175c0.088-0.076,0.151-0.164,0.198-0.27c0.041-0.105,0.06-0.222,0.06-0.345
	c0-0.275-0.106-0.491-0.316-0.643c-0.216-0.152-0.538-0.229-0.976-0.229c-0.264,0-0.485,0.035-0.66,0.1
	c-0.176,0.07-0.322,0.163-0.439,0.28c-0.122,0.123-0.222,0.257-0.304,0.415c-0.081,0.158-0.163,0.327-0.239,0.508h-0.059
	l-0.229-1.186h-1.84v0.503h0.035c0.134,0,0.257,0.011,0.379,0.029c0.117,0.017,0.224,0.058,0.311,0.117
	c0.088,0.058,0.164,0.14,0.216,0.244c0.053,0.111,0.076,0.251,0.076,0.428v3.733c0,0.188-0.023,0.339-0.076,0.45
	c-0.052,0.111-0.122,0.199-0.21,0.257c-0.088,0.065-0.193,0.105-0.311,0.123c-0.122,0.019-0.251,0.029-0.385,0.029h-0.035v0.503
	H233.631z M228.498,22.36v-5.114h-2.139v0.503h0.034c0.135,0,0.264,0.011,0.381,0.029c0.123,0.017,0.222,0.058,0.314,0.117
	c0.088,0.063,0.158,0.151,0.211,0.263c0.052,0.117,0.076,0.269,0.076,0.456v2.466c0,0.286-0.029,0.549-0.088,0.789
	c-0.059,0.239-0.146,0.438-0.27,0.606c-0.121,0.171-0.279,0.305-0.467,0.398c-0.192,0.093-0.421,0.14-0.684,0.14
	c-0.24,0-0.444-0.034-0.603-0.11c-0.164-0.07-0.292-0.175-0.386-0.315c-0.099-0.141-0.163-0.31-0.204-0.515
	c-0.041-0.204-0.063-0.433-0.063-0.695v-4.132h-2.146v0.503h0.035c0.134,0,0.257,0.011,0.38,0.029
	c0.117,0.017,0.222,0.058,0.31,0.117c0.088,0.058,0.163,0.14,0.217,0.244c0.052,0.111,0.076,0.251,0.076,0.428v2.869
	c0,0.408,0.046,0.76,0.134,1.058s0.21,0.538,0.38,0.73c0.169,0.192,0.374,0.333,0.619,0.421c0.246,0.088,0.525,0.135,0.842,0.135
	c0.193,0,0.38-0.013,0.561-0.047c0.182-0.023,0.352-0.082,0.515-0.164c0.164-0.076,0.322-0.188,0.468-0.327s0.275-0.321,0.397-0.549
	h0.059l0.157,0.97h1.899V23.16h-0.035c-0.135,0-0.257-0.011-0.373-0.023c-0.123-0.023-0.229-0.059-0.316-0.11
	c-0.088-0.054-0.158-0.136-0.21-0.24C228.527,22.675,228.498,22.535,228.498,22.36 M219.697,23.78c0.339,0,0.637-0.035,0.889-0.105
	c0.251-0.064,0.467-0.151,0.637-0.263c0.169-0.112,0.292-0.234,0.38-0.369c0.088-0.134,0.129-0.274,0.129-0.409
	c0-0.11-0.018-0.204-0.059-0.279l-0.146-0.188c-0.136,0.245-0.346,0.444-0.62,0.602c-0.275,0.157-0.603,0.233-0.971,0.233
	c-0.643,0-1.104-0.21-1.385-0.625c-0.286-0.415-0.427-1.052-0.427-1.898c0-0.532,0.035-0.977,0.106-1.333
	c0.069-0.356,0.169-0.638,0.303-0.848c0.135-0.21,0.293-0.356,0.479-0.443c0.182-0.089,0.392-0.13,0.619-0.13
	c0.205,0,0.368,0.035,0.503,0.111c0.128,0.07,0.233,0.17,0.31,0.298c0.075,0.123,0.129,0.27,0.157,0.439
	c0.029,0.169,0.048,0.344,0.048,0.531c0.356,0,0.619-0.059,0.801-0.17c0.181-0.11,0.269-0.31,0.269-0.584
	c0-0.204-0.064-0.386-0.188-0.537c-0.122-0.158-0.286-0.286-0.485-0.387c-0.198-0.099-0.42-0.175-0.666-0.222
	c-0.251-0.053-0.497-0.076-0.748-0.076c-0.38,0-0.729,0.053-1.052,0.164c-0.327,0.111-0.608,0.292-0.847,0.555
	c-0.24,0.264-0.428,0.608-0.562,1.04c-0.135,0.428-0.205,0.965-0.205,1.602c0,0.591,0.07,1.093,0.205,1.508
	c0.134,0.415,0.321,0.754,0.562,1.017c0.238,0.264,0.531,0.462,0.864,0.585C218.931,23.721,219.299,23.78,219.697,23.78
	 M213.345,23.78c0.356,0,0.66-0.041,0.923-0.117c0.264-0.076,0.485-0.175,0.661-0.292c0.175-0.117,0.305-0.246,0.392-0.386
	c0.088-0.136,0.129-0.264,0.129-0.387c0-0.099-0.024-0.187-0.076-0.263l-0.152-0.146c-0.069,0.11-0.158,0.211-0.274,0.31
	c-0.105,0.099-0.234,0.193-0.38,0.269c-0.146,0.076-0.305,0.141-0.479,0.188c-0.181,0.046-0.374,0.07-0.579,0.07
	c-0.286,0-0.537-0.047-0.753-0.146c-0.217-0.094-0.404-0.24-0.55-0.443c-0.152-0.205-0.27-0.463-0.345-0.778
	c-0.081-0.31-0.128-0.684-0.135-1.122h3.986v-0.549c0-0.474-0.059-0.889-0.17-1.245c-0.117-0.356-0.28-0.654-0.496-0.895
	c-0.217-0.239-0.474-0.415-0.784-0.538c-0.309-0.121-0.653-0.181-1.04-0.181c-0.847,0-1.502,0.281-1.963,0.849
	c-0.462,0.565-0.689,1.407-0.689,2.523c0,0.521,0.063,0.982,0.192,1.385c0.122,0.409,0.305,0.754,0.543,1.035
	c0.24,0.28,0.532,0.491,0.877,0.637C212.528,23.704,212.913,23.78,213.345,23.78 M213.2,17.772c0.238,0,0.443,0.053,0.607,0.151
	c0.169,0.1,0.304,0.245,0.403,0.433c0.099,0.187,0.175,0.408,0.222,0.672c0.047,0.263,0.07,0.55,0.07,0.864h-2.753
	c0.041-0.694,0.182-1.221,0.421-1.583C212.411,17.953,212.755,17.772,213.2,17.772 M204.869,19.332v-3.641h0.812
	c0.339,0,0.625,0.036,0.865,0.1c0.234,0.064,0.427,0.163,0.573,0.31c0.146,0.141,0.257,0.321,0.321,0.55
	c0.063,0.222,0.099,0.49,0.099,0.812c0,0.311-0.029,0.585-0.093,0.818c-0.06,0.233-0.158,0.427-0.299,0.585
	c-0.14,0.158-0.326,0.273-0.561,0.35s-0.526,0.117-0.877,0.117H204.869z M208.702,22.202l-1.643-2.595
	c0.211-0.07,0.422-0.164,0.632-0.281c0.211-0.116,0.397-0.262,0.566-0.438c0.17-0.175,0.304-0.38,0.403-0.625
	c0.105-0.233,0.158-0.514,0.158-0.836c0-0.771-0.251-1.35-0.76-1.735c-0.509-0.379-1.279-0.572-2.314-0.572h-3.22v0.502h0.151
	c0.135,0,0.257,0.012,0.374,0.03c0.123,0.017,0.229,0.052,0.316,0.11c0.087,0.059,0.158,0.141,0.21,0.251
	c0.053,0.105,0.082,0.245,0.082,0.421v5.927c0,0.175-0.029,0.314-0.082,0.426c-0.052,0.104-0.123,0.187-0.21,0.24
	c-0.088,0.052-0.193,0.093-0.316,0.11c-0.117,0.018-0.239,0.023-0.374,0.023h-0.151v0.503h3.482V23.16h-0.158
	c-0.134,0-0.257-0.006-0.379-0.023c-0.117-0.018-0.222-0.059-0.31-0.11c-0.088-0.054-0.158-0.136-0.211-0.24
	c-0.053-0.111-0.081-0.251-0.081-0.426v-2.468h0.993l1.619,2.695c0.134,0.228,0.263,0.409,0.386,0.549
	c0.117,0.141,0.257,0.251,0.426,0.327c0.17,0.076,0.368,0.129,0.614,0.158c0.24,0.029,0.543,0.041,0.917,0.041h0.17V23.16h-0.035
	c-0.251,0-0.473-0.082-0.666-0.239C209.099,22.763,208.907,22.523,208.702,22.202 M199.859,19.87c0-0.473,0.018-0.947,0.058-1.408
	c0.036-0.462,0.117-0.899,0.24-1.314s0.31-0.795,0.549-1.141c0.246-0.351,0.573-0.648,0.981-0.899v-0.538
	c-0.549,0.217-1.017,0.479-1.407,0.795c-0.393,0.304-0.707,0.678-0.959,1.104c-0.245,0.427-0.427,0.923-0.537,1.479
	c-0.111,0.561-0.17,1.204-0.17,1.923s0.059,1.362,0.17,1.923c0.11,0.567,0.292,1.063,0.537,1.49
	c0.252,0.432,0.566,0.806,0.959,1.116c0.391,0.31,0.858,0.579,1.407,0.795v-0.549c-0.408-0.253-0.735-0.551-0.981-0.9
	c-0.239-0.352-0.426-0.737-0.549-1.152s-0.204-0.853-0.24-1.314C199.876,20.817,199.859,20.343,199.859,19.87"/>
</svg>
