<?xml version="1.0" encoding="iso-8859-1"?>
<!-- Generator: Adobe Illustrator 14.0.0, SVG Export Plug-In . SVG Version: 6.00 Build 43363)  -->
<!DOCTYPE svg PUBLIC "-//W3C//DTD SVG 1.1//EN" "http://www.w3.org/Graphics/SVG/1.1/DTD/svg11.dtd">
<svg version="1.1" id="Layer_1" xmlns="http://www.w3.org/2000/svg" xmlns:xlink="http://www.w3.org/1999/xlink" x="0px" y="0px"
	 width="80.733px" height="128.677px" viewBox="0 0 80.733 128.677" style="enable-background:new 0 0 80.733 128.677;"
	 xml:space="preserve">
<path d="M15.038,13.79c0-7.895,1.79-12.14,4.395-12.588V0.525c-3.236,0.402-5.462,5.015-5.462,13.265s2.226,12.863,5.462,13.265
	v-0.677C16.828,25.93,15.038,21.685,15.038,13.79"/>
<polygon points="24.864,1.163 22.374,1.909 22.374,2.391 24.176,2.069 24.176,8.243 24.038,8.438 22.718,8.507 22.718,9 26.562,9 
	26.562,8.518 25.323,8.461 25.185,8.289 25.185,1.163 "/>
<line style="fill:none;stroke:#000000;stroke-width:0.689;stroke-miterlimit:10;" x1="21.295" y1="13.763" x2="27.676" y2="13.763"/>
<path d="M22.913,24.667c2.536-2.02,3.924-3.316,3.924-4.762c0-1.297-0.906-2.169-2.386-2.169c-1.423,0-2.433,0.815-2.433,1.618
	c0,0.39,0.241,0.643,0.643,0.643c0.183,0,0.355-0.058,0.516-0.172v-1.228c0.344-0.195,0.677-0.275,1.021-0.275
	c0.953,0,1.526,0.642,1.526,1.732c0,1.503-1.434,2.754-3.947,4.797v0.722h5.313v-1.881h-0.517l-0.206,0.975H22.913z"/>
<path d="M33.909,13.79c0,7.895-1.79,12.14-4.395,12.588v0.677c3.236-0.402,5.462-5.015,5.462-13.265S32.75,0.927,29.514,0.525v0.677
	C32.119,1.65,33.909,5.895,33.909,13.79"/>
<path d="M37.604,0.008l-0.772,0.268v0.183l0.634,0.084c0.207,0.191,0.383,0.635,0.581,1.33c-0.313,0.757-0.718,1.246-1.062,1.43
	l-0.352-0.329c-0.237,0.046-0.374,0.184-0.374,0.39c0,0.245,0.183,0.413,0.473,0.413c0.505,0,0.964-0.512,1.461-1.552
	c0.252,1.085,0.351,1.536,0.886,1.536c0.207,0,0.497-0.076,0.857-0.221V3.303c-0.184,0.053-0.321,0.084-0.406,0.084
	c-0.458,0-0.565-0.482-0.863-1.514c0.336-0.779,0.672-1.215,1.024-1.307l0.329,0.298c0.244-0.099,0.374-0.244,0.374-0.428
	c0-0.237-0.191-0.428-0.435-0.428c-0.482,0-0.956,0.512-1.461,1.537C38.231,0.505,38.14,0,37.688,0L37.604,0.008z"/>
<path d="M45.935,13.776c0-0.402-0.321-0.734-0.723-0.734c-0.402,0-0.734,0.332-0.734,0.734c0,0.402,0.332,0.723,0.734,0.723
	C45.613,14.499,45.935,14.178,45.935,13.776"/>
<path d="M51.328,11.55l-1.698,0.379v0.287l0.941,0.172l-0.953,4.693h0.976l0.712-3.879c0.699-0.642,1.308-0.941,1.697-0.941
	c0.437,0,0.62,0.218,0.62,0.723c0,0.149-0.022,0.402-0.103,0.735l-0.494,2.123c-0.058,0.252-0.092,0.47-0.092,0.619
	c0,0.459,0.275,0.689,0.838,0.689c0.32,0,0.779-0.115,1.377-0.345v-0.321c-0.265,0.069-0.471,0.103-0.631,0.103
	c-0.379,0-0.598-0.195-0.598-0.562c0-0.172,0.059-0.424,0.126-0.757l0.392-1.779c0.091-0.413,0.16-0.734,0.16-1.021
	c0-0.562-0.367-0.918-0.965-0.918c-0.607,0-1.318,0.379-2.226,1.102l0.207-1.102H51.328z"/>
<path d="M58.944,15.359h7.711v-0.688h-7.711V15.359z M58.944,12.88h7.711v-0.688h-7.711V12.88z"/>
<polygon points="73.571,9.243 71.081,9.989 71.081,10.471 72.883,10.149 72.883,16.323 72.745,16.518 71.425,16.587 71.425,17.08 
	75.269,17.08 75.269,16.598 74.03,16.541 73.892,16.369 73.892,9.243 "/>
<path d="M1.136,47.156c2.536-2.02,3.924-3.316,3.924-4.762c0-1.297-0.906-2.169-2.386-2.169c-1.423,0-2.433,0.815-2.433,1.618
	c0,0.39,0.241,0.643,0.643,0.643c0.183,0,0.355-0.058,0.516-0.172v-1.228c0.344-0.195,0.677-0.275,1.021-0.275
	c0.953,0,1.526,0.642,1.526,1.732c0,1.503-1.434,2.754-3.947,4.797v0.722h5.313v-1.881H4.796L4.59,47.156H1.136z"/>
<path d="M7.459,39.478l-0.772,0.268v0.183l0.634,0.084c0.207,0.191,0.383,0.635,0.581,1.33c-0.313,0.757-0.718,1.246-1.062,1.43
	l-0.352-0.329c-0.237,0.046-0.374,0.184-0.374,0.39c0,0.245,0.183,0.413,0.474,0.413c0.504,0,0.963-0.512,1.46-1.552
	c0.252,1.085,0.351,1.536,0.886,1.536c0.207,0,0.497-0.076,0.857-0.221v-0.237c-0.184,0.053-0.321,0.084-0.406,0.084
	c-0.458,0-0.565-0.482-0.863-1.514c0.336-0.779,0.672-1.215,1.024-1.307l0.329,0.298c0.244-0.099,0.374-0.244,0.374-0.428
	c0-0.237-0.191-0.428-0.435-0.428c-0.482,0-0.956,0.512-1.461,1.537c-0.267-1.04-0.359-1.545-0.81-1.545L7.459,39.478z"/>
<path d="M15.038,44.772c0-7.895,1.79-12.14,4.395-12.588v-0.677c-3.236,0.402-5.462,5.015-5.462,13.265s2.226,12.863,5.462,13.265
	V57.36C16.828,56.913,15.038,52.667,15.038,44.772"/>
<polygon points="24.864,32.146 22.374,32.892 22.374,33.374 24.176,33.052 24.176,39.226 24.038,39.421 22.718,39.49 22.718,39.983 
	26.562,39.983 26.562,39.501 25.323,39.444 25.185,39.272 25.185,32.146 "/>
<line style="fill:none;stroke:#000000;stroke-width:0.689;stroke-miterlimit:10;" x1="21.295" y1="44.747" x2="27.676" y2="44.747"/>
<path d="M22.913,55.649c2.536-2.02,3.924-3.316,3.924-4.762c0-1.297-0.906-2.169-2.386-2.169c-1.423,0-2.433,0.815-2.433,1.618
	c0,0.39,0.241,0.643,0.643,0.643c0.183,0,0.355-0.058,0.516-0.172v-1.228c0.344-0.195,0.677-0.275,1.021-0.275
	c0.953,0,1.526,0.642,1.526,1.732c0,1.503-1.434,2.754-3.947,4.797v0.722h5.313v-1.881h-0.517l-0.206,0.975H22.913z"/>
<path d="M33.909,44.771c0,7.895-1.79,12.14-4.395,12.588v0.677c3.236-0.402,5.462-5.015,5.462-13.265s-2.226-12.863-5.462-13.265
	v0.677C32.119,32.632,33.909,36.876,33.909,44.771"/>
<path d="M37.604,30.99l-0.772,0.268v0.183l0.634,0.084c0.207,0.191,0.383,0.635,0.581,1.33c-0.313,0.757-0.718,1.246-1.062,1.43
	l-0.352-0.329c-0.237,0.046-0.374,0.184-0.374,0.39c0,0.245,0.183,0.413,0.473,0.413c0.505,0,0.964-0.512,1.461-1.552
	c0.252,1.085,0.351,1.536,0.886,1.536c0.207,0,0.497-0.076,0.857-0.221v-0.237c-0.184,0.053-0.321,0.084-0.406,0.084
	c-0.458,0-0.565-0.482-0.863-1.514c0.336-0.779,0.672-1.215,1.024-1.307l0.329,0.298c0.244-0.099,0.374-0.244,0.374-0.428
	c0-0.237-0.191-0.428-0.435-0.428c-0.482,0-0.956,0.512-1.461,1.537c-0.267-1.04-0.359-1.545-0.81-1.545L37.604,30.99z"/>
<path d="M45.935,44.758c0-0.402-0.321-0.734-0.723-0.734c-0.402,0-0.734,0.332-0.734,0.734s0.332,0.723,0.734,0.723
	C45.613,45.481,45.935,45.16,45.935,44.758"/>
<path d="M51.328,42.532l-1.698,0.379v0.287l0.941,0.172l-0.953,4.693h0.976l0.712-3.879c0.699-0.642,1.308-0.941,1.697-0.941
	c0.437,0,0.62,0.218,0.62,0.723c0,0.149-0.022,0.402-0.103,0.735l-0.494,2.123c-0.058,0.252-0.092,0.47-0.092,0.619
	c0,0.459,0.275,0.689,0.838,0.689c0.32,0,0.779-0.115,1.377-0.345v-0.321c-0.265,0.069-0.471,0.103-0.631,0.103
	c-0.379,0-0.598-0.195-0.598-0.562c0-0.172,0.059-0.424,0.126-0.757l0.392-1.779c0.091-0.413,0.16-0.734,0.16-1.021
	c0-0.562-0.367-0.918-0.965-0.918c-0.607,0-1.318,0.379-2.226,1.102l0.207-1.102H51.328z"/>
<path d="M58.944,46.341h7.711v-0.688h-7.711V46.341z M58.944,43.862h7.711v-0.688h-7.711V43.862z"/>
<path d="M71.62,47.156c2.536-2.02,3.924-3.316,3.924-4.762c0-1.297-0.906-2.169-2.386-2.169c-1.423,0-2.433,0.815-2.433,1.618
	c0,0.39,0.24,0.643,0.643,0.643c0.183,0,0.355-0.058,0.516-0.172v-1.228c0.345-0.195,0.678-0.275,1.021-0.275
	c0.953,0,1.526,0.642,1.526,1.732c0,1.503-1.435,2.754-3.947,4.797v0.722h5.313v-1.881H75.28l-0.206,0.975H71.62z"/>
<path d="M77.943,39.478l-0.772,0.268v0.183l0.635,0.084c0.207,0.191,0.383,0.635,0.581,1.33c-0.313,0.757-0.719,1.246-1.063,1.43
	l-0.352-0.329c-0.237,0.046-0.374,0.184-0.374,0.39c0,0.245,0.183,0.413,0.474,0.413c0.504,0,0.963-0.512,1.46-1.552
	c0.252,1.085,0.352,1.537,0.886,1.537c0.207,0,0.497-0.077,0.857-0.222v-0.237c-0.184,0.053-0.321,0.084-0.406,0.084
	c-0.458,0-0.564-0.482-0.862-1.514c0.336-0.779,0.672-1.215,1.023-1.307l0.329,0.298c0.244-0.099,0.374-0.244,0.374-0.428
	c0-0.237-0.191-0.428-0.435-0.428c-0.482,0-0.956,0.512-1.462,1.537c-0.267-1.04-0.358-1.545-0.81-1.545L77.943,39.478z"/>
<path d="M51.328,66.551L49.63,66.93v0.287l0.941,0.172l-0.953,4.692h0.976l0.712-3.879c0.699-0.642,1.308-0.94,1.697-0.94
	c0.437,0,0.62,0.218,0.62,0.723c0,0.148-0.022,0.402-0.103,0.734l-0.494,2.123c-0.058,0.252-0.092,0.471-0.092,0.619
	c0,0.459,0.275,0.689,0.838,0.689c0.32,0,0.779-0.115,1.377-0.346v-0.32c-0.265,0.068-0.471,0.104-0.631,0.104
	c-0.379,0-0.598-0.195-0.598-0.563c0-0.172,0.059-0.424,0.126-0.758l0.392-1.778c0.091-0.413,0.16-0.733,0.16-1.021
	c0-0.563-0.367-0.918-0.965-0.918c-0.607,0-1.318,0.379-2.226,1.102l0.207-1.102H51.328z"/>
<path d="M58.944,70.36h7.711v-0.688h-7.711V70.36z M58.944,67.881h7.711v-0.688h-7.711V67.881z"/>
<path d="M71.62,71.174c2.536-2.02,3.924-3.315,3.924-4.762c0-1.297-0.906-2.169-2.386-2.169c-1.423,0-2.433,0.815-2.433,1.618
	c0,0.391,0.24,0.643,0.643,0.643c0.183,0,0.355-0.058,0.516-0.172v-1.228c0.345-0.195,0.678-0.274,1.021-0.274
	c0.953,0,1.526,0.642,1.526,1.731c0,1.503-1.435,2.754-3.947,4.797v0.722h5.313V70.2H75.28l-0.206,0.975H71.62z"/>
<path d="M77.943,63.497l-0.772,0.268v0.183l0.635,0.084c0.207,0.191,0.383,0.635,0.581,1.33c-0.313,0.757-0.719,1.246-1.063,1.43
	l-0.352-0.328c-0.237,0.045-0.374,0.184-0.374,0.39c0,0.245,0.183,0.413,0.473,0.413c0.505,0,0.964-0.512,1.461-1.553
	c0.252,1.086,0.352,1.537,0.886,1.537c0.207,0,0.497-0.076,0.857-0.222v-0.237c-0.184,0.053-0.321,0.084-0.406,0.084
	c-0.458,0-0.564-0.481-0.862-1.514c0.336-0.779,0.672-1.215,1.023-1.307l0.329,0.298c0.244-0.099,0.374-0.244,0.374-0.428
	c0-0.237-0.191-0.428-0.435-0.428c-0.482,0-0.956,0.512-1.462,1.537c-0.267-1.04-0.358-1.545-0.81-1.545L77.943,63.497z"/>
<path d="M46.056,89.988c2.536-2.021,3.925-3.315,3.925-4.762c0-1.297-0.906-2.169-2.387-2.169c-1.423,0-2.433,0.814-2.433,1.617
	c0,0.391,0.241,0.644,0.643,0.644c0.184,0,0.355-0.058,0.517-0.172v-1.228c0.344-0.195,0.677-0.275,1.021-0.275
	c0.953,0,1.526,0.643,1.526,1.732c0,1.502-1.435,2.754-3.947,4.797v0.722h5.313v-1.881h-0.518l-0.206,0.975H46.056z"/>
<path d="M52.73,80.39l-1.2,0.222v0.215l0.703,0.037l-1.032,5.152h0.635l0.244-1.467l0.437-0.398l0.649,1.315
	c0.198,0.397,0.413,0.589,0.719,0.589c0.146,0,0.45-0.061,0.895-0.207v-0.214c-0.153,0.03-0.283,0.054-0.398,0.054
	c-0.526,0-0.833-0.65-1.413-1.965c0.336-0.307,0.656-0.589,0.985-0.826l0.275,0.299c0.283-0.115,0.421-0.275,0.421-0.474
	c0-0.222-0.185-0.39-0.437-0.39c-0.183,0-0.404,0.129-0.673,0.404l-1.414,1.46l0.818-3.807H52.73z"/>
<path d="M58.943,89.173h7.711v-0.688h-7.711V89.173z M58.943,86.694h7.711v-0.688h-7.711V86.694z"/>
<path d="M71.62,89.988c2.536-2.021,3.924-3.315,3.924-4.762c0-1.297-0.906-2.169-2.386-2.169c-1.423,0-2.433,0.814-2.433,1.617
	c0,0.391,0.24,0.644,0.643,0.644c0.183,0,0.354-0.058,0.516-0.172v-1.228c0.345-0.195,0.678-0.275,1.021-0.275
	c0.953,0,1.525,0.643,1.525,1.732c0,1.502-1.434,2.754-3.946,4.797v0.722h5.313v-1.881H75.28l-0.206,0.975H71.62z"/>
<path d="M77.943,82.309l-0.772,0.268v0.184l0.635,0.084c0.207,0.19,0.383,0.635,0.581,1.33c-0.313,0.756-0.719,1.246-1.063,1.43
	l-0.352-0.329c-0.237,0.046-0.374,0.185-0.374,0.39c0,0.245,0.183,0.413,0.473,0.413c0.505,0,0.964-0.512,1.461-1.552
	c0.252,1.085,0.352,1.536,0.886,1.536c0.207,0,0.497-0.076,0.857-0.222v-0.236c-0.184,0.053-0.321,0.084-0.406,0.084
	c-0.458,0-0.564-0.482-0.862-1.514c0.336-0.779,0.672-1.215,1.023-1.308l0.329,0.298c0.244-0.099,0.374-0.244,0.374-0.428
	c0-0.236-0.191-0.428-0.435-0.428c-0.482,0-0.956,0.512-1.462,1.537c-0.267-1.041-0.358-1.545-0.81-1.545L77.943,82.309z"/>
<path d="M52.029,99.884l-1.803,0.333v0.32l1.057,0.058l-1.549,7.733h0.951l0.368-2.203l0.654-0.596l0.975,1.973
	c0.299,0.598,0.62,0.885,1.079,0.885c0.218,0,0.677-0.092,1.342-0.311v-0.32c-0.229,0.045-0.424,0.08-0.596,0.08
	c-0.792,0-1.251-0.975-2.123-2.949c0.505-0.459,0.987-0.885,1.48-1.239l0.413,0.447c0.425-0.172,0.631-0.413,0.631-0.711
	c0-0.333-0.275-0.585-0.654-0.585c-0.275,0-0.607,0.195-1.01,0.607l-2.122,2.191l1.227-5.714H52.029z"/>
<path d="M58.943,106.608h7.711v-0.688h-7.711V106.608z M58.943,104.129h7.711v-0.688h-7.711V104.129z"/>
<path d="M72.344,102.764l-1.159,0.402v0.275l0.952,0.125c0.31,0.287,0.573,0.953,0.873,1.998c-0.472,1.135-1.079,1.869-1.596,2.146
	l-0.527-0.494c-0.356,0.069-0.563,0.276-0.563,0.585c0,0.368,0.276,0.62,0.712,0.62c0.757,0,1.446-0.769,2.192-2.329
	c0.378,1.629,0.527,2.307,1.331,2.307c0.309,0,0.745-0.115,1.285-0.334v-0.354c-0.276,0.079-0.482,0.126-0.608,0.126
	c-0.689,0-0.85-0.723-1.297-2.271c0.505-1.172,1.01-1.826,1.538-1.963l0.493,0.447c0.366-0.148,0.562-0.367,0.562-0.643
	c0-0.355-0.287-0.643-0.654-0.643c-0.723,0-1.434,0.77-2.19,2.307c-0.402-1.561-0.54-2.317-1.217-2.317L72.344,102.764z"/>
<path d="M38.973,125.419l1.113,0.206c0.803,0.148,1.171,0.275,1.171,0.895c0,0.644-0.689,1.217-1.71,1.217
	c-0.941,0-1.561-0.527-1.561-1.193C37.985,126.039,38.341,125.614,38.973,125.419 M39.432,120.577c0.666,0,1.125,0.539,1.125,1.412
	c0,0.859-0.459,1.41-1.125,1.41c-0.665,0-1.124-0.551-1.124-1.41C38.308,121.104,38.767,120.577,39.432,120.577 M40.843,120.45
	c-0.437-0.217-0.86-0.32-1.296-0.32c-1.354,0-2.226,0.78-2.226,1.893c0,0.861,0.539,1.539,1.423,1.733
	c-0.368,0.437-0.551,0.792-0.551,1.09c0,0.185,0.046,0.356,0.115,0.517c-0.781,0.138-1.24,0.688-1.24,1.423
	c0,0.918,0.758,1.479,2.077,1.479c0.872,0,1.664-0.263,2.272-0.757c0.447-0.367,0.688-0.86,0.688-1.285
	c0-0.849-0.597-1.204-1.951-1.411l-1.102-0.173c-0.011-0.126-0.023-0.218-0.023-0.274c0-0.184,0.046-0.356,0.127-0.517h0.195
	c1.331,0,2.19-0.769,2.19-1.79c0-0.402-0.103-0.734-0.32-1.066h1.262v-0.541H40.843z M33.509,120.623
	c0.929,0,1.595,0.896,1.595,2.376c0,1.49-0.666,2.375-1.595,2.375c-0.918,0-1.584-0.895-1.584-2.375
	C31.925,121.506,32.58,120.623,33.509,120.623 M33.509,120.129c-1.549,0-2.662,1.159-2.662,2.869c0,1.697,1.124,2.867,2.662,2.867
	c1.537,0,2.673-1.17,2.673-2.867C36.183,121.299,35.059,120.129,33.509,120.129 M27.507,125.763h2.685v-0.413l-0.654-0.057
	l-0.207-0.184v-7.791h-0.436l-1.399,0.412v0.355h0.883v7.023l-0.195,0.184l-0.677,0.057V125.763z"/>
<path d="M43.689,128.074c1.688-1.345,2.613-2.209,2.613-3.173c0-0.863-0.603-1.444-1.59-1.444c-0.948,0-1.62,0.542-1.62,1.078
	c0,0.259,0.16,0.428,0.429,0.428c0.122,0,0.236-0.039,0.344-0.114v-0.818c0.229-0.131,0.451-0.184,0.68-0.184
	c0.635,0,1.018,0.428,1.018,1.154c0,1.001-0.956,1.835-2.631,3.195v0.481h3.54v-1.254h-0.344l-0.138,0.65H43.689z"/>
<path d="M51.328,120.233l-1.698,0.379v0.287l0.941,0.172l-0.953,4.693h0.976l0.711-3.879c0.7-0.643,1.309-0.941,1.698-0.941
	c0.437,0,0.62,0.218,0.62,0.723c0,0.149-0.023,0.402-0.103,0.735l-0.494,2.123c-0.058,0.252-0.092,0.47-0.092,0.618
	c0,0.459,0.275,0.689,0.838,0.689c0.32,0,0.779-0.115,1.377-0.345v-0.321c-0.265,0.069-0.471,0.104-0.631,0.104
	c-0.38,0-0.598-0.195-0.598-0.563c0-0.172,0.059-0.424,0.126-0.757l0.392-1.778c0.091-0.414,0.159-0.734,0.159-1.021
	c0-0.563-0.366-0.918-0.964-0.918c-0.607,0-1.318,0.379-2.226,1.102l0.207-1.102H51.328z"/>
<path d="M58.943,124.042h7.711v-0.688h-7.711V124.042z M58.943,121.563h7.711v-0.688h-7.711V121.563z"/>
<path d="M72.344,120.198l-1.159,0.402v0.275l0.952,0.126c0.31,0.286,0.573,0.952,0.873,1.997c-0.472,1.136-1.079,1.869-1.596,2.146
	l-0.527-0.493c-0.356,0.068-0.563,0.275-0.563,0.584c0,0.368,0.276,0.62,0.712,0.62c0.757,0,1.446-0.769,2.192-2.329
	c0.378,1.629,0.527,2.307,1.331,2.307c0.309,0,0.745-0.115,1.285-0.334v-0.354c-0.276,0.08-0.482,0.126-0.608,0.126
	c-0.689,0-0.85-0.723-1.297-2.271c0.505-1.172,1.01-1.825,1.538-1.963l0.493,0.447c0.366-0.148,0.562-0.367,0.562-0.642
	c0-0.356-0.287-0.644-0.654-0.644c-0.723,0-1.434,0.77-2.19,2.307c-0.402-1.561-0.54-2.317-1.217-2.317L72.344,120.198z"/>
</svg>
