<?xml version="1.0" encoding="iso-8859-1"?>
<!-- Generator: Adobe Illustrator 14.0.0, SVG Export Plug-In . SVG Version: 6.00 Build 43363)  -->
<!DOCTYPE svg PUBLIC "-//W3C//DTD SVG 1.1//EN" "http://www.w3.org/Graphics/SVG/1.1/DTD/svg11.dtd">
<svg version="1.1" id="Layer_1" xmlns="http://www.w3.org/2000/svg" xmlns:xlink="http://www.w3.org/1999/xlink" x="0px" y="0px"
	 width="281.528px" height="26.842px" viewBox="0 0 281.528 26.842" style="enable-background:new 0 0 281.528 26.842;"
	 xml:space="preserve">
<path d="M2.02,11.302l-1.159,0.402v0.274l0.952,0.127c0.31,0.286,0.574,0.952,0.873,1.996c-0.471,1.137-1.079,1.87-1.595,2.146
	l-0.528-0.494C0.207,15.823,0,16.03,0,16.339c0,0.368,0.276,0.62,0.712,0.62c0.757,0,1.446-0.769,2.192-2.329
	c0.378,1.629,0.527,2.306,1.331,2.306c0.309,0,0.745-0.114,1.285-0.332v-0.355c-0.276,0.08-0.482,0.126-0.608,0.126
	c-0.689,0-0.85-0.723-1.297-2.272c0.505-1.171,1.01-1.824,1.538-1.962l0.493,0.447c0.367-0.148,0.562-0.367,0.562-0.642
	c0-0.356-0.287-0.644-0.654-0.644c-0.723,0-1.434,0.77-2.191,2.307c-0.402-1.561-0.54-2.317-1.217-2.317L2.02,11.302z"/>
<path d="M11.534,13.563c0-0.402-0.321-0.734-0.723-0.734c-0.402,0-0.734,0.332-0.734,0.734s0.332,0.723,0.734,0.723
	C11.213,14.285,11.534,13.965,11.534,13.563"/>
<path d="M16.951,11.302l-1.125,0.367v0.253l0.976,0.08c0.206,0.275,0.356,0.665,0.459,1.193l0.711,3.454l0.035-0.023
	c-0.677,1.297-1.308,1.974-2.008,2.021l-0.677-0.678c-0.379,0.058-0.62,0.321-0.62,0.631c0,0.413,0.402,0.758,0.964,0.758
	c0.952,0,1.996-0.965,3.052-2.881c0.952-1.721,1.411-3.315,2.249-4.257l0.585-0.344v-0.241l-0.906-0.299h-0.218
	c-0.723,1.688-1.32,3.133-1.802,4.361l-0.378-1.939c-0.333-1.676-0.413-2.467-1.148-2.467L16.951,11.302z"/>
<path d="M25.726,15.146h7.711v-0.688h-7.711V15.146z M25.726,12.667h7.711v-0.688h-7.711V12.667z"/>
<path d="M39.583,13.576c0.448,0.241,0.815,0.597,1.021,1.079c0.459,1.067,0.608,2.214,0.608,3.373c0,0.689-0.057,1.377-0.126,2.066
	c-0.057,0.631-0.103,1.262-0.103,1.893c0,0.895,0.092,1.778,0.356,2.639c0.252,0.815,0.814,1.538,1.629,1.538v0.678
	c-1.079,0-1.997-0.735-2.421-1.733c-0.459-1.067-0.62-2.215-0.62-3.374c0-0.585,0.046-1.17,0.104-1.744
	c0.08-0.849,0.16-1.698,0.16-2.536c0-0.895-0.092-1.767-0.356-2.627c-0.206-0.666-0.963-0.918-1.686-0.918v-0.666
	c0.723,0,1.48-0.252,1.686-0.918c0.264-0.86,0.356-1.731,0.356-2.627c0-0.838-0.08-1.687-0.16-2.536
	c-0.058-0.574-0.104-1.159-0.104-1.744c0-1.158,0.161-2.307,0.62-3.374c0.424-0.998,1.342-1.732,2.421-1.732v0.677
	c-0.815,0-1.377,0.723-1.629,1.538c-0.264,0.861-0.356,1.744-0.356,2.639c0,0.631,0.046,1.263,0.103,1.894
	c0.069,0.688,0.126,1.377,0.126,2.065c0,1.159-0.149,2.307-0.608,3.373C40.398,12.979,40.032,13.335,39.583,13.576"/>
<path d="M51.681,3.651l-1.159,0.401v0.275l0.952,0.126c0.31,0.287,0.574,0.953,0.873,1.997c-0.471,1.136-1.079,1.87-1.595,2.146
	l-0.528-0.493c-0.356,0.068-0.563,0.275-0.563,0.585c0,0.367,0.276,0.619,0.712,0.619c0.757,0,1.446-0.769,2.192-2.329
	c0.378,1.63,0.527,2.307,1.331,2.307c0.309,0,0.745-0.115,1.285-0.333V8.597c-0.276,0.08-0.482,0.126-0.608,0.126
	c-0.689,0-0.85-0.723-1.297-2.271c0.505-1.171,1.01-1.825,1.538-1.962l0.493,0.446c0.367-0.148,0.562-0.366,0.562-0.642
	c0-0.355-0.287-0.643-0.654-0.643c-0.723,0-1.434,0.769-2.191,2.306c-0.402-1.56-0.54-2.317-1.217-2.317L51.681,3.651z"/>
<path d="M147.014,8.714h-0.456c-0.134,0-0.257-0.013-0.379-0.029c-0.123-0.018-0.223-0.059-0.31-0.117
	c-0.094-0.063-0.164-0.151-0.211-0.263c-0.059-0.111-0.081-0.263-0.081-0.45V3.365h1.688V2.8h-1.688V2.093
	c0-0.252,0.011-0.475,0.046-0.667c0.023-0.192,0.076-0.351,0.146-0.479c0.071-0.134,0.164-0.233,0.275-0.298
	c0.117-0.063,0.263-0.099,0.433-0.099c0.151,0,0.28,0.028,0.38,0.081s0.182,0.129,0.239,0.217c0.065,0.088,0.105,0.193,0.129,0.31
	c0.029,0.111,0.041,0.228,0.041,0.351c0.146,0,0.274-0.012,0.392-0.041c0.123-0.029,0.222-0.076,0.31-0.128l0.205-0.211
	c0.052-0.087,0.075-0.182,0.075-0.292c0-0.123-0.029-0.24-0.087-0.339c-0.06-0.1-0.152-0.188-0.287-0.264
	c-0.128-0.076-0.298-0.128-0.514-0.169C147.143,0.023,146.88,0,146.571,0c-0.327,0-0.619,0.047-0.883,0.146
	c-0.263,0.093-0.484,0.233-0.666,0.42c-0.182,0.188-0.322,0.415-0.42,0.69c-0.101,0.273-0.146,0.59-0.146,0.946V2.8h-1.094v0.565
	h1.094v4.489c0,0.188-0.03,0.339-0.082,0.45c-0.053,0.111-0.123,0.199-0.211,0.263c-0.088,0.059-0.188,0.1-0.309,0.117
	c-0.117,0.017-0.246,0.029-0.381,0.029h-0.158v0.503h3.699V8.714 M140.416,0.858c0,0.142,0.018,0.258,0.053,0.352
	c0.035,0.094,0.082,0.17,0.146,0.228l0.216,0.129c0.082,0.023,0.17,0.035,0.269,0.035c0.094,0,0.181-0.012,0.263-0.035l0.216-0.129
	c0.059-0.058,0.105-0.134,0.14-0.228c0.041-0.094,0.059-0.21,0.059-0.352c0-0.14-0.018-0.257-0.059-0.35
	c-0.035-0.094-0.081-0.17-0.146-0.229l-0.21-0.123c-0.082-0.022-0.169-0.034-0.263-0.034c-0.099,0-0.187,0.012-0.269,0.034
	l-0.216,0.123c-0.064,0.059-0.111,0.135-0.146,0.229C140.434,0.602,140.416,0.719,140.416,0.858 M139.604,8.714h-0.158v0.503h3.401
	V8.714h-0.156c-0.136,0-0.258-0.013-0.381-0.029c-0.123-0.018-0.222-0.059-0.31-0.117c-0.095-0.063-0.164-0.151-0.21-0.263
	c-0.059-0.111-0.082-0.263-0.082-0.45V2.8h-2.139v0.502h0.035c0.134,0,0.257,0.012,0.374,0.029c0.123,0.018,0.228,0.059,0.316,0.116
	c0.087,0.06,0.157,0.142,0.21,0.252c0.053,0.105,0.082,0.245,0.082,0.42v3.793c0,0.177-0.029,0.316-0.082,0.428
	c-0.053,0.104-0.123,0.187-0.21,0.24c-0.088,0.052-0.193,0.093-0.316,0.11C139.86,8.708,139.737,8.714,139.604,8.714"/>
<path d="M152.901,3.651l-1.125,0.367v0.253l0.976,0.08c0.206,0.274,0.354,0.664,0.459,1.192l0.711,3.454l0.034-0.023
	c-0.677,1.298-1.309,1.975-2.008,2.021l-0.677-0.677c-0.379,0.057-0.62,0.32-0.62,0.631c0,0.413,0.402,0.757,0.965,0.757
	c0.951,0,1.996-0.964,3.052-2.88c0.952-1.721,1.411-3.316,2.249-4.257l0.585-0.345v-0.24l-0.906-0.299h-0.218
	c-0.723,1.687-1.32,3.133-1.802,4.36l-0.378-1.939c-0.333-1.676-0.414-2.468-1.148-2.468L152.901,3.651"/>
<path d="M161.674,7.495h7.712V6.807h-7.712V7.495z M161.674,5.017h7.712V4.328h-7.712V5.017z"/>
<polygon points="176.301,1.379 173.811,2.125 173.811,2.607 175.614,2.285 175.614,8.459 175.475,8.654 174.156,8.723 
	174.156,9.216 178,9.216 178,8.734 176.76,8.677 176.623,8.505 176.623,1.379 "/>
<path d="M250.739,5.424c0,0.473-0.019,0.946-0.054,1.407c-0.04,0.462-0.122,0.9-0.245,1.315c-0.129,0.415-0.315,0.801-0.555,1.152
	c-0.24,0.35-0.566,0.647-0.976,0.899v0.549c0.549-0.216,1.017-0.484,1.407-0.795c0.393-0.31,0.707-0.684,0.953-1.109
	c0.245-0.434,0.427-0.93,0.537-1.496c0.117-0.562,0.176-1.204,0.176-1.923c0-0.72-0.059-1.362-0.176-1.917
	c-0.11-0.562-0.292-1.059-0.537-1.484c-0.246-0.427-0.561-0.795-0.953-1.105c-0.391-0.31-0.858-0.577-1.407-0.795V0.66
	c0.409,0.251,0.735,0.549,0.976,0.9c0.239,0.345,0.426,0.725,0.555,1.14c0.123,0.415,0.205,0.854,0.245,1.315
	C250.72,4.477,250.739,4.95,250.739,5.424 M245.561,9.333c0.357,0,0.66-0.041,0.924-0.116c0.263-0.076,0.485-0.177,0.66-0.292
	c0.176-0.117,0.305-0.246,0.392-0.387c0.088-0.135,0.129-0.263,0.129-0.386c0-0.099-0.023-0.187-0.076-0.263l-0.152-0.146
	c-0.069,0.111-0.157,0.21-0.274,0.311c-0.105,0.099-0.233,0.192-0.379,0.269c-0.147,0.076-0.305,0.141-0.48,0.188
	c-0.181,0.046-0.374,0.069-0.578,0.069c-0.287,0-0.538-0.047-0.754-0.146c-0.216-0.094-0.402-0.24-0.55-0.444
	c-0.151-0.205-0.268-0.462-0.344-0.778c-0.082-0.309-0.129-0.683-0.136-1.121h3.986V5.54c0-0.474-0.059-0.888-0.17-1.245
	c-0.116-0.355-0.28-0.653-0.496-0.894c-0.217-0.24-0.474-0.415-0.783-0.538c-0.31-0.122-0.654-0.181-1.041-0.181
	c-0.847,0-1.502,0.281-1.963,0.848c-0.462,0.566-0.689,1.408-0.689,2.524c0,0.52,0.063,0.981,0.192,1.385
	c0.123,0.409,0.305,0.754,0.543,1.035c0.24,0.28,0.532,0.491,0.877,0.637C244.744,9.258,245.129,9.333,245.561,9.333 M245.416,3.325
	c0.24,0,0.444,0.054,0.607,0.152c0.169,0.099,0.305,0.245,0.403,0.432c0.1,0.188,0.175,0.409,0.222,0.672
	c0.048,0.264,0.07,0.551,0.07,0.865h-2.752c0.041-0.695,0.181-1.221,0.42-1.583C244.626,3.507,244.971,3.325,245.416,3.325
	 M239.245,9.333c0.355,0,0.677-0.041,0.97-0.116c0.286-0.076,0.537-0.199,0.742-0.352c0.204-0.163,0.368-0.355,0.479-0.59
	c0.111-0.234,0.17-0.509,0.17-0.818c0-0.252-0.034-0.468-0.105-0.66c-0.07-0.193-0.175-0.362-0.321-0.515
	c-0.146-0.151-0.333-0.292-0.561-0.421c-0.229-0.128-0.497-0.257-0.813-0.391c-0.263-0.111-0.491-0.205-0.678-0.292
	c-0.193-0.088-0.345-0.183-0.462-0.275c-0.123-0.094-0.21-0.193-0.263-0.304c-0.054-0.111-0.082-0.245-0.082-0.397
	c0-0.141,0.023-0.269,0.063-0.386c0.041-0.117,0.112-0.216,0.205-0.304c0.088-0.088,0.205-0.152,0.351-0.199
	c0.146-0.046,0.315-0.07,0.521-0.07c0.355,0,0.613,0.111,0.783,0.333c0.164,0.223,0.245,0.532,0.245,0.936
	c0.274,0,0.49-0.064,0.643-0.193c0.146-0.134,0.222-0.309,0.222-0.526c0-0.146-0.034-0.285-0.11-0.42s-0.188-0.252-0.333-0.351
	c-0.146-0.099-0.333-0.181-0.549-0.24c-0.217-0.058-0.469-0.087-0.755-0.087c-0.339,0-0.648,0.035-0.923,0.111
	s-0.515,0.181-0.713,0.327c-0.199,0.14-0.351,0.315-0.456,0.525c-0.11,0.21-0.164,0.45-0.164,0.726c0,0.263,0.035,0.484,0.111,0.678
	c0.076,0.187,0.187,0.355,0.333,0.502c0.146,0.146,0.339,0.287,0.567,0.415c0.228,0.123,0.49,0.257,0.801,0.392
	c0.286,0.122,0.525,0.233,0.719,0.333c0.192,0.1,0.344,0.193,0.455,0.286c0.111,0.094,0.187,0.193,0.234,0.304
	c0.041,0.105,0.063,0.234,0.063,0.381c0,0.157-0.029,0.31-0.087,0.443c-0.059,0.135-0.14,0.246-0.251,0.346
	c-0.112,0.093-0.252,0.169-0.415,0.222c-0.164,0.053-0.351,0.076-0.567,0.076c-0.239,0-0.443-0.041-0.607-0.117
	c-0.17-0.082-0.304-0.193-0.403-0.327c-0.1-0.14-0.176-0.304-0.217-0.485c-0.04-0.181-0.064-0.38-0.064-0.59l-0.233,0.04
	l-0.245,0.129c-0.076,0.064-0.14,0.146-0.193,0.257c-0.053,0.105-0.082,0.24-0.082,0.398c0,0.21,0.047,0.391,0.142,0.555
	c0.093,0.152,0.227,0.286,0.396,0.397c0.169,0.104,0.38,0.187,0.625,0.233C238.671,9.31,238.947,9.333,239.245,9.333 M233.208,3.278
	c0.246,0,0.444,0.035,0.591,0.105c0.14,0.075,0.257,0.176,0.333,0.304c0.076,0.135,0.128,0.287,0.152,0.468
	c0.022,0.181,0.035,0.38,0.035,0.596v0.72l-0.994,0.035c-0.917,0.028-1.602,0.192-2.052,0.502c-0.449,0.31-0.678,0.777-0.678,1.415
	c0,0.326,0.047,0.606,0.141,0.847s0.222,0.438,0.392,0.596c0.163,0.158,0.362,0.275,0.59,0.352c0.229,0.075,0.473,0.116,0.736,0.116
	c0.252,0,0.462-0.029,0.643-0.088c0.176-0.053,0.333-0.134,0.475-0.233c0.14-0.1,0.268-0.223,0.385-0.362s0.24-0.292,0.363-0.462
	h0.099l0.187,1.029h1.619V8.714h-0.035c-0.135,0-0.245-0.012-0.339-0.041c-0.1-0.029-0.175-0.076-0.233-0.141
	c-0.059-0.063-0.1-0.151-0.128-0.263c-0.03-0.111-0.041-0.245-0.041-0.415V4.751c0-0.38-0.047-0.707-0.136-0.97
	c-0.093-0.263-0.233-0.474-0.415-0.637c-0.181-0.164-0.408-0.281-0.684-0.357c-0.274-0.069-0.59-0.104-0.958-0.104
	c-0.298,0-0.573,0.022-0.836,0.063s-0.491,0.111-0.689,0.199c-0.192,0.094-0.351,0.21-0.462,0.357
	c-0.11,0.146-0.169,0.32-0.169,0.525c0,0.274,0.087,0.474,0.257,0.584c0.176,0.111,0.427,0.169,0.76,0.169
	c0-0.187,0.012-0.361,0.041-0.52c0.029-0.157,0.082-0.298,0.164-0.415c0.075-0.116,0.187-0.21,0.333-0.274
	C232.793,3.308,232.98,3.278,233.208,3.278 M231.759,7.48c0-0.234,0.029-0.438,0.088-0.619c0.064-0.182,0.163-0.328,0.304-0.45
	c0.141-0.129,0.327-0.222,0.55-0.293c0.233-0.063,0.514-0.104,0.853-0.122l0.767-0.035v0.971c0,0.251-0.035,0.484-0.111,0.688
	c-0.076,0.205-0.183,0.38-0.316,0.526c-0.14,0.146-0.31,0.257-0.503,0.333c-0.198,0.076-0.42,0.117-0.66,0.117
	c-0.333,0-0.572-0.093-0.729-0.28C231.841,8.136,231.759,7.854,231.759,7.48 M227.185,0.55c-0.631,0-1.186,0.104-1.665,0.32
	c-0.479,0.218-0.883,0.516-1.197,0.9c-0.328,0.386-0.567,0.848-0.731,1.385c-0.164,0.538-0.245,1.128-0.245,1.777
	c0,0.66,0.076,1.257,0.233,1.8c0.158,0.544,0.386,1.005,0.696,1.391c0.304,0.387,0.684,0.685,1.134,0.895
	c0.45,0.211,0.976,0.315,1.571,0.315c0.444,0,0.83-0.041,1.151-0.129c0.321-0.082,0.59-0.187,0.801-0.314
	c0.21-0.129,0.368-0.27,0.468-0.434c0.104-0.151,0.157-0.31,0.157-0.462c0-0.122-0.022-0.216-0.063-0.292l-0.164-0.175
	c-0.1,0.134-0.216,0.257-0.352,0.38c-0.128,0.122-0.279,0.233-0.449,0.327c-0.169,0.094-0.368,0.169-0.591,0.222
	c-0.228,0.06-0.484,0.088-0.776,0.088c-0.438,0-0.818-0.088-1.128-0.263c-0.316-0.176-0.573-0.421-0.777-0.742
	c-0.205-0.315-0.351-0.695-0.444-1.14s-0.141-0.935-0.141-1.467c0-0.603,0.047-1.134,0.135-1.602
	c0.087-0.462,0.233-0.853,0.433-1.175c0.198-0.314,0.456-0.555,0.771-0.725c0.315-0.163,0.701-0.245,1.151-0.245
	c0.263,0,0.479,0.047,0.66,0.134c0.176,0.094,0.321,0.211,0.433,0.357c0.111,0.146,0.187,0.314,0.239,0.497
	c0.047,0.181,0.069,0.367,0.069,0.555c0.147,0,0.287-0.019,0.415-0.06c0.123-0.04,0.234-0.093,0.328-0.162
	c0.094-0.076,0.169-0.164,0.223-0.264c0.052-0.104,0.075-0.222,0.075-0.351c0-0.193-0.047-0.368-0.146-0.532
	c-0.1-0.163-0.252-0.304-0.45-0.426c-0.205-0.123-0.456-0.217-0.754-0.281C227.952,0.584,227.594,0.55,227.185,0.55 M216.592,9.333
	c0.356,0,0.66-0.041,0.923-0.116c0.264-0.076,0.485-0.177,0.66-0.292c0.176-0.117,0.304-0.246,0.392-0.387
	c0.089-0.135,0.129-0.263,0.129-0.386c0-0.099-0.023-0.187-0.075-0.263l-0.152-0.146c-0.071,0.111-0.158,0.21-0.274,0.311
	c-0.105,0.099-0.234,0.192-0.381,0.269c-0.146,0.076-0.304,0.141-0.479,0.188c-0.181,0.046-0.374,0.069-0.579,0.069
	c-0.286,0-0.537-0.047-0.754-0.146c-0.216-0.094-0.403-0.24-0.549-0.444c-0.152-0.205-0.27-0.462-0.346-0.778
	c-0.081-0.309-0.128-0.683-0.134-1.121h3.985V5.54c0-0.474-0.058-0.888-0.169-1.245c-0.117-0.355-0.281-0.653-0.497-0.894
	s-0.473-0.415-0.783-0.538c-0.31-0.122-0.654-0.181-1.04-0.181c-0.848,0-1.502,0.281-1.964,0.848
	c-0.461,0.566-0.689,1.408-0.689,2.524c0,0.52,0.064,0.981,0.193,1.385c0.122,0.409,0.303,0.754,0.543,1.035
	c0.24,0.28,0.532,0.491,0.877,0.637C215.773,9.258,216.16,9.333,216.592,9.333 M216.447,3.325c0.238,0,0.443,0.054,0.606,0.152
	c0.17,0.099,0.304,0.245,0.404,0.432c0.099,0.188,0.175,0.409,0.222,0.672c0.046,0.264,0.07,0.551,0.07,0.865h-2.753
	c0.041-0.695,0.181-1.221,0.421-1.583C215.658,3.507,216.001,3.325,216.447,3.325 M210.274,9.333c0.357,0,0.679-0.041,0.971-0.116
	c0.287-0.076,0.538-0.199,0.742-0.352c0.204-0.163,0.368-0.355,0.479-0.59s0.169-0.509,0.169-0.818c0-0.252-0.035-0.468-0.104-0.66
	c-0.07-0.193-0.176-0.362-0.321-0.515c-0.147-0.151-0.334-0.292-0.563-0.421c-0.227-0.128-0.496-0.257-0.812-0.391
	c-0.263-0.111-0.491-0.205-0.678-0.292c-0.193-0.088-0.346-0.183-0.461-0.275c-0.123-0.094-0.211-0.193-0.264-0.304
	c-0.053-0.111-0.082-0.245-0.082-0.397c0-0.141,0.023-0.269,0.064-0.386s0.11-0.216,0.205-0.304c0.087-0.088,0.204-0.152,0.35-0.199
	c0.146-0.046,0.316-0.07,0.521-0.07c0.356,0,0.613,0.111,0.782,0.333c0.164,0.223,0.246,0.532,0.246,0.936
	c0.275,0,0.491-0.064,0.644-0.193c0.146-0.134,0.222-0.309,0.222-0.526c0-0.146-0.035-0.285-0.111-0.42
	c-0.075-0.135-0.187-0.252-0.333-0.351c-0.146-0.099-0.333-0.181-0.55-0.24c-0.216-0.058-0.467-0.087-0.754-0.087
	c-0.339,0-0.647,0.035-0.923,0.111S209.2,2.986,209,3.133c-0.199,0.14-0.352,0.315-0.456,0.525c-0.111,0.21-0.163,0.45-0.163,0.726
	c0,0.263,0.035,0.484,0.111,0.678c0.076,0.187,0.187,0.355,0.333,0.502c0.146,0.146,0.339,0.287,0.566,0.415
	c0.229,0.123,0.491,0.257,0.8,0.392c0.287,0.122,0.526,0.233,0.72,0.333c0.192,0.1,0.345,0.193,0.456,0.286
	c0.11,0.094,0.187,0.193,0.233,0.304c0.041,0.105,0.064,0.234,0.064,0.381c0,0.157-0.029,0.31-0.088,0.443
	c-0.059,0.135-0.141,0.246-0.251,0.346c-0.111,0.093-0.251,0.169-0.415,0.222s-0.352,0.076-0.567,0.076
	c-0.239,0-0.443-0.041-0.607-0.117c-0.17-0.082-0.304-0.193-0.403-0.327c-0.099-0.14-0.175-0.304-0.216-0.485
	c-0.041-0.181-0.064-0.38-0.064-0.59l-0.233,0.04l-0.246,0.129c-0.076,0.064-0.141,0.146-0.192,0.257
	c-0.053,0.105-0.082,0.24-0.082,0.398c0,0.21,0.047,0.391,0.14,0.555c0.095,0.152,0.229,0.286,0.397,0.397
	c0.17,0.104,0.38,0.187,0.626,0.233C209.702,9.31,209.976,9.333,210.274,9.333 M204.24,3.278c0.245,0,0.443,0.035,0.59,0.105
	c0.14,0.075,0.257,0.176,0.333,0.304c0.076,0.135,0.129,0.287,0.151,0.468c0.024,0.181,0.035,0.38,0.035,0.596v0.72l-0.993,0.035
	c-0.918,0.028-1.602,0.192-2.052,0.502s-0.677,0.777-0.677,1.415c0,0.326,0.046,0.606,0.14,0.847s0.223,0.438,0.392,0.596
	c0.164,0.158,0.362,0.275,0.591,0.352c0.228,0.075,0.473,0.116,0.736,0.116c0.251,0,0.462-0.029,0.643-0.088
	c0.175-0.053,0.333-0.134,0.473-0.233c0.141-0.1,0.27-0.223,0.387-0.362c0.116-0.14,0.239-0.292,0.361-0.462h0.101l0.187,1.029
	h1.618V8.714h-0.035c-0.134,0-0.245-0.012-0.339-0.041c-0.099-0.029-0.175-0.076-0.233-0.141c-0.059-0.063-0.1-0.151-0.129-0.263
	c-0.028-0.111-0.041-0.245-0.041-0.415V4.751c0-0.38-0.047-0.707-0.134-0.97c-0.094-0.263-0.233-0.474-0.415-0.637
	c-0.181-0.164-0.409-0.281-0.684-0.357c-0.275-0.069-0.59-0.104-0.958-0.104c-0.298,0-0.573,0.022-0.836,0.063
	c-0.264,0.041-0.491,0.111-0.69,0.199c-0.193,0.094-0.35,0.21-0.461,0.357c-0.111,0.146-0.17,0.32-0.17,0.525
	c0,0.274,0.088,0.474,0.257,0.584c0.176,0.111,0.427,0.169,0.76,0.169c0-0.187,0.013-0.361,0.041-0.52
	c0.029-0.157,0.082-0.298,0.164-0.415c0.076-0.116,0.188-0.21,0.333-0.274C203.825,3.308,204.011,3.278,204.24,3.278 M202.791,7.48
	c0-0.234,0.029-0.438,0.087-0.619c0.063-0.182,0.164-0.328,0.304-0.45c0.141-0.129,0.327-0.222,0.549-0.293
	c0.234-0.063,0.516-0.104,0.854-0.122l0.765-0.035v0.971c0,0.251-0.035,0.484-0.11,0.688c-0.076,0.205-0.182,0.38-0.315,0.526
	c-0.141,0.146-0.31,0.257-0.503,0.333c-0.199,0.076-0.421,0.117-0.66,0.117c-0.333,0-0.573-0.093-0.73-0.28
	C202.872,8.136,202.791,7.854,202.791,7.48 M196.014,4.441V1.269h0.8c0.34,0,0.626,0.022,0.859,0.076
	c0.24,0.052,0.433,0.134,0.579,0.257c0.146,0.123,0.257,0.28,0.321,0.473c0.064,0.199,0.1,0.444,0.1,0.737
	c0,0.286-0.029,0.537-0.094,0.742c-0.059,0.204-0.158,0.374-0.298,0.502c-0.141,0.135-0.327,0.228-0.562,0.293
	c-0.233,0.063-0.525,0.093-0.876,0.093H196.014z M196.014,8.62V5.037h1.187c0.351,0,0.643,0.035,0.877,0.111
	c0.232,0.076,0.42,0.187,0.561,0.339c0.146,0.152,0.245,0.345,0.304,0.573c0.059,0.228,0.088,0.503,0.088,0.812
	c0,0.322-0.035,0.592-0.1,0.813c-0.063,0.222-0.175,0.403-0.322,0.537c-0.146,0.141-0.338,0.24-0.571,0.304
	c-0.234,0.064-0.521,0.094-0.859,0.094H196.014z M199.954,2.812c0-0.737-0.252-1.274-0.76-1.625c-0.51-0.339-1.28-0.514-2.314-0.514
	h-3.209v0.502h0.152c0.135,0,0.257,0.012,0.374,0.023c0.123,0.023,0.228,0.059,0.315,0.117c0.087,0.058,0.158,0.14,0.21,0.245
	c0.054,0.111,0.082,0.251,0.082,0.427v5.867c0,0.187-0.022,0.339-0.076,0.45c-0.053,0.11-0.123,0.199-0.21,0.257
	c-0.088,0.064-0.192,0.104-0.31,0.123c-0.123,0.018-0.251,0.029-0.386,0.029h-0.152v0.503h3.565c1.034,0,1.806-0.193,2.313-0.579
	c0.509-0.38,0.76-0.958,0.76-1.73c0-0.314-0.047-0.596-0.134-0.847c-0.088-0.245-0.217-0.462-0.38-0.644
	c-0.158-0.181-0.351-0.326-0.579-0.438c-0.228-0.111-0.473-0.193-0.748-0.24V4.692c0.211-0.07,0.403-0.157,0.585-0.263
	c0.182-0.1,0.339-0.228,0.473-0.379c0.135-0.152,0.234-0.328,0.311-0.532C199.913,3.313,199.954,3.079,199.954,2.812 M191.004,5.424
	c0-0.474,0.018-0.947,0.058-1.408c0.036-0.462,0.117-0.9,0.24-1.315s0.311-0.795,0.549-1.14c0.246-0.352,0.573-0.649,0.982-0.9
	V0.122c-0.549,0.218-1.018,0.48-1.408,0.795c-0.392,0.305-0.707,0.679-0.959,1.105c-0.245,0.426-0.426,0.923-0.537,1.478
	c-0.11,0.562-0.17,1.204-0.17,1.924c0,0.719,0.06,1.361,0.17,1.923c0.111,0.566,0.292,1.063,0.537,1.489
	c0.252,0.433,0.567,0.807,0.959,1.116c0.391,0.311,0.859,0.579,1.408,0.795v-0.549c-0.409-0.252-0.736-0.55-0.982-0.899
	c-0.238-0.352-0.426-0.737-0.549-1.152s-0.204-0.854-0.24-1.315C191.022,6.37,191.004,5.896,191.004,5.424"/>
<path d="M51.681,18.097l-1.159,0.402v0.275l0.952,0.126c0.31,0.287,0.574,0.952,0.873,1.997c-0.471,1.136-1.079,1.869-1.595,2.146
	l-0.528-0.494c-0.356,0.069-0.563,0.276-0.563,0.585c0,0.368,0.276,0.62,0.712,0.62c0.757,0,1.446-0.769,2.192-2.329
	c0.378,1.629,0.527,2.307,1.331,2.307c0.309,0,0.745-0.115,1.285-0.333v-0.355c-0.276,0.08-0.482,0.126-0.608,0.126
	c-0.689,0-0.85-0.723-1.297-2.271c0.505-1.172,1.01-1.825,1.538-1.963l0.493,0.447c0.367-0.148,0.562-0.367,0.562-0.642
	c0-0.356-0.287-0.644-0.654-0.644c-0.723,0-1.434,0.77-2.191,2.307c-0.402-1.561-0.54-2.317-1.217-2.317L51.681,18.097z"/>
<path d="M71.004,20.357c0-3.144,0.918-4.705,2.238-4.934v-0.528c-1.905,0.229-3.213,1.996-3.213,5.462
	c0,3.465,1.308,5.232,3.213,5.462v-0.527C71.922,25.062,71.004,23.502,71.004,20.357 M62.698,20.702v3.189h0.688v-3.189h3.19v-0.688
	h-3.19v-3.19h-0.688v3.19h-3.19v0.688h0.344H62.698z"/>
<path d="M76.242,18.097l-1.159,0.402v0.275l0.952,0.126c0.31,0.287,0.574,0.952,0.873,1.997c-0.471,1.136-1.079,1.869-1.595,2.146
	l-0.528-0.494c-0.356,0.069-0.563,0.276-0.563,0.585c0,0.368,0.276,0.62,0.712,0.62c0.757,0,1.446-0.769,2.192-2.329
	c0.378,1.629,0.527,2.307,1.331,2.307c0.309,0,0.745-0.115,1.285-0.333v-0.355c-0.276,0.08-0.482,0.126-0.608,0.126
	c-0.689,0-0.85-0.723-1.297-2.271c0.505-1.172,1.01-1.825,1.538-1.963l0.493,0.447c0.367-0.148,0.562-0.367,0.562-0.642
	c0-0.356-0.287-0.644-0.654-0.644c-0.723,0-1.434,0.77-2.191,2.307c-0.402-1.561-0.54-2.317-1.217-2.317L76.242,18.097z"/>
<path d="M85.756,20.357c0-0.402-0.321-0.734-0.723-0.734s-0.734,0.332-0.734,0.734s0.332,0.723,0.734,0.723
	S85.756,20.76,85.756,20.357"/>
<path d="M90.405,20.357c0-3.144,0.918-4.705,2.238-4.934v-0.528c-1.905,0.229-3.213,1.997-3.213,5.462s1.308,5.232,3.213,5.462
	v-0.528C91.323,25.063,90.405,23.502,90.405,20.357"/>
<path d="M95.684,18.097l-1.124,0.367v0.253l0.975,0.08c0.206,0.275,0.356,0.665,0.459,1.193l0.711,3.454l0.035-0.023
	c-0.677,1.297-1.308,1.974-2.008,2.021l-0.677-0.678c-0.379,0.058-0.62,0.321-0.62,0.631c0,0.413,0.402,0.758,0.964,0.758
	c0.952,0,1.996-0.965,3.052-2.88c0.952-1.722,1.411-3.316,2.249-4.258l0.585-0.344V18.43l-0.906-0.299h-0.218
	c-0.723,1.688-1.32,3.133-1.802,4.361l-0.378-1.939c-0.333-1.676-0.413-2.467-1.148-2.467L95.684,18.097z"/>
<rect x="103.557" y="20.015" width="7.803" height="0.688"/>
<polygon points="117.375,15.825 114.885,16.571 114.885,17.053 116.688,16.731 116.688,22.905 116.549,23.1 115.229,23.169 
	115.229,23.662 119.073,23.662 119.073,23.18 117.834,23.123 117.696,22.951 117.696,15.825 "/>
<path d="M127.573,20.357c0,3.144-0.918,4.705-2.238,4.934v0.528c1.905-0.229,3.213-1.997,3.213-5.462s-1.308-5.232-3.213-5.462
	v0.528C126.655,15.653,127.573,17.214,127.573,20.357 M123.068,20.357c0,3.144-0.918,4.705-2.237,4.934v0.528
	c1.904-0.229,3.212-1.997,3.212-5.462s-1.308-5.232-3.212-5.462v0.528C122.15,15.653,123.068,17.214,123.068,20.357"/>
<path d="M147.014,23.159h-0.456c-0.134,0-0.257-0.012-0.379-0.028c-0.123-0.019-0.223-0.06-0.31-0.117
	c-0.094-0.064-0.164-0.152-0.211-0.264c-0.059-0.11-0.081-0.263-0.081-0.449v-4.488h1.688v-0.567h-1.688v-0.707
	c0-0.251,0.011-0.474,0.046-0.667c0.023-0.191,0.076-0.35,0.146-0.479c0.071-0.134,0.164-0.233,0.275-0.298
	c0.117-0.064,0.263-0.1,0.433-0.1c0.151,0,0.28,0.029,0.38,0.082s0.182,0.128,0.239,0.217c0.065,0.088,0.105,0.192,0.129,0.31
	c0.029,0.111,0.041,0.227,0.041,0.35c0.146,0,0.274-0.011,0.392-0.041c0.123-0.028,0.222-0.075,0.31-0.128l0.205-0.211
	c0.052-0.087,0.075-0.181,0.075-0.292c0-0.122-0.029-0.238-0.087-0.339c-0.06-0.099-0.152-0.187-0.287-0.263
	c-0.128-0.076-0.298-0.128-0.514-0.169c-0.217-0.041-0.479-0.064-0.789-0.064c-0.327,0-0.619,0.046-0.883,0.146
	c-0.263,0.093-0.484,0.232-0.666,0.42c-0.182,0.187-0.322,0.415-0.42,0.689c-0.101,0.275-0.146,0.591-0.146,0.947v0.596h-1.094
	v0.567h1.094v4.488c0,0.187-0.03,0.339-0.082,0.449c-0.053,0.111-0.123,0.199-0.211,0.264c-0.088,0.058-0.188,0.099-0.309,0.117
	c-0.117,0.017-0.246,0.028-0.381,0.028h-0.158v0.503h3.699V23.159 M140.416,15.306c0,0.14,0.018,0.257,0.053,0.35
	c0.035,0.095,0.082,0.17,0.146,0.229l0.216,0.129c0.082,0.022,0.17,0.035,0.269,0.035c0.094,0,0.181-0.013,0.263-0.035l0.216-0.129
	c0.059-0.059,0.105-0.134,0.14-0.229c0.041-0.093,0.059-0.21,0.059-0.35c0-0.142-0.018-0.258-0.059-0.352
	c-0.035-0.094-0.081-0.17-0.146-0.228l-0.21-0.123c-0.082-0.023-0.169-0.035-0.263-0.035c-0.099,0-0.187,0.012-0.269,0.035
	l-0.216,0.123c-0.064,0.058-0.111,0.134-0.146,0.228C140.434,15.048,140.416,15.164,140.416,15.306 M139.604,23.159h-0.158v0.503
	h3.401v-0.503h-0.156c-0.136,0-0.258-0.012-0.381-0.028c-0.123-0.019-0.222-0.06-0.31-0.117c-0.095-0.064-0.164-0.152-0.21-0.264
	c-0.059-0.11-0.082-0.263-0.082-0.449v-5.056h-2.139v0.502h0.035c0.134,0,0.257,0.013,0.374,0.03
	c0.123,0.018,0.228,0.059,0.316,0.117c0.087,0.058,0.157,0.14,0.21,0.251c0.053,0.104,0.082,0.245,0.082,0.421v3.792
	c0,0.176-0.029,0.316-0.082,0.427c-0.053,0.105-0.123,0.188-0.21,0.24c-0.088,0.052-0.193,0.093-0.316,0.111
	C139.86,23.153,139.737,23.159,139.604,23.159"/>
<path d="M152.901,18.097l-1.125,0.367v0.253l0.976,0.08c0.206,0.275,0.354,0.665,0.459,1.193l0.711,3.454l0.034-0.023
	c-0.677,1.297-1.309,1.974-2.008,2.021l-0.677-0.678c-0.379,0.058-0.62,0.321-0.62,0.631c0,0.413,0.402,0.758,0.965,0.758
	c0.951,0,1.996-0.965,3.052-2.88c0.952-1.722,1.411-3.316,2.249-4.258l0.585-0.344V18.43l-0.906-0.299h-0.218
	c-0.723,1.688-1.32,3.133-1.802,4.361l-0.378-1.939c-0.333-1.676-0.414-2.468-1.148-2.468L152.901,18.097"/>
<polygon points="161.674,17.811 167.826,20.357 161.674,22.905 161.674,23.651 169.064,20.587 169.064,20.128 161.674,17.064 "/>
<polygon points="176.301,15.825 173.811,16.571 173.811,17.053 175.614,16.731 175.614,22.905 175.475,23.1 174.156,23.169 
	174.156,23.662 178,23.662 178,23.18 176.76,23.123 176.623,22.951 176.623,15.825 "/>
<path d="M280.284,19.869c0,0.474-0.019,0.947-0.054,1.408c-0.041,0.462-0.123,0.9-0.245,1.315c-0.129,0.414-0.315,0.801-0.556,1.151
	c-0.239,0.351-0.566,0.648-0.976,0.9v0.549c0.55-0.216,1.017-0.485,1.409-0.795c0.391-0.311,0.707-0.685,0.951-1.11
	c0.246-0.433,0.428-0.929,0.538-1.496c0.117-0.561,0.176-1.204,0.176-1.923s-0.059-1.362-0.176-1.917
	c-0.11-0.561-0.292-1.058-0.538-1.483c-0.244-0.428-0.561-0.796-0.951-1.105c-0.393-0.31-0.859-0.578-1.409-0.795v0.538
	c0.409,0.251,0.736,0.549,0.976,0.899c0.24,0.346,0.427,0.726,0.556,1.141c0.122,0.415,0.204,0.853,0.245,1.314
	C280.265,18.922,280.284,19.396,280.284,19.869 M275.106,23.779c0.356,0,0.66-0.041,0.924-0.117
	c0.263-0.076,0.484-0.175,0.659-0.292c0.177-0.117,0.305-0.246,0.393-0.386c0.088-0.134,0.129-0.263,0.129-0.386
	c0-0.1-0.024-0.188-0.076-0.264l-0.152-0.146c-0.07,0.111-0.157,0.211-0.274,0.31c-0.105,0.1-0.234,0.193-0.38,0.27
	c-0.146,0.076-0.305,0.14-0.479,0.187c-0.181,0.046-0.374,0.07-0.579,0.07c-0.286,0-0.537-0.047-0.754-0.146
	c-0.216-0.094-0.402-0.239-0.549-0.443c-0.152-0.205-0.269-0.462-0.345-0.778c-0.082-0.309-0.128-0.683-0.134-1.122h3.985v-0.549
	c0-0.473-0.059-0.888-0.17-1.245c-0.117-0.355-0.281-0.654-0.497-0.894c-0.216-0.24-0.473-0.415-0.783-0.538
	c-0.31-0.122-0.653-0.182-1.04-0.182c-0.847,0-1.502,0.281-1.964,0.849c-0.461,0.565-0.688,1.408-0.688,2.523
	c0,0.521,0.063,0.982,0.192,1.386c0.122,0.408,0.304,0.754,0.543,1.034c0.24,0.28,0.532,0.491,0.878,0.638
	C274.288,23.703,274.673,23.779,275.106,23.779 M274.96,17.771c0.239,0,0.444,0.053,0.606,0.151c0.171,0.1,0.305,0.245,0.404,0.433
	c0.1,0.187,0.175,0.409,0.223,0.672c0.046,0.263,0.069,0.55,0.069,0.865h-2.753c0.041-0.695,0.181-1.222,0.421-1.583
	C274.171,17.952,274.515,17.771,274.96,17.771 M268.789,23.779c0.356,0,0.678-0.041,0.97-0.117c0.287-0.076,0.538-0.199,0.742-0.351
	c0.205-0.163,0.369-0.356,0.479-0.59c0.111-0.234,0.169-0.509,0.169-0.818c0-0.252-0.034-0.468-0.104-0.661
	c-0.07-0.191-0.175-0.362-0.321-0.514c-0.146-0.152-0.334-0.292-0.562-0.421c-0.228-0.128-0.496-0.257-0.813-0.392
	c-0.263-0.11-0.491-0.205-0.678-0.292c-0.193-0.088-0.345-0.182-0.461-0.274c-0.123-0.095-0.211-0.193-0.263-0.305
	c-0.054-0.11-0.082-0.244-0.082-0.396c0-0.142,0.022-0.27,0.063-0.386c0.041-0.117,0.111-0.217,0.205-0.305
	c0.087-0.088,0.204-0.151,0.351-0.198c0.146-0.047,0.315-0.07,0.52-0.07c0.357,0,0.614,0.111,0.783,0.333
	c0.164,0.222,0.246,0.532,0.246,0.935c0.274,0,0.49-0.063,0.643-0.192c0.146-0.135,0.222-0.31,0.222-0.525
	c0-0.146-0.034-0.287-0.11-0.421c-0.076-0.135-0.188-0.252-0.333-0.351c-0.146-0.1-0.333-0.182-0.55-0.24s-0.468-0.087-0.754-0.087
	c-0.34,0-0.648,0.035-0.924,0.11c-0.274,0.076-0.514,0.182-0.713,0.327c-0.199,0.141-0.351,0.316-0.456,0.526
	c-0.11,0.21-0.163,0.45-0.163,0.725c0,0.264,0.035,0.485,0.111,0.678c0.076,0.188,0.188,0.356,0.333,0.503
	c0.146,0.146,0.339,0.286,0.567,0.414c0.228,0.123,0.49,0.258,0.8,0.393c0.287,0.122,0.525,0.234,0.719,0.333
	s0.345,0.193,0.456,0.286c0.111,0.094,0.188,0.192,0.234,0.304c0.041,0.105,0.063,0.234,0.063,0.38c0,0.158-0.028,0.311-0.088,0.444
	c-0.058,0.135-0.14,0.246-0.251,0.345c-0.111,0.093-0.251,0.169-0.415,0.222c-0.163,0.054-0.351,0.076-0.567,0.076
	c-0.238,0-0.443-0.041-0.607-0.117c-0.169-0.082-0.303-0.192-0.403-0.326c-0.099-0.141-0.175-0.305-0.216-0.485
	s-0.064-0.38-0.064-0.59l-0.233,0.04l-0.246,0.129c-0.075,0.063-0.14,0.146-0.192,0.257c-0.053,0.105-0.082,0.24-0.082,0.398
	c0,0.21,0.048,0.391,0.141,0.555c0.094,0.152,0.228,0.286,0.396,0.396c0.17,0.105,0.38,0.188,0.626,0.234
	C268.215,23.755,268.491,23.779,268.789,23.779 M262.753,17.725c0.245,0,0.444,0.035,0.59,0.104c0.14,0.076,0.257,0.176,0.333,0.304
	c0.076,0.136,0.129,0.287,0.152,0.469c0.023,0.181,0.035,0.38,0.035,0.596v0.719l-0.993,0.035c-0.918,0.029-1.603,0.193-2.052,0.502
	c-0.449,0.311-0.678,0.778-0.678,1.415c0,0.327,0.046,0.608,0.141,0.847c0.093,0.24,0.222,0.438,0.391,0.597
	c0.164,0.158,0.363,0.274,0.591,0.351c0.229,0.076,0.474,0.117,0.736,0.117c0.251,0,0.462-0.03,0.643-0.088
	c0.175-0.053,0.333-0.134,0.474-0.234c0.14-0.099,0.269-0.222,0.386-0.361c0.117-0.141,0.24-0.292,0.362-0.463h0.1l0.188,1.029
	h1.617v-0.503h-0.035c-0.134,0-0.244-0.011-0.339-0.041c-0.099-0.029-0.175-0.076-0.232-0.14c-0.06-0.064-0.101-0.152-0.129-0.264
	c-0.029-0.11-0.041-0.244-0.041-0.414v-3.104c0-0.38-0.047-0.707-0.135-0.97c-0.094-0.264-0.233-0.475-0.415-0.638
	c-0.181-0.163-0.408-0.28-0.684-0.356c-0.275-0.07-0.59-0.105-0.958-0.105c-0.298,0-0.573,0.024-0.836,0.064
	c-0.263,0.041-0.491,0.111-0.69,0.199c-0.192,0.094-0.35,0.21-0.461,0.356c-0.11,0.146-0.17,0.321-0.17,0.526
	c0,0.273,0.088,0.473,0.258,0.584c0.176,0.111,0.427,0.169,0.76,0.169c0-0.188,0.012-0.362,0.041-0.521
	c0.028-0.156,0.082-0.298,0.164-0.414c0.075-0.116,0.187-0.211,0.333-0.274C262.338,17.753,262.526,17.725,262.753,17.725
	 M261.304,21.927c0-0.234,0.029-0.438,0.087-0.619c0.064-0.182,0.164-0.328,0.305-0.45c0.14-0.129,0.326-0.222,0.549-0.293
	c0.233-0.064,0.515-0.105,0.854-0.122l0.766-0.035v0.97c0,0.251-0.035,0.485-0.111,0.689c-0.076,0.205-0.181,0.38-0.315,0.526
	c-0.141,0.146-0.31,0.258-0.503,0.333c-0.198,0.075-0.421,0.116-0.66,0.116c-0.333,0-0.572-0.093-0.73-0.279
	C261.385,22.581,261.304,22.301,261.304,21.927 M256.73,14.995c-0.631,0-1.187,0.105-1.666,0.321
	c-0.479,0.217-0.882,0.515-1.197,0.9c-0.327,0.386-0.567,0.848-0.73,1.385c-0.164,0.538-0.246,1.128-0.246,1.776
	c0,0.66,0.076,1.258,0.234,1.801c0.158,0.544,0.386,1.005,0.695,1.391c0.304,0.386,0.684,0.684,1.134,0.894
	c0.45,0.211,0.976,0.316,1.572,0.316c0.443,0,0.829-0.041,1.151-0.129c0.321-0.082,0.59-0.188,0.8-0.315
	c0.211-0.129,0.368-0.269,0.469-0.433c0.104-0.152,0.157-0.31,0.157-0.462c0-0.122-0.023-0.216-0.064-0.292l-0.163-0.175
	c-0.1,0.134-0.217,0.257-0.352,0.38c-0.129,0.123-0.28,0.233-0.449,0.327c-0.17,0.094-0.368,0.17-0.59,0.222
	c-0.229,0.059-0.485,0.088-0.778,0.088c-0.438,0-0.818-0.088-1.127-0.263c-0.316-0.176-0.573-0.421-0.778-0.742
	c-0.204-0.316-0.35-0.696-0.444-1.14c-0.093-0.444-0.14-0.936-0.14-1.468c0-0.602,0.047-1.134,0.134-1.601
	c0.088-0.462,0.234-0.854,0.434-1.175c0.197-0.315,0.456-0.556,0.771-0.726c0.316-0.163,0.701-0.245,1.151-0.245
	c0.263,0,0.479,0.048,0.661,0.135c0.175,0.094,0.32,0.211,0.432,0.356c0.111,0.146,0.188,0.316,0.24,0.497
	c0.047,0.182,0.07,0.368,0.07,0.556c0.146,0,0.285-0.019,0.414-0.06c0.123-0.04,0.234-0.093,0.327-0.163
	c0.095-0.076,0.17-0.164,0.223-0.263c0.053-0.105,0.075-0.222,0.075-0.352c0-0.192-0.046-0.367-0.146-0.531
	c-0.099-0.163-0.251-0.305-0.45-0.427c-0.204-0.123-0.456-0.216-0.754-0.28C257.496,15.03,257.139,14.995,256.73,14.995
	 M246.136,23.779c0.357,0,0.661-0.041,0.924-0.117c0.264-0.076,0.485-0.175,0.66-0.292s0.304-0.246,0.392-0.386
	c0.088-0.134,0.129-0.263,0.129-0.386c0-0.1-0.023-0.188-0.076-0.264l-0.152-0.146c-0.07,0.111-0.158,0.211-0.274,0.31
	c-0.105,0.1-0.233,0.193-0.38,0.27s-0.304,0.14-0.479,0.187c-0.181,0.046-0.374,0.07-0.578,0.07c-0.287,0-0.538-0.047-0.754-0.146
	c-0.216-0.094-0.403-0.239-0.549-0.443c-0.152-0.205-0.27-0.462-0.345-0.778c-0.082-0.309-0.13-0.683-0.136-1.122h3.986v-0.549
	c0-0.473-0.058-0.888-0.169-1.245c-0.117-0.355-0.281-0.654-0.497-0.894c-0.216-0.24-0.474-0.415-0.783-0.538
	c-0.31-0.122-0.655-0.182-1.041-0.182c-0.847,0-1.501,0.281-1.963,0.849c-0.462,0.565-0.689,1.408-0.689,2.523
	c0,0.521,0.064,0.982,0.192,1.386c0.123,0.408,0.304,0.754,0.544,1.034c0.239,0.28,0.531,0.491,0.876,0.638
	C245.319,23.703,245.705,23.779,246.136,23.779 M245.991,17.771c0.239,0,0.443,0.053,0.607,0.151c0.169,0.1,0.305,0.245,0.403,0.433
	c0.099,0.187,0.175,0.409,0.222,0.672s0.07,0.55,0.07,0.865h-2.752c0.041-0.695,0.181-1.222,0.421-1.583
	C245.202,17.952,245.546,17.771,245.991,17.771 M235.824,17.748h0.034c0.117,0,0.218,0.012,0.305,0.029l0.228,0.099l0.176,0.199
	c0.053,0.082,0.1,0.188,0.146,0.311l1.922,5.276h1.093l1.889-4.979c0.075-0.193,0.14-0.346,0.204-0.469
	c0.059-0.122,0.122-0.216,0.188-0.285l0.222-0.146c0.081-0.023,0.182-0.035,0.299-0.035h0.146v-0.503h-2.566v0.503h0.089
	c0.263,0,0.462,0.046,0.59,0.141c0.134,0.093,0.199,0.244,0.199,0.449l-0.029,0.234c-0.012,0.087-0.041,0.181-0.082,0.28
	l-0.859,2.332c-0.053,0.146-0.11,0.292-0.17,0.45c-0.063,0.157-0.123,0.31-0.175,0.455c-0.059,0.152-0.111,0.292-0.152,0.415
	c-0.047,0.128-0.082,0.233-0.099,0.321h-0.041c-0.018-0.099-0.041-0.228-0.082-0.368c-0.041-0.151-0.082-0.304-0.129-0.468
	c-0.052-0.163-0.105-0.327-0.158-0.502c-0.052-0.164-0.104-0.322-0.157-0.462l-0.813-2.262l-0.07-0.233l-0.022-0.205
	c0-0.199,0.058-0.345,0.181-0.438c0.117-0.095,0.298-0.141,0.538-0.141h0.151v-0.503h-2.992V17.748z M233.199,15.306
	c0,0.14,0.018,0.257,0.053,0.35c0.035,0.094,0.082,0.17,0.146,0.228l0.217,0.13c0.082,0.022,0.17,0.034,0.269,0.034
	c0.094,0,0.181-0.012,0.263-0.034l0.217-0.13c0.059-0.058,0.104-0.134,0.141-0.228c0.04-0.093,0.058-0.21,0.058-0.35
	c0-0.141-0.018-0.258-0.058-0.352c-0.036-0.093-0.082-0.169-0.147-0.228l-0.21-0.123c-0.082-0.023-0.169-0.035-0.263-0.035
	c-0.099,0-0.187,0.012-0.269,0.035l-0.217,0.123c-0.063,0.059-0.11,0.135-0.146,0.228C233.216,15.048,233.199,15.165,233.199,15.306
	 M232.386,23.159h-0.158v0.503h3.401v-0.503h-0.157c-0.135,0-0.257-0.011-0.38-0.029c-0.123-0.018-0.222-0.058-0.31-0.116
	c-0.094-0.064-0.164-0.152-0.21-0.264c-0.06-0.11-0.082-0.263-0.082-0.449v-5.056h-2.14v0.503h0.035
	c0.134,0,0.257,0.012,0.374,0.029c0.123,0.017,0.229,0.058,0.316,0.117c0.087,0.058,0.156,0.14,0.21,0.251
	c0.053,0.104,0.082,0.245,0.082,0.421v3.793c0,0.175-0.029,0.314-0.082,0.426c-0.054,0.105-0.123,0.188-0.21,0.24
	c-0.088,0.052-0.193,0.093-0.316,0.111C232.643,23.153,232.52,23.159,232.386,23.159 M229.073,23.779
	c0.356,0,0.678-0.041,0.971-0.117c0.286-0.076,0.537-0.199,0.742-0.351c0.204-0.163,0.368-0.356,0.479-0.59
	c0.111-0.234,0.169-0.509,0.169-0.818c0-0.252-0.035-0.468-0.104-0.661c-0.07-0.191-0.175-0.362-0.321-0.514
	c-0.146-0.152-0.333-0.292-0.561-0.421c-0.229-0.128-0.497-0.257-0.813-0.392c-0.263-0.11-0.49-0.205-0.677-0.292
	c-0.193-0.088-0.345-0.182-0.462-0.274c-0.123-0.095-0.211-0.193-0.264-0.305c-0.053-0.11-0.082-0.244-0.082-0.396
	c0-0.142,0.023-0.27,0.064-0.386c0.041-0.117,0.111-0.217,0.205-0.305c0.088-0.088,0.204-0.151,0.35-0.198
	c0.147-0.047,0.316-0.07,0.521-0.07c0.355,0,0.613,0.111,0.783,0.333c0.163,0.222,0.244,0.532,0.244,0.935
	c0.275,0,0.491-0.063,0.644-0.192c0.146-0.135,0.222-0.31,0.222-0.525c0-0.146-0.035-0.287-0.11-0.421
	c-0.076-0.135-0.188-0.252-0.333-0.351c-0.146-0.1-0.333-0.182-0.55-0.24s-0.468-0.087-0.754-0.087c-0.339,0-0.648,0.035-0.924,0.11
	c-0.273,0.076-0.514,0.182-0.713,0.327c-0.198,0.141-0.35,0.316-0.455,0.526c-0.112,0.21-0.164,0.45-0.164,0.725
	c0,0.264,0.035,0.485,0.111,0.678c0.076,0.188,0.187,0.356,0.333,0.503c0.146,0.146,0.339,0.286,0.566,0.414
	c0.229,0.123,0.491,0.258,0.802,0.393c0.286,0.122,0.525,0.234,0.718,0.333c0.193,0.099,0.345,0.193,0.456,0.286
	c0.11,0.094,0.187,0.192,0.233,0.304c0.041,0.105,0.064,0.234,0.064,0.38c0,0.158-0.029,0.311-0.087,0.444
	c-0.06,0.135-0.141,0.246-0.252,0.345c-0.111,0.093-0.251,0.169-0.415,0.222c-0.163,0.054-0.35,0.076-0.566,0.076
	c-0.239,0-0.444-0.041-0.607-0.117c-0.17-0.082-0.305-0.192-0.403-0.326c-0.1-0.141-0.176-0.305-0.217-0.485s-0.064-0.38-0.064-0.59
	l-0.233,0.04l-0.245,0.129c-0.076,0.063-0.142,0.146-0.193,0.257c-0.053,0.105-0.082,0.24-0.082,0.398
	c0,0.21,0.047,0.391,0.141,0.555c0.094,0.152,0.228,0.286,0.397,0.396c0.169,0.105,0.38,0.188,0.625,0.234
	C228.5,23.755,228.774,23.779,229.073,23.779 M224.778,23.662v-0.503h-0.333c-0.135,0-0.258-0.011-0.374-0.022
	c-0.122-0.024-0.229-0.06-0.315-0.111c-0.088-0.053-0.158-0.135-0.211-0.24c-0.052-0.111-0.082-0.251-0.082-0.426v-1.882
	c0-0.152,0.006-0.322,0.024-0.509c0.017-0.188,0.041-0.374,0.082-0.562c0.034-0.193,0.08-0.374,0.14-0.555
	c0.063-0.182,0.14-0.339,0.222-0.479c0.094-0.134,0.193-0.246,0.311-0.333c0.116-0.082,0.251-0.123,0.396-0.123
	c0.234,0,0.398,0.07,0.491,0.216c0.094,0.146,0.14,0.387,0.14,0.72c0.205,0,0.374-0.023,0.516-0.064
	c0.14-0.041,0.257-0.099,0.344-0.175c0.088-0.076,0.152-0.164,0.199-0.269c0.041-0.105,0.059-0.223,0.059-0.346
	c0-0.274-0.105-0.491-0.315-0.643c-0.217-0.152-0.538-0.229-0.977-0.229c-0.263,0-0.485,0.035-0.66,0.1
	c-0.176,0.07-0.321,0.164-0.438,0.28c-0.122,0.123-0.223,0.258-0.305,0.415c-0.08,0.158-0.162,0.327-0.238,0.509h-0.06l-0.228-1.187
	h-1.84v0.503h0.035c0.134,0,0.257,0.012,0.379,0.029c0.116,0.017,0.223,0.058,0.31,0.117c0.088,0.058,0.164,0.14,0.216,0.245
	c0.053,0.11,0.076,0.251,0.076,0.427v3.734c0,0.187-0.023,0.339-0.076,0.449c-0.052,0.111-0.122,0.199-0.21,0.257
	c-0.088,0.065-0.192,0.105-0.31,0.123c-0.122,0.019-0.251,0.029-0.385,0.029h-0.035v0.503H224.778z M219.643,22.359v-5.114h-2.139
	v0.503h0.035c0.134,0,0.263,0.012,0.38,0.029c0.123,0.017,0.222,0.058,0.315,0.117c0.088,0.063,0.157,0.151,0.211,0.263
	c0.052,0.117,0.075,0.27,0.075,0.456v2.466c0,0.286-0.028,0.549-0.088,0.789c-0.058,0.239-0.146,0.438-0.269,0.608
	c-0.122,0.169-0.28,0.303-0.467,0.396c-0.193,0.094-0.422,0.141-0.685,0.141c-0.24,0-0.443-0.035-0.602-0.111
	c-0.164-0.07-0.292-0.175-0.386-0.315c-0.1-0.141-0.163-0.31-0.204-0.515c-0.041-0.204-0.064-0.432-0.064-0.695v-4.132h-2.145v0.503
	h0.034c0.135,0,0.258,0.012,0.381,0.029c0.116,0.017,0.222,0.058,0.309,0.117c0.088,0.058,0.164,0.14,0.217,0.245
	c0.052,0.11,0.076,0.251,0.076,0.427v2.869c0,0.409,0.046,0.76,0.134,1.058s0.21,0.538,0.38,0.731
	c0.169,0.191,0.374,0.333,0.619,0.42c0.246,0.088,0.526,0.135,0.842,0.135c0.193,0,0.381-0.012,0.562-0.047
	c0.181-0.023,0.351-0.082,0.514-0.164c0.164-0.076,0.322-0.188,0.468-0.327c0.146-0.14,0.275-0.321,0.397-0.549h0.059l0.157,0.97
	h1.9v-0.503h-0.035c-0.135,0-0.257-0.011-0.374-0.022c-0.123-0.024-0.229-0.06-0.316-0.111c-0.088-0.053-0.157-0.135-0.21-0.24
	C219.672,22.674,219.643,22.534,219.643,22.359 M210.842,23.779c0.339,0,0.637-0.035,0.889-0.105
	c0.251-0.064,0.468-0.151,0.638-0.263c0.169-0.11,0.292-0.233,0.38-0.369c0.087-0.134,0.128-0.273,0.128-0.409
	c0-0.11-0.017-0.203-0.058-0.279l-0.146-0.188c-0.135,0.245-0.345,0.444-0.62,0.603c-0.274,0.157-0.602,0.232-0.97,0.232
	c-0.644,0-1.104-0.21-1.385-0.625c-0.286-0.415-0.428-1.052-0.428-1.898c0-0.532,0.035-0.977,0.106-1.333
	c0.07-0.356,0.169-0.638,0.303-0.848c0.135-0.21,0.293-0.356,0.48-0.443c0.181-0.088,0.391-0.129,0.619-0.129
	c0.204,0,0.367,0.035,0.503,0.11c0.128,0.07,0.232,0.17,0.309,0.298c0.076,0.123,0.129,0.27,0.158,0.439
	c0.029,0.169,0.047,0.344,0.047,0.531c0.357,0,0.62-0.059,0.801-0.169c0.182-0.111,0.27-0.311,0.27-0.584
	c0-0.205-0.065-0.387-0.188-0.538c-0.122-0.158-0.286-0.286-0.485-0.386c-0.197-0.1-0.42-0.176-0.666-0.223
	c-0.25-0.052-0.496-0.076-0.747-0.076c-0.381,0-0.73,0.054-1.053,0.164c-0.327,0.111-0.607,0.292-0.847,0.556
	c-0.24,0.263-0.427,0.607-0.561,1.04c-0.136,0.427-0.205,0.964-0.205,1.602c0,0.59,0.069,1.092,0.205,1.507
	c0.134,0.415,0.32,0.754,0.561,1.018c0.239,0.263,0.532,0.462,0.865,0.585C210.078,23.721,210.446,23.779,210.842,23.779
	 M204.492,23.779c0.355,0,0.659-0.041,0.923-0.117c0.263-0.076,0.484-0.175,0.661-0.292c0.175-0.117,0.304-0.246,0.391-0.386
	c0.088-0.134,0.129-0.263,0.129-0.386c0-0.1-0.023-0.188-0.076-0.264l-0.151-0.146c-0.07,0.111-0.158,0.211-0.275,0.31
	c-0.104,0.1-0.234,0.193-0.38,0.27c-0.146,0.076-0.304,0.14-0.479,0.187c-0.181,0.046-0.373,0.07-0.578,0.07
	c-0.286,0-0.537-0.047-0.754-0.146c-0.217-0.094-0.403-0.239-0.55-0.443c-0.151-0.205-0.269-0.462-0.345-0.778
	c-0.081-0.309-0.128-0.683-0.134-1.122h3.985v-0.549c0-0.473-0.059-0.888-0.17-1.245c-0.116-0.355-0.279-0.654-0.496-0.894
	c-0.217-0.24-0.474-0.415-0.783-0.538c-0.31-0.122-0.654-0.182-1.04-0.182c-0.848,0-1.502,0.281-1.963,0.849
	c-0.462,0.565-0.69,1.408-0.69,2.523c0,0.521,0.064,0.982,0.193,1.386c0.122,0.408,0.304,0.754,0.543,1.034s0.531,0.491,0.877,0.638
	C203.673,23.703,204.058,23.779,204.492,23.779 M204.345,17.771c0.239,0,0.444,0.053,0.608,0.151c0.169,0.1,0.303,0.245,0.402,0.433
	c0.1,0.187,0.176,0.409,0.223,0.672s0.069,0.55,0.069,0.865h-2.753c0.041-0.695,0.183-1.222,0.421-1.583
	C203.556,17.952,203.901,17.771,204.345,17.771 M196.014,19.331V15.69h0.813c0.339,0,0.625,0.036,0.864,0.1
	c0.234,0.064,0.428,0.163,0.573,0.311c0.146,0.14,0.257,0.32,0.321,0.549c0.063,0.222,0.099,0.491,0.099,0.812
	c0,0.311-0.028,0.585-0.093,0.818c-0.059,0.234-0.158,0.427-0.298,0.585s-0.327,0.275-0.562,0.35
	c-0.233,0.076-0.525,0.117-0.877,0.117H196.014z M199.847,22.201l-1.642-2.595c0.211-0.07,0.421-0.164,0.631-0.28
	c0.211-0.117,0.398-0.263,0.567-0.438c0.17-0.176,0.304-0.381,0.402-0.625c0.106-0.234,0.158-0.515,0.158-0.836
	c0-0.771-0.251-1.351-0.759-1.736c-0.509-0.379-1.28-0.572-2.315-0.572h-3.22v0.502h0.152c0.135,0,0.257,0.012,0.374,0.03
	c0.123,0.017,0.228,0.052,0.315,0.111c0.087,0.058,0.158,0.14,0.21,0.251c0.054,0.104,0.082,0.244,0.082,0.421v5.926
	c0,0.175-0.028,0.314-0.082,0.426c-0.052,0.105-0.123,0.188-0.21,0.24c-0.088,0.052-0.192,0.093-0.315,0.111
	c-0.117,0.017-0.239,0.022-0.374,0.022h-0.152v0.503h3.483v-0.503h-0.158c-0.134,0-0.257-0.006-0.379-0.022
	c-0.117-0.019-0.223-0.06-0.311-0.111c-0.088-0.053-0.158-0.135-0.211-0.24c-0.052-0.111-0.081-0.251-0.081-0.426v-2.467h0.993
	l1.619,2.694c0.134,0.228,0.263,0.409,0.386,0.55c0.117,0.14,0.257,0.251,0.426,0.326c0.17,0.076,0.368,0.13,0.614,0.158
	c0.24,0.029,0.543,0.041,0.917,0.041h0.17v-0.503h-0.035c-0.251,0-0.473-0.082-0.666-0.239
	C200.246,22.763,200.052,22.522,199.847,22.201 M191.004,19.869c0-0.473,0.018-0.947,0.058-1.408
	c0.036-0.462,0.117-0.899,0.24-1.314s0.311-0.795,0.549-1.141c0.246-0.351,0.573-0.648,0.982-0.899v-0.538
	c-0.549,0.217-1.018,0.479-1.408,0.795c-0.392,0.304-0.707,0.678-0.959,1.105c-0.245,0.426-0.426,0.923-0.537,1.478
	c-0.11,0.561-0.17,1.204-0.17,1.923s0.06,1.362,0.17,1.923c0.111,0.567,0.292,1.063,0.537,1.49c0.252,0.432,0.567,0.806,0.959,1.116
	c0.391,0.31,0.859,0.579,1.408,0.795v-0.549c-0.409-0.252-0.736-0.55-0.982-0.9c-0.238-0.351-0.426-0.737-0.549-1.151
	c-0.123-0.415-0.204-0.854-0.24-1.315C191.022,20.816,191.004,20.343,191.004,19.869"/>
</svg>
