<?xml version="1.0" encoding="iso-8859-1"?>
<!-- Generator: Adobe Illustrator 14.0.0, SVG Export Plug-In . SVG Version: 6.00 Build 43363)  -->
<!DOCTYPE svg PUBLIC "-//W3C//DTD SVG 1.1//EN" "http://www.w3.org/Graphics/SVG/1.1/DTD/svg11.dtd">
<svg version="1.1" id="Layer_1" xmlns="http://www.w3.org/2000/svg" xmlns:xlink="http://www.w3.org/1999/xlink" x="0px" y="0px"
	 width="160.382px" height="192.781px" viewBox="0 0 160.382 192.781" style="enable-background:new 0 0 160.382 192.781;"
	 xml:space="preserve">
<g>
	<g>
		<line style="fill:none;stroke:#000000;stroke-width:2;" x1="101.79" y1="69.389" x2="117.212" y2="108.018"/>
		<polygon points="112.684,107.637 113.358,106.063 117.067,107.654 118.659,103.946 120.232,104.622 117.965,109.904 		"/>
	</g>
</g>
<g>
	<g>
		<line style="fill:none;stroke:#000000;stroke-width:2;" x1="144.989" y1="69.391" x2="129.509" y2="108.018"/>
		<polygon points="126.492,104.618 128.066,103.944 129.654,107.655 133.364,106.067 134.038,107.643 128.753,109.903 		"/>
	</g>
</g>
<g>
	<g>
		<line style="fill:none;stroke:#000000;stroke-width:2;" x1="15.391" y1="69.39" x2="30.84" y2="108.018"/>
		<polygon points="26.311,107.639 26.984,106.065 30.694,107.655 32.284,103.945 33.858,104.62 31.594,109.903 		"/>
	</g>
</g>
<g>
	<g>
		<line style="fill:none;stroke:#000000;stroke-width:2;" x1="58.658" y1="69.391" x2="43.156" y2="108.018"/>
		<polygon points="40.142,104.617 41.716,103.943 43.302,107.655 47.013,106.069 47.686,107.645 42.399,109.902 		"/>
	</g>
</g>
<g>
	<g>
		<line style="fill:none;stroke:#000000;stroke-width:2;" x1="36.988" y1="123.391" x2="69.489" y2="164.015"/>
		<polygon points="65.045,164.966 65.233,163.265 69.245,163.71 69.69,159.699 71.393,159.888 70.758,165.601 		"/>
	</g>
</g>
<g>
	<g>
		<line style="fill:none;stroke:#000000;stroke-width:2;" x1="123.342" y1="123.39" x2="90.878" y2="164.015"/>
		<polygon points="88.972,159.889 90.673,159.698 91.122,163.71 95.133,163.262 95.322,164.964 89.61,165.602 		"/>
	</g>
</g>
<g>
	<g>
		<line style="fill:none;stroke:#000000;stroke-width:2;" x1="80.188" y1="15.393" x2="132.32" y2="58.834"/>
		<polygon points="128.156,60.655 128.001,58.95 132.021,58.584 131.654,54.565 133.36,54.41 133.881,60.135 		"/>
	</g>
</g>
<g>
	<g>
		<line style="fill:none;stroke:#000000;stroke-width:2;" x1="80.188" y1="15.393" x2="95.674" y2="53.584"/>
		<polygon points="91.144,53.228 91.81,51.65 95.527,53.222 97.1,49.505 98.677,50.173 96.438,55.467 		"/>
	</g>
</g>
<g>
	<g>
		<line style="fill:none;stroke:#000000;stroke-width:2;" x1="80.634" y1="14.863" x2="65.195" y2="53.584"/>
		<polygon points="62.173,50.19 63.745,49.514 65.34,53.221 69.048,51.627 69.724,53.201 64.443,55.471 		"/>
	</g>
</g>
<g>
	<g>
		<line style="fill:none;stroke:#000000;stroke-width:2;" x1="80.188" y1="15.393" x2="27.799" y2="58.834"/>
		<polygon points="26.77,54.407 28.474,54.566 28.1,58.585 32.117,58.96 31.958,60.665 26.235,60.131 		"/>
	</g>
</g>
<circle style="fill:#FFFFFF;" cx="15.391" cy="69.39" r="14.391"/>
<path style="fill:#1072BA;" d="M15.391,69.39c0,0,0.002,0-14.391,0c0-7.95,6.445-14.392,14.393-14.392
	C15.393,67.13,15.391,69.39,15.391,69.39z"/>
<circle style="fill:none;stroke:#000000;stroke-width:2;" cx="15.391" cy="69.39" r="14.391"/>
<circle style="fill:#FFFFFF;" cx="58.523" cy="69.39" r="14.391"/>
<path style="fill:#1072BA;" d="M58.658,69.391c0,0-0.002,0,14.391,0c0,7.949-6.445,14.39-14.393,14.39
	C58.656,71.65,58.658,69.391,58.658,69.391z"/>
<circle style="fill:none;stroke:#000000;stroke-width:2;" cx="58.523" cy="69.39" r="14.391"/>
<circle style="fill:#FFFFFF;" cx="101.79" cy="69.39" r="14.393"/>
<path style="fill:#1072BA;" d="M101.79,69.389c0,0,0,0.002,0-14.391c7.949,0,14.391,6.445,14.391,14.393
	C104.05,69.391,101.79,69.389,101.79,69.389z"/>
<circle style="fill:none;stroke:#000000;stroke-width:2;" cx="101.79" cy="69.39" r="14.393"/>
<circle style="fill:#FFFFFF;" cx="144.99" cy="69.389" r="14.392"/>
<path style="fill:#1072BA;" d="M144.989,69.391c0,0,0-0.002,0,14.391c-7.949,0-14.391-6.445-14.391-14.393
	C142.729,69.389,144.989,69.391,144.989,69.391z"/>
<circle style="fill:none;stroke:#000000;stroke-width:2;" cx="144.99" cy="69.389" r="14.392"/>
<circle style="fill:#FFFFFF;" cx="123.431" cy="123.391" r="14.393"/>
<path style="fill:#1072BA;" d="M123.349,123.388c0,0,0,0.002,0-14.391c7.949,0,14.391,6.445,14.391,14.393
	C125.608,123.39,123.349,123.388,123.349,123.388z"/>
<path style="fill:#1072BA;" d="M123.349,123.39c0,0,0-0.002,0,14.391c-7.949,0-14.391-6.445-14.391-14.393
	C121.089,123.388,123.349,123.39,123.349,123.39z"/>
<circle style="fill:none;stroke:#000000;stroke-width:2;" cx="123.431" cy="123.391" r="14.393"/>
<circle style="fill:#1072BA;stroke:#000000;stroke-width:2;" cx="80.19" cy="177.389" r="14.392"/>
<circle style="fill:#FFFFFF;" cx="36.99" cy="123.39" r="14.392"/>
<path style="fill:#1072BA;" d="M36.992,123.388c0,0-0.002,0,14.391,0c0,7.949-6.445,14.391-14.393,14.391
	C36.99,125.647,36.992,123.388,36.992,123.388z"/>
<path style="fill:#1072BA;" d="M36.988,123.388c0,0,0.002,0-14.391,0c0-7.949,6.445-14.391,14.393-14.391
	C36.99,121.128,36.988,123.388,36.988,123.388z"/>
<circle style="fill:none;stroke:#000000;stroke-width:2;" cx="36.99" cy="123.39" r="14.392"/>
<circle style="fill:#FFFFFF;stroke:#000000;stroke-width:2;" cx="80.187" cy="15.391" r="14.391"/>
</svg>
