<?xml version="1.0" encoding="iso-8859-1"?>
<!-- Generator: Adobe Illustrator 14.0.0, SVG Export Plug-In . SVG Version: 6.00 Build 43363)  -->
<!DOCTYPE svg PUBLIC "-//W3C//DTD SVG 1.1//EN" "http://www.w3.org/Graphics/SVG/1.1/DTD/svg11.dtd">
<svg version="1.1" id="Layer_1" xmlns="http://www.w3.org/2000/svg" xmlns:xlink="http://www.w3.org/1999/xlink" x="0px" y="0px"
	 width="144.729px" height="15.296px" viewBox="0 0 144.729 15.296" style="enable-background:new 0 0 144.729 15.296;"
	 xml:space="preserve">
<path d="M3.35,7.003l0.551,0.653l-0.516,2.914c-0.517,0.654-1.045,0.977-1.469,0.977c-0.597,0-0.987-0.505-0.987-1.412
	c0-1.916,1.113-3.167,2.146-3.167C3.155,6.968,3.247,6.992,3.35,7.003 M5.209,3.652L3.453,3.985v0.321l1.01,0.115L4.062,6.716
	c-0.31-0.138-0.609-0.195-0.918-0.195c-0.953,0-1.963,0.573-2.582,1.549C0.195,8.655,0,9.367,0,10.147
	c0,1.309,0.585,2.055,1.503,2.055c0.608,0,1.227-0.356,1.79-1.068l-0.012,0.229c0,0.563,0.241,0.815,0.769,0.815
	c0.298,0,0.78-0.104,1.411-0.333v-0.344c-0.344,0.08-0.596,0.126-0.745,0.126c-0.345,0-0.505-0.161-0.505-0.482
	c0-0.148,0.023-0.367,0.069-0.62l1.227-6.873H5.209z"/>
<path d="M9.933,10.376h7.711V9.689H9.933V10.376z M9.933,7.898h7.711V7.209H9.933V7.898z"/>
<polygon points="22.941,9.983 23.744,9.306 25.752,15.296 26.51,15.296 32.155,0.689 32.901,0.689 32.901,0 31.673,0 26.452,13.483 
	24.547,7.814 22.539,9.501 "/>
<line style="fill:none;stroke:#000000;stroke-width:0.689;stroke-miterlimit:10;" x1="32.605" y1="0.345" x2="144.729" y2="0.345"/>
<path d="M34.224,8.792c0-3.144,0.918-4.705,2.238-4.934V3.331c-1.905,0.23-3.213,1.997-3.213,5.462c0,3.466,1.308,5.232,3.213,5.462
	v-0.527C35.142,13.498,34.224,11.937,34.224,8.792"/>
<path d="M39.457,6.533l-1.159,0.401v0.275l0.952,0.126c0.31,0.287,0.574,0.953,0.873,1.997c-0.471,1.136-1.079,1.87-1.595,2.146
	L38,10.984c-0.356,0.069-0.563,0.276-0.563,0.585c0,0.368,0.276,0.62,0.712,0.62c0.757,0,1.446-0.769,2.192-2.329
	c0.378,1.63,0.527,2.307,1.331,2.307c0.309,0,0.745-0.115,1.285-0.333v-0.355c-0.276,0.08-0.482,0.126-0.608,0.126
	c-0.689,0-0.85-0.723-1.297-2.271c0.505-1.171,1.01-1.825,1.538-1.962l0.493,0.446c0.367-0.148,0.562-0.366,0.562-0.642
	c0-0.356-0.287-0.643-0.654-0.643c-0.723,0-1.434,0.769-2.191,2.306c-0.402-1.561-0.54-2.317-1.217-2.317L39.457,6.533z"/>
<polygon points="46.403,9.47 44.744,9.967 44.744,10.289 45.944,10.075 45.944,14.187 45.853,14.317 44.973,14.363 44.973,14.691 
	47.534,14.691 47.534,14.371 46.709,14.333 46.617,14.217 46.617,9.47 "/>
<rect x="51.188" y="8.45" width="7.803" height="0.688"/>
<path d="M63.778,6.533l-1.159,0.401v0.275l0.952,0.126c0.31,0.287,0.574,0.953,0.873,1.997c-0.471,1.136-1.079,1.87-1.595,2.146
	l-0.528-0.494c-0.356,0.069-0.563,0.276-0.563,0.585c0,0.368,0.276,0.62,0.712,0.62c0.757,0,1.446-0.769,2.192-2.329
	c0.378,1.63,0.527,2.307,1.331,2.307c0.309,0,0.745-0.115,1.285-0.333v-0.355c-0.276,0.08-0.482,0.126-0.608,0.126
	c-0.689,0-0.85-0.723-1.297-2.271c0.505-1.171,1.01-1.825,1.538-1.962l0.493,0.446c0.367-0.148,0.562-0.366,0.562-0.642
	c0-0.356-0.287-0.643-0.654-0.643c-0.723,0-1.434,0.769-2.191,2.306c-0.402-1.561-0.54-2.317-1.217-2.317L63.778,6.533z"/>
<path d="M69.423,14.087c1.689-1.345,2.615-2.209,2.615-3.173c0-0.863-0.604-1.444-1.591-1.444c-0.948,0-1.62,0.542-1.62,1.078
	c0,0.259,0.16,0.429,0.428,0.429c0.122,0,0.237-0.039,0.344-0.115v-0.818c0.229-0.13,0.451-0.183,0.68-0.183
	c0.635,0,1.017,0.428,1.017,1.153c0,1.002-0.956,1.836-2.63,3.195v0.482h3.54v-1.254h-0.344l-0.138,0.649H69.423z"/>
<path d="M75.979,8.792c0,3.145-0.918,4.705-2.237,4.935v0.527c1.904-0.229,3.213-1.996,3.213-5.462c0-3.465-1.309-5.231-3.213-5.462
	v0.528C75.061,4.087,75.979,5.649,75.979,8.792"/>
<path d="M78.687,8.372c1.689-1.345,2.615-2.209,2.615-3.173c0-0.863-0.604-1.444-1.591-1.444c-0.948,0-1.62,0.542-1.62,1.078
	c0,0.259,0.16,0.428,0.428,0.428c0.122,0,0.237-0.039,0.344-0.114V4.328c0.229-0.13,0.451-0.183,0.681-0.183
	c0.635,0,1.017,0.428,1.017,1.153c0,1.001-0.956,1.835-2.63,3.195v0.482h3.54V7.721h-0.344l-0.139,0.65H78.687z"/>
<path d="M96.634,8.793c0-3.145,0.918-4.705,2.238-4.935V3.332c-1.905,0.229-3.213,1.995-3.213,5.462
	c0,3.465,1.308,5.231,3.213,5.462v-0.528C97.552,13.498,96.634,11.937,96.634,8.793 M88.328,9.137v3.189h0.688V9.137h3.19V8.449
	h-3.19V5.259h-0.688v3.189h-3.19v0.688h0.345H88.328z"/>
<path d="M101.917,6.533l-1.125,0.366v0.254l0.976,0.079c0.206,0.275,0.356,0.665,0.459,1.193l0.712,3.454l0.034-0.023
	c-0.677,1.297-1.308,1.975-2.008,2.021l-0.677-0.677c-0.379,0.057-0.62,0.32-0.62,0.631c0,0.413,0.402,0.757,0.964,0.757
	c0.952,0,1.996-0.964,3.052-2.88c0.952-1.721,1.411-3.316,2.249-4.257l0.585-0.345v-0.24l-0.905-0.3h-0.219
	c-0.723,1.688-1.319,3.134-1.802,4.361l-0.378-1.938c-0.333-1.677-0.413-2.468-1.147-2.468L101.917,6.533z"/>
<polygon points="108.794,9.47 107.135,9.967 107.135,10.289 108.335,10.075 108.335,14.187 108.244,14.317 107.364,14.363 
	107.364,14.691 109.925,14.691 109.925,14.371 109.1,14.333 109.008,14.217 109.008,9.47 "/>
<rect x="113.578" y="8.45" width="7.804" height="0.688"/>
<path d="M126.215,6.533l-1.125,0.366v0.254l0.977,0.079c0.205,0.275,0.355,0.665,0.459,1.193l0.711,3.454l0.035-0.023
	c-0.678,1.297-1.309,1.975-2.009,2.021l-0.677-0.677c-0.379,0.057-0.62,0.32-0.62,0.631c0,0.413,0.402,0.757,0.964,0.757
	c0.952,0,1.996-0.964,3.053-2.88c0.951-1.721,1.41-3.316,2.249-4.257l0.585-0.345v-0.24l-0.906-0.3h-0.218
	c-0.724,1.688-1.32,3.134-1.803,4.361l-0.378-1.938c-0.333-1.677-0.413-2.468-1.147-2.468L126.215,6.533z"/>
<path d="M131.793,14.087c1.688-1.345,2.613-2.209,2.613-3.173c0-0.863-0.603-1.444-1.59-1.444c-0.948,0-1.62,0.542-1.62,1.078
	c0,0.259,0.16,0.429,0.428,0.429c0.122,0,0.237-0.039,0.345-0.115v-0.818c0.229-0.13,0.451-0.183,0.68-0.183
	c0.635,0,1.017,0.428,1.017,1.153c0,1.002-0.955,1.836-2.63,3.195v0.482h3.54v-1.254h-0.344l-0.138,0.649H131.793z"/>
<path d="M138.347,8.792c0,3.145-0.918,4.705-2.238,4.935v0.527c1.905-0.229,3.214-1.996,3.214-5.462
	c0-3.465-1.309-5.231-3.214-5.462v0.528C137.429,4.087,138.347,5.649,138.347,8.792"/>
<path d="M141.055,8.372c1.688-1.345,2.614-2.209,2.614-3.173c0-0.863-0.604-1.444-1.591-1.444c-0.947,0-1.619,0.542-1.619,1.078
	c0,0.259,0.159,0.428,0.428,0.428c0.122,0,0.237-0.039,0.344-0.114V4.328c0.229-0.13,0.451-0.183,0.68-0.183
	c0.636,0,1.018,0.428,1.018,1.153c0,1.001-0.956,1.835-2.63,3.195v0.482h3.54V7.721h-0.345l-0.138,0.65H141.055z"/>
</svg>
