<?xml version="1.0" encoding="iso-8859-1"?>
<!-- Generator: Adobe Illustrator 14.0.0, SVG Export Plug-In . SVG Version: 6.00 Build 43363)  -->
<!DOCTYPE svg PUBLIC "-//W3C//DTD SVG 1.1//EN" "http://www.w3.org/Graphics/SVG/1.1/DTD/svg11.dtd">
<svg version="1.1" id="Layer_1" xmlns="http://www.w3.org/2000/svg" xmlns:xlink="http://www.w3.org/1999/xlink" x="0px" y="0px"
	 width="577.33px" height="206px" viewBox="0 0 577.33 206" style="enable-background:new 0 0 577.33 206;" xml:space="preserve">
<rect x="372.832" y="32" style="fill:#DFF2F7;stroke:#000000;" width="200" height="79"/>
<rect x="434.832" y="40.75" style="fill:#D8ECD1;stroke:#000000;" width="128" height="16.5"/>
<rect x="434.832" y="61.75" style="fill:#D8ECD1;stroke:#000000;" width="120" height="16.5"/>
<rect x="434.832" y="83.75" style="fill:#D8ECD1;stroke:#000000;" width="28" height="16.5"/>
<g>
	<path d="M444.024,18.475h-1.096v-3.996h-3.428v3.996h-1.096V9.908h1.096v3.609h3.428V9.908h1.096V18.475z"/>
	<path d="M450.218,18.475l-0.158-0.861h-0.059c-0.41,0.652-1.063,0.979-1.957,0.979c-1.527,0-2.291-0.783-2.291-2.35v-4.201h1.066
		v4.143c0,1.016,0.461,1.523,1.383,1.523c0.629,0,1.088-0.181,1.377-0.542s0.434-0.956,0.434-1.784v-3.34h1.066v6.434H450.218z"/>
	<path d="M457.741,18.475v-4.143c0-0.57-0.052-0.967-0.155-1.189s-0.276-0.334-0.519-0.334c-0.34,0-0.587,0.162-0.741,0.486
		s-0.231,0.867-0.231,1.629v3.551h-0.943v-4.143c0-1.016-0.244-1.523-0.732-1.523c-0.328,0-0.563,0.155-0.703,0.466
		s-0.211,0.933-0.211,1.866v3.334h-0.949v-6.434h0.744l0.158,0.867h0.059c0.262-0.656,0.654-0.984,1.178-0.984
		c0.637,0,1.053,0.355,1.248,1.066h0.035c0.297-0.711,0.725-1.066,1.283-1.066c0.5,0,0.863,0.181,1.09,0.542s0.34,0.964,0.34,1.808
		v4.201H457.741z"/>
	<path d="M464.462,18.475l-0.217-0.891h-0.047c-0.301,0.379-0.609,0.642-0.926,0.788s-0.725,0.22-1.225,0.22
		c-0.637,0-1.136-0.168-1.497-0.504s-0.542-0.807-0.542-1.412c0-1.297,0.996-1.977,2.988-2.039l1.189-0.041v-0.404
		c0-0.922-0.477-1.383-1.43-1.383c-0.574,0-1.215,0.16-1.922,0.48l-0.369-0.803c0.766-0.375,1.514-0.563,2.244-0.563
		c0.887,0,1.528,0.17,1.925,0.51s0.595,0.885,0.595,1.635v4.406H464.462z M464.175,15.328l-0.949,0.041
		c-0.766,0.031-1.309,0.151-1.629,0.36s-0.48,0.528-0.48,0.958c0,0.695,0.391,1.043,1.172,1.043c0.574,0,1.032-0.159,1.374-0.478
		s0.513-0.767,0.513-1.345V15.328z"/>
	<path d="M471.617,18.475v-4.143c0-1.016-0.465-1.523-1.395-1.523c-1.199,0-1.799,0.777-1.799,2.332v3.334h-1.066v-6.434h0.861
		l0.158,0.867h0.059c0.402-0.656,1.059-0.984,1.969-0.984c1.52,0,2.279,0.783,2.279,2.35v4.201H471.617z"/>
	<path d="M482.219,15.515c0,1.035-0.22,1.805-0.658,2.31s-1.08,0.757-1.925,0.757c-0.398,0-0.754-0.063-1.069-0.188
		s-0.583-0.315-0.803-0.569c-0.221-0.254-0.389-0.574-0.505-0.958c-0.117-0.385-0.175-0.835-0.175-1.351
		c0-1.028,0.218-1.792,0.652-2.293c0.436-0.501,1.079-0.752,1.931-0.752c0.398,0,0.754,0.062,1.069,0.186
		c0.315,0.123,0.583,0.312,0.803,0.563c0.221,0.253,0.389,0.569,0.505,0.951C482.162,14.551,482.219,15,482.219,15.515z
		 M478.148,15.515c0,0.408,0.027,0.768,0.08,1.08c0.055,0.312,0.141,0.572,0.261,0.781c0.12,0.21,0.276,0.368,0.468,0.476
		s0.425,0.161,0.701,0.161c0.275,0,0.508-0.054,0.697-0.161c0.19-0.107,0.344-0.266,0.463-0.476c0.117-0.209,0.203-0.47,0.255-0.781
		s0.077-0.671,0.077-1.08s-0.026-0.766-0.08-1.074s-0.14-0.565-0.258-0.771c-0.118-0.206-0.273-0.36-0.465-0.464
		s-0.425-0.156-0.701-0.156c-0.275,0-0.508,0.052-0.697,0.156c-0.19,0.104-0.344,0.259-0.463,0.464
		c-0.117,0.206-0.203,0.463-0.258,0.771C478.175,14.749,478.148,15.107,478.148,15.515z"/>
	<path d="M488.976,15.515c0,0.53-0.049,0.988-0.147,1.375s-0.243,0.706-0.433,0.956s-0.424,0.436-0.703,0.556
		c-0.279,0.12-0.6,0.18-0.962,0.18c-0.212,0-0.403-0.023-0.575-0.07s-0.326-0.113-0.464-0.199s-0.26-0.188-0.365-0.306
		c-0.106-0.118-0.198-0.249-0.276-0.392h-0.07l-0.193,0.859h-1.762v-0.462h0.086c0.125,0,0.242-0.009,0.352-0.027
		s0.204-0.055,0.285-0.11c0.08-0.056,0.145-0.135,0.193-0.239c0.048-0.104,0.072-0.242,0.072-0.414v-5.897
		c0-0.161-0.024-0.291-0.072-0.389c-0.049-0.099-0.113-0.175-0.196-0.229s-0.179-0.089-0.287-0.104
		c-0.109-0.017-0.226-0.024-0.347-0.024h-0.086v-0.462h2.025v2.02c0,0.125-0.002,0.27-0.006,0.433
		c-0.004,0.163-0.009,0.319-0.016,0.47c-0.008,0.172-0.015,0.349-0.021,0.532h0.043c0.082-0.168,0.175-0.32,0.279-0.457
		c0.104-0.136,0.223-0.251,0.359-0.347c0.137-0.095,0.29-0.168,0.462-0.22c0.172-0.052,0.365-0.078,0.58-0.078
		c0.362,0,0.683,0.06,0.962,0.18c0.279,0.12,0.514,0.305,0.703,0.554c0.189,0.249,0.334,0.564,0.433,0.948
		S488.976,14.989,488.976,15.515z M486.542,13.173c-0.286,0-0.525,0.047-0.717,0.142c-0.191,0.095-0.344,0.239-0.459,0.433
		s-0.196,0.437-0.244,0.73c-0.049,0.293-0.072,0.639-0.072,1.037c0,0.383,0.023,0.722,0.072,1.015
		c0.048,0.293,0.131,0.541,0.247,0.741s0.271,0.352,0.462,0.454c0.191,0.102,0.432,0.153,0.723,0.153
		c0.243,0,0.449-0.051,0.62-0.153c0.17-0.103,0.31-0.253,0.419-0.454s0.188-0.448,0.238-0.744c0.051-0.295,0.076-0.636,0.076-1.023
		c0-0.39-0.025-0.731-0.076-1.023c-0.05-0.292-0.129-0.535-0.238-0.728s-0.251-0.338-0.425-0.435
		C486.996,13.222,486.787,13.173,486.542,13.173z"/>
	<path d="M491.801,12.577v5.983c0,0.494-0.054,0.905-0.161,1.232c-0.107,0.328-0.258,0.589-0.451,0.784
		c-0.193,0.195-0.424,0.334-0.69,0.417s-0.56,0.124-0.878,0.124h-0.178v-0.521h0.081c0.196,0,0.372-0.033,0.526-0.099
		c0.154-0.066,0.283-0.178,0.39-0.333c0.105-0.156,0.187-0.364,0.241-0.623c0.056-0.26,0.084-0.583,0.084-0.97v-4.78
		c0-0.161-0.024-0.291-0.073-0.39c-0.048-0.098-0.113-0.174-0.196-0.228c-0.082-0.054-0.178-0.089-0.287-0.107
		s-0.225-0.027-0.346-0.027h-0.033v-0.462H491.801z M490.615,10.794c0-0.129,0.016-0.236,0.048-0.322s0.076-0.156,0.132-0.209
		c0.055-0.054,0.121-0.091,0.198-0.113s0.159-0.032,0.245-0.032s0.167,0.011,0.244,0.032c0.076,0.021,0.143,0.059,0.198,0.113
		s0.101,0.124,0.135,0.209s0.051,0.193,0.051,0.322s-0.017,0.236-0.051,0.322s-0.079,0.156-0.135,0.209s-0.122,0.092-0.198,0.116
		c-0.077,0.023-0.158,0.035-0.244,0.035s-0.168-0.012-0.245-0.035c-0.077-0.023-0.144-0.062-0.198-0.116
		c-0.056-0.054-0.1-0.124-0.132-0.209S490.615,10.923,490.615,10.794z"/>
	<path d="M496.034,18.582c-0.397,0-0.755-0.067-1.071-0.201c-0.317-0.135-0.585-0.331-0.803-0.588
		c-0.219-0.258-0.387-0.574-0.503-0.948c-0.116-0.375-0.175-0.8-0.175-1.276c0-1.028,0.212-1.801,0.635-2.32
		c0.422-0.519,1.023-0.779,1.805-0.779c0.354,0,0.673,0.056,0.955,0.167c0.283,0.111,0.523,0.277,0.721,0.497
		c0.196,0.221,0.348,0.494,0.453,0.822c0.105,0.327,0.158,0.708,0.158,1.141v0.505h-3.662c0.007,0.401,0.047,0.746,0.12,1.034
		c0.073,0.289,0.179,0.526,0.317,0.712c0.138,0.186,0.307,0.323,0.508,0.411c0.2,0.087,0.432,0.131,0.692,0.131
		c0.19,0,0.366-0.021,0.529-0.064s0.311-0.1,0.442-0.172c0.133-0.072,0.25-0.153,0.353-0.245c0.102-0.091,0.185-0.187,0.249-0.287
		c0.051,0.021,0.098,0.066,0.143,0.134s0.067,0.148,0.067,0.242c0,0.111-0.04,0.23-0.118,0.357
		c-0.078,0.127-0.199,0.244-0.359,0.352c-0.162,0.107-0.363,0.197-0.604,0.269C496.643,18.546,496.359,18.582,496.034,18.582z
		 M495.9,13.061c-0.408,0-0.723,0.166-0.943,0.497c-0.22,0.331-0.35,0.815-0.389,1.453h2.529c0-0.29-0.021-0.555-0.064-0.795
		s-0.111-0.446-0.204-0.618s-0.216-0.304-0.368-0.397S496.122,13.061,495.9,13.061z"/>
	<path d="M501.877,18.582c-0.365,0-0.702-0.057-1.01-0.169c-0.308-0.113-0.573-0.291-0.795-0.535s-0.395-0.556-0.519-0.937
		c-0.123-0.382-0.186-0.843-0.186-1.383c0-0.587,0.063-1.079,0.186-1.474c0.124-0.396,0.296-0.714,0.516-0.954
		c0.221-0.24,0.48-0.41,0.779-0.51s0.622-0.15,0.969-0.15c0.229,0,0.458,0.022,0.686,0.067c0.227,0.044,0.432,0.113,0.615,0.207
		c0.182,0.093,0.33,0.21,0.445,0.352c0.115,0.141,0.172,0.307,0.172,0.497c0,0.254-0.082,0.433-0.247,0.537s-0.41,0.156-0.735,0.156
		c0-0.172-0.015-0.335-0.043-0.489c-0.029-0.154-0.078-0.289-0.148-0.406c-0.069-0.116-0.164-0.208-0.284-0.273
		c-0.12-0.066-0.273-0.1-0.46-0.1c-0.211,0-0.401,0.04-0.571,0.118c-0.171,0.079-0.316,0.215-0.438,0.408
		c-0.121,0.193-0.215,0.453-0.279,0.779s-0.096,0.734-0.096,1.225c0,0.781,0.129,1.362,0.389,1.746s0.686,0.575,1.275,0.575
		c0.341,0,0.638-0.072,0.893-0.215c0.254-0.143,0.443-0.328,0.568-0.553c0.055,0.043,0.1,0.1,0.135,0.172s0.054,0.158,0.054,0.258
		c0,0.125-0.04,0.25-0.118,0.376s-0.196,0.238-0.352,0.338c-0.156,0.1-0.35,0.182-0.583,0.245
		C502.46,18.551,502.189,18.582,501.877,18.582z"/>
	<path d="M507.093,18.002c0.132,0,0.254-0.007,0.365-0.021c0.11-0.014,0.223-0.032,0.338-0.054v0.483
		c-0.047,0.021-0.107,0.043-0.183,0.064s-0.157,0.04-0.244,0.057c-0.088,0.016-0.181,0.028-0.276,0.037
		c-0.098,0.009-0.188,0.014-0.274,0.014c-0.279,0-0.519-0.029-0.72-0.089c-0.201-0.059-0.365-0.155-0.494-0.287
		s-0.225-0.308-0.287-0.526s-0.094-0.485-0.094-0.8v-3.674h-0.838v-0.44c0.132,0,0.277-0.027,0.438-0.081
		c0.159-0.054,0.3-0.143,0.422-0.269c0.125-0.136,0.227-0.298,0.303-0.486c0.077-0.188,0.145-0.423,0.201-0.706h0.506v1.354h1.439
		v0.628h-1.439v3.706c0,0.376,0.076,0.652,0.228,0.827C506.635,17.914,506.838,18.002,507.093,18.002z"/>
</g>
<g>
	<path d="M95.338,18.475h-1.096v-3.996h-3.428v3.996h-1.096V9.908h1.096v3.609h3.428V9.908h1.096V18.475z"/>
	<path d="M101.532,18.475l-0.158-0.861h-0.059c-0.41,0.652-1.063,0.979-1.957,0.979c-1.527,0-2.291-0.783-2.291-2.35v-4.201h1.066
		v4.143c0,1.016,0.461,1.523,1.383,1.523c0.629,0,1.088-0.181,1.377-0.542s0.434-0.956,0.434-1.784v-3.34h1.066v6.434H101.532z"/>
	<path d="M109.055,18.475v-4.143c0-0.57-0.052-0.967-0.155-1.189s-0.276-0.334-0.519-0.334c-0.34,0-0.587,0.162-0.741,0.486
		s-0.231,0.867-0.231,1.629v3.551h-0.943v-4.143c0-1.016-0.244-1.523-0.732-1.523c-0.328,0-0.563,0.155-0.703,0.466
		s-0.211,0.933-0.211,1.866v3.334h-0.949v-6.434h0.744l0.158,0.867h0.059c0.262-0.656,0.654-0.984,1.178-0.984
		c0.637,0,1.053,0.355,1.248,1.066h0.035c0.297-0.711,0.725-1.066,1.283-1.066c0.5,0,0.863,0.181,1.09,0.542s0.34,0.964,0.34,1.808
		v4.201H109.055z"/>
	<path d="M115.776,18.475l-0.217-0.891h-0.047c-0.301,0.379-0.609,0.642-0.926,0.788s-0.725,0.22-1.225,0.22
		c-0.637,0-1.136-0.168-1.497-0.504s-0.542-0.807-0.542-1.412c0-1.297,0.996-1.977,2.988-2.039l1.189-0.041v-0.404
		c0-0.922-0.477-1.383-1.43-1.383c-0.574,0-1.215,0.16-1.922,0.48l-0.369-0.803c0.766-0.375,1.514-0.563,2.244-0.563
		c0.887,0,1.528,0.17,1.925,0.51s0.595,0.885,0.595,1.635v4.406H115.776z M115.489,15.328l-0.949,0.041
		c-0.766,0.031-1.309,0.151-1.629,0.36s-0.48,0.528-0.48,0.958c0,0.695,0.391,1.043,1.172,1.043c0.574,0,1.032-0.159,1.374-0.478
		s0.513-0.767,0.513-1.345V15.328z"/>
	<path d="M122.93,18.475v-4.143c0-1.016-0.465-1.523-1.395-1.523c-1.199,0-1.799,0.777-1.799,2.332v3.334h-1.066v-6.434h0.861
		l0.158,0.867h0.059c0.402-0.656,1.059-0.984,1.969-0.984c1.52,0,2.279,0.783,2.279,2.35v4.201H122.93z"/>
	<path d="M130.907,18.582c-0.365,0-0.702-0.057-1.01-0.169c-0.308-0.113-0.573-0.291-0.795-0.535s-0.395-0.556-0.519-0.937
		c-0.123-0.382-0.185-0.843-0.185-1.383c0-0.587,0.062-1.079,0.185-1.474c0.124-0.396,0.296-0.714,0.516-0.954
		c0.221-0.24,0.48-0.41,0.779-0.51c0.299-0.1,0.622-0.15,0.969-0.15c0.229,0,0.458,0.022,0.685,0.067
		c0.227,0.044,0.432,0.113,0.615,0.207s0.331,0.21,0.446,0.352c0.115,0.141,0.172,0.307,0.172,0.497
		c0,0.254-0.083,0.433-0.247,0.537s-0.41,0.156-0.736,0.156c0-0.172-0.014-0.335-0.043-0.489s-0.078-0.289-0.148-0.406
		c-0.069-0.116-0.165-0.208-0.284-0.273c-0.12-0.066-0.273-0.1-0.459-0.1c-0.211,0-0.402,0.04-0.572,0.118
		c-0.17,0.079-0.316,0.215-0.438,0.408s-0.215,0.453-0.279,0.779s-0.097,0.734-0.097,1.225c0,0.781,0.13,1.362,0.389,1.746
		c0.26,0.383,0.685,0.575,1.276,0.575c0.34,0,0.637-0.072,0.892-0.215s0.444-0.328,0.569-0.553c0.054,0.043,0.099,0.1,0.134,0.172
		s0.054,0.158,0.054,0.258c0,0.125-0.04,0.25-0.118,0.376s-0.196,0.238-0.352,0.338c-0.156,0.1-0.35,0.182-0.583,0.245
		C131.49,18.551,131.218,18.582,130.907,18.582z"/>
	<path d="M133.49,18.013c0.125,0,0.243-0.009,0.352-0.027c0.109-0.018,0.204-0.055,0.284-0.11c0.081-0.056,0.146-0.135,0.193-0.239
		c0.049-0.104,0.073-0.242,0.073-0.414v-5.897c0-0.161-0.024-0.291-0.073-0.389c-0.048-0.099-0.113-0.175-0.196-0.229
		s-0.178-0.089-0.288-0.104c-0.109-0.017-0.225-0.024-0.346-0.024h-0.14v-0.462h2.079v7.106c0,0.172,0.023,0.31,0.07,0.414
		s0.111,0.184,0.193,0.239c0.083,0.055,0.178,0.092,0.288,0.11c0.109,0.018,0.226,0.027,0.352,0.027h0.14v0.462h-3.121v-0.462
		H133.49z"/>
	<path d="M139.565,13.018c-0.211,0-0.382,0.029-0.513,0.089c-0.131,0.059-0.233,0.142-0.307,0.25
		c-0.073,0.107-0.123,0.234-0.147,0.381s-0.038,0.306-0.038,0.478c-0.304,0-0.536-0.052-0.696-0.156
		c-0.159-0.104-0.239-0.283-0.239-0.537c0-0.19,0.052-0.351,0.156-0.483s0.246-0.241,0.427-0.325
		c0.181-0.084,0.392-0.146,0.631-0.185s0.496-0.059,0.768-0.059c0.336,0,0.63,0.033,0.881,0.1c0.25,0.066,0.46,0.174,0.628,0.325
		s0.294,0.346,0.378,0.588c0.084,0.241,0.126,0.538,0.126,0.889v2.852c0,0.154,0.013,0.281,0.038,0.381s0.064,0.181,0.118,0.242
		s0.125,0.104,0.212,0.129c0.088,0.025,0.193,0.038,0.314,0.038h0.032v0.462h-1.488l-0.172-0.945h-0.091
		c-0.115,0.154-0.226,0.295-0.333,0.424s-0.226,0.24-0.354,0.333s-0.275,0.166-0.438,0.217c-0.163,0.052-0.359,0.078-0.588,0.078
		c-0.244,0-0.47-0.035-0.679-0.104c-0.21-0.07-0.391-0.178-0.543-0.322c-0.152-0.146-0.271-0.328-0.357-0.548
		c-0.086-0.221-0.129-0.481-0.129-0.782c0-0.583,0.208-1.017,0.623-1.3s1.044-0.437,1.885-0.462l0.913-0.032v-0.661
		c0-0.197-0.011-0.379-0.032-0.545c-0.021-0.167-0.068-0.31-0.14-0.43c-0.072-0.12-0.175-0.213-0.309-0.279
		C139.97,13.051,139.791,13.018,139.565,13.018z M138.233,16.879c0,0.344,0.072,0.601,0.218,0.771
		c0.145,0.17,0.37,0.255,0.674,0.255c0.222,0,0.423-0.036,0.604-0.107c0.181-0.072,0.334-0.174,0.462-0.306
		c0.127-0.132,0.225-0.293,0.292-0.483s0.102-0.401,0.102-0.634v-0.892l-0.704,0.032c-0.312,0.014-0.572,0.053-0.782,0.116
		c-0.209,0.063-0.378,0.15-0.507,0.263c-0.129,0.113-0.221,0.252-0.277,0.417C138.261,16.475,138.233,16.665,138.233,16.879z"/>
	<path d="M145.119,18.582c-0.276,0-0.525-0.024-0.749-0.072c-0.224-0.049-0.415-0.122-0.572-0.221
		c-0.158-0.098-0.279-0.22-0.365-0.365c-0.086-0.145-0.129-0.314-0.129-0.507c0-0.147,0.024-0.27,0.072-0.368
		c0.049-0.099,0.107-0.177,0.178-0.234c0.069-0.057,0.145-0.098,0.226-0.121c0.08-0.023,0.153-0.035,0.217-0.035
		c0,0.193,0.02,0.374,0.059,0.542s0.105,0.316,0.199,0.443c0.093,0.127,0.216,0.228,0.368,0.301c0.152,0.074,0.339,0.11,0.562,0.11
		c0.197,0,0.371-0.024,0.521-0.072c0.15-0.049,0.277-0.117,0.378-0.204c0.103-0.088,0.18-0.193,0.234-0.317
		c0.054-0.123,0.081-0.258,0.081-0.405c0-0.136-0.021-0.253-0.062-0.352c-0.042-0.099-0.113-0.191-0.215-0.277
		c-0.103-0.086-0.241-0.174-0.417-0.263s-0.396-0.191-0.661-0.306c-0.283-0.125-0.529-0.246-0.738-0.363
		c-0.21-0.116-0.382-0.242-0.519-0.378s-0.238-0.291-0.306-0.464c-0.068-0.174-0.102-0.381-0.102-0.621
		c0-0.25,0.049-0.473,0.147-0.666c0.099-0.193,0.239-0.355,0.422-0.486c0.183-0.131,0.401-0.23,0.655-0.298s0.537-0.102,0.849-0.102
		c0.261,0,0.492,0.027,0.693,0.081s0.369,0.126,0.505,0.217c0.136,0.092,0.238,0.199,0.306,0.322
		c0.068,0.124,0.102,0.253,0.102,0.39c0,0.201-0.069,0.361-0.207,0.48c-0.138,0.12-0.334,0.18-0.588,0.18
		c0-0.369-0.076-0.655-0.228-0.859c-0.152-0.204-0.392-0.306-0.717-0.306c-0.186,0-0.346,0.021-0.478,0.064
		s-0.241,0.104-0.325,0.183c-0.084,0.079-0.146,0.172-0.185,0.279s-0.059,0.226-0.059,0.354c0,0.14,0.025,0.261,0.075,0.362
		c0.05,0.103,0.13,0.196,0.239,0.282c0.109,0.086,0.25,0.169,0.424,0.25c0.174,0.08,0.382,0.171,0.626,0.271
		c0.29,0.122,0.539,0.242,0.747,0.36s0.378,0.247,0.513,0.387c0.134,0.14,0.233,0.297,0.298,0.473s0.097,0.378,0.097,0.607
		c0,0.287-0.052,0.537-0.156,0.752s-0.25,0.395-0.44,0.54c-0.19,0.146-0.418,0.253-0.685,0.325
		C145.741,18.546,145.444,18.582,145.119,18.582z"/>
	<path d="M150.082,18.582c-0.276,0-0.525-0.024-0.749-0.072c-0.224-0.049-0.415-0.122-0.572-0.221
		c-0.158-0.098-0.279-0.22-0.365-0.365c-0.086-0.145-0.129-0.314-0.129-0.507c0-0.147,0.024-0.27,0.072-0.368
		c0.049-0.099,0.107-0.177,0.178-0.234c0.069-0.057,0.145-0.098,0.226-0.121c0.08-0.023,0.153-0.035,0.217-0.035
		c0,0.193,0.02,0.374,0.059,0.542s0.105,0.316,0.199,0.443c0.093,0.127,0.216,0.228,0.368,0.301c0.152,0.074,0.339,0.11,0.562,0.11
		c0.197,0,0.371-0.024,0.521-0.072c0.15-0.049,0.277-0.117,0.378-0.204c0.103-0.088,0.18-0.193,0.234-0.317
		c0.054-0.123,0.081-0.258,0.081-0.405c0-0.136-0.021-0.253-0.062-0.352c-0.042-0.099-0.113-0.191-0.215-0.277
		c-0.103-0.086-0.241-0.174-0.417-0.263s-0.396-0.191-0.661-0.306c-0.283-0.125-0.529-0.246-0.738-0.363
		c-0.21-0.116-0.382-0.242-0.519-0.378s-0.238-0.291-0.306-0.464c-0.068-0.174-0.102-0.381-0.102-0.621
		c0-0.25,0.049-0.473,0.147-0.666c0.099-0.193,0.239-0.355,0.422-0.486c0.183-0.131,0.401-0.23,0.655-0.298s0.537-0.102,0.849-0.102
		c0.261,0,0.492,0.027,0.693,0.081s0.369,0.126,0.505,0.217c0.136,0.092,0.238,0.199,0.306,0.322
		c0.068,0.124,0.102,0.253,0.102,0.39c0,0.201-0.069,0.361-0.207,0.48c-0.138,0.12-0.334,0.18-0.588,0.18
		c0-0.369-0.076-0.655-0.228-0.859c-0.152-0.204-0.392-0.306-0.717-0.306c-0.186,0-0.346,0.021-0.478,0.064
		s-0.241,0.104-0.325,0.183c-0.084,0.079-0.146,0.172-0.185,0.279s-0.059,0.226-0.059,0.354c0,0.14,0.025,0.261,0.075,0.362
		c0.05,0.103,0.13,0.196,0.239,0.282c0.109,0.086,0.25,0.169,0.424,0.25c0.174,0.08,0.382,0.171,0.626,0.271
		c0.29,0.122,0.539,0.242,0.747,0.36s0.378,0.247,0.513,0.387c0.134,0.14,0.233,0.297,0.298,0.473s0.097,0.378,0.097,0.607
		c0,0.287-0.052,0.537-0.156,0.752s-0.25,0.395-0.44,0.54c-0.19,0.146-0.418,0.253-0.685,0.325
		C150.704,18.546,150.407,18.582,150.082,18.582z"/>
</g>
<g>
	<path d="M439.89,43.934l-0.24,3.094h-0.908l-0.24-3.094H439.89z M442.363,43.934l-0.24,3.094h-0.908l-0.24-3.094H442.363z"/>
	<path d="M449.916,52.5l-0.844-2.654h-2.877l-0.855,2.654h-1.113l2.83-8.602h1.143l2.842,8.602H449.916z M448.761,48.879
		l-0.779-2.484c-0.152-0.484-0.273-0.926-0.363-1.324c-0.078,0.387-0.168,0.744-0.27,1.072l-0.844,2.736H448.761z"/>
	<path d="M454.351,44.221l-1.57-0.123v-0.715h2.643v8.279l2.063,0.117V52.5h-5.15v-0.721l2.016-0.117V44.221z"/>
	<path d="M460.427,51.686h-0.07L460.14,52.5h-0.779v-9.117h1.066v2.203c0,0.316-0.016,0.758-0.047,1.324h0.047
		c0.418-0.641,1.047-0.961,1.887-0.961c0.785,0,1.401,0.292,1.849,0.876s0.671,1.399,0.671,2.446c0,1.055-0.225,1.876-0.674,2.464
		s-1.064,0.882-1.846,0.882C461.505,52.617,460.876,52.307,460.427,51.686z M460.427,49.271c0,0.887,0.136,1.519,0.407,1.896
		s0.704,0.565,1.298,0.565c1.063,0,1.594-0.824,1.594-2.473c0-1.617-0.535-2.426-1.605-2.426c-0.605,0-1.039,0.184-1.301,0.551
		S460.427,48.381,460.427,49.271z"/>
	<path d="M472.058,49.488h-4.535c0.031,1.465,0.703,2.197,2.016,2.197c0.762,0,1.484-0.148,2.168-0.445v0.938
		c-0.648,0.293-1.359,0.439-2.133,0.439c-0.957,0-1.723-0.292-2.297-0.876s-0.861-1.388-0.861-2.411c0-1.039,0.265-1.862,0.794-2.47
		s1.237-0.911,2.124-0.911c0.828,0,1.489,0.262,1.983,0.785s0.741,1.221,0.741,2.092V49.488z M467.546,48.621h3.357
		c0-1.191-0.531-1.787-1.594-1.787C468.236,46.834,467.648,47.43,467.546,48.621z"/>
	<path d="M479.042,46.213l-0.287,0.973c-0.48-0.176-0.918-0.264-1.313-0.264c-0.637,0-1.128,0.181-1.474,0.542
		s-0.519,0.884-0.519,1.567V52.5h-1.066v-6.434h0.867l0.129,1.178h0.047c0.297-0.465,0.615-0.797,0.955-0.996
		s0.758-0.299,1.254-0.299C478.097,45.949,478.566,46.037,479.042,46.213z"/>
	<path d="M486.015,51.621v0.809c-0.508,0.125-1,0.188-1.477,0.188c-1.414,0-2.121-0.672-2.121-2.016v-3.732h-1.564v-0.551
		l1.564-0.287l0.451-1.682h0.615v1.717h2.566v0.803h-2.566v3.732c0,0.762,0.375,1.143,1.125,1.143
		C484.972,51.744,485.441,51.703,486.015,51.621z"/>
	<path d="M500.646,52.5h-4.934v-8.566h4.934v0.961h-3.844v2.648h3.615v0.949h-3.615v3.047h3.844V52.5z"/>
	<path d="M504.812,46.91l-1.576-0.123v-0.721h2.643v5.596l2.063,0.117V52.5h-5.145v-0.721l2.016-0.117V46.91z M505.351,43.418
		c0.414,0,0.621,0.223,0.621,0.668c0,0.227-0.062,0.396-0.185,0.507s-0.269,0.167-0.437,0.167c-0.418,0-0.627-0.225-0.627-0.674
		C504.724,43.641,504.933,43.418,505.351,43.418z"/>
	<path d="M514.041,52.5v-4.143c0-1.016-0.465-1.523-1.395-1.523c-1.199,0-1.799,0.777-1.799,2.332V52.5h-1.066v-6.434h0.861
		l0.158,0.867h0.059c0.402-0.656,1.059-0.984,1.969-0.984c1.52,0,2.279,0.783,2.279,2.35V52.5H514.041z"/>
	<path d="M517.234,52.213V51.24c0.754,0.336,1.477,0.504,2.168,0.504c1.074,0,1.611-0.316,1.611-0.949
		c0-0.223-0.096-0.416-0.287-0.58s-0.633-0.371-1.324-0.621c-0.91-0.34-1.483-0.651-1.72-0.935s-0.354-0.618-0.354-1.005
		c0-0.531,0.218-0.948,0.653-1.251s1.038-0.454,1.808-0.454c0.773,0,1.494,0.145,2.162,0.434l-0.352,0.873
		c-0.711-0.281-1.334-0.422-1.869-0.422c-0.922,0-1.383,0.26-1.383,0.779c0,0.238,0.099,0.429,0.296,0.571s0.651,0.341,1.362,0.595
		c0.824,0.301,1.372,0.597,1.644,0.888s0.407,0.647,0.407,1.069c0,0.586-0.229,1.046-0.686,1.38s-1.104,0.501-1.939,0.501
		C518.462,52.617,517.73,52.482,517.234,52.213z"/>
	<path d="M529.222,51.621v0.809c-0.508,0.125-1,0.188-1.477,0.188c-1.414,0-2.121-0.672-2.121-2.016v-3.732h-1.564v-0.551
		l1.564-0.287l0.451-1.682h0.615v1.717h2.566v0.803h-2.566v3.732c0,0.762,0.375,1.143,1.125,1.143
		C528.179,51.744,528.648,51.703,529.222,51.621z"/>
	<path d="M536.869,49.488h-4.535c0.031,1.465,0.703,2.197,2.016,2.197c0.762,0,1.484-0.148,2.168-0.445v0.938
		c-0.648,0.293-1.359,0.439-2.133,0.439c-0.957,0-1.723-0.292-2.297-0.876s-0.861-1.388-0.861-2.411c0-1.039,0.265-1.862,0.794-2.47
		s1.237-0.911,2.124-0.911c0.828,0,1.489,0.262,1.983,0.785s0.741,1.221,0.741,2.092V49.488z M532.357,48.621h3.357
		c0-1.191-0.531-1.787-1.594-1.787C533.046,46.834,532.458,47.43,532.357,48.621z"/>
	<path d="M540.818,46.91l-1.576-0.123v-0.721h2.643v5.596l2.063,0.117V52.5h-5.145v-0.721l2.016-0.117V46.91z M541.357,43.418
		c0.414,0,0.621,0.223,0.621,0.668c0,0.227-0.062,0.396-0.185,0.507s-0.269,0.167-0.437,0.167c-0.418,0-0.627-0.225-0.627-0.674
		C540.73,43.641,540.939,43.418,541.357,43.418z"/>
	<path d="M550.046,52.5v-4.143c0-1.016-0.465-1.523-1.395-1.523c-1.199,0-1.799,0.777-1.799,2.332V52.5h-1.066v-6.434h0.861
		l0.158,0.867h0.059c0.402-0.656,1.059-0.984,1.969-0.984c1.52,0,2.279,0.783,2.279,2.35V52.5H550.046z"/>
	<path d="M555.109,43.934l-0.24,3.094h-0.908l-0.24-3.094H555.109z M557.582,43.934l-0.24,3.094h-0.908l-0.24-3.094H557.582z"/>
	<path d="M439.89,65.333l-0.24,3.094h-0.908l-0.24-3.094H439.89z M442.363,65.333l-0.24,3.094h-0.908l-0.24-3.094H442.363z"/>
	<path d="M447.15,73.9l-1.629-7.5h-0.047c0.07,1.039,0.105,1.832,0.105,2.379V73.9h-0.885v-8.566h1.447l1.453,6.984h0.035
		l1.465-6.984h1.477V73.9h-0.896v-5.197c0-0.398,0.027-1.162,0.082-2.291h-0.047l-1.658,7.488H447.15z"/>
	<path d="M456.478,73.9l-0.217-0.891h-0.047c-0.301,0.379-0.609,0.642-0.926,0.788s-0.725,0.22-1.225,0.22
		c-0.637,0-1.136-0.168-1.497-0.504s-0.542-0.807-0.542-1.412c0-1.297,0.996-1.977,2.988-2.039l1.189-0.041v-0.404
		c0-0.922-0.477-1.383-1.43-1.383c-0.574,0-1.215,0.16-1.922,0.48l-0.369-0.803c0.766-0.375,1.514-0.563,2.244-0.563
		c0.887,0,1.528,0.17,1.925,0.51s0.595,0.885,0.595,1.635V73.9H456.478z M456.191,70.753l-0.949,0.041
		c-0.766,0.031-1.309,0.151-1.629,0.36s-0.48,0.528-0.48,0.958c0,0.695,0.391,1.043,1.172,1.043c0.574,0,1.032-0.159,1.374-0.478
		s0.513-0.767,0.513-1.345V70.753z"/>
	<path d="M464.64,67.613l-0.287,0.973c-0.48-0.176-0.918-0.264-1.313-0.264c-0.637,0-1.128,0.181-1.474,0.542
		s-0.519,0.884-0.519,1.567V73.9h-1.066v-6.434h0.867l0.129,1.178h0.047c0.297-0.465,0.615-0.797,0.955-0.996
		s0.758-0.299,1.254-0.299C463.695,67.349,464.164,67.437,464.64,67.613z"/>
	<path d="M471.853,67.695l-0.363,0.926c-0.586-0.223-1.109-0.334-1.57-0.334c-1.449,0-2.174,0.807-2.174,2.42
		c0,1.586,0.705,2.379,2.115,2.379c0.613,0,1.24-0.121,1.881-0.363v0.938c-0.523,0.238-1.166,0.357-1.928,0.357
		c-1.004,0-1.783-0.284-2.338-0.853s-0.832-1.384-0.832-2.446c0-1.098,0.283-1.934,0.85-2.508s1.363-0.861,2.391-0.861
		C470.58,67.349,471.236,67.464,471.853,67.695z"/>
	<path d="M478.035,73.9v-4.143c0-1.016-0.465-1.523-1.395-1.523c-1.199,0-1.799,0.777-1.799,2.332V73.9h-1.066v-9.117h1.066v2.707
		l-0.047,0.844h0.059c0.402-0.656,1.059-0.984,1.969-0.984c1.52,0,2.279,0.783,2.279,2.35V73.9H478.035z"/>
	<path d="M491.681,73.9h-1.031v-5.35c0-0.477,0.016-1.182,0.047-2.115c-0.152,0.168-0.389,0.389-0.709,0.662l-0.861,0.709
		l-0.568-0.721l2.244-1.752h0.879V73.9z"/>
	<path d="M501.039,71.978h-1.248V73.9h-1.031v-1.922h-3.961v-0.932l3.891-5.76h1.102v5.719h1.248V71.978z M498.759,71.005v-2.086
		c0-0.688,0.025-1.531,0.076-2.531h-0.053c-0.141,0.398-0.316,0.75-0.527,1.055l-2.408,3.563H498.759z"/>
	<path d="M506.154,72.365l0.094,0.141c-0.223,0.875-0.602,1.904-1.137,3.088h-0.891c0.297-1.262,0.514-2.338,0.65-3.229H506.154z"/>
	<path d="M520.486,73.9h-1.031v-5.35c0-0.477,0.016-1.182,0.047-2.115c-0.152,0.168-0.389,0.389-0.709,0.662l-0.861,0.709
		l-0.568-0.721l2.244-1.752h0.879V73.9z"/>
	<path d="M527.722,69.365c1.207,0.625,1.811,1.393,1.811,2.303c0,0.707-0.246,1.275-0.738,1.705s-1.143,0.645-1.951,0.645
		c-0.844,0-1.502-0.202-1.975-0.606s-0.709-0.97-0.709-1.696c0-1.004,0.551-1.771,1.652-2.303c-0.918-0.57-1.377-1.291-1.377-2.162
		c0-0.629,0.228-1.128,0.683-1.497s1.03-0.554,1.726-0.554c0.719,0,1.301,0.186,1.746,0.557s0.668,0.873,0.668,1.506
		C529.257,68.16,528.746,68.861,527.722,69.365z M526.691,69.822c-0.992,0.473-1.488,1.107-1.488,1.904
		c0,0.938,0.539,1.406,1.617,1.406c0.531,0,0.942-0.128,1.233-0.384s0.437-0.612,0.437-1.069c0-0.352-0.123-0.663-0.369-0.935
		s-0.664-0.552-1.254-0.841L526.691,69.822z M526.855,68.931c0.906-0.402,1.359-0.945,1.359-1.629c0-0.395-0.123-0.695-0.369-0.902
		s-0.584-0.311-1.014-0.311c-0.414,0-0.743,0.104-0.987,0.311s-0.366,0.508-0.366,0.902c0,0.352,0.097,0.649,0.29,0.894
		S526.324,68.685,526.855,68.931z"/>
	<path d="M532.404,73.9l3.299-7.594h-4.418v-0.973h5.508v0.85l-3.252,7.717H532.404z"/>
	<path d="M539.195,73.912v-0.914c0.262,0.098,0.586,0.146,0.973,0.146c0.875,0,1.532-0.275,1.972-0.826s0.679-1.424,0.718-2.619
		h-0.07c-0.375,0.664-0.977,0.996-1.805,0.996c-0.758,0-1.353-0.23-1.784-0.691s-0.647-1.098-0.647-1.91
		c0-0.891,0.235-1.594,0.706-2.109s1.103-0.773,1.896-0.773c0.859,0,1.54,0.334,2.042,1.002s0.753,1.594,0.753,2.777
		c0,3.352-1.248,5.027-3.744,5.027C539.792,74.017,539.457,73.982,539.195,73.912z M539.582,68.093c0,0.566,0.134,1.002,0.401,1.307
		s0.649,0.457,1.146,0.457s0.912-0.159,1.248-0.478s0.504-0.679,0.504-1.081c0-0.59-0.156-1.102-0.469-1.535s-0.729-0.65-1.248-0.65
		c-0.5,0-0.889,0.17-1.166,0.51S539.582,67.453,539.582,68.093z"/>
	<path d="M547.908,65.333l-0.24,3.094h-0.908l-0.24-3.094H547.908z M550.38,65.333l-0.24,3.094h-0.908l-0.24-3.094H550.38z"/>
	<path d="M441.273,95.3h-1.031v-5.35c0-0.477,0.016-1.182,0.047-2.115c-0.152,0.168-0.389,0.389-0.709,0.662l-0.861,0.709
		l-0.568-0.721l2.244-1.752h0.879V95.3z"/>
	<path d="M445.99,95.3l3.299-7.594h-4.418v-0.973h5.508v0.85l-3.252,7.717H445.99z"/>
	<path d="M452.242,94.954v-1.008c0.563,0.375,1.266,0.563,2.109,0.563c1.313,0,1.969-0.613,1.969-1.84
		c0-1.148-0.672-1.723-2.016-1.723c-0.348,0-0.799,0.051-1.354,0.152l-0.527-0.334l0.322-4.031h4.043v0.973h-3.117l-0.229,2.455
		c0.418-0.078,0.826-0.117,1.225-0.117c0.82,0,1.483,0.224,1.989,0.671s0.759,1.06,0.759,1.837c0,0.914-0.27,1.62-0.809,2.118
		s-1.299,0.747-2.279,0.747C453.453,95.417,452.757,95.263,452.242,94.954z"/>
</g>
<g>
	<path d="M403.224,53v-4.143c0-1.016-0.465-1.523-1.395-1.523c-1.199,0-1.799,0.777-1.799,2.332V53h-1.066v-6.434h0.861l0.158,0.867
		h0.059c0.402-0.656,1.059-0.984,1.969-0.984c1.52,0,2.279,0.783,2.279,2.35V53H403.224z"/>
	<path d="M410.472,53l-0.217-0.891h-0.047c-0.301,0.379-0.609,0.642-0.926,0.788s-0.725,0.22-1.225,0.22
		c-0.637,0-1.136-0.168-1.497-0.504s-0.542-0.807-0.542-1.412c0-1.297,0.996-1.977,2.988-2.039l1.189-0.041v-0.404
		c0-0.922-0.477-1.383-1.43-1.383c-0.574,0-1.215,0.16-1.922,0.48l-0.369-0.803c0.766-0.375,1.514-0.563,2.244-0.563
		c0.887,0,1.528,0.17,1.925,0.51s0.595,0.885,0.595,1.635V53H410.472z M410.185,49.854l-0.949,0.041
		c-0.766,0.031-1.309,0.151-1.629,0.36s-0.48,0.528-0.48,0.958c0,0.695,0.391,1.043,1.172,1.043c0.574,0,1.032-0.159,1.374-0.478
		s0.513-0.767,0.513-1.345V49.854z"/>
	<path d="M418.154,53v-4.143c0-0.57-0.052-0.967-0.155-1.189s-0.276-0.334-0.519-0.334c-0.34,0-0.587,0.162-0.741,0.486
		s-0.231,0.867-0.231,1.629V53h-0.943v-4.143c0-1.016-0.244-1.523-0.732-1.523c-0.328,0-0.563,0.155-0.703,0.466
		s-0.211,0.933-0.211,1.866V53h-0.949v-6.434h0.744l0.158,0.867h0.059c0.262-0.656,0.654-0.984,1.178-0.984
		c0.637,0,1.053,0.355,1.248,1.066h0.035c0.297-0.711,0.725-1.066,1.283-1.066c0.5,0,0.863,0.181,1.09,0.542s0.34,0.964,0.34,1.808
		V53H418.154z"/>
	<path d="M426.052,49.988h-4.535c0.031,1.465,0.703,2.197,2.016,2.197c0.762,0,1.484-0.148,2.168-0.445v0.938
		c-0.648,0.293-1.359,0.439-2.133,0.439c-0.957,0-1.723-0.292-2.297-0.876s-0.861-1.388-0.861-2.411c0-1.039,0.265-1.862,0.794-2.47
		s1.237-0.911,2.124-0.911c0.828,0,1.489,0.262,1.983,0.785s0.741,1.221,0.741,2.092V49.988z M421.541,49.121h3.357
		c0-1.191-0.531-1.787-1.594-1.787C422.23,47.334,421.642,47.93,421.541,49.121z"/>
	<path d="M406.019,74.4v-8.566h2.004c1.238,0,2.202,0.369,2.892,1.107s1.034,1.77,1.034,3.094c0,1.41-0.357,2.49-1.072,3.24
		s-1.746,1.125-3.094,1.125H406.019z M407.115,66.765v6.697h0.563c2.078,0,3.117-1.131,3.117-3.393c0-2.203-0.963-3.305-2.889-3.305
		H407.115z"/>
	<path d="M416.039,74.517c-2.078,0-3.117-1.475-3.117-4.424c0-2.93,1.043-4.395,3.129-4.395c1,0,1.767,0.382,2.3,1.146
		s0.8,1.851,0.8,3.261s-0.27,2.498-0.809,3.264S417.035,74.517,416.039,74.517z M416.039,73.562c0.676,0,1.171-0.283,1.485-0.85
		s0.472-1.436,0.472-2.607c0-1.184-0.159-2.054-0.478-2.61s-0.808-0.835-1.468-0.835c-1.316,0-1.975,1.148-1.975,3.445
		C414.076,72.41,414.73,73.562,416.039,73.562z"/>
	<path d="M420.421,65.833H423c1.07,0,1.847,0.171,2.329,0.513s0.724,0.894,0.724,1.655c0,0.5-0.153,0.916-0.46,1.248
		s-0.722,0.533-1.245,0.604v0.059c1.297,0.211,1.945,0.879,1.945,2.004c0,0.773-0.249,1.381-0.747,1.822s-1.177,0.662-2.036,0.662
		h-3.088V65.833z M421.517,69.466h1.664c0.609,0,1.054-0.107,1.333-0.322s0.419-0.57,0.419-1.066c0-0.469-0.149-0.805-0.448-1.008
		s-0.772-0.305-1.421-0.305h-1.547V69.466z M421.517,70.38v3.094h1.799c1.215,0,1.822-0.535,1.822-1.605
		c0-0.992-0.633-1.488-1.898-1.488H421.517z"/>
	<path d="M388.822,95.8v-4.143c0-1.016-0.465-1.523-1.395-1.523c-1.199,0-1.799,0.777-1.799,2.332V95.8h-1.066v-9.117h1.066v2.707
		l-0.047,0.844h0.059c0.402-0.656,1.059-0.984,1.969-0.984c1.52,0,2.279,0.783,2.279,2.35V95.8H388.822z"/>
	<path d="M397.248,92.788h-4.535c0.031,1.465,0.703,2.197,2.016,2.197c0.762,0,1.484-0.148,2.168-0.445v0.938
		c-0.648,0.293-1.359,0.439-2.133,0.439c-0.957,0-1.723-0.292-2.297-0.876s-0.861-1.388-0.861-2.411c0-1.039,0.265-1.862,0.794-2.47
		s1.237-0.911,2.124-0.911c0.828,0,1.489,0.262,1.983,0.785s0.741,1.221,0.741,2.092V92.788z M392.736,91.921h3.357
		c0-1.191-0.531-1.787-1.594-1.787C393.425,90.134,392.837,90.729,392.736,91.921z"/>
	<path d="M401.197,90.21l-1.576-0.123v-0.721h2.643v5.596l2.063,0.117V95.8h-5.145v-0.721l2.016-0.117V90.21z M401.736,86.718
		c0.414,0,0.621,0.223,0.621,0.668c0,0.227-0.062,0.396-0.185,0.507s-0.269,0.167-0.437,0.167c-0.418,0-0.627-0.225-0.627-0.674
		C401.109,86.94,401.318,86.718,401.736,86.718z"/>
	<path d="M411.826,89.366v0.662l-1.148,0.158c0.254,0.332,0.381,0.748,0.381,1.248c0,0.629-0.208,1.13-0.624,1.503
		s-0.995,0.56-1.737,0.56c-0.215,0-0.383-0.012-0.504-0.035c-0.391,0.219-0.586,0.479-0.586,0.779c0,0.328,0.314,0.492,0.943,0.492
		h1.096c0.68,0,1.199,0.15,1.559,0.451s0.539,0.73,0.539,1.289c0,1.473-1.104,2.209-3.311,2.209c-0.852,0-1.499-0.157-1.942-0.472
		s-0.665-0.755-0.665-1.321c0-0.828,0.469-1.355,1.406-1.582c-0.375-0.184-0.563-0.484-0.563-0.902c0-0.438,0.26-0.813,0.779-1.125
		c-0.348-0.145-0.621-0.384-0.82-0.718s-0.299-0.698-0.299-1.093c0-0.711,0.208-1.259,0.624-1.644s1.009-0.577,1.778-0.577
		c0.336,0,0.629,0.039,0.879,0.117H411.826z M409.283,95.694h-1.102c-0.898,0-1.348,0.387-1.348,1.16c0,0.68,0.529,1.02,1.588,1.02
		c1.543,0,2.314-0.436,2.314-1.307c0-0.344-0.098-0.575-0.293-0.694S409.861,95.694,409.283,95.694z M408.708,92.765
		c0.871,0,1.307-0.449,1.307-1.348c0-0.934-0.439-1.4-1.318-1.4s-1.318,0.473-1.318,1.418
		C407.378,92.321,407.822,92.765,408.708,92.765z"/>
	<path d="M417.626,95.8v-4.143c0-1.016-0.465-1.523-1.395-1.523c-1.199,0-1.799,0.777-1.799,2.332V95.8h-1.066v-9.117h1.066v2.707
		l-0.047,0.844h0.059c0.402-0.656,1.059-0.984,1.969-0.984c1.52,0,2.279,0.783,2.279,2.35V95.8H417.626z"/>
	<path d="M425.607,94.921v0.809c-0.508,0.125-1,0.188-1.477,0.188c-1.414,0-2.121-0.672-2.121-2.016v-3.732h-1.564v-0.551
		l1.564-0.287l0.451-1.682h0.615v1.717h2.566v0.803h-2.566v3.732c0,0.762,0.375,1.143,1.125,1.143
		C424.564,95.044,425.033,95.003,425.607,94.921z"/>
</g>
<rect x="372.832" y="121" style="fill:#DFF2F7;stroke:#000000;" width="200" height="79"/>
<rect x="434.832" y="129.75" style="fill:#D8ECD1;stroke:#000000;" width="100" height="16.5"/>
<rect x="434.832" y="150.75" style="fill:#D8ECD1;stroke:#000000;" width="126" height="16.5"/>
<rect x="434.832" y="172.75" style="fill:#D8ECD1;stroke:#000000;" width="28" height="16.5"/>
<g>
	<path d="M439.89,132.934l-0.24,3.094h-0.908l-0.24-3.094H439.89z M442.363,132.934l-0.24,3.094h-0.908l-0.24-3.094H442.363z"/>
	<path d="M444.824,141.5v-8.566h2.004c1.238,0,2.202,0.369,2.892,1.107s1.034,1.77,1.034,3.094c0,1.41-0.357,2.49-1.072,3.24
		s-1.746,1.125-3.094,1.125H444.824z M445.919,133.865v6.697h0.563c2.078,0,3.117-1.131,3.117-3.393
		c0-2.203-0.963-3.305-2.889-3.305H445.919z"/>
	<path d="M456.478,141.5l-0.217-0.891h-0.047c-0.301,0.379-0.609,0.642-0.926,0.788s-0.725,0.22-1.225,0.22
		c-0.637,0-1.136-0.168-1.497-0.504s-0.542-0.807-0.542-1.412c0-1.297,0.996-1.977,2.988-2.039l1.189-0.041v-0.404
		c0-0.922-0.477-1.383-1.43-1.383c-0.574,0-1.215,0.16-1.922,0.48l-0.369-0.803c0.766-0.375,1.514-0.563,2.244-0.563
		c0.887,0,1.528,0.17,1.925,0.51s0.595,0.885,0.595,1.635v4.406H456.478z M456.191,138.354l-0.949,0.041
		c-0.766,0.031-1.309,0.151-1.629,0.36s-0.48,0.528-0.48,0.958c0,0.695,0.391,1.043,1.172,1.043c0.574,0,1.032-0.159,1.374-0.478
		s0.513-0.767,0.513-1.345V138.354z"/>
	<path d="M461.353,141.5l-2.438-6.434h1.102l1.406,3.82c0.332,0.902,0.527,1.537,0.586,1.904h0.035
		c0.027-0.172,0.225-0.807,0.592-1.904l1.4-3.82h1.107l-2.438,6.434H461.353z"/>
	<path d="M468.806,135.91l-1.576-0.123v-0.721h2.643v5.596l2.063,0.117v0.721h-5.145v-0.721l2.016-0.117V135.91z M469.345,132.418
		c0.414,0,0.621,0.223,0.621,0.668c0,0.227-0.062,0.396-0.185,0.507s-0.269,0.167-0.437,0.167c-0.418,0-0.627-0.225-0.627-0.674
		C468.718,132.641,468.927,132.418,469.345,132.418z"/>
	<path d="M478.093,140.639h-0.047c-0.441,0.652-1.07,0.979-1.887,0.979c-0.785,0-1.401-0.292-1.849-0.876s-0.671-1.399-0.671-2.446
		c0-1.055,0.225-1.876,0.674-2.464s1.064-0.882,1.846-0.882c0.805,0,1.434,0.313,1.887,0.938h0.07
		c-0.047-0.504-0.07-0.82-0.07-0.949v-2.555h1.066v9.117h-0.861L478.093,140.639z M478.046,138.535v-0.24
		c0-0.887-0.136-1.519-0.407-1.896s-0.704-0.565-1.298-0.565c-1.063,0-1.594,0.824-1.594,2.473c0,1.617,0.535,2.426,1.605,2.426
		c0.594,0,1.021-0.173,1.28-0.519S478.031,139.309,478.046,138.535z"/>
	<path d="M488.031,132.934h2.578c1.07,0,1.847,0.171,2.329,0.513s0.724,0.894,0.724,1.655c0,0.5-0.153,0.916-0.46,1.248
		s-0.722,0.533-1.245,0.604v0.059c1.297,0.211,1.945,0.879,1.945,2.004c0,0.773-0.249,1.381-0.747,1.822s-1.177,0.662-2.036,0.662
		h-3.088V132.934z M489.126,136.566h1.664c0.609,0,1.054-0.107,1.333-0.322s0.419-0.57,0.419-1.066c0-0.469-0.149-0.805-0.448-1.008
		s-0.772-0.305-1.421-0.305h-1.547V136.566z M489.126,137.48v3.094h1.799c1.215,0,1.822-0.535,1.822-1.605
		c0-0.992-0.633-1.488-1.898-1.488H489.126z"/>
	<path d="M498.015,141.617c-0.844,0-1.538-0.304-2.083-0.911s-0.817-1.419-0.817-2.435c0-1.027,0.265-1.838,0.794-2.432
		s1.243-0.891,2.142-0.891c0.852,0,1.549,0.303,2.092,0.908s0.814,1.41,0.814,2.414c0,1.035-0.268,1.852-0.803,2.449
		S498.906,141.617,498.015,141.617z M498.039,140.732c1.211,0,1.816-0.82,1.816-2.461c0-1.625-0.609-2.438-1.828-2.438
		c-1.207,0-1.811,0.813-1.811,2.438C496.216,139.912,496.824,140.732,498.039,140.732z"/>
	<path d="M506.406,141.5l-0.768-3.492l-0.398-1.934h-0.035l-0.381,1.957l-0.791,3.469h-1.107l-1.307-6.434h0.949l0.574,3.182
		c0.133,0.727,0.244,1.494,0.334,2.303h0.035c0.121-0.723,0.254-1.422,0.398-2.098l0.779-3.387h1.131l0.744,3.387
		c0.168,0.762,0.299,1.461,0.393,2.098h0.035c0.121-0.945,0.238-1.713,0.352-2.303l0.598-3.182h0.926l-1.318,6.434H506.406z"/>
	<path d="M512.013,135.91l-1.576-0.123v-0.721h2.643v5.596l2.063,0.117v0.721h-5.145v-0.721l2.016-0.117V135.91z M512.552,132.418
		c0.414,0,0.621,0.223,0.621,0.668c0,0.227-0.062,0.396-0.185,0.507s-0.269,0.167-0.437,0.167c-0.418,0-0.627-0.225-0.627-0.674
		C511.925,132.641,512.134,132.418,512.552,132.418z"/>
	<path d="M522.466,138.488h-4.535c0.031,1.465,0.703,2.197,2.016,2.197c0.762,0,1.484-0.148,2.168-0.445v0.938
		c-0.648,0.293-1.359,0.439-2.133,0.439c-0.957,0-1.723-0.292-2.297-0.876s-0.861-1.388-0.861-2.411c0-1.039,0.265-1.862,0.794-2.47
		s1.237-0.911,2.124-0.911c0.828,0,1.489,0.262,1.983,0.785s0.741,1.221,0.741,2.092V138.488z M517.955,137.621h3.357
		c0-1.191-0.531-1.787-1.594-1.787C518.644,135.834,518.056,136.43,517.955,137.621z"/>
	<path d="M526.304,132.934l-0.24,3.094h-0.908l-0.24-3.094H526.304z M528.777,132.934l-0.24,3.094h-0.908l-0.24-3.094H528.777z"/>
	<path d="M439.89,154.333l-0.24,3.094h-0.908l-0.24-3.094H439.89z M442.363,154.333l-0.24,3.094h-0.908l-0.24-3.094H442.363z"/>
	<path d="M444.835,162.671v-0.973c0.633,0.242,1.236,0.363,1.811,0.363c0.629,0,1.125-0.155,1.488-0.466s0.545-0.753,0.545-1.327
		v-5.936h1.09v5.924c0,0.844-0.274,1.515-0.823,2.013s-1.286,0.747-2.212,0.747C445.886,163.017,445.253,162.902,444.835,162.671z"
		/>
	<path d="M456.478,162.9l-0.217-0.891h-0.047c-0.301,0.379-0.609,0.642-0.926,0.788s-0.725,0.22-1.225,0.22
		c-0.637,0-1.136-0.168-1.497-0.504s-0.542-0.807-0.542-1.412c0-1.297,0.996-1.977,2.988-2.039l1.189-0.041v-0.404
		c0-0.922-0.477-1.383-1.43-1.383c-0.574,0-1.215,0.16-1.922,0.48l-0.369-0.803c0.766-0.375,1.514-0.563,2.244-0.563
		c0.887,0,1.528,0.17,1.925,0.51s0.595,0.885,0.595,1.635v4.406H456.478z M456.191,159.753l-0.949,0.041
		c-0.766,0.031-1.309,0.151-1.629,0.36s-0.48,0.528-0.48,0.958c0,0.695,0.391,1.043,1.172,1.043c0.574,0,1.032-0.159,1.374-0.478
		s0.513-0.767,0.513-1.345V159.753z"/>
	<path d="M463.632,162.9v-4.143c0-1.016-0.465-1.523-1.395-1.523c-1.199,0-1.799,0.777-1.799,2.332v3.334h-1.066v-6.434h0.861
		l0.158,0.867h0.059c0.402-0.656,1.059-0.984,1.969-0.984c1.52,0,2.279,0.783,2.279,2.35v4.201H463.632z"/>
	<path d="M471.039,162.9l-0.158-0.861h-0.059c-0.41,0.652-1.063,0.979-1.957,0.979c-1.527,0-2.291-0.783-2.291-2.35v-4.201h1.066
		v4.143c0,1.016,0.461,1.523,1.383,1.523c0.629,0,1.088-0.181,1.377-0.542s0.434-0.956,0.434-1.784v-3.34h1.066v6.434H471.039z"/>
	<path d="M478.082,162.9l-0.217-0.891h-0.047c-0.301,0.379-0.609,0.642-0.926,0.788s-0.725,0.22-1.225,0.22
		c-0.637,0-1.136-0.168-1.497-0.504s-0.542-0.807-0.542-1.412c0-1.297,0.996-1.977,2.988-2.039l1.189-0.041v-0.404
		c0-0.922-0.477-1.383-1.43-1.383c-0.574,0-1.215,0.16-1.922,0.48l-0.369-0.803c0.766-0.375,1.514-0.563,2.244-0.563
		c0.887,0,1.528,0.17,1.925,0.51s0.595,0.885,0.595,1.635v4.406H478.082z M477.794,159.753l-0.949,0.041
		c-0.766,0.031-1.309,0.151-1.629,0.36s-0.48,0.528-0.48,0.958c0,0.695,0.391,1.043,1.172,1.043c0.574,0,1.032-0.159,1.374-0.478
		s0.513-0.767,0.513-1.345V159.753z"/>
	<path d="M486.244,156.613l-0.287,0.973c-0.48-0.176-0.918-0.264-1.313-0.264c-0.637,0-1.128,0.181-1.474,0.542
		s-0.519,0.884-0.519,1.567v3.469h-1.066v-6.434h0.867l0.129,1.178h0.047c0.297-0.465,0.615-0.797,0.955-0.996
		s0.758-0.299,1.254-0.299C485.298,156.349,485.767,156.437,486.244,156.613z"/>
	<path d="M487.72,156.466h1.102l1.535,3.832c0.32,0.801,0.494,1.367,0.521,1.699h0.035c0.09-0.438,0.266-1.008,0.527-1.711l1.4-3.82
		h1.107l-2.783,7.271c-0.262,0.68-0.566,1.19-0.914,1.532s-0.828,0.513-1.441,0.513c-0.336,0-0.664-0.033-0.984-0.1v-0.85
		c0.242,0.047,0.508,0.07,0.797,0.07c0.375,0,0.667-0.08,0.876-0.24s0.396-0.436,0.56-0.826l0.34-0.879L487.72,156.466z"/>
	<path d="M506.119,158.365c1.207,0.625,1.811,1.393,1.811,2.303c0,0.707-0.246,1.275-0.738,1.705s-1.143,0.645-1.951,0.645
		c-0.844,0-1.502-0.202-1.975-0.606s-0.709-0.97-0.709-1.696c0-1.004,0.551-1.771,1.652-2.303c-0.918-0.57-1.377-1.291-1.377-2.162
		c0-0.629,0.228-1.128,0.683-1.497s1.03-0.554,1.726-0.554c0.719,0,1.301,0.186,1.746,0.557s0.668,0.873,0.668,1.506
		C507.654,157.16,507.142,157.861,506.119,158.365z M505.087,158.822c-0.992,0.473-1.488,1.107-1.488,1.904
		c0,0.938,0.539,1.406,1.617,1.406c0.531,0,0.942-0.128,1.233-0.384s0.437-0.612,0.437-1.069c0-0.352-0.123-0.663-0.369-0.935
		s-0.664-0.552-1.254-0.841L505.087,158.822z M505.251,157.931c0.906-0.402,1.359-0.945,1.359-1.629
		c0-0.395-0.123-0.695-0.369-0.902s-0.584-0.311-1.014-0.311c-0.414,0-0.743,0.104-0.987,0.311s-0.366,0.508-0.366,0.902
		c0,0.352,0.097,0.649,0.29,0.894S504.72,157.685,505.251,157.931z"/>
	<path d="M513.355,161.365l0.094,0.141c-0.223,0.875-0.602,1.904-1.137,3.088h-0.891c0.297-1.262,0.514-2.338,0.65-3.229H513.355z"
		/>
	<path d="M527.687,162.9h-1.031v-5.35c0-0.477,0.016-1.182,0.047-2.115c-0.152,0.168-0.389,0.389-0.709,0.662l-0.861,0.709
		l-0.568-0.721l2.244-1.752h0.879V162.9z"/>
	<path d="M531.994,162.912v-0.914c0.262,0.098,0.586,0.146,0.973,0.146c0.875,0,1.532-0.275,1.972-0.826s0.679-1.424,0.718-2.619
		h-0.07c-0.375,0.664-0.977,0.996-1.805,0.996c-0.758,0-1.353-0.23-1.784-0.691s-0.647-1.098-0.647-1.91
		c0-0.891,0.235-1.594,0.706-2.109s1.103-0.773,1.896-0.773c0.859,0,1.54,0.334,2.042,1.002s0.753,1.594,0.753,2.777
		c0,3.352-1.248,5.027-3.744,5.027C532.591,163.017,532.255,162.982,531.994,162.912z M532.38,157.093
		c0,0.566,0.134,1.002,0.401,1.307s0.649,0.457,1.146,0.457s0.912-0.159,1.248-0.478s0.504-0.679,0.504-1.081
		c0-0.59-0.156-1.102-0.469-1.535s-0.729-0.65-1.248-0.65c-0.5,0-0.889,0.17-1.166,0.51S532.38,156.453,532.38,157.093z"/>
	<path d="M544.246,160.978h-1.248v1.922h-1.031v-1.922h-3.961v-0.932l3.891-5.76h1.102v5.719h1.248V160.978z M541.966,160.005
		v-2.086c0-0.688,0.025-1.531,0.076-2.531h-0.053c-0.141,0.398-0.316,0.75-0.527,1.055l-2.408,3.563H541.966z"/>
	<path d="M546.806,162.9l3.299-7.594h-4.418v-0.973h5.508v0.85l-3.252,7.717H546.806z"/>
	<path d="M555.109,154.333l-0.24,3.094h-0.908l-0.24-3.094H555.109z M557.582,154.333l-0.24,3.094h-0.908l-0.24-3.094H557.582z"/>
	<path d="M441.273,184.3h-1.031v-5.35c0-0.477,0.016-1.182,0.047-2.115c-0.152,0.168-0.389,0.389-0.709,0.662l-0.861,0.709
		l-0.568-0.721l2.244-1.752h0.879V184.3z"/>
	<path d="M445.99,184.3l3.299-7.594h-4.418v-0.973h5.508v0.85l-3.252,7.717H445.99z"/>
	<path d="M455.71,179.765c1.207,0.625,1.811,1.393,1.811,2.303c0,0.707-0.246,1.275-0.738,1.705s-1.143,0.645-1.951,0.645
		c-0.844,0-1.502-0.202-1.975-0.606s-0.709-0.97-0.709-1.696c0-1.004,0.551-1.771,1.652-2.303c-0.918-0.57-1.377-1.291-1.377-2.162
		c0-0.629,0.228-1.128,0.683-1.497s1.03-0.554,1.726-0.554c0.719,0,1.301,0.186,1.746,0.557s0.668,0.873,0.668,1.506
		C457.246,178.56,456.734,179.261,455.71,179.765z M454.679,180.222c-0.992,0.473-1.488,1.107-1.488,1.904
		c0,0.938,0.539,1.406,1.617,1.406c0.531,0,0.942-0.128,1.233-0.384s0.437-0.612,0.437-1.069c0-0.352-0.123-0.663-0.369-0.935
		s-0.664-0.552-1.254-0.841L454.679,180.222z M454.843,179.331c0.906-0.402,1.359-0.945,1.359-1.629
		c0-0.395-0.123-0.695-0.369-0.902s-0.584-0.311-1.014-0.311c-0.414,0-0.743,0.104-0.987,0.311s-0.366,0.508-0.366,0.902
		c0,0.352,0.097,0.649,0.29,0.894S454.312,179.085,454.843,179.331z"/>
</g>
<g>
	<path d="M403.224,142v-4.143c0-1.016-0.465-1.523-1.395-1.523c-1.199,0-1.799,0.777-1.799,2.332V142h-1.066v-6.434h0.861
		l0.158,0.867h0.059c0.402-0.656,1.059-0.984,1.969-0.984c1.52,0,2.279,0.783,2.279,2.35V142H403.224z"/>
	<path d="M410.472,142l-0.217-0.891h-0.047c-0.301,0.379-0.609,0.642-0.926,0.788s-0.725,0.22-1.225,0.22
		c-0.637,0-1.136-0.168-1.497-0.504s-0.542-0.807-0.542-1.412c0-1.297,0.996-1.977,2.988-2.039l1.189-0.041v-0.404
		c0-0.922-0.477-1.383-1.43-1.383c-0.574,0-1.215,0.16-1.922,0.48l-0.369-0.803c0.766-0.375,1.514-0.563,2.244-0.563
		c0.887,0,1.528,0.17,1.925,0.51s0.595,0.885,0.595,1.635V142H410.472z M410.185,138.854l-0.949,0.041
		c-0.766,0.031-1.309,0.151-1.629,0.36s-0.48,0.528-0.48,0.958c0,0.695,0.391,1.043,1.172,1.043c0.574,0,1.032-0.159,1.374-0.478
		s0.513-0.767,0.513-1.345V138.854z"/>
	<path d="M418.154,142v-4.143c0-0.57-0.052-0.967-0.155-1.189s-0.276-0.334-0.519-0.334c-0.34,0-0.587,0.162-0.741,0.486
		s-0.231,0.867-0.231,1.629V142h-0.943v-4.143c0-1.016-0.244-1.523-0.732-1.523c-0.328,0-0.563,0.155-0.703,0.466
		s-0.211,0.933-0.211,1.866V142h-0.949v-6.434h0.744l0.158,0.867h0.059c0.262-0.656,0.654-0.984,1.178-0.984
		c0.637,0,1.053,0.355,1.248,1.066h0.035c0.297-0.711,0.725-1.066,1.283-1.066c0.5,0,0.863,0.181,1.09,0.542s0.34,0.964,0.34,1.808
		V142H418.154z"/>
	<path d="M426.052,138.988h-4.535c0.031,1.465,0.703,2.197,2.016,2.197c0.762,0,1.484-0.148,2.168-0.445v0.938
		c-0.648,0.293-1.359,0.439-2.133,0.439c-0.957,0-1.723-0.292-2.297-0.876s-0.861-1.388-0.861-2.411c0-1.039,0.265-1.862,0.794-2.47
		s1.237-0.911,2.124-0.911c0.828,0,1.489,0.262,1.983,0.785s0.741,1.221,0.741,2.092V138.988z M421.541,138.121h3.357
		c0-1.191-0.531-1.787-1.594-1.787C422.23,136.334,421.642,136.93,421.541,138.121z"/>
	<path d="M406.019,163.4v-8.566h2.004c1.238,0,2.202,0.369,2.892,1.107s1.034,1.77,1.034,3.094c0,1.41-0.357,2.49-1.072,3.24
		s-1.746,1.125-3.094,1.125H406.019z M407.115,155.765v6.697h0.563c2.078,0,3.117-1.131,3.117-3.393
		c0-2.203-0.963-3.305-2.889-3.305H407.115z"/>
	<path d="M416.039,163.517c-2.078,0-3.117-1.475-3.117-4.424c0-2.93,1.043-4.395,3.129-4.395c1,0,1.767,0.382,2.3,1.146
		s0.8,1.851,0.8,3.261s-0.27,2.498-0.809,3.264S417.035,163.517,416.039,163.517z M416.039,162.562c0.676,0,1.171-0.283,1.485-0.85
		s0.472-1.436,0.472-2.607c0-1.184-0.159-2.054-0.478-2.61s-0.808-0.835-1.468-0.835c-1.316,0-1.975,1.148-1.975,3.445
		C414.076,161.41,414.73,162.562,416.039,162.562z"/>
	<path d="M420.421,154.833H423c1.07,0,1.847,0.171,2.329,0.513s0.724,0.894,0.724,1.655c0,0.5-0.153,0.916-0.46,1.248
		s-0.722,0.533-1.245,0.604v0.059c1.297,0.211,1.945,0.879,1.945,2.004c0,0.773-0.249,1.381-0.747,1.822s-1.177,0.662-2.036,0.662
		h-3.088V154.833z M421.517,158.466h1.664c0.609,0,1.054-0.107,1.333-0.322s0.419-0.57,0.419-1.066c0-0.469-0.149-0.805-0.448-1.008
		s-0.772-0.305-1.421-0.305h-1.547V158.466z M421.517,159.38v3.094h1.799c1.215,0,1.822-0.535,1.822-1.605
		c0-0.992-0.633-1.488-1.898-1.488H421.517z"/>
	<path d="M388.822,184.8v-4.143c0-1.016-0.465-1.523-1.395-1.523c-1.199,0-1.799,0.777-1.799,2.332v3.334h-1.066v-9.117h1.066v2.707
		l-0.047,0.844h0.059c0.402-0.656,1.059-0.984,1.969-0.984c1.52,0,2.279,0.783,2.279,2.35v4.201H388.822z"/>
	<path d="M397.248,181.788h-4.535c0.031,1.465,0.703,2.197,2.016,2.197c0.762,0,1.484-0.148,2.168-0.445v0.938
		c-0.648,0.293-1.359,0.439-2.133,0.439c-0.957,0-1.723-0.292-2.297-0.876s-0.861-1.388-0.861-2.411c0-1.039,0.265-1.862,0.794-2.47
		s1.237-0.911,2.124-0.911c0.828,0,1.489,0.262,1.983,0.785s0.741,1.221,0.741,2.092V181.788z M392.736,180.921h3.357
		c0-1.191-0.531-1.787-1.594-1.787C393.425,179.134,392.837,179.729,392.736,180.921z"/>
	<path d="M401.197,179.21l-1.576-0.123v-0.721h2.643v5.596l2.063,0.117v0.721h-5.145v-0.721l2.016-0.117V179.21z M401.736,175.718
		c0.414,0,0.621,0.223,0.621,0.668c0,0.227-0.062,0.396-0.185,0.507s-0.269,0.167-0.437,0.167c-0.418,0-0.627-0.225-0.627-0.674
		C401.109,175.94,401.318,175.718,401.736,175.718z"/>
	<path d="M411.826,178.366v0.662l-1.148,0.158c0.254,0.332,0.381,0.748,0.381,1.248c0,0.629-0.208,1.13-0.624,1.503
		s-0.995,0.56-1.737,0.56c-0.215,0-0.383-0.012-0.504-0.035c-0.391,0.219-0.586,0.479-0.586,0.779c0,0.328,0.314,0.492,0.943,0.492
		h1.096c0.68,0,1.199,0.15,1.559,0.451s0.539,0.73,0.539,1.289c0,1.473-1.104,2.209-3.311,2.209c-0.852,0-1.499-0.157-1.942-0.472
		s-0.665-0.755-0.665-1.321c0-0.828,0.469-1.355,1.406-1.582c-0.375-0.184-0.563-0.484-0.563-0.902c0-0.438,0.26-0.813,0.779-1.125
		c-0.348-0.145-0.621-0.384-0.82-0.718s-0.299-0.698-0.299-1.093c0-0.711,0.208-1.259,0.624-1.644s1.009-0.577,1.778-0.577
		c0.336,0,0.629,0.039,0.879,0.117H411.826z M409.283,184.694h-1.102c-0.898,0-1.348,0.387-1.348,1.16c0,0.68,0.529,1.02,1.588,1.02
		c1.543,0,2.314-0.436,2.314-1.307c0-0.344-0.098-0.575-0.293-0.694S409.861,184.694,409.283,184.694z M408.708,181.765
		c0.871,0,1.307-0.449,1.307-1.348c0-0.934-0.439-1.4-1.318-1.4s-1.318,0.473-1.318,1.418
		C407.378,181.321,407.822,181.765,408.708,181.765z"/>
	<path d="M417.626,184.8v-4.143c0-1.016-0.465-1.523-1.395-1.523c-1.199,0-1.799,0.777-1.799,2.332v3.334h-1.066v-9.117h1.066v2.707
		l-0.047,0.844h0.059c0.402-0.656,1.059-0.984,1.969-0.984c1.52,0,2.279,0.783,2.279,2.35v4.201H417.626z"/>
	<path d="M425.607,183.921v0.809c-0.508,0.125-1,0.188-1.477,0.188c-1.414,0-2.121-0.672-2.121-2.016v-3.732h-1.564v-0.551
		l1.564-0.287l0.451-1.682h0.615v1.717h2.566v0.803h-2.566v3.732c0,0.762,0.375,1.143,1.125,1.143
		C424.564,184.044,425.033,184.003,425.607,183.921z"/>
</g>
<rect x="5.832" y="60" style="fill:#DFF2F7;stroke:#000000;" width="230" height="130"/>
<rect x="20.832" y="75" style="fill:#FFFFFF;stroke:#000000;" width="200" height="79"/>
<g>
	<path d="M103.658,95.213V94.17c0.824,0.336,1.633,0.504,2.426,0.504c1.367,0,2.051-0.469,2.051-1.406
		c0-0.406-0.138-0.719-0.413-0.938s-0.833-0.479-1.673-0.779c-0.813-0.285-1.396-0.626-1.749-1.022s-0.53-0.911-0.53-1.544
		c0-0.68,0.251-1.212,0.753-1.597s1.19-0.577,2.065-0.577c0.895,0,1.707,0.152,2.438,0.457l-0.375,0.961
		c-0.754-0.305-1.457-0.457-2.109-0.457c-1.145,0-1.717,0.408-1.717,1.225c0,0.398,0.128,0.719,0.384,0.961s0.784,0.502,1.585,0.779
		c0.961,0.344,1.603,0.698,1.925,1.063s0.483,0.835,0.483,1.409c0,0.75-0.271,1.339-0.812,1.767s-1.31,0.642-2.306,0.642
		C105.048,95.617,104.24,95.482,103.658,95.213z"/>
	<path d="M116.009,94.621v0.809c-0.508,0.125-1,0.188-1.477,0.188c-1.414,0-2.121-0.672-2.121-2.016v-3.732h-1.564v-0.551
		l1.564-0.287l0.451-1.682h0.615v1.717h2.566v0.803h-2.566v3.732c0,0.762,0.375,1.143,1.125,1.143
		C114.966,94.744,115.435,94.703,116.009,94.621z"/>
	<path d="M123.439,89.213l-0.287,0.973c-0.48-0.176-0.918-0.264-1.313-0.264c-0.637,0-1.128,0.181-1.474,0.542
		s-0.519,0.884-0.519,1.567V95.5h-1.066v-6.434h0.867l0.129,1.178h0.047c0.297-0.465,0.615-0.797,0.955-0.996
		s0.758-0.299,1.254-0.299C122.494,88.949,122.962,89.037,123.439,89.213z"/>
	<path d="M127.605,89.91l-1.576-0.123v-0.721h2.643v5.596l2.063,0.117V95.5h-5.145v-0.721l2.016-0.117V89.91z M128.144,86.418
		c0.414,0,0.621,0.223,0.621,0.668c0,0.227-0.062,0.396-0.185,0.507s-0.269,0.167-0.437,0.167c-0.418,0-0.627-0.225-0.627-0.674
		C127.517,86.641,127.726,86.418,128.144,86.418z"/>
	<path d="M136.833,95.5v-4.143c0-1.016-0.465-1.523-1.395-1.523c-1.199,0-1.799,0.777-1.799,2.332V95.5h-1.066v-6.434h0.861
		l0.158,0.867h0.059c0.402-0.656,1.059-0.984,1.969-0.984c1.52,0,2.279,0.783,2.279,2.35V95.5H136.833z"/>
	<path d="M145.435,89.066v0.662l-1.148,0.158c0.254,0.332,0.381,0.748,0.381,1.248c0,0.629-0.208,1.13-0.624,1.503
		s-0.995,0.56-1.737,0.56c-0.215,0-0.383-0.012-0.504-0.035c-0.391,0.219-0.586,0.479-0.586,0.779c0,0.328,0.314,0.492,0.943,0.492
		h1.096c0.68,0,1.199,0.15,1.559,0.451s0.539,0.73,0.539,1.289c0,1.473-1.104,2.209-3.311,2.209c-0.852,0-1.499-0.157-1.942-0.472
		s-0.665-0.755-0.665-1.321c0-0.828,0.469-1.355,1.406-1.582c-0.375-0.184-0.563-0.484-0.563-0.902c0-0.438,0.26-0.813,0.779-1.125
		c-0.348-0.145-0.621-0.384-0.82-0.718s-0.299-0.698-0.299-1.093c0-0.711,0.208-1.259,0.624-1.644s1.009-0.577,1.778-0.577
		c0.336,0,0.629,0.039,0.879,0.117H145.435z M142.892,95.395h-1.102c-0.898,0-1.348,0.387-1.348,1.16c0,0.68,0.529,1.02,1.588,1.02
		c1.543,0,2.314-0.436,2.314-1.307c0-0.344-0.098-0.575-0.293-0.694S143.47,95.395,142.892,95.395z M142.318,92.465
		c0.871,0,1.307-0.449,1.307-1.348c0-0.934-0.439-1.4-1.318-1.4s-1.318,0.473-1.318,1.418
		C140.988,92.021,141.431,92.465,142.318,92.465z"/>
	<path d="M103.658,116.613v-1.043c0.824,0.336,1.633,0.504,2.426,0.504c1.367,0,2.051-0.469,2.051-1.406
		c0-0.406-0.138-0.719-0.413-0.938s-0.833-0.479-1.673-0.779c-0.813-0.285-1.396-0.626-1.749-1.022s-0.53-0.911-0.53-1.544
		c0-0.68,0.251-1.212,0.753-1.597s1.19-0.577,2.065-0.577c0.895,0,1.707,0.152,2.438,0.457l-0.375,0.961
		c-0.754-0.305-1.457-0.457-2.109-0.457c-1.145,0-1.717,0.408-1.717,1.225c0,0.398,0.128,0.719,0.384,0.961s0.784,0.502,1.585,0.779
		c0.961,0.344,1.603,0.698,1.925,1.063s0.483,0.835,0.483,1.409c0,0.75-0.271,1.339-0.812,1.767s-1.31,0.642-2.306,0.642
		C105.048,117.017,104.24,116.882,103.658,116.613z"/>
	<path d="M116.009,116.021v0.809c-0.508,0.125-1,0.188-1.477,0.188c-1.414,0-2.121-0.672-2.121-2.016v-3.732h-1.564v-0.551
		l1.564-0.287l0.451-1.682h0.615v1.717h2.566v0.803h-2.566v3.732c0,0.762,0.375,1.143,1.125,1.143
		C114.966,116.144,115.435,116.103,116.009,116.021z"/>
	<path d="M123.439,110.613l-0.287,0.973c-0.48-0.176-0.918-0.264-1.313-0.264c-0.637,0-1.128,0.181-1.474,0.542
		s-0.519,0.884-0.519,1.567v3.469h-1.066v-6.434h0.867l0.129,1.178h0.047c0.297-0.465,0.615-0.797,0.955-0.996
		s0.758-0.299,1.254-0.299C122.494,110.349,122.962,110.437,123.439,110.613z"/>
	<path d="M127.605,111.31l-1.576-0.123v-0.721h2.643v5.596l2.063,0.117v0.721h-5.145v-0.721l2.016-0.117V111.31z M128.144,107.818
		c0.414,0,0.621,0.223,0.621,0.668c0,0.227-0.062,0.396-0.185,0.507s-0.269,0.167-0.437,0.167c-0.418,0-0.627-0.225-0.627-0.674
		C127.517,108.041,127.726,107.818,128.144,107.818z"/>
	<path d="M136.833,116.9v-4.143c0-1.016-0.465-1.523-1.395-1.523c-1.199,0-1.799,0.777-1.799,2.332v3.334h-1.066v-6.434h0.861
		l0.158,0.867h0.059c0.402-0.656,1.059-0.984,1.969-0.984c1.52,0,2.279,0.783,2.279,2.35v4.201H136.833z"/>
	<path d="M145.435,110.466v0.662l-1.148,0.158c0.254,0.332,0.381,0.748,0.381,1.248c0,0.629-0.208,1.13-0.624,1.503
		s-0.995,0.56-1.737,0.56c-0.215,0-0.383-0.012-0.504-0.035c-0.391,0.219-0.586,0.479-0.586,0.779c0,0.328,0.314,0.492,0.943,0.492
		h1.096c0.68,0,1.199,0.15,1.559,0.451s0.539,0.73,0.539,1.289c0,1.473-1.104,2.209-3.311,2.209c-0.852,0-1.499-0.157-1.942-0.472
		s-0.665-0.755-0.665-1.321c0-0.828,0.469-1.355,1.406-1.582c-0.375-0.184-0.563-0.484-0.563-0.902c0-0.438,0.26-0.813,0.779-1.125
		c-0.348-0.145-0.621-0.384-0.82-0.718s-0.299-0.698-0.299-1.093c0-0.711,0.208-1.259,0.624-1.644s1.009-0.577,1.778-0.577
		c0.336,0,0.629,0.039,0.879,0.117H145.435z M142.892,116.794h-1.102c-0.898,0-1.348,0.387-1.348,1.16c0,0.68,0.529,1.02,1.588,1.02
		c1.543,0,2.314-0.436,2.314-1.307c0-0.344-0.098-0.575-0.293-0.694S143.47,116.794,142.892,116.794z M142.318,113.865
		c0.871,0,1.307-0.449,1.307-1.348c0-0.934-0.439-1.4-1.318-1.4s-1.318,0.473-1.318,1.418
		C140.988,113.421,141.431,113.865,142.318,113.865z"/>
	<path d="M106.001,132.71l-1.576-0.123v-0.721h2.643v5.596l2.063,0.117v0.721h-5.145v-0.721l2.016-0.117V132.71z M106.541,129.218
		c0.414,0,0.621,0.223,0.621,0.668c0,0.227-0.062,0.396-0.185,0.507s-0.269,0.167-0.437,0.167c-0.418,0-0.627-0.225-0.627-0.674
		C105.914,129.44,106.123,129.218,106.541,129.218z"/>
	<path d="M115.23,138.3v-4.143c0-1.016-0.465-1.523-1.395-1.523c-1.199,0-1.799,0.777-1.799,2.332v3.334h-1.066v-6.434h0.861
		l0.158,0.867h0.059c0.402-0.656,1.059-0.984,1.969-0.984c1.52,0,2.279,0.783,2.279,2.35v4.201H115.23z"/>
	<path d="M123.21,137.421v0.809c-0.508,0.125-1,0.188-1.477,0.188c-1.414,0-2.121-0.672-2.121-2.016v-3.732h-1.564v-0.551
		l1.564-0.287l0.451-1.682h0.615v1.717h2.566v0.803h-2.566v3.732c0,0.762,0.375,1.143,1.125,1.143
		C122.167,137.544,122.636,137.503,123.21,137.421z"/>
</g>
<g>
	<path d="M69.224,96v-4.143c0-1.016-0.465-1.523-1.395-1.523c-1.199,0-1.799,0.777-1.799,2.332V96h-1.066v-6.434h0.861l0.158,0.867
		h0.059c0.402-0.656,1.059-0.984,1.969-0.984c1.52,0,2.279,0.783,2.279,2.35V96H69.224z"/>
	<path d="M76.472,96l-0.217-0.891h-0.047c-0.301,0.379-0.609,0.642-0.926,0.788s-0.725,0.22-1.225,0.22
		c-0.637,0-1.136-0.168-1.497-0.504s-0.542-0.807-0.542-1.412c0-1.297,0.996-1.977,2.988-2.039l1.189-0.041v-0.404
		c0-0.922-0.477-1.383-1.43-1.383c-0.574,0-1.215,0.16-1.922,0.48l-0.369-0.803c0.766-0.375,1.514-0.563,2.244-0.563
		c0.887,0,1.528,0.17,1.925,0.51s0.595,0.885,0.595,1.635V96H76.472z M76.185,92.854l-0.949,0.041
		c-0.766,0.031-1.309,0.151-1.629,0.36s-0.48,0.528-0.48,0.958c0,0.695,0.391,1.043,1.172,1.043c0.574,0,1.032-0.159,1.374-0.478
		s0.513-0.767,0.513-1.345V92.854z"/>
	<path d="M84.154,96v-4.143c0-0.57-0.052-0.967-0.155-1.189s-0.276-0.334-0.519-0.334c-0.34,0-0.587,0.162-0.741,0.486
		s-0.231,0.867-0.231,1.629V96h-0.943v-4.143c0-1.016-0.244-1.523-0.732-1.523c-0.328,0-0.563,0.155-0.703,0.466
		s-0.211,0.933-0.211,1.866V96h-0.949v-6.434h0.744l0.158,0.867h0.059c0.262-0.656,0.654-0.984,1.178-0.984
		c0.637,0,1.053,0.355,1.248,1.066h0.035c0.297-0.711,0.725-1.066,1.283-1.066c0.5,0,0.863,0.181,1.09,0.542s0.34,0.964,0.34,1.808
		V96H84.154z"/>
	<path d="M92.052,92.988h-4.535c0.031,1.465,0.703,2.197,2.016,2.197c0.762,0,1.484-0.148,2.168-0.445v0.938
		c-0.648,0.293-1.359,0.439-2.133,0.439c-0.957,0-1.723-0.292-2.297-0.876s-0.861-1.388-0.861-2.411c0-1.039,0.265-1.862,0.794-2.47
		s1.237-0.911,2.124-0.911c0.828,0,1.489,0.262,1.983,0.785s0.741,1.221,0.741,2.092V92.988z M87.541,92.121h3.357
		c0-1.191-0.531-1.787-1.594-1.787C88.23,90.334,87.642,90.93,87.541,92.121z"/>
	<path d="M72.019,117.4v-8.566h2.004c1.238,0,2.202,0.369,2.892,1.107s1.034,1.77,1.034,3.094c0,1.41-0.357,2.49-1.072,3.24
		s-1.746,1.125-3.094,1.125H72.019z M73.115,109.765v6.697h0.563c2.078,0,3.117-1.131,3.117-3.393c0-2.203-0.963-3.305-2.889-3.305
		H73.115z"/>
	<path d="M82.039,117.517c-2.078,0-3.117-1.475-3.117-4.424c0-2.93,1.043-4.395,3.129-4.395c1,0,1.767,0.382,2.3,1.146
		s0.8,1.851,0.8,3.261s-0.27,2.498-0.809,3.264S83.035,117.517,82.039,117.517z M82.039,116.562c0.676,0,1.171-0.283,1.485-0.85
		s0.472-1.436,0.472-2.607c0-1.184-0.159-2.054-0.478-2.61s-0.808-0.835-1.468-0.835c-1.316,0-1.975,1.148-1.975,3.445
		C80.076,115.41,80.73,116.562,82.039,116.562z"/>
	<path d="M86.421,108.833H89c1.07,0,1.847,0.171,2.329,0.513s0.724,0.894,0.724,1.655c0,0.5-0.153,0.916-0.46,1.248
		s-0.722,0.533-1.245,0.604v0.059c1.297,0.211,1.945,0.879,1.945,2.004c0,0.773-0.249,1.381-0.747,1.822s-1.177,0.662-2.036,0.662
		h-3.088V108.833z M87.517,112.466h1.664c0.609,0,1.054-0.107,1.333-0.322s0.419-0.57,0.419-1.066c0-0.469-0.149-0.805-0.448-1.008
		s-0.772-0.305-1.421-0.305h-1.547V112.466z M87.517,113.38v3.094h1.799c1.215,0,1.822-0.535,1.822-1.605
		c0-0.992-0.633-1.488-1.898-1.488H87.517z"/>
	<path d="M54.822,138.8v-4.143c0-1.016-0.465-1.523-1.395-1.523c-1.199,0-1.799,0.777-1.799,2.332v3.334h-1.066v-9.117h1.066v2.707
		l-0.047,0.844h0.059c0.402-0.656,1.059-0.984,1.969-0.984c1.52,0,2.279,0.783,2.279,2.35v4.201H54.822z"/>
	<path d="M63.248,135.788h-4.535c0.031,1.465,0.703,2.197,2.016,2.197c0.762,0,1.484-0.148,2.168-0.445v0.938
		c-0.648,0.293-1.359,0.439-2.133,0.439c-0.957,0-1.723-0.292-2.297-0.876s-0.861-1.388-0.861-2.411c0-1.039,0.265-1.862,0.794-2.47
		s1.237-0.911,2.124-0.911c0.828,0,1.489,0.262,1.983,0.785s0.741,1.221,0.741,2.092V135.788z M58.736,134.921h3.357
		c0-1.191-0.531-1.787-1.594-1.787C59.425,133.134,58.837,133.729,58.736,134.921z"/>
	<path d="M67.197,133.21l-1.576-0.123v-0.721h2.643v5.596l2.063,0.117v0.721h-5.145v-0.721l2.016-0.117V133.21z M67.736,129.718
		c0.414,0,0.621,0.223,0.621,0.668c0,0.227-0.062,0.396-0.185,0.507s-0.269,0.167-0.437,0.167c-0.418,0-0.627-0.225-0.627-0.674
		C67.109,129.94,67.318,129.718,67.736,129.718z"/>
	<path d="M77.826,132.366v0.662l-1.148,0.158c0.254,0.332,0.381,0.748,0.381,1.248c0,0.629-0.208,1.13-0.624,1.503
		s-0.995,0.56-1.737,0.56c-0.215,0-0.383-0.012-0.504-0.035c-0.391,0.219-0.586,0.479-0.586,0.779c0,0.328,0.314,0.492,0.943,0.492
		h1.096c0.68,0,1.199,0.15,1.559,0.451s0.539,0.73,0.539,1.289c0,1.473-1.104,2.209-3.311,2.209c-0.852,0-1.499-0.157-1.942-0.472
		s-0.665-0.755-0.665-1.321c0-0.828,0.469-1.355,1.406-1.582c-0.375-0.184-0.563-0.484-0.563-0.902c0-0.438,0.26-0.813,0.779-1.125
		c-0.348-0.145-0.621-0.384-0.82-0.718s-0.299-0.698-0.299-1.093c0-0.711,0.208-1.259,0.624-1.644s1.009-0.577,1.778-0.577
		c0.336,0,0.629,0.039,0.879,0.117H77.826z M75.283,138.694h-1.102c-0.898,0-1.348,0.387-1.348,1.16c0,0.68,0.529,1.02,1.588,1.02
		c1.543,0,2.314-0.436,2.314-1.307c0-0.344-0.098-0.575-0.293-0.694S75.861,138.694,75.283,138.694z M74.708,135.765
		c0.871,0,1.307-0.449,1.307-1.348c0-0.934-0.439-1.4-1.318-1.4s-1.318,0.473-1.318,1.418
		C73.378,135.321,73.822,135.765,74.708,135.765z"/>
	<path d="M83.626,138.8v-4.143c0-1.016-0.465-1.523-1.395-1.523c-1.199,0-1.799,0.777-1.799,2.332v3.334h-1.066v-9.117h1.066v2.707
		l-0.047,0.844h0.059c0.402-0.656,1.059-0.984,1.969-0.984c1.52,0,2.279,0.783,2.279,2.35v4.201H83.626z"/>
	<path d="M91.607,137.921v0.809c-0.508,0.125-1,0.188-1.477,0.188c-1.414,0-2.121-0.672-2.121-2.016v-3.732h-1.564v-0.551
		l1.564-0.287l0.451-1.682h0.615v1.717h2.566v0.803h-2.566v3.732c0,0.762,0.375,1.143,1.125,1.143
		C90.564,138.044,91.033,138.003,91.607,137.921z"/>
</g>
<g>
	<path d="M263.967,65.774c-0.365,0-0.702-0.057-1.01-0.169c-0.308-0.113-0.573-0.291-0.795-0.535s-0.395-0.556-0.518-0.937
		c-0.124-0.382-0.186-0.843-0.186-1.383c0-0.587,0.062-1.079,0.186-1.474c0.123-0.396,0.295-0.714,0.516-0.954
		c0.22-0.24,0.479-0.41,0.778-0.51c0.299-0.1,0.623-0.15,0.97-0.15c0.229,0,0.458,0.022,0.685,0.067
		c0.228,0.044,0.433,0.113,0.615,0.207s0.331,0.21,0.446,0.352c0.115,0.141,0.172,0.307,0.172,0.497
		c0,0.254-0.083,0.433-0.247,0.537s-0.41,0.156-0.736,0.156c0-0.172-0.014-0.335-0.043-0.489s-0.078-0.289-0.147-0.406
		c-0.07-0.116-0.165-0.208-0.285-0.273c-0.12-0.066-0.273-0.1-0.459-0.1c-0.211,0-0.402,0.04-0.572,0.118
		c-0.17,0.079-0.316,0.215-0.438,0.408s-0.215,0.453-0.279,0.779s-0.097,0.734-0.097,1.225c0,0.781,0.13,1.362,0.39,1.746
		c0.259,0.383,0.685,0.575,1.275,0.575c0.34,0,0.637-0.072,0.892-0.215s0.444-0.328,0.569-0.553c0.054,0.043,0.099,0.1,0.134,0.172
		s0.054,0.158,0.054,0.258c0,0.125-0.04,0.25-0.118,0.376s-0.196,0.238-0.352,0.338c-0.155,0.1-0.35,0.182-0.583,0.245
		C264.55,65.743,264.278,65.774,263.967,65.774z"/>
	<path d="M269.805,65.667h-3.174v-0.462h0.032c0.125,0,0.243-0.009,0.352-0.027c0.109-0.018,0.204-0.055,0.284-0.11
		c0.081-0.056,0.146-0.135,0.193-0.239c0.049-0.104,0.073-0.242,0.073-0.414v-3.432c0-0.161-0.024-0.291-0.073-0.39
		c-0.048-0.098-0.113-0.174-0.196-0.228s-0.178-0.089-0.288-0.107c-0.109-0.018-0.225-0.027-0.346-0.027h-0.032V59.77h1.692
		l0.209,1.09h0.054c0.072-0.165,0.145-0.32,0.22-0.464c0.075-0.146,0.167-0.272,0.276-0.382c0.109-0.109,0.245-0.195,0.406-0.258
		c0.161-0.063,0.363-0.094,0.607-0.094c0.401,0,0.699,0.07,0.895,0.209c0.195,0.14,0.292,0.336,0.292,0.591
		c0,0.115-0.019,0.22-0.056,0.317c-0.038,0.097-0.098,0.18-0.18,0.25c-0.083,0.069-0.188,0.123-0.317,0.161
		c-0.129,0.037-0.287,0.056-0.473,0.056c0-0.304-0.043-0.524-0.129-0.658c-0.086-0.135-0.236-0.202-0.451-0.202
		c-0.136,0-0.258,0.039-0.365,0.116c-0.107,0.077-0.201,0.179-0.282,0.306c-0.08,0.127-0.148,0.273-0.204,0.438
		c-0.055,0.165-0.1,0.334-0.134,0.507c-0.034,0.174-0.059,0.347-0.073,0.519s-0.021,0.328-0.021,0.467v1.729
		c0,0.161,0.024,0.291,0.073,0.389c0.048,0.099,0.113,0.173,0.196,0.223s0.178,0.083,0.288,0.099
		c0.109,0.017,0.225,0.024,0.346,0.024h0.306V65.667z"/>
	<path d="M274.607,65.774c-0.397,0-0.755-0.067-1.071-0.201c-0.317-0.135-0.585-0.331-0.803-0.588s-0.386-0.574-0.502-0.948
		c-0.116-0.375-0.174-0.8-0.174-1.276c0-1.028,0.211-1.801,0.634-2.32s1.024-0.779,1.805-0.779c0.354,0,0.673,0.056,0.956,0.167
		s0.523,0.277,0.72,0.497c0.197,0.221,0.348,0.494,0.454,0.822c0.106,0.327,0.159,0.708,0.159,1.141v0.505h-3.663
		c0.007,0.401,0.047,0.746,0.121,1.034c0.074,0.289,0.179,0.526,0.317,0.712c0.138,0.186,0.307,0.323,0.507,0.411
		c0.201,0.087,0.432,0.131,0.693,0.131c0.19,0,0.366-0.021,0.529-0.064c0.163-0.043,0.311-0.1,0.443-0.172s0.25-0.153,0.352-0.245
		c0.102-0.091,0.185-0.187,0.25-0.287c0.05,0.021,0.098,0.066,0.142,0.134c0.045,0.068,0.067,0.148,0.067,0.242
		c0,0.111-0.04,0.23-0.118,0.357c-0.079,0.127-0.199,0.244-0.36,0.352s-0.363,0.197-0.604,0.269
		C275.216,65.739,274.933,65.774,274.607,65.774z M274.473,60.253c-0.408,0-0.722,0.166-0.943,0.497
		c-0.22,0.331-0.35,0.815-0.389,1.453h2.53c0-0.29-0.021-0.555-0.064-0.795s-0.111-0.446-0.204-0.618s-0.216-0.304-0.368-0.397
		C274.882,60.299,274.695,60.253,274.473,60.253z"/>
	<path d="M280.284,60.21c-0.211,0-0.382,0.029-0.513,0.089c-0.13,0.059-0.232,0.142-0.306,0.25
		c-0.074,0.107-0.123,0.234-0.148,0.381s-0.038,0.306-0.038,0.478c-0.304,0-0.536-0.052-0.695-0.156
		c-0.16-0.104-0.239-0.283-0.239-0.537c0-0.19,0.052-0.351,0.156-0.483s0.246-0.241,0.427-0.325
		c0.181-0.084,0.391-0.146,0.631-0.185s0.496-0.059,0.768-0.059c0.336,0,0.63,0.033,0.881,0.1c0.25,0.066,0.46,0.174,0.628,0.325
		s0.294,0.346,0.379,0.588c0.084,0.241,0.126,0.538,0.126,0.889v2.852c0,0.154,0.013,0.281,0.038,0.381s0.064,0.181,0.118,0.242
		s0.125,0.104,0.212,0.129c0.087,0.025,0.192,0.038,0.314,0.038h0.032v0.462h-1.488l-0.172-0.945h-0.091
		c-0.115,0.154-0.226,0.295-0.333,0.424s-0.226,0.24-0.354,0.333s-0.275,0.166-0.438,0.217c-0.163,0.052-0.359,0.078-0.588,0.078
		c-0.244,0-0.47-0.035-0.68-0.104c-0.209-0.07-0.39-0.178-0.542-0.322c-0.152-0.146-0.271-0.328-0.357-0.548
		c-0.086-0.221-0.129-0.481-0.129-0.782c0-0.583,0.208-1.017,0.623-1.3s1.044-0.437,1.885-0.462l0.913-0.032v-0.661
		c0-0.197-0.011-0.379-0.032-0.545c-0.021-0.167-0.068-0.31-0.14-0.43c-0.072-0.12-0.174-0.213-0.309-0.279
		C280.69,60.243,280.51,60.21,280.284,60.21z M278.952,64.072c0,0.344,0.073,0.601,0.217,0.771c0.146,0.17,0.37,0.255,0.674,0.255
		c0.222,0,0.423-0.036,0.604-0.107c0.181-0.072,0.335-0.174,0.462-0.306c0.127-0.132,0.225-0.293,0.293-0.483
		s0.102-0.401,0.102-0.634v-0.892l-0.704,0.032c-0.312,0.014-0.572,0.053-0.781,0.116c-0.21,0.063-0.379,0.15-0.508,0.263
		c-0.129,0.113-0.221,0.252-0.276,0.417C278.98,63.667,278.952,63.857,278.952,64.072z"/>
	<path d="M286.445,65.194c0.132,0,0.254-0.007,0.365-0.021s0.224-0.032,0.338-0.054v0.483c-0.046,0.021-0.107,0.043-0.183,0.064
		s-0.157,0.04-0.245,0.057c-0.087,0.016-0.18,0.028-0.276,0.037c-0.097,0.009-0.188,0.014-0.274,0.014
		c-0.279,0-0.519-0.029-0.72-0.089c-0.201-0.059-0.365-0.155-0.494-0.287s-0.225-0.308-0.288-0.526
		c-0.063-0.218-0.094-0.485-0.094-0.8v-3.674h-0.838v-0.44c0.132,0,0.278-0.027,0.438-0.081c0.16-0.054,0.3-0.143,0.422-0.269
		c0.125-0.136,0.227-0.298,0.304-0.486c0.077-0.188,0.144-0.423,0.201-0.706h0.505v1.354h1.439v0.628h-1.439v3.706
		c0,0.376,0.076,0.652,0.229,0.827C285.987,65.106,286.19,65.194,286.445,65.194z"/>
	<path d="M290.559,65.774c-0.397,0-0.755-0.067-1.071-0.201c-0.317-0.135-0.585-0.331-0.803-0.588s-0.386-0.574-0.502-0.948
		c-0.116-0.375-0.174-0.8-0.174-1.276c0-1.028,0.211-1.801,0.634-2.32s1.024-0.779,1.805-0.779c0.354,0,0.673,0.056,0.956,0.167
		s0.523,0.277,0.72,0.497c0.197,0.221,0.348,0.494,0.454,0.822c0.106,0.327,0.159,0.708,0.159,1.141v0.505h-3.663
		c0.007,0.401,0.047,0.746,0.121,1.034c0.074,0.289,0.179,0.526,0.317,0.712c0.138,0.186,0.307,0.323,0.507,0.411
		c0.201,0.087,0.432,0.131,0.693,0.131c0.19,0,0.366-0.021,0.529-0.064c0.163-0.043,0.311-0.1,0.443-0.172s0.25-0.153,0.352-0.245
		c0.102-0.091,0.185-0.187,0.25-0.287c0.05,0.021,0.098,0.066,0.142,0.134c0.045,0.068,0.067,0.148,0.067,0.242
		c0,0.111-0.04,0.23-0.118,0.357c-0.079,0.127-0.199,0.244-0.36,0.352s-0.363,0.197-0.604,0.269
		C291.168,65.739,290.885,65.774,290.559,65.774z M290.425,60.253c-0.408,0-0.722,0.166-0.943,0.497
		c-0.22,0.331-0.35,0.815-0.389,1.453h2.53c0-0.29-0.021-0.555-0.064-0.795s-0.111-0.446-0.204-0.618s-0.216-0.304-0.368-0.397
		C290.834,60.299,290.647,60.253,290.425,60.253z"/>
	<path d="M296.542,65.205c0.122,0,0.237-0.008,0.347-0.024c0.109-0.016,0.205-0.049,0.287-0.099s0.147-0.125,0.196-0.223
		c0.048-0.098,0.072-0.228,0.072-0.389v-3.486c0-0.161-0.024-0.291-0.072-0.39c-0.049-0.098-0.114-0.174-0.196-0.228
		s-0.178-0.089-0.287-0.107c-0.109-0.018-0.225-0.027-0.347-0.027h-0.032V59.77h1.966v4.646c0,0.172,0.024,0.31,0.072,0.414
		c0.049,0.104,0.113,0.184,0.193,0.239c0.081,0.055,0.177,0.092,0.288,0.11s0.228,0.027,0.349,0.027h0.145v0.462h-3.126v-0.462
		H296.542z M297.289,57.986c0-0.129,0.016-0.236,0.048-0.322s0.077-0.156,0.134-0.209s0.124-0.091,0.199-0.113
		s0.158-0.032,0.247-0.032c0.086,0,0.167,0.011,0.242,0.032s0.141,0.059,0.196,0.113c0.056,0.054,0.101,0.124,0.135,0.209
		c0.034,0.086,0.051,0.193,0.051,0.322s-0.017,0.236-0.051,0.322c-0.034,0.086-0.079,0.156-0.135,0.209
		c-0.055,0.054-0.121,0.092-0.196,0.116c-0.075,0.023-0.156,0.035-0.242,0.035c-0.089,0-0.172-0.012-0.247-0.035
		c-0.075-0.023-0.142-0.062-0.199-0.116s-0.102-0.124-0.134-0.209S297.289,58.115,297.289,57.986z"/>
	<path d="M302.929,65.205v0.462h-2.959v-0.462h0.091c0.125,0,0.243-0.009,0.352-0.027c0.109-0.018,0.204-0.055,0.284-0.11
		c0.081-0.056,0.146-0.135,0.193-0.239c0.049-0.104,0.073-0.242,0.073-0.414v-3.432c0-0.161-0.024-0.291-0.073-0.39
		c-0.048-0.098-0.113-0.174-0.196-0.228s-0.178-0.089-0.288-0.107c-0.109-0.018-0.225-0.027-0.346-0.027h-0.032V59.77h1.778
		l0.145,0.892h0.054c0.115-0.204,0.235-0.372,0.363-0.502c0.127-0.131,0.261-0.233,0.402-0.307c0.142-0.073,0.292-0.123,0.451-0.15
		c0.16-0.026,0.327-0.04,0.502-0.04c0.29,0,0.549,0.042,0.776,0.126c0.228,0.084,0.421,0.213,0.58,0.387
		c0.16,0.174,0.281,0.397,0.365,0.669c0.084,0.272,0.126,0.596,0.126,0.972v2.6c0,0.172,0.021,0.31,0.062,0.414
		c0.041,0.104,0.099,0.184,0.174,0.239c0.075,0.055,0.165,0.092,0.269,0.11s0.217,0.027,0.338,0.027h0.038v0.462h-1.917V61.87
		c0-0.24-0.021-0.453-0.064-0.639s-0.112-0.344-0.207-0.473c-0.095-0.129-0.219-0.227-0.373-0.293
		c-0.154-0.066-0.342-0.099-0.564-0.099c-0.25,0-0.461,0.048-0.631,0.145c-0.17,0.097-0.307,0.228-0.411,0.392
		s-0.178,0.354-0.223,0.569c-0.044,0.215-0.067,0.44-0.067,0.677v2.32c0,0.161,0.024,0.291,0.073,0.389
		c0.048,0.099,0.113,0.173,0.196,0.223s0.178,0.083,0.288,0.099c0.109,0.017,0.225,0.024,0.346,0.024H302.929z"/>
	<path d="M309.068,65.774c-0.276,0-0.525-0.024-0.749-0.072c-0.224-0.049-0.415-0.122-0.572-0.221
		c-0.158-0.098-0.279-0.22-0.365-0.365c-0.086-0.145-0.129-0.314-0.129-0.507c0-0.147,0.024-0.27,0.072-0.368
		c0.049-0.099,0.107-0.177,0.178-0.234c0.069-0.057,0.145-0.098,0.226-0.121c0.08-0.023,0.153-0.035,0.217-0.035
		c0,0.193,0.02,0.374,0.059,0.542s0.105,0.316,0.199,0.443c0.093,0.127,0.216,0.228,0.368,0.301c0.152,0.074,0.339,0.11,0.562,0.11
		c0.197,0,0.371-0.024,0.521-0.072c0.15-0.049,0.277-0.117,0.378-0.204c0.103-0.088,0.18-0.193,0.234-0.317
		c0.054-0.123,0.081-0.258,0.081-0.405c0-0.136-0.021-0.253-0.062-0.352c-0.042-0.099-0.113-0.191-0.215-0.277
		c-0.103-0.086-0.241-0.174-0.417-0.263s-0.396-0.191-0.661-0.306c-0.283-0.125-0.529-0.246-0.738-0.363
		c-0.21-0.116-0.382-0.242-0.519-0.378s-0.238-0.291-0.306-0.464c-0.068-0.174-0.102-0.381-0.102-0.621
		c0-0.25,0.049-0.473,0.147-0.666c0.099-0.193,0.239-0.355,0.422-0.486c0.183-0.131,0.401-0.23,0.655-0.298s0.537-0.102,0.849-0.102
		c0.261,0,0.492,0.027,0.693,0.081s0.369,0.126,0.505,0.217c0.136,0.092,0.238,0.199,0.306,0.322
		c0.068,0.124,0.102,0.253,0.102,0.39c0,0.201-0.069,0.361-0.207,0.48c-0.138,0.12-0.334,0.18-0.588,0.18
		c0-0.369-0.076-0.655-0.228-0.859c-0.152-0.204-0.392-0.306-0.717-0.306c-0.186,0-0.346,0.021-0.478,0.064
		s-0.241,0.104-0.325,0.183c-0.084,0.079-0.146,0.172-0.185,0.279s-0.059,0.226-0.059,0.354c0,0.14,0.025,0.261,0.075,0.362
		c0.05,0.103,0.13,0.196,0.239,0.282c0.109,0.086,0.25,0.169,0.424,0.25c0.174,0.08,0.382,0.171,0.626,0.271
		c0.29,0.122,0.539,0.242,0.747,0.36s0.378,0.247,0.513,0.387c0.134,0.14,0.233,0.297,0.298,0.473s0.097,0.378,0.097,0.607
		c0,0.287-0.052,0.537-0.156,0.752s-0.25,0.395-0.44,0.54c-0.19,0.146-0.418,0.253-0.685,0.325
		C309.69,65.739,309.394,65.774,309.068,65.774z"/>
	<path d="M314.638,65.194c0.132,0,0.254-0.007,0.365-0.021s0.224-0.032,0.338-0.054v0.483c-0.046,0.021-0.107,0.043-0.183,0.064
		s-0.157,0.04-0.244,0.057c-0.088,0.016-0.18,0.028-0.277,0.037c-0.097,0.009-0.188,0.014-0.274,0.014
		c-0.279,0-0.519-0.029-0.72-0.089c-0.201-0.059-0.365-0.155-0.494-0.287s-0.225-0.308-0.287-0.526
		c-0.063-0.218-0.094-0.485-0.094-0.8v-3.674h-0.838v-0.44c0.132,0,0.278-0.027,0.438-0.081c0.159-0.054,0.3-0.143,0.421-0.269
		c0.125-0.136,0.227-0.298,0.303-0.486c0.077-0.188,0.145-0.423,0.202-0.706h0.505v1.354h1.439v0.628H313.8v3.706
		c0,0.376,0.076,0.652,0.228,0.827C314.18,65.106,314.383,65.194,314.638,65.194z"/>
	<path d="M318.542,60.21c-0.211,0-0.382,0.029-0.513,0.089c-0.131,0.059-0.233,0.142-0.307,0.25
		c-0.073,0.107-0.123,0.234-0.147,0.381s-0.038,0.306-0.038,0.478c-0.304,0-0.536-0.052-0.696-0.156
		c-0.159-0.104-0.239-0.283-0.239-0.537c0-0.19,0.052-0.351,0.156-0.483s0.246-0.241,0.427-0.325
		c0.181-0.084,0.392-0.146,0.631-0.185s0.496-0.059,0.768-0.059c0.336,0,0.63,0.033,0.881,0.1c0.25,0.066,0.46,0.174,0.628,0.325
		s0.294,0.346,0.378,0.588c0.084,0.241,0.126,0.538,0.126,0.889v2.852c0,0.154,0.013,0.281,0.038,0.381s0.064,0.181,0.118,0.242
		s0.125,0.104,0.212,0.129c0.088,0.025,0.193,0.038,0.314,0.038h0.032v0.462h-1.488l-0.172-0.945h-0.091
		c-0.115,0.154-0.226,0.295-0.333,0.424s-0.226,0.24-0.354,0.333s-0.275,0.166-0.438,0.217c-0.163,0.052-0.359,0.078-0.588,0.078
		c-0.244,0-0.47-0.035-0.679-0.104c-0.21-0.07-0.391-0.178-0.543-0.322c-0.152-0.146-0.271-0.328-0.357-0.548
		c-0.086-0.221-0.129-0.481-0.129-0.782c0-0.583,0.208-1.017,0.623-1.3s1.044-0.437,1.885-0.462l0.913-0.032v-0.661
		c0-0.197-0.011-0.379-0.032-0.545c-0.021-0.167-0.068-0.31-0.14-0.43c-0.072-0.12-0.175-0.213-0.309-0.279
		C318.948,60.243,318.768,60.21,318.542,60.21z M317.21,64.072c0,0.344,0.072,0.601,0.218,0.771c0.145,0.17,0.37,0.255,0.674,0.255
		c0.222,0,0.423-0.036,0.604-0.107c0.181-0.072,0.334-0.174,0.462-0.306c0.127-0.132,0.225-0.293,0.292-0.483
		s0.102-0.401,0.102-0.634v-0.892l-0.704,0.032c-0.312,0.014-0.572,0.053-0.782,0.116c-0.209,0.063-0.378,0.15-0.507,0.263
		c-0.129,0.113-0.221,0.252-0.277,0.417C317.238,63.667,317.21,63.857,317.21,64.072z"/>
	<path d="M325.052,65.205v0.462h-2.959v-0.462h0.091c0.125,0,0.243-0.009,0.352-0.027c0.109-0.018,0.204-0.055,0.285-0.11
		c0.08-0.056,0.145-0.135,0.193-0.239c0.048-0.104,0.072-0.242,0.072-0.414v-3.432c0-0.161-0.024-0.291-0.072-0.39
		c-0.049-0.098-0.114-0.174-0.196-0.228s-0.178-0.089-0.287-0.107c-0.109-0.018-0.225-0.027-0.347-0.027h-0.032V59.77h1.778
		l0.145,0.892h0.054c0.115-0.204,0.235-0.372,0.362-0.502c0.127-0.131,0.262-0.233,0.403-0.307c0.141-0.073,0.292-0.123,0.451-0.15
		c0.159-0.026,0.327-0.04,0.502-0.04c0.29,0,0.549,0.042,0.776,0.126c0.227,0.084,0.42,0.213,0.58,0.387
		c0.159,0.174,0.281,0.397,0.365,0.669c0.084,0.272,0.126,0.596,0.126,0.972v2.6c0,0.172,0.021,0.31,0.062,0.414
		c0.042,0.104,0.1,0.184,0.175,0.239c0.075,0.055,0.165,0.092,0.269,0.11s0.217,0.027,0.338,0.027h0.038v0.462h-1.917V61.87
		c0-0.24-0.021-0.453-0.064-0.639s-0.112-0.344-0.207-0.473c-0.095-0.129-0.22-0.227-0.374-0.293
		c-0.154-0.066-0.342-0.099-0.564-0.099c-0.25,0-0.461,0.048-0.631,0.145c-0.17,0.097-0.307,0.228-0.411,0.392
		s-0.178,0.354-0.223,0.569c-0.045,0.215-0.067,0.44-0.067,0.677v2.32c0,0.161,0.024,0.291,0.072,0.389
		c0.049,0.099,0.114,0.173,0.196,0.223s0.178,0.083,0.287,0.099c0.109,0.017,0.225,0.024,0.347,0.024H325.052z"/>
	<path d="M331.997,65.774c-0.365,0-0.702-0.057-1.01-0.169c-0.308-0.113-0.573-0.291-0.795-0.535s-0.395-0.556-0.518-0.937
		c-0.124-0.382-0.186-0.843-0.186-1.383c0-0.587,0.062-1.079,0.186-1.474c0.123-0.396,0.295-0.714,0.516-0.954
		c0.22-0.24,0.479-0.41,0.778-0.51c0.299-0.1,0.623-0.15,0.97-0.15c0.229,0,0.458,0.022,0.685,0.067
		c0.228,0.044,0.433,0.113,0.615,0.207s0.331,0.21,0.446,0.352c0.115,0.141,0.172,0.307,0.172,0.497
		c0,0.254-0.083,0.433-0.247,0.537s-0.41,0.156-0.736,0.156c0-0.172-0.014-0.335-0.043-0.489s-0.078-0.289-0.147-0.406
		c-0.07-0.116-0.165-0.208-0.285-0.273c-0.12-0.066-0.273-0.1-0.459-0.1c-0.211,0-0.402,0.04-0.572,0.118
		c-0.17,0.079-0.316,0.215-0.438,0.408s-0.215,0.453-0.279,0.779s-0.097,0.734-0.097,1.225c0,0.781,0.13,1.362,0.39,1.746
		c0.259,0.383,0.685,0.575,1.275,0.575c0.34,0,0.637-0.072,0.892-0.215s0.444-0.328,0.569-0.553c0.054,0.043,0.099,0.1,0.134,0.172
		s0.054,0.158,0.054,0.258c0,0.125-0.04,0.25-0.118,0.376s-0.196,0.238-0.352,0.338c-0.155,0.1-0.35,0.182-0.583,0.245
		C332.581,65.743,332.309,65.774,331.997,65.774z"/>
	<path d="M337.454,65.774c-0.397,0-0.754-0.067-1.072-0.201c-0.316-0.135-0.584-0.331-0.803-0.588s-0.386-0.574-0.502-0.948
		c-0.117-0.375-0.175-0.8-0.175-1.276c0-1.028,0.211-1.801,0.634-2.32s1.024-0.779,1.805-0.779c0.354,0,0.673,0.056,0.956,0.167
		s0.523,0.277,0.72,0.497c0.197,0.221,0.348,0.494,0.454,0.822c0.105,0.327,0.158,0.708,0.158,1.141v0.505h-3.663
		c0.007,0.401,0.047,0.746,0.121,1.034c0.073,0.289,0.179,0.526,0.316,0.712c0.138,0.186,0.307,0.323,0.508,0.411
		c0.201,0.087,0.432,0.131,0.693,0.131c0.19,0,0.366-0.021,0.529-0.064c0.163-0.043,0.311-0.1,0.443-0.172s0.25-0.153,0.352-0.245
		c0.103-0.091,0.186-0.187,0.25-0.287c0.05,0.021,0.098,0.066,0.143,0.134c0.044,0.068,0.067,0.148,0.067,0.242
		c0,0.111-0.04,0.23-0.118,0.357c-0.079,0.127-0.199,0.244-0.36,0.352s-0.362,0.197-0.604,0.269
		C338.064,65.739,337.78,65.774,337.454,65.774z M337.32,60.253c-0.408,0-0.723,0.166-0.942,0.497
		c-0.221,0.331-0.35,0.815-0.39,1.453h2.53c0-0.29-0.021-0.555-0.064-0.795s-0.111-0.446-0.204-0.618s-0.216-0.304-0.368-0.397
		C337.729,60.299,337.542,60.253,337.32,60.253z"/>
	<path d="M342.492,65.774c-0.276,0-0.525-0.024-0.75-0.072c-0.224-0.049-0.414-0.122-0.572-0.221
		c-0.158-0.098-0.279-0.22-0.365-0.365c-0.086-0.145-0.129-0.314-0.129-0.507c0-0.147,0.024-0.27,0.073-0.368
		c0.048-0.099,0.107-0.177,0.177-0.234c0.07-0.057,0.146-0.098,0.226-0.121c0.081-0.023,0.153-0.035,0.218-0.035
		c0,0.193,0.02,0.374,0.059,0.542s0.105,0.316,0.199,0.443c0.093,0.127,0.216,0.228,0.368,0.301c0.152,0.074,0.339,0.11,0.561,0.11
		c0.197,0,0.371-0.024,0.521-0.072c0.15-0.049,0.276-0.117,0.379-0.204c0.102-0.088,0.18-0.193,0.233-0.317
		c0.054-0.123,0.081-0.258,0.081-0.405c0-0.136-0.021-0.253-0.062-0.352c-0.041-0.099-0.112-0.191-0.215-0.277
		c-0.102-0.086-0.241-0.174-0.416-0.263s-0.396-0.191-0.661-0.306c-0.283-0.125-0.529-0.246-0.739-0.363
		c-0.209-0.116-0.382-0.242-0.518-0.378s-0.238-0.291-0.306-0.464c-0.068-0.174-0.102-0.381-0.102-0.621
		c0-0.25,0.049-0.473,0.148-0.666c0.098-0.193,0.239-0.355,0.421-0.486c0.183-0.131,0.401-0.23,0.655-0.298s0.537-0.102,0.849-0.102
		c0.261,0,0.492,0.027,0.693,0.081s0.369,0.126,0.505,0.217c0.136,0.092,0.238,0.199,0.306,0.322
		c0.068,0.124,0.102,0.253,0.102,0.39c0,0.201-0.069,0.361-0.207,0.48c-0.138,0.12-0.333,0.18-0.588,0.18
		c0-0.369-0.076-0.655-0.229-0.859c-0.152-0.204-0.391-0.306-0.717-0.306c-0.186,0-0.346,0.021-0.478,0.064
		s-0.241,0.104-0.325,0.183c-0.084,0.079-0.146,0.172-0.186,0.279s-0.059,0.226-0.059,0.354c0,0.14,0.025,0.261,0.075,0.362
		c0.05,0.103,0.13,0.196,0.239,0.282c0.109,0.086,0.251,0.169,0.425,0.25c0.173,0.08,0.382,0.171,0.625,0.271
		c0.29,0.122,0.539,0.242,0.747,0.36s0.379,0.247,0.513,0.387c0.135,0.14,0.234,0.297,0.298,0.473s0.097,0.378,0.097,0.607
		c0,0.287-0.052,0.537-0.156,0.752s-0.25,0.395-0.44,0.54c-0.19,0.146-0.418,0.253-0.685,0.325
		C343.114,65.739,342.818,65.774,342.492,65.774z"/>
</g>
<g>
	<path d="M22.812,172.769h-0.07c0.047,0.504,0.07,0.82,0.07,0.949v2.748h-1.066v-9.316h0.861l0.158,0.867h0.047
		c0.43-0.656,1.059-0.984,1.887-0.984c0.785,0,1.401,0.292,1.849,0.876s0.671,1.399,0.671,2.446c0,1.055-0.225,1.876-0.674,2.464
		s-1.064,0.882-1.846,0.882C23.89,173.701,23.261,173.39,22.812,172.769z M22.812,170.115v0.24c0,0.887,0.136,1.519,0.407,1.896
		s0.704,0.565,1.298,0.565c1.063,0,1.594-0.824,1.594-2.473c0-1.617-0.535-2.426-1.605-2.426c-0.594,0-1.021,0.172-1.28,0.516
		S22.828,169.337,22.812,170.115z"/>
	<path d="M31.595,173.701c-0.844,0-1.538-0.304-2.083-0.911s-0.817-1.419-0.817-2.435c0-1.027,0.265-1.838,0.794-2.432
		s1.243-0.891,2.142-0.891c0.852,0,1.549,0.303,2.092,0.908s0.814,1.41,0.814,2.414c0,1.035-0.268,1.852-0.803,2.449
		S32.486,173.701,31.595,173.701z M31.619,172.816c1.211,0,1.816-0.82,1.816-2.461c0-1.625-0.609-2.438-1.828-2.438
		c-1.207,0-1.811,0.813-1.811,2.438C29.796,171.996,30.404,172.816,31.619,172.816z"/>
	<path d="M37.214,172.769h-0.07c0.047,0.504,0.07,0.82,0.07,0.949v2.748h-1.066v-9.316h0.861l0.158,0.867h0.047
		c0.43-0.656,1.059-0.984,1.887-0.984c0.785,0,1.401,0.292,1.849,0.876s0.671,1.399,0.671,2.446c0,1.055-0.225,1.876-0.674,2.464
		s-1.064,0.882-1.846,0.882C38.292,173.701,37.664,173.39,37.214,172.769z M37.214,170.115v0.24c0,0.887,0.136,1.519,0.407,1.896
		s0.704,0.565,1.298,0.565c1.063,0,1.594-0.824,1.594-2.473c0-1.617-0.535-2.426-1.605-2.426c-0.594,0-1.021,0.172-1.28,0.516
		S37.23,169.337,37.214,170.115z"/>
	<path d="M47.826,173.583l-0.158-0.861h-0.059c-0.41,0.652-1.063,0.979-1.957,0.979c-1.527,0-2.291-0.783-2.291-2.35v-4.201h1.066
		v4.143c0,1.016,0.461,1.523,1.383,1.523c0.629,0,1.088-0.181,1.377-0.542s0.434-0.956,0.434-1.784v-3.34h1.066v6.434H47.826z"/>
	<path d="M52.742,165.304l-1.57-0.123v-0.715h2.643v8.279l2.063,0.117v0.721h-5.15v-0.721l2.016-0.117V165.304z"/>
	<path d="M62.07,173.583l-0.217-0.891h-0.047c-0.301,0.379-0.609,0.642-0.926,0.788s-0.725,0.22-1.225,0.22
		c-0.637,0-1.136-0.168-1.497-0.504s-0.542-0.807-0.542-1.412c0-1.297,0.996-1.977,2.988-2.039l1.189-0.041V169.3
		c0-0.922-0.477-1.383-1.43-1.383c-0.574,0-1.215,0.16-1.922,0.48l-0.369-0.803c0.766-0.375,1.514-0.563,2.244-0.563
		c0.887,0,1.528,0.17,1.925,0.51s0.595,0.885,0.595,1.635v4.406H62.07z M61.783,170.437l-0.949,0.041
		c-0.766,0.031-1.309,0.151-1.629,0.36s-0.48,0.528-0.48,0.958c0,0.695,0.391,1.043,1.172,1.043c0.574,0,1.032-0.159,1.374-0.478
		s0.513-0.767,0.513-1.345V170.437z"/>
	<path d="M70.003,172.705v0.809c-0.508,0.125-1,0.188-1.477,0.188c-1.414,0-2.121-0.672-2.121-2.016v-3.732h-1.564v-0.551
		l1.564-0.287l0.451-1.682h0.615v1.717h2.566v0.803h-2.566v3.732c0,0.762,0.375,1.143,1.125,1.143
		C68.96,172.828,69.429,172.787,70.003,172.705z"/>
	<path d="M74.398,167.994l-1.576-0.123v-0.721h2.643v5.596l2.063,0.117v0.721h-5.145v-0.721l2.016-0.117V167.994z M74.937,164.501
		c0.414,0,0.621,0.223,0.621,0.668c0,0.227-0.062,0.396-0.185,0.507s-0.269,0.167-0.437,0.167c-0.418,0-0.627-0.225-0.627-0.674
		C74.31,164.724,74.519,164.501,74.937,164.501z"/>
	<path d="M82.003,173.701c-0.844,0-1.538-0.304-2.083-0.911s-0.817-1.419-0.817-2.435c0-1.027,0.265-1.838,0.794-2.432
		s1.243-0.891,2.142-0.891c0.852,0,1.549,0.303,2.092,0.908s0.814,1.41,0.814,2.414c0,1.035-0.268,1.852-0.803,2.449
		S82.894,173.701,82.003,173.701z M82.027,172.816c1.211,0,1.816-0.82,1.816-2.461c0-1.625-0.609-2.438-1.828-2.438
		c-1.207,0-1.811,0.813-1.811,2.438C80.205,171.996,80.812,172.816,82.027,172.816z"/>
	<path d="M90.828,173.583v-4.143c0-1.016-0.465-1.523-1.395-1.523c-1.199,0-1.799,0.777-1.799,2.332v3.334h-1.066v-6.434h0.861
		l0.158,0.867h0.059c0.402-0.656,1.059-0.984,1.969-0.984c1.52,0,2.279,0.783,2.279,2.35v4.201H90.828z"/>
</g>
<rect x="102.832" y="162" style="fill:#D8ECD1;stroke:#000000;" width="80" height="16.5"/>
<g>
	<path d="M108.61,174.071l3.299-7.594h-4.418v-0.973h5.508v0.85l-3.252,7.717H108.61z"/>
	<path d="M115.811,174.071l3.299-7.594h-4.418v-0.973h5.508v0.85l-3.252,7.717H115.811z"/>
	<path d="M125.497,174.071h-1.031v-5.35c0-0.477,0.016-1.182,0.047-2.115c-0.152,0.168-0.389,0.389-0.709,0.662l-0.861,0.709
		l-0.568-0.721l2.244-1.752h0.879V174.071z"/>
	<path d="M134.854,172.149h-1.248v1.922h-1.031v-1.922h-3.961v-0.932l3.891-5.76h1.102v5.719h1.248V172.149z M132.575,171.177
		v-2.086c0-0.688,0.025-1.531,0.076-2.531h-0.053c-0.141,0.398-0.316,0.75-0.527,1.055l-2.408,3.563H132.575z"/>
	<path d="M136.465,173.726v-1.008c0.563,0.375,1.266,0.563,2.109,0.563c1.313,0,1.969-0.613,1.969-1.84
		c0-1.148-0.672-1.723-2.016-1.723c-0.348,0-0.799,0.051-1.354,0.152l-0.527-0.334l0.322-4.031h4.043v0.973h-3.117l-0.229,2.455
		c0.418-0.078,0.826-0.117,1.225-0.117c0.82,0,1.483,0.224,1.989,0.671s0.759,1.06,0.759,1.837c0,0.914-0.27,1.62-0.809,2.118
		s-1.299,0.747-2.279,0.747C137.676,174.188,136.981,174.034,136.465,173.726z"/>
	<path d="M144.616,174.071l3.299-7.594h-4.418v-0.973h5.508v0.85l-3.252,7.717H144.616z"/>
	<path d="M155.514,165.493v0.908c-0.277-0.094-0.602-0.141-0.973-0.141c-0.875,0-1.532,0.275-1.972,0.826s-0.679,1.424-0.718,2.619
		h0.07c0.371-0.664,0.971-0.996,1.799-0.996c0.762,0,1.358,0.232,1.79,0.697s0.647,1.1,0.647,1.904c0,0.891-0.235,1.593-0.706,2.106
		s-1.103,0.771-1.896,0.771c-0.852,0-1.53-0.329-2.036-0.987s-0.759-1.589-0.759-2.792c0-3.352,1.248-5.027,3.744-5.027
		C154.913,165.382,155.249,165.419,155.514,165.493z M155.127,171.312c0-0.566-0.134-1.002-0.401-1.307s-0.649-0.457-1.146-0.457
		s-0.912,0.158-1.248,0.475s-0.504,0.678-0.504,1.084c0,0.594,0.158,1.106,0.475,1.538s0.73,0.647,1.242,0.647
		c0.496,0,0.884-0.172,1.163-0.516S155.127,171.944,155.127,171.312z"/>
	<path d="M158.608,174.083v-0.914c0.262,0.098,0.586,0.146,0.973,0.146c0.875,0,1.532-0.275,1.972-0.826s0.679-1.424,0.718-2.619
		h-0.07c-0.375,0.664-0.977,0.996-1.805,0.996c-0.758,0-1.353-0.23-1.784-0.691s-0.647-1.098-0.647-1.91
		c0-0.891,0.235-1.594,0.706-2.109s1.103-0.773,1.896-0.773c0.859,0,1.54,0.334,2.042,1.002s0.753,1.594,0.753,2.777
		c0,3.352-1.248,5.027-3.744,5.027C159.206,174.188,158.87,174.153,158.608,174.083z M158.995,168.265
		c0,0.566,0.134,1.002,0.401,1.307s0.649,0.457,1.146,0.457s0.912-0.159,1.248-0.478s0.504-0.679,0.504-1.081
		c0-0.59-0.156-1.102-0.469-1.535s-0.729-0.65-1.248-0.65c-0.5,0-0.889,0.17-1.166,0.51S158.995,167.624,158.995,168.265z"/>
	<path d="M170.526,174.071h-5.338v-0.914l2.051-2.232c0.762-0.832,1.264-1.452,1.506-1.86s0.363-0.858,0.363-1.351
		c0-0.441-0.124-0.79-0.372-1.046s-0.583-0.384-1.005-0.384c-0.625,0-1.246,0.268-1.863,0.803l-0.598-0.697
		c0.75-0.672,1.574-1.008,2.473-1.008c0.758,0,1.355,0.207,1.793,0.621s0.656,0.971,0.656,1.67c0,0.465-0.115,0.941-0.346,1.43
		s-0.799,1.221-1.705,2.197l-1.646,1.752v0.047h4.031V174.071z"/>
	<path d="M175.53,169.56v0.035c1.41,0.184,2.115,0.863,2.115,2.039c0,0.793-0.27,1.417-0.809,1.872s-1.318,0.683-2.338,0.683
		c-0.945,0-1.701-0.154-2.268-0.463v-0.996c0.719,0.375,1.467,0.563,2.244,0.563c1.383,0,2.074-0.564,2.074-1.693
		c0-1.008-0.744-1.512-2.232-1.512h-0.779v-0.885h0.779c0.625,0,1.109-0.148,1.453-0.445s0.516-0.689,0.516-1.178
		c0-0.398-0.133-0.714-0.398-0.946s-0.621-0.349-1.066-0.349c-0.695,0-1.367,0.236-2.016,0.709l-0.539-0.732
		c0.73-0.586,1.582-0.879,2.555-0.879c0.805,0,1.433,0.193,1.884,0.58s0.677,0.902,0.677,1.547c0,0.539-0.16,0.99-0.48,1.354
		S176.124,169.458,175.53,169.56z"/>
</g>
<linearGradient id="SVGID_1_" gradientUnits="userSpaceOnUse" x1="169.2588" y1="86.75" x2="369.165" y2="86.75">
	<stop  offset="0" style="stop-color:#00AEEF;stop-opacity:0"/>
	<stop  offset="1" style="stop-color:#00AEEF"/>
</linearGradient>
<polygon style="fill:url(#SVGID_1_);" points="369.165,86.75 338.853,69.25 338.853,80.917 169.259,80.917 169.259,92.583 
	338.853,92.583 338.853,104.25 "/>
<linearGradient id="SVGID_2_" gradientUnits="userSpaceOnUse" x1="170.5137" y1="141.75" x2="363.7501" y2="141.75">
	<stop  offset="0" style="stop-color:#00AEEF;stop-opacity:0"/>
	<stop  offset="1" style="stop-color:#00AEEF"/>
</linearGradient>
<polygon style="fill:url(#SVGID_2_);" points="369.165,141.75 338.853,124.25 338.853,135.917 169.259,135.917 169.259,147.583 
	338.853,147.583 338.853,159.25 "/>
<g>
	<path d="M319.679,108.497c1.839-1.839,2.373-4.485,1.613-6.798l-4.206,4.206l-4.243-4.243l4.206-4.206
		c-2.314-0.76-4.959-0.227-6.799,1.613c-1.839,1.839-2.373,4.485-1.613,6.798l-4.28,4.28l4.243,4.243l4.28-4.28
		C315.193,110.87,317.839,110.336,319.679,108.497z"/>
	<path d="M295.637,132.539c-1.839,1.839-4.485,2.373-6.798,1.612l4.206-4.206l-4.243-4.243l-4.206,4.206
		c-0.76-2.314-0.227-4.959,1.613-6.799c1.839-1.839,4.485-2.373,6.798-1.613l4.28-4.28l4.243,4.243l-4.28,4.28
		C298.01,128.053,297.476,130.699,295.637,132.539z"/>
	<rect x="286.772" y="115.632" transform="matrix(0.7071 0.7071 -0.7071 0.7071 173.4437 -181.4669)" width="38" height="6"/>
	<path d="M294.458,93.883c2.122-2.121,8.368,4.125,8.368,4.125s-3.86-1.562-4.832-0.589s-11.373,11.373-11.373,11.373l-3.536-3.535
		C283.085,105.256,292.337,96.004,294.458,93.883z"/>
	<rect x="278.784" y="106.322" transform="matrix(0.7071 0.7071 -0.7071 0.7071 159.8212 -168.386)" width="8.75" height="4.792"/>
	<rect x="285.826" y="96.186" transform="matrix(0.7071 0.7071 -0.7071 0.7071 153.9984 -173.4124)" width="1" height="6"/>
</g>
</svg>
