<?xml version="1.0" encoding="iso-8859-1"?>
<!-- Generator: Adobe Illustrator 14.0.0, SVG Export Plug-In . SVG Version: 6.00 Build 43363)  -->
<!DOCTYPE svg PUBLIC "-//W3C//DTD SVG 1.1//EN" "http://www.w3.org/Graphics/SVG/1.1/DTD/svg11.dtd">
<svg version="1.1" id="Layer_1" xmlns="http://www.w3.org/2000/svg" xmlns:xlink="http://www.w3.org/1999/xlink" x="0px" y="0px"
	 width="693px" height="285px" viewBox="0 0 693 285" enable-background="new 0 0 693 285" xml:space="preserve">
<rect x="409.879" y="145.355" fill="#CEECC3" width="26.25" height="26.245"/>
<rect x="409.879" y="145.355" fill="none" stroke="#1B181A" stroke-width="2" width="26.25" height="26.245"/>
<rect x="436.129" y="145.355" fill="#CEECC3" width="26.25" height="26.245"/>
<rect x="436.129" y="145.355" fill="none" stroke="#1B181A" stroke-width="2" width="26.25" height="26.245"/>
<rect x="462.004" y="145.355" fill="#CEECC3" width="26.25" height="26.245"/>
<rect x="462.004" y="145.355" fill="none" stroke="#1B181A" stroke-width="2" width="26.25" height="26.245"/>
<rect x="488.254" y="145.355" fill="#CEECC3" width="26.25" height="26.245"/>
<rect x="488.254" y="145.355" fill="none" stroke="#1B181A" stroke-width="2" width="26.25" height="26.245"/>
<rect x="514.504" y="145.355" fill="#CEECC3" width="26.25" height="26.245"/>
<rect x="514.504" y="145.355" fill="none" stroke="#1B181A" stroke-width="2" width="26.25" height="26.245"/>
<rect x="540.754" y="145.355" fill="#CEECC3" width="26.25" height="26.245"/>
<rect x="540.754" y="145.355" fill="none" stroke="#1B181A" stroke-width="2" width="26.25" height="26.245"/>
<rect x="567.004" y="145.355" fill="#CEECC3" width="26.25" height="26.245"/>
<rect x="567.004" y="145.355" fill="none" stroke="#1B181A" stroke-width="2" width="26.25" height="26.245"/>
<rect x="593.254" y="145.355" fill="#CEECC3" width="26.25" height="26.245"/>
<rect x="593.254" y="145.355" fill="none" stroke="#1B181A" stroke-width="2" width="26.25" height="26.245"/>
<rect x="619.504" y="145.355" fill="#CEECC3" width="26.25" height="26.245"/>
<rect x="619.504" y="145.355" fill="none" stroke="#1B181A" stroke-width="2" width="26.25" height="26.245"/>
<rect x="645.754" y="145.355" fill="#CEECC3" width="26.25" height="26.245"/>
<rect x="645.754" y="145.355" fill="none" stroke="#1B181A" stroke-width="2" width="26.25" height="26.245"/>
<rect x="147.754" y="35.355" fill="#CEECC3" width="26.25" height="26.246"/>
<rect x="147.754" y="35.355" fill="none" stroke="#1B181A" stroke-width="2" width="26.25" height="26.246"/>
<rect x="174.004" y="35.355" fill="#CEECC3" width="26.25" height="26.246"/>
<rect x="174.004" y="35.355" fill="none" stroke="#1B181A" stroke-width="2" width="26.25" height="26.246"/>
<rect x="199.879" y="35.355" fill="#CEECC3" width="26.25" height="26.246"/>
<rect x="199.879" y="35.355" fill="none" stroke="#1B181A" stroke-width="2" width="26.25" height="26.246"/>
<rect x="226.129" y="35.355" fill="#CEECC3" width="26.25" height="26.246"/>
<rect x="226.129" y="35.355" fill="none" stroke="#1B181A" stroke-width="2" width="26.25" height="26.246"/>
<rect x="252.379" y="35.355" fill="#CEECC3" width="26.25" height="26.246"/>
<rect x="252.379" y="35.355" fill="none" stroke="#1B181A" stroke-width="2" width="26.25" height="26.246"/>
<rect x="278.629" y="35.355" fill="#CEECC3" width="26.25" height="26.246"/>
<rect x="278.629" y="35.355" fill="none" stroke="#1B181A" stroke-width="2" width="26.25" height="26.246"/>
<rect x="304.879" y="35.355" fill="#CEECC3" width="26.25" height="26.246"/>
<rect x="304.879" y="35.355" fill="none" stroke="#1B181A" stroke-width="2" width="26.25" height="26.246"/>
<rect x="331.129" y="35.355" fill="#CEECC3" width="26.25" height="26.246"/>
<rect x="331.129" y="35.355" fill="none" stroke="#1B181A" stroke-width="2" width="26.25" height="26.246"/>
<rect x="357.379" y="35.355" fill="#CEECC3" width="26.25" height="26.246"/>
<rect x="357.379" y="35.355" fill="none" stroke="#1B181A" stroke-width="2" width="26.25" height="26.246"/>
<rect x="383.629" y="35.355" fill="#CEECC3" width="26.25" height="26.246"/>
<rect x="383.629" y="35.355" fill="none" stroke="#1B181A" stroke-width="2" width="26.25" height="26.246"/>
<g>
	<path fill="#1B181A" d="M159.833,54.382c-1.193,0-2.097-0.504-2.711-1.512c-0.615-1.008-0.922-2.465-0.922-4.371
		c0-3.917,1.211-5.875,3.633-5.875c1.208,0,2.121,0.504,2.738,1.512s0.926,2.462,0.926,4.363
		C163.497,52.421,162.275,54.382,159.833,54.382z M159.833,53.171c0.766,0,1.328-0.366,1.688-1.098s0.539-1.923,0.539-3.574
		c0-1.641-0.18-2.827-0.539-3.559s-0.922-1.098-1.688-1.098c-0.755,0-1.309,0.363-1.66,1.09s-0.527,1.915-0.527,3.566
		c0,1.656,0.176,2.849,0.527,3.578S159.078,53.171,159.833,53.171z"/>
	<path fill="#1B181A" d="M187.345,54.226h-1.375v-7.133c0-0.636,0.021-1.575,0.063-2.82c-0.203,0.224-0.519,0.519-0.945,0.883
		l-1.148,0.945l-0.758-0.961l2.992-2.336h1.172V54.226z"/>
	<path fill="#1B181A" d="M216.146,54.226h-7.117v-1.219l2.734-2.977c1.016-1.109,1.685-1.937,2.008-2.48
		c0.323-0.544,0.484-1.145,0.484-1.801c0-0.589-0.166-1.054-0.496-1.395c-0.331-0.341-0.777-0.512-1.34-0.512
		c-0.833,0-1.662,0.356-2.484,1.07l-0.797-0.93c1-0.896,2.099-1.344,3.297-1.344c1.01,0,1.807,0.276,2.391,0.828
		c0.583,0.552,0.875,1.294,0.875,2.227c0,0.62-0.154,1.255-0.461,1.906c-0.308,0.651-1.065,1.628-2.273,2.93l-2.195,2.336v0.063
		h5.375V54.226z"/>
	<path fill="#1B181A" d="M239.587,48.21v0.047c1.88,0.245,2.82,1.151,2.82,2.719c0,1.058-0.359,1.89-1.078,2.496
		s-1.758,0.91-3.117,0.91c-1.261,0-2.269-0.206-3.023-0.617v-1.328c0.958,0.5,1.956,0.75,2.992,0.75
		c1.844,0,2.766-0.753,2.766-2.258c0-1.344-0.992-2.016-2.977-2.016h-1.039v-1.18h1.039c0.833,0,1.479-0.198,1.938-0.594
		c0.458-0.396,0.688-0.919,0.688-1.57c0-0.531-0.177-0.952-0.531-1.262c-0.354-0.31-0.828-0.465-1.422-0.465
		c-0.927,0-1.823,0.315-2.688,0.945l-0.719-0.977c0.974-0.781,2.109-1.172,3.406-1.172c1.073,0,1.91,0.258,2.512,0.773
		s0.902,1.203,0.902,2.063c0,0.719-0.214,1.32-0.641,1.805C240.988,47.765,240.378,48.074,239.587,48.21z"/>
	<path fill="#1B181A" d="M261.658,54.226h-1.375v-7.133c0-0.636,0.021-1.575,0.063-2.82c-0.203,0.224-0.519,0.519-0.945,0.883
		l-1.148,0.945l-0.758-0.961l2.992-2.336h1.172V54.226z"/>
	<path fill="#1B181A" d="M267.947,54.226l4.398-10.125h-5.891v-1.297h7.344v1.133l-4.336,10.289H267.947z"/>
	<path fill="#1B181A" d="M287.469,53.765v-1.344c0.75,0.5,1.688,0.75,2.813,0.75c1.75,0,2.625-0.817,2.625-2.453
		c0-1.531-0.896-2.297-2.688-2.297c-0.464,0-1.065,0.067-1.805,0.203l-0.703-0.445l0.43-5.375h5.391v1.297h-4.156l-0.305,3.273
		c0.557-0.104,1.102-0.156,1.633-0.156c1.094,0,1.978,0.298,2.652,0.895c0.674,0.597,1.012,1.413,1.012,2.449
		c0,1.219-0.359,2.16-1.078,2.824s-1.732,0.996-3.039,0.996C289.083,54.382,288.156,54.176,287.469,53.765z"/>
	<path fill="#1B181A" d="M320.035,42.788v1.211c-0.37-0.125-0.802-0.188-1.297-0.188c-1.167,0-2.043,0.367-2.629,1.102
		s-0.905,1.898-0.957,3.492h0.094c0.495-0.886,1.294-1.328,2.398-1.328c1.016,0,1.811,0.31,2.387,0.93
		c0.575,0.62,0.863,1.466,0.863,2.539c0,1.188-0.314,2.124-0.941,2.809c-0.628,0.685-1.47,1.027-2.527,1.027
		c-1.136,0-2.041-0.438-2.715-1.316c-0.675-0.878-1.012-2.118-1.012-3.723c0-4.469,1.664-6.703,4.992-6.703
		C319.233,42.64,319.681,42.689,320.035,42.788z M319.52,50.546c0-0.755-0.179-1.336-0.535-1.742
		c-0.357-0.406-0.866-0.609-1.527-0.609c-0.662,0-1.216,0.211-1.664,0.633c-0.448,0.422-0.672,0.903-0.672,1.445
		c0,0.792,0.211,1.476,0.633,2.051s0.974,0.863,1.656,0.863c0.661,0,1.178-0.229,1.551-0.688
		C319.333,52.041,319.52,51.39,319.52,50.546z"/>
	<path fill="#1B181A" d="M341.477,54.226l4.398-10.125h-5.891v-1.297h7.344v1.133l-4.336,10.289H341.477z"/>
	<path fill="#1B181A" d="M371.191,48.179c1.609,0.833,2.414,1.856,2.414,3.07c0,0.942-0.328,1.7-0.984,2.273
		s-1.523,0.859-2.602,0.859c-1.125,0-2.003-0.27-2.633-0.809s-0.945-1.293-0.945-2.262c0-1.339,0.734-2.362,2.203-3.07
		c-1.224-0.761-1.836-1.722-1.836-2.883c0-0.839,0.304-1.504,0.91-1.996s1.374-0.738,2.301-0.738c0.958,0,1.734,0.247,2.328,0.742
		s0.891,1.164,0.891,2.008C373.238,46.572,372.556,47.507,371.191,48.179z M369.816,48.788c-1.323,0.63-1.984,1.477-1.984,2.539
		c0,1.25,0.719,1.875,2.156,1.875c0.708,0,1.257-0.171,1.645-0.512s0.582-0.816,0.582-1.426c0-0.469-0.164-0.884-0.492-1.246
		s-0.886-0.735-1.672-1.121L369.816,48.788z M370.035,47.601c1.208-0.536,1.813-1.261,1.813-2.172c0-0.526-0.164-0.927-0.492-1.203
		s-0.778-0.414-1.352-0.414c-0.552,0-0.991,0.138-1.316,0.414s-0.488,0.677-0.488,1.203c0,0.469,0.129,0.866,0.387,1.191
		S369.327,47.272,370.035,47.601z"/>
	<path fill="#1B181A" d="M393.656,54.241v-1.219c0.349,0.13,0.781,0.195,1.297,0.195c1.167,0,2.043-0.367,2.629-1.102
		s0.905-1.898,0.957-3.492h-0.094c-0.5,0.886-1.302,1.328-2.406,1.328c-1.011,0-1.804-0.308-2.379-0.922s-0.863-1.464-0.863-2.547
		c0-1.188,0.313-2.125,0.941-2.813s1.47-1.031,2.527-1.031c1.146,0,2.054,0.445,2.723,1.336s1.004,2.125,1.004,3.703
		c0,4.469-1.664,6.703-4.992,6.703C394.453,54.382,394.005,54.335,393.656,54.241z M394.172,46.483c0,0.755,0.179,1.336,0.535,1.742
		s0.866,0.609,1.527,0.609s1.216-0.212,1.664-0.637s0.672-0.905,0.672-1.441c0-0.786-0.208-1.469-0.625-2.047
		s-0.972-0.867-1.664-0.867c-0.667,0-1.185,0.227-1.555,0.68S394.172,45.629,394.172,46.483z"/>
</g>
<g>
	<path fill="#1B181A" d="M68.117,25.975l-0.253-1.039H67.81c-0.351,0.442-0.711,0.749-1.08,0.919
		c-0.369,0.172-0.845,0.257-1.429,0.257c-0.743,0-1.325-0.196-1.747-0.588s-0.632-0.941-0.632-1.647
		c0-1.513,1.162-2.306,3.486-2.379l1.388-0.048v-0.472c0-1.075-0.556-1.613-1.668-1.613c-0.67,0-1.417,0.187-2.242,0.561
		l-0.431-0.937c0.893-0.438,1.766-0.656,2.618-0.656c1.035,0,1.783,0.198,2.246,0.595s0.694,1.032,0.694,1.907v5.141H68.117z
		 M67.782,22.304l-1.107,0.048c-0.893,0.036-1.527,0.177-1.9,0.421c-0.374,0.243-0.561,0.616-0.561,1.117
		c0,0.812,0.456,1.217,1.367,1.217c0.67,0,1.204-0.186,1.603-0.557c0.399-0.372,0.598-0.895,0.598-1.569V22.304z"/>
	<path fill="#1B181A" d="M77.64,18.64l-0.335,1.135c-0.561-0.205-1.071-0.308-1.531-0.308c-0.743,0-1.316,0.211-1.719,0.632
		c-0.403,0.422-0.605,1.031-0.605,1.829v4.047h-1.244v-7.506h1.012l0.15,1.374h0.055c0.346-0.542,0.718-0.93,1.114-1.162
		s0.884-0.349,1.463-0.349C76.537,18.332,77.083,18.435,77.64,18.64z"/>
	<path fill="#1B181A" d="M86.041,18.64l-0.335,1.135c-0.561-0.205-1.071-0.308-1.531-0.308c-0.743,0-1.316,0.211-1.719,0.632
		c-0.403,0.422-0.605,1.031-0.605,1.829v4.047h-1.244v-7.506h1.012l0.15,1.374h0.055c0.346-0.542,0.718-0.93,1.114-1.162
		s0.884-0.349,1.463-0.349C84.938,18.332,85.485,18.435,86.041,18.64z"/>
	<path fill="#1B181A" d="M93.321,25.975l-0.253-1.039h-0.055c-0.351,0.442-0.711,0.749-1.08,0.919
		c-0.369,0.172-0.845,0.257-1.429,0.257c-0.743,0-1.325-0.196-1.747-0.588s-0.632-0.941-0.632-1.647
		c0-1.513,1.162-2.306,3.486-2.379L93,21.449v-0.472c0-1.075-0.556-1.613-1.668-1.613c-0.67,0-1.417,0.187-2.242,0.561l-0.431-0.937
		c0.893-0.438,1.766-0.656,2.618-0.656c1.035,0,1.783,0.198,2.246,0.595s0.694,1.032,0.694,1.907v5.141H93.321z M92.986,22.304
		l-1.107,0.048c-0.893,0.036-1.527,0.177-1.9,0.421c-0.374,0.243-0.561,0.616-0.561,1.117c0,0.812,0.456,1.217,1.367,1.217
		c0.67,0,1.204-0.186,1.603-0.557c0.399-0.372,0.598-0.895,0.598-1.569V22.304z"/>
	<path fill="#1B181A" d="M96.165,18.469h1.285l1.791,4.471c0.374,0.935,0.577,1.595,0.608,1.982h0.041
		c0.105-0.511,0.31-1.176,0.615-1.996l1.634-4.457h1.292l-3.247,8.483c-0.305,0.793-0.661,1.389-1.066,1.787
		c-0.406,0.399-0.966,0.599-1.682,0.599c-0.392,0-0.775-0.039-1.148-0.116V28.23c0.283,0.055,0.592,0.082,0.93,0.082
		c0.438,0,0.778-0.094,1.022-0.28s0.461-0.508,0.653-0.964l0.396-1.025L96.165,18.469z"/>
	<path fill="#1B181A" d="M109.188,25.975h-1.203v-6.241c0-0.556,0.018-1.379,0.055-2.468c-0.178,0.196-0.454,0.453-0.827,0.772
		l-1.005,0.827l-0.663-0.841l2.618-2.044h1.025V25.975z"/>
</g>
<g>
	<path fill="#1B181A" d="M159.637,83.009c-0.895,0-1.572-0.378-2.033-1.134s-0.691-1.849-0.691-3.278
		c0-2.938,0.908-4.406,2.725-4.406c0.906,0,1.591,0.378,2.054,1.134s0.694,1.847,0.694,3.272
		C162.385,81.538,161.469,83.009,159.637,83.009z M159.637,82.101c0.574,0,0.996-0.274,1.266-0.823s0.404-1.442,0.404-2.681
		c0-1.23-0.135-2.12-0.404-2.669s-0.691-0.823-1.266-0.823c-0.566,0-0.981,0.272-1.245,0.817s-0.396,1.437-0.396,2.675
		c0,1.242,0.132,2.137,0.396,2.684S159.071,82.101,159.637,82.101z"/>
	<path fill="#1B181A" d="M186.751,82.892h-1.031v-5.35c0-0.477,0.016-1.182,0.047-2.115c-0.152,0.168-0.389,0.389-0.709,0.662
		l-0.861,0.709l-0.568-0.721l2.244-1.752h0.879V82.892z"/>
	<path fill="#1B181A" d="M214.832,82.892h-5.338v-0.914l2.051-2.232c0.762-0.832,1.264-1.452,1.506-1.86s0.363-0.858,0.363-1.351
		c0-0.441-0.124-0.79-0.372-1.046s-0.583-0.384-1.005-0.384c-0.625,0-1.246,0.268-1.863,0.803l-0.598-0.697
		c0.75-0.672,1.574-1.008,2.473-1.008c0.758,0,1.355,0.207,1.793,0.621s0.656,0.971,0.656,1.67c0,0.465-0.115,0.941-0.346,1.43
		s-0.799,1.221-1.705,2.197l-1.646,1.752v0.047h4.031V82.892z"/>
	<path fill="#1B181A" d="M238.881,78.38v0.035c1.41,0.184,2.115,0.863,2.115,2.039c0,0.793-0.27,1.417-0.809,1.872
		s-1.318,0.683-2.338,0.683c-0.945,0-1.701-0.154-2.268-0.463V81.55c0.719,0.375,1.467,0.563,2.244,0.563
		c1.383,0,2.074-0.564,2.074-1.693c0-1.008-0.744-1.512-2.232-1.512h-0.779v-0.885h0.779c0.625,0,1.109-0.148,1.453-0.445
		s0.516-0.689,0.516-1.178c0-0.398-0.133-0.714-0.398-0.946s-0.621-0.349-1.066-0.349c-0.695,0-1.367,0.236-2.016,0.709
		l-0.539-0.732c0.73-0.586,1.582-0.879,2.555-0.879c0.805,0,1.433,0.193,1.884,0.58s0.677,0.902,0.677,1.547
		c0,0.539-0.16,0.99-0.48,1.354S239.475,78.278,238.881,78.38z"/>
	<path fill="#1B181A" d="M267.67,80.97h-1.248v1.922h-1.031V80.97h-3.961v-0.932l3.891-5.76h1.102v5.719h1.248V80.97z
		 M265.391,79.997v-2.086c0-0.688,0.025-1.531,0.076-2.531h-0.053c-0.141,0.398-0.316,0.75-0.527,1.055l-2.408,3.563H265.391z"/>
	<path fill="#1B181A" d="M288.339,82.546v-1.008c0.563,0.375,1.266,0.563,2.109,0.563c1.313,0,1.969-0.613,1.969-1.84
		c0-1.148-0.672-1.723-2.016-1.723c-0.348,0-0.799,0.051-1.354,0.152l-0.527-0.334l0.322-4.031h4.043v0.973h-3.117l-0.229,2.455
		c0.418-0.078,0.826-0.117,1.225-0.117c0.82,0,1.483,0.224,1.989,0.671s0.759,1.06,0.759,1.837c0,0.914-0.27,1.62-0.809,2.118
		s-1.299,0.747-2.279,0.747C289.55,83.009,288.854,82.854,288.339,82.546z"/>
	<path fill="#1B181A" d="M319.244,74.313v0.908c-0.277-0.094-0.602-0.141-0.973-0.141c-0.875,0-1.532,0.275-1.972,0.826
		s-0.679,1.424-0.718,2.619h0.07c0.371-0.664,0.971-0.996,1.799-0.996c0.762,0,1.358,0.232,1.79,0.697s0.647,1.1,0.647,1.904
		c0,0.891-0.235,1.593-0.706,2.106s-1.103,0.771-1.896,0.771c-0.852,0-1.53-0.329-2.036-0.987s-0.759-1.589-0.759-2.792
		c0-3.352,1.248-5.027,3.744-5.027C318.642,74.202,318.978,74.239,319.244,74.313z M318.857,80.132c0-0.566-0.134-1.002-0.401-1.307
		s-0.649-0.457-1.146-0.457s-0.912,0.158-1.248,0.475s-0.504,0.678-0.504,1.084c0,0.594,0.158,1.106,0.475,1.538
		s0.73,0.647,1.242,0.647c0.496,0,0.884-0.172,1.163-0.516S318.857,80.765,318.857,80.132z"/>
	<path fill="#1B181A" d="M341.805,82.892l3.299-7.594h-4.418v-0.973h5.508v0.85l-3.252,7.717H341.805z"/>
	<path fill="#1B181A" d="M370.57,78.356c1.207,0.625,1.811,1.393,1.811,2.303c0,0.707-0.246,1.275-0.738,1.705
		s-1.143,0.645-1.951,0.645c-0.844,0-1.502-0.202-1.975-0.606s-0.709-0.97-0.709-1.696c0-1.004,0.551-1.771,1.652-2.303
		c-0.918-0.57-1.377-1.291-1.377-2.162c0-0.629,0.228-1.128,0.683-1.497s1.03-0.554,1.726-0.554c0.719,0,1.301,0.186,1.746,0.557
		s0.668,0.873,0.668,1.506C372.105,77.151,371.594,77.853,370.57,78.356z M369.539,78.813c-0.992,0.473-1.488,1.107-1.488,1.904
		c0,0.938,0.539,1.406,1.617,1.406c0.531,0,0.942-0.128,1.233-0.384s0.437-0.612,0.437-1.069c0-0.352-0.123-0.663-0.369-0.935
		s-0.664-0.552-1.254-0.841L369.539,78.813z M369.703,77.923c0.906-0.402,1.359-0.945,1.359-1.629c0-0.395-0.123-0.695-0.369-0.902
		s-0.584-0.311-1.014-0.311c-0.414,0-0.743,0.104-0.987,0.311s-0.366,0.508-0.366,0.902c0,0.352,0.097,0.649,0.29,0.894
		S369.172,77.677,369.703,77.923z"/>
	<path fill="#1B181A" d="M393.899,82.903v-0.914c0.262,0.098,0.586,0.146,0.973,0.146c0.875,0,1.532-0.275,1.972-0.826
		s0.679-1.424,0.718-2.619h-0.07c-0.375,0.664-0.977,0.996-1.805,0.996c-0.758,0-1.353-0.23-1.784-0.691s-0.647-1.098-0.647-1.91
		c0-0.891,0.235-1.594,0.706-2.109s1.103-0.773,1.896-0.773c0.859,0,1.54,0.334,2.042,1.002s0.753,1.594,0.753,2.777
		c0,3.352-1.248,5.027-3.744,5.027C394.497,83.009,394.161,82.974,393.899,82.903z M394.286,77.085c0,0.566,0.134,1.002,0.401,1.307
		s0.649,0.457,1.146,0.457s0.912-0.159,1.248-0.478s0.504-0.679,0.504-1.081c0-0.59-0.156-1.102-0.469-1.535s-0.729-0.65-1.248-0.65
		c-0.5,0-0.889,0.17-1.166,0.51S394.286,76.444,394.286,77.085z"/>
</g>
<line fill="none" stroke="#1B181A" stroke-width="2" x1="114.766" y1="24.195" x2="140.508" y2="39.059"/>
<polygon fill="#1B181A" points="136.715,41.559 136.273,39.91 140.172,38.863 139.125,34.965 140.781,34.52 142.27,40.074 "/>
<g>
	<path fill="#1B181A" d="M68.117,76.975l-0.253-1.039H67.81c-0.351,0.442-0.711,0.749-1.08,0.919
		c-0.369,0.172-0.845,0.257-1.429,0.257c-0.743,0-1.325-0.196-1.747-0.588s-0.632-0.941-0.632-1.647
		c0-1.513,1.162-2.306,3.486-2.379l1.388-0.048v-0.472c0-1.075-0.556-1.613-1.668-1.613c-0.67,0-1.417,0.187-2.242,0.561
		l-0.431-0.937c0.893-0.438,1.766-0.656,2.618-0.656c1.035,0,1.783,0.198,2.246,0.595s0.694,1.032,0.694,1.907v5.141H68.117z
		 M67.782,73.304l-1.107,0.048c-0.893,0.036-1.527,0.177-1.9,0.421c-0.374,0.243-0.561,0.616-0.561,1.117
		c0,0.812,0.456,1.217,1.367,1.217c0.67,0,1.204-0.186,1.603-0.557c0.399-0.372,0.598-0.895,0.598-1.569V73.304z"/>
	<path fill="#1B181A" d="M77.64,69.64l-0.335,1.135c-0.561-0.205-1.071-0.308-1.531-0.308c-0.743,0-1.316,0.211-1.719,0.632
		c-0.403,0.422-0.605,1.031-0.605,1.829v4.047h-1.244v-7.506h1.012l0.15,1.374h0.055c0.346-0.542,0.718-0.93,1.114-1.162
		s0.884-0.349,1.463-0.349C76.537,69.332,77.083,69.435,77.64,69.64z"/>
	<path fill="#1B181A" d="M86.041,69.64l-0.335,1.135c-0.561-0.205-1.071-0.308-1.531-0.308c-0.743,0-1.316,0.211-1.719,0.632
		c-0.403,0.422-0.605,1.031-0.605,1.829v4.047h-1.244v-7.506h1.012l0.15,1.374h0.055c0.346-0.542,0.718-0.93,1.114-1.162
		s0.884-0.349,1.463-0.349C84.938,69.332,85.485,69.435,86.041,69.64z"/>
	<path fill="#1B181A" d="M93.321,76.975l-0.253-1.039h-0.055c-0.351,0.442-0.711,0.749-1.08,0.919
		c-0.369,0.172-0.845,0.257-1.429,0.257c-0.743,0-1.325-0.196-1.747-0.588s-0.632-0.941-0.632-1.647
		c0-1.513,1.162-2.306,3.486-2.379L93,72.449v-0.472c0-1.075-0.556-1.613-1.668-1.613c-0.67,0-1.417,0.187-2.242,0.561l-0.431-0.937
		c0.893-0.438,1.766-0.656,2.618-0.656c1.035,0,1.783,0.198,2.246,0.595s0.694,1.032,0.694,1.907v5.141H93.321z M92.986,73.304
		l-1.107,0.048c-0.893,0.036-1.527,0.177-1.9,0.421c-0.374,0.243-0.561,0.616-0.561,1.117c0,0.812,0.456,1.217,1.367,1.217
		c0.67,0,1.204-0.186,1.603-0.557c0.399-0.372,0.598-0.895,0.598-1.569V73.304z"/>
	<path fill="#1B181A" d="M96.165,69.469h1.285l1.791,4.471c0.374,0.935,0.577,1.595,0.608,1.982h0.041
		c0.105-0.511,0.31-1.176,0.615-1.996l1.634-4.457h1.292l-3.247,8.483c-0.305,0.793-0.661,1.389-1.066,1.787
		c-0.406,0.399-0.966,0.599-1.682,0.599c-0.392,0-0.775-0.039-1.148-0.116V79.23c0.283,0.055,0.592,0.082,0.93,0.082
		c0.438,0,0.778-0.094,1.022-0.28s0.461-0.508,0.653-0.964l0.396-1.025L96.165,69.469z"/>
	<path fill="#1B181A" d="M111.313,76.975h-6.228v-1.066l2.393-2.604c0.889-0.971,1.474-1.694,1.757-2.17
		c0.283-0.477,0.424-1.002,0.424-1.576c0-0.515-0.145-0.922-0.434-1.221c-0.29-0.298-0.68-0.447-1.172-0.447
		c-0.729,0-1.454,0.313-2.174,0.937l-0.697-0.813c0.875-0.784,1.836-1.176,2.885-1.176c0.884,0,1.582,0.241,2.092,0.725
		s0.766,1.133,0.766,1.948c0,0.542-0.134,1.099-0.403,1.668s-0.932,1.424-1.989,2.563l-1.921,2.044v0.055h4.703V76.975z"/>
</g>
<line fill="none" stroke="#1B181A" stroke-width="2" x1="114.766" y1="73.059" x2="140.508" y2="58.195"/>
<polygon fill="#1B181A" points="140.781,62.73 139.125,62.289 140.172,58.391 136.273,57.344 136.715,55.691 142.27,57.18 "/>
<rect x="147.754" y="217.355" fill="#CEECC3" width="26.25" height="26.245"/>
<rect x="147.754" y="217.355" fill="none" stroke="#1B181A" stroke-width="2" width="26.25" height="26.245"/>
<rect x="174.004" y="217.355" fill="#CEECC3" width="26.25" height="26.245"/>
<rect x="174.004" y="217.355" fill="none" stroke="#1B181A" stroke-width="2" width="26.25" height="26.245"/>
<rect x="199.879" y="217.355" fill="#CEECC3" width="26.25" height="26.245"/>
<rect x="199.879" y="217.355" fill="none" stroke="#1B181A" stroke-width="2" width="26.25" height="26.245"/>
<rect x="226.129" y="217.355" fill="#CEECC3" width="26.25" height="26.245"/>
<rect x="226.129" y="217.355" fill="none" stroke="#1B181A" stroke-width="2" width="26.25" height="26.245"/>
<rect x="252.379" y="217.355" fill="#CEECC3" width="26.25" height="26.245"/>
<rect x="252.379" y="217.355" fill="none" stroke="#1B181A" stroke-width="2" width="26.25" height="26.245"/>
<rect x="278.629" y="217.355" fill="#CEECC3" width="26.25" height="26.245"/>
<rect x="278.629" y="217.355" fill="none" stroke="#1B181A" stroke-width="2" width="26.25" height="26.245"/>
<rect x="304.879" y="217.355" fill="#CEECC3" width="26.25" height="26.245"/>
<rect x="304.879" y="217.355" fill="none" stroke="#1B181A" stroke-width="2" width="26.25" height="26.245"/>
<rect x="331.129" y="217.355" fill="#CEECC3" width="26.25" height="26.245"/>
<rect x="331.129" y="217.355" fill="none" stroke="#1B181A" stroke-width="2" width="26.25" height="26.245"/>
<rect x="357.379" y="217.355" fill="#CEECC3" width="26.25" height="26.245"/>
<rect x="357.379" y="217.355" fill="none" stroke="#1B181A" stroke-width="2" width="26.25" height="26.245"/>
<rect x="383.629" y="217.355" fill="#CEECC3" width="26.25" height="26.245"/>
<rect x="383.629" y="217.355" fill="none" stroke="#1B181A" stroke-width="2" width="26.25" height="26.245"/>
<g>
	<path fill="#1B181A" d="M159.833,236.382c-1.193,0-2.097-0.504-2.711-1.512c-0.615-1.008-0.922-2.465-0.922-4.371
		c0-3.917,1.211-5.875,3.633-5.875c1.208,0,2.121,0.504,2.738,1.512s0.926,2.462,0.926,4.363
		C163.497,234.421,162.275,236.382,159.833,236.382z M159.833,235.171c0.766,0,1.328-0.366,1.688-1.098s0.539-1.923,0.539-3.574
		c0-1.641-0.18-2.827-0.539-3.559s-0.922-1.098-1.688-1.098c-0.755,0-1.309,0.363-1.66,1.09s-0.527,1.915-0.527,3.566
		c0,1.656,0.176,2.849,0.527,3.578S159.078,235.171,159.833,235.171z"/>
	<path fill="#1B181A" d="M187.345,236.226h-1.375v-7.133c0-0.636,0.021-1.575,0.063-2.82c-0.203,0.224-0.519,0.519-0.945,0.883
		l-1.148,0.945l-0.758-0.961l2.992-2.336h1.172V236.226z"/>
	<path fill="#1B181A" d="M216.146,236.226h-7.117v-1.219l2.734-2.977c1.016-1.109,1.685-1.937,2.008-2.48
		c0.323-0.544,0.484-1.145,0.484-1.801c0-0.589-0.166-1.054-0.496-1.395c-0.331-0.341-0.777-0.512-1.34-0.512
		c-0.833,0-1.662,0.356-2.484,1.07l-0.797-0.93c1-0.896,2.099-1.344,3.297-1.344c1.01,0,1.807,0.276,2.391,0.828
		c0.583,0.552,0.875,1.294,0.875,2.227c0,0.62-0.154,1.255-0.461,1.906c-0.308,0.651-1.065,1.628-2.273,2.93l-2.195,2.336v0.063
		h5.375V236.226z"/>
	<path fill="#1B181A" d="M239.587,230.21v0.047c1.88,0.245,2.82,1.151,2.82,2.719c0,1.058-0.359,1.89-1.078,2.496
		s-1.758,0.91-3.117,0.91c-1.261,0-2.269-0.206-3.023-0.617v-1.328c0.958,0.5,1.956,0.75,2.992,0.75
		c1.844,0,2.766-0.753,2.766-2.258c0-1.344-0.992-2.016-2.977-2.016h-1.039v-1.18h1.039c0.833,0,1.479-0.198,1.938-0.594
		c0.458-0.396,0.688-0.919,0.688-1.57c0-0.531-0.177-0.952-0.531-1.262c-0.354-0.31-0.828-0.465-1.422-0.465
		c-0.927,0-1.823,0.315-2.688,0.945l-0.719-0.977c0.974-0.781,2.109-1.172,3.406-1.172c1.073,0,1.91,0.258,2.512,0.773
		s0.902,1.203,0.902,2.063c0,0.719-0.214,1.32-0.641,1.805C240.988,229.765,240.378,230.074,239.587,230.21z"/>
	<path fill="#1B181A" d="M261.658,236.226h-1.375v-7.133c0-0.636,0.021-1.575,0.063-2.82c-0.203,0.224-0.519,0.519-0.945,0.883
		l-1.148,0.945l-0.758-0.961l2.992-2.336h1.172V236.226z"/>
	<path fill="#1B181A" d="M267.947,236.226l4.398-10.125h-5.891v-1.297h7.344v1.133l-4.336,10.289H267.947z"/>
	<path fill="#1B181A" d="M287.469,235.765v-1.344c0.75,0.5,1.688,0.75,2.813,0.75c1.75,0,2.625-0.817,2.625-2.453
		c0-1.531-0.896-2.297-2.688-2.297c-0.464,0-1.065,0.067-1.805,0.203l-0.703-0.445l0.43-5.375h5.391v1.297h-4.156l-0.305,3.273
		c0.557-0.104,1.102-0.156,1.633-0.156c1.094,0,1.978,0.298,2.652,0.895c0.674,0.597,1.012,1.413,1.012,2.449
		c0,1.219-0.359,2.16-1.078,2.824s-1.732,0.996-3.039,0.996C289.083,236.382,288.156,236.176,287.469,235.765z"/>
	<path fill="#1B181A" d="M320.035,224.788v1.211c-0.37-0.125-0.802-0.188-1.297-0.188c-1.167,0-2.043,0.367-2.629,1.102
		s-0.905,1.898-0.957,3.492h0.094c0.495-0.886,1.294-1.328,2.398-1.328c1.016,0,1.811,0.31,2.387,0.93
		c0.575,0.62,0.863,1.466,0.863,2.539c0,1.188-0.314,2.124-0.941,2.809c-0.628,0.685-1.47,1.027-2.527,1.027
		c-1.136,0-2.041-0.438-2.715-1.316c-0.675-0.878-1.012-2.118-1.012-3.723c0-4.469,1.664-6.703,4.992-6.703
		C319.233,224.64,319.681,224.689,320.035,224.788z M319.52,232.546c0-0.755-0.179-1.336-0.535-1.742
		c-0.357-0.406-0.866-0.609-1.527-0.609c-0.662,0-1.216,0.211-1.664,0.633c-0.448,0.422-0.672,0.903-0.672,1.445
		c0,0.792,0.211,1.476,0.633,2.051s0.974,0.863,1.656,0.863c0.661,0,1.178-0.229,1.551-0.688
		C319.333,234.041,319.52,233.39,319.52,232.546z"/>
	<path fill="#1B181A" d="M341.477,236.226l4.398-10.125h-5.891v-1.297h7.344v1.133l-4.336,10.289H341.477z"/>
	<path fill="#1B181A" d="M371.191,230.179c1.609,0.833,2.414,1.856,2.414,3.07c0,0.942-0.328,1.7-0.984,2.273
		s-1.523,0.859-2.602,0.859c-1.125,0-2.003-0.27-2.633-0.809s-0.945-1.293-0.945-2.262c0-1.339,0.734-2.362,2.203-3.07
		c-1.224-0.761-1.836-1.722-1.836-2.883c0-0.839,0.304-1.504,0.91-1.996s1.374-0.738,2.301-0.738c0.958,0,1.734,0.247,2.328,0.742
		s0.891,1.164,0.891,2.008C373.238,228.572,372.556,229.507,371.191,230.179z M369.816,230.788c-1.323,0.63-1.984,1.477-1.984,2.539
		c0,1.25,0.719,1.875,2.156,1.875c0.708,0,1.257-0.171,1.645-0.512s0.582-0.816,0.582-1.426c0-0.469-0.164-0.884-0.492-1.246
		s-0.886-0.735-1.672-1.121L369.816,230.788z M370.035,229.601c1.208-0.536,1.813-1.261,1.813-2.172
		c0-0.526-0.164-0.927-0.492-1.203s-0.778-0.414-1.352-0.414c-0.552,0-0.991,0.138-1.316,0.414s-0.488,0.677-0.488,1.203
		c0,0.469,0.129,0.866,0.387,1.191S369.327,229.272,370.035,229.601z"/>
	<path fill="#1B181A" d="M393.656,236.241v-1.219c0.349,0.13,0.781,0.195,1.297,0.195c1.167,0,2.043-0.367,2.629-1.102
		s0.905-1.898,0.957-3.492h-0.094c-0.5,0.886-1.302,1.328-2.406,1.328c-1.011,0-1.804-0.308-2.379-0.922s-0.863-1.464-0.863-2.547
		c0-1.188,0.313-2.125,0.941-2.813s1.47-1.031,2.527-1.031c1.146,0,2.054,0.445,2.723,1.336s1.004,2.125,1.004,3.703
		c0,4.469-1.664,6.703-4.992,6.703C394.453,236.382,394.005,236.335,393.656,236.241z M394.172,228.483
		c0,0.755,0.179,1.336,0.535,1.742s0.866,0.609,1.527,0.609s1.216-0.212,1.664-0.637s0.672-0.905,0.672-1.441
		c0-0.786-0.208-1.469-0.625-2.047s-0.972-0.867-1.664-0.867c-0.667,0-1.185,0.227-1.555,0.68S394.172,227.629,394.172,228.483z"/>
</g>
<g>
	<path fill="#1B181A" d="M159.637,265.009c-0.895,0-1.572-0.378-2.033-1.134s-0.691-1.849-0.691-3.278
		c0-2.938,0.908-4.406,2.725-4.406c0.906,0,1.591,0.378,2.054,1.134s0.694,1.847,0.694,3.272
		C162.385,263.538,161.469,265.009,159.637,265.009z M159.637,264.101c0.574,0,0.996-0.274,1.266-0.823s0.404-1.442,0.404-2.681
		c0-1.23-0.135-2.12-0.404-2.669s-0.691-0.823-1.266-0.823c-0.566,0-0.981,0.272-1.245,0.817s-0.396,1.437-0.396,2.675
		c0,1.242,0.132,2.137,0.396,2.684S159.071,264.101,159.637,264.101z"/>
	<path fill="#1B181A" d="M186.751,264.892h-1.031v-5.35c0-0.477,0.016-1.182,0.047-2.115c-0.152,0.168-0.389,0.389-0.709,0.662
		l-0.861,0.709l-0.568-0.721l2.244-1.752h0.879V264.892z"/>
	<path fill="#1B181A" d="M214.832,264.892h-5.338v-0.914l2.051-2.232c0.762-0.832,1.264-1.452,1.506-1.86s0.363-0.858,0.363-1.351
		c0-0.441-0.124-0.79-0.372-1.046s-0.583-0.384-1.005-0.384c-0.625,0-1.246,0.268-1.863,0.803l-0.598-0.697
		c0.75-0.672,1.574-1.008,2.473-1.008c0.758,0,1.355,0.207,1.793,0.621s0.656,0.971,0.656,1.67c0,0.465-0.115,0.941-0.346,1.43
		s-0.799,1.221-1.705,2.197l-1.646,1.752v0.047h4.031V264.892z"/>
	<path fill="#1B181A" d="M238.881,260.38v0.035c1.41,0.184,2.115,0.863,2.115,2.039c0,0.793-0.27,1.417-0.809,1.872
		s-1.318,0.683-2.338,0.683c-0.945,0-1.701-0.154-2.268-0.463v-0.996c0.719,0.375,1.467,0.563,2.244,0.563
		c1.383,0,2.074-0.564,2.074-1.693c0-1.008-0.744-1.512-2.232-1.512h-0.779v-0.885h0.779c0.625,0,1.109-0.148,1.453-0.445
		s0.516-0.689,0.516-1.178c0-0.398-0.133-0.714-0.398-0.946s-0.621-0.349-1.066-0.349c-0.695,0-1.367,0.236-2.016,0.709
		l-0.539-0.732c0.73-0.586,1.582-0.879,2.555-0.879c0.805,0,1.433,0.193,1.884,0.58s0.677,0.902,0.677,1.547
		c0,0.539-0.16,0.99-0.48,1.354S239.475,260.278,238.881,260.38z"/>
	<path fill="#1B181A" d="M267.67,262.97h-1.248v1.922h-1.031v-1.922h-3.961v-0.932l3.891-5.76h1.102v5.719h1.248V262.97z
		 M265.391,261.997v-2.086c0-0.688,0.025-1.531,0.076-2.531h-0.053c-0.141,0.398-0.316,0.75-0.527,1.055l-2.408,3.563H265.391z"/>
	<path fill="#1B181A" d="M288.339,264.546v-1.008c0.563,0.375,1.266,0.563,2.109,0.563c1.313,0,1.969-0.613,1.969-1.84
		c0-1.148-0.672-1.723-2.016-1.723c-0.348,0-0.799,0.051-1.354,0.152l-0.527-0.334l0.322-4.031h4.043v0.973h-3.117l-0.229,2.455
		c0.418-0.078,0.826-0.117,1.225-0.117c0.82,0,1.483,0.224,1.989,0.671s0.759,1.06,0.759,1.837c0,0.914-0.27,1.62-0.809,2.118
		s-1.299,0.747-2.279,0.747C289.55,265.009,288.854,264.854,288.339,264.546z"/>
	<path fill="#1B181A" d="M319.244,256.313v0.908c-0.277-0.094-0.602-0.141-0.973-0.141c-0.875,0-1.532,0.275-1.972,0.826
		s-0.679,1.424-0.718,2.619h0.07c0.371-0.664,0.971-0.996,1.799-0.996c0.762,0,1.358,0.232,1.79,0.697s0.647,1.1,0.647,1.904
		c0,0.891-0.235,1.593-0.706,2.106s-1.103,0.771-1.896,0.771c-0.852,0-1.53-0.329-2.036-0.987s-0.759-1.589-0.759-2.792
		c0-3.352,1.248-5.027,3.744-5.027C318.642,256.202,318.978,256.239,319.244,256.313z M318.857,262.132
		c0-0.566-0.134-1.002-0.401-1.307s-0.649-0.457-1.146-0.457s-0.912,0.158-1.248,0.475s-0.504,0.678-0.504,1.084
		c0,0.594,0.158,1.106,0.475,1.538s0.73,0.647,1.242,0.647c0.496,0,0.884-0.172,1.163-0.516S318.857,262.765,318.857,262.132z"/>
	<path fill="#1B181A" d="M341.805,264.892l3.299-7.594h-4.418v-0.973h5.508v0.85l-3.252,7.717H341.805z"/>
	<path fill="#1B181A" d="M370.57,260.356c1.207,0.625,1.811,1.393,1.811,2.303c0,0.707-0.246,1.275-0.738,1.705
		s-1.143,0.645-1.951,0.645c-0.844,0-1.502-0.202-1.975-0.606s-0.709-0.97-0.709-1.696c0-1.004,0.551-1.771,1.652-2.303
		c-0.918-0.57-1.377-1.291-1.377-2.162c0-0.629,0.228-1.128,0.683-1.497s1.03-0.554,1.726-0.554c0.719,0,1.301,0.186,1.746,0.557
		s0.668,0.873,0.668,1.506C372.105,259.151,371.594,259.853,370.57,260.356z M369.539,260.813c-0.992,0.473-1.488,1.107-1.488,1.904
		c0,0.938,0.539,1.406,1.617,1.406c0.531,0,0.942-0.128,1.233-0.384s0.437-0.612,0.437-1.069c0-0.352-0.123-0.663-0.369-0.935
		s-0.664-0.552-1.254-0.841L369.539,260.813z M369.703,259.923c0.906-0.402,1.359-0.945,1.359-1.629
		c0-0.395-0.123-0.695-0.369-0.902s-0.584-0.311-1.014-0.311c-0.414,0-0.743,0.104-0.987,0.311s-0.366,0.508-0.366,0.902
		c0,0.352,0.097,0.649,0.29,0.894S369.172,259.677,369.703,259.923z"/>
	<path fill="#1B181A" d="M393.899,264.903v-0.914c0.262,0.098,0.586,0.146,0.973,0.146c0.875,0,1.532-0.275,1.972-0.826
		s0.679-1.424,0.718-2.619h-0.07c-0.375,0.664-0.977,0.996-1.805,0.996c-0.758,0-1.353-0.23-1.784-0.691s-0.647-1.098-0.647-1.91
		c0-0.891,0.235-1.594,0.706-2.109s1.103-0.773,1.896-0.773c0.859,0,1.54,0.334,2.042,1.002s0.753,1.594,0.753,2.777
		c0,3.352-1.248,5.027-3.744,5.027C394.497,265.009,394.161,264.974,393.899,264.903z M394.286,259.085
		c0,0.566,0.134,1.002,0.401,1.307s0.649,0.457,1.146,0.457s0.912-0.159,1.248-0.478s0.504-0.679,0.504-1.081
		c0-0.59-0.156-1.102-0.469-1.535s-0.729-0.65-1.248-0.65c-0.5,0-0.889,0.17-1.166,0.51S394.286,258.444,394.286,259.085z"/>
</g>
<g>
	<path fill="#1B181A" d="M68.117,234.076l-0.253-1.039H67.81c-0.351,0.441-0.711,0.748-1.08,0.919s-0.845,0.257-1.429,0.257
		c-0.743,0-1.325-0.196-1.747-0.588c-0.421-0.393-0.632-0.941-0.632-1.648c0-1.513,1.162-2.306,3.486-2.379l1.388-0.047v-0.473
		c0-1.075-0.556-1.613-1.668-1.613c-0.67,0-1.417,0.188-2.242,0.561l-0.431-0.936c0.893-0.438,1.766-0.656,2.618-0.656
		c1.035,0,1.783,0.197,2.246,0.594s0.694,1.033,0.694,1.908v5.141H68.117z M67.782,230.404l-1.107,0.049
		c-0.893,0.036-1.527,0.176-1.9,0.42s-0.561,0.616-0.561,1.117c0,0.812,0.456,1.217,1.367,1.217c0.67,0,1.204-0.186,1.603-0.557
		s0.598-0.895,0.598-1.568V230.404z"/>
	<path fill="#1B181A" d="M77.64,226.74l-0.335,1.135c-0.561-0.205-1.071-0.307-1.531-0.307c-0.743,0-1.316,0.211-1.719,0.632
		s-0.605,1.031-0.605,1.829v4.047h-1.244v-7.506h1.012l0.15,1.373h0.055c0.346-0.542,0.718-0.93,1.114-1.162
		s0.884-0.348,1.463-0.348C76.537,226.434,77.083,226.535,77.64,226.74z"/>
	<path fill="#1B181A" d="M86.041,226.74l-0.335,1.135c-0.561-0.205-1.071-0.307-1.531-0.307c-0.743,0-1.316,0.211-1.719,0.632
		s-0.605,1.031-0.605,1.829v4.047h-1.244v-7.506h1.012l0.15,1.373h0.055c0.346-0.542,0.718-0.93,1.114-1.162
		s0.884-0.348,1.463-0.348C84.938,226.434,85.485,226.535,86.041,226.74z"/>
	<path fill="#1B181A" d="M93.321,234.076l-0.253-1.039h-0.055c-0.351,0.441-0.711,0.748-1.08,0.919s-0.845,0.257-1.429,0.257
		c-0.743,0-1.325-0.196-1.747-0.588c-0.421-0.393-0.632-0.941-0.632-1.648c0-1.513,1.162-2.306,3.486-2.379L93,229.551v-0.473
		c0-1.075-0.556-1.613-1.668-1.613c-0.67,0-1.417,0.188-2.242,0.561l-0.431-0.936c0.893-0.438,1.766-0.656,2.618-0.656
		c1.035,0,1.783,0.197,2.246,0.594s0.694,1.033,0.694,1.908v5.141H93.321z M92.986,230.404l-1.107,0.049
		c-0.893,0.036-1.527,0.176-1.9,0.42s-0.561,0.616-0.561,1.117c0,0.812,0.456,1.217,1.367,1.217c0.67,0,1.204-0.186,1.603-0.557
		s0.598-0.895,0.598-1.568V230.404z"/>
	<path fill="#1B181A" d="M96.165,226.57h1.285l1.791,4.471c0.374,0.934,0.577,1.595,0.608,1.982h0.041
		c0.105-0.511,0.31-1.176,0.615-1.996l1.634-4.457h1.292l-3.247,8.482c-0.305,0.793-0.661,1.389-1.066,1.788
		s-0.966,0.599-1.682,0.599c-0.392,0-0.775-0.039-1.148-0.117v-0.99c0.283,0.055,0.592,0.082,0.93,0.082
		c0.438,0,0.778-0.094,1.022-0.281c0.244-0.187,0.461-0.508,0.653-0.963l0.396-1.025L96.165,226.57z"/>
	<path fill="#1B181A" d="M111.313,234.076h-6.228v-1.066l2.393-2.605c0.889-0.971,1.474-1.693,1.757-2.17s0.424-1.002,0.424-1.576
		c0-0.515-0.145-0.922-0.434-1.22s-0.68-0.448-1.172-0.448c-0.729,0-1.454,0.313-2.174,0.938l-0.697-0.814
		c0.875-0.783,1.836-1.176,2.885-1.176c0.884,0,1.582,0.242,2.092,0.725c0.51,0.483,0.766,1.133,0.766,1.949
		c0,0.542-0.134,1.098-0.403,1.668c-0.269,0.569-0.932,1.424-1.989,2.563l-1.921,2.045v0.055h4.703V234.076z"/>
</g>
<line fill="none" stroke="#1B181A" stroke-width="2" x1="114.766" y1="230.477" x2="140.508" y2="230.477"/>
<polygon fill="#1B181A" points="138.477,234.543 137.266,233.332 140.117,230.477 137.266,227.625 138.477,226.414 142.539,230.477 
	"/>
<rect x="147.754" y="145.355" fill="#CEECC3" width="26.25" height="26.245"/>
<rect x="147.754" y="145.355" fill="none" stroke="#1B181A" stroke-width="2" width="26.25" height="26.245"/>
<rect x="174.004" y="145.355" fill="#CEECC3" width="26.25" height="26.245"/>
<rect x="174.004" y="145.355" fill="none" stroke="#1B181A" stroke-width="2" width="26.25" height="26.245"/>
<rect x="199.879" y="145.355" fill="#CEECC3" width="26.25" height="26.245"/>
<rect x="199.879" y="145.355" fill="none" stroke="#1B181A" stroke-width="2" width="26.25" height="26.245"/>
<rect x="226.129" y="145.355" fill="#CEECC3" width="26.25" height="26.245"/>
<rect x="226.129" y="145.355" fill="none" stroke="#1B181A" stroke-width="2" width="26.25" height="26.245"/>
<rect x="252.379" y="145.355" fill="#CEECC3" width="26.25" height="26.245"/>
<rect x="252.379" y="145.355" fill="none" stroke="#1B181A" stroke-width="2" width="26.25" height="26.245"/>
<rect x="278.629" y="145.355" fill="#CEECC3" width="26.25" height="26.245"/>
<rect x="278.629" y="145.355" fill="none" stroke="#1B181A" stroke-width="2" width="26.25" height="26.245"/>
<rect x="304.879" y="145.355" fill="#CEECC3" width="26.25" height="26.245"/>
<rect x="304.879" y="145.355" fill="none" stroke="#1B181A" stroke-width="2" width="26.25" height="26.245"/>
<rect x="331.129" y="145.355" fill="#CEECC3" width="26.25" height="26.245"/>
<rect x="331.129" y="145.355" fill="none" stroke="#1B181A" stroke-width="2" width="26.25" height="26.245"/>
<rect x="357.379" y="145.355" fill="#CEECC3" width="26.25" height="26.245"/>
<rect x="357.379" y="145.355" fill="none" stroke="#1B181A" stroke-width="2" width="26.25" height="26.245"/>
<rect x="383.629" y="145.355" fill="#CEECC3" width="26.25" height="26.245"/>
<rect x="383.629" y="145.355" fill="none" stroke="#1B181A" stroke-width="2" width="26.25" height="26.245"/>
<g>
	<path fill="#1B181A" d="M159.833,164.382c-1.193,0-2.097-0.504-2.711-1.512c-0.615-1.008-0.922-2.465-0.922-4.371
		c0-3.917,1.211-5.875,3.633-5.875c1.208,0,2.121,0.504,2.738,1.512s0.926,2.462,0.926,4.363
		C163.497,162.421,162.275,164.382,159.833,164.382z M159.833,163.171c0.766,0,1.328-0.366,1.688-1.098s0.539-1.923,0.539-3.574
		c0-1.641-0.18-2.827-0.539-3.559s-0.922-1.098-1.688-1.098c-0.755,0-1.309,0.363-1.66,1.09s-0.527,1.915-0.527,3.566
		c0,1.656,0.176,2.849,0.527,3.578S159.078,163.171,159.833,163.171z"/>
	<path fill="#1B181A" d="M187.345,164.226h-1.375v-7.133c0-0.636,0.021-1.575,0.063-2.82c-0.203,0.224-0.519,0.519-0.945,0.883
		l-1.148,0.945l-0.758-0.961l2.992-2.336h1.172V164.226z"/>
	<path fill="#1B181A" d="M216.146,164.226h-7.117v-1.219l2.734-2.977c1.016-1.109,1.685-1.937,2.008-2.48
		c0.323-0.544,0.484-1.145,0.484-1.801c0-0.589-0.166-1.054-0.496-1.395c-0.331-0.341-0.777-0.512-1.34-0.512
		c-0.833,0-1.662,0.356-2.484,1.07l-0.797-0.93c1-0.896,2.099-1.344,3.297-1.344c1.01,0,1.807,0.276,2.391,0.828
		c0.583,0.552,0.875,1.294,0.875,2.227c0,0.62-0.154,1.255-0.461,1.906c-0.308,0.651-1.065,1.628-2.273,2.93l-2.195,2.336v0.063
		h5.375V164.226z"/>
	<path fill="#1B181A" d="M239.587,158.21v0.047c1.88,0.245,2.82,1.151,2.82,2.719c0,1.058-0.359,1.89-1.078,2.496
		s-1.758,0.91-3.117,0.91c-1.261,0-2.269-0.206-3.023-0.617v-1.328c0.958,0.5,1.956,0.75,2.992,0.75
		c1.844,0,2.766-0.753,2.766-2.258c0-1.344-0.992-2.016-2.977-2.016h-1.039v-1.18h1.039c0.833,0,1.479-0.198,1.938-0.594
		c0.458-0.396,0.688-0.919,0.688-1.57c0-0.531-0.177-0.952-0.531-1.262c-0.354-0.31-0.828-0.465-1.422-0.465
		c-0.927,0-1.823,0.315-2.688,0.945l-0.719-0.977c0.974-0.781,2.109-1.172,3.406-1.172c1.073,0,1.91,0.258,2.512,0.773
		s0.902,1.203,0.902,2.063c0,0.719-0.214,1.32-0.641,1.805C240.988,157.765,240.378,158.074,239.587,158.21z"/>
	<path fill="#1B181A" d="M261.658,164.226h-1.375v-7.133c0-0.636,0.021-1.575,0.063-2.82c-0.203,0.224-0.519,0.519-0.945,0.883
		l-1.148,0.945l-0.758-0.961l2.992-2.336h1.172V164.226z"/>
	<path fill="#1B181A" d="M267.947,164.226l4.398-10.125h-5.891v-1.297h7.344v1.133l-4.336,10.289H267.947z"/>
	<path fill="#1B181A" d="M287.469,163.765v-1.344c0.75,0.5,1.688,0.75,2.813,0.75c1.75,0,2.625-0.817,2.625-2.453
		c0-1.531-0.896-2.297-2.688-2.297c-0.464,0-1.065,0.067-1.805,0.203l-0.703-0.445l0.43-5.375h5.391v1.297h-4.156l-0.305,3.273
		c0.557-0.104,1.102-0.156,1.633-0.156c1.094,0,1.978,0.298,2.652,0.895c0.674,0.597,1.012,1.413,1.012,2.449
		c0,1.219-0.359,2.16-1.078,2.824s-1.732,0.996-3.039,0.996C289.083,164.382,288.156,164.176,287.469,163.765z"/>
	<path fill="#1B181A" d="M320.035,152.788v1.211c-0.37-0.125-0.802-0.188-1.297-0.188c-1.167,0-2.043,0.367-2.629,1.102
		s-0.905,1.898-0.957,3.492h0.094c0.495-0.886,1.294-1.328,2.398-1.328c1.016,0,1.811,0.31,2.387,0.93
		c0.575,0.62,0.863,1.466,0.863,2.539c0,1.188-0.314,2.124-0.941,2.809c-0.628,0.685-1.47,1.027-2.527,1.027
		c-1.136,0-2.041-0.438-2.715-1.316c-0.675-0.878-1.012-2.118-1.012-3.723c0-4.469,1.664-6.703,4.992-6.703
		C319.233,152.64,319.681,152.689,320.035,152.788z M319.52,160.546c0-0.755-0.179-1.336-0.535-1.742
		c-0.357-0.406-0.866-0.609-1.527-0.609c-0.662,0-1.216,0.211-1.664,0.633c-0.448,0.422-0.672,0.903-0.672,1.445
		c0,0.792,0.211,1.476,0.633,2.051s0.974,0.863,1.656,0.863c0.661,0,1.178-0.229,1.551-0.688
		C319.333,162.041,319.52,161.39,319.52,160.546z"/>
	<path fill="#1B181A" d="M341.477,164.226l4.398-10.125h-5.891v-1.297h7.344v1.133l-4.336,10.289H341.477z"/>
	<path fill="#1B181A" d="M371.191,158.179c1.609,0.833,2.414,1.856,2.414,3.07c0,0.942-0.328,1.7-0.984,2.273
		s-1.523,0.859-2.602,0.859c-1.125,0-2.003-0.27-2.633-0.809s-0.945-1.293-0.945-2.262c0-1.339,0.734-2.362,2.203-3.07
		c-1.224-0.761-1.836-1.722-1.836-2.883c0-0.839,0.304-1.504,0.91-1.996s1.374-0.738,2.301-0.738c0.958,0,1.734,0.247,2.328,0.742
		s0.891,1.164,0.891,2.008C373.238,156.572,372.556,157.507,371.191,158.179z M369.816,158.788c-1.323,0.63-1.984,1.477-1.984,2.539
		c0,1.25,0.719,1.875,2.156,1.875c0.708,0,1.257-0.171,1.645-0.512s0.582-0.816,0.582-1.426c0-0.469-0.164-0.884-0.492-1.246
		s-0.886-0.735-1.672-1.121L369.816,158.788z M370.035,157.601c1.208-0.536,1.813-1.261,1.813-2.172
		c0-0.526-0.164-0.927-0.492-1.203s-0.778-0.414-1.352-0.414c-0.552,0-0.991,0.138-1.316,0.414s-0.488,0.677-0.488,1.203
		c0,0.469,0.129,0.866,0.387,1.191S369.327,157.272,370.035,157.601z"/>
	<path fill="#1B181A" d="M393.656,164.241v-1.219c0.349,0.13,0.781,0.195,1.297,0.195c1.167,0,2.043-0.367,2.629-1.102
		s0.905-1.898,0.957-3.492h-0.094c-0.5,0.886-1.302,1.328-2.406,1.328c-1.011,0-1.804-0.308-2.379-0.922s-0.863-1.464-0.863-2.547
		c0-1.188,0.313-2.125,0.941-2.813s1.47-1.031,2.527-1.031c1.146,0,2.054,0.445,2.723,1.336s1.004,2.125,1.004,3.703
		c0,4.469-1.664,6.703-4.992,6.703C394.453,164.382,394.005,164.335,393.656,164.241z M394.172,156.483
		c0,0.755,0.179,1.336,0.535,1.742s0.866,0.609,1.527,0.609s1.216-0.212,1.664-0.637s0.672-0.905,0.672-1.441
		c0-0.786-0.208-1.469-0.625-2.047s-0.972-0.867-1.664-0.867c-0.667,0-1.185,0.227-1.555,0.68S394.172,155.629,394.172,156.483z"/>
	<path fill="#1B181A" d="M422.394,161.663h-1.664v2.563h-1.375v-2.563h-5.281v-1.242l5.188-7.68h1.469v7.625h1.664V161.663z
		 M419.354,160.366v-2.781c0-0.917,0.034-2.042,0.102-3.375h-0.07c-0.188,0.531-0.422,1-0.703,1.406l-3.211,4.75H419.354z"/>
	<path fill="#1B181A" d="M431.55,164.226h-7.117v-1.219l2.734-2.977c1.016-1.109,1.685-1.937,2.008-2.48s0.484-1.145,0.484-1.801
		c0-0.589-0.165-1.054-0.496-1.395s-0.777-0.512-1.34-0.512c-0.833,0-1.661,0.356-2.484,1.07l-0.797-0.93
		c1-0.896,2.099-1.344,3.297-1.344c1.011,0,1.808,0.276,2.391,0.828s0.875,1.294,0.875,2.227c0,0.62-0.153,1.255-0.461,1.906
		s-1.065,1.628-2.273,2.93l-2.195,2.336v0.063h5.375V164.226z"/>
	<path fill="#1B181A" d="M447.967,164.382c-1.192,0-2.097-0.504-2.711-1.512s-0.922-2.465-0.922-4.371
		c0-3.917,1.211-5.875,3.633-5.875c1.208,0,2.121,0.504,2.738,1.512s0.926,2.462,0.926,4.363
		C451.631,162.421,450.409,164.382,447.967,164.382z M447.967,163.171c0.766,0,1.328-0.366,1.688-1.098s0.539-1.923,0.539-3.574
		c0-1.641-0.18-2.827-0.539-3.559s-0.922-1.098-1.688-1.098c-0.755,0-1.309,0.363-1.66,1.09s-0.527,1.915-0.527,3.566
		c0,1.656,0.176,2.849,0.527,3.578S447.212,163.171,447.967,163.171z"/>
	<path fill="#1B181A" d="M474.241,164.382c-1.192,0-2.097-0.504-2.711-1.512s-0.922-2.465-0.922-4.371
		c0-3.917,1.211-5.875,3.633-5.875c1.208,0,2.121,0.504,2.738,1.512s0.926,2.462,0.926,4.363
		C477.905,162.421,476.684,164.382,474.241,164.382z M474.241,163.171c0.766,0,1.328-0.366,1.688-1.098s0.539-1.923,0.539-3.574
		c0-1.641-0.18-2.827-0.539-3.559s-0.922-1.098-1.688-1.098c-0.755,0-1.309,0.363-1.66,1.09s-0.527,1.915-0.527,3.566
		c0,1.656,0.176,2.849,0.527,3.578S473.486,163.171,474.241,163.171z"/>
	<path fill="#1B181A" d="M500.453,164.382c-1.192,0-2.097-0.504-2.711-1.512s-0.922-2.465-0.922-4.371
		c0-3.917,1.211-5.875,3.633-5.875c1.208,0,2.121,0.504,2.738,1.512s0.926,2.462,0.926,4.363
		C504.117,162.421,502.896,164.382,500.453,164.382z M500.453,163.171c0.766,0,1.328-0.366,1.688-1.098s0.539-1.923,0.539-3.574
		c0-1.641-0.18-2.827-0.539-3.559s-0.922-1.098-1.688-1.098c-0.755,0-1.309,0.363-1.66,1.09s-0.527,1.915-0.527,3.566
		c0,1.656,0.176,2.849,0.527,3.578S499.698,163.171,500.453,163.171z"/>
	<path fill="#1B181A" d="M526.664,164.382c-1.192,0-2.097-0.504-2.711-1.512s-0.922-2.465-0.922-4.371
		c0-3.917,1.211-5.875,3.633-5.875c1.208,0,2.121,0.504,2.738,1.512s0.926,2.462,0.926,4.363
		C530.328,162.421,529.106,164.382,526.664,164.382z M526.664,163.171c0.766,0,1.328-0.366,1.688-1.098s0.539-1.923,0.539-3.574
		c0-1.641-0.18-2.827-0.539-3.559s-0.922-1.098-1.688-1.098c-0.755,0-1.309,0.363-1.66,1.09s-0.527,1.915-0.527,3.566
		c0,1.656,0.176,2.849,0.527,3.578S525.909,163.171,526.664,163.171z"/>
	<path fill="#1B181A" d="M552.875,164.382c-1.192,0-2.097-0.504-2.711-1.512s-0.922-2.465-0.922-4.371
		c0-3.917,1.211-5.875,3.633-5.875c1.208,0,2.121,0.504,2.738,1.512s0.926,2.462,0.926,4.363
		C556.539,162.421,555.317,164.382,552.875,164.382z M552.875,163.171c0.766,0,1.328-0.366,1.688-1.098s0.539-1.923,0.539-3.574
		c0-1.641-0.18-2.827-0.539-3.559s-0.922-1.098-1.688-1.098c-0.755,0-1.309,0.363-1.66,1.09s-0.527,1.915-0.527,3.566
		c0,1.656,0.176,2.849,0.527,3.578S552.12,163.171,552.875,163.171z"/>
	<path fill="#1B181A" d="M579.086,164.382c-1.192,0-2.097-0.504-2.711-1.512s-0.922-2.465-0.922-4.371
		c0-3.917,1.211-5.875,3.633-5.875c1.208,0,2.121,0.504,2.738,1.512s0.926,2.462,0.926,4.363
		C582.75,162.421,581.528,164.382,579.086,164.382z M579.086,163.171c0.766,0,1.328-0.366,1.688-1.098s0.539-1.923,0.539-3.574
		c0-1.641-0.18-2.827-0.539-3.559s-0.922-1.098-1.688-1.098c-0.755,0-1.309,0.363-1.66,1.09s-0.527,1.915-0.527,3.566
		c0,1.656,0.176,2.849,0.527,3.578S578.331,163.171,579.086,163.171z"/>
	<path fill="#1B181A" d="M605.281,164.382c-1.192,0-2.097-0.504-2.711-1.512s-0.922-2.465-0.922-4.371
		c0-3.917,1.211-5.875,3.633-5.875c1.208,0,2.121,0.504,2.738,1.512s0.926,2.462,0.926,4.363
		C608.945,162.421,607.724,164.382,605.281,164.382z M605.281,163.171c0.766,0,1.328-0.366,1.688-1.098s0.539-1.923,0.539-3.574
		c0-1.641-0.18-2.827-0.539-3.559s-0.922-1.098-1.688-1.098c-0.755,0-1.309,0.363-1.66,1.09s-0.527,1.915-0.527,3.566
		c0,1.656,0.176,2.849,0.527,3.578S604.526,163.171,605.281,163.171z"/>
	<path fill="#1B181A" d="M631.492,164.382c-1.192,0-2.097-0.504-2.711-1.512s-0.922-2.465-0.922-4.371
		c0-3.917,1.211-5.875,3.633-5.875c1.208,0,2.121,0.504,2.738,1.512s0.926,2.462,0.926,4.363
		C635.156,162.421,633.935,164.382,631.492,164.382z M631.492,163.171c0.766,0,1.328-0.366,1.688-1.098s0.539-1.923,0.539-3.574
		c0-1.641-0.18-2.827-0.539-3.559s-0.922-1.098-1.688-1.098c-0.755,0-1.309,0.363-1.66,1.09s-0.527,1.915-0.527,3.566
		c0,1.656,0.176,2.849,0.527,3.578S630.737,163.171,631.492,163.171z"/>
	<path fill="#1B181A" d="M657.703,164.382c-1.192,0-2.097-0.504-2.711-1.512s-0.922-2.465-0.922-4.371
		c0-3.917,1.211-5.875,3.633-5.875c1.208,0,2.121,0.504,2.738,1.512s0.926,2.462,0.926,4.363
		C661.367,162.421,660.146,164.382,657.703,164.382z M657.703,163.171c0.766,0,1.328-0.366,1.688-1.098s0.539-1.923,0.539-3.574
		c0-1.641-0.18-2.827-0.539-3.559s-0.922-1.098-1.688-1.098c-0.755,0-1.309,0.363-1.66,1.09s-0.527,1.915-0.527,3.566
		c0,1.656,0.176,2.849,0.527,3.578S656.948,163.171,657.703,163.171z"/>
</g>
<g>
	<path fill="#1B181A" d="M68.117,162.076l-0.253-1.039H67.81c-0.351,0.441-0.711,0.748-1.08,0.919s-0.845,0.257-1.429,0.257
		c-0.743,0-1.325-0.196-1.747-0.588c-0.421-0.393-0.632-0.941-0.632-1.648c0-1.513,1.162-2.306,3.486-2.379l1.388-0.047v-0.473
		c0-1.075-0.556-1.613-1.668-1.613c-0.67,0-1.417,0.188-2.242,0.561l-0.431-0.936c0.893-0.438,1.766-0.656,2.618-0.656
		c1.035,0,1.783,0.197,2.246,0.594s0.694,1.033,0.694,1.908v5.141H68.117z M67.782,158.404l-1.107,0.049
		c-0.893,0.036-1.527,0.176-1.9,0.42s-0.561,0.616-0.561,1.117c0,0.812,0.456,1.217,1.367,1.217c0.67,0,1.204-0.186,1.603-0.557
		s0.598-0.895,0.598-1.568V158.404z"/>
	<path fill="#1B181A" d="M77.64,154.74l-0.335,1.135c-0.561-0.205-1.071-0.307-1.531-0.307c-0.743,0-1.316,0.211-1.719,0.632
		s-0.605,1.031-0.605,1.829v4.047h-1.244v-7.506h1.012l0.15,1.373h0.055c0.346-0.542,0.718-0.93,1.114-1.162
		s0.884-0.348,1.463-0.348C76.537,154.434,77.083,154.535,77.64,154.74z"/>
	<path fill="#1B181A" d="M86.041,154.74l-0.335,1.135c-0.561-0.205-1.071-0.307-1.531-0.307c-0.743,0-1.316,0.211-1.719,0.632
		s-0.605,1.031-0.605,1.829v4.047h-1.244v-7.506h1.012l0.15,1.373h0.055c0.346-0.542,0.718-0.93,1.114-1.162
		s0.884-0.348,1.463-0.348C84.938,154.434,85.485,154.535,86.041,154.74z"/>
	<path fill="#1B181A" d="M93.321,162.076l-0.253-1.039h-0.055c-0.351,0.441-0.711,0.748-1.08,0.919s-0.845,0.257-1.429,0.257
		c-0.743,0-1.325-0.196-1.747-0.588c-0.421-0.393-0.632-0.941-0.632-1.648c0-1.513,1.162-2.306,3.486-2.379L93,157.551v-0.473
		c0-1.075-0.556-1.613-1.668-1.613c-0.67,0-1.417,0.188-2.242,0.561l-0.431-0.936c0.893-0.438,1.766-0.656,2.618-0.656
		c1.035,0,1.783,0.197,2.246,0.594s0.694,1.033,0.694,1.908v5.141H93.321z M92.986,158.404l-1.107,0.049
		c-0.893,0.036-1.527,0.176-1.9,0.42s-0.561,0.616-0.561,1.117c0,0.812,0.456,1.217,1.367,1.217c0.67,0,1.204-0.186,1.603-0.557
		s0.598-0.895,0.598-1.568V158.404z"/>
	<path fill="#1B181A" d="M96.165,154.57h1.285l1.791,4.471c0.374,0.934,0.577,1.595,0.608,1.982h0.041
		c0.105-0.511,0.31-1.176,0.615-1.996l1.634-4.457h1.292l-3.247,8.482c-0.305,0.793-0.661,1.389-1.066,1.788
		s-0.966,0.599-1.682,0.599c-0.392,0-0.775-0.039-1.148-0.117v-0.99c0.283,0.055,0.592,0.082,0.93,0.082
		c0.438,0,0.778-0.094,1.022-0.281c0.244-0.187,0.461-0.508,0.653-0.963l0.396-1.025L96.165,154.57z"/>
	<path fill="#1B181A" d="M109.188,162.076h-1.203v-6.242c0-0.556,0.018-1.378,0.055-2.467c-0.178,0.195-0.454,0.453-0.827,0.771
		l-1.005,0.828l-0.663-0.842l2.618-2.043h1.025V162.076z"/>
</g>
<g>
	<path fill="#1B181A" d="M159.637,193.009c-0.895,0-1.572-0.378-2.033-1.134s-0.691-1.849-0.691-3.278
		c0-2.938,0.908-4.406,2.725-4.406c0.906,0,1.591,0.378,2.054,1.134s0.694,1.847,0.694,3.272
		C162.385,191.538,161.469,193.009,159.637,193.009z M159.637,192.101c0.574,0,0.996-0.274,1.266-0.823s0.404-1.442,0.404-2.681
		c0-1.23-0.135-2.12-0.404-2.669s-0.691-0.823-1.266-0.823c-0.566,0-0.981,0.272-1.245,0.817s-0.396,1.437-0.396,2.675
		c0,1.242,0.132,2.137,0.396,2.684S159.071,192.101,159.637,192.101z"/>
	<path fill="#1B181A" d="M186.751,192.892h-1.031v-5.35c0-0.477,0.016-1.182,0.047-2.115c-0.152,0.168-0.389,0.389-0.709,0.662
		l-0.861,0.709l-0.568-0.721l2.244-1.752h0.879V192.892z"/>
	<path fill="#1B181A" d="M214.832,192.892h-5.338v-0.914l2.051-2.232c0.762-0.832,1.264-1.452,1.506-1.86s0.363-0.858,0.363-1.351
		c0-0.441-0.124-0.79-0.372-1.046s-0.583-0.384-1.005-0.384c-0.625,0-1.246,0.268-1.863,0.803l-0.598-0.697
		c0.75-0.672,1.574-1.008,2.473-1.008c0.758,0,1.355,0.207,1.793,0.621s0.656,0.971,0.656,1.67c0,0.465-0.115,0.941-0.346,1.43
		s-0.799,1.221-1.705,2.197l-1.646,1.752v0.047h4.031V192.892z"/>
	<path fill="#1B181A" d="M238.881,188.38v0.035c1.41,0.184,2.115,0.863,2.115,2.039c0,0.793-0.27,1.417-0.809,1.872
		s-1.318,0.683-2.338,0.683c-0.945,0-1.701-0.154-2.268-0.463v-0.996c0.719,0.375,1.467,0.563,2.244,0.563
		c1.383,0,2.074-0.564,2.074-1.693c0-1.008-0.744-1.512-2.232-1.512h-0.779v-0.885h0.779c0.625,0,1.109-0.148,1.453-0.445
		s0.516-0.689,0.516-1.178c0-0.398-0.133-0.714-0.398-0.946s-0.621-0.349-1.066-0.349c-0.695,0-1.367,0.236-2.016,0.709
		l-0.539-0.732c0.73-0.586,1.582-0.879,2.555-0.879c0.805,0,1.433,0.193,1.884,0.58s0.677,0.902,0.677,1.547
		c0,0.539-0.16,0.99-0.48,1.354S239.475,188.278,238.881,188.38z"/>
	<path fill="#1B181A" d="M267.67,190.97h-1.248v1.922h-1.031v-1.922h-3.961v-0.932l3.891-5.76h1.102v5.719h1.248V190.97z
		 M265.391,189.997v-2.086c0-0.688,0.025-1.531,0.076-2.531h-0.053c-0.141,0.398-0.316,0.75-0.527,1.055l-2.408,3.563H265.391z"/>
	<path fill="#1B181A" d="M288.339,192.546v-1.008c0.563,0.375,1.266,0.563,2.109,0.563c1.313,0,1.969-0.613,1.969-1.84
		c0-1.148-0.672-1.723-2.016-1.723c-0.348,0-0.799,0.051-1.354,0.152l-0.527-0.334l0.322-4.031h4.043v0.973h-3.117l-0.229,2.455
		c0.418-0.078,0.826-0.117,1.225-0.117c0.82,0,1.483,0.224,1.989,0.671s0.759,1.06,0.759,1.837c0,0.914-0.27,1.62-0.809,2.118
		s-1.299,0.747-2.279,0.747C289.55,193.009,288.854,192.854,288.339,192.546z"/>
	<path fill="#1B181A" d="M319.244,184.313v0.908c-0.277-0.094-0.602-0.141-0.973-0.141c-0.875,0-1.532,0.275-1.972,0.826
		s-0.679,1.424-0.718,2.619h0.07c0.371-0.664,0.971-0.996,1.799-0.996c0.762,0,1.358,0.232,1.79,0.697s0.647,1.1,0.647,1.904
		c0,0.891-0.235,1.593-0.706,2.106s-1.103,0.771-1.896,0.771c-0.852,0-1.53-0.329-2.036-0.987s-0.759-1.589-0.759-2.792
		c0-3.352,1.248-5.027,3.744-5.027C318.642,184.202,318.978,184.239,319.244,184.313z M318.857,190.132
		c0-0.566-0.134-1.002-0.401-1.307s-0.649-0.457-1.146-0.457s-0.912,0.158-1.248,0.475s-0.504,0.678-0.504,1.084
		c0,0.594,0.158,1.106,0.475,1.538s0.73,0.647,1.242,0.647c0.496,0,0.884-0.172,1.163-0.516S318.857,190.765,318.857,190.132z"/>
	<path fill="#1B181A" d="M341.805,192.892l3.299-7.594h-4.418v-0.973h5.508v0.85l-3.252,7.717H341.805z"/>
	<path fill="#1B181A" d="M370.57,188.356c1.207,0.625,1.811,1.393,1.811,2.303c0,0.707-0.246,1.275-0.738,1.705
		s-1.143,0.645-1.951,0.645c-0.844,0-1.502-0.202-1.975-0.606s-0.709-0.97-0.709-1.696c0-1.004,0.551-1.771,1.652-2.303
		c-0.918-0.57-1.377-1.291-1.377-2.162c0-0.629,0.228-1.128,0.683-1.497s1.03-0.554,1.726-0.554c0.719,0,1.301,0.186,1.746,0.557
		s0.668,0.873,0.668,1.506C372.105,187.151,371.594,187.853,370.57,188.356z M369.539,188.813c-0.992,0.473-1.488,1.107-1.488,1.904
		c0,0.938,0.539,1.406,1.617,1.406c0.531,0,0.942-0.128,1.233-0.384s0.437-0.612,0.437-1.069c0-0.352-0.123-0.663-0.369-0.935
		s-0.664-0.552-1.254-0.841L369.539,188.813z M369.703,187.923c0.906-0.402,1.359-0.945,1.359-1.629
		c0-0.395-0.123-0.695-0.369-0.902s-0.584-0.311-1.014-0.311c-0.414,0-0.743,0.104-0.987,0.311s-0.366,0.508-0.366,0.902
		c0,0.352,0.097,0.649,0.29,0.894S369.172,187.677,369.703,187.923z"/>
	<path fill="#1B181A" d="M393.899,192.903v-0.914c0.262,0.098,0.586,0.146,0.973,0.146c0.875,0,1.532-0.275,1.972-0.826
		s0.679-1.424,0.718-2.619h-0.07c-0.375,0.664-0.977,0.996-1.805,0.996c-0.758,0-1.353-0.23-1.784-0.691s-0.647-1.098-0.647-1.91
		c0-0.891,0.235-1.594,0.706-2.109s1.103-0.773,1.896-0.773c0.859,0,1.54,0.334,2.042,1.002s0.753,1.594,0.753,2.777
		c0,3.352-1.248,5.027-3.744,5.027C394.497,193.009,394.161,192.974,393.899,192.903z M394.286,187.085
		c0,0.566,0.134,1.002,0.401,1.307s0.649,0.457,1.146,0.457s0.912-0.159,1.248-0.478s0.504-0.679,0.504-1.081
		c0-0.59-0.156-1.102-0.469-1.535s-0.729-0.65-1.248-0.65c-0.5,0-0.889,0.17-1.166,0.51S394.286,186.444,394.286,187.085z"/>
	<path fill="#1B181A" d="M420.136,192.892h-1.031v-5.35c0-0.477,0.016-1.182,0.047-2.115c-0.152,0.168-0.389,0.389-0.709,0.662
		l-0.861,0.709l-0.568-0.721l2.244-1.752h0.879V192.892z"/>
	<path fill="#1B181A" d="M426.481,193.009c-0.895,0-1.572-0.378-2.033-1.134s-0.691-1.849-0.691-3.278
		c0-2.938,0.908-4.406,2.725-4.406c0.906,0,1.591,0.378,2.054,1.134s0.694,1.847,0.694,3.272
		C429.229,191.538,428.313,193.009,426.481,193.009z M426.481,192.101c0.574,0,0.996-0.274,1.266-0.823s0.404-1.442,0.404-2.681
		c0-1.23-0.135-2.12-0.404-2.669s-0.691-0.823-1.266-0.823c-0.566,0-0.981,0.272-1.245,0.817s-0.396,1.437-0.396,2.675
		c0,1.242,0.132,2.137,0.396,2.684S425.915,192.101,426.481,192.101z"/>
</g>
<g>
	<path fill="#1B181A" d="M446.477,192.892h-1.031v-5.35c0-0.477,0.016-1.182,0.047-2.115c-0.152,0.168-0.389,0.389-0.709,0.662
		l-0.861,0.709l-0.568-0.721l2.244-1.752h0.879V192.892z"/>
	<path fill="#1B181A" d="M454.086,192.892h-1.031v-5.35c0-0.477,0.016-1.182,0.047-2.115c-0.152,0.168-0.389,0.389-0.709,0.662
		l-0.861,0.709l-0.568-0.721l2.244-1.752h0.879V192.892z"/>
	<path fill="#1B181A" d="M472.977,192.892h-1.031v-5.35c0-0.477,0.016-1.182,0.047-2.115c-0.152,0.168-0.389,0.389-0.709,0.662
		l-0.861,0.709l-0.568-0.721l2.244-1.752h0.879V192.892z"/>
	<path fill="#1B181A" d="M482,192.892h-5.338v-0.914l2.051-2.232c0.762-0.832,1.264-1.452,1.506-1.86s0.363-0.858,0.363-1.351
		c0-0.441-0.124-0.79-0.372-1.046s-0.583-0.384-1.005-0.384c-0.625,0-1.246,0.268-1.863,0.803l-0.598-0.697
		c0.75-0.672,1.574-1.008,2.473-1.008c0.758,0,1.355,0.207,1.793,0.621s0.656,0.971,0.656,1.67c0,0.465-0.115,0.941-0.346,1.43
		s-0.799,1.221-1.705,2.197l-1.646,1.752v0.047H482V192.892z"/>
	<path fill="#1B181A" d="M499.056,192.892h-1.031v-5.35c0-0.477,0.016-1.182,0.047-2.115c-0.152,0.168-0.389,0.389-0.709,0.662
		l-0.861,0.709l-0.568-0.721l2.244-1.752h0.879V192.892z"/>
	<path fill="#1B181A" d="M505.882,188.38v0.035c1.41,0.184,2.115,0.863,2.115,2.039c0,0.793-0.27,1.417-0.809,1.872
		s-1.318,0.683-2.338,0.683c-0.945,0-1.701-0.154-2.268-0.463v-0.996c0.719,0.375,1.467,0.563,2.244,0.563
		c1.383,0,2.074-0.564,2.074-1.693c0-1.008-0.744-1.512-2.232-1.512h-0.779v-0.885h0.779c0.625,0,1.109-0.148,1.453-0.445
		s0.516-0.689,0.516-1.178c0-0.398-0.133-0.714-0.398-0.946s-0.621-0.349-1.066-0.349c-0.695,0-1.367,0.236-2.016,0.709
		l-0.539-0.732c0.73-0.586,1.582-0.879,2.555-0.879c0.805,0,1.433,0.193,1.884,0.58s0.677,0.902,0.677,1.547
		c0,0.539-0.16,0.99-0.48,1.354S506.476,188.278,505.882,188.38z"/>
	<path fill="#1B181A" d="M525.147,192.892h-1.031v-5.35c0-0.477,0.016-1.182,0.047-2.115c-0.152,0.168-0.389,0.389-0.709,0.662
		l-0.861,0.709l-0.568-0.721l2.244-1.752h0.879V192.892z"/>
	<path fill="#1B181A" d="M534.505,190.97h-1.248v1.922h-1.031v-1.922h-3.961v-0.932l3.891-5.76h1.102v5.719h1.248V190.97z
		 M532.226,189.997v-2.086c0-0.688,0.025-1.531,0.076-2.531h-0.053c-0.141,0.398-0.316,0.75-0.527,1.055l-2.408,3.563H532.226z"/>
	<path fill="#1B181A" d="M551.238,192.892h-1.031v-5.35c0-0.477,0.016-1.182,0.047-2.115c-0.152,0.168-0.389,0.389-0.709,0.662
		l-0.861,0.709l-0.568-0.721l2.244-1.752h0.879V192.892z"/>
	<path fill="#1B181A" d="M555.006,192.546v-1.008c0.563,0.375,1.266,0.563,2.109,0.563c1.313,0,1.969-0.613,1.969-1.84
		c0-1.148-0.672-1.723-2.016-1.723c-0.348,0-0.799,0.051-1.354,0.152l-0.527-0.334l0.322-4.031h4.043v0.973h-3.117l-0.229,2.455
		c0.418-0.078,0.826-0.117,1.225-0.117c0.82,0,1.483,0.224,1.989,0.671s0.759,1.06,0.759,1.837c0,0.914-0.27,1.62-0.809,2.118
		s-1.299,0.747-2.279,0.747C556.217,193.009,555.521,192.854,555.006,192.546z"/>
	<path fill="#1B181A" d="M577.33,192.892h-1.031v-5.35c0-0.477,0.016-1.182,0.047-2.115c-0.152,0.168-0.389,0.389-0.709,0.662
		l-0.861,0.709l-0.568-0.721l2.244-1.752h0.879V192.892z"/>
	<path fill="#1B181A" d="M585.744,184.313v0.908c-0.277-0.094-0.602-0.141-0.973-0.141c-0.875,0-1.532,0.275-1.972,0.826
		s-0.679,1.424-0.718,2.619h0.07c0.371-0.664,0.971-0.996,1.799-0.996c0.762,0,1.358,0.232,1.79,0.697s0.647,1.1,0.647,1.904
		c0,0.891-0.235,1.593-0.706,2.106s-1.103,0.771-1.896,0.771c-0.852,0-1.53-0.329-2.036-0.987s-0.759-1.589-0.759-2.792
		c0-3.352,1.248-5.027,3.744-5.027C585.143,184.202,585.479,184.239,585.744,184.313z M585.357,190.132
		c0-0.566-0.134-1.002-0.401-1.307s-0.649-0.457-1.146-0.457s-0.912,0.158-1.248,0.475s-0.504,0.678-0.504,1.084
		c0,0.594,0.158,1.106,0.475,1.538s0.73,0.647,1.242,0.647c0.496,0,0.884-0.172,1.163-0.516S585.357,190.765,585.357,190.132z"/>
	<path fill="#1B181A" d="M603.409,192.892h-1.031v-5.35c0-0.477,0.016-1.182,0.047-2.115c-0.152,0.168-0.389,0.389-0.709,0.662
		l-0.861,0.709l-0.568-0.721l2.244-1.752h0.879V192.892z"/>
	<path fill="#1B181A" d="M608.126,192.892l3.299-7.594h-4.418v-0.973h5.508v0.85l-3.252,7.717H608.126z"/>
	<path fill="#1B181A" d="M629.501,192.892h-1.031v-5.35c0-0.477,0.016-1.182,0.047-2.115c-0.152,0.168-0.389,0.389-0.709,0.662
		l-0.861,0.709l-0.568-0.721l2.244-1.752h0.879V192.892z"/>
	<path fill="#1B181A" d="M636.737,188.356c1.207,0.625,1.811,1.393,1.811,2.303c0,0.707-0.246,1.275-0.738,1.705
		s-1.143,0.645-1.951,0.645c-0.844,0-1.502-0.202-1.975-0.606s-0.709-0.97-0.709-1.696c0-1.004,0.551-1.771,1.652-2.303
		c-0.918-0.57-1.377-1.291-1.377-2.162c0-0.629,0.228-1.128,0.683-1.497s1.03-0.554,1.726-0.554c0.719,0,1.301,0.186,1.746,0.557
		s0.668,0.873,0.668,1.506C638.272,187.151,637.761,187.853,636.737,188.356z M635.706,188.813
		c-0.992,0.473-1.488,1.107-1.488,1.904c0,0.938,0.539,1.406,1.617,1.406c0.531,0,0.942-0.128,1.233-0.384s0.437-0.612,0.437-1.069
		c0-0.352-0.123-0.663-0.369-0.935s-0.664-0.552-1.254-0.841L635.706,188.813z M635.87,187.923c0.906-0.402,1.359-0.945,1.359-1.629
		c0-0.395-0.123-0.695-0.369-0.902s-0.584-0.311-1.014-0.311c-0.414,0-0.743,0.104-0.987,0.311s-0.366,0.508-0.366,0.902
		c0,0.352,0.097,0.649,0.29,0.894S635.339,187.677,635.87,187.923z"/>
	<path fill="#1B181A" d="M655.593,192.892h-1.031v-5.35c0-0.477,0.016-1.182,0.047-2.115c-0.152,0.168-0.389,0.389-0.709,0.662
		l-0.861,0.709l-0.568-0.721l2.244-1.752h0.879V192.892z"/>
	<path fill="#1B181A" d="M659.899,192.903v-0.914c0.262,0.098,0.586,0.146,0.973,0.146c0.875,0,1.532-0.275,1.972-0.826
		s0.679-1.424,0.718-2.619h-0.07c-0.375,0.664-0.977,0.996-1.805,0.996c-0.758,0-1.353-0.23-1.784-0.691s-0.647-1.098-0.647-1.91
		c0-0.891,0.235-1.594,0.706-2.109s1.103-0.773,1.896-0.773c0.859,0,1.54,0.334,2.042,1.002s0.753,1.594,0.753,2.777
		c0,3.352-1.248,5.027-3.744,5.027C660.497,193.009,660.161,192.974,659.899,192.903z M660.286,187.085
		c0,0.566,0.134,1.002,0.401,1.307s0.649,0.457,1.146,0.457s0.912-0.159,1.248-0.478s0.504-0.679,0.504-1.081
		c0-0.59-0.156-1.102-0.469-1.535s-0.729-0.65-1.248-0.65c-0.5,0-0.889,0.17-1.166,0.51S660.286,186.444,660.286,187.085z"/>
</g>
<line fill="none" stroke="#1B181A" stroke-width="2" x1="114.766" y1="158.477" x2="140.508" y2="158.477"/>
<polygon fill="#1B181A" points="138.477,162.543 137.266,161.332 140.117,158.477 137.266,155.625 138.477,154.414 142.539,158.477 
	"/>
<line fill="none" stroke="#1B181A" x1="62" y1="114" x2="672.004" y2="114"/>
<g>
	<path fill="#231F20" d="M18.128,51.43c0,0.636,0.025,1.263,0.074,1.883s0.158,1.207,0.324,1.762s0.413,1.066,0.738,1.535
		s0.762,0.87,1.309,1.203v0.734c-0.734-0.292-1.362-0.646-1.883-1.063s-0.947-0.913-1.277-1.488s-0.572-1.239-0.723-1.992
		s-0.227-1.61-0.227-2.574s0.076-1.819,0.227-2.566s0.392-1.407,0.723-1.98s0.756-1.066,1.277-1.48s1.148-0.767,1.883-1.059v0.719
		c-0.547,0.333-0.983,0.733-1.309,1.199s-0.572,0.976-0.738,1.527s-0.275,1.138-0.324,1.758S18.128,50.794,18.128,51.43z"/>
	<path fill="#231F20" d="M24.946,48.563c-0.308,0-0.556,0.043-0.746,0.129c-0.19,0.086-0.339,0.207-0.445,0.363
		c-0.107,0.156-0.179,0.341-0.215,0.555c-0.037,0.214-0.055,0.445-0.055,0.695c-0.443,0-0.78-0.075-1.012-0.227
		c-0.232-0.151-0.348-0.411-0.348-0.781c0-0.276,0.075-0.511,0.227-0.703c0.151-0.192,0.358-0.351,0.621-0.473
		c0.263-0.122,0.569-0.212,0.918-0.27c0.349-0.058,0.721-0.086,1.117-0.086c0.489,0,0.917,0.048,1.281,0.145
		c0.364,0.097,0.669,0.254,0.914,0.473c0.245,0.219,0.428,0.504,0.551,0.855c0.122,0.352,0.184,0.782,0.184,1.293v4.148
		c0,0.224,0.018,0.409,0.055,0.555c0.036,0.146,0.094,0.263,0.172,0.352s0.181,0.151,0.309,0.188
		c0.127,0.036,0.28,0.055,0.457,0.055h0.047V56.5h-2.164l-0.25-1.375h-0.133c-0.167,0.224-0.328,0.43-0.484,0.617
		s-0.328,0.349-0.516,0.484s-0.4,0.241-0.637,0.316c-0.237,0.075-0.522,0.113-0.855,0.113c-0.354,0-0.684-0.051-0.988-0.152
		s-0.568-0.258-0.789-0.469c-0.222-0.211-0.395-0.477-0.52-0.797s-0.188-0.699-0.188-1.137c0-0.849,0.302-1.479,0.906-1.891
		c0.604-0.411,1.518-0.636,2.742-0.672l1.328-0.047v-0.961c0-0.286-0.016-0.551-0.047-0.793s-0.099-0.45-0.203-0.625
		c-0.104-0.175-0.254-0.31-0.449-0.406S25.274,48.563,24.946,48.563z M23.009,54.18c0,0.5,0.105,0.874,0.316,1.121
		s0.538,0.371,0.98,0.371c0.323,0,0.616-0.052,0.879-0.156c0.263-0.104,0.487-0.253,0.672-0.445
		c0.185-0.192,0.327-0.427,0.426-0.703c0.099-0.276,0.148-0.583,0.148-0.922v-1.297l-1.023,0.047
		c-0.453,0.021-0.832,0.077-1.137,0.168s-0.551,0.219-0.738,0.383s-0.322,0.366-0.402,0.605
		C23.049,53.591,23.009,53.867,23.009,54.18z"/>
	<path fill="#231F20" d="M32.306,51.43c0-0.636-0.025-1.263-0.074-1.883s-0.159-1.206-0.328-1.758s-0.416-1.062-0.738-1.527
		s-0.758-0.866-1.305-1.199v-0.719c0.734,0.292,1.362,0.645,1.883,1.059s0.945,0.907,1.273,1.48s0.569,1.233,0.723,1.98
		s0.23,1.603,0.23,2.566s-0.077,1.821-0.23,2.574s-0.395,1.417-0.723,1.992s-0.752,1.071-1.273,1.488s-1.148,0.771-1.883,1.063
		v-0.734c0.547-0.333,0.982-0.734,1.305-1.203s0.569-0.98,0.738-1.535s0.279-1.142,0.328-1.762S32.306,52.065,32.306,51.43z"/>
</g>
<g>
	<path fill="#231F20" d="M17.373,197.283c0,0.636,0.025,1.264,0.074,1.883c0.049,0.62,0.158,1.207,0.324,1.762
		s0.413,1.066,0.738,1.535s0.762,0.87,1.309,1.203v0.734c-0.734-0.291-1.362-0.646-1.883-1.063
		c-0.521-0.416-0.947-0.912-1.277-1.488c-0.331-0.575-0.572-1.239-0.723-1.992c-0.151-0.752-0.227-1.61-0.227-2.574
		c0-0.963,0.076-1.818,0.227-2.566c0.151-0.747,0.392-1.407,0.723-1.98c0.331-0.572,0.756-1.066,1.277-1.48s1.148-0.767,1.883-1.059
		v0.719c-0.547,0.334-0.983,0.733-1.309,1.199c-0.326,0.467-0.572,0.976-0.738,1.527c-0.167,0.553-0.275,1.139-0.324,1.758
		C17.397,196.021,17.373,196.648,17.373,197.283z"/>
	<path fill="#231F20" d="M28.847,198.049c0,0.771-0.072,1.438-0.215,2c-0.144,0.563-0.353,1.026-0.629,1.391
		c-0.276,0.365-0.617,0.635-1.023,0.809c-0.406,0.175-0.873,0.262-1.398,0.262c-0.308,0-0.586-0.033-0.836-0.102
		c-0.25-0.067-0.476-0.164-0.676-0.289c-0.201-0.125-0.378-0.273-0.531-0.445c-0.154-0.172-0.288-0.361-0.402-0.57h-0.102
		l-0.281,1.25H20.19v-0.672h0.125c0.182,0,0.353-0.013,0.512-0.039c0.159-0.025,0.297-0.079,0.414-0.16
		c0.117-0.08,0.211-0.196,0.281-0.348c0.07-0.15,0.105-0.352,0.105-0.602v-8.578c0-0.234-0.035-0.423-0.105-0.566
		c-0.07-0.143-0.166-0.254-0.285-0.332c-0.12-0.078-0.259-0.129-0.418-0.152c-0.159-0.023-0.327-0.035-0.504-0.035H20.19v-0.672
		h2.945v2.938c0,0.183-0.003,0.393-0.008,0.629c-0.005,0.237-0.013,0.465-0.023,0.684c-0.011,0.25-0.021,0.508-0.031,0.773h0.063
		c0.12-0.244,0.255-0.466,0.406-0.664c0.151-0.197,0.325-0.365,0.523-0.504c0.198-0.138,0.422-0.244,0.672-0.32
		c0.25-0.075,0.531-0.113,0.844-0.113c0.526,0,0.992,0.088,1.398,0.262c0.406,0.175,0.747,0.443,1.023,0.805
		c0.276,0.362,0.485,0.822,0.629,1.379C28.775,196.622,28.847,197.283,28.847,198.049z M25.308,194.643
		c-0.417,0-0.765,0.069-1.043,0.207c-0.279,0.139-0.501,0.348-0.668,0.629c-0.167,0.281-0.285,0.636-0.355,1.063
		c-0.07,0.428-0.105,0.93-0.105,1.508c0,0.558,0.035,1.05,0.105,1.477c0.07,0.428,0.19,0.787,0.359,1.078
		c0.169,0.292,0.393,0.512,0.672,0.66c0.278,0.148,0.629,0.223,1.051,0.223c0.354,0,0.655-0.074,0.902-0.223
		c0.247-0.148,0.45-0.368,0.609-0.66c0.159-0.291,0.274-0.652,0.348-1.082c0.073-0.43,0.109-0.926,0.109-1.488
		c0-0.567-0.037-1.063-0.109-1.488c-0.073-0.424-0.189-0.777-0.348-1.059c-0.159-0.281-0.365-0.492-0.617-0.633
		C25.965,194.713,25.662,194.643,25.308,194.643z"/>
	<path fill="#231F20" d="M33.035,197.283c0-0.635-0.025-1.263-0.074-1.883c-0.049-0.619-0.159-1.205-0.328-1.758
		c-0.169-0.552-0.416-1.061-0.738-1.527c-0.323-0.466-0.758-0.865-1.305-1.199v-0.719c0.734,0.292,1.362,0.645,1.883,1.059
		s0.945,0.908,1.273,1.48c0.328,0.573,0.569,1.233,0.723,1.98c0.154,0.748,0.23,1.604,0.23,2.566c0,0.964-0.077,1.822-0.23,2.574
		c-0.154,0.753-0.395,1.417-0.723,1.992c-0.328,0.576-0.752,1.072-1.273,1.488c-0.521,0.417-1.148,0.771-1.883,1.063v-0.734
		c0.547-0.333,0.982-0.734,1.305-1.203s0.569-0.98,0.738-1.535s0.279-1.142,0.328-1.762
		C33.01,198.547,33.035,197.919,33.035,197.283z"/>
</g>
</svg>
