<?xml version="1.0" encoding="iso-8859-1"?>
<!-- Generator: Adobe Illustrator 14.0.0, SVG Export Plug-In . SVG Version: 6.00 Build 43363)  -->
<!DOCTYPE svg PUBLIC "-//W3C//DTD SVG 1.1//EN" "http://www.w3.org/Graphics/SVG/1.1/DTD/svg11.dtd">
<svg version="1.1" id="Layer_1" xmlns="http://www.w3.org/2000/svg" xmlns:xlink="http://www.w3.org/1999/xlink" x="0px" y="0px"
	 width="1020px" height="70px" viewBox="0 0 1020 70" enable-background="new 0 0 1020 70" xml:space="preserve">
<rect x="12.5" y="10" fill="#E3F6F8" width="100" height="50"/>
<rect x="12.5" y="10" fill="none" stroke="#231F20" width="100" height="50"/>
<g>
	<path fill="#231F20" d="M23.371,27.578l-0.32,4.125H21.84l-0.32-4.125H23.371z M26.668,27.578l-0.32,4.125h-1.211l-0.32-4.125
		H26.668z"/>
	<path fill="#231F20" d="M35.887,39l-0.289-1.188h-0.063c-0.401,0.506-0.813,0.855-1.234,1.051s-0.966,0.293-1.633,0.293
		c-0.849,0-1.515-0.224-1.996-0.672c-0.482-0.447-0.723-1.075-0.723-1.883c0-1.729,1.328-2.635,3.984-2.719l1.586-0.055v-0.539
		c0-1.229-0.636-1.844-1.906-1.844c-0.766,0-1.62,0.214-2.563,0.641l-0.492-1.07c1.021-0.5,2.018-0.75,2.992-0.75
		c1.182,0,2.038,0.227,2.566,0.68c0.528,0.453,0.793,1.18,0.793,2.18V39H35.887z M35.504,34.805l-1.266,0.055
		c-1.021,0.042-1.745,0.202-2.172,0.48c-0.427,0.279-0.641,0.705-0.641,1.277c0,0.928,0.521,1.391,1.563,1.391
		c0.766,0,1.376-0.212,1.832-0.637c0.456-0.424,0.684-1.021,0.684-1.793V34.805z"/>
	<path fill="#231F20" d="M41.152,37.914h-0.094L40.77,39H39.73V26.844h1.422v2.938c0,0.422-0.021,1.011-0.063,1.766h0.063
		c0.557-0.854,1.396-1.281,2.516-1.281c1.047,0,1.868,0.39,2.465,1.168c0.596,0.779,0.895,1.866,0.895,3.262
		c0,1.406-0.3,2.502-0.898,3.285c-0.599,0.784-1.419,1.176-2.461,1.176C42.59,39.156,41.751,38.742,41.152,37.914z M41.152,34.695
		c0,1.183,0.181,2.025,0.543,2.527c0.362,0.503,0.938,0.754,1.73,0.754c1.417,0,2.125-1.099,2.125-3.297
		c0-2.156-0.714-3.234-2.141-3.234c-0.808,0-1.386,0.245-1.734,0.734C41.327,32.669,41.152,33.508,41.152,34.695z"/>
	<path fill="#231F20" d="M55.09,39l-0.289-1.188h-0.063c-0.401,0.506-0.813,0.855-1.234,1.051s-0.966,0.293-1.633,0.293
		c-0.849,0-1.515-0.224-1.996-0.672c-0.482-0.447-0.723-1.075-0.723-1.883c0-1.729,1.328-2.635,3.984-2.719l1.586-0.055v-0.539
		c0-1.229-0.636-1.844-1.906-1.844c-0.766,0-1.62,0.214-2.563,0.641l-0.492-1.07c1.021-0.5,2.018-0.75,2.992-0.75
		c1.182,0,2.038,0.227,2.566,0.68c0.528,0.453,0.793,1.18,0.793,2.18V39H55.09z M54.707,34.805l-1.266,0.055
		c-1.021,0.042-1.745,0.202-2.172,0.48c-0.427,0.279-0.641,0.705-0.641,1.277c0,0.928,0.521,1.391,1.563,1.391
		c0.766,0,1.376-0.212,1.832-0.637c0.456-0.424,0.684-1.021,0.684-1.793V34.805z"/>
	<path fill="#231F20" d="M64.629,39v-5.523c0-1.354-0.62-2.031-1.859-2.031c-1.599,0-2.398,1.037-2.398,3.109V39h-1.422v-8.578
		h1.148l0.211,1.156h0.078c0.536-0.875,1.411-1.313,2.625-1.313c2.026,0,3.039,1.044,3.039,3.133V39H64.629z"/>
	<path fill="#231F20" d="M74.309,37.852h-0.063c-0.589,0.87-1.427,1.305-2.516,1.305c-1.047,0-1.869-0.389-2.465-1.168
		c-0.597-0.778-0.895-1.865-0.895-3.262c0-1.406,0.299-2.501,0.898-3.285c0.599-0.784,1.419-1.176,2.461-1.176
		c1.073,0,1.911,0.417,2.516,1.25h0.094c-0.063-0.672-0.094-1.094-0.094-1.266v-3.406h1.422V39H74.52L74.309,37.852z M74.246,35.047
		v-0.32c0-1.182-0.181-2.024-0.543-2.527c-0.362-0.502-0.939-0.754-1.73-0.754c-1.417,0-2.125,1.099-2.125,3.297
		c0,2.156,0.713,3.234,2.141,3.234c0.792,0,1.36-0.23,1.707-0.691C74.042,36.824,74.225,36.078,74.246,35.047z"/>
	<path fill="#231F20" d="M81.668,39.156c-1.125,0-2.051-0.404-2.777-1.215c-0.727-0.81-1.09-1.892-1.09-3.246
		c0-1.37,0.353-2.45,1.059-3.242c0.706-0.792,1.657-1.188,2.855-1.188c1.135,0,2.065,0.404,2.789,1.211
		c0.724,0.808,1.086,1.88,1.086,3.219c0,1.381-0.357,2.469-1.07,3.266C83.806,38.758,82.855,39.156,81.668,39.156z M81.699,37.977
		c1.614,0,2.422-1.094,2.422-3.281c0-2.167-0.813-3.25-2.438-3.25c-1.609,0-2.414,1.083-2.414,3.25
		C79.27,36.883,80.079,37.977,81.699,37.977z"/>
	<path fill="#231F20" d="M93.434,39v-5.523c0-1.354-0.62-2.031-1.859-2.031c-1.599,0-2.398,1.037-2.398,3.109V39h-1.422v-8.578
		h1.148l0.211,1.156h0.078c0.536-0.875,1.411-1.313,2.625-1.313c2.026,0,3.039,1.044,3.039,3.133V39H93.434z"/>
	<path fill="#231F20" d="M100.184,27.578l-0.32,4.125h-1.211l-0.32-4.125H100.184z M103.48,27.578l-0.32,4.125h-1.211l-0.32-4.125
		H103.48z"/>
</g>
<rect x="162.5" y="10" fill="#E3F6F8" width="100" height="50"/>
<rect x="162.5" y="10" fill="none" stroke="#231F20" width="100" height="50"/>
<g>
	<path fill="#231F20" d="M192.574,27.578l-0.32,4.125h-1.211l-0.32-4.125H192.574z M195.871,27.578l-0.32,4.125h-1.211l-0.32-4.125
		H195.871z"/>
	<path fill="#231F20" d="M205.09,39l-0.289-1.188h-0.063c-0.401,0.506-0.813,0.855-1.234,1.051s-0.966,0.293-1.633,0.293
		c-0.849,0-1.515-0.224-1.996-0.672c-0.482-0.447-0.723-1.075-0.723-1.883c0-1.729,1.328-2.635,3.984-2.719l1.586-0.055v-0.539
		c0-1.229-0.636-1.844-1.906-1.844c-0.766,0-1.62,0.214-2.563,0.641l-0.492-1.07c1.021-0.5,2.018-0.75,2.992-0.75
		c1.182,0,2.038,0.227,2.566,0.68c0.528,0.453,0.793,1.18,0.793,2.18V39H205.09z M204.707,34.805l-1.266,0.055
		c-1.021,0.042-1.745,0.202-2.172,0.48c-0.427,0.279-0.641,0.705-0.641,1.277c0,0.928,0.521,1.391,1.563,1.391
		c0.766,0,1.376-0.212,1.832-0.637c0.456-0.424,0.684-1.021,0.684-1.793V34.805z"/>
	<path fill="#231F20" d="M211.855,27.961l-2.094-0.164v-0.953h3.523v11.039l2.75,0.156V39h-6.867v-0.961l2.688-0.156V27.961z"/>
	<path fill="#231F20" d="M221.457,27.961l-2.094-0.164v-0.953h3.523v11.039l2.75,0.156V39h-6.867v-0.961l2.688-0.156V27.961z"/>
	<path fill="#231F20" d="M230.98,27.578l-0.32,4.125h-1.211l-0.32-4.125H230.98z M234.277,27.578l-0.32,4.125h-1.211l-0.32-4.125
		H234.277z"/>
</g>
<line fill="none" stroke="#231F20" stroke-width="2" x1="112.5" y1="35" x2="158.5" y2="35"/>
<polygon fill="#231F20" points="156.465,39.066 155.254,37.852 158.109,35 155.254,32.145 156.465,30.934 160.531,35 "/>
<line fill="none" stroke="#231F20" stroke-width="2" x1="262.5" y1="35" x2="308.5" y2="35"/>
<polygon fill="#231F20" points="306.465,39.066 305.254,37.852 308.109,35 305.254,32.145 306.465,30.934 310.531,35 "/>
<rect x="312.5" y="10" fill="#E3F6F8" width="100" height="50"/>
<rect x="312.5" y="10" fill="none" stroke="#231F20" width="100" height="50"/>
<g>
	<path fill="#231F20" d="M337.773,27.578l-0.32,4.125h-1.211l-0.32-4.125H337.773z M341.07,27.578l-0.32,4.125h-1.211l-0.32-4.125
		H341.07z"/>
	<path fill="#231F20" d="M350.227,39v-5.523c0-1.354-0.62-2.031-1.859-2.031c-1.599,0-2.398,1.037-2.398,3.109V39h-1.422V26.844
		h1.422v3.609l-0.063,1.125h0.078c0.536-0.875,1.411-1.313,2.625-1.313c2.026,0,3.039,1.044,3.039,3.133V39H350.227z"/>
	<path fill="#231F20" d="M357.664,39.156c-1.125,0-2.051-0.404-2.777-1.215c-0.727-0.81-1.09-1.892-1.09-3.246
		c0-1.37,0.353-2.45,1.059-3.242c0.706-0.792,1.657-1.188,2.855-1.188c1.135,0,2.065,0.404,2.789,1.211
		c0.724,0.808,1.086,1.88,1.086,3.219c0,1.381-0.357,2.469-1.07,3.266C359.802,38.758,358.852,39.156,357.664,39.156z
		 M357.695,37.977c1.614,0,2.422-1.094,2.422-3.281c0-2.167-0.813-3.25-2.438-3.25c-1.609,0-2.414,1.083-2.414,3.25
		C355.266,36.883,356.075,37.977,357.695,37.977z"/>
	<path fill="#231F20" d="M365.156,37.914h-0.094c0.063,0.672,0.094,1.094,0.094,1.266v3.664h-1.422V30.422h1.148l0.211,1.156h0.063
		c0.573-0.875,1.411-1.313,2.516-1.313c1.047,0,1.868,0.39,2.465,1.168c0.596,0.779,0.895,1.866,0.895,3.262
		c0,1.406-0.3,2.502-0.898,3.285c-0.599,0.784-1.419,1.176-2.461,1.176C366.594,39.156,365.755,38.742,365.156,37.914z
		 M365.156,34.375v0.32c0,1.183,0.181,2.025,0.543,2.527c0.362,0.503,0.938,0.754,1.73,0.754c1.417,0,2.125-1.099,2.125-3.297
		c0-2.156-0.714-3.234-2.141-3.234c-0.792,0-1.361,0.229-1.707,0.688C365.36,32.591,365.177,33.339,365.156,34.375z"/>
	<path fill="#231F20" d="M380.664,34.984h-6.047c0.042,1.953,0.938,2.93,2.688,2.93c1.016,0,1.979-0.197,2.891-0.594v1.25
		c-0.865,0.391-1.813,0.586-2.844,0.586c-1.276,0-2.297-0.389-3.063-1.168c-0.766-0.778-1.148-1.85-1.148-3.215
		c0-1.385,0.353-2.483,1.059-3.293c0.706-0.81,1.649-1.215,2.832-1.215c1.104,0,1.985,0.349,2.645,1.047
		c0.659,0.698,0.988,1.628,0.988,2.789V34.984z M374.648,33.828h4.477c0-1.588-0.708-2.383-2.125-2.383
		C375.567,31.445,374.784,32.24,374.648,33.828z"/>
	<path fill="#231F20" d="M385.781,27.578l-0.32,4.125h-1.211l-0.32-4.125H385.781z M389.078,27.578l-0.32,4.125h-1.211l-0.32-4.125
		H389.078z"/>
</g>
<line fill="none" stroke="#231F20" stroke-width="2" x1="412.5" y1="35" x2="458.5" y2="35"/>
<polygon fill="#231F20" points="456.465,39.066 455.254,37.852 458.109,35 455.254,32.145 456.465,30.934 460.531,35 "/>
<rect x="462.5" y="10" fill="#E3F6F8" width="100" height="50"/>
<rect x="462.5" y="10" fill="none" stroke="#231F20" width="100" height="50"/>
<g>
	<path fill="#231F20" d="M497.375,27.578l-0.32,4.125h-1.211l-0.32-4.125H497.375z M500.672,27.578l-0.32,4.125h-1.211l-0.32-4.125
		H500.672z"/>
	<path fill="#231F20" d="M503.539,30.422h1.469l2.047,5.109c0.427,1.068,0.659,1.823,0.695,2.266h0.047
		c0.12-0.583,0.354-1.344,0.703-2.281l1.867-5.094h1.477l-3.711,9.695c-0.349,0.906-0.755,1.587-1.219,2.043
		c-0.464,0.455-1.104,0.684-1.922,0.684c-0.448,0-0.886-0.045-1.313-0.133v-1.133c0.323,0.063,0.677,0.094,1.063,0.094
		c0.5,0,0.889-0.107,1.168-0.32c0.278-0.214,0.527-0.581,0.746-1.102l0.453-1.172L503.539,30.422z"/>
	<path fill="#231F20" d="M521.063,34.984h-6.047c0.042,1.953,0.938,2.93,2.688,2.93c1.016,0,1.979-0.197,2.891-0.594v1.25
		c-0.864,0.391-1.813,0.586-2.844,0.586c-1.276,0-2.297-0.389-3.063-1.168c-0.766-0.778-1.148-1.85-1.148-3.215
		c0-1.385,0.353-2.483,1.059-3.293c0.706-0.81,1.649-1.215,2.832-1.215c1.104,0,1.985,0.349,2.645,1.047
		c0.659,0.698,0.988,1.628,0.988,2.789V34.984z M515.047,33.828h4.477c0-1.588-0.708-2.383-2.125-2.383
		C515.966,31.445,515.183,32.24,515.047,33.828z"/>
	<path fill="#231F20" d="M526.18,27.578l-0.32,4.125h-1.211l-0.32-4.125H526.18z M529.477,27.578l-0.32,4.125h-1.211l-0.32-4.125
		H529.477z"/>
</g>
<line fill="none" stroke="#231F20" stroke-width="2" x1="562.5" y1="35" x2="608.5" y2="35"/>
<polygon fill="#231F20" points="606.465,39.066 605.254,37.852 608.109,35 605.254,32.145 606.465,30.934 610.531,35 "/>
<rect x="612.5" y="10" fill="#E3F6F8" width="100" height="50"/>
<rect x="612.5" y="10" fill="none" stroke="#231F20" width="100" height="50"/>
<g>
	<path fill="#231F20" d="M642.574,27.578l-0.32,4.125h-1.211l-0.32-4.125H642.574z M645.871,27.578l-0.32,4.125h-1.211l-0.32-4.125
		H645.871z"/>
	<path fill="#231F20" d="M654.449,39l-1.023-4.656l-0.531-2.578h-0.047l-0.508,2.609L651.285,39h-1.477l-1.742-8.578h1.266
		l0.766,4.242c0.177,0.969,0.325,1.992,0.445,3.07h0.047c0.161-0.963,0.339-1.896,0.531-2.797l1.039-4.516h1.508l0.992,4.516
		c0.224,1.016,0.398,1.948,0.523,2.797h0.047c0.161-1.26,0.317-2.284,0.469-3.07l0.797-4.242h1.234L655.973,39H654.449z"/>
	<path fill="#231F20" d="M664.629,39v-5.523c0-1.354-0.62-2.031-1.859-2.031c-1.599,0-2.398,1.037-2.398,3.109V39h-1.422V26.844
		h1.422v3.609l-0.063,1.125h0.078c0.536-0.875,1.411-1.313,2.625-1.313c2.026,0,3.039,1.044,3.039,3.133V39H664.629z"/>
	<path fill="#231F20" d="M672.066,39.156c-1.125,0-2.051-0.404-2.777-1.215c-0.727-0.81-1.09-1.892-1.09-3.246
		c0-1.37,0.353-2.45,1.059-3.242c0.706-0.792,1.657-1.188,2.855-1.188c1.136,0,2.065,0.404,2.789,1.211
		c0.724,0.808,1.086,1.88,1.086,3.219c0,1.381-0.356,2.469-1.07,3.266S673.254,39.156,672.066,39.156z M672.098,37.977
		c1.614,0,2.422-1.094,2.422-3.281c0-2.167-0.813-3.25-2.438-3.25c-1.609,0-2.414,1.083-2.414,3.25
		C669.668,36.883,670.478,37.977,672.098,37.977z"/>
	<path fill="#231F20" d="M680.98,27.578l-0.32,4.125h-1.211l-0.32-4.125H680.98z M684.277,27.578l-0.32,4.125h-1.211l-0.32-4.125
		H684.277z"/>
</g>
<line fill="none" stroke="#231F20" stroke-width="2" x1="712.5" y1="35" x2="758.5" y2="35"/>
<polygon fill="#231F20" points="756.465,39.066 755.254,37.852 758.109,35 755.254,32.145 756.465,30.934 760.531,35 "/>
<rect x="762.5" y="10" fill="#E3F6F8" width="100" height="50"/>
<rect x="762.5" y="10" fill="none" stroke="#231F20" width="100" height="50"/>
<g>
	<path fill="#231F20" d="M782.973,27.578l-0.32,4.125h-1.211l-0.32-4.125H782.973z M786.27,27.578l-0.32,4.125h-1.211l-0.32-4.125
		H786.27z"/>
	<path fill="#231F20" d="M797.059,34.984h-6.047c0.042,1.953,0.938,2.93,2.688,2.93c1.016,0,1.979-0.197,2.891-0.594v1.25
		c-0.864,0.391-1.813,0.586-2.844,0.586c-1.276,0-2.297-0.389-3.063-1.168c-0.766-0.778-1.148-1.85-1.148-3.215
		c0-1.385,0.353-2.483,1.059-3.293c0.706-0.81,1.649-1.215,2.832-1.215c1.104,0,1.985,0.349,2.645,1.047
		c0.659,0.698,0.988,1.628,0.988,2.789V34.984z M791.043,33.828h4.477c0-1.588-0.708-2.383-2.125-2.383
		C791.962,31.445,791.179,32.24,791.043,33.828z"/>
	<path fill="#231F20" d="M805.027,39v-5.523c0-1.354-0.62-2.031-1.859-2.031c-1.599,0-2.398,1.037-2.398,3.109V39h-1.422v-8.578
		h1.148l0.211,1.156h0.078c0.536-0.875,1.411-1.313,2.625-1.313c2.026,0,3.039,1.044,3.039,3.133V39H805.027z"/>
	<path fill="#231F20" d="M815.668,37.828v1.078c-0.677,0.166-1.333,0.25-1.969,0.25c-1.886,0-2.828-0.896-2.828-2.688v-4.977h-2.086
		v-0.734l2.086-0.383l0.602-2.242h0.82v2.289h3.422v1.07h-3.422v4.977c0,1.016,0.5,1.523,1.5,1.523
		C814.277,37.992,814.902,37.938,815.668,37.828z"/>
	<path fill="#231F20" d="M825.863,34.984h-6.047c0.042,1.953,0.938,2.93,2.688,2.93c1.016,0,1.979-0.197,2.891-0.594v1.25
		c-0.864,0.391-1.813,0.586-2.844,0.586c-1.276,0-2.297-0.389-3.063-1.168c-0.766-0.778-1.148-1.85-1.148-3.215
		c0-1.385,0.353-2.483,1.059-3.293c0.706-0.81,1.649-1.215,2.832-1.215c1.104,0,1.985,0.349,2.645,1.047
		c0.659,0.698,0.988,1.628,0.988,2.789V34.984z M819.848,33.828h4.477c0-1.588-0.708-2.383-2.125-2.383
		C820.767,31.445,819.983,32.24,819.848,33.828z"/>
	<path fill="#231F20" d="M835.176,30.617l-0.383,1.297c-0.641-0.234-1.224-0.352-1.75-0.352c-0.849,0-1.504,0.241-1.965,0.723
		c-0.461,0.482-0.691,1.179-0.691,2.09V39h-1.422v-8.578h1.156l0.172,1.57h0.063c0.396-0.62,0.82-1.063,1.273-1.328
		s1.011-0.398,1.672-0.398C833.915,30.266,834.54,30.383,835.176,30.617z"/>
	<path fill="#231F20" d="M840.582,27.578l-0.32,4.125h-1.211l-0.32-4.125H840.582z M843.879,27.578l-0.32,4.125h-1.211l-0.32-4.125
		H843.879z"/>
</g>
<line fill="none" stroke="#231F20" stroke-width="2" x1="862.5" y1="35" x2="908.5" y2="35"/>
<polygon fill="#231F20" points="906.465,39.066 905.254,37.852 908.109,35 905.254,32.145 906.465,30.934 910.531,35 "/>
<rect x="912.5" y="10" fill="#E3F6F8" width="100" height="50"/>
<rect x="912.5" y="10" fill="none" stroke="#231F20" width="100" height="50"/>
<g>
	<path fill="#231F20" d="M937.773,27.578l-0.32,4.125h-1.211l-0.32-4.125H937.773z M941.07,27.578l-0.32,4.125h-1.211l-0.32-4.125
		H941.07z"/>
	<path fill="#231F20" d="M950.227,39v-5.523c0-1.354-0.62-2.031-1.859-2.031c-1.599,0-2.398,1.037-2.398,3.109V39h-1.422V26.844
		h1.422v3.609l-0.063,1.125h0.078c0.536-0.875,1.411-1.313,2.625-1.313c2.026,0,3.039,1.044,3.039,3.133V39H950.227z"/>
	<path fill="#231F20" d="M961.461,34.984h-6.047c0.042,1.953,0.938,2.93,2.688,2.93c1.016,0,1.979-0.197,2.891-0.594v1.25
		c-0.864,0.391-1.813,0.586-2.844,0.586c-1.276,0-2.297-0.389-3.063-1.168c-0.766-0.778-1.148-1.85-1.148-3.215
		c0-1.385,0.353-2.483,1.059-3.293c0.706-0.81,1.649-1.215,2.832-1.215c1.104,0,1.985,0.349,2.645,1.047
		c0.659,0.698,0.988,1.628,0.988,2.789V34.984z M955.445,33.828h4.477c0-1.588-0.708-2.383-2.125-2.383
		C956.364,31.445,955.581,32.24,955.445,33.828z"/>
	<path fill="#231F20" d="M970.773,30.617l-0.383,1.297c-0.641-0.234-1.224-0.352-1.75-0.352c-0.849,0-1.504,0.241-1.965,0.723
		c-0.461,0.482-0.691,1.179-0.691,2.09V39h-1.422v-8.578h1.156l0.172,1.57h0.063c0.396-0.62,0.82-1.063,1.273-1.328
		s1.011-0.398,1.672-0.398C969.513,30.266,970.138,30.383,970.773,30.617z"/>
	<path fill="#231F20" d="M980.664,34.984h-6.047c0.042,1.953,0.938,2.93,2.688,2.93c1.016,0,1.979-0.197,2.891-0.594v1.25
		c-0.864,0.391-1.813,0.586-2.844,0.586c-1.276,0-2.297-0.389-3.063-1.168c-0.766-0.778-1.148-1.85-1.148-3.215
		c0-1.385,0.353-2.483,1.059-3.293c0.706-0.81,1.649-1.215,2.832-1.215c1.104,0,1.985,0.349,2.645,1.047
		c0.659,0.698,0.988,1.628,0.988,2.789V34.984z M974.648,33.828h4.477c0-1.588-0.708-2.383-2.125-2.383
		C975.567,31.445,974.784,32.24,974.648,33.828z"/>
	<path fill="#231F20" d="M985.781,27.578l-0.32,4.125h-1.211l-0.32-4.125H985.781z M989.078,27.578l-0.32,4.125h-1.211l-0.32-4.125
		H989.078z"/>
</g>
</svg>
