<?xml version="1.0" encoding="iso-8859-1"?>
<!-- Generator: Adobe Illustrator 14.0.0, SVG Export Plug-In . SVG Version: 6.00 Build 43363)  -->
<!DOCTYPE svg PUBLIC "-//W3C//DTD SVG 1.1//EN" "http://www.w3.org/Graphics/SVG/1.1/DTD/svg11.dtd">
<svg version="1.1" id="Layer_1" xmlns="http://www.w3.org/2000/svg" xmlns:xlink="http://www.w3.org/1999/xlink" x="0px" y="0px"
	 width="124.636px" height="38.374px" viewBox="0 0 124.636 38.374" style="enable-background:new 0 0 124.636 38.374;"
	 xml:space="preserve">
<path d="M3.155,18.167c0.998,0,1.584,0.654,1.584,1.699c0,0.194-0.023,0.413-0.069,0.642c-0.276,1.457-1.136,2.41-2.169,2.41
	c-0.964,0-1.526-0.666-1.526-1.756c0-0.229,0.034-0.471,0.08-0.734C1.319,19.062,2.145,18.167,3.155,18.167 M0.057,20.555
	C0.011,20.783,0,20.99,0,21.197C0,22.516,0.872,23.4,2.272,23.4c1.64,0,3.04-1.205,3.373-2.893c0.035-0.16,0.046-0.332,0.046-0.492
	c0-0.621-0.241-1.194-0.688-1.572l2.099,0.309l0.195-1.032H3.373C1.755,17.72,0.378,18.902,0.057,20.555"/>
<path d="M11.46,21.575h7.711v-0.688H11.46V21.575z M11.46,19.097h7.711v-0.688H11.46V19.097z"/>
<polygon points="31.215,8.491 31.215,0.688 35.416,0.688 35.416,0 30.527,0 30.527,8.491 "/>
<rect x="30.528" y="7.483" width="0.688" height="8.147"/>
<polygon points="24.09,20.118 24.893,19.452 30.527,38.374 31.216,38.374 31.216,15.654 30.527,15.654 30.527,33.991 25.754,17.926 
	23.7,19.648 "/>
<line style="fill:none;stroke:#000000;stroke-width:0.689;stroke-miterlimit:10;" x1="34.775" y1="0.345" x2="124.636" y2="0.345"/>
<polygon points="49.203,7.38 46.712,8.126 46.712,8.608 48.514,8.286 48.514,14.46 48.376,14.655 47.056,14.725 47.056,15.217 
	50.9,15.217 50.9,14.735 49.662,14.678 49.523,14.506 49.523,7.38 "/>
<line style="fill:none;stroke:#000000;stroke-width:0.689;stroke-miterlimit:10;" x1="35.97" y1="19.98" x2="61.678" y2="19.98"/>
<path d="M38.333,26.259l-1.698,0.379v0.287l0.941,0.172l-0.953,4.692H37.6l0.711-3.879c0.7-0.642,1.308-0.94,1.698-0.94
	c0.436,0,0.62,0.218,0.62,0.724c0,0.148-0.023,0.401-0.103,0.734l-0.494,2.123c-0.057,0.252-0.092,0.47-0.092,0.619
	c0,0.459,0.276,0.689,0.838,0.689c0.321,0,0.78-0.115,1.377-0.346v-0.32c-0.264,0.068-0.47,0.103-0.631,0.103
	c-0.379,0-0.597-0.195-0.597-0.562c0-0.173,0.058-0.425,0.126-0.758l0.391-1.779c0.091-0.412,0.16-0.733,0.16-1.021
	c0-0.562-0.367-0.918-0.964-0.918c-0.608,0-1.319,0.379-2.226,1.103l0.207-1.103H38.333z"/>
<rect x="45.048" y="28.142" width="7.803" height="0.688"/>
<polygon points="58.866,23.952 56.376,24.698 56.376,25.18 58.178,24.858 58.178,31.032 58.041,31.228 56.72,31.297 56.72,31.789 
	60.564,31.789 60.564,31.307 59.325,31.25 59.188,31.078 59.188,23.952 "/>
<path d="M71.878,4.698L70.748,4.95v0.191l0.626,0.115L70.74,8.383h0.649l0.475-2.584c0.466-0.428,0.871-0.627,1.131-0.627
	c0.291,0,0.413,0.145,0.413,0.482c0,0.099-0.016,0.267-0.069,0.489l-0.329,1.414c-0.038,0.168-0.061,0.313-0.061,0.413
	c0,0.306,0.184,0.459,0.558,0.459c0.214,0,0.52-0.077,0.918-0.23V7.985c-0.176,0.046-0.313,0.069-0.421,0.069
	c-0.252,0-0.397-0.13-0.397-0.375c0-0.114,0.038-0.282,0.084-0.504l0.261-1.185c0.061-0.275,0.106-0.489,0.106-0.68
	c0-0.375-0.245-0.612-0.642-0.612c-0.406,0-0.88,0.252-1.483,0.734l0.138-0.734H71.878z"/>
<polygon points="65.118,10.689 65.118,11.493 72.404,19.847 64.601,28.899 79.874,28.899 79.874,24.149 79.127,24.149 
	78.714,26.582 77.877,27.42 66.908,27.42 73.941,19.25 67.182,11.493 77.9,11.493 78.714,12.308 79.127,14.763 79.874,14.763 
	79.874,10.689 67.182,10.689 "/>
<path d="M67.579,32.889l-1.131,0.245v0.198l0.618,0.114l-0.45,2.278c-0.031,0.168-0.047,0.307-0.047,0.398
	c0,0.336,0.161,0.504,0.489,0.504c0.291,0,0.658-0.092,1.078-0.268v-0.236c-0.237,0.076-0.42,0.113-0.566,0.113
	c-0.236,0-0.365-0.099-0.365-0.298l0.021-0.19l0.551-2.859H67.579z M67.731,31.191c-0.229,0-0.413,0.184-0.413,0.413
	c0,0.237,0.185,0.413,0.413,0.413c0.223,0,0.413-0.184,0.413-0.413C68.144,31.383,67.954,31.191,67.731,31.191"/>
<path d="M69.202,35.426h5.137v-0.459h-5.137V35.426z M69.202,33.775h5.137v-0.459h-5.137V33.775z"/>
<polygon points="77.171,31.352 75.513,31.85 75.513,32.17 76.712,31.956 76.712,36.069 76.622,36.199 75.742,36.245 75.742,36.573 
	78.303,36.573 78.303,36.252 77.478,36.215 77.386,36.1 77.386,31.352 "/>
<path d="M82.196,19.992c0-3.145,0.918-4.706,2.238-4.935V14.53c-1.905,0.23-3.214,1.997-3.214,5.462
	c0,3.465,1.309,5.231,3.214,5.461v-0.527C83.114,24.697,82.196,23.136,82.196,19.992"/>
<path d="M87.429,17.731l-1.159,0.402v0.275l0.952,0.126c0.31,0.287,0.574,0.953,0.873,1.997c-0.472,1.137-1.079,1.87-1.596,2.146
	l-0.527-0.494c-0.356,0.068-0.563,0.275-0.563,0.585c0,0.368,0.276,0.62,0.712,0.62c0.758,0,1.446-0.77,2.192-2.33
	c0.378,1.63,0.527,2.307,1.331,2.307c0.309,0,0.745-0.115,1.285-0.333v-0.354c-0.276,0.08-0.482,0.125-0.608,0.125
	c-0.688,0-0.85-0.723-1.297-2.271c0.505-1.171,1.01-1.825,1.538-1.962l0.493,0.447c0.367-0.149,0.562-0.367,0.562-0.642
	c0-0.355-0.287-0.643-0.653-0.643c-0.724,0-1.435,0.769-2.191,2.306c-0.402-1.56-0.54-2.317-1.217-2.317L87.429,17.731z"/>
<path d="M93.573,22.205l-1.132,0.246v0.199l0.619,0.113l-0.451,2.277c-0.03,0.169-0.046,0.307-0.046,0.398
	c0,0.336,0.161,0.504,0.489,0.504c0.291,0,0.658-0.091,1.078-0.267v-0.237c-0.237,0.076-0.42,0.114-0.566,0.114
	c-0.236,0-0.365-0.099-0.365-0.298l0.021-0.191l0.551-2.859H93.573z M93.725,20.509c-0.229,0-0.413,0.183-0.413,0.413
	c0,0.236,0.185,0.413,0.413,0.413c0.223,0,0.413-0.185,0.413-0.413C94.138,20.699,93.948,20.509,93.725,20.509"/>
<rect x="97.674" y="19.648" width="7.804" height="0.688"/>
<path d="M114.292,17.72l-0.505,2.616c-0.126,0.666-0.287,1.469-0.287,2.008c0,0.367,0.081,0.607,0.275,0.607
	c0.505,0,0.643-0.756,0.791-1.525h0.413c-0.194,1.044-0.4,1.975-1.285,1.975c-0.481,0-0.768-0.391-0.768-0.965
	c0-0.126,0.011-0.264,0.034-0.402c-0.539,0.965-1.366,1.367-2.41,1.367c-0.85,0-1.4-0.654-1.468-1.492
	c-0.013,0.068-0.023,0.16-0.023,0.252c0,0.86,0.482,2.57,0.126,3.19c-0.138,0.252-0.367,0.367-0.562,0.367
	c-0.241,0-0.437-0.149-0.437-0.401l0.011-0.104l1.446-7.493h0.998l-0.505,2.616c-0.103,0.494-0.149,0.93-0.149,1.308
	c0,0.815,0.23,1.308,0.654,1.308c0.998,0,1.847-1.031,2.157-2.615l0.505-2.616H114.292z"/>
<path d="M118.252,19.992c0,3.144-0.918,4.705-2.238,4.934v0.527c1.905-0.229,3.213-1.996,3.213-5.461
	c0-3.465-1.308-5.232-3.213-5.462v0.528C117.334,15.287,118.252,16.848,118.252,19.992"/>
<path d="M120.96,19.571c1.689-1.345,2.615-2.209,2.615-3.172c0-0.864-0.604-1.445-1.591-1.445c-0.948,0-1.62,0.542-1.62,1.078
	c0,0.259,0.16,0.428,0.428,0.428c0.122,0,0.237-0.039,0.344-0.115v-0.818c0.229-0.13,0.451-0.183,0.681-0.183
	c0.635,0,1.017,0.428,1.017,1.154c0,1.001-0.956,1.835-2.63,3.195v0.482h3.54v-1.254H123.4l-0.139,0.65H120.96z"/>
</svg>
