<?xml version="1.0" encoding="iso-8859-1"?>
<!-- Generator: Adobe Illustrator 14.0.0, SVG Export Plug-In . SVG Version: 6.00 Build 43363)  -->
<!DOCTYPE svg PUBLIC "-//W3C//DTD SVG 1.1//EN" "http://www.w3.org/Graphics/SVG/1.1/DTD/svg11.dtd">
<svg version="1.1" id="Layer_1" xmlns="http://www.w3.org/2000/svg" xmlns:xlink="http://www.w3.org/1999/xlink" x="0px" y="0px"
	 width="96.058px" height="46.512px" viewBox="0 0 96.058 46.512" style="enable-background:new 0 0 96.058 46.512;"
	 xml:space="preserve">
<polygon points="0,0 4.372,0 4.372,0.941 1.033,0.941 1.033,23.408 0,23.408 "/>
<polygon points="0,23.104 1.033,23.104 1.033,45.57 4.372,45.57 4.372,46.512 0,46.512 "/>
<path d="M73.854,4.72c1.056,0,1.629,1.171,1.629,3.443s-0.573,3.442-1.629,3.442s-1.641-1.159-1.641-3.431
	C72.214,5.891,72.799,4.72,73.854,4.72 M73.854,4.181c-1.641,0-2.719,1.446-2.719,3.982c0,2.536,1.078,3.993,2.719,3.993
	s2.719-1.457,2.719-3.993C76.573,5.626,75.495,4.181,73.854,4.181 M34.374,4.72c1.056,0,1.63,1.171,1.63,3.443
	s-0.574,3.442-1.63,3.442s-1.641-1.159-1.641-3.431C32.732,5.891,33.317,4.72,34.374,4.72 M34.374,4.181
	c-1.641,0-2.719,1.446-2.719,3.982c0,2.536,1.078,3.993,2.719,3.993s2.72-1.457,2.72-3.993C37.093,5.626,36.015,4.181,34.374,4.181
	 M8.94,4.181l-2.49,0.746v0.482l1.802-0.322v6.174l-0.138,0.195l-1.32,0.069v0.493h3.844v-0.482l-1.239-0.057l-0.138-0.172V4.181
	H8.94z"/>
<path d="M36.967,21.082c-0.39-0.173-0.837-0.253-1.342-0.253c-1.308,0-2.031,0.597-2.031,1.607c0,0.768,0.505,1.136,1.48,1.572
	c0.757,0.344,1.171,0.55,1.171,1.147c0,0.539-0.414,0.929-1.079,0.929c-0.333,0-0.654-0.091-0.975-0.275l-0.138-0.975h-0.551v1.491
	c0.402,0.15,0.907,0.241,1.492,0.241c1.354,0,2.146-0.654,2.146-1.721c0-0.424-0.161-0.769-0.436-0.987
	c-0.379-0.309-0.815-0.47-1.217-0.665c-0.642-0.31-0.975-0.551-0.975-1.044c0-0.517,0.344-0.826,0.952-0.826
	c0.276,0,0.551,0.08,0.849,0.241l0.092,0.814h0.562V21.082z M29.921,21.322c0.929,0,1.595,0.896,1.595,2.375
	c0,1.491-0.666,2.375-1.595,2.375c-0.918,0-1.584-0.895-1.584-2.375C28.337,22.206,28.991,21.322,29.921,21.322 M29.921,20.829
	c-1.549,0-2.662,1.159-2.662,2.869c0,1.698,1.124,2.868,2.662,2.868c1.537,0,2.673-1.17,2.673-2.868
	C32.594,22,31.47,20.829,29.921,20.829 M26.592,25.98v-0.596c-0.482,0.321-0.952,0.481-1.457,0.481
	c-1.194,0-1.951-0.837-1.951-2.249c0-1.445,0.7-2.329,1.687-2.329c0.195,0,0.379,0.057,0.551,0.161v0.941
	c0.172,0.114,0.344,0.172,0.516,0.172c0.39,0,0.643-0.241,0.643-0.608c0-0.666-0.62-1.125-1.722-1.125
	c-1.606,0-2.719,1.159-2.719,2.869c0,1.698,1.021,2.845,2.582,2.845C25.341,26.542,25.961,26.348,26.592,25.98 M8.562,19.165
	c1.056,0,1.629,1.171,1.629,3.443s-0.573,3.442-1.629,3.442c-1.056,0-1.641-1.159-1.641-3.431
	C6.921,20.335,7.506,19.165,8.562,19.165 M8.562,18.625c-1.641,0-2.719,1.446-2.719,3.982s1.078,3.993,2.719,3.993
	c1.641,0,2.719-1.457,2.719-3.993S10.203,18.625,8.562,18.625"/>
<path d="M41.323,22.504h3.201c-0.424,2.191-1.342,3.614-2.306,3.614c-0.7,0-1.079-0.734-1.079-1.962
	C41.139,23.674,41.197,23.123,41.323,22.504 M41.426,21.976c0.425-2.192,1.331-3.614,2.295-3.614c0.7,0,1.079,0.734,1.079,1.962
	c0,0.482-0.058,1.032-0.172,1.652H41.426z M43.813,17.914c-1.503,0-2.926,1.802-3.408,4.326c-0.103,0.528-0.161,1.033-0.161,1.492
	c0,1.709,0.7,2.834,1.882,2.834c1.503,0,2.926-1.802,3.42-4.326c0.103-0.528,0.149-1.033,0.149-1.492
	C45.695,19.039,44.995,17.914,43.813,17.914"/>
<rect x="57.266" y="22.814" width="7.804" height="0.688"/>
<path d="M75.13,26.463h2.514V26.05l-0.552-0.058l-0.194-0.183v-3.844c0.493-0.253,0.918-0.379,1.285-0.379
	c0.85,0,1.158,0.344,1.158,1.182v3.041l-0.194,0.183l-0.551,0.058v0.413h2.514V26.05l-0.62-0.058l-0.195-0.183v-3.236
	c0-1.148-0.551-1.744-1.549-1.744c-0.494,0-1.079,0.263-1.848,0.688v-0.631h-0.437l-1.331,0.413v0.356h0.815v4.154l-0.195,0.183
	l-0.62,0.058V26.463z M73.294,20.886l-1.32,0.413v0.356h0.804v4.154l-0.195,0.183l-0.608,0.058v0.413h2.582V26.05l-0.619-0.058
	l-0.206-0.183v-4.923H73.294z M73.34,18.339c-0.368,0-0.666,0.286-0.666,0.665c0,0.367,0.298,0.654,0.666,0.654
	c0.367,0,0.665-0.287,0.665-0.654C74.005,18.637,73.707,18.339,73.34,18.339 M70.929,21.081c-0.39-0.172-0.838-0.252-1.343-0.252
	c-1.308,0-2.031,0.596-2.031,1.606c0,0.769,0.506,1.136,1.481,1.572c0.757,0.344,1.17,0.551,1.17,1.147
	c0,0.54-0.413,0.93-1.079,0.93c-0.332,0-0.654-0.092-0.975-0.275l-0.139-0.976h-0.55v1.492c0.401,0.149,0.906,0.241,1.491,0.241
	c1.354,0,2.146-0.654,2.146-1.721c0-0.425-0.161-0.769-0.437-0.987c-0.379-0.31-0.814-0.471-1.216-0.666
	c-0.644-0.309-0.977-0.55-0.977-1.044c0-0.516,0.346-0.826,0.953-0.826c0.275,0,0.552,0.08,0.85,0.241l0.092,0.815h0.562V21.081z"/>
<path d="M85.018,22.504h3.2c-0.424,2.191-1.342,3.614-2.306,3.614c-0.7,0-1.079-0.734-1.079-1.962
	C84.833,23.674,84.892,23.123,85.018,22.504 M85.12,21.976c0.425-2.192,1.331-3.614,2.295-3.614c0.7,0,1.079,0.734,1.079,1.962
	c0,0.482-0.058,1.032-0.172,1.652H85.12z M87.507,17.914c-1.503,0-2.926,1.802-3.407,4.326c-0.104,0.528-0.161,1.033-0.161,1.492
	c0,1.709,0.699,2.834,1.882,2.834c1.503,0,2.926-1.802,3.42-4.326c0.103-0.528,0.149-1.033,0.149-1.492
	C89.39,19.039,88.689,17.914,87.507,17.914"/>
<path d="M30.656,40.908h2.513v-0.412l-0.551-0.058l-0.195-0.185V36.41c0.493-0.252,0.918-0.379,1.285-0.379
	c0.849,0,1.159,0.346,1.159,1.182v3.041l-0.195,0.185l-0.551,0.058v0.412h2.513v-0.412l-0.62-0.058l-0.195-0.185v-3.235
	c0-1.147-0.55-1.744-1.549-1.744c-0.493,0-1.078,0.265-1.847,0.688v-0.631h-0.436l-1.331,0.414v0.354h0.814v4.153l-0.195,0.185
	l-0.619,0.058V40.908z M28.819,35.332L27.5,35.746v0.354h0.803v4.153l-0.195,0.185L27.5,40.496v0.412h2.581v-0.412l-0.619-0.058
	l-0.207-0.185v-4.922H28.819z M28.865,32.785c-0.367,0-0.665,0.286-0.665,0.666c0,0.366,0.298,0.653,0.665,0.653
	s0.666-0.287,0.666-0.653C29.531,33.082,29.232,32.785,28.865,32.785 M26.454,35.527c-0.39-0.173-0.837-0.253-1.342-0.253
	c-1.308,0-2.031,0.597-2.031,1.606c0,0.769,0.505,1.137,1.48,1.572c0.758,0.344,1.171,0.551,1.171,1.147
	c0,0.539-0.413,0.929-1.079,0.929c-0.333,0-0.654-0.091-0.975-0.275l-0.138-0.975h-0.551v1.491c0.402,0.149,0.907,0.241,1.492,0.241
	c1.354,0,2.146-0.654,2.146-1.721c0-0.424-0.161-0.77-0.436-0.987c-0.379-0.31-0.815-0.47-1.217-0.665
	c-0.642-0.311-0.975-0.551-0.975-1.044c0-0.517,0.344-0.826,0.952-0.826c0.276,0,0.551,0.08,0.849,0.241l0.092,0.813h0.562V35.527z
	 M8.562,33.61c1.056,0,1.629,1.171,1.629,3.443s-0.573,3.442-1.629,3.442c-1.056,0-1.641-1.16-1.641-3.432
	C6.921,34.781,7.506,33.61,8.562,33.61 M8.562,33.071c-1.641,0-2.719,1.446-2.719,3.982s1.078,3.993,2.719,3.993
	c1.641,0,2.719-1.457,2.719-3.993S10.203,33.071,8.562,33.071"/>
<path d="M40.537,36.95h3.201c-0.424,2.19-1.342,3.614-2.306,3.614c-0.7,0-1.079-0.734-1.079-1.963
	C40.353,38.12,40.411,37.569,40.537,36.95 M40.64,36.422c0.425-2.191,1.331-3.613,2.295-3.613c0.7,0,1.079,0.733,1.079,1.961
	c0,0.482-0.058,1.033-0.172,1.652H40.64z M43.027,32.36c-1.503,0-2.926,1.802-3.408,4.325c-0.103,0.528-0.161,1.033-0.161,1.492
	c0,1.709,0.7,2.834,1.882,2.834c1.503,0,2.926-1.802,3.42-4.326c0.103-0.527,0.149-1.032,0.149-1.491
	C44.909,33.485,44.209,32.36,43.027,32.36"/>
<path d="M76.451,35.527c-0.39-0.173-0.837-0.252-1.342-0.252c-1.308,0-2.031,0.596-2.031,1.605c0,0.77,0.506,1.136,1.48,1.572
	c0.757,0.345,1.17,0.551,1.17,1.147c0,0.539-0.413,0.929-1.078,0.929c-0.333,0-0.653-0.092-0.975-0.274l-0.138-0.976h-0.552v1.491
	c0.402,0.149,0.907,0.241,1.492,0.241c1.354,0,2.146-0.654,2.146-1.721c0-0.426-0.161-0.77-0.438-0.987
	c-0.378-0.31-0.813-0.47-1.216-0.665c-0.643-0.311-0.975-0.551-0.975-1.045c0-0.516,0.344-0.826,0.951-0.826
	c0.276,0,0.552,0.081,0.85,0.241l0.092,0.815h0.562V35.527z M69.405,35.768c0.93,0,1.596,0.895,1.596,2.376
	c0,1.491-0.666,2.375-1.596,2.375c-0.918,0-1.584-0.896-1.584-2.375C67.821,36.652,68.476,35.768,69.405,35.768 M69.405,35.275
	c-1.549,0-2.662,1.158-2.662,2.868c0,1.698,1.124,2.868,2.662,2.868c1.537,0,2.673-1.17,2.673-2.868S70.954,35.275,69.405,35.275
	 M66.076,40.427V39.83c-0.481,0.322-0.951,0.481-1.457,0.481c-1.193,0-1.95-0.837-1.95-2.249c0-1.445,0.699-2.328,1.687-2.328
	c0.195,0,0.378,0.057,0.551,0.16v0.94c0.172,0.114,0.345,0.173,0.517,0.173c0.39,0,0.643-0.241,0.643-0.609
	c0-0.664-0.62-1.123-1.722-1.123c-1.606,0-2.719,1.158-2.719,2.868c0,1.698,1.021,2.845,2.582,2.845
	C64.825,40.988,65.445,40.794,66.076,40.427"/>
<path d="M80.809,36.95h3.2c-0.424,2.19-1.342,3.614-2.306,3.614c-0.7,0-1.079-0.734-1.079-1.963
	C80.624,38.12,80.683,37.569,80.809,36.95 M80.911,36.422c0.425-2.191,1.331-3.613,2.295-3.613c0.7,0,1.079,0.733,1.079,1.961
	c0,0.482-0.058,1.033-0.172,1.652H80.911z M83.298,32.36c-1.503,0-2.926,1.802-3.407,4.325c-0.104,0.528-0.161,1.033-0.161,1.492
	c0,1.709,0.699,2.834,1.882,2.834c1.503,0,2.926-1.802,3.42-4.326c0.103-0.527,0.149-1.032,0.149-1.491
	C85.181,33.485,84.48,32.36,83.298,32.36"/>
<polygon points="96.058,0 96.058,23.408 95.024,23.408 95.024,0.941 91.686,0.941 91.686,0 "/>
<polygon points="96.058,23.104 96.058,46.512 91.686,46.512 91.686,45.57 95.024,45.57 95.024,23.104 "/>
</svg>
