<?xml version="1.0" encoding="iso-8859-1"?>
<!-- Generator: Adobe Illustrator 14.0.0, SVG Export Plug-In . SVG Version: 6.00 Build 43363)  -->
<!DOCTYPE svg PUBLIC "-//W3C//DTD SVG 1.1//EN" "http://www.w3.org/Graphics/SVG/1.1/DTD/svg11.dtd">
<svg version="1.1" id="Layer_1" xmlns="http://www.w3.org/2000/svg" xmlns:xlink="http://www.w3.org/1999/xlink" x="0px" y="0px"
	 width="70.46px" height="33.528px" viewBox="0 0 70.46 33.528" style="enable-background:new 0 0 70.46 33.528;"
	 xml:space="preserve">
<path d="M1.159,13.046L0,13.425v0.287l0.884,0.068c0.195,0.127,0.286,0.448,0.344,0.976l0.287,2.685
	c0.011,0.138,0.023,0.275,0.023,0.414c0,0.274-0.046,0.527-0.161,0.746h0.551c2.134-2.411,3.144-4.108,3.144-4.9
	c0-0.413-0.218-0.654-0.608-0.654c-0.195,0-0.39,0.08-0.574,0.229l0.218,1.4c-0.298,0.792-0.884,1.723-1.756,2.835l-0.298-3.144
	c-0.092-0.918-0.218-1.32-0.872-1.32H1.159z"/>
<path d="M7.582,9.44l-1.468,3.524l0.436,0.199l1.712-3.41l0.054-0.183c0-0.214-0.207-0.367-0.405-0.367
	C7.781,9.204,7.65,9.272,7.582,9.44"/>
<path d="M6.59,18.897l-1.131,0.244v0.199l0.619,0.114l-0.451,2.278c-0.031,0.168-0.046,0.306-0.046,0.397
	c0,0.336,0.161,0.504,0.489,0.504c0.291,0,0.658-0.091,1.078-0.267v-0.237c-0.237,0.076-0.42,0.114-0.566,0.114
	c-0.237,0-0.366-0.1-0.366-0.299l0.022-0.19l0.551-2.858H6.59z M6.743,17.2c-0.229,0-0.413,0.183-0.413,0.412
	c0,0.237,0.184,0.414,0.413,0.414c0.222,0,0.413-0.185,0.413-0.414C7.156,17.391,6.965,17.2,6.743,17.2"/>
<path d="M12.227,16.879h7.711v-0.688h-7.711V16.879z M12.227,14.4h7.711v-0.688h-7.711V14.4z"/>
<path d="M30.688,0l-1.131,0.252v0.191l0.626,0.115l-0.634,3.127h0.65l0.474-2.584c0.466-0.428,0.871-0.627,1.131-0.627
	c0.291,0,0.413,0.145,0.413,0.482c0,0.099-0.015,0.267-0.069,0.489l-0.329,1.414c-0.038,0.168-0.061,0.313-0.061,0.413
	c0,0.306,0.184,0.459,0.558,0.459c0.214,0,0.52-0.077,0.918-0.23V3.287c-0.176,0.046-0.314,0.069-0.421,0.069
	c-0.252,0-0.397-0.13-0.397-0.375c0-0.114,0.038-0.282,0.084-0.504l0.26-1.185c0.061-0.275,0.107-0.489,0.107-0.68
	C32.867,0.237,32.622,0,32.225,0c-0.406,0-0.88,0.252-1.484,0.734L30.878,0H30.688z"/>
<polygon points="23.926,5.992 23.926,6.795 31.212,15.148 23.411,24.202 38.683,24.202 38.683,19.452 37.937,19.452 37.523,21.884 
	36.687,22.722 25.716,22.722 32.75,14.552 25.991,6.795 36.709,6.795 37.523,7.61 37.937,10.064 38.683,10.064 38.683,5.992 
	25.991,5.992 "/>
<path d="M26.808,28.192l-1.162,0.222v0.176l0.773,0.091l-0.344,2.256c-0.153,0.971-0.26,1.674-0.643,2.088l-0.787-0.207
	c-0.107,0.076-0.168,0.184-0.168,0.306c0,0.245,0.16,0.405,0.405,0.405c0.359,0,0.787-0.283,1.193-0.856
	c0.382-0.535,0.481-1.116,0.581-1.758l0.428-2.722H26.808z M26.945,26.519c-0.229,0-0.413,0.183-0.413,0.412
	s0.184,0.413,0.413,0.413c0.222,0,0.413-0.184,0.413-0.413S27.167,26.519,26.945,26.519"/>
<path d="M28.324,30.729h5.137v-0.459h-5.137V30.729z M28.324,29.079h5.137V28.62h-5.137V29.079z"/>
<polygon points="36.294,26.655 34.635,27.152 34.635,27.474 35.835,27.259 35.835,31.372 35.744,31.503 34.864,31.548 
	34.864,31.876 37.425,31.876 37.425,31.556 36.6,31.518 36.508,31.402 36.508,26.655 "/>
<path d="M44.946,11.957l0.528,3.304h-2.398L44.946,11.957z M44.946,10.832l-4.233,7.263l-0.631,0.068V18.6h2.271v-0.437l-0.7-0.057
	l-0.092-0.161l1.229-2.191h2.788l0.355,2.191l-0.081,0.161l-0.677,0.057V18.6h2.513v-0.437l-0.562-0.057l-0.195-0.207l-1.228-7.068
	H44.946z"/>
<path d="M53.021,17.508l-1.162,0.222v0.177l0.772,0.091l-0.345,2.256c-0.151,0.971-0.26,1.674-0.642,2.087l-0.787-0.207
	c-0.106,0.077-0.168,0.185-0.168,0.306c0,0.246,0.16,0.405,0.405,0.405c0.358,0,0.787-0.282,1.191-0.856
	c0.384-0.534,0.482-1.115,0.581-1.758l0.43-2.722H53.021z M53.159,15.834c-0.229,0-0.413,0.183-0.413,0.413
	c0,0.229,0.185,0.413,0.413,0.413c0.223,0,0.413-0.185,0.413-0.413C53.572,16.017,53.382,15.834,53.159,15.834 M49.518,17.508
	l-1.131,0.245v0.199l0.619,0.113l-0.451,2.278c-0.031,0.169-0.046,0.306-0.046,0.398c0,0.336,0.161,0.504,0.488,0.504
	c0.291,0,0.658-0.091,1.078-0.267v-0.237c-0.236,0.075-0.42,0.114-0.565,0.114c-0.237,0-0.366-0.1-0.366-0.299l0.021-0.19
	l0.552-2.859H49.518z M49.671,15.811c-0.229,0-0.413,0.183-0.413,0.413c0,0.237,0.184,0.414,0.413,0.414
	c0.222,0,0.412-0.185,0.412-0.414C50.083,16.002,49.893,15.811,49.671,15.811"/>
<path d="M59.071,15.295c0-0.402-0.321-0.734-0.723-0.734c-0.402,0-0.734,0.332-0.734,0.734c0,0.402,0.332,0.723,0.734,0.723
	C58.75,16.018,59.071,15.697,59.071,15.295"/>
<path d="M63.743,13.046l-1.159,0.379v0.287l0.884,0.068c0.195,0.127,0.286,0.448,0.345,0.976l0.286,2.685
	c0.012,0.138,0.023,0.275,0.023,0.414c0,0.274-0.046,0.527-0.161,0.746h0.551c2.135-2.411,3.145-4.108,3.145-4.9
	c0-0.413-0.218-0.654-0.608-0.654c-0.194,0-0.39,0.08-0.574,0.229l0.219,1.4c-0.298,0.792-0.885,1.722-1.756,2.835l-0.299-3.145
	c-0.092-0.918-0.218-1.32-0.872-1.32H63.743z"/>
<path d="M69.908,17.508l-1.162,0.222v0.176l0.773,0.092l-0.344,2.256c-0.153,0.97-0.26,1.674-0.644,2.087l-0.787-0.207
	c-0.106,0.077-0.168,0.185-0.168,0.306c0,0.246,0.16,0.405,0.405,0.405c0.359,0,0.787-0.282,1.193-0.856
	c0.382-0.534,0.48-1.115,0.581-1.758l0.428-2.722H69.908z M70.047,15.834c-0.229,0-0.413,0.183-0.413,0.413
	c0,0.229,0.184,0.413,0.413,0.413c0.222,0,0.413-0.185,0.413-0.413C70.46,16.017,70.269,15.834,70.047,15.834"/>
</svg>
