<?xml version="1.0" encoding="iso-8859-1"?>
<!-- Generator: Adobe Illustrator 14.0.0, SVG Export Plug-In . SVG Version: 6.00 Build 43363)  -->
<!DOCTYPE svg PUBLIC "-//W3C//DTD SVG 1.1//EN" "http://www.w3.org/Graphics/SVG/1.1/DTD/svg11.dtd">
<svg version="1.1" id="Layer_1" xmlns="http://www.w3.org/2000/svg" xmlns:xlink="http://www.w3.org/1999/xlink" x="0px" y="0px"
	 width="654.003px" height="178px" viewBox="0 0 654.003 178" enable-background="new 0 0 654.003 178" xml:space="preserve">
<rect x="13.004" y="95.328" fill="#E3F6F8" width="100" height="70"/>
<rect x="13.004" y="95.328" fill="none" stroke="#231F20" width="100" height="70"/>
<rect x="74.004" y="105.328" fill="#D8F0C8" width="30" height="20"/>
<rect x="74.004" y="105.328" fill="none" stroke="#231F20" width="30" height="20"/>
<rect x="74.004" y="135.328" fill="#D8F0C8" width="30" height="20"/>
<rect x="74.004" y="135.328" fill="none" stroke="#231F20" width="30" height="20"/>
<g>
	<path fill="#231F20" d="M34.459,12.03h1.232v8.419h4.034v1.022h-5.267V12.03z"/>
	<path fill="#231F20" d="M42.412,12.787c0,0.42-0.294,0.756-0.785,0.756c-0.448,0-0.742-0.336-0.742-0.756s0.308-0.771,0.77-0.771
		C42.104,12.017,42.412,12.353,42.412,12.787z M41.039,21.472v-6.779h1.233v6.779H41.039z"/>
	<path fill="#231F20" d="M44.315,16.527c0-0.715-0.014-1.275-0.056-1.835h1.093l0.07,1.12h0.028c0.336-0.63,1.121-1.261,2.241-1.261
		c0.938,0,2.395,0.561,2.395,2.886v4.034h-1.232v-3.908c0-1.093-0.406-2.003-1.569-2.003c-0.798,0-1.429,0.574-1.653,1.261
		c-0.056,0.154-0.084,0.364-0.084,0.574v4.076h-1.233V16.527z"/>
	<path fill="#231F20" d="M53.304,17.802h0.028c0.168-0.238,0.393-0.532,0.588-0.771l2.003-2.339h1.471l-2.605,2.787l2.983,3.992
		h-1.513l-2.325-3.25l-0.63,0.7v2.55h-1.219v-9.945h1.219V17.802z"/>
	<path fill="#231F20" d="M59.337,18.306c0.028,1.667,1.079,2.354,2.325,2.354c0.882,0,1.429-0.154,1.877-0.351l0.224,0.883
		c-0.434,0.196-1.19,0.435-2.269,0.435c-2.087,0-3.334-1.387-3.334-3.432c0-2.046,1.205-3.643,3.18-3.643
		c2.228,0,2.802,1.934,2.802,3.18c0,0.252-0.014,0.435-0.042,0.574H59.337z M62.951,17.424c0.014-0.771-0.322-1.989-1.709-1.989
		c-1.26,0-1.793,1.135-1.891,1.989H62.951z"/>
	<path fill="#231F20" d="M71.506,11.526v8.194c0,0.603,0.028,1.289,0.056,1.751h-1.093l-0.056-1.177h-0.042
		c-0.364,0.757-1.177,1.331-2.283,1.331c-1.639,0-2.914-1.387-2.914-3.446c-0.014-2.255,1.401-3.628,3.04-3.628
		c1.051,0,1.737,0.49,2.045,1.022h0.028v-4.048H71.506z M70.287,17.451c0-0.153-0.014-0.364-0.056-0.518
		c-0.182-0.771-0.854-1.415-1.779-1.415c-1.275,0-2.031,1.12-2.031,2.605c0,1.373,0.687,2.507,2.003,2.507
		c0.826,0,1.583-0.56,1.807-1.471c0.042-0.168,0.056-0.336,0.056-0.532V17.451z"/>
	<path fill="#231F20" d="M73.589,12.03h1.232v8.419h4.034v1.022h-5.267V12.03z"/>
	<path fill="#231F20" d="M81.542,12.787c0,0.42-0.294,0.756-0.785,0.756c-0.448,0-0.742-0.336-0.742-0.756s0.308-0.771,0.77-0.771
		C81.233,12.017,81.542,12.353,81.542,12.787z M80.168,21.472v-6.779h1.233v6.779H80.168z"/>
	<path fill="#231F20" d="M83.276,20.225c0.378,0.225,1.022,0.477,1.639,0.477c0.883,0,1.303-0.435,1.303-1.009
		c0-0.588-0.35-0.896-1.247-1.232c-1.232-0.448-1.807-1.106-1.807-1.919c0-1.093,0.896-1.989,2.339-1.989
		c0.687,0,1.289,0.183,1.653,0.421l-0.294,0.896c-0.266-0.169-0.756-0.406-1.387-0.406c-0.729,0-1.121,0.42-1.121,0.924
		c0,0.561,0.392,0.813,1.274,1.163c1.163,0.434,1.779,1.022,1.779,2.031c0,1.204-0.938,2.045-2.521,2.045
		c-0.742,0-1.429-0.196-1.905-0.477L83.276,20.225z"/>
	<path fill="#231F20" d="M90.473,13.067v1.625h1.765v0.938h-1.765v3.655c0,0.841,0.238,1.317,0.924,1.317
		c0.336,0,0.533-0.028,0.714-0.084l0.056,0.938c-0.238,0.084-0.616,0.168-1.092,0.168c-0.575,0-1.037-0.196-1.331-0.519
		c-0.336-0.378-0.476-0.98-0.476-1.779v-3.697h-1.051v-0.938h1.051v-1.261L90.473,13.067z"/>
</g>
<g>
	<path fill="#231F20" d="M50.919,35.043c0,1.129-0.239,1.969-0.718,2.52s-1.179,0.826-2.101,0.826c-0.434,0-0.822-0.068-1.166-0.205
		s-0.636-0.344-0.876-0.621s-0.424-0.626-0.551-1.046s-0.19-0.911-0.19-1.474c0-1.121,0.237-1.955,0.712-2.502
		s1.177-0.82,2.106-0.82c0.434,0,0.822,0.067,1.166,0.202s0.636,0.34,0.876,0.615s0.424,0.621,0.551,1.037
		S50.919,34.48,50.919,35.043z M46.478,35.043c0,0.445,0.029,0.838,0.088,1.178s0.153,0.624,0.284,0.853s0.301,0.401,0.51,0.519
		s0.464,0.176,0.765,0.176s0.555-0.059,0.762-0.176s0.375-0.29,0.504-0.519s0.222-0.513,0.278-0.853s0.085-0.732,0.085-1.178
		s-0.029-0.836-0.088-1.172s-0.152-0.616-0.281-0.841s-0.298-0.394-0.507-0.507s-0.464-0.17-0.765-0.17s-0.555,0.057-0.762,0.17
		s-0.375,0.282-0.504,0.507s-0.223,0.505-0.281,0.841S46.478,34.598,46.478,35.043z"/>
	<path fill="#231F20" d="M59.01,35.043c0,0.578-0.054,1.078-0.161,1.5s-0.265,0.77-0.472,1.043s-0.463,0.476-0.768,0.606
		s-0.654,0.196-1.049,0.196c-0.23,0-0.439-0.025-0.627-0.076s-0.356-0.123-0.507-0.217s-0.283-0.205-0.398-0.334
		s-0.216-0.271-0.302-0.428h-0.076l-0.211,0.938h-1.922v-0.504h0.094c0.137,0,0.265-0.01,0.384-0.029s0.223-0.06,0.311-0.12
		s0.158-0.147,0.211-0.261s0.079-0.264,0.079-0.451v-6.434c0-0.176-0.026-0.317-0.079-0.425s-0.124-0.19-0.214-0.249
		s-0.194-0.097-0.313-0.114s-0.245-0.026-0.378-0.026h-0.094v-0.504h2.209v2.203c0,0.137-0.002,0.294-0.006,0.472
		s-0.01,0.349-0.018,0.513c-0.008,0.188-0.016,0.381-0.023,0.58h0.047c0.09-0.184,0.191-0.35,0.305-0.498s0.244-0.274,0.393-0.378
		s0.316-0.184,0.504-0.24s0.398-0.085,0.633-0.085c0.395,0,0.744,0.065,1.049,0.196s0.561,0.332,0.768,0.604
		s0.364,0.616,0.472,1.034S59.01,34.469,59.01,35.043z M56.356,32.488c-0.313,0-0.573,0.052-0.782,0.155s-0.376,0.261-0.501,0.472
		s-0.214,0.477-0.267,0.797s-0.079,0.697-0.079,1.131c0,0.418,0.026,0.787,0.079,1.107s0.143,0.59,0.27,0.809
		s0.295,0.384,0.504,0.495s0.472,0.167,0.788,0.167c0.266,0,0.491-0.056,0.677-0.167s0.338-0.276,0.457-0.495
		s0.206-0.489,0.261-0.812s0.082-0.694,0.082-1.116c0-0.426-0.027-0.798-0.082-1.116s-0.142-0.583-0.261-0.794
		s-0.273-0.369-0.463-0.475S56.622,32.488,56.356,32.488z"/>
	<path fill="#231F20" d="M62.644,31.838v6.527c0,0.539-0.059,0.987-0.176,1.345s-0.281,0.643-0.492,0.855s-0.462,0.364-0.753,0.454
		s-0.61,0.135-0.958,0.135h-0.193v-0.568h0.088c0.215,0,0.406-0.036,0.574-0.108s0.31-0.193,0.425-0.363s0.203-0.396,0.264-0.68
		s0.091-0.636,0.091-1.058v-5.215c0-0.176-0.026-0.317-0.079-0.425s-0.124-0.19-0.214-0.249s-0.194-0.098-0.313-0.117
		s-0.245-0.029-0.378-0.029h-0.035v-0.504H62.644z M61.349,29.893c0-0.141,0.018-0.258,0.053-0.352s0.083-0.17,0.144-0.229
		s0.133-0.1,0.217-0.123s0.173-0.035,0.267-0.035s0.183,0.012,0.267,0.035s0.156,0.064,0.217,0.123s0.109,0.135,0.146,0.229
		s0.056,0.211,0.056,0.352s-0.019,0.258-0.056,0.352s-0.086,0.17-0.146,0.229s-0.133,0.101-0.217,0.126s-0.173,0.038-0.267,0.038
		s-0.183-0.013-0.267-0.038s-0.156-0.067-0.217-0.126s-0.108-0.135-0.144-0.229S61.349,30.033,61.349,29.893z"/>
	<path fill="#231F20" d="M67.057,38.389c-0.434,0-0.823-0.073-1.169-0.22s-0.638-0.36-0.876-0.642s-0.421-0.626-0.548-1.034
		s-0.19-0.872-0.19-1.392c0-1.121,0.23-1.965,0.691-2.531s1.117-0.85,1.969-0.85c0.387,0,0.734,0.061,1.043,0.182
		s0.57,0.302,0.785,0.542s0.38,0.539,0.495,0.896s0.173,0.772,0.173,1.245v0.551h-3.996c0.008,0.438,0.052,0.813,0.132,1.128
		s0.195,0.573,0.346,0.776s0.335,0.353,0.554,0.448s0.471,0.144,0.756,0.144c0.207,0,0.399-0.023,0.577-0.07
		s0.339-0.109,0.483-0.188s0.272-0.167,0.384-0.267s0.202-0.204,0.272-0.313c0.055,0.023,0.106,0.072,0.155,0.146
		s0.073,0.162,0.073,0.264c0,0.121-0.043,0.251-0.129,0.39s-0.217,0.267-0.393,0.384s-0.396,0.215-0.659,0.293
		S67.413,38.389,67.057,38.389z M66.911,32.365c-0.445,0-0.788,0.181-1.028,0.542s-0.382,0.89-0.425,1.585h2.76
		c0-0.316-0.023-0.605-0.07-0.867s-0.121-0.486-0.223-0.674s-0.235-0.332-0.401-0.434S67.153,32.365,66.911,32.365z"/>
	<path fill="#231F20" d="M73.984,38.389c-0.398,0-0.766-0.062-1.102-0.185s-0.625-0.317-0.867-0.583s-0.431-0.606-0.565-1.022
		s-0.202-0.919-0.202-1.509c0-0.641,0.067-1.177,0.202-1.608s0.322-0.778,0.563-1.04s0.523-0.447,0.85-0.557
		s0.679-0.164,1.058-0.164c0.25,0,0.499,0.024,0.747,0.073s0.472,0.124,0.671,0.226s0.361,0.229,0.486,0.384
		s0.188,0.335,0.188,0.542c0,0.277-0.09,0.473-0.27,0.586s-0.447,0.17-0.803,0.17c0-0.188-0.016-0.365-0.047-0.533
		s-0.085-0.315-0.161-0.442s-0.18-0.227-0.311-0.299s-0.298-0.108-0.501-0.108c-0.23,0-0.438,0.043-0.624,0.129
		s-0.345,0.234-0.478,0.445s-0.234,0.494-0.305,0.85s-0.105,0.801-0.105,1.336c0,0.852,0.142,1.486,0.425,1.904
		s0.747,0.627,1.392,0.627c0.371,0,0.695-0.078,0.973-0.234s0.484-0.357,0.621-0.604c0.059,0.047,0.107,0.109,0.146,0.188
		s0.059,0.172,0.059,0.281c0,0.137-0.043,0.273-0.129,0.41s-0.214,0.26-0.384,0.369s-0.382,0.198-0.636,0.267
		S74.324,38.389,73.984,38.389z"/>
	<path fill="#231F20" d="M80.19,37.756c0.145,0,0.277-0.008,0.398-0.023s0.244-0.035,0.369-0.059v0.527
		c-0.051,0.023-0.117,0.047-0.199,0.07s-0.171,0.044-0.267,0.062s-0.196,0.031-0.302,0.041s-0.205,0.015-0.299,0.015
		c-0.305,0-0.566-0.032-0.785-0.097s-0.398-0.169-0.539-0.313s-0.245-0.336-0.313-0.574s-0.103-0.529-0.103-0.873v-4.008h-0.914
		v-0.48c0.145,0,0.304-0.029,0.478-0.088s0.327-0.156,0.46-0.293c0.137-0.148,0.247-0.325,0.331-0.53s0.157-0.462,0.22-0.771h0.551
		v1.477h1.57v0.686h-1.57v4.043c0,0.41,0.083,0.711,0.249,0.902S79.913,37.756,80.19,37.756z"/>
</g>
<g>
	<path fill="#231F20" d="M42.4,119.332v-4.143c0-1.016-0.465-1.523-1.395-1.523c-1.199,0-1.799,0.777-1.799,2.332v3.334h-1.066
		v-9.117h1.066v2.707l-0.047,0.844h0.059c0.402-0.656,1.059-0.984,1.969-0.984c1.52,0,2.279,0.783,2.279,2.35v4.201H42.4z"/>
	<path fill="#231F20" d="M50.826,116.32h-4.535c0.031,1.465,0.703,2.197,2.016,2.197c0.762,0,1.484-0.148,2.168-0.445v0.938
		c-0.648,0.293-1.359,0.439-2.133,0.439c-0.957,0-1.723-0.293-2.297-0.877s-0.861-1.387-0.861-2.41c0-1.039,0.265-1.863,0.794-2.471
		s1.237-0.91,2.124-0.91c0.828,0,1.489,0.262,1.983,0.785s0.741,1.221,0.741,2.092V116.32z M46.314,115.453h3.357
		c0-1.191-0.531-1.787-1.594-1.787C47.004,113.666,46.416,114.262,46.314,115.453z"/>
	<path fill="#231F20" d="M56.85,119.332l-0.217-0.891h-0.047c-0.301,0.379-0.609,0.641-0.926,0.787s-0.725,0.221-1.225,0.221
		c-0.637,0-1.136-0.168-1.497-0.504s-0.542-0.807-0.542-1.412c0-1.297,0.996-1.977,2.988-2.039l1.189-0.041v-0.404
		c0-0.922-0.477-1.383-1.43-1.383c-0.574,0-1.215,0.16-1.922,0.48l-0.369-0.803c0.766-0.375,1.514-0.563,2.244-0.563
		c0.887,0,1.528,0.17,1.925,0.51s0.595,0.885,0.595,1.635v4.406H56.85z M56.563,116.186l-0.949,0.041
		c-0.766,0.031-1.309,0.15-1.629,0.359s-0.48,0.529-0.48,0.959c0,0.695,0.391,1.043,1.172,1.043c0.574,0,1.032-0.16,1.374-0.479
		s0.513-0.766,0.513-1.344V116.186z"/>
	<path fill="#231F20" d="M64.063,118.471h-0.047c-0.441,0.652-1.07,0.979-1.887,0.979c-0.785,0-1.401-0.293-1.849-0.877
		s-0.671-1.398-0.671-2.445c0-1.055,0.225-1.877,0.674-2.465s1.064-0.881,1.846-0.881c0.805,0,1.434,0.313,1.887,0.938h0.07
		c-0.047-0.504-0.07-0.82-0.07-0.949v-2.555h1.066v9.117h-0.861L64.063,118.471z M64.016,116.367v-0.24
		c0-0.887-0.136-1.52-0.407-1.896s-0.704-0.564-1.298-0.564c-1.063,0-1.594,0.824-1.594,2.473c0,1.617,0.535,2.426,1.605,2.426
		c0.594,0,1.021-0.174,1.28-0.52S64,117.141,64.016,116.367z"/>
</g>
<g>
	<path fill="#231F20" d="M39.389,147.04v-0.973c0.754,0.336,1.477,0.504,2.168,0.504c1.074,0,1.611-0.316,1.611-0.949
		c0-0.223-0.096-0.416-0.287-0.58s-0.633-0.371-1.324-0.621c-0.91-0.34-1.483-0.651-1.72-0.935s-0.354-0.618-0.354-1.005
		c0-0.531,0.218-0.948,0.653-1.251s1.038-0.454,1.808-0.454c0.773,0,1.494,0.145,2.162,0.434l-0.352,0.873
		c-0.711-0.281-1.334-0.422-1.869-0.422c-0.922,0-1.383,0.26-1.383,0.779c0,0.238,0.099,0.429,0.296,0.571s0.651,0.341,1.362,0.595
		c0.824,0.301,1.372,0.597,1.644,0.888s0.407,0.647,0.407,1.069c0,0.586-0.229,1.046-0.686,1.38s-1.104,0.501-1.939,0.501
		C40.617,147.444,39.885,147.31,39.389,147.04z"/>
	<path fill="#231F20" d="M48.57,141.737l-1.576-0.123v-0.721h2.643v5.596l2.063,0.117v0.721h-5.145v-0.721l2.016-0.117V141.737z
		 M49.109,138.245c0.414,0,0.621,0.223,0.621,0.668c0,0.227-0.062,0.396-0.185,0.507s-0.269,0.167-0.437,0.167
		c-0.418,0-0.627-0.225-0.627-0.674C48.482,138.468,48.691,138.245,49.109,138.245z"/>
	<path fill="#231F20" d="M58.719,147.327h-5.051v-0.732l3.867-4.898h-3.674v-0.803h4.752v0.855l-3.791,4.775h3.896V147.327z"/>
	<path fill="#231F20" d="M66.225,144.315h-4.535c0.031,1.465,0.703,2.197,2.016,2.197c0.762,0,1.484-0.148,2.168-0.445v0.938
		c-0.648,0.293-1.359,0.439-2.133,0.439c-0.957,0-1.723-0.292-2.297-0.876s-0.861-1.388-0.861-2.411c0-1.039,0.265-1.862,0.794-2.47
		s1.237-0.911,2.124-0.911c0.828,0,1.489,0.262,1.983,0.785s0.741,1.221,0.741,2.092V144.315z M61.713,143.448h3.357
		c0-1.191-0.531-1.787-1.594-1.787C62.402,141.661,61.814,142.257,61.713,143.448z"/>
</g>
<rect x="138.004" y="95.316" fill="#D8F0C8" width="70" height="40"/>
<rect x="138.004" y="95.316" fill="none" stroke="#231F20" width="70" height="40"/>
<g>
	<path fill="#231F20" d="M147.167,109.417l-0.28,3.609h-1.06l-0.28-3.609H147.167z M150.052,109.417l-0.28,3.609h-1.06l-0.28-3.609
		H150.052z"/>
	<path fill="#231F20" d="M159.137,112.842h-2.659v6.569h-1.244v-6.569h-2.167v-0.752l2.167-0.226v-0.656
		c0-0.88,0.205-1.518,0.615-1.914s1.091-0.595,2.044-0.595c0.588,0,1.162,0.08,1.723,0.239l-0.28,0.978
		c-0.474-0.127-0.946-0.191-1.415-0.191c-0.561,0-0.941,0.113-1.142,0.342s-0.301,0.604-0.301,1.128v0.711h2.659V112.842z"/>
	<path fill="#231F20" d="M164.039,109.752l-1.832-0.144v-0.834h3.083v9.659l2.406,0.137v0.841h-6.009v-0.841l2.352-0.137V109.752z"
		/>
	<path fill="#231F20" d="M176.295,115.897h-5.291c0.037,1.709,0.82,2.563,2.352,2.563c0.889,0,1.732-0.174,2.529-0.52v1.094
		c-0.756,0.342-1.586,0.513-2.488,0.513c-1.117,0-2.01-0.341-2.68-1.022c-0.67-0.681-1.005-1.619-1.005-2.813
		c0-1.213,0.309-2.173,0.926-2.881c0.618-0.709,1.443-1.063,2.478-1.063c0.966,0,1.737,0.306,2.314,0.916s0.865,1.425,0.865,2.44
		V115.897z M171.032,114.886h3.917c0-1.39-0.62-2.085-1.859-2.085C171.836,112.801,171.15,113.496,171.032,114.886z"/>
	<path fill="#231F20" d="M183.323,119.411l-0.253-1.039h-0.055c-0.351,0.442-0.711,0.749-1.08,0.919
		c-0.369,0.172-0.845,0.257-1.429,0.257c-0.743,0-1.325-0.196-1.747-0.588s-0.632-0.94-0.632-1.647c0-1.514,1.162-2.307,3.486-2.379
		l1.388-0.048v-0.472c0-1.076-0.556-1.613-1.668-1.613c-0.67,0-1.417,0.188-2.242,0.561l-0.431-0.937
		c0.893-0.438,1.766-0.656,2.618-0.656c1.035,0,1.783,0.198,2.246,0.595s0.694,1.032,0.694,1.907v5.141H183.323z M182.988,115.74
		l-1.107,0.048c-0.893,0.036-1.527,0.177-1.9,0.421c-0.374,0.243-0.561,0.615-0.561,1.117c0,0.811,0.456,1.217,1.367,1.217
		c0.67,0,1.204-0.186,1.603-0.557c0.399-0.372,0.598-0.895,0.598-1.569V115.74z"/>
	<path fill="#231F20" d="M186.994,119.076v-1.135c0.879,0.393,1.723,0.588,2.529,0.588c1.253,0,1.88-0.369,1.88-1.107
		c0-0.26-0.112-0.485-0.335-0.677s-0.738-0.433-1.545-0.725c-1.062-0.396-1.73-0.76-2.006-1.091
		c-0.276-0.33-0.414-0.721-0.414-1.172c0-0.619,0.254-1.106,0.762-1.459c0.508-0.354,1.211-0.53,2.109-0.53
		c0.902,0,1.743,0.169,2.522,0.506l-0.41,1.019c-0.83-0.328-1.556-0.492-2.181-0.492c-1.076,0-1.613,0.303-1.613,0.909
		c0,0.278,0.115,0.5,0.345,0.667c0.23,0.166,0.76,0.396,1.589,0.693c0.961,0.352,1.601,0.696,1.917,1.035
		c0.317,0.34,0.475,0.756,0.475,1.248c0,0.684-0.267,1.221-0.8,1.609c-0.533,0.391-1.288,0.585-2.263,0.585
		C188.427,119.548,187.572,119.391,186.994,119.076z"/>
	<path fill="#231F20" d="M197.576,109.417l-0.28,3.609h-1.06l-0.28-3.609H197.576z M200.46,109.417l-0.28,3.609h-1.06l-0.28-3.609
		H200.46z"/>
</g>
<line fill="none" stroke="#231F20" stroke-width="2" x1="88.004" y1="115.328" x2="134.004" y2="115.328"/>
<polygon fill="#231F20" points="131.969,119.395 130.758,118.184 133.613,115.328 130.758,112.473 131.969,111.266 136.035,115.328 
	"/>
<rect x="208.004" y="95.316" fill="#D8F0C8" width="30" height="40"/>
<rect x="208.004" y="95.316" fill="none" stroke="#231F20" width="30" height="40"/>
<line fill="none" stroke="#231F20" stroke-width="2" x1="223.004" y1="115.328" x2="269.004" y2="115.328"/>
<polygon fill="#231F20" points="266.969,119.395 265.758,118.184 268.613,115.328 265.758,112.473 266.969,111.266 271.035,115.328 
	"/>
<g>
	<path fill="#231F20" d="M220.004,115.328c0-1.656,1.344-3,3-3c1.656,0,3,1.344,3,3s-1.344,3-3,3
		C221.348,118.328,220.004,116.984,220.004,115.328"/>
	<path fill="#231F20" d="M85.004,115.328c0-1.656,1.344-3,3-3c1.656,0,3,1.344,3,3s-1.344,3-3,3
		C86.348,118.328,85.004,116.984,85.004,115.328"/>
</g>
<rect x="273.004" y="95.328" fill="#D8F0C8" width="70" height="40"/>
<rect x="273.004" y="95.328" fill="none" stroke="#231F20" width="70" height="40"/>
<g>
	<path fill="#231F20" d="M290.569,109.43l-0.28,3.609h-1.06l-0.28-3.609H290.569z M293.454,109.43l-0.28,3.609h-1.06l-0.28-3.609
		H293.454z"/>
	<path fill="#231F20" d="M301.465,119.424v-4.833c0-1.185-0.542-1.777-1.627-1.777c-1.399,0-2.099,0.907-2.099,2.721v3.89h-1.244
		v-10.637h1.244v3.158l-0.055,0.984h0.068c0.469-0.766,1.235-1.148,2.297-1.148c1.773,0,2.659,0.914,2.659,2.741v4.901H301.465z"/>
	<path fill="#231F20" d="M309.921,119.424l-0.253-1.039h-0.055c-0.351,0.441-0.711,0.748-1.08,0.92
		c-0.369,0.17-0.845,0.256-1.429,0.256c-0.743,0-1.325-0.195-1.747-0.588s-0.632-0.941-0.632-1.647c0-1.513,1.162-2.306,3.486-2.379
		l1.388-0.048v-0.472c0-1.075-0.556-1.613-1.668-1.613c-0.67,0-1.417,0.187-2.242,0.561l-0.431-0.937
		c0.893-0.438,1.766-0.656,2.618-0.656c1.035,0,1.783,0.198,2.246,0.595s0.694,1.032,0.694,1.907v5.141H309.921z M309.586,115.753
		l-1.107,0.048c-0.893,0.037-1.527,0.177-1.9,0.42c-0.374,0.244-0.561,0.617-0.561,1.118c0,0.812,0.456,1.217,1.367,1.217
		c0.67,0,1.204-0.186,1.603-0.558c0.399-0.371,0.598-0.895,0.598-1.568V115.753z"/>
	<path fill="#231F20" d="M313.592,119.089v-1.135c0.879,0.392,1.723,0.588,2.529,0.588c1.253,0,1.88-0.369,1.88-1.107
		c0-0.26-0.112-0.485-0.335-0.677s-0.738-0.434-1.545-0.725c-1.062-0.396-1.73-0.76-2.006-1.09
		c-0.276-0.331-0.414-0.722-0.414-1.173c0-0.62,0.254-1.106,0.762-1.46c0.508-0.353,1.211-0.529,2.109-0.529
		c0.902,0,1.743,0.168,2.522,0.506l-0.41,1.019c-0.83-0.328-1.556-0.492-2.181-0.492c-1.076,0-1.613,0.304-1.613,0.909
		c0,0.277,0.115,0.5,0.345,0.666c0.23,0.167,0.76,0.398,1.589,0.694c0.961,0.351,1.601,0.696,1.917,1.036
		c0.317,0.339,0.475,0.755,0.475,1.247c0,0.684-0.267,1.22-0.8,1.61c-0.533,0.389-1.288,0.584-2.263,0.584
		C315.025,119.561,314.171,119.403,313.592,119.089z"/>
	<path fill="#231F20" d="M324.174,109.43l-0.28,3.609h-1.06l-0.28-3.609H324.174z M327.059,109.43l-0.28,3.609h-1.06l-0.28-3.609
		H327.059z"/>
</g>
<rect x="343.004" y="95.328" fill="#D8F0C8" width="30" height="40"/>
<rect x="343.004" y="95.328" fill="none" stroke="#231F20" width="30" height="40"/>
<line fill="none" stroke="#231F20" stroke-width="2" x1="358.004" y1="115.344" x2="404.004" y2="115.344"/>
<polygon fill="#231F20" points="401.969,119.406 400.758,118.195 403.613,115.344 400.758,112.484 401.969,111.277 406.035,115.344 
	"/>
<g>
	<path fill="#231F20" d="M355.004,115.344c0-1.66,1.344-3,3-3c1.655,0,3,1.34,3,3c0,1.652-1.345,3-3,3
		C356.348,118.344,355.004,116.996,355.004,115.344"/>
	<rect x="408.004" y="95.328" fill="#D8F0C8" width="70" height="40"/>
	<rect x="408.004" y="95.328" fill="none" stroke="#231F20" width="70" height="40"/>
</g>
<g>
	<path fill="#231F20" d="M425.569,109.43l-0.28,3.609h-1.06l-0.28-3.609H425.569z M428.454,109.43l-0.28,3.609h-1.06l-0.28-3.609
		H428.454z"/>
	<path fill="#231F20" d="M436.534,118.419h-0.055c-0.515,0.761-1.249,1.142-2.201,1.142c-0.916,0-1.635-0.341-2.157-1.021
		c-0.521-0.682-0.782-1.633-0.782-2.854c0-1.23,0.262-2.188,0.786-2.874c0.524-0.687,1.242-1.029,2.153-1.029
		c0.938,0,1.673,0.365,2.201,1.094h0.082c-0.055-0.588-0.082-0.957-0.082-1.107v-2.98h1.244v10.637h-1.005L436.534,118.419z
		 M436.479,115.965v-0.28c0-1.034-0.158-1.771-0.476-2.212c-0.316-0.439-0.821-0.659-1.514-0.659c-1.239,0-1.859,0.962-1.859,2.885
		c0,1.887,0.624,2.83,1.873,2.83c0.692,0,1.19-0.202,1.494-0.604C436.3,117.52,436.46,116.867,436.479,115.965z"/>
	<path fill="#231F20" d="M442.973,119.561c-0.984,0-1.794-0.354-2.431-1.063c-0.635-0.709-0.953-1.656-0.953-2.841
		c0-1.198,0.309-2.144,0.926-2.837c0.618-0.693,1.451-1.039,2.499-1.039c0.993,0,1.807,0.354,2.44,1.06s0.95,1.646,0.95,2.816
		c0,1.208-0.313,2.16-0.937,2.857S444.012,119.561,442.973,119.561z M443,118.528c1.413,0,2.119-0.957,2.119-2.871
		c0-1.896-0.711-2.844-2.133-2.844c-1.408,0-2.112,0.948-2.112,2.844C440.875,117.571,441.583,118.528,443,118.528z"/>
	<path fill="#231F20" d="M454.902,111.918v0.772l-1.34,0.185c0.296,0.387,0.444,0.873,0.444,1.456c0,0.733-0.243,1.318-0.728,1.753
		c-0.486,0.436-1.161,0.653-2.027,0.653c-0.251,0-0.446-0.014-0.588-0.041c-0.456,0.255-0.684,0.558-0.684,0.909
		c0,0.383,0.367,0.574,1.101,0.574h1.278c0.793,0,1.399,0.176,1.818,0.526s0.629,0.853,0.629,1.504c0,1.718-1.287,2.577-3.862,2.577
		c-0.993,0-1.749-0.184-2.267-0.551c-0.517-0.366-0.775-0.881-0.775-1.541c0-0.967,0.547-1.582,1.641-1.846
		c-0.438-0.215-0.656-0.564-0.656-1.053c0-0.51,0.303-0.947,0.909-1.313c-0.405-0.168-0.725-0.447-0.957-0.838
		c-0.232-0.389-0.349-0.814-0.349-1.274c0-0.829,0.242-1.469,0.729-1.917c0.484-0.449,1.177-0.674,2.074-0.674
		c0.392,0,0.733,0.045,1.025,0.137H454.902z M451.935,119.301h-1.285c-1.048,0-1.572,0.451-1.572,1.354
		c0,0.793,0.617,1.189,1.853,1.189c1.8,0,2.7-0.508,2.7-1.524c0-0.401-0.114-0.671-0.342-0.81
		C453.061,119.37,452.61,119.301,451.935,119.301z M451.265,115.883c1.017,0,1.524-0.523,1.524-1.572
		c0-1.09-0.513-1.634-1.538-1.634s-1.538,0.552-1.538,1.654C449.713,115.365,450.231,115.883,451.265,115.883z"/>
	<path fill="#231F20" d="M459.174,109.43l-0.28,3.609h-1.06l-0.28-3.609H459.174z M462.059,109.43l-0.28,3.609h-1.06l-0.28-3.609
		H462.059z"/>
</g>
<rect x="478.004" y="95.328" fill="#D8F0C8" width="30" height="40"/>
<rect x="478.004" y="95.328" fill="none" stroke="#231F20" width="30" height="40"/>
<line fill="none" stroke="#231F20" stroke-width="2" x1="493.004" y1="115.344" x2="539.004" y2="115.344"/>
<polygon fill="#231F20" points="536.969,119.406 535.758,118.195 538.613,115.344 535.758,112.484 536.969,111.277 541.035,115.344 
	"/>
<g>
	<path fill="#231F20" d="M490.004,115.344c0-1.66,1.344-3,3-3c1.655,0,3,1.34,3,3c0,1.652-1.345,3-3,3
		C491.348,118.344,490.004,116.996,490.004,115.344"/>
	<rect x="543.004" y="95.328" fill="#D8F0C8" width="70" height="40"/>
	<rect x="543.004" y="95.328" fill="none" stroke="#231F20" width="70" height="40"/>
</g>
<g>
	<path fill="#231F20" d="M564.769,108.335l-0.279,3.609h-1.061l-0.279-3.609H564.769z M567.654,108.335l-0.279,3.609h-1.061
		l-0.279-3.609H567.654z"/>
	<path fill="#231F20" d="M576.281,118.329v-4.833c0-0.666-0.061-1.128-0.182-1.388c-0.119-0.26-0.322-0.39-0.604-0.39
		c-0.396,0-0.686,0.189-0.865,0.567s-0.27,1.012-0.27,1.9v4.143h-1.102v-4.833c0-1.186-0.285-1.777-0.854-1.777
		c-0.383,0-0.656,0.182-0.82,0.543c-0.164,0.363-0.246,1.088-0.246,2.178v3.89h-1.107v-7.506h0.867l0.186,1.012h0.068
		c0.305-0.766,0.764-1.148,1.373-1.148c0.744,0,1.229,0.415,1.457,1.244h0.041c0.346-0.829,0.846-1.244,1.496-1.244
		c0.584,0,1.008,0.211,1.271,0.632c0.266,0.422,0.396,1.125,0.396,2.109v4.901H576.281z"/>
	<path fill="#231F20" d="M578.564,110.823h1.285l1.791,4.471c0.375,0.935,0.576,1.595,0.609,1.982h0.041
		c0.104-0.511,0.309-1.176,0.615-1.996l1.633-4.457h1.293l-3.248,8.483c-0.305,0.793-0.66,1.389-1.066,1.787
		c-0.404,0.399-0.965,0.599-1.682,0.599c-0.391,0-0.773-0.038-1.148-0.116v-0.991c0.283,0.055,0.594,0.082,0.93,0.082
		c0.438,0,0.779-0.093,1.021-0.28c0.244-0.188,0.463-0.508,0.654-0.964l0.396-1.025L578.564,110.823z"/>
	<path fill="#231F20" d="M589.974,108.335l-0.281,3.609h-1.059l-0.281-3.609H589.974z M592.859,108.335l-0.281,3.609h-1.059
		l-0.281-3.609H592.859z"/>
</g>
<rect x="613.004" y="95.328" fill="#D8F0C8" width="30" height="40"/>
<rect x="613.004" y="95.328" fill="none" stroke="#231F20" width="30" height="40"/>
<g>
	<path fill="#231F20" d="M352.072,22.048v-9.441h1.345l3.012,4.777c0.687,1.106,1.247,2.101,1.681,3.067l0.042-0.015
		c-0.111-1.26-0.14-2.409-0.14-3.88v-3.95h1.148v9.441h-1.232l-2.998-4.791c-0.658-1.05-1.288-2.129-1.751-3.151l-0.042,0.014
		c0.07,1.191,0.084,2.326,0.084,3.895v4.034H352.072z"/>
	<path fill="#231F20" d="M367.377,18.602c0,2.508-1.751,3.601-3.376,3.601c-1.821,0-3.25-1.345-3.25-3.488
		c0-2.255,1.499-3.586,3.362-3.586C366.06,15.128,367.377,16.543,367.377,18.602z M362.012,18.672c0,1.485,0.841,2.605,2.045,2.605
		c1.177,0,2.06-1.106,2.06-2.634c0-1.148-0.574-2.591-2.031-2.591C362.642,16.053,362.012,17.397,362.012,18.672z"/>
	<path fill="#231F20" d="M374.768,12.103v8.194c0,0.603,0.028,1.289,0.057,1.751h-1.093l-0.056-1.177h-0.042
		c-0.364,0.757-1.177,1.331-2.283,1.331c-1.64,0-2.914-1.387-2.914-3.446c-0.014-2.255,1.4-3.628,3.04-3.628
		c1.05,0,1.736,0.49,2.045,1.022h0.028v-4.048H374.768z M373.55,18.027c0-0.153-0.015-0.364-0.057-0.518
		c-0.182-0.771-0.854-1.415-1.779-1.415c-1.274,0-2.03,1.12-2.03,2.605c0,1.373,0.687,2.507,2.003,2.507
		c0.826,0,1.583-0.56,1.807-1.471c0.042-0.168,0.057-0.336,0.057-0.532V18.027z"/>
	<path fill="#231F20" d="M377.51,18.882c0.028,1.667,1.078,2.354,2.325,2.354c0.883,0,1.429-0.154,1.877-0.351l0.225,0.883
		c-0.435,0.196-1.191,0.435-2.27,0.435c-2.087,0-3.334-1.387-3.334-3.432c0-2.046,1.205-3.643,3.18-3.643
		c2.228,0,2.802,1.934,2.802,3.18c0,0.252-0.015,0.435-0.042,0.574H377.51z M381.125,18c0.014-0.771-0.322-1.989-1.709-1.989
		c-1.261,0-1.793,1.135-1.892,1.989H381.125z"/>
</g>
<g>
	<path fill="#231F20" d="M393.7,18.819c0,1.129-0.239,1.969-0.718,2.52s-1.179,0.826-2.101,0.826c-0.434,0-0.822-0.068-1.166-0.205
		s-0.636-0.344-0.876-0.621s-0.424-0.626-0.551-1.046s-0.19-0.911-0.19-1.474c0-1.121,0.237-1.955,0.712-2.502
		s1.177-0.82,2.106-0.82c0.434,0,0.822,0.067,1.166,0.202s0.636,0.34,0.876,0.615s0.424,0.621,0.551,1.037
		S393.7,18.257,393.7,18.819z M389.258,18.819c0,0.445,0.029,0.838,0.088,1.178s0.153,0.624,0.284,0.853s0.301,0.401,0.51,0.519
		s0.464,0.176,0.765,0.176s0.555-0.059,0.762-0.176s0.375-0.29,0.504-0.519s0.222-0.513,0.278-0.853s0.085-0.732,0.085-1.178
		s-0.029-0.836-0.088-1.172s-0.152-0.616-0.281-0.841s-0.298-0.394-0.507-0.507s-0.464-0.17-0.765-0.17s-0.555,0.057-0.762,0.17
		s-0.375,0.282-0.504,0.507s-0.223,0.505-0.281,0.841S389.258,18.374,389.258,18.819z"/>
	<path fill="#231F20" d="M401.791,18.819c0,0.578-0.054,1.078-0.161,1.5s-0.265,0.77-0.472,1.043s-0.463,0.476-0.768,0.606
		s-0.654,0.196-1.049,0.196c-0.23,0-0.439-0.025-0.627-0.076s-0.356-0.123-0.507-0.217s-0.283-0.205-0.398-0.334
		s-0.216-0.271-0.302-0.428h-0.076l-0.211,0.938h-1.922v-0.504h0.094c0.137,0,0.265-0.01,0.384-0.029s0.223-0.06,0.311-0.12
		s0.158-0.147,0.211-0.261s0.079-0.264,0.079-0.451v-6.434c0-0.176-0.026-0.317-0.079-0.425s-0.124-0.19-0.214-0.249
		s-0.194-0.097-0.313-0.114s-0.245-0.026-0.378-0.026h-0.094v-0.504h2.209v2.203c0,0.137-0.002,0.294-0.006,0.472
		s-0.01,0.349-0.018,0.513c-0.008,0.188-0.016,0.381-0.023,0.58h0.047c0.09-0.184,0.191-0.35,0.305-0.498s0.244-0.274,0.393-0.378
		s0.316-0.184,0.504-0.24s0.398-0.085,0.633-0.085c0.395,0,0.744,0.065,1.049,0.196s0.561,0.332,0.768,0.604
		s0.364,0.616,0.472,1.034S401.791,18.245,401.791,18.819z M399.136,16.265c-0.313,0-0.573,0.052-0.782,0.155
		s-0.376,0.261-0.501,0.472s-0.214,0.477-0.267,0.797s-0.079,0.697-0.079,1.131c0,0.418,0.026,0.787,0.079,1.107
		s0.143,0.59,0.27,0.809s0.295,0.384,0.504,0.495s0.472,0.167,0.788,0.167c0.266,0,0.491-0.056,0.677-0.167s0.338-0.276,0.457-0.495
		s0.206-0.489,0.261-0.812s0.082-0.694,0.082-1.116c0-0.426-0.027-0.798-0.082-1.116s-0.142-0.583-0.261-0.794
		s-0.273-0.369-0.463-0.475S399.402,16.265,399.136,16.265z"/>
	<path fill="#231F20" d="M405.425,15.614v6.527c0,0.539-0.059,0.987-0.176,1.345s-0.281,0.643-0.492,0.855s-0.462,0.364-0.753,0.454
		s-0.61,0.135-0.958,0.135h-0.193v-0.568h0.088c0.215,0,0.406-0.036,0.574-0.108s0.31-0.193,0.425-0.363s0.203-0.396,0.264-0.68
		s0.091-0.636,0.091-1.058v-5.215c0-0.176-0.026-0.317-0.079-0.425s-0.124-0.19-0.214-0.249s-0.194-0.098-0.313-0.117
		s-0.245-0.029-0.378-0.029h-0.035v-0.504H405.425z M404.13,13.669c0-0.141,0.018-0.258,0.053-0.352s0.083-0.17,0.144-0.229
		s0.133-0.1,0.217-0.123s0.173-0.035,0.267-0.035s0.183,0.012,0.267,0.035s0.156,0.064,0.217,0.123s0.109,0.135,0.146,0.229
		s0.056,0.211,0.056,0.352s-0.019,0.258-0.056,0.352s-0.086,0.17-0.146,0.229s-0.133,0.101-0.217,0.126s-0.173,0.038-0.267,0.038
		s-0.183-0.013-0.267-0.038s-0.156-0.067-0.217-0.126s-0.108-0.135-0.144-0.229S404.13,13.81,404.13,13.669z"/>
	<path fill="#231F20" d="M409.838,22.165c-0.434,0-0.823-0.073-1.169-0.22s-0.638-0.36-0.876-0.642s-0.421-0.626-0.548-1.034
		s-0.19-0.872-0.19-1.392c0-1.121,0.23-1.965,0.691-2.531s1.117-0.85,1.969-0.85c0.387,0,0.734,0.061,1.043,0.182
		s0.57,0.302,0.785,0.542s0.38,0.539,0.495,0.896s0.173,0.772,0.173,1.245v0.551h-3.996c0.008,0.438,0.052,0.813,0.132,1.128
		s0.195,0.573,0.346,0.776s0.335,0.353,0.554,0.448s0.471,0.144,0.756,0.144c0.207,0,0.399-0.023,0.577-0.07
		s0.339-0.109,0.483-0.188s0.272-0.167,0.384-0.267s0.202-0.204,0.272-0.313c0.055,0.023,0.106,0.072,0.155,0.146
		s0.073,0.162,0.073,0.264c0,0.121-0.043,0.251-0.129,0.39s-0.217,0.267-0.393,0.384s-0.396,0.215-0.659,0.293
		S410.194,22.165,409.838,22.165z M409.692,16.142c-0.445,0-0.788,0.181-1.028,0.542s-0.382,0.89-0.425,1.585h2.76
		c0-0.316-0.023-0.605-0.07-0.867s-0.121-0.486-0.223-0.674s-0.235-0.332-0.401-0.434S409.934,16.142,409.692,16.142z"/>
	<path fill="#231F20" d="M416.765,22.165c-0.398,0-0.766-0.062-1.102-0.185s-0.625-0.317-0.867-0.583s-0.431-0.606-0.565-1.022
		s-0.202-0.919-0.202-1.509c0-0.641,0.067-1.177,0.202-1.608s0.322-0.778,0.563-1.04s0.523-0.447,0.85-0.557
		s0.679-0.164,1.058-0.164c0.25,0,0.499,0.024,0.747,0.073s0.472,0.124,0.671,0.226s0.361,0.229,0.486,0.384
		s0.188,0.335,0.188,0.542c0,0.277-0.09,0.473-0.27,0.586s-0.447,0.17-0.803,0.17c0-0.188-0.016-0.365-0.047-0.533
		s-0.085-0.315-0.161-0.442s-0.18-0.227-0.311-0.299s-0.298-0.108-0.501-0.108c-0.23,0-0.438,0.043-0.624,0.129
		s-0.345,0.234-0.478,0.445s-0.234,0.494-0.305,0.85s-0.105,0.801-0.105,1.336c0,0.852,0.142,1.486,0.425,1.904
		s0.747,0.627,1.392,0.627c0.371,0,0.695-0.078,0.973-0.234s0.484-0.357,0.621-0.604c0.059,0.047,0.107,0.109,0.146,0.188
		s0.059,0.172,0.059,0.281c0,0.137-0.043,0.273-0.129,0.41s-0.214,0.26-0.384,0.369s-0.382,0.198-0.636,0.267
		S417.105,22.165,416.765,22.165z"/>
	<path fill="#231F20" d="M422.97,21.532c0.145,0,0.277-0.008,0.398-0.023s0.244-0.035,0.369-0.059v0.527
		c-0.051,0.023-0.117,0.047-0.199,0.07s-0.171,0.044-0.267,0.062s-0.196,0.031-0.302,0.041s-0.205,0.015-0.299,0.015
		c-0.305,0-0.566-0.032-0.785-0.097s-0.398-0.169-0.539-0.313s-0.245-0.336-0.313-0.574s-0.103-0.529-0.103-0.873V16.3h-0.914v-0.48
		c0.145,0,0.304-0.029,0.478-0.088s0.327-0.156,0.46-0.293c0.137-0.148,0.247-0.325,0.331-0.53s0.157-0.462,0.22-0.771h0.551v1.477
		h1.57V16.3h-1.57v4.043c0,0.41,0.083,0.711,0.249,0.902S422.693,21.532,422.97,21.532z"/>
	<path fill="#231F20" d="M426.905,22.165c-0.301,0-0.573-0.026-0.817-0.079s-0.452-0.133-0.624-0.24s-0.305-0.24-0.398-0.398
		s-0.141-0.343-0.141-0.554c0-0.16,0.026-0.294,0.079-0.401s0.117-0.192,0.193-0.255s0.158-0.106,0.246-0.132
		s0.167-0.038,0.237-0.038c0,0.211,0.021,0.408,0.064,0.592s0.115,0.345,0.217,0.483s0.235,0.248,0.401,0.328s0.37,0.12,0.612,0.12
		c0.215,0,0.404-0.026,0.568-0.079s0.302-0.127,0.413-0.223s0.196-0.211,0.255-0.346s0.088-0.282,0.088-0.442
		c0-0.148-0.022-0.276-0.067-0.384s-0.123-0.208-0.234-0.302s-0.263-0.189-0.454-0.287s-0.432-0.209-0.721-0.334
		c-0.309-0.137-0.577-0.269-0.806-0.396s-0.417-0.265-0.565-0.413s-0.26-0.317-0.334-0.507s-0.111-0.415-0.111-0.677
		c0-0.273,0.054-0.516,0.161-0.727s0.261-0.388,0.46-0.53s0.438-0.251,0.715-0.325s0.586-0.111,0.926-0.111
		c0.285,0,0.537,0.029,0.756,0.088s0.402,0.138,0.551,0.237s0.26,0.217,0.334,0.352s0.111,0.276,0.111,0.425
		c0,0.219-0.075,0.394-0.226,0.524s-0.364,0.196-0.642,0.196c0-0.402-0.083-0.715-0.249-0.938s-0.427-0.334-0.782-0.334
		c-0.203,0-0.377,0.023-0.521,0.07s-0.263,0.113-0.354,0.199s-0.159,0.188-0.202,0.305s-0.064,0.246-0.064,0.387
		c0,0.152,0.027,0.284,0.082,0.396s0.142,0.214,0.261,0.308s0.273,0.185,0.463,0.272s0.417,0.187,0.683,0.296
		c0.316,0.133,0.588,0.264,0.814,0.393s0.413,0.27,0.56,0.422s0.255,0.324,0.325,0.516s0.105,0.412,0.105,0.662
		c0,0.313-0.057,0.586-0.17,0.82s-0.273,0.431-0.48,0.589s-0.456,0.276-0.747,0.354S427.26,22.165,426.905,22.165z"/>
</g>
<line fill="none" stroke="#231F20" x1="613.004" y1="95.328" x2="643.004" y2="135.328"/>
<line fill="none" stroke="#231F20" x1="613.004" y1="135.328" x2="643.004" y2="95.328"/>
<g>
	<path d="M92.001,147.396h-1.248v1.922h-1.031v-1.922h-3.961v-0.932l3.891-5.76h1.102v5.719h1.248V147.396z M89.722,146.424v-2.086
		c0-0.688,0.025-1.531,0.076-2.531h-0.053c-0.141,0.398-0.316,0.75-0.527,1.055l-2.408,3.563H89.722z"/>
</g>
<g>
	<path d="M348.804,86.559v-4.143c0-1.016-0.465-1.523-1.395-1.523c-1.199,0-1.799,0.777-1.799,2.332v3.334h-1.066v-6.434h0.861
		l0.158,0.867h0.059c0.402-0.656,1.059-0.984,1.969-0.984c1.52,0,2.279,0.783,2.279,2.35v4.201H348.804z"/>
	<path d="M357.23,83.547h-4.535c0.031,1.465,0.703,2.197,2.016,2.197c0.762,0,1.484-0.148,2.168-0.445v0.938
		c-0.648,0.293-1.359,0.439-2.133,0.439c-0.957,0-1.723-0.292-2.297-0.876s-0.861-1.388-0.861-2.411c0-1.039,0.265-1.862,0.794-2.47
		s1.237-0.911,2.124-0.911c0.828,0,1.489,0.262,1.983,0.785s0.741,1.221,0.741,2.092V83.547z M352.718,82.68h3.357
		c0-1.191-0.531-1.787-1.594-1.787C353.408,80.893,352.82,81.488,352.718,82.68z"/>
	<path d="M360.998,83.26l-2.303-3.135h1.213l1.699,2.402l1.705-2.402h1.213l-2.314,3.135l2.42,3.299h-1.207l-1.816-2.555
		l-1.822,2.555h-1.213L360.998,83.26z"/>
	<path d="M371.187,85.68v0.809c-0.508,0.125-1,0.188-1.477,0.188c-1.414,0-2.121-0.672-2.121-2.016v-3.732h-1.564v-0.551
		l1.564-0.287l0.451-1.682h0.615v1.717h2.566v0.803h-2.566v3.732c0,0.762,0.375,1.143,1.125,1.143
		C370.144,85.803,370.613,85.762,371.187,85.68z"/>
</g>
<g>
	<path d="M292.921,86.559l-2.438-6.434h1.102l1.406,3.82c0.332,0.902,0.527,1.537,0.586,1.904h0.035
		c0.027-0.172,0.225-0.807,0.592-1.904l1.4-3.82h1.107l-2.438,6.434H292.921z"/>
	<path d="M302.449,86.559l-0.217-0.891h-0.047c-0.301,0.379-0.609,0.642-0.926,0.788s-0.725,0.22-1.225,0.22
		c-0.637,0-1.136-0.168-1.497-0.504s-0.542-0.807-0.542-1.412c0-1.297,0.996-1.977,2.988-2.039l1.189-0.041v-0.404
		c0-0.922-0.477-1.383-1.43-1.383c-0.574,0-1.215,0.16-1.922,0.48l-0.369-0.803c0.766-0.375,1.514-0.563,2.244-0.563
		c0.887,0,1.528,0.17,1.925,0.51s0.595,0.885,0.595,1.635v4.406H302.449z M302.162,83.412l-0.949,0.041
		c-0.766,0.031-1.309,0.151-1.629,0.36s-0.48,0.528-0.48,0.958c0,0.695,0.391,1.043,1.172,1.043c0.574,0,1.032-0.159,1.374-0.478
		s0.513-0.767,0.513-1.345V83.412z"/>
	<path d="M307.523,78.279l-1.57-0.123v-0.715h2.643v8.279l2.063,0.117v0.721h-5.15v-0.721l2.016-0.117V78.279z"/>
	<path d="M317.009,86.559l-0.158-0.861h-0.059c-0.41,0.652-1.063,0.979-1.957,0.979c-1.527,0-2.291-0.783-2.291-2.35v-4.201h1.066
		v4.143c0,1.016,0.461,1.523,1.383,1.523c0.629,0,1.088-0.181,1.377-0.542s0.434-0.956,0.434-1.784v-3.34h1.066v6.434H317.009z"/>
	<path d="M325.23,83.547h-4.535c0.031,1.465,0.703,2.197,2.016,2.197c0.762,0,1.484-0.148,2.168-0.445v0.938
		c-0.648,0.293-1.359,0.439-2.133,0.439c-0.957,0-1.723-0.292-2.297-0.876s-0.861-1.388-0.861-2.411c0-1.039,0.265-1.862,0.794-2.47
		s1.237-0.911,2.124-0.911c0.828,0,1.489,0.262,1.983,0.785s0.741,1.221,0.741,2.092V83.547z M320.718,82.68h3.357
		c0-1.191-0.531-1.787-1.594-1.787C321.408,80.893,320.82,81.488,320.718,82.68z"/>
</g>
<g>
	<path d="M483.798,86.559v-4.143c0-1.016-0.465-1.523-1.395-1.523c-1.199,0-1.799,0.777-1.799,2.332v3.334h-1.066v-6.434h0.861
		l0.158,0.867h0.059c0.402-0.656,1.059-0.984,1.969-0.984c1.52,0,2.279,0.783,2.279,2.35v4.201H483.798z"/>
	<path d="M492.224,83.547h-4.535c0.031,1.465,0.703,2.197,2.016,2.197c0.762,0,1.484-0.148,2.168-0.445v0.938
		c-0.648,0.293-1.359,0.439-2.133,0.439c-0.957,0-1.723-0.292-2.297-0.876s-0.861-1.388-0.861-2.411c0-1.039,0.266-1.862,0.795-2.47
		s1.236-0.911,2.123-0.911c0.828,0,1.49,0.262,1.984,0.785s0.74,1.221,0.74,2.092V83.547z M487.712,82.68h3.357
		c0-1.191-0.531-1.787-1.594-1.787C488.402,80.893,487.814,81.488,487.712,82.68z"/>
	<path d="M495.992,83.26l-2.303-3.135h1.213l1.699,2.402l1.705-2.402h1.213l-2.314,3.135l2.42,3.299h-1.207l-1.816-2.555
		l-1.822,2.555h-1.213L495.992,83.26z"/>
	<path d="M506.181,85.68v0.809c-0.508,0.125-1,0.188-1.477,0.188c-1.414,0-2.121-0.672-2.121-2.016v-3.732h-1.564v-0.551
		l1.564-0.287l0.451-1.682h0.615v1.717h2.566v0.803h-2.566v3.732c0,0.762,0.375,1.143,1.125,1.143
		C505.138,85.803,505.607,85.762,506.181,85.68z"/>
</g>
<g>
	<path d="M427.919,86.559l-2.438-6.434h1.102l1.406,3.82c0.332,0.902,0.527,1.537,0.586,1.904h0.035
		c0.027-0.172,0.225-0.807,0.592-1.904l1.4-3.82h1.107l-2.438,6.434H427.919z"/>
	<path d="M437.447,86.559l-0.217-0.891h-0.047c-0.301,0.379-0.609,0.642-0.926,0.788s-0.725,0.22-1.225,0.22
		c-0.637,0-1.137-0.168-1.498-0.504s-0.541-0.807-0.541-1.412c0-1.297,0.996-1.977,2.988-2.039l1.189-0.041v-0.404
		c0-0.922-0.477-1.383-1.43-1.383c-0.574,0-1.215,0.16-1.922,0.48l-0.369-0.803c0.766-0.375,1.514-0.563,2.244-0.563
		c0.887,0,1.527,0.17,1.924,0.51s0.596,0.885,0.596,1.635v4.406H437.447z M437.16,83.412l-0.949,0.041
		c-0.766,0.031-1.309,0.151-1.629,0.36s-0.48,0.528-0.48,0.958c0,0.695,0.391,1.043,1.172,1.043c0.574,0,1.031-0.159,1.373-0.478
		s0.514-0.767,0.514-1.345V83.412z"/>
	<path d="M442.521,78.279l-1.57-0.123v-0.715h2.643v8.279l2.063,0.117v0.721h-5.15v-0.721l2.016-0.117V78.279z"/>
	<path d="M452.007,86.559l-0.158-0.861h-0.059c-0.41,0.652-1.063,0.979-1.957,0.979c-1.527,0-2.291-0.783-2.291-2.35v-4.201h1.066
		v4.143c0,1.016,0.461,1.523,1.383,1.523c0.629,0,1.088-0.181,1.377-0.542s0.434-0.956,0.434-1.784v-3.34h1.066v6.434H452.007z"/>
	<path d="M460.228,83.547h-4.535c0.031,1.465,0.703,2.197,2.016,2.197c0.762,0,1.484-0.148,2.168-0.445v0.938
		c-0.648,0.293-1.359,0.439-2.133,0.439c-0.957,0-1.723-0.292-2.297-0.876s-0.861-1.388-0.861-2.411c0-1.039,0.264-1.862,0.793-2.47
		s1.238-0.911,2.125-0.911c0.828,0,1.488,0.262,1.982,0.785s0.742,1.221,0.742,2.092V83.547z M455.716,82.68h3.357
		c0-1.191-0.531-1.787-1.594-1.787C456.406,80.893,455.818,81.488,455.716,82.68z"/>
</g>
<g>
	<path d="M618.799,86.559v-4.143c0-1.016-0.465-1.523-1.395-1.523c-1.199,0-1.799,0.777-1.799,2.332v3.334h-1.066v-6.434h0.861
		l0.158,0.867h0.059c0.402-0.656,1.059-0.984,1.969-0.984c1.52,0,2.279,0.783,2.279,2.35v4.201H618.799z"/>
	<path d="M627.225,83.547h-4.535c0.031,1.465,0.703,2.197,2.016,2.197c0.762,0,1.484-0.148,2.168-0.445v0.938
		c-0.648,0.293-1.359,0.439-2.133,0.439c-0.957,0-1.723-0.292-2.297-0.876s-0.861-1.388-0.861-2.411c0-1.039,0.265-1.862,0.794-2.47
		s1.237-0.911,2.124-0.911c0.828,0,1.489,0.262,1.983,0.785s0.741,1.221,0.741,2.092V83.547z M622.713,82.68h3.357
		c0-1.191-0.531-1.787-1.594-1.787C623.403,80.893,622.815,81.488,622.713,82.68z"/>
	<path d="M630.993,83.26l-2.303-3.135h1.213l1.699,2.402l1.705-2.402h1.213l-2.314,3.135l2.42,3.299h-1.207l-1.816-2.555
		l-1.822,2.555h-1.213L630.993,83.26z"/>
	<path d="M641.182,85.68v0.809c-0.508,0.125-1,0.188-1.477,0.188c-1.414,0-2.121-0.672-2.121-2.016v-3.732h-1.564v-0.551
		l1.564-0.287l0.451-1.682h0.615v1.717h2.566v0.803h-2.566v3.732c0,0.762,0.375,1.143,1.125,1.143
		C640.139,85.803,640.608,85.762,641.182,85.68z"/>
</g>
<g>
	<path d="M562.918,86.559l-2.438-6.434h1.102l1.406,3.82c0.332,0.902,0.527,1.537,0.586,1.904h0.035
		c0.027-0.172,0.225-0.807,0.592-1.904l1.4-3.82h1.107l-2.438,6.434H562.918z"/>
	<path d="M572.446,86.559l-0.217-0.891h-0.047c-0.301,0.379-0.609,0.642-0.926,0.788s-0.725,0.22-1.225,0.22
		c-0.637,0-1.136-0.168-1.497-0.504s-0.542-0.807-0.542-1.412c0-1.297,0.996-1.977,2.988-2.039l1.189-0.041v-0.404
		c0-0.922-0.477-1.383-1.43-1.383c-0.574,0-1.215,0.16-1.922,0.48l-0.369-0.803c0.766-0.375,1.514-0.563,2.244-0.563
		c0.887,0,1.528,0.17,1.925,0.51s0.595,0.885,0.595,1.635v4.406H572.446z M572.159,83.412l-0.949,0.041
		c-0.766,0.031-1.309,0.151-1.629,0.36s-0.48,0.528-0.48,0.958c0,0.695,0.391,1.043,1.172,1.043c0.574,0,1.032-0.159,1.374-0.478
		s0.513-0.767,0.513-1.345V83.412z"/>
	<path d="M577.52,78.279l-1.57-0.123v-0.715h2.643v8.279l2.063,0.117v0.721h-5.15v-0.721l2.016-0.117V78.279z"/>
	<path d="M587.006,86.559l-0.158-0.861h-0.059c-0.41,0.652-1.063,0.979-1.957,0.979c-1.527,0-2.291-0.783-2.291-2.35v-4.201h1.066
		v4.143c0,1.016,0.461,1.523,1.383,1.523c0.629,0,1.088-0.181,1.377-0.542s0.434-0.956,0.434-1.784v-3.34h1.066v6.434H587.006z"/>
	<path d="M595.227,83.547h-4.535c0.031,1.465,0.703,2.197,2.016,2.197c0.762,0,1.484-0.148,2.168-0.445v0.938
		c-0.648,0.293-1.359,0.439-2.133,0.439c-0.957,0-1.723-0.292-2.297-0.876s-0.861-1.388-0.861-2.411c0-1.039,0.265-1.862,0.794-2.47
		s1.237-0.911,2.124-0.911c0.828,0,1.489,0.262,1.983,0.785s0.741,1.221,0.741,2.092V83.547z M590.715,82.68h3.357
		c0-1.191-0.531-1.787-1.594-1.787C591.405,80.893,590.817,81.488,590.715,82.68z"/>
</g>
<g>
	<path d="M213.799,86.559v-4.143c0-1.016-0.465-1.523-1.395-1.523c-1.199,0-1.799,0.777-1.799,2.332v3.334h-1.066v-6.434h0.861
		l0.158,0.867h0.059c0.402-0.656,1.059-0.984,1.969-0.984c1.52,0,2.279,0.783,2.279,2.35v4.201H213.799z"/>
	<path d="M222.225,83.547h-4.535c0.031,1.465,0.703,2.197,2.016,2.197c0.762,0,1.484-0.148,2.168-0.445v0.938
		c-0.648,0.293-1.359,0.439-2.133,0.439c-0.957,0-1.723-0.292-2.297-0.876s-0.861-1.388-0.861-2.411c0-1.039,0.265-1.862,0.794-2.47
		s1.237-0.911,2.124-0.911c0.828,0,1.489,0.262,1.983,0.785s0.741,1.221,0.741,2.092V83.547z M217.713,82.68h3.357
		c0-1.191-0.531-1.787-1.594-1.787C218.402,80.893,217.814,81.488,217.713,82.68z"/>
	<path d="M225.992,83.26l-2.303-3.135h1.213l1.699,2.402l1.705-2.402h1.213l-2.314,3.135l2.42,3.299h-1.207l-1.816-2.555
		l-1.822,2.555h-1.213L225.992,83.26z"/>
	<path d="M236.182,85.68v0.809c-0.508,0.125-1,0.188-1.477,0.188c-1.414,0-2.121-0.672-2.121-2.016v-3.732h-1.564v-0.551
		l1.564-0.287l0.451-1.682h0.615v1.717h2.566v0.803h-2.566v3.732c0,0.762,0.375,1.143,1.125,1.143
		C235.139,85.803,235.607,85.762,236.182,85.68z"/>
</g>
<g>
	<path d="M157.919,86.559l-2.438-6.434h1.102l1.406,3.82c0.332,0.902,0.527,1.537,0.586,1.904h0.035
		c0.027-0.172,0.225-0.807,0.592-1.904l1.4-3.82h1.107l-2.438,6.434H157.919z"/>
	<path d="M167.446,86.559l-0.217-0.891h-0.047c-0.301,0.379-0.609,0.642-0.926,0.788s-0.725,0.22-1.225,0.22
		c-0.637,0-1.136-0.168-1.497-0.504s-0.542-0.807-0.542-1.412c0-1.297,0.996-1.977,2.988-2.039l1.189-0.041v-0.404
		c0-0.922-0.477-1.383-1.43-1.383c-0.574,0-1.215,0.16-1.922,0.48l-0.369-0.803c0.766-0.375,1.514-0.563,2.244-0.563
		c0.887,0,1.528,0.17,1.925,0.51s0.595,0.885,0.595,1.635v4.406H167.446z M167.159,83.412l-0.949,0.041
		c-0.766,0.031-1.309,0.151-1.629,0.36s-0.48,0.528-0.48,0.958c0,0.695,0.391,1.043,1.172,1.043c0.574,0,1.032-0.159,1.374-0.478
		s0.513-0.767,0.513-1.345V83.412z"/>
	<path d="M172.521,78.279l-1.57-0.123v-0.715h2.643v8.279l2.063,0.117v0.721h-5.15v-0.721l2.016-0.117V78.279z"/>
	<path d="M182.007,86.559l-0.158-0.861h-0.059c-0.41,0.652-1.063,0.979-1.957,0.979c-1.527,0-2.291-0.783-2.291-2.35v-4.201h1.066
		v4.143c0,1.016,0.461,1.523,1.383,1.523c0.629,0,1.088-0.181,1.377-0.542s0.434-0.956,0.434-1.784v-3.34h1.066v6.434H182.007z"/>
	<path d="M190.228,83.547h-4.535c0.031,1.465,0.703,2.197,2.016,2.197c0.762,0,1.484-0.148,2.168-0.445v0.938
		c-0.648,0.293-1.359,0.439-2.133,0.439c-0.957,0-1.723-0.292-2.297-0.876s-0.861-1.388-0.861-2.411c0-1.039,0.265-1.862,0.794-2.47
		s1.237-0.911,2.124-0.911c0.828,0,1.489,0.262,1.983,0.785s0.741,1.221,0.741,2.092V83.547z M185.716,82.68h3.357
		c0-1.191-0.531-1.787-1.594-1.787C186.405,80.893,185.817,81.488,185.716,82.68z"/>
</g>
</svg>
