<?xml version="1.0" encoding="iso-8859-1"?>
<!-- Generator: Adobe Illustrator 14.0.0, SVG Export Plug-In . SVG Version: 6.00 Build 43363)  -->
<!DOCTYPE svg PUBLIC "-//W3C//DTD SVG 1.1//EN" "http://www.w3.org/Graphics/SVG/1.1/DTD/svg11.dtd">
<svg version="1.1" id="Layer_1" xmlns="http://www.w3.org/2000/svg" xmlns:xlink="http://www.w3.org/1999/xlink" x="0px" y="0px"
	 width="80.432px" height="26.931px" viewBox="0 0 80.432 26.931" style="enable-background:new 0 0 80.432 26.931;"
	 xml:space="preserve">
<rect x="0.275" y="6.606" width="7.803" height="0.688"/>
<path d="M10.512,9.428l0.654-3.419c0.551-0.379,0.964-0.608,1.377-0.608c0.562,0,0.952,0.516,0.952,1.399
	c0,0.792-0.275,1.653-0.642,2.204c-0.39,0.585-0.838,0.883-1.32,0.883C11.155,9.887,10.822,9.738,10.512,9.428 M11.625,1.809
	L9.881,2.153V2.44l0.998,0.184L9.537,9.854c0.55,0.344,1.136,0.505,1.744,0.505c0.872,0,1.675-0.379,2.26-1.091
	c0.585-0.711,0.895-1.629,0.895-2.616c0-1.182-0.631-1.95-1.491-1.95c-0.459,0-1.022,0.286-1.699,0.86l0.494-2.696
	c0.069-0.39,0.16-0.735,0.264-1.056H11.625z"/>
<polygon points="21.323,6.33 21.323,8.831 18.133,8.831 18.133,9.52 25.201,9.52 25.201,8.831 22.011,8.831 22.011,6.33 
	25.201,6.33 25.201,5.642 22.011,5.642 22.011,2.452 21.323,2.452 21.323,5.642 18.133,5.642 18.133,6.33 "/>
<polygon points="29.679,7.757 30.481,7.08 31.917,10.924 32.674,10.924 37.241,0.689 37.998,0.689 37.998,0 36.782,0 32.627,9.329 
	31.25,5.634 29.289,7.287 "/>
<line style="fill:none;stroke:#000000;stroke-width:0.689;stroke-miterlimit:10;" x1="37.69" y1="0.345" x2="80.431" y2="0.345"/>
<path d="M39.813,9.428l0.654-3.419c0.551-0.379,0.965-0.608,1.377-0.608c0.563,0,0.952,0.516,0.952,1.399
	c0,0.792-0.274,1.653-0.642,2.204c-0.391,0.585-0.838,0.883-1.32,0.883C40.456,9.887,40.123,9.738,39.813,9.428 M40.926,1.809
	l-1.744,0.344V2.44l0.998,0.184l-1.342,7.229c0.55,0.344,1.136,0.505,1.744,0.505c0.872,0,1.675-0.379,2.26-1.091
	c0.585-0.711,0.896-1.629,0.896-2.616c0-1.182-0.631-1.95-1.491-1.95c-0.459,0-1.021,0.286-1.699,0.86l0.494-2.696
	c0.068-0.39,0.16-0.735,0.264-1.056H40.926z"/>
<path d="M45.734,6.529c1.689-1.345,2.614-2.209,2.614-3.172c0-0.864-0.603-1.445-1.59-1.445c-0.948,0-1.62,0.542-1.62,1.078
	c0,0.259,0.16,0.428,0.428,0.428c0.122,0,0.237-0.039,0.345-0.115V2.485c0.229-0.13,0.45-0.183,0.68-0.183
	c0.635,0,1.017,0.428,1.017,1.154c0,1.001-0.956,1.835-2.63,3.195v0.482h3.54V5.879h-0.344l-0.138,0.65H45.734z"/>
<rect x="51.818" y="6.606" width="7.804" height="0.688"/>
<path d="M66.072,3.737v3.545h-2.834L66.072,3.737z M66.29,2.486l-3.913,4.796v0.746h3.695v2.651h0.884V8.028h1.296V7.282h-1.296
	V2.486H66.29z"/>
<path d="M78.858,6.124c0.437-0.012,0.723-0.275,0.723-0.631c0-0.436-0.436-0.803-1.066-0.803c-0.711,0-1.47,0.355-2.055,0.998
	c-0.607,0.665-0.951,1.572-0.951,2.593c0,1.297,0.688,2.089,1.697,2.089c0.678,0,1.435-0.368,2.146-1.114V8.729
	c-0.62,0.631-1.262,0.952-1.79,0.952c-0.712,0-1.148-0.562-1.148-1.561c0-1.709,0.792-2.868,1.722-2.868h0.058L78.858,6.124z
	 M72.374,5.172l0.459,0.699l-0.597,3.03c-0.47,0.505-0.918,0.757-1.354,0.757c-0.665,0-0.998-0.459-0.998-1.377
	c0-1.824,0.986-3.109,2.329-3.109H72.374z M73.441,4.724l-0.229,0.252C72.856,4.804,72.5,4.724,72.18,4.724
	c-1.137,0-2.066,0.539-2.651,1.503c-0.39,0.643-0.597,1.354-0.597,2.123c0,1.262,0.608,2.008,1.584,2.008
	c0.551,0,1.102-0.321,1.71-0.964v0.092c0,0.585,0.218,0.872,0.7,0.872c0.309,0,0.779-0.138,1.41-0.402V9.612
	c-0.31,0.069-0.516,0.115-0.643,0.115c-0.424,0-0.619-0.161-0.619-0.528c0-0.161,0.034-0.424,0.115-0.803l0.413-2.031
	c0.172-0.849,0.321-1.4,0.436-1.641H73.441z"/>
<line style="fill:none;stroke:#000000;stroke-width:0.689;stroke-miterlimit:10;" x1="0" y1="15.018" x2="80.432" y2="15.018"/>
<path d="M35.344,25.921c2.536-2.021,3.924-3.316,3.924-4.763c0-1.297-0.906-2.168-2.386-2.168c-1.423,0-2.433,0.814-2.433,1.617
	c0,0.391,0.241,0.643,0.643,0.643c0.183,0,0.355-0.057,0.516-0.172v-1.228c0.344-0.194,0.677-0.274,1.021-0.274
	c0.953,0,1.526,0.642,1.526,1.731c0,1.503-1.434,2.754-3.947,4.797v0.722h5.313v-1.881h-0.517l-0.206,0.976H35.344z"/>
<path d="M44.031,21.745l0.459,0.699l-0.597,3.03c-0.47,0.505-0.918,0.757-1.354,0.757c-0.665,0-0.998-0.459-0.998-1.377
	c0-1.824,0.987-3.109,2.329-3.109H44.031z M45.099,21.297l-0.229,0.252c-0.355-0.172-0.712-0.252-1.033-0.252
	c-1.136,0-2.065,0.539-2.65,1.502c-0.39,0.644-0.597,1.354-0.597,2.123c0,1.263,0.609,2.009,1.584,2.009
	c0.551,0,1.102-0.321,1.71-0.964v0.092c0,0.585,0.218,0.872,0.699,0.872c0.31,0,0.78-0.138,1.411-0.402v-0.344
	c-0.31,0.069-0.516,0.114-0.643,0.114c-0.424,0-0.619-0.16-0.619-0.527c0-0.161,0.034-0.424,0.115-0.803l0.413-2.031
	c0.172-0.85,0.32-1.4,0.436-1.641H45.099z"/>
</svg>
