<?xml version="1.0" encoding="iso-8859-1"?>
<!-- Generator: Adobe Illustrator 14.0.0, SVG Export Plug-In . SVG Version: 6.00 Build 43363)  -->
<!DOCTYPE svg PUBLIC "-//W3C//DTD SVG 1.1//EN" "http://www.w3.org/Graphics/SVG/1.1/DTD/svg11.dtd">
<svg version="1.1" id="Layer_1" xmlns="http://www.w3.org/2000/svg" xmlns:xlink="http://www.w3.org/1999/xlink" x="0px" y="0px"
	 width="60.189px" height="24.716px" viewBox="0 0 60.189 24.716" style="enable-background:new 0 0 60.189 24.716;"
	 xml:space="preserve">
<polygon points="1.285,8.523 1.285,8.959 2.019,9.028 2.134,9.189 0.906,15.567 0.723,15.729 0,15.786 0,16.222 2.88,16.222 
	2.88,15.763 2.077,15.706 1.916,15.534 2.478,12.608 4.096,12.608 4.234,12.78 4.188,13.606 4.681,13.606 5.175,11.082 4.67,11.082 
	4.406,11.908 4.2,12.08 2.582,12.08 3.155,9.051 5.473,9.051 5.588,9.234 5.588,10.325 6.139,10.325 6.494,8.523 "/>
<path d="M10.667,14.501h7.711v-0.688h-7.711V14.501z M10.667,12.022h7.711v-0.688h-7.711V12.022z"/>
<path d="M33.766,2.318l-1.697,0.367v0.298l0.94,0.184l-0.953,4.681h0.964l0.724-3.889c0.723-0.655,1.331-0.941,1.63-0.941
	c0.401,0,0.631,0.252,0.631,0.677c0,0.16-0.035,0.424-0.104,0.791l-0.688,3.362h0.952l0.746-3.901
	c0.528-0.62,1.125-0.929,1.561-0.929c0.378,0,0.563,0.252,0.563,0.734c0,0.161-0.023,0.402-0.104,0.734l-0.494,2.123
	c-0.057,0.264-0.091,0.482-0.091,0.62c0,0.47,0.264,0.688,0.837,0.688c0.311,0,0.77-0.126,1.377-0.355v-0.31
	c-0.264,0.069-0.481,0.103-0.642,0.103c-0.368,0-0.586-0.207-0.586-0.574c0-0.183,0.058-0.436,0.127-0.746l0.39-1.778
	c0.092-0.39,0.138-0.712,0.138-0.964c0-0.608-0.391-0.975-0.941-0.975c-0.55,0-1.262,0.344-2.099,1.044
	c-0.013-0.677-0.356-1.044-0.931-1.044c-0.539,0-1.273,0.355-2.169,1.09l0.207-1.09H33.766z M30.541,0.344
	C30.013,0.137,29.313,0,28.476,0c-1.102,0-2.112,0.355-2.961,1.01c-1.182,0.917-1.859,2.306-1.859,3.786
	c0,1.916,1.239,3.19,3.133,3.19c0.631,0,1.446-0.126,2.421-0.402l0.539-2.765l0.184-0.161l0.734-0.057V4.154h-2.823v0.447
	l0.746,0.057l0.115,0.161l-0.436,2.444c-0.493,0.103-0.895,0.161-1.205,0.161c-1.354,0-2.295-0.987-2.295-2.467
	c0-1.503,0.574-2.8,1.503-3.592c0.609-0.516,1.343-0.803,2.1-0.803c0.402,0,0.792,0.103,1.159,0.287l0.104,0.241L29.6,2.168h0.608
	L30.541,0.344z"/>
<polygon points="43.42,5.22 41.761,5.717 41.761,6.038 42.961,5.824 42.961,9.937 42.871,10.067 41.991,10.113 41.991,10.441 
	44.551,10.441 44.551,10.12 43.727,10.082 43.634,9.967 43.634,5.22 "/>
<path d="M48.159,2.317l-1.697,0.367v0.299l0.94,0.183l-0.953,4.682h0.965l0.723-3.89c0.723-0.654,1.331-0.941,1.629-0.941
	c0.402,0,0.632,0.252,0.632,0.677c0,0.161-0.035,0.425-0.104,0.792l-0.688,3.362h0.952l0.746-3.902
	c0.528-0.619,1.125-0.929,1.561-0.929c0.378,0,0.563,0.252,0.563,0.734c0,0.161-0.023,0.402-0.104,0.735l-0.494,2.123
	c-0.057,0.263-0.092,0.481-0.092,0.619c0,0.471,0.265,0.689,0.838,0.689c0.311,0,0.77-0.127,1.377-0.356v-0.31
	c-0.264,0.069-0.481,0.103-0.643,0.103c-0.367,0-0.585-0.206-0.585-0.573c0-0.184,0.058-0.436,0.126-0.746l0.391-1.779
	c0.092-0.39,0.138-0.711,0.138-0.964c0-0.608-0.391-0.975-0.941-0.975c-0.55,0-1.262,0.344-2.1,1.044
	c-0.012-0.677-0.355-1.044-0.93-1.044c-0.539,0-1.273,0.356-2.169,1.09l0.207-1.09H48.159z"/>
<path d="M56.514,9.837c1.689-1.345,2.615-2.209,2.615-3.173c0-0.863-0.604-1.444-1.591-1.444c-0.948,0-1.62,0.542-1.62,1.078
	c0,0.259,0.16,0.428,0.428,0.428c0.122,0,0.237-0.039,0.344-0.115V5.793c0.229-0.13,0.451-0.184,0.68-0.184
	c0.636,0,1.018,0.429,1.018,1.155c0,1.001-0.956,1.835-2.63,3.195v0.482h3.54V9.188h-0.344l-0.139,0.65H56.514z"/>
<line style="fill:none;stroke:#000000;stroke-width:0.689;stroke-miterlimit:10;" x1="22.921" y1="12.905" x2="60.189" y2="12.905"/>
<path d="M38.776,19.185l-1.697,0.379v0.287l0.94,0.172l-0.953,4.693h0.964l0.472-2.697c0.183-1.055,0.55-1.675,1.675-2.111
	l0.298,0.62h0.081c0.47,0,0.768-0.31,0.768-0.745c0-0.346-0.252-0.598-0.642-0.598c-0.574,0-1.308,0.527-2.043,1.572l0.367-1.572
	H38.776z"/>
<path d="M43.263,20.989c1.688-1.345,2.614-2.209,2.614-3.173c0-0.862-0.604-1.444-1.59-1.444c-0.948,0-1.62,0.543-1.62,1.078
	c0,0.26,0.159,0.428,0.428,0.428c0.122,0,0.237-0.039,0.344-0.114v-0.818c0.229-0.13,0.451-0.183,0.68-0.183
	c0.636,0,1.018,0.428,1.018,1.154c0,1-0.956,1.834-2.63,3.194v0.481h3.54v-1.254h-0.345l-0.138,0.65H43.263z"/>
</svg>
