<?xml version="1.0" encoding="iso-8859-1"?>
<!-- Generator: Adobe Illustrator 14.0.0, SVG Export Plug-In . SVG Version: 6.00 Build 43363)  -->
<!DOCTYPE svg PUBLIC "-//W3C//DTD SVG 1.1//EN" "http://www.w3.org/Graphics/SVG/1.1/DTD/svg11.dtd">
<svg version="1.1" id="Layer_1" xmlns="http://www.w3.org/2000/svg" xmlns:xlink="http://www.w3.org/1999/xlink" x="0px" y="0px"
	 width="55.641px" height="12.08px" viewBox="0 0 55.641 12.08" style="enable-background:new 0 0 55.641 12.08;"
	 xml:space="preserve">
<path d="M5.795,2.476c0.356-0.069,0.562-0.298,0.562-0.597c0-0.344-0.401-0.677-0.952-0.677c-1.067,0-2.031,1.067-2.41,3.041
	L2.123,4.599L2.112,4.978l0.768-0.08L2.399,8.19c-0.219,1.526-0.414,2.571-0.953,3.133l-1.193-0.31C0.092,11.129,0,11.289,0,11.473
	c0,0.367,0.253,0.607,0.62,0.607c0.551,0,1.182-0.436,1.79-1.296c0.505-0.712,0.711-1.571,0.861-2.628L3.73,4.897h1.709V4.381H3.821
	c0.253-1.492,0.597-2.387,1.033-2.674L5.795,2.476z"/>
<path d="M9.411,6.297c0-3.144,0.918-4.705,2.238-4.934V0.835c-1.905,0.23-3.213,1.997-3.213,5.462c0,3.464,1.308,5.232,3.213,5.462
	v-0.528C10.329,11.002,9.411,9.441,9.411,6.297"/>
<path d="M14.645,4.037l-1.159,0.402v0.275l0.952,0.126c0.31,0.287,0.574,0.953,0.873,1.997c-0.471,1.136-1.079,1.87-1.595,2.146
	l-0.528-0.494c-0.356,0.07-0.563,0.277-0.563,0.586c0,0.367,0.276,0.619,0.712,0.619c0.757,0,1.446-0.769,2.192-2.328
	c0.378,1.629,0.527,2.306,1.331,2.306c0.309,0,0.745-0.115,1.285-0.333V8.982c-0.276,0.08-0.482,0.127-0.608,0.127
	c-0.689,0-0.85-0.724-1.297-2.272c0.505-1.171,1.01-1.825,1.538-1.962l0.493,0.447c0.367-0.149,0.562-0.367,0.562-0.642
	c0-0.356-0.287-0.643-0.654-0.643c-0.723,0-1.434,0.769-2.191,2.306c-0.402-1.56-0.54-2.317-1.217-2.317L14.645,4.037z"/>
<path d="M27.516,7.881h7.711V7.192h-7.711V7.881z M27.516,5.402h7.711V4.714h-7.711V5.402z M22.575,6.297
	c0,3.144-0.918,4.705-2.238,4.934v0.528c1.905-0.23,3.213-1.998,3.213-5.462c0-3.465-1.308-5.232-3.213-5.462v0.528
	C21.657,1.592,22.575,3.153,22.575,6.297"/>
<polygon points="40.238,7.758 41.042,7.08 42.476,10.924 43.233,10.924 47.8,0.689 48.557,0.689 48.557,0 47.341,0 43.187,9.33 
	41.81,5.634 39.848,7.287 "/>
<line style="fill:none;stroke:#000000;stroke-width:0.689;stroke-miterlimit:10;" x1="48.25" y1="0.345" x2="55.641" y2="0.345"/>
<path d="M50.59,4.037l-1.159,0.402v0.275l0.952,0.126c0.311,0.287,0.574,0.953,0.873,1.997c-0.471,1.136-1.079,1.87-1.595,2.146
	l-0.528-0.494c-0.355,0.069-0.563,0.276-0.563,0.586c0,0.367,0.275,0.619,0.712,0.619c0.757,0,1.445-0.769,2.191-2.328
	c0.378,1.629,0.527,2.306,1.331,2.306c0.31,0,0.745-0.115,1.285-0.333V8.982c-0.276,0.08-0.482,0.127-0.607,0.127
	c-0.689,0-0.851-0.724-1.298-2.272c0.505-1.171,1.011-1.825,1.538-1.962l0.493,0.447c0.367-0.149,0.563-0.367,0.563-0.642
	c0-0.356-0.287-0.643-0.654-0.643c-0.723,0-1.435,0.769-2.191,2.306c-0.401-1.56-0.54-2.317-1.217-2.317L50.59,4.037z"/>
</svg>
