<?xml version="1.0" encoding="iso-8859-1"?>
<!-- Generator: Adobe Illustrator 14.0.0, SVG Export Plug-In . SVG Version: 6.00 Build 43363)  -->
<!DOCTYPE svg PUBLIC "-//W3C//DTD SVG 1.1//EN" "http://www.w3.org/Graphics/SVG/1.1/DTD/svg11.dtd">
<svg version="1.1" id="Layer_1" xmlns="http://www.w3.org/2000/svg" xmlns:xlink="http://www.w3.org/1999/xlink" x="0px" y="0px"
	 width="93.394px" height="26.529px" viewBox="0 0 93.394 26.529" style="enable-background:new 0 0 93.394 26.529;"
	 xml:space="preserve">
<polygon points="0.046,13.908 3.431,13.908 3.431,13.347 2.628,13.288 2.433,13.105 2.433,10.432 3.97,10.432 4.131,10.58 
	4.246,11.418 4.923,11.418 4.923,8.744 4.246,8.744 4.131,9.582 3.97,9.731 2.433,9.731 2.433,6.874 4.647,6.874 4.796,7.023 
	4.969,8.137 5.76,8.137 5.76,6.209 0,6.209 0,6.771 0.734,6.828 0.918,6.989 0.918,13.105 0.734,13.288 0.046,13.347 "/>
<path d="M11.851,15.952l0.436-2.278c0.367-0.252,0.642-0.405,0.918-0.405c0.374,0,0.634,0.344,0.634,0.934
	c0,0.526-0.183,1.101-0.428,1.467c-0.26,0.39-0.558,0.589-0.879,0.589C12.28,16.258,12.058,16.158,11.851,15.952 M12.593,10.876
	l-1.162,0.229v0.191l0.665,0.122l-0.894,4.815c0.367,0.23,0.756,0.337,1.162,0.337c0.581,0,1.116-0.253,1.506-0.727
	c0.39-0.474,0.596-1.085,0.596-1.743c0-0.787-0.421-1.299-0.994-1.299c-0.306,0-0.68,0.191-1.131,0.573l0.328-1.796
	c0.046-0.261,0.107-0.49,0.176-0.704H12.593z M8.652,13.115l0.306,0.467L8.56,15.601c-0.313,0.336-0.611,0.504-0.902,0.504
	c-0.443,0-0.665-0.306-0.665-0.917c0-1.216,0.658-2.072,1.552-2.072H8.652z M9.363,12.817L9.21,12.985
	c-0.237-0.114-0.474-0.168-0.688-0.168c-0.757,0-1.376,0.359-1.766,1.001c-0.26,0.43-0.397,0.903-0.397,1.415
	c0,0.841,0.405,1.338,1.055,1.338c0.367,0,0.734-0.215,1.139-0.643v0.062c0,0.39,0.145,0.581,0.466,0.581
	c0.206,0,0.52-0.092,0.94-0.268v-0.229C9.753,16.12,9.615,16.15,9.531,16.15c-0.283,0-0.413-0.106-0.413-0.352
	c0-0.107,0.023-0.282,0.077-0.535l0.275-1.353c0.115-0.566,0.214-0.933,0.291-1.094H9.363z"/>
<path d="M18.891,12.188h7.711v-0.688h-7.711V12.188z M18.891,9.708h7.711V9.021h-7.711V9.708z"/>
<rect x="30.224" y="10.261" width="7.803" height="0.688"/>
<path d="M45.957,6.404c-0.528-0.207-1.228-0.345-2.065-0.345c-1.102,0-2.112,0.355-2.961,1.011
	c-1.182,0.917-1.859,2.306-1.859,3.786c0,1.916,1.239,3.189,3.133,3.189c0.631,0,1.446-0.126,2.421-0.402l0.539-2.765l0.184-0.161
	l0.734-0.057v-0.447H43.26v0.447l0.746,0.057l0.115,0.161l-0.436,2.444c-0.493,0.103-0.895,0.161-1.205,0.161
	c-1.354,0-2.295-0.987-2.295-2.468c0-1.503,0.574-2.8,1.503-3.592c0.609-0.516,1.343-0.803,2.1-0.803
	c0.402,0,0.792,0.103,1.159,0.287l0.104,0.241l-0.035,1.077h0.608L45.957,6.404z"/>
<path d="M50.379,0l-1.698,0.366v0.3l0.94,0.183L48.669,5.53h0.964l0.723-3.89c0.723-0.654,1.331-0.941,1.629-0.941
	c0.402,0,0.632,0.253,0.632,0.678c0,0.161-0.035,0.425-0.104,0.792L51.824,5.53h0.952l0.746-3.901
	c0.528-0.619,1.125-0.93,1.562-0.93c0.378,0,0.562,0.253,0.562,0.734c0,0.161-0.023,0.402-0.103,0.735l-0.494,2.123
	c-0.058,0.263-0.093,0.48-0.093,0.619c0,0.471,0.265,0.688,0.839,0.688c0.31,0,0.769-0.127,1.377-0.355V4.934
	c-0.265,0.069-0.482,0.104-0.644,0.104c-0.367,0-0.585-0.206-0.585-0.573c0-0.185,0.059-0.437,0.126-0.746l0.392-1.779
	c0.091-0.39,0.137-0.711,0.137-0.964C56.598,0.366,56.207,0,55.656,0c-0.55,0-1.262,0.344-2.1,1.044C53.546,0.366,53.201,0,52.628,0
	c-0.539,0-1.274,0.355-2.169,1.09L50.665,0H50.379z"/>
<path d="M60.27,4.737l0.307,0.467l-0.398,2.019c-0.313,0.336-0.61,0.504-0.901,0.504c-0.443,0-0.665-0.306-0.665-0.917
	c0-1.216,0.657-2.072,1.552-2.072H60.27z M60.98,4.439l-0.152,0.168c-0.237-0.114-0.475-0.168-0.688-0.168
	c-0.757,0-1.376,0.359-1.766,1.001c-0.26,0.43-0.397,0.903-0.397,1.415c0,0.841,0.405,1.338,1.056,1.338
	c0.366,0,0.732-0.215,1.139-0.643v0.062c0,0.39,0.146,0.581,0.466,0.581c0.206,0,0.521-0.092,0.94-0.268V7.696
	c-0.206,0.045-0.345,0.076-0.429,0.076c-0.282,0-0.412-0.106-0.412-0.352c0-0.107,0.022-0.282,0.076-0.535l0.275-1.354
	c0.115-0.565,0.214-0.932,0.291-1.093H60.98z"/>
<path d="M64.918,0L63.22,0.366v0.3l0.94,0.183L63.207,5.53h0.965l0.723-3.89c0.723-0.654,1.331-0.941,1.629-0.941
	c0.402,0,0.632,0.253,0.632,0.678c0,0.161-0.035,0.425-0.104,0.792L66.363,5.53h0.952l0.746-3.901
	c0.528-0.619,1.125-0.93,1.561-0.93c0.378,0,0.563,0.253,0.563,0.734c0,0.161-0.023,0.402-0.104,0.735l-0.493,2.123
	c-0.058,0.263-0.093,0.48-0.093,0.619c0,0.471,0.265,0.688,0.839,0.688c0.31,0,0.769-0.127,1.377-0.355V4.934
	c-0.265,0.069-0.482,0.104-0.644,0.104c-0.367,0-0.585-0.206-0.585-0.573c0-0.185,0.058-0.437,0.126-0.746l0.391-1.779
	c0.092-0.39,0.138-0.711,0.138-0.964C71.137,0.366,70.746,0,70.195,0c-0.55,0-1.262,0.344-2.1,1.044C68.085,0.366,67.74,0,67.166,0
	c-0.538,0-1.273,0.355-2.169,1.09L65.204,0H64.918z"/>
<path d="M73.608,7.574l0.436-2.278c0.367-0.252,0.642-0.405,0.918-0.405c0.374,0,0.634,0.345,0.634,0.933
	c0,0.527-0.183,1.101-0.428,1.468c-0.26,0.39-0.558,0.589-0.879,0.589C74.037,7.88,73.815,7.78,73.608,7.574 M74.35,2.498
	l-1.162,0.229v0.191l0.665,0.123l-0.894,4.816c0.367,0.229,0.756,0.336,1.162,0.336c0.581,0,1.116-0.252,1.506-0.727
	c0.39-0.474,0.596-1.086,0.596-1.743c0-0.787-0.421-1.3-0.994-1.3c-0.306,0-0.68,0.192-1.131,0.574l0.328-1.797
	c0.046-0.26,0.107-0.489,0.176-0.703H74.35z"/>
<line style="fill:none;stroke:#000000;stroke-width:0.689;stroke-miterlimit:10;" x1="48.015" y1="10.592" x2="77.337" y2="10.592"/>
<rect x="51.149" y="15.1" width="0.688" height="10.924"/>
<path d="M53.445,23.866h3.167v-0.516l-0.814-0.046l-0.173-0.172v-3.294c0.356-0.219,0.632-0.321,0.815-0.321
	c0.333,0,0.574,0.126,0.746,0.413h0.596l0.15-1.583c-0.253-0.127-0.505-0.195-0.758-0.195l-0.252,0.023
	c-0.472,0.332-0.931,0.722-1.344,1.17l0.046-1.17h-0.551l-1.686,0.539v0.459h0.826v3.959l-0.161,0.172l-0.608,0.046V23.866z"/>
<path d="M63.758,25.909l0.436-2.277c0.367-0.252,0.643-0.405,0.918-0.405c0.374,0,0.635,0.344,0.635,0.933
	c0,0.527-0.184,1.101-0.429,1.468c-0.26,0.39-0.558,0.589-0.879,0.589C64.187,26.216,63.965,26.116,63.758,25.909 M64.5,20.834
	l-1.162,0.229v0.191l0.665,0.122l-0.895,4.815c0.367,0.229,0.757,0.337,1.162,0.337c0.581,0,1.116-0.253,1.506-0.727
	c0.391-0.474,0.597-1.085,0.597-1.743c0-0.787-0.421-1.299-0.994-1.299c-0.306,0-0.68,0.191-1.131,0.573l0.328-1.796
	c0.046-0.261,0.106-0.49,0.176-0.704H64.5z M60.559,23.073l0.307,0.467l-0.398,2.019c-0.313,0.336-0.611,0.504-0.902,0.504
	c-0.442,0-0.665-0.306-0.665-0.917c0-1.216,0.658-2.072,1.553-2.072H60.559z M61.27,22.775l-0.152,0.168
	c-0.237-0.113-0.475-0.168-0.688-0.168c-0.757,0-1.376,0.359-1.766,1.001c-0.261,0.43-0.397,0.903-0.397,1.415
	c0,0.841,0.405,1.338,1.055,1.338c0.367,0,0.734-0.215,1.14-0.643v0.062c0,0.39,0.145,0.581,0.466,0.581
	c0.206,0,0.52-0.092,0.94-0.268v-0.229c-0.206,0.046-0.345,0.076-0.429,0.076c-0.283,0-0.413-0.106-0.413-0.352
	c0-0.107,0.023-0.282,0.077-0.535l0.275-1.353c0.115-0.566,0.214-0.933,0.291-1.094H61.27z"/>
<rect x="68.748" y="15.1" width="0.688" height="10.924"/>
<path d="M71.789,17.65c1.689-1.345,2.614-2.209,2.614-3.173c0-0.863-0.603-1.444-1.59-1.444c-0.948,0-1.62,0.542-1.62,1.078
	c0,0.259,0.16,0.428,0.428,0.428c0.122,0,0.237-0.038,0.345-0.114v-0.818c0.229-0.13,0.45-0.184,0.68-0.184
	c0.635,0,1.017,0.429,1.017,1.154c0,1.001-0.956,1.835-2.63,3.195v0.482h3.54v-1.254h-0.344l-0.138,0.649H71.789z"/>
<polygon points="82.043,5.337 80.781,7.518 81.677,7.518 82.548,6.083 83.432,7.518 84.315,7.518 83.054,5.337 "/>
<path d="M80.465,13.908h3.167v-0.516l-0.814-0.046l-0.172-0.172V9.88c0.355-0.218,0.631-0.32,0.814-0.32
	c0.333,0,0.574,0.126,0.746,0.413h0.597l0.149-1.583c-0.253-0.127-0.505-0.195-0.758-0.195l-0.252,0.023
	c-0.471,0.332-0.93,0.722-1.343,1.17l0.046-1.17h-0.551l-1.687,0.539v0.459h0.826v3.959l-0.161,0.172l-0.608,0.046V13.908z"/>
<path d="M90.778,15.952l0.437-2.278c0.367-0.252,0.642-0.405,0.918-0.405c0.374,0,0.634,0.344,0.634,0.934
	c0,0.526-0.183,1.101-0.428,1.467c-0.26,0.39-0.558,0.589-0.879,0.589C91.208,16.258,90.985,16.158,90.778,15.952 M91.521,10.876
	l-1.162,0.229v0.191l0.665,0.122l-0.894,4.815c0.367,0.23,0.756,0.337,1.162,0.337c0.581,0,1.116-0.253,1.506-0.727
	s0.596-1.085,0.596-1.743c0-0.787-0.421-1.299-0.994-1.299c-0.306,0-0.68,0.191-1.131,0.573l0.328-1.796
	c0.046-0.261,0.107-0.49,0.176-0.704H91.521z M87.58,13.115l0.306,0.467l-0.397,2.019c-0.313,0.336-0.611,0.504-0.902,0.504
	c-0.443,0-0.665-0.306-0.665-0.917c0-1.216,0.658-2.072,1.552-2.072H87.58z M88.291,12.817l-0.153,0.168
	c-0.237-0.114-0.474-0.168-0.688-0.168c-0.758,0-1.376,0.359-1.767,1.001c-0.26,0.43-0.396,0.903-0.396,1.415
	c0,0.841,0.404,1.338,1.055,1.338c0.367,0,0.734-0.215,1.139-0.643v0.062c0,0.39,0.146,0.581,0.467,0.581
	c0.205,0,0.52-0.092,0.939-0.268v-0.229c-0.206,0.046-0.344,0.076-0.428,0.076c-0.283,0-0.413-0.106-0.413-0.352
	c0-0.107,0.022-0.282,0.077-0.535l0.274-1.353c0.115-0.566,0.214-0.933,0.291-1.094H88.291z"/>
</svg>
