<?xml version="1.0" encoding="UTF-8" standalone="no"?>
<!-- Created with Inkscape (http://www.inkscape.org/) -->

<svg
   xmlns:dc="http://purl.org/dc/elements/1.1/"
   xmlns:cc="http://creativecommons.org/ns#"
   xmlns:rdf="http://www.w3.org/1999/02/22-rdf-syntax-ns#"
   xmlns:svg="http://www.w3.org/2000/svg"
   xmlns="http://www.w3.org/2000/svg"
   xmlns:sodipodi="http://sodipodi.sourceforge.net/DTD/sodipodi-0.dtd"
   xmlns:inkscape="http://www.inkscape.org/namespaces/inkscape"
   version="1.1"
   id="svg1976"
   xml:space="preserve"
   width="812.44397"
   height="429.33334"
   viewBox="0 0 812.44397 429.33334"
   sodipodi:docname="thread-states.svg"
   inkscape:version="0.92.3 (2405546, 2018-03-11)"><metadata
     id="metadata1982"><rdf:RDF><cc:Work
         rdf:about=""><dc:format>image/svg+xml</dc:format><dc:type
           rdf:resource="http://purl.org/dc/dcmitype/StillImage" /><dc:title></dc:title></cc:Work></rdf:RDF></metadata><defs
     id="defs1980"><clipPath
       clipPathUnits="userSpaceOnUse"
       id="clipPath2056"><path
         d="M 0,322 H 609.333 V 0 H 0 Z"
         id="path2054"
         inkscape:connector-curvature="0" /></clipPath></defs><sodipodi:namedview
     pagecolor="#ffffff"
     bordercolor="#666666"
     borderopacity="1"
     objecttolerance="10"
     gridtolerance="10"
     guidetolerance="10"
     inkscape:pageopacity="0"
     inkscape:pageshadow="2"
     inkscape:window-width="2560"
     inkscape:window-height="1377"
     id="namedview1978"
     showgrid="false"
     inkscape:zoom="0.404951"
     inkscape:cx="406.22198"
     inkscape:cy="214.66667"
     inkscape:window-x="-8"
     inkscape:window-y="-8"
     inkscape:window-maximized="1"
     inkscape:current-layer="g1984" /><g
     id="g1984"
     inkscape:groupmode="layer"
     inkscape:label="thread-states"
     transform="matrix(1.3333333,0,0,-1.3333333,0,429.33333)"><path
       d="m 7.834,236.333 h 120 v -60 h -120 z"
       style="fill:#dff2f7;fill-opacity:1;fill-rule:nonzero;stroke:#1a1818;stroke-width:1;stroke-linecap:butt;stroke-linejoin:miter;stroke-miterlimit:4;stroke-dasharray:none;stroke-opacity:1"
       id="path1986"
       inkscape:connector-curvature="0" /><path
       d="m 245.834,236.333 h 120 v -60 h -120 z"
       style="fill:#d8ecd1;fill-opacity:1;fill-rule:nonzero;stroke:#1a1818;stroke-width:1;stroke-linecap:butt;stroke-linejoin:miter;stroke-miterlimit:4;stroke-dasharray:none;stroke-opacity:1"
       id="path1988"
       inkscape:connector-curvature="0" /><path
       d="m 483.834,236.333 h 120 v -60 h -120 z"
       style="fill:#fffac0;fill-opacity:1;fill-rule:nonzero;stroke:#1a1818;stroke-width:1;stroke-linecap:butt;stroke-linejoin:miter;stroke-miterlimit:4;stroke-dasharray:none;stroke-opacity:1"
       id="path1990"
       inkscape:connector-curvature="0" /><path
       d="m 245.834,68.333 h 120 v -60 h -120 z"
       style="fill:#fce3ee;fill-opacity:1;fill-rule:nonzero;stroke:#1a1818;stroke-width:1;stroke-linecap:butt;stroke-linejoin:miter;stroke-miterlimit:4;stroke-dasharray:none;stroke-opacity:1"
       id="path1992"
       inkscape:connector-curvature="0" /><g
       id="g1994"
       transform="translate(371.2086,197.3331)"><path
         d="M 0,0 H 102.625 Z"
         style="fill:#ffffff;fill-opacity:1;fill-rule:nonzero;stroke:none"
         id="path1996"
         inkscape:connector-curvature="0" /></g><g
       id="g1998"
       transform="translate(483.834,197.333)"><path
         d="M 0,0 H -113"
         style="fill:none;stroke:#000000;stroke-width:2;stroke-linecap:butt;stroke-linejoin:miter;stroke-miterlimit:4;stroke-dasharray:none;stroke-opacity:1"
         id="path2000"
         inkscape:connector-curvature="0" /></g><g
       id="g2002"
       transform="translate(372.8672,201.3975)"><path
         d="M 0,0 1.211,-1.21 -1.644,-4.064 1.211,-6.918 0,-8.129 -4.064,-4.064 Z"
         style="fill:#000000;fill-opacity:1;fill-rule:nonzero;stroke:none"
         id="path2004"
         inkscape:connector-curvature="0" /></g><g
       id="g2006"
       transform="translate(305.7885,72.3753)"><path
         d="M 0,0 V 103.958 Z"
         style="fill:#ffffff;fill-opacity:1;fill-rule:nonzero;stroke:none"
         id="path2008"
         inkscape:connector-curvature="0" /></g><g
       id="g2010"
       transform="translate(305.834,176.333)"><path
         d="M 0,0 V -103"
         style="fill:none;stroke:#000000;stroke-width:2;stroke-linecap:butt;stroke-linejoin:miter;stroke-miterlimit:4;stroke-dasharray:none;stroke-opacity:1"
         id="path2012"
         inkscape:connector-curvature="0" /></g><g
       id="g2014"
       transform="translate(301.7695,75.3662)"><path
         d="M 0,0 1.21,1.211 4.064,-1.644 6.918,1.211 8.129,0 4.064,-4.064 Z"
         style="fill:#000000;fill-opacity:1;fill-rule:nonzero;stroke:none"
         id="path2016"
         inkscape:connector-curvature="0" /></g><g
       id="g2018"
       transform="translate(137.8341,206.4636)"><path
         d="M 0,0 H 102.917 Z"
         style="fill:#ffffff;fill-opacity:1;fill-rule:nonzero;stroke:none"
         id="path2020"
         inkscape:connector-curvature="0" /></g><g
       id="g2022"
       transform="translate(127.834,206.333)"><path
         d="M 0,0 H 113"
         style="fill:none;stroke:#000000;stroke-width:2;stroke-linecap:butt;stroke-linejoin:miter;stroke-miterlimit:4;stroke-dasharray:none;stroke-opacity:1"
         id="path2024"
         inkscape:connector-curvature="0" /></g><g
       id="g2026"
       transform="translate(238.8008,202.2686)"><path
         d="M 0,0 -1.211,1.21 1.644,4.064 -1.211,6.918 0,8.129 4.064,4.064 Z"
         style="fill:#000000;fill-opacity:1;fill-rule:nonzero;stroke:none"
         id="path2028"
         inkscape:connector-curvature="0" /></g><g
       id="g2030"
       transform="translate(365.8338,215.3331)"><path
         d="M 0,0 H 102.625 Z"
         style="fill:#ffffff;fill-opacity:1;fill-rule:nonzero;stroke:none"
         id="path2032"
         inkscape:connector-curvature="0" /></g><g
       id="g2034"
       transform="translate(365.834,215.333)"><path
         d="M 0,0 H 113"
         style="fill:none;stroke:#000000;stroke-width:2;stroke-linecap:butt;stroke-linejoin:miter;stroke-miterlimit:4;stroke-dasharray:none;stroke-opacity:1"
         id="path2036"
         inkscape:connector-curvature="0" /></g><g
       id="g2038"
       transform="translate(476.8008,211.2686)"><path
         d="M 0,0 -1.211,1.21 1.644,4.064 -1.211,6.918 0,8.129 4.064,4.064 Z"
         style="fill:#000000;fill-opacity:1;fill-rule:nonzero;stroke:none"
         id="path2040"
         inkscape:connector-curvature="0" /></g><g
       id="g2042"
       transform="translate(307.834,290.833)"><path
         d="M 0,0 V 0"
         style="fill:none;stroke:#000000;stroke-width:2;stroke-linecap:butt;stroke-linejoin:miter;stroke-miterlimit:4;stroke-dasharray:none;stroke-opacity:1"
         id="path2044"
         inkscape:connector-curvature="0" /></g><g
       id="g2046"
       transform="translate(305.8008,286.7686)"><path
         d="M 0,0 -1.211,1.21 1.644,4.064 -1.211,6.918 0,8.129 4.064,4.064 Z"
         style="fill:#000000;fill-opacity:1;fill-rule:nonzero;stroke:none"
         id="path2048"
         inkscape:connector-curvature="0" /></g><g
       id="g2050"><g
         id="g2052"
         clip-path="url(#clipPath2056)"><g
           id="g2058"
           transform="translate(333.084,263.583)"><path
             d="m 0,0 c 0,-15.05 -12.199,-27.25 -27.25,-27.25 -15.05,0 -27.25,12.2 -27.25,27.25 0,15.05 12.2,27.25 27.25,27.25 C -12.199,27.25 0,15.05 0,0 Z"
             style="fill:none;stroke:#000000;stroke-width:2;stroke-linecap:butt;stroke-linejoin:miter;stroke-miterlimit:4;stroke-dasharray:none;stroke-opacity:1"
             id="path2060"
             inkscape:connector-curvature="0" /></g></g></g><text
       transform="matrix(1,0,0,-1,21.0293,201.0498)"
       style="font-variant:normal;font-weight:normal;font-stretch:normal;font-size:16px;font-family:'Noto Serif';-inkscape-font-specification:NotoSerif;writing-mode:lr-tb;fill:#000000;fill-opacity:1;fill-rule:nonzero;stroke:none"
       id="text2066"><tspan
         x="0 12.208 20.768 34.560001 38.720001 48.528 58.688 66.223999 74.783997 83.792 247.98399 258.48001 268.64001 278.95999 289.28 298.28799 308.112 313.07199 470.36801 482.57599 491.80801 497.44 501.60001 512.09601 522.25598 532.57599 542.896 551.90399 561.72803 566.68799"
         y="0"
         sodipodi:role="line"
         id="tspan2062">New ThreadRunnableNot Runnable</tspan><tspan
         x="240.304 249.632 258.19199 265.728 280.84799 285.96799 296.28799 305.29599 310.92801 319.48801"
         y="168"
         sodipodi:role="line"
         id="tspan2064">Terminated</tspan></text>
<text
       transform="matrix(1,0,0,-1,157.4292,222.2793)"
       style="font-variant:normal;font-weight:bold;font-stretch:normal;font-size:14px;font-family:'Courier New';-inkscape-font-specification:CourierNewPS-BoldMT;writing-mode:lr-tb;fill:#000000;fill-opacity:1;fill-rule:nonzero;stroke:none"
       id="text2074"><tspan
         x="0 8.3999996 16.799999 25.200001 33.599998 42 50.400002"
         y="0"
         sodipodi:role="line"
         id="tspan2068">start()</tspan><tspan
         x="93.421997 101.822 110.222 118.622 127.022 135.422 143.82201 152.222 160.62199 169.036 177.436 185.836 194.23599 202.636"
         y="-83.496002"
         sodipodi:role="line"
         id="tspan2070">Thread.yield()</tspan><tspan
         x="45.542 53.942001 62.341999 70.741997 79.141998"
         y="95.662003"
         sodipodi:role="line"
         id="tspan2072">run()</tspan></text>
<text
       transform="matrix(1,0,0,-1,248.1112,126.624)"
       style="font-variant:normal;font-weight:normal;font-stretch:normal;font-size:12px;font-family:'Noto Serif';-inkscape-font-specification:NotoSerif;writing-mode:lr-tb;fill:#000000;fill-opacity:1;fill-rule:nonzero;stroke:none"
       id="text2082"><tspan
         x="0 11.34 17.76 21.983999 29.604 36.528"
         y="0"
         sodipodi:role="line"
         id="tspan2076">method</tspan><tspan
         x="-0.82800001 3.5999999 7.4400001 15.18 19.02 24.431999 32.051998 38.472"
         y="14.4"
         sodipodi:role="line"
         id="tspan2078">finishes</tspan><tspan
         x="153.51601 163.86 170.616 177.396 183.81599 186.936 194.556"
         y="-47.040001"
         sodipodi:role="line"
         id="tspan2080">wake up</tspan></text>
<text
       transform="matrix(1,0,0,-1,392.2285,156.8667)"
       style="font-variant:normal;font-weight:bold;font-stretch:normal;font-size:14px;font-family:'Courier New';-inkscape-font-specification:CourierNewPS-BoldMT;writing-mode:lr-tb;fill:#000000;fill-opacity:1;fill-rule:nonzero;stroke:none"
       id="text2090"><tspan
         x="0 8.3999996 16.799999 25.200001 33.599998 42 50.400002 58.799999"
         y="0"
         sodipodi:role="line"
         id="tspan2084">notify()</tspan><tspan
         x="-25.200001 -16.799999 -8.3999996 0 8.3999996 16.799999 25.200001 33.599998 42 50.400002 58.799999 67.199997 75.599998 84"
         y="-91.209999"
         sodipodi:role="line"
         id="tspan2086">Thread.sleep()</tspan><tspan
         x="8.3999996 16.799999 25.200001 33.599998 42 50.400002"
         y="-74.410004"
         sodipodi:role="line"
         id="tspan2088">wait()</tspan></text>
</g></svg>