<?xml version="1.0" encoding="UTF-8" standalone="no"?>
<!-- Created with Inkscape (http://www.inkscape.org/) -->

<svg
   xmlns:dc="http://purl.org/dc/elements/1.1/"
   xmlns:cc="http://creativecommons.org/ns#"
   xmlns:rdf="http://www.w3.org/1999/02/22-rdf-syntax-ns#"
   xmlns:svg="http://www.w3.org/2000/svg"
   xmlns="http://www.w3.org/2000/svg"
   xmlns:sodipodi="http://sodipodi.sourceforge.net/DTD/sodipodi-0.dtd"
   xmlns:inkscape="http://www.inkscape.org/namespaces/inkscape"
   version="1.1"
   id="svg1632"
   xml:space="preserve"
   width="802.66669"
   height="612"
   viewBox="0 0 802.66669 612"
   sodipodi:docname="thread-lifecycle.svg"
   inkscape:version="0.92.3 (2405546, 2018-03-11)"><metadata
     id="metadata1638"><rdf:RDF><cc:Work
         rdf:about=""><dc:format>image/svg+xml</dc:format><dc:type
           rdf:resource="http://purl.org/dc/dcmitype/StillImage" /><dc:title></dc:title></cc:Work></rdf:RDF></metadata><defs
     id="defs1636" /><sodipodi:namedview
     pagecolor="#ffffff"
     bordercolor="#666666"
     borderopacity="1"
     objecttolerance="10"
     gridtolerance="10"
     guidetolerance="10"
     inkscape:pageopacity="0"
     inkscape:pageshadow="2"
     inkscape:window-width="732"
     inkscape:window-height="480"
     id="namedview1634"
     showgrid="false"
     inkscape:zoom="0.38562092"
     inkscape:cx="401.33334"
     inkscape:cy="306"
     inkscape:window-x="0"
     inkscape:window-y="0"
     inkscape:window-maximized="0"
     inkscape:current-layer="g1640" /><g
     id="g1640"
     inkscape:groupmode="layer"
     inkscape:label="thread-lifecycle"
     transform="matrix(1.3333333,0,0,-1.3333333,0,612)"><path
       d="M 414,357.5 H 589 V 15 H 414 Z"
       style="fill:#e3f6f8;fill-opacity:1;fill-rule:nonzero;stroke:#231f20;stroke-width:1;stroke-linecap:butt;stroke-linejoin:miter;stroke-miterlimit:4;stroke-dasharray:none;stroke-opacity:1"
       id="path1642"
       inkscape:connector-curvature="0" /><text
       transform="matrix(1,0,0,-1,424,332.4336)"
       style="font-variant:normal;font-weight:normal;font-stretch:normal;font-size:16px;font-family:'Noto Serif';-inkscape-font-specification:NotoSerif;writing-mode:lr-tb;fill:#231f20;fill-opacity:1;fill-rule:nonzero;stroke:none"
       id="text1646"><tspan
         x="0 9.8079996 19.968 27.504 36.063999 45.071999 54.896 59.056"
         y="0"
         sodipodi:role="line"
         id="tspan1644">Thread 2</tspan></text>
<path
       d="M 14,407.5 H 189 V 15 H 14 Z"
       style="fill:#e3f6f8;fill-opacity:1;fill-rule:nonzero;stroke:#231f20;stroke-width:1;stroke-linecap:butt;stroke-linejoin:miter;stroke-miterlimit:4;stroke-dasharray:none;stroke-opacity:1"
       id="path1648"
       inkscape:connector-curvature="0" /><text
       transform="matrix(1,0,0,-1,24,382.4336)"
       style="font-variant:normal;font-weight:normal;font-stretch:normal;font-size:16px;font-family:'Noto Serif';-inkscape-font-specification:NotoSerif;writing-mode:lr-tb;fill:#231f20;fill-opacity:1;fill-rule:nonzero;stroke:none"
       id="text1652"><tspan
         x="0 9.8079996 19.968 27.504 36.063999 45.071999 54.896 59.056"
         y="0"
         sodipodi:role="line"
         id="tspan1650">Thread 1</tspan></text>
<path
       d="m 426.5,207.501 h 150 V 182.5 h -150 z"
       style="fill:#dcd5ee;fill-opacity:1;fill-rule:nonzero;stroke:#231f20;stroke-width:1;stroke-linecap:butt;stroke-linejoin:miter;stroke-miterlimit:4;stroke-dasharray:none;stroke-opacity:1"
       id="path1654"
       inkscape:connector-curvature="0" /><text
       transform="matrix(1,0,0,-1,451.7505,190.4351)"
       style="font-variant:normal;font-weight:normal;font-stretch:normal;font-size:16px;font-family:'Noto Serif';-inkscape-font-specification:NotoSerif;writing-mode:lr-tb;fill:#231f20;fill-opacity:1;fill-rule:nonzero;stroke:none"
       id="text1658"><tspan
         x="0 7.8720002 17.104 32.223999 42.048 52.208 57.84 66.400002"
         y="0"
         sodipodi:role="line"
         id="tspan1656">compute </tspan></text>
<text
       transform="matrix(1,0,0,-1,522.3105,190.4351)"
       style="font-style:italic;font-variant:normal;font-weight:normal;font-stretch:normal;font-size:16px;font-family:'Noto Serif';-inkscape-font-specification:NotoSerif-Italic;writing-mode:lr-tb;fill:#231f20;fill-opacity:1;fill-rule:nonzero;stroke:none"
       id="text1662"><tspan
         x="0"
         y="0"
         id="tspan1660">e</tspan></text>
<text
       transform="matrix(1,0,0,-1,530.1958,196.4351)"
       style="font-variant:normal;font-weight:normal;font-stretch:normal;font-size:11px;font-family:'Noto Serif';-inkscape-font-specification:NotoSerif;writing-mode:lr-tb;fill:#231f20;fill-opacity:1;fill-rule:nonzero;stroke:none"
       id="text1666"><tspan
         x="0"
         y="0"
         id="tspan1664">-</tspan></text>
<text
       transform="matrix(1,0,0,-1,533.6058,196.4351)"
       style="font-style:italic;font-variant:normal;font-weight:normal;font-stretch:normal;font-size:11px;font-family:'Noto Serif';-inkscape-font-specification:NotoSerif-Italic;writing-mode:lr-tb;fill:#231f20;fill-opacity:1;fill-rule:nonzero;stroke:none"
       id="text1670"><tspan
         x="0"
         y="0"
         id="tspan1668">a</tspan></text>
<text
       transform="matrix(1,0,0,-1,539.9748,196.4351)"
       style="font-variant:normal;font-weight:normal;font-stretch:normal;font-size:11px;font-family:'Noto Serif';-inkscape-font-specification:NotoSerif;writing-mode:lr-tb;fill:#231f20;fill-opacity:1;fill-rule:nonzero;stroke:none"
       id="text1674"><tspan
         x="0"
         y="0"
         id="tspan1672">路</tspan></text>
<text
       transform="matrix(1,0,0,-1,542.7248,196.4351)"
       style="font-style:italic;font-variant:normal;font-weight:normal;font-stretch:normal;font-size:11px;font-family:'Noto Serif';-inkscape-font-specification:NotoSerif-Italic;writing-mode:lr-tb;fill:#231f20;fill-opacity:1;fill-rule:nonzero;stroke:none"
       id="text1678"><tspan
         x="0"
         y="0"
         id="tspan1676">t</tspan></text>
<text
       transform="matrix(1,0,0,-1,546.7764,200.4351)"
       style="font-variant:normal;font-weight:normal;font-stretch:normal;font-size:8px;font-family:'Noto Serif';-inkscape-font-specification:NotoSerif;writing-mode:lr-tb;fill:#231f20;fill-opacity:1;fill-rule:nonzero;stroke:none"
       id="text1682"><tspan
         x="0"
         y="0"
         id="tspan1680">2</tspan></text>
<path
       d="m 26.5,257.5 h 150 v -25 h -150 z"
       style="fill:#dcd5ee;fill-opacity:1;fill-rule:nonzero;stroke:#231f20;stroke-width:1;stroke-linecap:butt;stroke-linejoin:miter;stroke-miterlimit:4;stroke-dasharray:none;stroke-opacity:1"
       id="path1684"
       inkscape:connector-curvature="0" /><text
       transform="matrix(1,0,0,-1,42.3628,239.7163)"
       style="font-variant:normal;font-weight:normal;font-stretch:normal;font-size:16px;font-family:'Noto Serif';-inkscape-font-specification:NotoSerif;writing-mode:lr-tb;fill:#231f20;fill-opacity:1;fill-rule:nonzero;stroke:none"
       id="text1688"><tspan
         x="0 7.8720002 17.104 32.223999 42.048 52.208 57.84 66.400002 70.559998 79.503998"
         y="0"
         sodipodi:role="line"
         id="tspan1686">compute 2路</tspan></text>
<text
       transform="matrix(1,0,0,-1,125.8668,239.7163)"
       style="font-style:italic;font-variant:normal;font-weight:normal;font-stretch:normal;font-size:16px;font-family:'Noto Serif';-inkscape-font-specification:NotoSerif-Italic;writing-mode:lr-tb;fill:#231f20;fill-opacity:1;fill-rule:nonzero;stroke:none"
       id="text1692"><tspan
         x="0"
         y="0"
         id="tspan1690">K</tspan></text>
<text
       transform="matrix(1,0,0,-1,137.0668,239.7163)"
       style="font-variant:normal;font-weight:normal;font-stretch:normal;font-size:16px;font-family:'Noto Serif';-inkscape-font-specification:NotoSerif;writing-mode:lr-tb;fill:#231f20;fill-opacity:1;fill-rule:nonzero;stroke:none"
       id="text1696"><tspan
         x="0"
         y="0"
         id="tspan1694">路</tspan></text>
<text
       transform="matrix(1,0,0,-1,141.0668,239.7163)"
       style="font-style:italic;font-variant:normal;font-weight:normal;font-stretch:normal;font-size:16px;font-family:'Noto Serif';-inkscape-font-specification:NotoSerif-Italic;writing-mode:lr-tb;fill:#231f20;fill-opacity:1;fill-rule:nonzero;stroke:none"
       id="text1700"><tspan
         x="0"
         y="0"
         id="tspan1698">a</tspan></text>
<text
       transform="matrix(1,0,0,-1,150.3308,239.7163)"
       style="font-variant:normal;font-weight:normal;font-stretch:normal;font-size:16px;font-family:'Noto Serif';-inkscape-font-specification:NotoSerif;writing-mode:lr-tb;fill:#231f20;fill-opacity:1;fill-rule:nonzero;stroke:none"
       id="text1704"><tspan
         x="0"
         y="0"
         id="tspan1702">路</tspan></text>
<text
       transform="matrix(1,0,0,-1,154.3308,239.7163)"
       style="font-style:italic;font-variant:normal;font-weight:normal;font-stretch:normal;font-size:16px;font-family:'Noto Serif';-inkscape-font-specification:NotoSerif-Italic;writing-mode:lr-tb;fill:#231f20;fill-opacity:1;fill-rule:nonzero;stroke:none"
       id="text1708"><tspan
         x="0"
         y="0"
         id="tspan1706">t</tspan></text>
<path
       d="m 26.5,307.5 h 150 v -25 h -150 z"
       style="fill:#dcd5ee;fill-opacity:1;fill-rule:nonzero;stroke:#231f20;stroke-width:1;stroke-linecap:butt;stroke-linejoin:miter;stroke-miterlimit:4;stroke-dasharray:none;stroke-opacity:1"
       id="path1710"
       inkscape:connector-curvature="0" /><g
       id="g1712"
       transform="translate(101.5,282.5)"><path
         d="M 0,0 V -20"
         style="fill:none;stroke:#231f20;stroke-width:2;stroke-linecap:butt;stroke-linejoin:miter;stroke-miterlimit:4;stroke-dasharray:none;stroke-opacity:1"
         id="path1714"
         inkscape:connector-curvature="0" /></g><g
       id="g1716"
       transform="translate(97.4355,264.5332)"><path
         d="M 0,0 1.21,1.211 4.064,-1.643 6.918,1.211 8.129,0 4.064,-4.064 Z"
         style="fill:#231f20;fill-opacity:1;fill-rule:nonzero;stroke:none"
         id="path1718"
         inkscape:connector-curvature="0" /></g><text
       transform="matrix(1,0,0,-1,83.9844,289.7168)"
       style="font-variant:normal;font-weight:normal;font-stretch:normal;font-size:16px;font-family:'Noto Serif';-inkscape-font-specification:NotoSerif;writing-mode:lr-tb;fill:#231f20;fill-opacity:1;fill-rule:nonzero;stroke:none"
       id="text1722"><tspan
         x="0 7.2160001 12.848 21.856001 29.392"
         y="0"
         sodipodi:role="line"
         id="tspan1720">start</tspan></text>
<path
       d="M 214,445 H 389 V 15 H 214 Z"
       style="fill:#e3f6f8;fill-opacity:1;fill-rule:nonzero;stroke:#231f20;stroke-width:1;stroke-linecap:butt;stroke-linejoin:miter;stroke-miterlimit:4;stroke-dasharray:none;stroke-opacity:1"
       id="path1724"
       inkscape:connector-curvature="0" /><text
       transform="matrix(1,0,0,-1,224,419.9336)"
       style="font-variant:normal;font-weight:normal;font-stretch:normal;font-size:16px;font-family:'Noto Serif';-inkscape-font-specification:NotoSerif;writing-mode:lr-tb;fill:#231f20;fill-opacity:1;fill-rule:nonzero;stroke:none"
       id="text1728"><tspan
         x="0 15.008 24.016001 29.136 39.456001 43.616001 49.248001 59.408001 66.944 75.503998 84.512001"
         y="0"
         sodipodi:role="line"
         id="tspan1726">Main thread</tspan></text>
<path
       d="m 226.5,407.5 h 150 v -25 h -150 z"
       style="fill:#dcd5ee;fill-opacity:1;fill-rule:nonzero;stroke:#231f20;stroke-width:1;stroke-linecap:butt;stroke-linejoin:miter;stroke-miterlimit:4;stroke-dasharray:none;stroke-opacity:1"
       id="path1730"
       inkscape:connector-curvature="0" /><text
       transform="matrix(1,0,0,-1,238.0254,390)"
       style="font-variant:normal;font-weight:normal;font-stretch:normal;font-size:16px;font-family:'Noto Serif';-inkscape-font-specification:NotoSerif;writing-mode:lr-tb;fill:#231f20;fill-opacity:1;fill-rule:nonzero;stroke:none"
       id="text1734"><tspan
         x="0 7.8720002 15.408 23.968 32.976002 38.608002 47.167999"
         y="0"
         sodipodi:role="line"
         id="tspan1732">create </tspan></text>
<text
       transform="matrix(1,0,0,-1,289.3613,390)"
       style="font-variant:normal;font-weight:bold;font-stretch:normal;font-size:18px;font-family:'Courier New';-inkscape-font-specification:CourierNewPS-BoldMT;writing-mode:lr-tb;fill:#231f20;fill-opacity:1;fill-rule:nonzero;stroke:none"
       id="text1738"><tspan
         x="0 10.8 21.6 32.400002 43.200001 54 64.800003"
         y="0"
         sodipodi:role="line"
         id="tspan1736">thread1</tspan></text>
<path
       d="m 226.5,357.5 h 150 v -25 h -150 z"
       style="fill:#dcd5ee;fill-opacity:1;fill-rule:nonzero;stroke:#231f20;stroke-width:1;stroke-linecap:butt;stroke-linejoin:miter;stroke-miterlimit:4;stroke-dasharray:none;stroke-opacity:1"
       id="path1740"
       inkscape:connector-curvature="0" /><text
       transform="matrix(1,0,0,-1,238.0254,340)"
       style="font-variant:normal;font-weight:normal;font-stretch:normal;font-size:16px;font-family:'Noto Serif';-inkscape-font-specification:NotoSerif;writing-mode:lr-tb;fill:#231f20;fill-opacity:1;fill-rule:nonzero;stroke:none"
       id="text1744"><tspan
         x="0 7.8720002 15.408 23.968 32.976002 38.608002 47.167999"
         y="0"
         sodipodi:role="line"
         id="tspan1742">create </tspan></text>
<text
       transform="matrix(1,0,0,-1,289.3613,340)"
       style="font-variant:normal;font-weight:bold;font-stretch:normal;font-size:18px;font-family:'Courier New';-inkscape-font-specification:CourierNewPS-BoldMT;writing-mode:lr-tb;fill:#231f20;fill-opacity:1;fill-rule:nonzero;stroke:none"
       id="text1748"><tspan
         x="0 10.8 21.6 32.400002 43.200001 54 64.800003"
         y="0"
         sodipodi:role="line"
         id="tspan1746">thread2</tspan></text>
<path
       d="m 226.5,307.5 h 150 v -25 h -150 z"
       style="fill:#dcd5ee;fill-opacity:1;fill-rule:nonzero;stroke:#231f20;stroke-width:1;stroke-linecap:butt;stroke-linejoin:miter;stroke-miterlimit:4;stroke-dasharray:none;stroke-opacity:1"
       id="path1750"
       inkscape:connector-curvature="0" /><text
       transform="matrix(1,0,0,-1,242.022,289.7168)"
       style="font-variant:normal;font-weight:normal;font-stretch:normal;font-size:16px;font-family:'Noto Serif';-inkscape-font-specification:NotoSerif;writing-mode:lr-tb;fill:#231f20;fill-opacity:1;fill-rule:nonzero;stroke:none"
       id="text1754"><tspan
         x="0 7.2160001 12.848 21.856001 29.392 35.023998"
         y="0"
         sodipodi:role="line"
         id="tspan1752">start </tspan></text>
<text
       transform="matrix(1,0,0,-1,285.3657,289.7168)"
       style="font-variant:normal;font-weight:bold;font-stretch:normal;font-size:18px;font-family:'Courier New';-inkscape-font-specification:CourierNewPS-BoldMT;writing-mode:lr-tb;fill:#231f20;fill-opacity:1;fill-rule:nonzero;stroke:none"
       id="text1758"><tspan
         x="0 10.8 21.6 32.400002 43.200001 54 64.800003"
         y="0"
         sodipodi:role="line"
         id="tspan1756">thread1</tspan></text>
<path
       d="m 226.5,257.5 h 150 v -25 h -150 z"
       style="fill:#dcd5ee;fill-opacity:1;fill-rule:nonzero;stroke:#231f20;stroke-width:1;stroke-linecap:butt;stroke-linejoin:miter;stroke-miterlimit:4;stroke-dasharray:none;stroke-opacity:1"
       id="path1760"
       inkscape:connector-curvature="0" /><text
       transform="matrix(1,0,0,-1,242.022,239.7168)"
       style="font-variant:normal;font-weight:normal;font-stretch:normal;font-size:16px;font-family:'Noto Serif';-inkscape-font-specification:NotoSerif;writing-mode:lr-tb;fill:#231f20;fill-opacity:1;fill-rule:nonzero;stroke:none"
       id="text1764"><tspan
         x="0 7.2160001 12.848 21.856001 29.392 35.023998"
         y="0"
         sodipodi:role="line"
         id="tspan1762">start </tspan></text>
<text
       transform="matrix(1,0,0,-1,285.3657,239.7168)"
       style="font-variant:normal;font-weight:bold;font-stretch:normal;font-size:18px;font-family:'Courier New';-inkscape-font-specification:CourierNewPS-BoldMT;writing-mode:lr-tb;fill:#231f20;fill-opacity:1;fill-rule:nonzero;stroke:none"
       id="text1768"><tspan
         x="0 10.8 21.6 32.400002 43.200001 54 64.800003"
         y="0"
         sodipodi:role="line"
         id="tspan1766">thread2</tspan></text>
<path
       d="m 226.5,207.5 h 150 v -25 h -150 z"
       style="fill:#dcd5ee;fill-opacity:1;fill-rule:nonzero;stroke:#231f20;stroke-width:1;stroke-linecap:butt;stroke-linejoin:miter;stroke-miterlimit:4;stroke-dasharray:none;stroke-opacity:1"
       id="path1770"
       inkscape:connector-curvature="0" /><text
       transform="matrix(1,0,0,-1,246.8813,189.7168)"
       style="font-variant:normal;font-weight:normal;font-stretch:normal;font-size:16px;font-family:'Noto Serif';-inkscape-font-specification:NotoSerif;writing-mode:lr-tb;fill:#231f20;fill-opacity:1;fill-rule:nonzero;stroke:none"
       id="text1774"><tspan
         x="0 4.8000002 14.032 19.152 29.472"
         y="0"
         sodipodi:role="line"
         id="tspan1772">join </tspan></text>
<text
       transform="matrix(1,0,0,-1,280.5063,189.7168)"
       style="font-variant:normal;font-weight:bold;font-stretch:normal;font-size:18px;font-family:'Courier New';-inkscape-font-specification:CourierNewPS-BoldMT;writing-mode:lr-tb;fill:#231f20;fill-opacity:1;fill-rule:nonzero;stroke:none"
       id="text1778"><tspan
         x="0 10.8 21.6 32.400002 43.200001 54 64.800003"
         y="0"
         sodipodi:role="line"
         id="tspan1776">thread1</tspan></text>
<path
       d="m 226.5,157.5 h 150 v -25 h -150 z"
       style="fill:#dcd5ee;fill-opacity:1;fill-rule:nonzero;stroke:#231f20;stroke-width:1;stroke-linecap:butt;stroke-linejoin:miter;stroke-miterlimit:4;stroke-dasharray:none;stroke-opacity:1"
       id="path1780"
       inkscape:connector-curvature="0" /><text
       transform="matrix(1,0,0,-1,246.8813,139.7168)"
       style="font-variant:normal;font-weight:normal;font-stretch:normal;font-size:16px;font-family:'Noto Serif';-inkscape-font-specification:NotoSerif;writing-mode:lr-tb;fill:#231f20;fill-opacity:1;fill-rule:nonzero;stroke:none"
       id="text1784"><tspan
         x="0 4.8000002 14.032 19.152 29.472"
         y="0"
         sodipodi:role="line"
         id="tspan1782">join </tspan></text>
<text
       transform="matrix(1,0,0,-1,280.5063,139.7168)"
       style="font-variant:normal;font-weight:bold;font-stretch:normal;font-size:18px;font-family:'Courier New';-inkscape-font-specification:CourierNewPS-BoldMT;writing-mode:lr-tb;fill:#231f20;fill-opacity:1;fill-rule:nonzero;stroke:none"
       id="text1788"><tspan
         x="0 10.8 21.6 32.400002 43.200001 54 64.800003"
         y="0"
         sodipodi:role="line"
         id="tspan1786">thread2</tspan></text>
<path
       d="m 426.5,257.5 h 150 v -25 h -150 z"
       style="fill:#dcd5ee;fill-opacity:1;fill-rule:nonzero;stroke:#231f20;stroke-width:1;stroke-linecap:butt;stroke-linejoin:miter;stroke-miterlimit:4;stroke-dasharray:none;stroke-opacity:1"
       id="path1790"
       inkscape:connector-curvature="0" /><g
       id="g1792"
       transform="translate(501.5,232.5)"><path
         d="M 0,0 V -20"
         style="fill:none;stroke:#231f20;stroke-width:2;stroke-linecap:butt;stroke-linejoin:miter;stroke-miterlimit:4;stroke-dasharray:none;stroke-opacity:1"
         id="path1794"
         inkscape:connector-curvature="0" /></g><g
       id="g1796"
       transform="translate(497.4355,214.5332)"><path
         d="M 0,0 1.21,1.211 4.064,-1.643 6.918,1.211 8.129,0 4.064,-4.064 Z"
         style="fill:#231f20;fill-opacity:1;fill-rule:nonzero;stroke:none"
         id="path1798"
         inkscape:connector-curvature="0" /></g><text
       transform="matrix(1,0,0,-1,483.9844,239.7168)"
       style="font-variant:normal;font-weight:normal;font-stretch:normal;font-size:16px;font-family:'Noto Serif';-inkscape-font-specification:NotoSerif;writing-mode:lr-tb;fill:#231f20;fill-opacity:1;fill-rule:nonzero;stroke:none"
       id="text1802"><tspan
         x="0 7.2160001 12.848 21.856001 29.392"
         y="0"
         sodipodi:role="line"
         id="tspan1800">start</tspan></text>
<g
       id="g1804"
       transform="translate(226.5,395)"><path
         d="M 0,0 H -32.5"
         style="fill:none;stroke:#231f20;stroke-width:2;stroke-linecap:butt;stroke-linejoin:miter;stroke-miterlimit:4;stroke-dasharray:none;stroke-opacity:1"
         id="path1806"
         inkscape:connector-curvature="0" /></g><g
       id="g1808"
       transform="translate(196.0332,399.0645)"><path
         d="M 0,0 1.211,-1.21 -1.643,-4.064 1.211,-6.918 0,-8.129 -4.064,-4.064 Z"
         style="fill:#231f20;fill-opacity:1;fill-rule:nonzero;stroke:none"
         id="path1810"
         inkscape:connector-curvature="0" /></g><g
       id="g1812"
       transform="translate(376.5,345)"><path
         d="M 0,0 H 32.5"
         style="fill:none;stroke:#231f20;stroke-width:2;stroke-linecap:butt;stroke-linejoin:miter;stroke-miterlimit:4;stroke-dasharray:none;stroke-opacity:1"
         id="path1814"
         inkscape:connector-curvature="0" /></g><g
       id="g1816"
       transform="translate(406.9668,340.9355)"><path
         d="M 0,0 -1.211,1.21 1.643,4.064 -1.211,6.918 0,8.129 4.064,4.064 Z"
         style="fill:#231f20;fill-opacity:1;fill-rule:nonzero;stroke:none"
         id="path1818"
         inkscape:connector-curvature="0" /></g><g
       id="g1820"
       transform="translate(301,382.5)"><path
         d="M 0,0 V -20"
         style="fill:none;stroke:#231f20;stroke-width:2;stroke-linecap:butt;stroke-linejoin:miter;stroke-miterlimit:4;stroke-dasharray:none;stroke-opacity:1"
         id="path1822"
         inkscape:connector-curvature="0" /></g><g
       id="g1824"
       transform="translate(296.9355,364.5332)"><path
         d="M 0,0 1.21,1.211 4.064,-1.643 6.918,1.211 8.129,0 4.064,-4.064 Z"
         style="fill:#231f20;fill-opacity:1;fill-rule:nonzero;stroke:none"
         id="path1826"
         inkscape:connector-curvature="0" /></g><g
       id="g1828"
       transform="translate(301,332.5)"><path
         d="M 0,0 V -20"
         style="fill:none;stroke:#231f20;stroke-width:2;stroke-linecap:butt;stroke-linejoin:miter;stroke-miterlimit:4;stroke-dasharray:none;stroke-opacity:1"
         id="path1830"
         inkscape:connector-curvature="0" /></g><g
       id="g1832"
       transform="translate(296.9355,314.5332)"><path
         d="M 0,0 1.21,1.211 4.064,-1.643 6.918,1.211 8.129,0 4.064,-4.064 Z"
         style="fill:#231f20;fill-opacity:1;fill-rule:nonzero;stroke:none"
         id="path1834"
         inkscape:connector-curvature="0" /></g><g
       id="g1836"
       transform="translate(301,282.5)"><path
         d="M 0,0 V -20"
         style="fill:none;stroke:#231f20;stroke-width:2;stroke-linecap:butt;stroke-linejoin:miter;stroke-miterlimit:4;stroke-dasharray:none;stroke-opacity:1"
         id="path1838"
         inkscape:connector-curvature="0" /></g><g
       id="g1840"
       transform="translate(296.9355,264.5332)"><path
         d="M 0,0 1.21,1.211 4.064,-1.643 6.918,1.211 8.129,0 4.064,-4.064 Z"
         style="fill:#231f20;fill-opacity:1;fill-rule:nonzero;stroke:none"
         id="path1842"
         inkscape:connector-curvature="0" /></g><g
       id="g1844"
       transform="translate(301.5,232.5)"><path
         d="M 0,0 V -20"
         style="fill:none;stroke:#231f20;stroke-width:2;stroke-linecap:butt;stroke-linejoin:miter;stroke-miterlimit:4;stroke-dasharray:none;stroke-opacity:1"
         id="path1846"
         inkscape:connector-curvature="0" /></g><g
       id="g1848"
       transform="translate(297.4355,214.5332)"><path
         d="M 0,0 1.21,1.211 4.064,-1.643 6.918,1.211 8.129,0 4.064,-4.064 Z"
         style="fill:#231f20;fill-opacity:1;fill-rule:nonzero;stroke:none"
         id="path1850"
         inkscape:connector-curvature="0" /></g><g
       id="g1852"
       transform="translate(301.5,182.5)"><path
         d="M 0,0 V -20"
         style="fill:none;stroke:#231f20;stroke-width:2;stroke-linecap:butt;stroke-linejoin:miter;stroke-miterlimit:4;stroke-dasharray:none;stroke-opacity:1"
         id="path1854"
         inkscape:connector-curvature="0" /></g><g
       id="g1856"
       transform="translate(297.4355,164.5332)"><path
         d="M 0,0 1.21,1.211 4.064,-1.643 6.918,1.211 8.129,0 4.064,-4.064 Z"
         style="fill:#231f20;fill-opacity:1;fill-rule:nonzero;stroke:none"
         id="path1858"
         inkscape:connector-curvature="0" /></g><g
       id="g1860"
       transform="translate(226.5,295)"><path
         d="M 0,0 H -45"
         style="fill:none;stroke:#231f20;stroke-width:2;stroke-linecap:butt;stroke-linejoin:miter;stroke-miterlimit:4;stroke-dasharray:none;stroke-opacity:1"
         id="path1862"
         inkscape:connector-curvature="0" /></g><g
       id="g1864"
       transform="translate(183.5332,299.0645)"><path
         d="M 0,0 1.211,-1.21 -1.643,-4.064 1.211,-6.918 0,-8.129 -4.064,-4.064 Z"
         style="fill:#231f20;fill-opacity:1;fill-rule:nonzero;stroke:none"
         id="path1866"
         inkscape:connector-curvature="0" /></g><g
       id="g1868"
       transform="translate(376.5,245)"><path
         d="M 0,0 H 45"
         style="fill:none;stroke:#231f20;stroke-width:2;stroke-linecap:butt;stroke-linejoin:miter;stroke-miterlimit:4;stroke-dasharray:none;stroke-opacity:1"
         id="path1870"
         inkscape:connector-curvature="0" /></g><g
       id="g1872"
       transform="translate(419.4668,240.9355)"><path
         d="M 0,0 -1.211,1.21 1.643,4.064 -1.211,6.918 0,8.129 4.064,4.064 Z"
         style="fill:#231f20;fill-opacity:1;fill-rule:nonzero;stroke:none"
         id="path1874"
         inkscape:connector-curvature="0" /></g><path
       d="m 226.5,107.5 h 150 v -25 h -150 z"
       style="fill:#dcd5ee;fill-opacity:1;fill-rule:nonzero;stroke:#231f20;stroke-width:1;stroke-linecap:butt;stroke-linejoin:miter;stroke-miterlimit:4;stroke-dasharray:none;stroke-opacity:1"
       id="path1876"
       inkscape:connector-curvature="0" /><text
       transform="matrix(1,0,0,-1,251.9883,89.7168)"
       style="font-variant:normal;font-weight:normal;font-stretch:normal;font-size:16px;font-family:'Noto Serif';-inkscape-font-specification:NotoSerif;writing-mode:lr-tb;fill:#231f20;fill-opacity:1;fill-rule:nonzero;stroke:none"
       id="text1880"><tspan
         x="0 9.8240004 17.360001 22.48 32.799999 38.431999 42.591999 51.599998 61.919998 69.136002 82.928001 91.487999"
         y="0"
         sodipodi:role="line"
         id="tspan1878">print answer</tspan></text>
<g
       id="g1882"
       transform="translate(301.5,132.5)"><path
         d="M 0,0 V -20"
         style="fill:none;stroke:#231f20;stroke-width:2;stroke-linecap:butt;stroke-linejoin:miter;stroke-miterlimit:4;stroke-dasharray:none;stroke-opacity:1"
         id="path1884"
         inkscape:connector-curvature="0" /></g><g
       id="g1886"
       transform="translate(297.4355,114.5332)"><path
         d="M 0,0 1.21,1.211 4.064,-1.643 6.918,1.211 8.129,0 4.064,-4.064 Z"
         style="fill:#231f20;fill-opacity:1;fill-rule:nonzero;stroke:none"
         id="path1888"
         inkscape:connector-curvature="0" /></g><g
       id="g1890"
       transform="translate(146.5,95)"><path
         d="M 0,0 H 75"
         style="fill:none;stroke:#231f20;stroke-width:2;stroke-linecap:round;stroke-linejoin:round;stroke-miterlimit:4;stroke-dasharray:0, 4;stroke-dashoffset:0;stroke-opacity:1"
         id="path1892"
         inkscape:connector-curvature="0" /></g><g
       id="g1894"
       transform="translate(219.4668,90.9355)"><path
         d="M 0,0 -1.211,1.21 1.643,4.064 -1.211,6.918 0,8.129 4.064,4.064 Z"
         style="fill:#231f20;fill-opacity:1;fill-rule:nonzero;stroke:none"
         id="path1896"
         inkscape:connector-curvature="0" /></g><g
       id="g1898"
       transform="translate(456.5,95)"><path
         d="M 0,0 H -75"
         style="fill:none;stroke:#231f20;stroke-width:2;stroke-linecap:round;stroke-linejoin:round;stroke-miterlimit:4;stroke-dasharray:0, 4;stroke-dashoffset:0;stroke-opacity:1"
         id="path1900"
         inkscape:connector-curvature="0" /></g><g
       id="g1902"
       transform="translate(383.5332,99.0645)"><path
         d="M 0,0 1.211,-1.21 -1.643,-4.064 1.211,-6.918 0,-8.129 -4.064,-4.064 Z"
         style="fill:#231f20;fill-opacity:1;fill-rule:nonzero;stroke:none"
         id="path1904"
         inkscape:connector-curvature="0" /></g><text
       transform="matrix(1,0,0,-1,60.9805,90.7168)"
       style="font-variant:normal;font-weight:normal;font-stretch:normal;font-size:16px;font-family:'Noto Serif';-inkscape-font-specification:NotoSerif;writing-mode:lr-tb;fill:#231f20;fill-opacity:1;fill-rule:nonzero;stroke:none"
       id="text1908"><tspan
         x="0 7.5359998 16.096001 25.104 34.928001 39.088001 48.352001 57.360001 62.32 72.480003 400 407.53601 416.09601 425.104 434.92801 439.08801 448.35199 457.35999 462.32001 472.48001"
         y="0"
         sodipodi:role="line"
         id="tspan1906">read valueread value</tspan></text>
<path
       d="m 26.5,207.5 h 150 v -25 h -150 z"
       style="fill:#dcd5ee;fill-opacity:1;fill-rule:nonzero;stroke:#231f20;stroke-width:1;stroke-linecap:butt;stroke-linejoin:miter;stroke-miterlimit:4;stroke-dasharray:none;stroke-opacity:1"
       id="path1910"
       inkscape:connector-curvature="0" /><text
       transform="matrix(1,0,0,-1,87.1484,189.7168)"
       style="font-variant:normal;font-weight:normal;font-stretch:normal;font-size:16px;font-family:'Noto Serif';-inkscape-font-specification:NotoSerif;writing-mode:lr-tb;fill:#231f20;fill-opacity:1;fill-rule:nonzero;stroke:none"
       id="text1914"><tspan
         x="0 8.5600004 18.879999"
         y="0"
         sodipodi:role="line"
         id="tspan1912">end</tspan></text>
<g
       id="g1916"
       transform="translate(101.5,232.5)"><path
         d="M 0,0 V -20"
         style="fill:none;stroke:#231f20;stroke-width:2;stroke-linecap:butt;stroke-linejoin:miter;stroke-miterlimit:4;stroke-dasharray:none;stroke-opacity:1"
         id="path1918"
         inkscape:connector-curvature="0" /></g><g
       id="g1920"
       transform="translate(97.4355,214.5332)"><path
         d="M 0,0 1.21,1.211 4.064,-1.643 6.918,1.211 8.129,0 4.064,-4.064 Z"
         style="fill:#231f20;fill-opacity:1;fill-rule:nonzero;stroke:none"
         id="path1922"
         inkscape:connector-curvature="0" /></g><g
       id="g1924"
       transform="translate(176.4999,195.0003)"><path
         d="M 0,0 H 45 Z"
         style="fill:#dcd5ee;fill-opacity:1;fill-rule:nonzero;stroke:none"
         id="path1926"
         inkscape:connector-curvature="0" /></g><g
       id="g1928"
       transform="translate(220.4834,192.9678)"><path
         d="M 0,0 -0.605,0.604 0.821,2.032 -0.605,3.459 0,4.064 2.032,2.032 Z"
         style="fill:#dcd5ee;fill-opacity:1;fill-rule:nonzero;stroke:none"
         id="path1930"
         inkscape:connector-curvature="0" /></g><g
       id="g1932"
       transform="translate(176.5,195)"><path
         d="M 0,0 H 45"
         style="fill:none;stroke:#231f20;stroke-width:2;stroke-linecap:butt;stroke-linejoin:miter;stroke-miterlimit:4;stroke-dasharray:none;stroke-opacity:1"
         id="path1934"
         inkscape:connector-curvature="0" /></g><g
       id="g1936"
       transform="translate(219.4668,190.9355)"><path
         d="M 0,0 -1.211,1.21 1.643,4.064 -1.211,6.918 0,8.129 4.064,4.064 Z"
         style="fill:#231f20;fill-opacity:1;fill-rule:nonzero;stroke:none"
         id="path1938"
         inkscape:connector-curvature="0" /></g><path
       d="m 426.5,157.5 h 150 v -25 h -150 z"
       style="fill:#dcd5ee;fill-opacity:1;fill-rule:nonzero;stroke:#231f20;stroke-width:1;stroke-linecap:butt;stroke-linejoin:miter;stroke-miterlimit:4;stroke-dasharray:none;stroke-opacity:1"
       id="path1940"
       inkscape:connector-curvature="0" /><text
       transform="matrix(1,0,0,-1,487.1484,139.7168)"
       style="font-variant:normal;font-weight:normal;font-stretch:normal;font-size:16px;font-family:'Noto Serif';-inkscape-font-specification:NotoSerif;writing-mode:lr-tb;fill:#231f20;fill-opacity:1;fill-rule:nonzero;stroke:none"
       id="text1944"><tspan
         x="0 8.5600004 18.879999"
         y="0"
         sodipodi:role="line"
         id="tspan1942">end</tspan></text>
<g
       id="g1946"
       transform="translate(501.5,182.5)"><path
         d="M 0,0 V -20"
         style="fill:none;stroke:#231f20;stroke-width:2;stroke-linecap:butt;stroke-linejoin:miter;stroke-miterlimit:4;stroke-dasharray:none;stroke-opacity:1"
         id="path1948"
         inkscape:connector-curvature="0" /></g><g
       id="g1950"
       transform="translate(497.4355,164.5332)"><path
         d="M 0,0 1.21,1.211 4.064,-1.643 6.918,1.211 8.129,0 4.064,-4.064 Z"
         style="fill:#231f20;fill-opacity:1;fill-rule:nonzero;stroke:none"
         id="path1952"
         inkscape:connector-curvature="0" /></g><g
       id="g1954"
       transform="translate(426.5,145)"><path
         d="M 0,0 H -45"
         style="fill:none;stroke:#231f20;stroke-width:2;stroke-linecap:butt;stroke-linejoin:miter;stroke-miterlimit:4;stroke-dasharray:none;stroke-opacity:1"
         id="path1956"
         inkscape:connector-curvature="0" /></g><g
       id="g1958"
       transform="translate(383.5332,149.0645)"><path
         d="M 0,0 1.211,-1.21 -1.643,-4.064 1.211,-6.918 0,-8.129 -4.064,-4.064 Z"
         style="fill:#231f20;fill-opacity:1;fill-rule:nonzero;stroke:none"
         id="path1960"
         inkscape:connector-curvature="0" /></g><path
       d="m 226.5,57.5 h 150 v -25 h -150 z"
       style="fill:#dcd5ee;fill-opacity:1;fill-rule:nonzero;stroke:#231f20;stroke-width:1;stroke-linecap:butt;stroke-linejoin:miter;stroke-miterlimit:4;stroke-dasharray:none;stroke-opacity:1"
       id="path1962"
       inkscape:connector-curvature="0" /><text
       transform="matrix(1,0,0,-1,287.1484,39.7168)"
       style="font-variant:normal;font-weight:normal;font-stretch:normal;font-size:16px;font-family:'Noto Serif';-inkscape-font-specification:NotoSerif;writing-mode:lr-tb;fill:#231f20;fill-opacity:1;fill-rule:nonzero;stroke:none"
       id="text1966"><tspan
         x="0 8.5600004 18.879999"
         y="0"
         sodipodi:role="line"
         id="tspan1964">end</tspan></text>
<g
       id="g1968"
       transform="translate(301.5,82.5)"><path
         d="M 0,0 V -20"
         style="fill:none;stroke:#231f20;stroke-width:2;stroke-linecap:butt;stroke-linejoin:miter;stroke-miterlimit:4;stroke-dasharray:none;stroke-opacity:1"
         id="path1970"
         inkscape:connector-curvature="0" /></g><g
       id="g1972"
       transform="translate(297.4355,64.5332)"><path
         d="M 0,0 1.21,1.211 4.064,-1.643 6.918,1.211 8.129,0 4.064,-4.064 Z"
         style="fill:#231f20;fill-opacity:1;fill-rule:nonzero;stroke:none"
         id="path1974"
         inkscape:connector-curvature="0" /></g></g></svg>