<?xml version="1.0" encoding="UTF-8" standalone="no"?>
<!-- Created with Inkscape (http://www.inkscape.org/) -->

<svg
   xmlns:dc="http://purl.org/dc/elements/1.1/"
   xmlns:cc="http://creativecommons.org/ns#"
   xmlns:rdf="http://www.w3.org/1999/02/22-rdf-syntax-ns#"
   xmlns:svg="http://www.w3.org/2000/svg"
   xmlns="http://www.w3.org/2000/svg"
   xmlns:sodipodi="http://sodipodi.sourceforge.net/DTD/sodipodi-0.dtd"
   xmlns:inkscape="http://www.inkscape.org/namespaces/inkscape"
   version="1.1"
   id="svg2728"
   xml:space="preserve"
   width="865.77869"
   height="595.55603"
   viewBox="0 0 865.77869 595.55603"
   sodipodi:docname="video-game-tasks.svg"
   inkscape:version="0.92.3 (2405546, 2018-03-11)"><metadata
     id="metadata2734"><rdf:RDF><cc:Work
         rdf:about=""><dc:format>image/svg+xml</dc:format><dc:type
           rdf:resource="http://purl.org/dc/dcmitype/StillImage" /><dc:title></dc:title></cc:Work></rdf:RDF></metadata><defs
     id="defs2732" /><sodipodi:namedview
     pagecolor="#ffffff"
     bordercolor="#666666"
     borderopacity="1"
     objecttolerance="10"
     gridtolerance="10"
     guidetolerance="10"
     inkscape:pageopacity="0"
     inkscape:pageshadow="2"
     inkscape:window-width="2560"
     inkscape:window-height="1377"
     id="namedview2730"
     showgrid="false"
     inkscape:zoom="0.39626834"
     inkscape:cx="432.88934"
     inkscape:cy="297.77802"
     inkscape:window-x="-8"
     inkscape:window-y="-8"
     inkscape:window-maximized="1"
     inkscape:current-layer="g2736" /><g
     id="g2736"
     inkscape:groupmode="layer"
     inkscape:label="video-game-tasks"
     transform="matrix(1.3333333,0,0,-1.3333333,0,595.556)"><path
       d="m 512.334,435.67 h 125 v -400 h -125 z"
       style="fill:#fde9ca;fill-opacity:1;fill-rule:nonzero;stroke:#231f20;stroke-width:1;stroke-linecap:butt;stroke-linejoin:miter;stroke-miterlimit:4;stroke-dasharray:6;stroke-dashoffset:0;stroke-opacity:1"
       id="path2738"
       inkscape:connector-curvature="0" /><path
       d="m 287.334,435.67 h 200 v -400 h -200 z"
       style="fill:#fde9ca;fill-opacity:1;fill-rule:nonzero;stroke:#231f20;stroke-width:1;stroke-linecap:butt;stroke-linejoin:miter;stroke-miterlimit:4;stroke-dasharray:6;stroke-dashoffset:0;stroke-opacity:1"
       id="path2740"
       inkscape:connector-curvature="0" /><g
       id="g2742"
       transform="translate(399.8345,148.1699)"><path
         d="M 0,0 V -32.334 H 131.25 V 125 H 147"
         style="fill:none;stroke:#231f20;stroke-width:2;stroke-linecap:round;stroke-linejoin:round;stroke-miterlimit:4;stroke-dasharray:0, 4;stroke-dashoffset:0;stroke-opacity:1"
         id="path2744"
         inkscape:connector-curvature="0" /></g><g
       id="g2746"
       transform="translate(544.8013,269.1055)"><path
         d="M 0,0 -1.211,1.21 1.643,4.064 -1.211,6.918 0,8.129 4.064,4.064 Z"
         style="fill:#231f20;fill-opacity:1;fill-rule:nonzero;stroke:none"
         id="path2748"
         inkscape:connector-curvature="0" /></g><path
       d="m 12.334,435.67 h 200 v -400 h -200 z"
       style="fill:#fde9ca;fill-opacity:1;fill-rule:nonzero;stroke:#231f20;stroke-width:1;stroke-linecap:butt;stroke-linejoin:miter;stroke-miterlimit:4;stroke-dasharray:6;stroke-dashoffset:0;stroke-opacity:1"
       id="path2750"
       inkscape:connector-curvature="0" /><text
       transform="matrix(1,0,0,-1,103.5464,10.6045)"
       style="font-variant:normal;font-weight:normal;font-stretch:normal;font-size:14px;font-family:'Noto Serif';-inkscape-font-specification:NotoSerif;writing-mode:lr-tb;fill:#231f20;fill-opacity:1;fill-rule:nonzero;stroke:none"
       id="text2754"><tspan
         x="0 4.8439999 12.726 343.392 348.23599 356.832"
         y="0"
         sodipodi:role="line"
         id="tspan2752">(a)(b)</tspan></text>
<path
       d="m 99.834,398.17 h 50 v -50 h -50 z"
       style="fill:#dcd5ee;fill-opacity:1;fill-rule:nonzero;stroke:#231f20;stroke-width:1;stroke-linecap:butt;stroke-linejoin:miter;stroke-miterlimit:4;stroke-dasharray:none;stroke-opacity:1"
       id="path2756"
       inkscape:connector-curvature="0" /><text
       transform="matrix(1,0,0,-1,119.8984,378.8882)"
       style="font-variant:normal;font-weight:normal;font-stretch:normal;font-size:14px;font-family:'Noto Serif';-inkscape-font-specification:NotoSerif;writing-mode:lr-tb;fill:#231f20;fill-opacity:1;fill-rule:nonzero;stroke:none"
       id="text2760"><tspan
         x="0"
         y="0"
         id="tspan2758">A</tspan></text>
<text
       transform="matrix(1,0,0,-1,113.8867,366.8882)"
       style="font-variant:normal;font-weight:normal;font-stretch:normal;font-size:10px;font-family:'Noto Serif';-inkscape-font-specification:NotoSerif;writing-mode:lr-tb;fill:#231f20;fill-opacity:1;fill-rule:nonzero;stroke:none"
       id="text2766"><tspan
         x="0 4.5100002 8.0299997 13.66 18.370001"
         y="0"
         sodipodi:role="line"
         id="tspan2762">start</tspan><tspan
         x="-1.96 3.4200001 9.0500002 18.5"
         y="12"
         sodipodi:role="line"
         id="tspan2764">game</tspan></text>
<path
       d="m 99.834,298.17 h 50 v -50 h -50 z"
       style="fill:#dcd5ee;fill-opacity:1;fill-rule:nonzero;stroke:#231f20;stroke-width:1;stroke-linecap:butt;stroke-linejoin:miter;stroke-miterlimit:4;stroke-dasharray:none;stroke-opacity:1"
       id="path2768"
       inkscape:connector-curvature="0" /><text
       transform="matrix(1,0,0,-1,120.2573,278.8882)"
       style="font-variant:normal;font-weight:normal;font-stretch:normal;font-size:14px;font-family:'Noto Serif';-inkscape-font-specification:NotoSerif;writing-mode:lr-tb;fill:#231f20;fill-opacity:1;fill-rule:nonzero;stroke:none"
       id="text2772"><tspan
         x="0"
         y="0"
         id="tspan2770">B</tspan></text>
<text
       transform="matrix(1,0,0,-1,106.875,266.8882)"
       style="font-variant:normal;font-weight:normal;font-stretch:normal;font-size:10px;font-family:'Noto Serif';-inkscape-font-specification:NotoSerif;writing-mode:lr-tb;fill:#231f20;fill-opacity:1;fill-rule:nonzero;stroke:none"
       id="text2778"><tspan
         x="0 6.1399999 10.85 16.620001 21.540001 26.889999 31.4"
         y="0"
         sodipodi:role="line"
         id="tspan2774">process</tspan><tspan
         x="4.7800002 14.23 20 25.790001"
         y="12"
         sodipodi:role="line"
         id="tspan2776">move</tspan></text>
<path
       d="m 99.834,198.17 h 50 v -50 h -50 z"
       style="fill:#dcd5ee;fill-opacity:1;fill-rule:nonzero;stroke:#231f20;stroke-width:1;stroke-linecap:butt;stroke-linejoin:miter;stroke-miterlimit:4;stroke-dasharray:none;stroke-opacity:1"
       id="path2780"
       inkscape:connector-curvature="0" /><text
       transform="matrix(1,0,0,-1,120.5376,178.8862)"
       style="font-variant:normal;font-weight:normal;font-stretch:normal;font-size:14px;font-family:'Noto Serif';-inkscape-font-specification:NotoSerif;writing-mode:lr-tb;fill:#231f20;fill-opacity:1;fill-rule:nonzero;stroke:none"
       id="text2784"><tspan
         x="0"
         y="0"
         id="tspan2782">C</tspan></text>
<text
       transform="matrix(1,0,0,-1,108.2715,166.8862)"
       style="font-variant:normal;font-weight:normal;font-stretch:normal;font-size:10px;font-family:'Noto Serif';-inkscape-font-specification:NotoSerif;writing-mode:lr-tb;fill:#231f20;fill-opacity:1;fill-rule:nonzero;stroke:none"
       id="text2790"><tspan
         x="0 6.3499999 12.49 18.629999 24.26 27.780001"
         y="0"
         sodipodi:role="line"
         id="tspan2786">update</tspan><tspan
         x="3.9300001 8.4399996 13.36 19.129999 23.84"
         y="12"
         sodipodi:role="line"
         id="tspan2788">score</tspan></text>
<path
       d="m 99.834,98.17 h 50 v -50 h -50 z"
       style="fill:#dcd5ee;fill-opacity:1;fill-rule:nonzero;stroke:#231f20;stroke-width:1;stroke-linecap:butt;stroke-linejoin:miter;stroke-miterlimit:4;stroke-dasharray:none;stroke-opacity:1"
       id="path2792"
       inkscape:connector-curvature="0" /><text
       transform="matrix(1,0,0,-1,119.7446,78.8882)"
       style="font-variant:normal;font-weight:normal;font-stretch:normal;font-size:14px;font-family:'Noto Serif';-inkscape-font-specification:NotoSerif;writing-mode:lr-tb;fill:#231f20;fill-opacity:1;fill-rule:nonzero;stroke:none"
       id="text2796"><tspan
         x="0"
         y="0"
         id="tspan2794">D</tspan></text>
<text
       transform="matrix(1,0,0,-1,107.334,66.8882)"
       style="font-variant:normal;font-weight:normal;font-stretch:normal;font-size:10px;font-family:'Noto Serif';-inkscape-font-specification:NotoSerif;writing-mode:lr-tb;fill:#231f20;fill-opacity:1;fill-rule:nonzero;stroke:none"
       id="text2802"><tspan
         x="0 4.71 10.06 16.200001 21.83 25.030001 31.48"
         y="0"
         sodipodi:role="line"
         id="tspan2798">repaint</tspan><tspan
         x="1.85 6.3600001 11.28 15.99 21.34 26.690001"
         y="12"
         sodipodi:role="line"
         id="tspan2800">screen</tspan></text>
<path
       d="m 74.834,198.17 h -50 v -50 h 50 z"
       style="fill:#dcd5ee;fill-opacity:1;fill-rule:nonzero;stroke:#231f20;stroke-width:1;stroke-linecap:butt;stroke-linejoin:miter;stroke-miterlimit:4;stroke-dasharray:none;stroke-opacity:1"
       id="path2804"
       inkscape:connector-curvature="0" /><text
       transform="matrix(1,0,0,-1,45.4736,178.8882)"
       style="font-variant:normal;font-weight:normal;font-stretch:normal;font-size:14px;font-family:'Noto Serif';-inkscape-font-specification:NotoSerif;writing-mode:lr-tb;fill:#231f20;fill-opacity:1;fill-rule:nonzero;stroke:none"
       id="text2808"><tspan
         x="0"
         y="0"
         id="tspan2806">E</tspan></text>
<text
       transform="matrix(1,0,0,-1,40.8652,166.8882)"
       style="font-variant:normal;font-weight:normal;font-stretch:normal;font-size:10px;font-family:'Noto Serif';-inkscape-font-specification:NotoSerif;writing-mode:lr-tb;fill:#231f20;fill-opacity:1;fill-rule:nonzero;stroke:none"
       id="text2814"><tspan
         x="0 5.3499999 11.8"
         y="0"
         sodipodi:role="line"
         id="tspan2810">end</tspan><tspan
         x="-3.9400001 1.4400001 7.0700002 16.52"
         y="12"
         sodipodi:role="line"
         id="tspan2812">game</tspan></text>
<g
       id="g2816"
       transform="translate(124.8345,348.1699)"><path
         d="M 0,0 V -47"
         style="fill:none;stroke:#231f20;stroke-width:2;stroke-linecap:butt;stroke-linejoin:miter;stroke-miterlimit:4;stroke-dasharray:none;stroke-opacity:1"
         id="path2818"
         inkscape:connector-curvature="0" /></g><g
       id="g2820"
       transform="translate(120.77,303.2036)"><path
         d="M 0,0 1.21,1.211 4.064,-1.643 6.918,1.211 8.129,0 4.064,-4.064 Z"
         style="fill:#231f20;fill-opacity:1;fill-rule:nonzero;stroke:none"
         id="path2822"
         inkscape:connector-curvature="0" /></g><g
       id="g2824"
       transform="translate(124.8345,248.1699)"><path
         d="M 0,0 V -47"
         style="fill:none;stroke:#231f20;stroke-width:2;stroke-linecap:butt;stroke-linejoin:miter;stroke-miterlimit:4;stroke-dasharray:none;stroke-opacity:1"
         id="path2826"
         inkscape:connector-curvature="0" /></g><g
       id="g2828"
       transform="translate(120.77,203.2031)"><path
         d="M 0,0 1.21,1.211 4.064,-1.643 6.918,1.211 8.129,0 4.064,-4.064 Z"
         style="fill:#231f20;fill-opacity:1;fill-rule:nonzero;stroke:none"
         id="path2830"
         inkscape:connector-curvature="0" /></g><g
       id="g2832"
       transform="translate(124.8345,148.1699)"><path
         d="M 0,0 V -47"
         style="fill:none;stroke:#231f20;stroke-width:2;stroke-linecap:butt;stroke-linejoin:miter;stroke-miterlimit:4;stroke-dasharray:none;stroke-opacity:1"
         id="path2834"
         inkscape:connector-curvature="0" /></g><g
       id="g2836"
       transform="translate(120.77,103.2031)"><path
         d="M 0,0 1.21,1.211 4.064,-1.643 6.918,1.211 8.129,0 4.064,-4.064 Z"
         style="fill:#231f20;fill-opacity:1;fill-rule:nonzero;stroke:none"
         id="path2838"
         inkscape:connector-curvature="0" /></g><g
       id="g2840"
       transform="translate(149.8345,73.1699)"><path
         d="M 0,0 H 50 V 200 H 3"
         style="fill:none;stroke:#231f20;stroke-width:2;stroke-linecap:butt;stroke-linejoin:miter;stroke-miterlimit:4;stroke-dasharray:none;stroke-opacity:1"
         id="path2842"
         inkscape:connector-curvature="0" /></g><g
       id="g2844"
       transform="translate(154.8677,277.2344)"><path
         d="M 0,0 1.211,-1.21 -1.643,-4.064 1.211,-6.918 0,-8.129 -4.064,-4.064 Z"
         style="fill:#231f20;fill-opacity:1;fill-rule:nonzero;stroke:none"
         id="path2846"
         inkscape:connector-curvature="0" /></g><g
       id="g2848"
       transform="translate(99.8345,273.1699)"><path
         d="M 0,0 H -50 V -72"
         style="fill:none;stroke:#231f20;stroke-width:2;stroke-linecap:butt;stroke-linejoin:miter;stroke-miterlimit:4;stroke-dasharray:none;stroke-opacity:1"
         id="path2850"
         inkscape:connector-curvature="0" /></g><g
       id="g2852"
       transform="translate(45.77,203.2031)"><path
         d="M 0,0 1.21,1.211 4.064,-1.643 6.918,1.211 8.129,0 4.064,-4.064 Z"
         style="fill:#231f20;fill-opacity:1;fill-rule:nonzero;stroke:none"
         id="path2854"
         inkscape:connector-curvature="0" /></g><path
       d="m 374.834,398.17 h 50 v -50 h -50 z"
       style="fill:#dcd5ee;fill-opacity:1;fill-rule:nonzero;stroke:#231f20;stroke-width:1;stroke-linecap:butt;stroke-linejoin:miter;stroke-miterlimit:4;stroke-dasharray:none;stroke-opacity:1"
       id="path2856"
       inkscape:connector-curvature="0" /><text
       transform="matrix(1,0,0,-1,394.8979,378.8882)"
       style="font-variant:normal;font-weight:normal;font-stretch:normal;font-size:14px;font-family:'Noto Serif';-inkscape-font-specification:NotoSerif;writing-mode:lr-tb;fill:#231f20;fill-opacity:1;fill-rule:nonzero;stroke:none"
       id="text2860"><tspan
         x="0"
         y="0"
         id="tspan2858">A</tspan></text>
<text
       transform="matrix(1,0,0,-1,388.8862,366.8882)"
       style="font-variant:normal;font-weight:normal;font-stretch:normal;font-size:10px;font-family:'Noto Serif';-inkscape-font-specification:NotoSerif;writing-mode:lr-tb;fill:#231f20;fill-opacity:1;fill-rule:nonzero;stroke:none"
       id="text2866"><tspan
         x="0 4.5100002 8.0299997 13.66 18.370001"
         y="0"
         sodipodi:role="line"
         id="tspan2862">start</tspan><tspan
         x="-1.96 3.4200001 9.0500002 18.5"
         y="12"
         sodipodi:role="line"
         id="tspan2864">game</tspan></text>
<path
       d="m 374.834,298.17 h 50 v -50 h -50 z"
       style="fill:#dcd5ee;fill-opacity:1;fill-rule:nonzero;stroke:#231f20;stroke-width:1;stroke-linecap:butt;stroke-linejoin:miter;stroke-miterlimit:4;stroke-dasharray:none;stroke-opacity:1"
       id="path2868"
       inkscape:connector-curvature="0" /><text
       transform="matrix(1,0,0,-1,395.2568,278.8872)"
       style="font-variant:normal;font-weight:normal;font-stretch:normal;font-size:14px;font-family:'Noto Serif';-inkscape-font-specification:NotoSerif;writing-mode:lr-tb;fill:#231f20;fill-opacity:1;fill-rule:nonzero;stroke:none"
       id="text2872"><tspan
         x="0"
         y="0"
         id="tspan2870">B</tspan></text>
<text
       transform="matrix(1,0,0,-1,381.8745,266.8872)"
       style="font-variant:normal;font-weight:normal;font-stretch:normal;font-size:10px;font-family:'Noto Serif';-inkscape-font-specification:NotoSerif;writing-mode:lr-tb;fill:#231f20;fill-opacity:1;fill-rule:nonzero;stroke:none"
       id="text2878"><tspan
         x="0 6.1399999 10.85 16.620001 21.540001 26.889999 31.4"
         y="0"
         sodipodi:role="line"
         id="tspan2874">process</tspan><tspan
         x="4.7800002 14.23 20 25.790001"
         y="12"
         sodipodi:role="line"
         id="tspan2876">move</tspan></text>
<path
       d="m 549.834,298.17 h 50 v -50 h -50 z"
       style="fill:#dcd5ee;fill-opacity:1;fill-rule:nonzero;stroke:#231f20;stroke-width:1;stroke-linecap:butt;stroke-linejoin:miter;stroke-miterlimit:4;stroke-dasharray:none;stroke-opacity:1"
       id="path2880"
       inkscape:connector-curvature="0" /><text
       transform="matrix(1,0,0,-1,569.7456,278.8872)"
       style="font-variant:normal;font-weight:normal;font-stretch:normal;font-size:14px;font-family:'Noto Serif';-inkscape-font-specification:NotoSerif;writing-mode:lr-tb;fill:#231f20;fill-opacity:1;fill-rule:nonzero;stroke:none"
       id="text2884"><tspan
         x="0"
         y="0"
         id="tspan2882">D</tspan></text>
<text
       transform="matrix(1,0,0,-1,557.335,266.8872)"
       style="font-variant:normal;font-weight:normal;font-stretch:normal;font-size:10px;font-family:'Noto Serif';-inkscape-font-specification:NotoSerif;writing-mode:lr-tb;fill:#231f20;fill-opacity:1;fill-rule:nonzero;stroke:none"
       id="text2890"><tspan
         x="0 4.71 10.06 16.200001 21.83 25.030001 31.48"
         y="0"
         sodipodi:role="line"
         id="tspan2886">repaint</tspan><tspan
         x="1.85 6.3600001 11.28 15.99 21.34 26.690001"
         y="12"
         sodipodi:role="line"
         id="tspan2888">screen</tspan></text>
<path
       d="m 374.834,198.17 h 50 v -50 h -50 z"
       style="fill:#dcd5ee;fill-opacity:1;fill-rule:nonzero;stroke:#231f20;stroke-width:1;stroke-linecap:butt;stroke-linejoin:miter;stroke-miterlimit:4;stroke-dasharray:none;stroke-opacity:1"
       id="path2892"
       inkscape:connector-curvature="0" /><text
       transform="matrix(1,0,0,-1,395.5371,178.8862)"
       style="font-variant:normal;font-weight:normal;font-stretch:normal;font-size:14px;font-family:'Noto Serif';-inkscape-font-specification:NotoSerif;writing-mode:lr-tb;fill:#231f20;fill-opacity:1;fill-rule:nonzero;stroke:none"
       id="text2896"><tspan
         x="0"
         y="0"
         id="tspan2894">C</tspan></text>
<text
       transform="matrix(1,0,0,-1,383.271,166.8862)"
       style="font-variant:normal;font-weight:normal;font-stretch:normal;font-size:10px;font-family:'Noto Serif';-inkscape-font-specification:NotoSerif;writing-mode:lr-tb;fill:#231f20;fill-opacity:1;fill-rule:nonzero;stroke:none"
       id="text2902"><tspan
         x="0 6.3499999 12.49 18.629999 24.26 27.780001"
         y="0"
         sodipodi:role="line"
         id="tspan2898">update</tspan><tspan
         x="3.9300001 8.4399996 13.36 19.129999 23.84"
         y="12"
         sodipodi:role="line"
         id="tspan2900">score</tspan></text>
<path
       d="m 349.834,198.17 h -50 v -50 h 50 z"
       style="fill:#dcd5ee;fill-opacity:1;fill-rule:nonzero;stroke:#231f20;stroke-width:1;stroke-linecap:butt;stroke-linejoin:miter;stroke-miterlimit:4;stroke-dasharray:none;stroke-opacity:1"
       id="path2904"
       inkscape:connector-curvature="0" /><text
       transform="matrix(1,0,0,-1,320.4736,178.8862)"
       style="font-variant:normal;font-weight:normal;font-stretch:normal;font-size:14px;font-family:'Noto Serif';-inkscape-font-specification:NotoSerif;writing-mode:lr-tb;fill:#231f20;fill-opacity:1;fill-rule:nonzero;stroke:none"
       id="text2908"><tspan
         x="0"
         y="0"
         id="tspan2906">E</tspan></text>
<text
       transform="matrix(1,0,0,-1,315.8652,166.8862)"
       style="font-variant:normal;font-weight:normal;font-stretch:normal;font-size:10px;font-family:'Noto Serif';-inkscape-font-specification:NotoSerif;writing-mode:lr-tb;fill:#231f20;fill-opacity:1;fill-rule:nonzero;stroke:none"
       id="text2914"><tspan
         x="0 5.3499999 11.8"
         y="0"
         sodipodi:role="line"
         id="tspan2910">end</tspan><tspan
         x="-3.9400001 1.4400001 7.0700002 16.52"
         y="12"
         sodipodi:role="line"
         id="tspan2912">game</tspan></text>
<g
       id="g2916"
       transform="translate(399.8345,348.1699)"><path
         d="M 0,0 V -47"
         style="fill:none;stroke:#231f20;stroke-width:2;stroke-linecap:butt;stroke-linejoin:miter;stroke-miterlimit:4;stroke-dasharray:none;stroke-opacity:1"
         id="path2918"
         inkscape:connector-curvature="0" /></g><g
       id="g2920"
       transform="translate(395.77,303.2036)"><path
         d="M 0,0 1.21,1.211 4.064,-1.643 6.918,1.211 8.129,0 4.064,-4.064 Z"
         style="fill:#231f20;fill-opacity:1;fill-rule:nonzero;stroke:none"
         id="path2922"
         inkscape:connector-curvature="0" /></g><g
       id="g2924"
       transform="translate(399.8345,248.1699)"><path
         d="M 0,0 V -47"
         style="fill:none;stroke:#231f20;stroke-width:2;stroke-linecap:butt;stroke-linejoin:miter;stroke-miterlimit:4;stroke-dasharray:none;stroke-opacity:1"
         id="path2926"
         inkscape:connector-curvature="0" /></g><g
       id="g2928"
       transform="translate(395.77,203.2031)"><path
         d="M 0,0 1.21,1.211 4.064,-1.643 6.918,1.211 8.129,0 4.064,-4.064 Z"
         style="fill:#231f20;fill-opacity:1;fill-rule:nonzero;stroke:none"
         id="path2930"
         inkscape:connector-curvature="0" /></g><g
       id="g2932"
       transform="translate(424.8345,173.1699)"><path
         d="M 0,0 H 50 V 100 H 3"
         style="fill:none;stroke:#231f20;stroke-width:2;stroke-linecap:butt;stroke-linejoin:miter;stroke-miterlimit:4;stroke-dasharray:none;stroke-opacity:1"
         id="path2934"
         inkscape:connector-curvature="0" /></g><g
       id="g2936"
       transform="translate(429.8677,277.2344)"><path
         d="M 0,0 1.211,-1.21 -1.643,-4.064 1.211,-6.918 0,-8.129 -4.064,-4.064 Z"
         style="fill:#231f20;fill-opacity:1;fill-rule:nonzero;stroke:none"
         id="path2938"
         inkscape:connector-curvature="0" /></g><g
       id="g2940"
       transform="translate(374.8345,273.1699)"><path
         d="M 0,0 H -50 V -72"
         style="fill:none;stroke:#231f20;stroke-width:2;stroke-linecap:butt;stroke-linejoin:miter;stroke-miterlimit:4;stroke-dasharray:none;stroke-opacity:1"
         id="path2942"
         inkscape:connector-curvature="0" /></g><g
       id="g2944"
       transform="translate(320.77,203.2031)"><path
         d="M 0,0 1.21,1.211 4.064,-1.643 6.918,1.211 8.129,0 4.064,-4.064 Z"
         style="fill:#231f20;fill-opacity:1;fill-rule:nonzero;stroke:none"
         id="path2946"
         inkscape:connector-curvature="0" /></g><g
       id="g2948"
       transform="translate(574.8345,248.1699)"><path
         d="M 0,0 V -75 H 50 V 25 H 28"
         style="fill:none;stroke:#231f20;stroke-width:2;stroke-linecap:butt;stroke-linejoin:miter;stroke-miterlimit:4;stroke-dasharray:none;stroke-opacity:1"
         id="path2950"
         inkscape:connector-curvature="0" /></g><g
       id="g2952"
       transform="translate(604.8677,277.2344)"><path
         d="M 0,0 1.211,-1.21 -1.643,-4.064 1.211,-6.918 0,-8.129 -4.064,-4.064 Z"
         style="fill:#231f20;fill-opacity:1;fill-rule:nonzero;stroke:none"
         id="path2954"
         inkscape:connector-curvature="0" /></g><text
       transform="matrix(1,0,0,-1,22.3345,410.6045)"
       style="font-variant:normal;font-weight:normal;font-stretch:normal;font-size:16px;font-family:'Noto Serif';-inkscape-font-specification:NotoSerif;writing-mode:lr-tb;fill:#231f20;fill-opacity:1;fill-rule:nonzero;stroke:none"
       id="text2958"><tspan
         x="0 9.8240004 19.056 26.591999 35.152 39.312 274.992 284.81601 294.048 301.58401 310.14401 314.30399 500 509.82401 519.05603 526.59198 535.15198 539.31201"
         y="0"
         sodipodi:role="line"
         id="tspan2956">Core 1Core 1Core 2</tspan></text>
<text
       transform="matrix(1,0,0,-1,411.3237,97.8379)"
       style="font-variant:normal;font-weight:normal;font-stretch:normal;font-size:14px;font-family:'Noto Serif';-inkscape-font-specification:NotoSerif;writing-mode:lr-tb;fill:#231f20;fill-opacity:1;fill-rule:nonzero;stroke:none"
       id="text2962"><tspan
         x="0 6.3140001 13.804 22.834 31.43 35.07 43.666 51.548 56.476002"
         y="0"
         sodipodi:role="line"
         id="tspan2960">send data</tspan></text>
<g
       id="g2964"
       transform="translate(424.8345,373.1709)"><path
         d="M 0,0 H 150 V -72"
         style="fill:none;stroke:#231f20;stroke-width:2;stroke-linecap:butt;stroke-linejoin:miter;stroke-miterlimit:4;stroke-dasharray:none;stroke-opacity:1"
         id="path2966"
         inkscape:connector-curvature="0" /></g><g
       id="g2968"
       transform="translate(570.77,303.2036)"><path
         d="M 0,0 1.21,1.211 4.064,-1.643 6.918,1.211 8.129,0 4.064,-4.064 Z"
         style="fill:#231f20;fill-opacity:1;fill-rule:nonzero;stroke:none"
         id="path2970"
         inkscape:connector-curvature="0" /></g></g></svg>