<?xml version="1.0" encoding="iso-8859-1"?>
<!-- Generator: Adobe Illustrator 14.0.0, SVG Export Plug-In . SVG Version: 6.00 Build 43363)  -->
<!DOCTYPE svg PUBLIC "-//W3C//DTD SVG 1.1//EN" "http://www.w3.org/Graphics/SVG/1.1/DTD/svg11.dtd">
<svg version="1.1" id="Layer_1" xmlns="http://www.w3.org/2000/svg" xmlns:xlink="http://www.w3.org/1999/xlink" x="0px" y="0px"
	 width="428px" height="242.667px" viewBox="0 0 428 242.667" style="enable-background:new 0 0 428 242.667;" xml:space="preserve"
	>
<image style="overflow:visible;" width="278" height="128" xlink:href="chapters/07-gui-basics/images/simple.png"  transform="matrix(1 0 0 1 65.1313 67.5288)">
</image>
<text transform="matrix(1 0 0 1 183.6743 37.9307)" style="font-family:'NotoSerif-Bold'; font-size:11;">Frame</text>
<text transform="matrix(1 0 0 1 4.251 124.6699)" style="font-family:'NotoSerif'; font-size:11;">Icon</text>
<text transform="matrix(1 0 0 1 185.2588 235.6699)" style="font-family:'NotoSerif'; font-size:11;">Button</text>
<g>
	<g>
		<line x1="30.419" y1="121.67" x2="79.419" y2="121.67"/>
		<polygon points="78.402,123.702 77.797,123.097 79.224,121.67 77.797,120.243 78.402,119.638 80.435,121.67 		"/>
	</g>
	<g>
		<line style="fill:none;stroke:#000000;stroke-width:2;" x1="30.419" y1="121.67" x2="79.419" y2="121.67"/>
		<polygon points="77.386,125.734 76.175,124.524 79.028,121.67 76.175,118.816 77.386,117.605 81.45,121.67 		"/>
	</g>
</g>
<g>
	<g>
		<line x1="202.999" y1="223.625" x2="202.999" y2="179.669"/>
		<polygon points="205.031,180.686 204.426,181.291 202.999,179.864 201.572,181.291 200.967,180.686 202.999,178.653 		"/>
	</g>
	<g>
		<line style="fill:none;stroke:#000000;stroke-width:2;" x1="202.999" y1="223.625" x2="202.999" y2="179.669"/>
		<polygon points="207.063,181.702 205.854,182.913 202.999,180.06 200.146,182.913 198.935,181.702 202.999,177.638 		"/>
	</g>
</g>
<text transform="matrix(1 0 0 1 94.9741 38.1699)" style="font-family:'NotoSerif'; font-size:11;">Title</text>
<text transform="matrix(1 0 0 1 380.5645 126.9092)" style="font-family:'NotoSerif'; font-size:11;">Message</text>
<g>
	<g>
		<line x1="376" y1="124.007" x2="319.434" y2="124.007"/>
		<polygon points="320.45,121.975 321.056,122.58 319.629,124.007 321.056,125.434 320.45,126.039 318.418,124.007 		"/>
	</g>
	<g>
		<line style="fill:none;stroke:#000000;stroke-width:2;" x1="376" y1="124.007" x2="319.434" y2="124.007"/>
		<polygon points="321.467,119.942 322.678,121.152 319.824,124.007 322.678,126.86 321.467,128.071 317.402,124.007 		"/>
	</g>
</g>
<g>
	<g>
		<line x1="106.499" y1="43.17" x2="106.499" y2="75.029"/>
		<polygon points="104.467,74.012 105.072,73.407 106.499,74.833 107.926,73.407 108.531,74.012 106.499,76.044 		"/>
	</g>
	<g>
		<line style="fill:none;stroke:#000000;stroke-width:2;" x1="106.499" y1="43.17" x2="106.499" y2="75.029"/>
		<polygon points="102.435,72.996 103.645,71.785 106.499,74.638 109.353,71.785 110.563,72.996 106.499,77.06 		"/>
	</g>
</g>
</svg>
