<?xml version="1.0" encoding="iso-8859-1"?>
<!-- Generator: Adobe Illustrator 14.0.0, SVG Export Plug-In . SVG Version: 6.00 Build 43363)  -->
<!DOCTYPE svg PUBLIC "-//W3C//DTD SVG 1.1//EN" "http://www.w3.org/Graphics/SVG/1.1/DTD/svg11.dtd">
<svg version="1.1" id="Layer_1" xmlns="http://www.w3.org/2000/svg" xmlns:xlink="http://www.w3.org/1999/xlink" x="0px" y="0px"
	 width="359px" height="115.048px" viewBox="0 0 359 115.048" enable-background="new 0 0 359 115.048" xml:space="preserve">
<rect x="86.754" y="59.355" fill="#CEECC3" width="26.25" height="26.246"/>
<rect x="86.754" y="59.355" fill="none" stroke="#1B181A" stroke-width="2" width="26.25" height="26.246"/>
<rect x="113.004" y="59.355" fill="#CEECC3" width="26.25" height="26.246"/>
<rect x="113.004" y="59.355" fill="none" stroke="#1B181A" stroke-width="2" width="26.25" height="26.246"/>
<rect x="138.879" y="59.355" fill="#CEECC3" width="26.25" height="26.246"/>
<rect x="138.879" y="59.355" fill="none" stroke="#1B181A" stroke-width="2" width="26.25" height="26.246"/>
<rect x="165.129" y="59.355" fill="#CEECC3" width="26.25" height="26.246"/>
<rect x="165.129" y="59.355" fill="none" stroke="#1B181A" stroke-width="2" width="26.25" height="26.246"/>
<rect x="191.379" y="59.355" fill="#CEECC3" width="26.25" height="26.246"/>
<rect x="191.379" y="59.355" fill="none" stroke="#1B181A" stroke-width="2" width="26.25" height="26.246"/>
<rect x="217.629" y="59.355" fill="#CEECC3" width="26.25" height="26.246"/>
<rect x="217.629" y="59.355" fill="none" stroke="#1B181A" stroke-width="2" width="26.25" height="26.246"/>
<rect x="243.879" y="59.355" fill="#CEECC3" width="26.25" height="26.246"/>
<rect x="243.879" y="59.355" fill="none" stroke="#1B181A" stroke-width="2" width="26.25" height="26.246"/>
<rect x="270.129" y="59.355" fill="#CEECC3" width="26.25" height="26.246"/>
<rect x="270.129" y="59.355" fill="none" stroke="#1B181A" stroke-width="2" width="26.25" height="26.246"/>
<rect x="296.379" y="59.355" fill="#CEECC3" width="26.25" height="26.246"/>
<rect x="296.379" y="59.355" fill="none" stroke="#1B181A" stroke-width="2" width="26.25" height="26.246"/>
<rect x="322.629" y="59.355" fill="#CEECC3" width="26.25" height="26.246"/>
<rect x="322.629" y="59.355" fill="none" stroke="#1B181A" stroke-width="2" width="26.25" height="26.246"/>
<g>
	<path fill="#1B181A" d="M97.661,78.226l4.398-10.125h-5.891v-1.297h7.344v1.133l-4.336,10.289H97.661z"/>
	<path fill="#1B181A" d="M122.161,78.226h-1.375v-7.133c0-0.636,0.021-1.575,0.063-2.82c-0.203,0.224-0.518,0.519-0.945,0.883
		l-1.148,0.945l-0.758-0.961l2.992-2.336h1.172V78.226z"/>
	<path fill="#1B181A" d="M130.622,78.382c-1.193,0-2.096-0.504-2.711-1.512s-0.922-2.465-0.922-4.371
		c0-3.917,1.211-5.875,3.633-5.875c1.208,0,2.121,0.504,2.738,1.512s0.926,2.462,0.926,4.363
		C134.286,76.421,133.064,78.382,130.622,78.382z M130.622,77.171c0.766,0,1.328-0.366,1.688-1.098s0.539-1.923,0.539-3.574
		c0-1.641-0.18-2.827-0.539-3.559s-0.922-1.098-1.688-1.098c-0.755,0-1.309,0.363-1.66,1.09s-0.527,1.915-0.527,3.566
		c0,1.656,0.176,2.849,0.527,3.578S129.866,77.171,130.622,77.171z"/>
	<path fill="#1B181A" d="M148.166,78.226h-1.375v-7.133c0-0.636,0.021-1.575,0.063-2.82c-0.203,0.224-0.518,0.519-0.945,0.883
		l-1.148,0.945l-0.758-0.961l2.992-2.336h1.172V78.226z"/>
	<path fill="#1B181A" d="M157.267,72.21v0.047c1.88,0.245,2.82,1.151,2.82,2.719c0,1.058-0.359,1.89-1.078,2.496
		s-1.758,0.91-3.117,0.91c-1.26,0-2.268-0.206-3.023-0.617v-1.328c0.958,0.5,1.956,0.75,2.992,0.75c1.844,0,2.766-0.753,2.766-2.258
		c0-1.344-0.992-2.016-2.977-2.016h-1.039v-1.18h1.039c0.833,0,1.479-0.198,1.938-0.594s0.688-0.919,0.688-1.57
		c0-0.531-0.177-0.952-0.531-1.262s-0.828-0.465-1.422-0.465c-0.927,0-1.823,0.315-2.688,0.945l-0.719-0.977
		c0.974-0.781,2.109-1.172,3.406-1.172c1.073,0,1.91,0.258,2.512,0.773s0.902,1.203,0.902,2.063c0,0.719-0.213,1.32-0.641,1.805
		S158.059,72.075,157.267,72.21z"/>
	<path fill="#1B181A" d="M174.138,78.226h-1.375v-7.133c0-0.636,0.021-1.575,0.063-2.82c-0.203,0.224-0.518,0.519-0.945,0.883
		l-1.148,0.945l-0.758-0.961l2.992-2.336h1.172V78.226z"/>
	<path fill="#1B181A" d="M186.615,75.664h-1.664v2.563h-1.375v-2.563h-5.282v-1.242l5.188-7.68h1.469v7.625h1.664V75.664z
		 M183.576,74.367v-2.781c0-0.917,0.033-2.042,0.102-3.375h-0.07c-0.188,0.531-0.422,1-0.703,1.406l-3.211,4.75H183.576z"/>
	<path fill="#1B181A" d="M200.143,78.226h-1.375v-7.133c0-0.636,0.021-1.575,0.063-2.82c-0.203,0.224-0.519,0.519-0.945,0.883
		l-1.148,0.945l-0.758-0.961l2.992-2.336h1.172V78.226z"/>
	<path fill="#1B181A" d="M205.885,78.242v-1.219c0.349,0.13,0.781,0.195,1.297,0.195c1.167,0,2.043-0.367,2.629-1.102
		s0.905-1.898,0.957-3.492h-0.094c-0.5,0.886-1.302,1.328-2.406,1.328c-1.011,0-1.804-0.308-2.379-0.922s-0.863-1.464-0.863-2.547
		c0-1.188,0.313-2.125,0.941-2.813s1.47-1.031,2.527-1.031c1.146,0,2.054,0.445,2.723,1.336s1.004,2.125,1.004,3.703
		c0,4.469-1.664,6.703-4.992,6.703C206.682,78.382,206.233,78.335,205.885,78.242z M206.4,70.484c0,0.755,0.179,1.336,0.535,1.742
		s0.866,0.609,1.527,0.609s1.216-0.212,1.664-0.637s0.672-0.905,0.672-1.441c0-0.786-0.208-1.469-0.625-2.047
		s-0.972-0.867-1.664-0.867c-0.667,0-1.185,0.227-1.555,0.68S206.4,69.629,206.4,70.484z"/>
	<path fill="#1B181A" d="M228.978,78.226h-7.117v-1.219l2.734-2.977c1.016-1.109,1.685-1.937,2.008-2.48s0.484-1.145,0.484-1.801
		c0-0.589-0.165-1.054-0.496-1.395s-0.777-0.512-1.34-0.512c-0.833,0-1.661,0.356-2.484,1.07l-0.797-0.93
		c1-0.896,2.099-1.344,3.297-1.344c1.011,0,1.808,0.276,2.391,0.828s0.875,1.294,0.875,2.227c0,0.62-0.153,1.255-0.461,1.906
		s-1.065,1.628-2.273,2.93l-2.195,2.336v0.063h5.375V78.226z"/>
	<path fill="#1B181A" d="M235.649,72.21v0.047c1.88,0.245,2.82,1.151,2.82,2.719c0,1.058-0.359,1.89-1.078,2.496
		s-1.758,0.91-3.117,0.91c-1.261,0-2.269-0.206-3.023-0.617v-1.328c0.958,0.5,1.956,0.75,2.992,0.75
		c1.844,0,2.766-0.753,2.766-2.258c0-1.344-0.992-2.016-2.977-2.016h-1.039v-1.18h1.039c0.833,0,1.479-0.198,1.938-0.594
		s0.688-0.919,0.688-1.57c0-0.531-0.177-0.952-0.531-1.262s-0.828-0.465-1.422-0.465c-0.927,0-1.823,0.315-2.688,0.945l-0.719-0.977
		c0.974-0.781,2.109-1.172,3.406-1.172c1.073,0,1.91,0.258,2.512,0.773s0.902,1.203,0.902,2.063c0,0.719-0.214,1.32-0.641,1.805
		S236.441,72.075,235.649,72.21z"/>
	<path fill="#1B181A" d="M255.35,78.226h-7.117v-1.219l2.734-2.977c1.016-1.109,1.685-1.937,2.008-2.48s0.484-1.145,0.484-1.801
		c0-0.589-0.165-1.054-0.496-1.395s-0.777-0.512-1.34-0.512c-0.833,0-1.661,0.356-2.484,1.07l-0.797-0.93
		c1-0.896,2.099-1.344,3.297-1.344c1.011,0,1.808,0.276,2.391,0.828s0.875,1.294,0.875,2.227c0,0.62-0.153,1.255-0.461,1.906
		s-1.065,1.628-2.273,2.93l-2.195,2.336v0.063h5.375V78.226z"/>
	<path fill="#1B181A" d="M262.568,72.179c1.609,0.833,2.414,1.856,2.414,3.07c0,0.942-0.328,1.7-0.984,2.273
		s-1.523,0.859-2.602,0.859c-1.125,0-2.003-0.27-2.633-0.809s-0.945-1.293-0.945-2.262c0-1.339,0.734-2.362,2.203-3.07
		c-1.224-0.761-1.836-1.722-1.836-2.883c0-0.839,0.304-1.504,0.91-1.996s1.374-0.738,2.301-0.738c0.958,0,1.734,0.247,2.328,0.742
		s0.891,1.164,0.891,2.008C264.615,70.573,263.933,71.507,262.568,72.179z M261.193,72.789c-1.323,0.63-1.984,1.477-1.984,2.539
		c0,1.25,0.719,1.875,2.156,1.875c0.708,0,1.257-0.171,1.645-0.512s0.582-0.816,0.582-1.426c0-0.469-0.164-0.884-0.492-1.246
		s-0.886-0.735-1.672-1.121L261.193,72.789z M261.412,71.601c1.208-0.536,1.813-1.261,1.813-2.172c0-0.526-0.164-0.927-0.492-1.203
		s-0.778-0.414-1.352-0.414c-0.552,0-0.991,0.138-1.316,0.414s-0.488,0.677-0.488,1.203c0,0.469,0.129,0.866,0.387,1.191
		S260.704,71.273,261.412,71.601z"/>
	<path fill="#1B181A" d="M278.825,72.21v0.047c1.88,0.245,2.82,1.151,2.82,2.719c0,1.058-0.359,1.89-1.078,2.496
		s-1.758,0.91-3.117,0.91c-1.261,0-2.269-0.206-3.023-0.617v-1.328c0.958,0.5,1.956,0.75,2.992,0.75
		c1.844,0,2.766-0.753,2.766-2.258c0-1.344-0.992-2.016-2.977-2.016h-1.039v-1.18h1.039c0.833,0,1.479-0.198,1.938-0.594
		s0.688-0.919,0.688-1.57c0-0.531-0.177-0.952-0.531-1.262s-0.828-0.465-1.422-0.465c-0.927,0-1.823,0.315-2.688,0.945l-0.719-0.977
		c0.974-0.781,2.109-1.172,3.406-1.172c1.073,0,1.91,0.258,2.512,0.773s0.902,1.203,0.902,2.063c0,0.719-0.214,1.32-0.641,1.805
		S279.617,72.075,278.825,72.21z"/>
	<path fill="#1B181A" d="M288.927,78.226h-1.375v-7.133c0-0.636,0.021-1.575,0.063-2.82c-0.203,0.224-0.519,0.519-0.945,0.883
		l-1.148,0.945l-0.758-0.961l2.992-2.336h1.172V78.226z"/>
	<path fill="#1B181A" d="M305.229,72.21v0.047c1.88,0.245,2.82,1.151,2.82,2.719c0,1.058-0.359,1.89-1.078,2.496
		s-1.758,0.91-3.117,0.91c-1.261,0-2.269-0.206-3.023-0.617v-1.328c0.958,0.5,1.956,0.75,2.992,0.75
		c1.844,0,2.766-0.753,2.766-2.258c0-1.344-0.992-2.016-2.977-2.016h-1.039v-1.18h1.039c0.833,0,1.479-0.198,1.938-0.594
		s0.688-0.919,0.688-1.57c0-0.531-0.177-0.952-0.531-1.262s-0.828-0.465-1.422-0.465c-0.927,0-1.823,0.315-2.688,0.945l-0.719-0.977
		c0.974-0.781,2.109-1.172,3.406-1.172c1.073,0,1.91,0.258,2.512,0.773s0.902,1.203,0.902,2.063c0,0.719-0.214,1.32-0.641,1.805
		S306.021,72.075,305.229,72.21z"/>
	<path fill="#1B181A" d="M318.206,75.664h-1.664v2.563h-1.375v-2.563h-5.281v-1.242l5.188-7.68h1.469v7.625h1.664V75.664z
		 M315.167,74.367v-2.781c0-0.917,0.034-2.042,0.102-3.375h-0.07c-0.188,0.531-0.422,1-0.703,1.406l-3.211,4.75H315.167z"/>
	<path fill="#1B181A" d="M331.603,72.21v0.047c1.88,0.245,2.82,1.151,2.82,2.719c0,1.058-0.359,1.89-1.078,2.496
		s-1.758,0.91-3.117,0.91c-1.261,0-2.269-0.206-3.023-0.617v-1.328c0.958,0.5,1.956,0.75,2.992,0.75
		c1.844,0,2.766-0.753,2.766-2.258c0-1.344-0.992-2.016-2.977-2.016h-1.039v-1.18h1.039c0.833,0,1.479-0.198,1.938-0.594
		s0.688-0.919,0.688-1.57c0-0.531-0.177-0.952-0.531-1.262s-0.828-0.465-1.422-0.465c-0.927,0-1.823,0.315-2.688,0.945l-0.719-0.977
		c0.974-0.781,2.109-1.172,3.406-1.172c1.073,0,1.91,0.258,2.512,0.773s0.902,1.203,0.902,2.063c0,0.719-0.214,1.32-0.641,1.805
		S332.395,72.075,331.603,72.21z"/>
	<path fill="#1B181A" d="M343.321,66.789V68c-0.37-0.125-0.802-0.188-1.297-0.188c-1.167,0-2.043,0.367-2.629,1.102
		s-0.905,1.898-0.957,3.492h0.094c0.495-0.886,1.294-1.328,2.398-1.328c1.016,0,1.812,0.31,2.387,0.93s0.863,1.466,0.863,2.539
		c0,1.188-0.313,2.124-0.941,2.809s-1.47,1.027-2.527,1.027c-1.136,0-2.04-0.438-2.715-1.316s-1.012-2.118-1.012-3.723
		c0-4.469,1.664-6.703,4.992-6.703C342.52,66.64,342.967,66.69,343.321,66.789z M342.806,74.546c0-0.755-0.179-1.336-0.535-1.742
		s-0.866-0.609-1.527-0.609s-1.216,0.211-1.664,0.633s-0.672,0.903-0.672,1.445c0,0.792,0.211,1.476,0.633,2.051
		s0.974,0.863,1.656,0.863c0.661,0,1.179-0.229,1.551-0.688S342.806,75.39,342.806,74.546z"/>
</g>
<g>
	<path fill="#1B181A" d="M14.117,75.077l-0.253-1.039H13.81c-0.351,0.441-0.711,0.748-1.08,0.919s-0.845,0.257-1.429,0.257
		c-0.743,0-1.325-0.196-1.747-0.588c-0.421-0.393-0.632-0.941-0.632-1.648c0-1.513,1.162-2.306,3.486-2.379l1.388-0.047v-0.473
		c0-1.075-0.556-1.613-1.668-1.613c-0.67,0-1.417,0.188-2.242,0.561L9.455,68.09c0.893-0.438,1.766-0.656,2.618-0.656
		c1.035,0,1.783,0.197,2.246,0.594s0.694,1.033,0.694,1.908v5.141H14.117z M13.782,71.405l-1.107,0.049
		c-0.893,0.036-1.527,0.176-1.9,0.42s-0.561,0.616-0.561,1.117c0,0.812,0.456,1.217,1.367,1.217c0.67,0,1.204-0.186,1.603-0.557
		s0.598-0.895,0.598-1.568V71.405z"/>
	<path fill="#1B181A" d="M23.64,67.741l-0.335,1.135c-0.561-0.205-1.071-0.307-1.531-0.307c-0.743,0-1.316,0.211-1.719,0.632
		s-0.605,1.031-0.605,1.829v4.047h-1.244v-7.506h1.012l0.15,1.373h0.055c0.346-0.542,0.718-0.93,1.114-1.162
		s0.884-0.348,1.463-0.348C22.537,67.434,23.083,67.536,23.64,67.741z"/>
	<path fill="#1B181A" d="M32.041,67.741l-0.335,1.135c-0.561-0.205-1.071-0.307-1.531-0.307c-0.743,0-1.316,0.211-1.719,0.632
		s-0.605,1.031-0.605,1.829v4.047h-1.244v-7.506h1.012l0.15,1.373h0.055c0.346-0.542,0.718-0.93,1.114-1.162
		s0.884-0.348,1.463-0.348C30.938,67.434,31.485,67.536,32.041,67.741z"/>
	<path fill="#1B181A" d="M39.321,75.077l-0.253-1.039h-0.055c-0.351,0.441-0.711,0.748-1.08,0.919s-0.845,0.257-1.429,0.257
		c-0.743,0-1.325-0.196-1.747-0.588c-0.421-0.393-0.632-0.941-0.632-1.648c0-1.513,1.162-2.306,3.486-2.379L39,70.551v-0.473
		c0-1.075-0.556-1.613-1.668-1.613c-0.67,0-1.417,0.188-2.242,0.561l-0.431-0.936c0.893-0.438,1.766-0.656,2.618-0.656
		c1.035,0,1.783,0.197,2.246,0.594s0.694,1.033,0.694,1.908v5.141H39.321z M38.986,71.405l-1.107,0.049
		c-0.893,0.036-1.527,0.176-1.9,0.42s-0.561,0.616-0.561,1.117c0,0.812,0.456,1.217,1.367,1.217c0.67,0,1.204-0.186,1.603-0.557
		s0.598-0.895,0.598-1.568V71.405z"/>
	<path fill="#1B181A" d="M42.165,67.571h1.285l1.791,4.471c0.374,0.934,0.577,1.595,0.608,1.982h0.041
		c0.105-0.511,0.31-1.176,0.615-1.996l1.634-4.457h1.292l-3.247,8.482c-0.305,0.793-0.661,1.389-1.066,1.788
		s-0.966,0.599-1.682,0.599c-0.392,0-0.775-0.039-1.148-0.117v-0.99c0.283,0.055,0.592,0.082,0.93,0.082
		c0.438,0,0.778-0.094,1.022-0.281c0.244-0.187,0.461-0.508,0.653-0.963l0.396-1.025L42.165,67.571z"/>
</g>
<g>
	<g>
		<path fill="#1B181A" d="M98.637,107.01c-0.895,0-1.572-0.379-2.033-1.135s-0.691-1.848-0.691-3.277
			c0-2.938,0.908-4.406,2.725-4.406c0.906,0,1.591,0.377,2.054,1.133s0.694,1.848,0.694,3.273
			C101.385,105.54,100.469,107.01,98.637,107.01z M98.637,106.102c0.574,0,0.996-0.275,1.266-0.824s0.404-1.441,0.404-2.68
			c0-1.23-0.135-2.121-0.404-2.67s-0.691-0.822-1.266-0.822c-0.566,0-0.981,0.271-1.245,0.816s-0.396,1.438-0.396,2.676
			c0,1.242,0.132,2.137,0.396,2.684S98.071,106.102,98.637,106.102z"/>
		<path fill="#1B181A" d="M125.751,106.893h-1.031v-5.35c0-0.477,0.016-1.182,0.047-2.115c-0.152,0.168-0.389,0.389-0.709,0.662
			l-0.861,0.709l-0.568-0.721l2.244-1.752h0.879V106.893z"/>
		<path fill="#1B181A" d="M153.832,106.893h-5.338v-0.914l2.051-2.232c0.762-0.832,1.264-1.453,1.506-1.861s0.363-0.857,0.363-1.35
			c0-0.441-0.124-0.791-0.372-1.047s-0.583-0.383-1.005-0.383c-0.625,0-1.246,0.268-1.863,0.803l-0.598-0.697
			c0.75-0.672,1.574-1.008,2.473-1.008c0.758,0,1.355,0.207,1.793,0.621s0.656,0.971,0.656,1.67c0,0.465-0.115,0.941-0.346,1.43
			s-0.799,1.221-1.705,2.197l-1.646,1.752v0.047h4.031V106.893z"/>
		<path fill="#1B181A" d="M177.869,102.381v0.035c1.41,0.184,2.115,0.863,2.115,2.039c0,0.793-0.27,1.416-0.809,1.871
			s-1.318,0.684-2.338,0.684c-0.945,0-1.701-0.154-2.268-0.463v-0.996c0.719,0.375,1.467,0.563,2.244,0.563
			c1.383,0,2.074-0.564,2.074-1.693c0-1.008-0.744-1.512-2.232-1.512h-0.779v-0.885h0.779c0.625,0,1.109-0.148,1.453-0.445
			s0.516-0.689,0.516-1.178c0-0.398-0.133-0.715-0.398-0.947s-0.621-0.348-1.066-0.348c-0.695,0-1.367,0.236-2.016,0.709
			l-0.539-0.732c0.73-0.586,1.582-0.879,2.555-0.879c0.805,0,1.433,0.193,1.884,0.58s0.677,0.902,0.677,1.547
			c0,0.539-0.16,0.99-0.48,1.354S178.462,102.28,177.869,102.381z"/>
		<path fill="#1B181A" d="M206.658,104.971h-1.248v1.922h-1.031v-1.922h-3.961v-0.932l3.891-5.76h1.102v5.719h1.248V104.971z
			 M204.379,103.999v-2.086c0-0.688,0.025-1.531,0.076-2.531h-0.053c-0.141,0.398-0.316,0.75-0.527,1.055l-2.408,3.563H204.379z"/>
		<path fill="#1B181A" d="M227.327,106.547v-1.008c0.563,0.375,1.266,0.563,2.109,0.563c1.313,0,1.969-0.613,1.969-1.84
			c0-1.148-0.672-1.723-2.016-1.723c-0.348,0-0.799,0.051-1.354,0.152l-0.527-0.334l0.322-4.031h4.043v0.973h-3.117l-0.229,2.455
			c0.418-0.078,0.826-0.117,1.225-0.117c0.82,0,1.483,0.223,1.989,0.67s0.759,1.061,0.759,1.838c0,0.914-0.27,1.619-0.809,2.117
			s-1.299,0.748-2.279,0.748C228.538,107.01,227.843,106.856,227.327,106.547z"/>
		<path fill="#1B181A" d="M258.231,98.315v0.908c-0.277-0.094-0.602-0.141-0.973-0.141c-0.875,0-1.532,0.275-1.972,0.826
			s-0.679,1.424-0.718,2.619h0.07c0.371-0.664,0.971-0.996,1.799-0.996c0.762,0,1.358,0.232,1.79,0.697s0.647,1.1,0.647,1.904
			c0,0.891-0.235,1.592-0.706,2.105s-1.103,0.771-1.896,0.771c-0.852,0-1.53-0.33-2.036-0.988s-0.759-1.588-0.759-2.791
			c0-3.352,1.248-5.027,3.744-5.027C257.63,98.204,257.966,98.241,258.231,98.315z M257.845,104.133
			c0-0.566-0.134-1.002-0.401-1.307s-0.649-0.457-1.146-0.457s-0.912,0.158-1.248,0.475s-0.504,0.678-0.504,1.084
			c0,0.594,0.158,1.105,0.475,1.537s0.73,0.648,1.242,0.648c0.496,0,0.884-0.172,1.163-0.516S257.845,104.766,257.845,104.133z"/>
		<path fill="#1B181A" d="M280.793,106.893l3.299-7.594h-4.418v-0.973h5.508v0.85l-3.252,7.717H280.793z"/>
		<path fill="#1B181A" d="M309.547,102.358c1.207,0.625,1.811,1.393,1.811,2.303c0,0.707-0.246,1.275-0.738,1.705
			s-1.143,0.645-1.951,0.645c-0.844,0-1.502-0.203-1.975-0.607s-0.709-0.969-0.709-1.695c0-1.004,0.551-1.771,1.652-2.303
			c-0.918-0.57-1.377-1.291-1.377-2.162c0-0.629,0.228-1.129,0.683-1.498s1.03-0.553,1.726-0.553c0.719,0,1.301,0.186,1.746,0.557
			s0.668,0.873,0.668,1.506C311.082,101.153,310.57,101.854,309.547,102.358z M308.516,102.815
			c-0.992,0.473-1.488,1.107-1.488,1.904c0,0.938,0.539,1.406,1.617,1.406c0.531,0,0.942-0.129,1.233-0.385s0.437-0.611,0.437-1.068
			c0-0.352-0.123-0.664-0.369-0.936s-0.664-0.551-1.254-0.84L308.516,102.815z M308.68,101.924c0.906-0.402,1.359-0.945,1.359-1.629
			c0-0.395-0.123-0.695-0.369-0.902s-0.584-0.311-1.014-0.311c-0.414,0-0.743,0.104-0.987,0.311s-0.366,0.508-0.366,0.902
			c0,0.352,0.097,0.648,0.29,0.893S308.148,101.678,308.68,101.924z"/>
		<path fill="#1B181A" d="M332.875,106.905v-0.914c0.262,0.098,0.586,0.146,0.973,0.146c0.875,0,1.532-0.275,1.972-0.826
			s0.679-1.424,0.718-2.619h-0.07c-0.375,0.664-0.977,0.996-1.805,0.996c-0.758,0-1.353-0.23-1.784-0.691s-0.647-1.098-0.647-1.91
			c0-0.891,0.235-1.594,0.706-2.109s1.103-0.773,1.896-0.773c0.859,0,1.54,0.334,2.042,1.002s0.753,1.594,0.753,2.777
			c0,3.352-1.248,5.027-3.744,5.027C333.473,107.01,333.137,106.975,332.875,106.905z M333.262,101.086
			c0,0.566,0.134,1.002,0.401,1.307s0.649,0.457,1.146,0.457s0.912-0.16,1.248-0.479s0.504-0.678,0.504-1.08
			c0-0.59-0.156-1.102-0.469-1.535s-0.729-0.65-1.248-0.65c-0.5,0-0.889,0.17-1.166,0.51S333.262,100.446,333.262,101.086z"/>
	</g>
</g>
<line fill="none" stroke="#1B181A" stroke-width="2" x1="53.766" y1="72.477" x2="79.508" y2="72.477"/>
<polygon fill="#1B181A" points="77.477,76.543 76.266,75.333 79.117,72.477 76.266,69.625 77.477,68.415 81.539,72.477 "/>
<g>
	<path fill="#231F20" d="M188.866,19h-1.375v-7.133c0-0.636,0.021-1.575,0.063-2.82c-0.203,0.224-0.519,0.519-0.945,0.883
		l-1.148,0.945l-0.758-0.961l2.992-2.336h1.172V19z"/>
	<path fill="#231F20" d="M192.755,19l4.398-10.125h-5.891V7.579h7.344v1.133L194.271,19H192.755z"/>
</g>
<line fill="none" stroke="#1B181A" stroke-width="3" x1="191.379" y1="24.25" x2="191.379" y2="49.25"/>
<polygon fill="#1B181A" points="185.281,46.199 187.098,44.383 191.379,48.665 195.66,44.383 197.477,46.199 191.379,52.297 "/>
</svg>
