<?xml version="1.0" encoding="iso-8859-1"?>
<!-- Generator: Adobe Illustrator 14.0.0, SVG Export Plug-In . SVG Version: 6.00 Build 43363)  -->
<!DOCTYPE svg PUBLIC "-//W3C//DTD SVG 1.1//EN" "http://www.w3.org/Graphics/SVG/1.1/DTD/svg11.dtd">
<svg version="1.1" id="Layer_1" xmlns="http://www.w3.org/2000/svg" xmlns:xlink="http://www.w3.org/1999/xlink" x="0px" y="0px"
	 width="401.5px" height="66.548px" viewBox="0 0 401.5 66.548" style="enable-background:new 0 0 401.5 66.548;"
	 xml:space="preserve">
<rect x="129.254" y="10.854" style="fill:#D8ECD1;stroke:#231F20;stroke-width:2;" width="26.25" height="26.249"/>
<rect x="155.504" y="10.854" style="fill:#D8ECD1;stroke:#231F20;stroke-width:2;" width="26.25" height="26.249"/>
<rect x="181.379" y="10.854" style="fill:#D8ECD1;stroke:#231F20;stroke-width:2;" width="26.25" height="26.249"/>
<rect x="207.629" y="10.854" style="fill:#D8ECD1;stroke:#231F20;stroke-width:2;" width="26.25" height="26.249"/>
<rect x="233.879" y="10.854" style="fill:#D8ECD1;stroke:#231F20;stroke-width:2;" width="26.25" height="26.249"/>
<rect x="260.129" y="10.854" style="fill:#D8ECD1;stroke:#231F20;stroke-width:2;" width="26.25" height="26.249"/>
<rect x="286.379" y="10.854" style="fill:#D8ECD1;stroke:#231F20;stroke-width:2;" width="26.25" height="26.249"/>
<rect x="312.629" y="10.854" style="fill:#D8ECD1;stroke:#231F20;stroke-width:2;" width="26.25" height="26.249"/>
<rect x="338.879" y="10.854" style="fill:#D8ECD1;stroke:#231F20;stroke-width:2;" width="26.25" height="26.249"/>
<g>
	<rect x="365.129" y="10.854" style="fill:#D8ECD1;stroke:#231F20;stroke-width:2;" width="26.25" height="26.249"/>
</g>
<g>
	<path style="fill:#231F20;" d="M141.333,29.882c-1.193,0-2.097-0.504-2.711-1.512c-0.615-1.008-0.922-2.465-0.922-4.371
		c0-3.917,1.211-5.875,3.633-5.875c1.208,0,2.121,0.504,2.738,1.512s0.926,2.462,0.926,4.363
		C144.997,27.921,143.775,29.882,141.333,29.882z M141.333,28.671c0.766,0,1.328-0.366,1.688-1.098s0.539-1.923,0.539-3.574
		c0-1.641-0.18-2.827-0.539-3.559s-0.922-1.098-1.688-1.098c-0.755,0-1.309,0.363-1.66,1.09s-0.527,1.915-0.527,3.566
		c0,1.656,0.176,2.849,0.527,3.578S140.578,28.671,141.333,28.671z"/>
	<path style="fill:#231F20;" d="M167.736,29.882c-1.193,0-2.097-0.504-2.711-1.512c-0.615-1.008-0.922-2.465-0.922-4.371
		c0-3.917,1.211-5.875,3.633-5.875c1.208,0,2.121,0.504,2.738,1.512s0.926,2.462,0.926,4.363
		C171.4,27.921,170.179,29.882,167.736,29.882z M167.736,28.671c0.766,0,1.328-0.366,1.688-1.098s0.539-1.923,0.539-3.574
		c0-1.641-0.18-2.827-0.539-3.559s-0.922-1.098-1.688-1.098c-0.755,0-1.309,0.363-1.66,1.09s-0.527,1.915-0.527,3.566
		c0,1.656,0.176,2.849,0.527,3.578S166.981,28.671,167.736,28.671z"/>
	<path style="fill:#231F20;" d="M194.139,29.882c-1.193,0-2.096-0.504-2.711-1.512s-0.922-2.465-0.922-4.371
		c0-3.917,1.211-5.875,3.633-5.875c1.208,0,2.121,0.504,2.738,1.512s0.926,2.462,0.926,4.363
		C197.803,27.921,196.582,29.882,194.139,29.882z M194.139,28.671c0.766,0,1.328-0.366,1.688-1.098s0.539-1.923,0.539-3.574
		c0-1.641-0.18-2.827-0.539-3.559s-0.922-1.098-1.688-1.098c-0.755,0-1.309,0.363-1.66,1.09s-0.527,1.915-0.527,3.566
		c0,1.656,0.176,2.849,0.527,3.578S193.384,28.671,194.139,28.671z"/>
	<path style="fill:#231F20;" d="M220.542,29.882c-1.193,0-2.096-0.504-2.711-1.512s-0.922-2.465-0.922-4.371
		c0-3.917,1.211-5.875,3.633-5.875c1.208,0,2.121,0.504,2.738,1.512s0.926,2.462,0.926,4.363
		C224.207,27.921,222.985,29.882,220.542,29.882z M220.542,28.671c0.766,0,1.328-0.366,1.688-1.098s0.539-1.923,0.539-3.574
		c0-1.641-0.18-2.827-0.539-3.559s-0.922-1.098-1.688-1.098c-0.755,0-1.309,0.363-1.66,1.09s-0.527,1.915-0.527,3.566
		c0,1.656,0.176,2.849,0.527,3.578S219.787,28.671,220.542,28.671z"/>
	<path style="fill:#231F20;" d="M246.945,29.882c-1.192,0-2.097-0.504-2.711-1.512c-0.615-1.008-0.922-2.465-0.922-4.371
		c0-3.917,1.211-5.875,3.633-5.875c1.208,0,2.121,0.504,2.738,1.512s0.926,2.462,0.926,4.363
		C250.609,27.921,249.388,29.882,246.945,29.882z M246.945,28.671c0.766,0,1.328-0.366,1.688-1.098s0.539-1.923,0.539-3.574
		c0-1.641-0.18-2.827-0.539-3.559s-0.922-1.098-1.688-1.098c-0.755,0-1.309,0.363-1.66,1.09s-0.527,1.915-0.527,3.566
		c0,1.656,0.176,2.849,0.527,3.578S246.19,28.671,246.945,28.671z"/>
	<path style="fill:#231F20;" d="M273.349,29.882c-1.192,0-2.097-0.504-2.711-1.512s-0.922-2.465-0.922-4.371
		c0-3.917,1.211-5.875,3.633-5.875c1.208,0,2.121,0.504,2.738,1.512s0.926,2.462,0.926,4.363
		C277.013,27.921,275.791,29.882,273.349,29.882z M273.349,28.671c0.766,0,1.328-0.366,1.688-1.098s0.539-1.923,0.539-3.574
		c0-1.641-0.18-2.827-0.539-3.559s-0.922-1.098-1.688-1.098c-0.755,0-1.309,0.363-1.66,1.09s-0.527,1.915-0.527,3.566
		c0,1.656,0.176,2.849,0.527,3.578S272.594,28.671,273.349,28.671z"/>
	<path style="fill:#231F20;" d="M299.752,29.882c-1.192,0-2.097-0.504-2.711-1.512s-0.922-2.465-0.922-4.371
		c0-3.917,1.211-5.875,3.633-5.875c1.208,0,2.121,0.504,2.738,1.512s0.926,2.462,0.926,4.363
		C303.416,27.921,302.194,29.882,299.752,29.882z M299.752,28.671c0.766,0,1.328-0.366,1.688-1.098s0.539-1.923,0.539-3.574
		c0-1.641-0.18-2.827-0.539-3.559s-0.922-1.098-1.688-1.098c-0.755,0-1.309,0.363-1.66,1.09s-0.527,1.915-0.527,3.566
		c0,1.656,0.176,2.849,0.527,3.578S298.997,28.671,299.752,28.671z"/>
	<path style="fill:#231F20;" d="M326.155,29.882c-1.192,0-2.097-0.504-2.711-1.512s-0.922-2.465-0.922-4.371
		c0-3.917,1.211-5.875,3.633-5.875c1.208,0,2.121,0.504,2.738,1.512s0.926,2.462,0.926,4.363
		C329.819,27.921,328.598,29.882,326.155,29.882z M326.155,28.671c0.766,0,1.328-0.366,1.688-1.098s0.539-1.923,0.539-3.574
		c0-1.641-0.18-2.827-0.539-3.559s-0.922-1.098-1.688-1.098c-0.755,0-1.309,0.363-1.66,1.09s-0.527,1.915-0.527,3.566
		c0,1.656,0.176,2.849,0.527,3.578S325.4,28.671,326.155,28.671z"/>
	<path style="fill:#231F20;" d="M352.558,29.882c-1.192,0-2.097-0.504-2.711-1.512s-0.922-2.465-0.922-4.371
		c0-3.917,1.211-5.875,3.633-5.875c1.208,0,2.121,0.504,2.738,1.512s0.926,2.462,0.926,4.363
		C356.222,27.921,355,29.882,352.558,29.882z M352.558,28.671c0.766,0,1.328-0.366,1.688-1.098s0.539-1.923,0.539-3.574
		c0-1.641-0.18-2.827-0.539-3.559s-0.922-1.098-1.688-1.098c-0.755,0-1.309,0.363-1.66,1.09s-0.527,1.915-0.527,3.566
		c0,1.656,0.176,2.849,0.527,3.578S351.803,28.671,352.558,28.671z"/>
	<path style="fill:#231F20;" d="M378.961,29.882c-1.192,0-2.097-0.504-2.711-1.512s-0.922-2.465-0.922-4.371
		c0-3.917,1.211-5.875,3.633-5.875c1.208,0,2.121,0.504,2.738,1.512s0.926,2.462,0.926,4.363
		C382.625,27.921,381.403,29.882,378.961,29.882z M378.961,28.671c0.766,0,1.328-0.366,1.688-1.098s0.539-1.923,0.539-3.574
		c0-1.641-0.18-2.827-0.539-3.559s-0.922-1.098-1.688-1.098c-0.755,0-1.309,0.363-1.66,1.09s-0.527,1.915-0.527,3.566
		c0,1.656,0.176,2.849,0.527,3.578S378.206,28.671,378.961,28.671z"/>
</g>
<g>
	<path style="fill:#231F20;" d="M31.563,28.475v-4.832c0-1.186-0.542-1.777-1.627-1.777c-1.399,0-2.099,0.906-2.099,2.721v3.889
		h-1.244v-7.506h1.005l0.185,1.012h0.068c0.469-0.766,1.235-1.148,2.297-1.148c1.773,0,2.659,0.914,2.659,2.742v4.9H31.563z"/>
	<path style="fill:#231F20;" d="M40.203,28.475l-0.185-1.004H39.95c-0.479,0.761-1.24,1.141-2.283,1.141
		c-1.782,0-2.673-0.913-2.673-2.74v-4.902h1.244v4.834c0,1.185,0.538,1.777,1.613,1.777c0.734,0,1.269-0.211,1.606-0.633
		s0.506-1.115,0.506-2.082v-3.896h1.244v7.506H40.203z"/>
	<path style="fill:#231F20;" d="M48.98,28.475v-4.832c0-0.666-0.061-1.129-0.181-1.389s-0.322-0.389-0.605-0.389
		c-0.396,0-0.685,0.188-0.865,0.566c-0.18,0.379-0.27,1.012-0.27,1.9v4.143h-1.101v-4.832c0-1.186-0.285-1.777-0.854-1.777
		c-0.383,0-0.656,0.181-0.82,0.543s-0.246,1.088-0.246,2.178v3.889h-1.107v-7.506h0.868l0.185,1.012h0.068
		c0.305-0.766,0.763-1.148,1.374-1.148c0.743,0,1.228,0.415,1.456,1.244h0.041c0.346-0.829,0.845-1.244,1.497-1.244
		c0.583,0,1.007,0.211,1.271,0.633s0.396,1.125,0.396,2.109v4.9H48.98z"/>
	<path style="fill:#231F20;" d="M53.027,27.525h-0.082l-0.253,0.949h-0.909V17.838h1.244v2.57c0,0.369-0.018,0.885-0.055,1.545
		h0.055c0.488-0.747,1.221-1.121,2.201-1.121c0.916,0,1.635,0.342,2.157,1.022s0.783,1.633,0.783,2.854
		c0,1.23-0.262,2.188-0.786,2.874s-1.242,1.028-2.153,1.028C54.285,28.611,53.551,28.25,53.027,27.525z M53.027,24.709
		c0,1.034,0.158,1.771,0.475,2.211s0.821,0.66,1.514,0.66c1.24,0,1.859-0.962,1.859-2.885c0-1.887-0.625-2.83-1.873-2.83
		c-0.707,0-1.212,0.214-1.518,0.643C53.18,22.936,53.027,23.67,53.027,24.709z"/>
	<path style="fill:#231F20;" d="M66.597,24.961h-5.291c0.037,1.709,0.82,2.564,2.352,2.564c0.889,0,1.732-0.174,2.529-0.52V28.1
		c-0.756,0.342-1.586,0.512-2.488,0.512c-1.117,0-2.01-0.34-2.68-1.021s-1.005-1.619-1.005-2.813c0-1.213,0.309-2.174,0.926-2.882
		s1.443-1.063,2.478-1.063c0.966,0,1.737,0.306,2.314,0.916c0.577,0.611,0.865,1.425,0.865,2.441V24.961z M61.333,23.949h3.917
		c0-1.39-0.62-2.084-1.859-2.084C62.137,21.865,61.452,22.56,61.333,23.949z"/>
	<path style="fill:#231F20;" d="M74.745,21.141l-0.335,1.135c-0.561-0.205-1.071-0.309-1.531-0.309
		c-0.743,0-1.316,0.211-1.719,0.633s-0.605,1.031-0.605,1.828v4.047h-1.244v-7.506h1.012l0.15,1.375h0.055
		c0.346-0.543,0.718-0.93,1.114-1.162s0.884-0.35,1.463-0.35C73.642,20.832,74.189,20.936,74.745,21.141z"/>
	<path style="fill:#231F20;" d="M77.295,28.141v-1.135c0.879,0.392,1.723,0.588,2.529,0.588c1.253,0,1.88-0.369,1.88-1.107
		c0-0.26-0.112-0.486-0.335-0.678s-0.738-0.433-1.545-0.725c-1.062-0.396-1.73-0.76-2.006-1.09s-0.414-0.721-0.414-1.172
		c0-0.62,0.254-1.107,0.762-1.46s1.211-0.53,2.109-0.53c0.902,0,1.743,0.169,2.522,0.506l-0.41,1.02
		c-0.83-0.328-1.556-0.492-2.181-0.492c-1.076,0-1.613,0.303-1.613,0.908c0,0.278,0.115,0.5,0.345,0.667s0.76,0.397,1.589,0.694
		c0.961,0.351,1.601,0.695,1.917,1.035s0.475,0.756,0.475,1.248c0,0.684-0.267,1.22-0.8,1.609s-1.288,0.584-2.263,0.584
		C78.728,28.611,77.874,28.455,77.295,28.141z"/>
</g>
<g>
	<path style="fill:#231F20;" d="M93.457,53.268l-1.445-0.113v-0.66h2.422v5.129l1.891,0.107v0.661h-4.716V57.73l1.848-0.107V53.268z
		 M93.951,50.066c0.379,0,0.569,0.204,0.569,0.612c0,0.208-0.057,0.362-0.169,0.465c-0.113,0.102-0.247,0.153-0.4,0.153
		c-0.383,0-0.575-0.206-0.575-0.618C93.376,50.271,93.568,50.066,93.951,50.066z"/>
	<path style="fill:#231F20;" d="M101.917,58.392v-3.798c0-0.931-0.426-1.396-1.278-1.396c-1.099,0-1.649,0.713-1.649,2.139v3.056
		h-0.978v-5.897h0.79l0.145,0.795H99c0.369-0.602,0.97-0.902,1.805-0.902c1.393,0,2.089,0.718,2.089,2.154v3.851H101.917z"/>
	<path style="fill:#231F20;" d="M108.571,57.602h-0.043c-0.405,0.599-0.981,0.897-1.729,0.897c-0.72,0-1.285-0.268-1.694-0.803
		c-0.41-0.535-0.615-1.283-0.615-2.243c0-0.967,0.206-1.719,0.618-2.258s0.976-0.809,1.692-0.809c0.738,0,1.314,0.286,1.729,0.859
		h0.064c-0.043-0.462-0.064-0.752-0.064-0.87v-2.342h0.978v8.357h-0.79L108.571,57.602z M108.528,55.674v-0.221
		c0-0.813-0.125-1.392-0.373-1.737c-0.249-0.346-0.646-0.519-1.19-0.519c-0.974,0-1.461,0.756-1.461,2.268
		c0,1.482,0.491,2.223,1.472,2.223c0.544,0,0.936-0.158,1.173-0.475C108.388,56.896,108.514,56.383,108.528,55.674z"/>
	<path style="fill:#231F20;" d="M116.241,55.631h-4.157c0.029,1.343,0.645,2.014,1.848,2.014c0.698,0,1.361-0.136,1.987-0.408v0.859
		c-0.594,0.27-1.246,0.403-1.955,0.403c-0.877,0-1.579-0.268-2.105-0.803s-0.79-1.272-0.79-2.21c0-0.953,0.243-1.708,0.728-2.265
		c0.485-0.557,1.134-0.835,1.947-0.835c0.759,0,1.365,0.24,1.818,0.72c0.453,0.479,0.68,1.119,0.68,1.917V55.631z M112.105,54.836
		h3.078c0-1.092-0.487-1.639-1.461-1.639C112.737,53.197,112.199,53.744,112.105,54.836z"/>
	<path style="fill:#231F20;" d="M119.695,55.367l-2.111-2.873h1.112l1.558,2.202l1.563-2.202h1.112l-2.122,2.873l2.218,3.024h-1.106
		l-1.665-2.342l-1.67,2.342h-1.112L119.695,55.367z"/>
	<path style="fill:#231F20;" d="M141.545,58.509c-0.895,0-1.572-0.378-2.033-1.134s-0.691-1.849-0.691-3.278
		c0-2.938,0.908-4.406,2.725-4.406c0.906,0,1.591,0.378,2.054,1.134s0.694,1.847,0.694,3.272
		C144.293,57.038,143.377,58.509,141.545,58.509z M141.545,57.601c0.574,0,0.996-0.274,1.266-0.823s0.404-1.442,0.404-2.681
		c0-1.23-0.135-2.12-0.404-2.669s-0.691-0.823-1.266-0.823c-0.566,0-0.981,0.272-1.245,0.817s-0.396,1.437-0.396,2.675
		c0,1.242,0.132,2.137,0.396,2.684S140.979,57.601,141.545,57.601z"/>
	<path style="fill:#231F20;" d="M168.803,58.392h-1.031v-5.35c0-0.477,0.016-1.182,0.047-2.115
		c-0.152,0.168-0.389,0.389-0.709,0.662l-0.861,0.709l-0.568-0.721l2.244-1.752h0.879V58.392z"/>
	<path style="fill:#231F20;" d="M197.027,58.392h-5.338v-0.914l2.051-2.232c0.762-0.832,1.264-1.452,1.506-1.86
		s0.363-0.858,0.363-1.351c0-0.441-0.124-0.79-0.372-1.046s-0.583-0.384-1.005-0.384c-0.625,0-1.246,0.268-1.863,0.803l-0.598-0.697
		c0.75-0.672,1.574-1.008,2.473-1.008c0.758,0,1.355,0.207,1.793,0.621s0.656,0.971,0.656,1.67c0,0.465-0.115,0.941-0.346,1.43
		s-0.799,1.221-1.705,2.197l-1.646,1.752v0.047h4.031V58.392z"/>
	<path style="fill:#231F20;" d="M221.232,53.88v0.035c1.41,0.184,2.115,0.863,2.115,2.039c0,0.793-0.27,1.417-0.809,1.872
		s-1.318,0.683-2.338,0.683c-0.945,0-1.701-0.154-2.268-0.463V57.05c0.719,0.375,1.467,0.563,2.244,0.563
		c1.383,0,2.074-0.564,2.074-1.693c0-1.008-0.744-1.512-2.232-1.512h-0.779v-0.885h0.779c0.625,0,1.109-0.148,1.453-0.445
		s0.516-0.689,0.516-1.178c0-0.398-0.133-0.714-0.398-0.946s-0.621-0.349-1.066-0.349c-0.695,0-1.367,0.236-2.016,0.709
		l-0.539-0.732c0.73-0.586,1.582-0.879,2.555-0.879c0.805,0,1.433,0.193,1.884,0.58s0.677,0.902,0.677,1.547
		c0,0.539-0.16,0.99-0.48,1.354S221.826,53.778,221.232,53.88z"/>
	<path style="fill:#231F20;" d="M250.166,56.47h-1.248v1.922h-1.031V56.47h-3.961v-0.932l3.891-5.76h1.102v5.719h1.248V56.47z
		 M247.887,55.497v-2.086c0-0.688,0.025-1.531,0.076-2.531h-0.053c-0.141,0.398-0.316,0.75-0.527,1.055l-2.408,3.563H247.887z"/>
	<path style="fill:#231F20;" d="M270.979,58.046v-1.008c0.563,0.375,1.266,0.563,2.109,0.563c1.313,0,1.969-0.613,1.969-1.84
		c0-1.148-0.672-1.723-2.016-1.723c-0.348,0-0.799,0.051-1.354,0.152l-0.527-0.334l0.322-4.031h4.043v0.973h-3.117l-0.229,2.455
		c0.418-0.078,0.826-0.117,1.225-0.117c0.82,0,1.483,0.224,1.989,0.671s0.759,1.06,0.759,1.837c0,0.914-0.27,1.62-0.809,2.118
		s-1.299,0.747-2.279,0.747C272.189,58.509,271.494,58.354,270.979,58.046z"/>
	<path style="fill:#231F20;" d="M302.027,49.813v0.908c-0.277-0.094-0.602-0.141-0.973-0.141c-0.875,0-1.532,0.275-1.972,0.826
		s-0.679,1.424-0.718,2.619h0.07c0.371-0.664,0.971-0.996,1.799-0.996c0.762,0,1.358,0.232,1.79,0.697s0.647,1.1,0.647,1.904
		c0,0.891-0.235,1.593-0.706,2.106s-1.103,0.771-1.896,0.771c-0.852,0-1.53-0.329-2.036-0.987s-0.759-1.589-0.759-2.792
		c0-3.352,1.248-5.027,3.744-5.027C301.426,49.702,301.762,49.739,302.027,49.813z M301.641,55.632c0-0.566-0.134-1.002-0.401-1.307
		s-0.649-0.457-1.146-0.457s-0.912,0.158-1.248,0.475s-0.504,0.678-0.504,1.084c0,0.594,0.158,1.106,0.475,1.538
		s0.73,0.647,1.242,0.647c0.496,0,0.884-0.172,1.163-0.516S301.641,56.265,301.641,55.632z"/>
	<path style="fill:#231F20;" d="M324.732,58.392l3.299-7.594h-4.418v-0.973h5.508v0.85l-3.252,7.717H324.732z"/>
	<path style="fill:#231F20;" d="M353.654,53.856c1.207,0.625,1.811,1.393,1.811,2.303c0,0.707-0.246,1.275-0.738,1.705
		s-1.143,0.645-1.951,0.645c-0.844,0-1.502-0.202-1.975-0.606s-0.709-0.97-0.709-1.696c0-1.004,0.551-1.771,1.652-2.303
		c-0.918-0.57-1.377-1.291-1.377-2.162c0-0.629,0.228-1.128,0.683-1.497s1.03-0.554,1.726-0.554c0.719,0,1.301,0.186,1.746,0.557
		s0.668,0.873,0.668,1.506C355.189,52.651,354.678,53.353,353.654,53.856z M352.623,54.313c-0.992,0.473-1.488,1.107-1.488,1.904
		c0,0.938,0.539,1.406,1.617,1.406c0.531,0,0.942-0.128,1.233-0.384s0.437-0.612,0.437-1.069c0-0.352-0.123-0.663-0.369-0.935
		s-0.664-0.552-1.254-0.841L352.623,54.313z M352.787,53.423c0.906-0.402,1.359-0.945,1.359-1.629c0-0.395-0.123-0.695-0.369-0.902
		s-0.584-0.311-1.014-0.311c-0.414,0-0.743,0.104-0.987,0.311s-0.366,0.508-0.366,0.902c0,0.352,0.097,0.649,0.29,0.894
		S352.256,53.177,352.787,53.423z"/>
	<path style="fill:#231F20;" d="M377.127,58.403v-0.914c0.262,0.098,0.586,0.146,0.973,0.146c0.875,0,1.532-0.275,1.972-0.826
		s0.679-1.424,0.718-2.619h-0.07c-0.375,0.664-0.977,0.996-1.805,0.996c-0.758,0-1.353-0.23-1.784-0.691s-0.647-1.098-0.647-1.91
		c0-0.891,0.235-1.594,0.706-2.109s1.103-0.773,1.896-0.773c0.859,0,1.54,0.334,2.042,1.002s0.753,1.594,0.753,2.777
		c0,3.352-1.248,5.027-3.744,5.027C377.725,58.509,377.389,58.474,377.127,58.403z M377.514,52.585c0,0.566,0.134,1.002,0.401,1.307
		s0.649,0.457,1.146,0.457s0.912-0.159,1.248-0.478s0.504-0.679,0.504-1.081c0-0.59-0.156-1.102-0.469-1.535s-0.729-0.65-1.248-0.65
		c-0.5,0-0.889,0.17-1.166,0.51S377.514,51.944,377.514,52.585z"/>
</g>
<g>
	<g>
		<line style="fill:none;stroke:#231F20;stroke-width:2;" x1="89.275" y1="25.126" x2="119" y2="25.126"/>
		<polygon style="fill:#231F20;" points="116.967,29.19 115.756,27.98 118.609,25.126 115.756,22.272 116.967,21.062 
			121.031,25.126 		"/>
	</g>
</g>
</svg>
