<?xml version="1.0" encoding="iso-8859-1"?>
<!-- Generator: Adobe Illustrator 14.0.0, SVG Export Plug-In . SVG Version: 6.00 Build 43363)  -->
<!DOCTYPE svg PUBLIC "-//W3C//DTD SVG 1.1//EN" "http://www.w3.org/Graphics/SVG/1.1/DTD/svg11.dtd">
<svg version="1.1" id="Layer_1" xmlns="http://www.w3.org/2000/svg" xmlns:xlink="http://www.w3.org/1999/xlink" x="0px" y="0px"
	 width="379px" height="82.048px" viewBox="0 0 379 82.048" style="enable-background:new 0 0 379 82.048;" xml:space="preserve">
<rect x="106.754" y="26.354" style="fill:#D8ECD1;stroke:#231F20;stroke-width:2;" width="26.25" height="26.249"/>
<rect x="133.004" y="26.354" style="fill:#D8ECD1;stroke:#231F20;stroke-width:2;" width="26.25" height="26.249"/>
<rect x="158.879" y="26.354" style="fill:#D8ECD1;stroke:#231F20;stroke-width:2;" width="26.25" height="26.249"/>
<rect x="185.129" y="26.354" style="fill:#D8ECD1;stroke:#231F20;stroke-width:2;" width="26.25" height="26.249"/>
<rect x="211.379" y="26.354" style="fill:#D8ECD1;stroke:#231F20;stroke-width:2;" width="26.25" height="26.249"/>
<rect x="237.629" y="26.354" style="fill:#D8ECD1;stroke:#231F20;stroke-width:2;" width="26.25" height="26.249"/>
<rect x="263.879" y="26.354" style="fill:#D8ECD1;stroke:#231F20;stroke-width:2;" width="26.25" height="26.249"/>
<rect x="290.129" y="26.354" style="fill:#D8ECD1;stroke:#231F20;stroke-width:2;" width="26.25" height="26.249"/>
<rect x="316.379" y="26.354" style="fill:#D8ECD1;stroke:#231F20;stroke-width:2;" width="26.25" height="26.249"/>
<g>
	<rect x="342.629" y="26.354" style="fill:#D8ECD1;stroke:#231F20;stroke-width:2;" width="26.25" height="26.249"/>
</g>
<g>
	<path style="fill:#231F20;" d="M118.833,45.382c-1.193,0-2.097-0.504-2.711-1.512c-0.615-1.008-0.922-2.465-0.922-4.371
		c0-3.917,1.211-5.875,3.633-5.875c1.208,0,2.121,0.504,2.738,1.512s0.926,2.462,0.926,4.363
		C122.497,43.421,121.275,45.382,118.833,45.382z M118.833,44.171c0.766,0,1.328-0.366,1.688-1.098s0.539-1.923,0.539-3.574
		c0-1.641-0.18-2.827-0.539-3.559s-0.922-1.098-1.688-1.098c-0.755,0-1.309,0.363-1.66,1.09s-0.527,1.915-0.527,3.566
		c0,1.656,0.176,2.849,0.527,3.578S118.078,44.171,118.833,44.171z"/>
	<path style="fill:#231F20;" d="M146.377,45.226h-1.375v-7.133c0-0.636,0.021-1.575,0.063-2.82
		c-0.203,0.224-0.519,0.519-0.945,0.883l-1.148,0.945l-0.758-0.961l2.992-2.336h1.172V45.226z"/>
	<path style="fill:#231F20;" d="M175.209,45.226h-7.117v-1.219l2.734-2.977c1.016-1.109,1.685-1.937,2.008-2.48
		s0.484-1.145,0.484-1.801c0-0.589-0.166-1.054-0.496-1.395s-0.777-0.512-1.34-0.512c-0.833,0-1.662,0.356-2.484,1.07l-0.797-0.93
		c1-0.896,2.099-1.344,3.297-1.344c1.01,0,1.807,0.276,2.391,0.828s0.875,1.294,0.875,2.227c0,0.62-0.154,1.255-0.461,1.906
		s-1.065,1.628-2.273,2.93l-2.195,2.336v0.063h5.375V45.226z"/>
	<path style="fill:#231F20;" d="M198.683,39.21v0.047c1.88,0.245,2.82,1.151,2.82,2.719c0,1.058-0.359,1.89-1.078,2.496
		s-1.758,0.91-3.117,0.91c-1.26,0-2.268-0.206-3.023-0.617v-1.328c0.958,0.5,1.956,0.75,2.992,0.75c1.844,0,2.766-0.753,2.766-2.258
		c0-1.344-0.992-2.016-2.977-2.016h-1.039v-1.18h1.039c0.833,0,1.479-0.198,1.938-0.594s0.688-0.919,0.688-1.57
		c0-0.531-0.177-0.952-0.531-1.262s-0.828-0.465-1.422-0.465c-0.927,0-1.823,0.315-2.688,0.945l-0.719-0.977
		c0.974-0.781,2.109-1.172,3.406-1.172c1.073,0,1.91,0.258,2.512,0.773s0.902,1.203,0.902,2.063c0,0.719-0.213,1.32-0.641,1.805
		S199.475,39.074,198.683,39.21z"/>
	<path style="fill:#231F20;" d="M220.786,45.226h-1.375v-7.133c0-0.636,0.021-1.575,0.063-2.82
		c-0.203,0.224-0.519,0.519-0.945,0.883l-1.148,0.945l-0.758-0.961l2.992-2.336h1.172V45.226z"/>
	<path style="fill:#231F20;" d="M227.075,45.226l4.398-10.125h-5.891v-1.297h7.344v1.133l-4.336,10.289H227.075z"/>
	<path style="fill:#231F20;" d="M246.612,44.765v-1.344c0.75,0.5,1.688,0.75,2.813,0.75c1.75,0,2.625-0.817,2.625-2.453
		c0-1.531-0.896-2.297-2.688-2.297c-0.464,0-1.065,0.067-1.805,0.203l-0.703-0.445l0.43-5.375h5.391v1.297h-4.156l-0.305,3.273
		c0.558-0.104,1.102-0.156,1.633-0.156c1.094,0,1.978,0.298,2.652,0.895s1.012,1.413,1.012,2.449c0,1.219-0.359,2.16-1.078,2.824
		s-1.731,0.996-3.039,0.996C248.227,45.382,247.3,45.176,246.612,44.765z"/>
	<path style="fill:#231F20;" d="M279.211,33.788v1.211c-0.37-0.125-0.802-0.188-1.297-0.188c-1.167,0-2.043,0.367-2.629,1.102
		s-0.905,1.898-0.957,3.492h0.094c0.495-0.886,1.294-1.328,2.398-1.328c1.016,0,1.812,0.31,2.387,0.93s0.863,1.466,0.863,2.539
		c0,1.188-0.313,2.124-0.941,2.809s-1.47,1.027-2.527,1.027c-1.136,0-2.04-0.438-2.715-1.316s-1.012-2.118-1.012-3.723
		c0-4.469,1.664-6.703,4.992-6.703C278.409,33.64,278.856,33.689,279.211,33.788z M278.695,41.546c0-0.755-0.179-1.336-0.535-1.742
		s-0.866-0.609-1.527-0.609s-1.216,0.211-1.664,0.633s-0.672,0.903-0.672,1.445c0,0.792,0.211,1.476,0.633,2.051
		s0.974,0.863,1.656,0.863c0.661,0,1.179-0.229,1.551-0.688S278.695,42.39,278.695,41.546z"/>
	<path style="fill:#231F20;" d="M300.685,45.226l4.398-10.125h-5.891v-1.297h7.344v1.133L302.2,45.226H300.685z"/>
	<path style="fill:#231F20;" d="M330.447,39.179c1.609,0.833,2.414,1.856,2.414,3.07c0,0.942-0.328,1.7-0.984,2.273
		s-1.523,0.859-2.602,0.859c-1.125,0-2.003-0.27-2.633-0.809s-0.945-1.293-0.945-2.262c0-1.339,0.734-2.362,2.203-3.07
		c-1.224-0.761-1.836-1.722-1.836-2.883c0-0.839,0.304-1.504,0.91-1.996s1.374-0.738,2.301-0.738c0.958,0,1.734,0.247,2.328,0.742
		s0.891,1.164,0.891,2.008C332.494,37.572,331.812,38.507,330.447,39.179z M329.072,39.788c-1.323,0.63-1.984,1.477-1.984,2.539
		c0,1.25,0.719,1.875,2.156,1.875c0.708,0,1.257-0.171,1.645-0.512s0.582-0.816,0.582-1.426c0-0.469-0.164-0.884-0.492-1.246
		s-0.886-0.735-1.672-1.121L329.072,39.788z M329.291,38.601c1.208-0.536,1.813-1.261,1.813-2.172c0-0.526-0.164-0.927-0.492-1.203
		s-0.778-0.414-1.352-0.414c-0.552,0-0.991,0.138-1.316,0.414s-0.488,0.677-0.488,1.203c0,0.469,0.129,0.866,0.387,1.191
		S328.583,38.272,329.291,38.601z"/>
	<path style="fill:#231F20;" d="M352.944,45.241v-1.219c0.349,0.13,0.781,0.195,1.297,0.195c1.167,0,2.043-0.367,2.629-1.102
		s0.905-1.898,0.957-3.492h-0.094c-0.5,0.886-1.302,1.328-2.406,1.328c-1.011,0-1.804-0.308-2.379-0.922s-0.863-1.464-0.863-2.547
		c0-1.188,0.313-2.125,0.941-2.813s1.47-1.031,2.527-1.031c1.146,0,2.054,0.445,2.723,1.336s1.004,2.125,1.004,3.703
		c0,4.469-1.664,6.703-4.992,6.703C353.741,45.382,353.293,45.335,352.944,45.241z M353.46,37.483c0,0.755,0.179,1.336,0.535,1.742
		s0.866,0.609,1.527,0.609s1.216-0.212,1.664-0.637s0.672-0.905,0.672-1.441c0-0.786-0.208-1.469-0.625-2.047
		s-0.972-0.867-1.664-0.867c-0.667,0-1.185,0.227-1.555,0.68S353.46,36.629,353.46,37.483z"/>
</g>
<g>
	<path style="fill:#231F20;" d="M27.117,16.975l-0.253-1.039H26.81c-0.351,0.442-0.711,0.749-1.08,0.919s-0.845,0.256-1.429,0.256
		c-0.743,0-1.325-0.196-1.747-0.588s-0.632-0.941-0.632-1.647c0-1.513,1.162-2.306,3.486-2.379l1.388-0.048v-0.472
		c0-1.076-0.556-1.613-1.668-1.613c-0.67,0-1.417,0.187-2.242,0.561l-0.431-0.937c0.893-0.438,1.766-0.656,2.618-0.656
		c1.035,0,1.783,0.198,2.246,0.595s0.694,1.032,0.694,1.907v5.141H27.117z M26.782,13.304l-1.107,0.048
		c-0.893,0.037-1.527,0.177-1.9,0.42s-0.561,0.616-0.561,1.118c0,0.811,0.456,1.217,1.367,1.217c0.67,0,1.204-0.186,1.603-0.557
		s0.598-0.895,0.598-1.569V13.304z"/>
	<path style="fill:#231F20;" d="M36.64,9.64l-0.335,1.135c-0.561-0.205-1.071-0.308-1.531-0.308c-0.743,0-1.316,0.211-1.719,0.632
		s-0.605,1.031-0.605,1.829v4.047h-1.244V9.469h1.012l0.15,1.374h0.055c0.346-0.542,0.718-0.93,1.114-1.162s0.884-0.349,1.463-0.349
		C35.537,9.333,36.083,9.435,36.64,9.64z"/>
	<path style="fill:#231F20;" d="M45.041,9.64l-0.335,1.135c-0.561-0.205-1.071-0.308-1.531-0.308c-0.743,0-1.316,0.211-1.719,0.632
		s-0.605,1.031-0.605,1.829v4.047h-1.244V9.469h1.012l0.15,1.374h0.055c0.346-0.542,0.718-0.93,1.114-1.162s0.884-0.349,1.463-0.349
		C43.938,9.333,44.485,9.435,45.041,9.64z"/>
	<path style="fill:#231F20;" d="M52.321,16.975l-0.253-1.039h-0.055c-0.351,0.442-0.711,0.749-1.08,0.919s-0.845,0.256-1.429,0.256
		c-0.743,0-1.325-0.196-1.747-0.588s-0.632-0.941-0.632-1.647c0-1.513,1.162-2.306,3.486-2.379L52,12.45v-0.472
		c0-1.076-0.556-1.613-1.668-1.613c-0.67,0-1.417,0.187-2.242,0.561l-0.431-0.937c0.893-0.438,1.766-0.656,2.618-0.656
		c1.035,0,1.783,0.198,2.246,0.595s0.694,1.032,0.694,1.907v5.141H52.321z M51.986,13.304l-1.107,0.048
		c-0.893,0.037-1.527,0.177-1.9,0.42s-0.561,0.616-0.561,1.118c0,0.811,0.456,1.217,1.367,1.217c0.67,0,1.204-0.186,1.603-0.557
		s0.598-0.895,0.598-1.569V13.304z"/>
	<path style="fill:#231F20;" d="M55.165,9.469h1.285l1.791,4.471c0.374,0.934,0.577,1.595,0.608,1.982h0.041
		c0.105-0.51,0.31-1.176,0.615-1.996l1.634-4.457h1.292l-3.247,8.483c-0.305,0.793-0.661,1.389-1.066,1.788
		s-0.966,0.598-1.682,0.598c-0.392,0-0.775-0.039-1.148-0.116v-0.991c0.283,0.055,0.592,0.082,0.93,0.082
		c0.438,0,0.778-0.093,1.022-0.28s0.461-0.508,0.653-0.964l0.396-1.025L55.165,9.469z"/>
	<path style="fill:#231F20;" d="M68.188,16.975h-1.203v-6.241c0-0.556,0.018-1.378,0.055-2.468
		c-0.178,0.196-0.454,0.454-0.827,0.772l-1.005,0.827l-0.663-0.841l2.618-2.044h1.025V16.975z"/>
</g>
<g>
	<path style="fill:#231F20;" d="M118.637,74.009c-0.895,0-1.572-0.378-2.033-1.134s-0.691-1.849-0.691-3.278
		c0-2.938,0.908-4.406,2.725-4.406c0.906,0,1.591,0.378,2.054,1.134s0.694,1.847,0.694,3.272
		C121.385,72.538,120.469,74.009,118.637,74.009z M118.637,73.101c0.574,0,0.996-0.274,1.266-0.823s0.404-1.442,0.404-2.681
		c0-1.23-0.135-2.12-0.404-2.669s-0.691-0.823-1.266-0.823c-0.566,0-0.981,0.272-1.245,0.817s-0.396,1.437-0.396,2.675
		c0,1.242,0.132,2.137,0.396,2.684S118.071,73.101,118.637,73.101z"/>
	<path style="fill:#231F20;" d="M145.895,73.892h-1.031v-5.35c0-0.477,0.016-1.182,0.047-2.115
		c-0.152,0.168-0.389,0.389-0.709,0.662l-0.861,0.709l-0.568-0.721l2.244-1.752h0.879V73.892z"/>
	<path style="fill:#231F20;" d="M174.12,73.892h-5.338v-0.914l2.051-2.232c0.762-0.832,1.264-1.452,1.506-1.86
		s0.363-0.858,0.363-1.351c0-0.441-0.124-0.79-0.372-1.046s-0.583-0.384-1.005-0.384c-0.625,0-1.246,0.268-1.863,0.803l-0.598-0.697
		c0.75-0.672,1.574-1.008,2.473-1.008c0.758,0,1.355,0.207,1.793,0.621s0.656,0.971,0.656,1.67c0,0.465-0.115,0.941-0.346,1.43
		s-0.799,1.221-1.705,2.197l-1.646,1.752v0.047h4.031V73.892z"/>
	<path style="fill:#231F20;" d="M198.325,69.38v0.035c1.41,0.184,2.115,0.863,2.115,2.039c0,0.793-0.27,1.417-0.809,1.872
		s-1.318,0.683-2.338,0.683c-0.945,0-1.701-0.154-2.268-0.463V72.55c0.719,0.375,1.467,0.563,2.244,0.563
		c1.383,0,2.074-0.564,2.074-1.693c0-1.008-0.744-1.512-2.232-1.512h-0.779v-0.885h0.779c0.625,0,1.109-0.148,1.453-0.445
		s0.516-0.689,0.516-1.178c0-0.398-0.133-0.714-0.398-0.946s-0.621-0.349-1.066-0.349c-0.695,0-1.367,0.236-2.016,0.709
		l-0.539-0.732c0.73-0.586,1.582-0.879,2.555-0.879c0.805,0,1.433,0.193,1.884,0.58s0.677,0.902,0.677,1.547
		c0,0.539-0.16,0.99-0.48,1.354S198.918,69.278,198.325,69.38z"/>
	<path style="fill:#231F20;" d="M227.258,71.97h-1.248v1.922h-1.031V71.97h-3.961v-0.932l3.891-5.76h1.102v5.719h1.248V71.97z
		 M224.979,70.997v-2.086c0-0.688,0.025-1.531,0.076-2.531h-0.053c-0.141,0.398-0.316,0.75-0.527,1.055l-2.408,3.563H224.979z"/>
	<path style="fill:#231F20;" d="M248.07,73.546v-1.008c0.563,0.375,1.266,0.563,2.109,0.563c1.313,0,1.969-0.613,1.969-1.84
		c0-1.148-0.672-1.723-2.016-1.723c-0.348,0-0.799,0.051-1.354,0.152l-0.527-0.334l0.322-4.031h4.043v0.973H249.5l-0.229,2.455
		c0.418-0.078,0.826-0.117,1.225-0.117c0.82,0,1.484,0.224,1.99,0.671s0.758,1.06,0.758,1.837c0,0.914-0.27,1.62-0.809,2.118
		s-1.299,0.747-2.279,0.747C249.281,74.009,248.586,73.854,248.07,73.546z"/>
	<path style="fill:#231F20;" d="M279.119,65.313v0.908c-0.277-0.094-0.602-0.141-0.973-0.141c-0.875,0-1.531,0.275-1.971,0.826
		s-0.68,1.424-0.719,2.619h0.07c0.371-0.664,0.971-0.996,1.799-0.996c0.762,0,1.359,0.232,1.791,0.697s0.646,1.1,0.646,1.904
		c0,0.891-0.234,1.593-0.705,2.106s-1.104,0.771-1.896,0.771c-0.852,0-1.529-0.329-2.035-0.987s-0.76-1.589-0.76-2.792
		c0-3.352,1.248-5.027,3.744-5.027C278.518,65.202,278.854,65.239,279.119,65.313z M278.732,71.132c0-0.566-0.133-1.002-0.4-1.307
		s-0.65-0.457-1.146-0.457s-0.912,0.158-1.248,0.475s-0.504,0.678-0.504,1.084c0,0.594,0.158,1.106,0.475,1.538
		s0.73,0.647,1.242,0.647c0.496,0,0.885-0.172,1.164-0.516S278.732,71.765,278.732,71.132z"/>
	<path style="fill:#231F20;" d="M301.824,73.892l3.299-7.594h-4.418v-0.973h5.508v0.85l-3.252,7.717H301.824z"/>
	<path style="fill:#231F20;" d="M330.746,69.356c1.207,0.625,1.811,1.393,1.811,2.303c0,0.707-0.246,1.275-0.738,1.705
		s-1.143,0.645-1.951,0.645c-0.844,0-1.502-0.202-1.975-0.606s-0.709-0.97-0.709-1.696c0-1.004,0.551-1.771,1.652-2.303
		c-0.918-0.57-1.377-1.291-1.377-2.162c0-0.629,0.228-1.128,0.683-1.497s1.03-0.554,1.726-0.554c0.719,0,1.301,0.186,1.746,0.557
		s0.668,0.873,0.668,1.506C332.281,68.151,331.77,68.853,330.746,69.356z M329.715,69.813c-0.992,0.473-1.488,1.107-1.488,1.904
		c0,0.938,0.539,1.406,1.617,1.406c0.531,0,0.942-0.128,1.233-0.384s0.437-0.612,0.437-1.069c0-0.352-0.123-0.663-0.369-0.935
		s-0.664-0.552-1.254-0.841L329.715,69.813z M329.879,68.923c0.906-0.402,1.359-0.945,1.359-1.629c0-0.395-0.123-0.695-0.369-0.902
		s-0.584-0.311-1.014-0.311c-0.414,0-0.743,0.104-0.987,0.311s-0.366,0.508-0.366,0.902c0,0.352,0.097,0.649,0.29,0.894
		S329.348,68.677,329.879,68.923z"/>
	<path style="fill:#231F20;" d="M354.219,73.903v-0.914c0.262,0.098,0.586,0.146,0.973,0.146c0.875,0,1.532-0.275,1.972-0.826
		s0.679-1.424,0.718-2.619h-0.07c-0.375,0.664-0.977,0.996-1.805,0.996c-0.758,0-1.353-0.23-1.784-0.691s-0.647-1.098-0.647-1.91
		c0-0.891,0.235-1.594,0.706-2.109s1.103-0.773,1.896-0.773c0.859,0,1.54,0.334,2.042,1.002s0.753,1.594,0.753,2.777
		c0,3.352-1.248,5.027-3.744,5.027C354.816,74.009,354.48,73.974,354.219,73.903z M354.605,68.085c0,0.566,0.134,1.002,0.401,1.307
		s0.649,0.457,1.146,0.457s0.912-0.159,1.248-0.478s0.504-0.679,0.504-1.081c0-0.59-0.156-1.102-0.469-1.535s-0.729-0.65-1.248-0.65
		c-0.5,0-0.889,0.17-1.166,0.51S354.605,67.444,354.605,68.085z"/>
</g>
<g>
	<g>
		<line style="fill:none;stroke:#231F20;stroke-width:2;" x1="73.767" y1="15.195" x2="99.509" y2="30.058"/>
		<polygon style="fill:#231F20;" points="95.716,32.561 95.272,30.908 99.17,29.862 98.126,25.964 99.78,25.521 101.268,31.073 		
			"/>
	</g>
</g>
<g>
	<path style="fill:#231F20;" d="M27.117,67.975l-0.253-1.039H26.81c-0.351,0.442-0.711,0.749-1.08,0.92s-0.845,0.256-1.429,0.256
		c-0.743,0-1.325-0.195-1.747-0.588c-0.421-0.392-0.632-0.94-0.632-1.646c0-1.514,1.162-2.307,3.486-2.379l1.388-0.049v-0.471
		c0-1.076-0.556-1.613-1.668-1.613c-0.67,0-1.417,0.187-2.242,0.561l-0.431-0.938c0.893-0.438,1.766-0.656,2.618-0.656
		c1.035,0,1.783,0.199,2.246,0.596s0.694,1.031,0.694,1.906v5.141H27.117z M26.782,64.305l-1.107,0.047
		c-0.893,0.037-1.527,0.178-1.9,0.421s-0.561,0.616-0.561,1.118c0,0.811,0.456,1.217,1.367,1.217c0.67,0,1.204-0.186,1.603-0.558
		s0.598-0.895,0.598-1.569V64.305z"/>
	<path style="fill:#231F20;" d="M36.64,60.641l-0.335,1.135c-0.561-0.205-1.071-0.309-1.531-0.309c-0.743,0-1.316,0.211-1.719,0.633
		s-0.605,1.031-0.605,1.828v4.047h-1.244v-7.506h1.012l0.15,1.375h0.055c0.346-0.543,0.718-0.93,1.114-1.162s0.884-0.35,1.463-0.35
		C35.537,60.332,36.083,60.436,36.64,60.641z"/>
	<path style="fill:#231F20;" d="M45.041,60.641l-0.335,1.135c-0.561-0.205-1.071-0.309-1.531-0.309
		c-0.743,0-1.316,0.211-1.719,0.633s-0.605,1.031-0.605,1.828v4.047h-1.244v-7.506h1.012l0.15,1.375h0.055
		c0.346-0.543,0.718-0.93,1.114-1.162s0.884-0.35,1.463-0.35C43.938,60.332,44.485,60.436,45.041,60.641z"/>
	<path style="fill:#231F20;" d="M52.321,67.975l-0.253-1.039h-0.055c-0.351,0.442-0.711,0.749-1.08,0.92s-0.845,0.256-1.429,0.256
		c-0.743,0-1.325-0.195-1.747-0.588c-0.421-0.392-0.632-0.94-0.632-1.646c0-1.514,1.162-2.307,3.486-2.379L52,63.449v-0.471
		c0-1.076-0.556-1.613-1.668-1.613c-0.67,0-1.417,0.187-2.242,0.561l-0.431-0.938c0.893-0.438,1.766-0.656,2.618-0.656
		c1.035,0,1.783,0.199,2.246,0.596s0.694,1.031,0.694,1.906v5.141H52.321z M51.986,64.305l-1.107,0.047
		c-0.893,0.037-1.527,0.178-1.9,0.421s-0.561,0.616-0.561,1.118c0,0.811,0.456,1.217,1.367,1.217c0.67,0,1.204-0.186,1.603-0.558
		s0.598-0.895,0.598-1.569V64.305z"/>
	<path style="fill:#231F20;" d="M55.165,60.469h1.285l1.791,4.471c0.374,0.935,0.577,1.596,0.608,1.982h0.041
		c0.105-0.51,0.31-1.176,0.615-1.996l1.634-4.457h1.292l-3.247,8.484c-0.305,0.793-0.661,1.389-1.066,1.787
		s-0.966,0.598-1.682,0.598c-0.392,0-0.775-0.038-1.148-0.115V70.23c0.283,0.055,0.592,0.082,0.93,0.082
		c0.438,0,0.778-0.093,1.022-0.279c0.244-0.188,0.461-0.509,0.653-0.965l0.396-1.025L55.165,60.469z"/>
	<path style="fill:#231F20;" d="M70.313,67.975h-6.228v-1.066l2.393-2.604c0.889-0.971,1.474-1.695,1.757-2.171
		s0.424-1.001,0.424-1.575c0-0.516-0.145-0.922-0.434-1.221s-0.68-0.447-1.172-0.447c-0.729,0-1.454,0.312-2.174,0.936l-0.697-0.813
		c0.875-0.784,1.836-1.176,2.885-1.176c0.884,0,1.582,0.241,2.092,0.725c0.51,0.482,0.766,1.132,0.766,1.947
		c0,0.543-0.134,1.099-0.403,1.668c-0.269,0.57-0.932,1.425-1.989,2.564l-1.921,2.043v0.055h4.703V67.975z"/>
</g>
<g>
	<g>
		<line style="fill:none;stroke:#231F20;stroke-width:2;" x1="73.767" y1="64.058" x2="99.509" y2="49.195"/>
		<polygon style="fill:#231F20;" points="99.78,53.731 98.126,53.289 99.17,49.391 95.272,48.346 95.716,46.692 101.268,48.18 		"/>
	</g>
</g>
</svg>
