<?xml version="1.0" encoding="iso-8859-1"?>
<!-- Generator: Adobe Illustrator 14.0.0, SVG Export Plug-In . SVG Version: 6.00 Build 43363)  -->
<!DOCTYPE svg PUBLIC "-//W3C//DTD SVG 1.1//EN" "http://www.w3.org/Graphics/SVG/1.1/DTD/svg11.dtd">
<svg version="1.1" id="Layer_1" xmlns="http://www.w3.org/2000/svg" xmlns:xlink="http://www.w3.org/1999/xlink" x="0px" y="0px"
	 width="297.798px" height="54.779px" viewBox="0 0 297.798 54.779" style="enable-background:new 0 0 297.798 54.779;"
	 xml:space="preserve">
<path d="M3.443,25.836l0.459,0.699l-0.597,3.031c-0.47,0.504-0.918,0.756-1.354,0.756c-0.665,0-0.998-0.459-0.998-1.377
	c0-1.824,0.987-3.108,2.329-3.108H3.443z M4.51,25.388L4.281,25.64c-0.356-0.172-0.712-0.252-1.033-0.252
	c-1.136,0-2.066,0.539-2.651,1.503C0.207,27.534,0,28.246,0,29.014c0,1.263,0.609,2.009,1.584,2.009c0.551,0,1.102-0.322,1.71-0.965
	v0.092c0,0.586,0.218,0.873,0.7,0.873c0.309,0,0.78-0.139,1.411-0.402v-0.344c-0.31,0.068-0.516,0.114-0.643,0.114
	c-0.424,0-0.619-0.161-0.619-0.528c0-0.16,0.034-0.424,0.115-0.803l0.413-2.031c0.172-0.849,0.321-1.4,0.436-1.641H4.51z"/>
<path d="M7.692,22.357l-1.131,0.252V22.8l0.626,0.115l-0.634,3.127h0.65l0.474-2.584c0.466-0.428,0.871-0.627,1.131-0.627
	c0.291,0,0.413,0.145,0.413,0.482c0,0.099-0.015,0.267-0.069,0.489l-0.329,1.414c-0.038,0.168-0.061,0.314-0.061,0.413
	c0,0.306,0.184,0.459,0.558,0.459c0.214,0,0.52-0.077,0.918-0.23v-0.214c-0.176,0.046-0.314,0.069-0.421,0.069
	c-0.252,0-0.397-0.13-0.397-0.375c0-0.114,0.038-0.282,0.084-0.504l0.26-1.185c0.061-0.275,0.107-0.489,0.107-0.68
	c0-0.375-0.245-0.612-0.642-0.612c-0.406,0-0.88,0.252-1.483,0.734l0.137-0.734H7.692z"/>
<path d="M14.372,29.198h7.711v-0.688h-7.711V29.198z M14.372,26.719h7.711v-0.688h-7.711V26.719z"/>
<path d="M31.179,12.852v-1.377c0.034-2.708,0.08-5.416,0.711-8.044c0.31-1.273,0.689-2.719,1.894-2.719V0
	c-1.446,0-2.295,1.446-2.777,2.904c-0.918,2.742-1.021,5.668-1.044,8.571v1.377H31.179z"/>
<rect x="29.962" y="11.214" width="1.228" height="5.278"/>
<path d="M28.655,27.29c0.711,0.403,1.239,1.136,1.515,1.974c0.872,2.708,1.021,5.565,1.021,8.422v1.757h-1.216v-2.354
	c0-2.57-0.092-5.129-0.677-7.631c-0.23-0.986-0.953-1.813-1.928-1.813v-0.712c0.975,0,1.698-0.837,1.928-1.824
	c0.585-2.49,0.677-5.06,0.677-7.619v-2.364h1.216v1.756c0,2.857-0.149,5.714-1.021,8.433C29.894,26.154,29.366,26.877,28.655,27.29"
	/>
<rect x="29.962" y="38.703" width="1.228" height="5.277"/>
<path d="M31.179,41.927h-1.216v1.377c0.023,2.892,0.126,5.817,1.044,8.57c0.482,1.446,1.331,2.904,2.777,2.904v-0.713
	c-1.205,0-1.584-1.445-1.894-2.719c-0.631-2.627-0.677-5.348-0.711-8.043V41.927z"/>
<path d="M44.654,6.067l0.459,0.699l-0.597,3.03c-0.47,0.505-0.918,0.757-1.354,0.757c-0.665,0-0.998-0.459-0.998-1.377
	c0-1.824,0.987-3.109,2.329-3.109H44.654z M45.721,5.619l-0.229,0.252c-0.356-0.172-0.712-0.252-1.033-0.252
	c-1.136,0-2.066,0.539-2.651,1.503c-0.39,0.643-0.597,1.354-0.597,2.123c0,1.262,0.609,2.008,1.584,2.008
	c0.551,0,1.102-0.321,1.71-0.964v0.092c0,0.585,0.218,0.872,0.7,0.872c0.309,0,0.78-0.138,1.411-0.402v-0.344
	c-0.31,0.069-0.516,0.115-0.643,0.115c-0.424,0-0.619-0.161-0.619-0.528c0-0.161,0.034-0.424,0.115-0.803l0.413-2.031
	c0.172-0.849,0.321-1.4,0.436-1.641H45.721z"/>
<path d="M109.044,10.647h-0.455c-0.135,0-0.258-0.012-0.38-0.029c-0.123-0.018-0.222-0.059-0.31-0.117
	c-0.094-0.064-0.164-0.152-0.21-0.263c-0.059-0.111-0.082-0.263-0.082-0.45V5.3h1.689V4.733h-1.689V4.026
	c0-0.252,0.011-0.474,0.047-0.667c0.023-0.192,0.075-0.35,0.146-0.479c0.07-0.134,0.163-0.234,0.274-0.298
	c0.117-0.064,0.263-0.099,0.433-0.099c0.152,0,0.28,0.029,0.38,0.082c0.099,0.052,0.181,0.128,0.239,0.216
	c0.065,0.087,0.105,0.193,0.129,0.31c0.029,0.111,0.041,0.227,0.041,0.35c0.146,0,0.274-0.011,0.391-0.041
	c0.123-0.029,0.222-0.076,0.31-0.128l0.205-0.211c0.052-0.087,0.076-0.181,0.076-0.292c0-0.123-0.03-0.239-0.088-0.339
	c-0.059-0.099-0.152-0.187-0.287-0.263c-0.128-0.076-0.298-0.128-0.514-0.169c-0.216-0.041-0.479-0.065-0.789-0.065
	c-0.327,0-0.619,0.047-0.882,0.147c-0.263,0.093-0.485,0.233-0.666,0.42c-0.182,0.187-0.322,0.415-0.421,0.69
	c-0.1,0.275-0.146,0.59-0.146,0.947v0.596h-1.093V5.3h1.093v4.488c0,0.187-0.03,0.339-0.082,0.45
	c-0.053,0.111-0.123,0.199-0.211,0.263c-0.087,0.058-0.187,0.099-0.309,0.117c-0.117,0.017-0.246,0.029-0.38,0.029h-0.158v0.503
	h3.699V10.647z M102.445,2.793c0,0.14,0.018,0.257,0.053,0.35c0.035,0.094,0.082,0.17,0.146,0.228L102.86,3.5
	c0.082,0.023,0.17,0.035,0.269,0.035c0.094,0,0.181-0.012,0.263-0.035l0.216-0.129c0.059-0.058,0.106-0.134,0.141-0.228
	c0.04-0.093,0.058-0.21,0.058-0.35c0-0.141-0.018-0.258-0.058-0.351c-0.035-0.094-0.082-0.17-0.147-0.228l-0.21-0.123
	c-0.082-0.023-0.169-0.035-0.263-0.035c-0.099,0-0.187,0.012-0.269,0.035l-0.216,0.123c-0.064,0.058-0.111,0.134-0.146,0.228
	C102.463,2.536,102.445,2.652,102.445,2.793 M101.633,10.647h-0.158v0.503h3.401v-0.503h-0.157c-0.135,0-0.257-0.012-0.38-0.029
	c-0.123-0.018-0.222-0.059-0.31-0.117c-0.093-0.064-0.164-0.152-0.21-0.263c-0.059-0.111-0.082-0.263-0.082-0.45V4.733h-2.139v0.502
	h0.035c0.134,0,0.257,0.012,0.374,0.03c0.123,0.017,0.228,0.058,0.316,0.116c0.087,0.059,0.157,0.141,0.21,0.252
	c0.053,0.105,0.082,0.245,0.082,0.421v3.792c0,0.176-0.029,0.316-0.082,0.427c-0.053,0.105-0.123,0.187-0.21,0.24
	c-0.088,0.052-0.193,0.093-0.316,0.111C101.89,10.642,101.767,10.647,101.633,10.647"/>
<path d="M114.905,5.619l-1.698,0.379v0.287l0.941,0.172l-0.953,4.693h0.976l0.711-3.879c0.7-0.642,1.308-0.941,1.698-0.941
	c0.436,0,0.62,0.218,0.62,0.723c0,0.149-0.023,0.402-0.103,0.735l-0.494,2.123c-0.057,0.252-0.092,0.47-0.092,0.619
	c0,0.459,0.276,0.689,0.838,0.689c0.321,0,0.78-0.115,1.377-0.345v-0.321c-0.264,0.069-0.47,0.103-0.631,0.103
	c-0.379,0-0.597-0.195-0.597-0.562c0-0.172,0.058-0.424,0.126-0.757l0.391-1.779c0.091-0.413,0.16-0.734,0.16-1.021
	c0-0.562-0.367-0.918-0.964-0.918c-0.608,0-1.319,0.379-2.226,1.102l0.207-1.102H114.905z"/>
<path d="M122.521,9.429h7.711V8.741h-7.711V9.429z M122.521,6.95h7.711V6.262h-7.711V6.95z"/>
<polygon points="137.148,3.313 134.658,4.059 134.658,4.541 136.46,4.219 136.46,10.393 136.322,10.588 135.002,10.657 
	135.002,11.15 138.846,11.15 138.846,10.668 137.607,10.611 137.469,10.439 137.469,3.313 "/>
<path d="M267.009,7.357c0,0.473-0.019,0.947-0.054,1.408c-0.04,0.462-0.122,0.9-0.245,1.315c-0.129,0.415-0.315,0.801-0.555,1.152
	c-0.24,0.35-0.567,0.648-0.976,0.9v0.549c0.549-0.216,1.017-0.485,1.407-0.795c0.393-0.31,0.707-0.684,0.953-1.11
	c0.245-0.433,0.427-0.929,0.537-1.496c0.117-0.561,0.176-1.204,0.176-1.923c0-0.719-0.059-1.362-0.176-1.917
	c-0.11-0.561-0.292-1.058-0.537-1.484c-0.246-0.427-0.561-0.795-0.953-1.105c-0.391-0.31-0.858-0.578-1.407-0.795v0.538
	c0.408,0.251,0.735,0.549,0.976,0.9c0.239,0.345,0.426,0.725,0.555,1.14c0.123,0.415,0.205,0.853,0.245,1.315
	C266.991,6.41,267.009,6.884,267.009,7.357 M261.832,11.267c0.357,0,0.66-0.041,0.923-0.117c0.264-0.076,0.486-0.176,0.661-0.292
	c0.176-0.117,0.305-0.246,0.392-0.386c0.088-0.135,0.129-0.263,0.129-0.386c0-0.099-0.023-0.187-0.076-0.263l-0.152-0.146
	c-0.069,0.111-0.157,0.21-0.274,0.31c-0.105,0.099-0.233,0.193-0.379,0.269c-0.147,0.076-0.305,0.14-0.48,0.187
	c-0.181,0.046-0.374,0.07-0.578,0.07c-0.287,0-0.538-0.047-0.754-0.146c-0.216-0.094-0.403-0.24-0.55-0.444
	c-0.151-0.205-0.268-0.462-0.344-0.778c-0.082-0.309-0.129-0.683-0.136-1.122h3.986V7.474c0-0.474-0.059-0.888-0.17-1.245
	c-0.116-0.356-0.28-0.654-0.496-0.894c-0.217-0.24-0.474-0.415-0.783-0.538c-0.31-0.122-0.654-0.181-1.041-0.181
	c-0.847,0-1.502,0.281-1.963,0.848c-0.462,0.566-0.689,1.408-0.689,2.524c0,0.52,0.063,0.982,0.192,1.385
	c0.123,0.409,0.305,0.754,0.543,1.035c0.24,0.28,0.532,0.491,0.877,0.637C261.014,11.191,261.4,11.267,261.832,11.267
	 M261.686,5.259c0.24,0,0.443,0.053,0.607,0.152c0.169,0.099,0.305,0.245,0.403,0.432s0.175,0.409,0.222,0.672
	c0.048,0.263,0.07,0.55,0.07,0.865h-2.752c0.041-0.695,0.181-1.221,0.42-1.583C260.897,5.44,261.242,5.259,261.686,5.259
	 M255.515,11.267c0.355,0,0.677-0.041,0.97-0.117c0.286-0.076,0.537-0.199,0.742-0.351c0.204-0.163,0.368-0.356,0.479-0.59
	c0.111-0.234,0.17-0.509,0.17-0.818c0-0.252-0.034-0.468-0.105-0.661c-0.07-0.193-0.175-0.362-0.321-0.514
	c-0.146-0.152-0.333-0.292-0.561-0.421c-0.229-0.128-0.497-0.257-0.813-0.391c-0.263-0.111-0.491-0.205-0.678-0.292
	c-0.193-0.088-0.345-0.182-0.462-0.275c-0.123-0.094-0.21-0.193-0.264-0.304c-0.053-0.111-0.081-0.245-0.081-0.397
	c0-0.141,0.023-0.269,0.063-0.386c0.041-0.117,0.112-0.216,0.205-0.304c0.088-0.088,0.205-0.152,0.351-0.199
	c0.146-0.046,0.315-0.07,0.521-0.07c0.355,0,0.613,0.111,0.783,0.333c0.164,0.222,0.245,0.532,0.245,0.935
	c0.274,0,0.49-0.064,0.643-0.193c0.146-0.134,0.222-0.309,0.222-0.526c0-0.146-0.035-0.286-0.11-0.42
	c-0.076-0.135-0.188-0.252-0.333-0.351c-0.146-0.099-0.333-0.181-0.549-0.24c-0.217-0.058-0.469-0.087-0.755-0.087
	c-0.339,0-0.648,0.035-0.923,0.111c-0.274,0.076-0.515,0.181-0.713,0.327c-0.199,0.14-0.351,0.316-0.456,0.526
	c-0.11,0.21-0.164,0.45-0.164,0.725c0,0.263,0.035,0.485,0.111,0.678c0.076,0.187,0.187,0.356,0.333,0.502
	c0.146,0.146,0.339,0.287,0.567,0.415c0.228,0.123,0.49,0.257,0.801,0.392c0.286,0.122,0.525,0.233,0.719,0.333
	c0.192,0.099,0.344,0.193,0.455,0.286c0.111,0.094,0.187,0.193,0.234,0.304c0.041,0.105,0.063,0.234,0.063,0.38
	c0,0.158-0.029,0.31-0.087,0.444c-0.059,0.135-0.14,0.246-0.251,0.345c-0.112,0.093-0.252,0.169-0.415,0.222
	c-0.164,0.053-0.351,0.076-0.567,0.076c-0.239,0-0.443-0.041-0.607-0.117c-0.17-0.082-0.305-0.193-0.403-0.327
	c-0.1-0.14-0.176-0.304-0.217-0.485c-0.04-0.181-0.064-0.38-0.064-0.59l-0.233,0.04l-0.245,0.129
	c-0.076,0.064-0.14,0.146-0.193,0.257c-0.053,0.105-0.082,0.24-0.082,0.398c0,0.21,0.047,0.391,0.142,0.555
	c0.093,0.152,0.227,0.286,0.396,0.397c0.169,0.105,0.38,0.187,0.625,0.234C254.942,11.243,255.217,11.267,255.515,11.267
	 M249.479,5.212c0.246,0,0.443,0.035,0.591,0.105c0.14,0.076,0.257,0.176,0.333,0.304c0.076,0.135,0.128,0.287,0.152,0.468
	c0.022,0.181,0.035,0.38,0.035,0.596v0.719l-0.994,0.035c-0.917,0.029-1.602,0.193-2.052,0.502c-0.449,0.31-0.678,0.778-0.678,1.415
	c0,0.327,0.047,0.607,0.141,0.847c0.094,0.24,0.222,0.438,0.392,0.596c0.163,0.158,0.362,0.275,0.59,0.351
	c0.229,0.076,0.473,0.117,0.736,0.117c0.252,0,0.462-0.03,0.643-0.088c0.176-0.053,0.333-0.134,0.475-0.234
	c0.14-0.099,0.268-0.222,0.385-0.362c0.117-0.14,0.24-0.292,0.363-0.462h0.099l0.187,1.029h1.619v-0.503h-0.035
	c-0.135,0-0.246-0.011-0.339-0.041c-0.1-0.029-0.175-0.076-0.233-0.14s-0.1-0.152-0.128-0.263c-0.03-0.111-0.041-0.245-0.041-0.415
	V6.685c0-0.38-0.048-0.707-0.136-0.97c-0.093-0.263-0.233-0.474-0.415-0.637c-0.181-0.164-0.408-0.281-0.684-0.357
	c-0.274-0.07-0.59-0.105-0.958-0.105c-0.298,0-0.573,0.023-0.836,0.064S248.199,4.791,248,4.879
	c-0.192,0.094-0.351,0.21-0.462,0.357c-0.11,0.146-0.169,0.321-0.169,0.526c0,0.274,0.087,0.473,0.257,0.584
	c0.176,0.111,0.427,0.169,0.76,0.169c0-0.187,0.012-0.362,0.041-0.52c0.029-0.157,0.082-0.298,0.164-0.415
	c0.075-0.116,0.187-0.21,0.333-0.274C249.064,5.241,249.25,5.212,249.479,5.212 M248.03,9.414c0-0.234,0.029-0.438,0.088-0.619
	c0.064-0.182,0.163-0.328,0.304-0.45c0.141-0.129,0.327-0.222,0.55-0.293c0.233-0.064,0.514-0.105,0.853-0.122l0.767-0.035v0.97
	c0,0.251-0.035,0.485-0.111,0.689c-0.076,0.205-0.183,0.38-0.316,0.526c-0.14,0.146-0.31,0.257-0.503,0.333
	c-0.198,0.076-0.42,0.117-0.66,0.117c-0.333,0-0.572-0.093-0.729-0.28C248.112,10.069,248.03,9.788,248.03,9.414 M243.456,2.483
	c-0.631,0-1.186,0.105-1.665,0.321c-0.479,0.217-0.883,0.515-1.197,0.9c-0.328,0.386-0.567,0.848-0.731,1.385
	c-0.164,0.538-0.245,1.128-0.245,1.777c0,0.66,0.076,1.257,0.233,1.8c0.158,0.544,0.386,1.005,0.695,1.391
	c0.305,0.386,0.685,0.684,1.135,0.894c0.449,0.211,0.976,0.316,1.571,0.316c0.444,0,0.83-0.041,1.151-0.129
	c0.321-0.082,0.59-0.187,0.801-0.315c0.21-0.129,0.368-0.269,0.467-0.433c0.105-0.152,0.158-0.31,0.158-0.462
	c0-0.122-0.022-0.216-0.063-0.292l-0.164-0.175c-0.1,0.134-0.216,0.257-0.352,0.38c-0.128,0.122-0.279,0.233-0.449,0.327
	c-0.169,0.094-0.368,0.169-0.591,0.222c-0.228,0.059-0.484,0.088-0.776,0.088c-0.438,0-0.818-0.088-1.128-0.263
	c-0.316-0.176-0.573-0.421-0.777-0.742c-0.205-0.316-0.351-0.696-0.444-1.14c-0.094-0.444-0.141-0.935-0.141-1.467
	c0-0.602,0.047-1.134,0.135-1.601c0.087-0.462,0.233-0.853,0.433-1.175c0.198-0.315,0.456-0.555,0.771-0.725
	c0.315-0.163,0.701-0.245,1.151-0.245c0.263,0,0.479,0.047,0.66,0.134c0.176,0.094,0.321,0.211,0.433,0.357s0.187,0.315,0.239,0.497
	c0.047,0.181,0.069,0.368,0.069,0.555c0.147,0,0.287-0.018,0.415-0.059c0.123-0.041,0.234-0.093,0.328-0.163
	c0.093-0.076,0.169-0.164,0.223-0.263c0.052-0.105,0.075-0.222,0.075-0.351c0-0.193-0.047-0.368-0.146-0.532
	c-0.101-0.163-0.252-0.304-0.45-0.426c-0.205-0.123-0.456-0.217-0.754-0.281C244.222,2.518,243.865,2.483,243.456,2.483
	 M232.863,11.267c0.356,0,0.66-0.041,0.923-0.117c0.264-0.076,0.485-0.176,0.66-0.292c0.176-0.117,0.304-0.246,0.392-0.386
	c0.089-0.135,0.129-0.263,0.129-0.386c0-0.099-0.023-0.187-0.075-0.263l-0.152-0.146c-0.071,0.111-0.158,0.21-0.275,0.31
	c-0.104,0.099-0.233,0.193-0.38,0.269c-0.146,0.076-0.304,0.14-0.479,0.187c-0.181,0.046-0.374,0.07-0.579,0.07
	c-0.286,0-0.537-0.047-0.754-0.146c-0.216-0.094-0.403-0.24-0.549-0.444c-0.152-0.205-0.27-0.462-0.346-0.778
	c-0.082-0.309-0.128-0.683-0.134-1.122h3.985V7.474c0-0.474-0.059-0.888-0.169-1.245c-0.117-0.356-0.281-0.654-0.497-0.894
	c-0.216-0.24-0.473-0.415-0.783-0.538c-0.31-0.122-0.654-0.181-1.04-0.181c-0.848,0-1.502,0.281-1.964,0.848
	c-0.461,0.566-0.689,1.408-0.689,2.524c0,0.52,0.064,0.982,0.193,1.385c0.122,0.409,0.303,0.754,0.543,1.035
	c0.24,0.28,0.532,0.491,0.877,0.637C232.043,11.191,232.43,11.267,232.863,11.267 M232.717,5.259c0.238,0,0.443,0.053,0.606,0.152
	c0.17,0.099,0.304,0.245,0.404,0.432c0.099,0.187,0.175,0.409,0.222,0.672c0.046,0.263,0.07,0.55,0.07,0.865h-2.753
	c0.041-0.695,0.181-1.221,0.421-1.583C231.928,5.44,232.272,5.259,232.717,5.259 M226.544,11.267c0.357,0,0.679-0.041,0.971-0.117
	c0.287-0.076,0.538-0.199,0.742-0.351c0.204-0.163,0.368-0.356,0.479-0.59c0.111-0.234,0.169-0.509,0.169-0.818
	c0-0.252-0.035-0.468-0.104-0.661c-0.07-0.193-0.176-0.362-0.321-0.514c-0.147-0.152-0.334-0.292-0.563-0.421
	c-0.227-0.128-0.496-0.257-0.812-0.391c-0.263-0.111-0.491-0.205-0.678-0.292c-0.193-0.088-0.346-0.182-0.461-0.275
	c-0.123-0.094-0.211-0.193-0.264-0.304s-0.082-0.245-0.082-0.397c0-0.141,0.023-0.269,0.064-0.386
	c0.041-0.117,0.11-0.216,0.205-0.304c0.087-0.088,0.204-0.152,0.35-0.199c0.146-0.046,0.316-0.07,0.521-0.07
	c0.356,0,0.613,0.111,0.782,0.333c0.164,0.222,0.246,0.532,0.246,0.935c0.275,0,0.491-0.064,0.644-0.193
	c0.146-0.134,0.222-0.309,0.222-0.526c0-0.146-0.035-0.286-0.111-0.42c-0.075-0.135-0.187-0.252-0.333-0.351
	c-0.146-0.099-0.333-0.181-0.55-0.24c-0.216-0.058-0.467-0.087-0.754-0.087c-0.339,0-0.647,0.035-0.923,0.111
	c-0.275,0.076-0.514,0.181-0.713,0.327c-0.199,0.14-0.352,0.316-0.456,0.526c-0.111,0.21-0.163,0.45-0.163,0.725
	c0,0.263,0.035,0.485,0.111,0.678c0.075,0.187,0.187,0.356,0.333,0.502c0.146,0.146,0.339,0.287,0.566,0.415
	c0.229,0.123,0.491,0.257,0.8,0.392c0.287,0.122,0.526,0.233,0.72,0.333c0.192,0.099,0.345,0.193,0.456,0.286
	c0.11,0.094,0.187,0.193,0.233,0.304c0.041,0.105,0.064,0.234,0.064,0.38c0,0.158-0.029,0.31-0.088,0.444
	c-0.059,0.135-0.141,0.246-0.251,0.345c-0.111,0.093-0.251,0.169-0.415,0.222s-0.352,0.076-0.567,0.076
	c-0.239,0-0.444-0.041-0.607-0.117c-0.17-0.082-0.304-0.193-0.403-0.327c-0.1-0.14-0.175-0.304-0.216-0.485s-0.064-0.38-0.064-0.59
	l-0.233,0.04l-0.246,0.129c-0.076,0.064-0.141,0.146-0.192,0.257c-0.053,0.105-0.082,0.24-0.082,0.398
	c0,0.21,0.047,0.391,0.14,0.555c0.095,0.152,0.229,0.286,0.397,0.397c0.17,0.105,0.38,0.187,0.626,0.234
	C225.972,11.243,226.247,11.267,226.544,11.267 M220.51,5.212c0.244,0,0.443,0.035,0.59,0.105c0.14,0.076,0.257,0.176,0.333,0.304
	c0.076,0.135,0.129,0.287,0.151,0.468c0.024,0.181,0.035,0.38,0.035,0.596v0.719l-0.993,0.035c-0.918,0.029-1.602,0.193-2.052,0.502
	c-0.45,0.31-0.677,0.778-0.677,1.415c0,0.327,0.046,0.607,0.14,0.847c0.094,0.24,0.223,0.438,0.392,0.596
	c0.164,0.158,0.362,0.275,0.591,0.351c0.228,0.076,0.473,0.117,0.736,0.117c0.251,0,0.462-0.03,0.643-0.088
	c0.175-0.053,0.333-0.134,0.473-0.234c0.141-0.099,0.27-0.222,0.387-0.362c0.116-0.14,0.239-0.292,0.361-0.462h0.101l0.187,1.029
	h1.618v-0.503h-0.035c-0.134,0-0.245-0.011-0.339-0.041c-0.099-0.029-0.175-0.076-0.233-0.14s-0.1-0.152-0.129-0.263
	c-0.028-0.111-0.041-0.245-0.041-0.415V6.685c0-0.38-0.047-0.707-0.134-0.97c-0.094-0.263-0.234-0.474-0.415-0.637
	c-0.181-0.164-0.409-0.281-0.684-0.357c-0.275-0.07-0.59-0.105-0.958-0.105c-0.298,0-0.573,0.023-0.836,0.064
	c-0.264,0.041-0.491,0.111-0.69,0.199c-0.193,0.094-0.35,0.21-0.461,0.357c-0.111,0.146-0.17,0.321-0.17,0.526
	c0,0.274,0.088,0.473,0.257,0.584c0.176,0.111,0.427,0.169,0.76,0.169c0-0.187,0.013-0.362,0.041-0.52
	c0.029-0.157,0.082-0.298,0.164-0.415c0.076-0.116,0.188-0.21,0.333-0.274C220.095,5.241,220.282,5.212,220.51,5.212 M219.061,9.414
	c0-0.234,0.029-0.438,0.087-0.619c0.063-0.182,0.164-0.328,0.304-0.45c0.141-0.129,0.327-0.222,0.549-0.293
	c0.234-0.064,0.516-0.105,0.854-0.122l0.765-0.035v0.97c0,0.251-0.035,0.485-0.11,0.689c-0.076,0.205-0.182,0.38-0.315,0.526
	c-0.141,0.146-0.31,0.257-0.503,0.333c-0.199,0.076-0.421,0.117-0.66,0.117c-0.333,0-0.573-0.093-0.73-0.28
	C219.142,10.069,219.061,9.788,219.061,9.414 M212.285,6.375V3.202h0.8c0.34,0,0.626,0.023,0.859,0.076
	c0.24,0.052,0.433,0.134,0.579,0.257c0.146,0.123,0.257,0.28,0.321,0.473c0.064,0.199,0.1,0.444,0.1,0.737
	c0,0.286-0.029,0.537-0.094,0.742c-0.059,0.204-0.158,0.374-0.298,0.502c-0.141,0.135-0.327,0.228-0.562,0.293
	c-0.233,0.064-0.525,0.093-0.876,0.093H212.285z M212.285,10.554V6.971h1.187c0.351,0,0.643,0.035,0.877,0.111
	c0.232,0.076,0.42,0.187,0.561,0.339c0.146,0.152,0.245,0.345,0.304,0.573s0.088,0.503,0.088,0.812c0,0.322-0.035,0.591-0.1,0.813
	c-0.063,0.222-0.175,0.403-0.322,0.537c-0.146,0.141-0.338,0.24-0.571,0.304c-0.234,0.064-0.521,0.094-0.859,0.094H212.285z
	 M216.224,4.745c0-0.737-0.252-1.274-0.761-1.625c-0.509-0.339-1.279-0.514-2.313-0.514h-3.209v0.502h0.152
	c0.135,0,0.257,0.012,0.374,0.024c0.123,0.023,0.228,0.058,0.315,0.117c0.087,0.058,0.158,0.14,0.21,0.245
	c0.053,0.111,0.082,0.251,0.082,0.427v5.867c0,0.187-0.022,0.339-0.076,0.45c-0.053,0.111-0.123,0.199-0.21,0.257
	c-0.088,0.065-0.192,0.105-0.31,0.123c-0.123,0.018-0.251,0.029-0.386,0.029h-0.152v0.503h3.565c1.034,0,1.806-0.193,2.313-0.579
	c0.509-0.38,0.76-0.958,0.76-1.73c0-0.315-0.047-0.596-0.134-0.847c-0.088-0.245-0.217-0.462-0.38-0.643
	c-0.158-0.181-0.351-0.327-0.579-0.438c-0.228-0.111-0.473-0.193-0.748-0.24V6.626c0.211-0.07,0.403-0.157,0.585-0.263
	c0.181-0.099,0.339-0.227,0.473-0.379c0.135-0.152,0.234-0.328,0.311-0.532C216.183,5.247,216.224,5.013,216.224,4.745
	 M207.275,7.357c0-0.473,0.018-0.947,0.058-1.408c0.036-0.462,0.117-0.9,0.24-1.315s0.311-0.795,0.549-1.14
	c0.246-0.351,0.573-0.649,0.982-0.9V2.056c-0.549,0.217-1.018,0.48-1.408,0.795c-0.392,0.304-0.707,0.678-0.959,1.105
	c-0.245,0.426-0.426,0.923-0.537,1.478c-0.111,0.561-0.17,1.204-0.17,1.923c0,0.719,0.059,1.362,0.17,1.923
	c0.111,0.567,0.292,1.063,0.537,1.49c0.252,0.432,0.567,0.806,0.959,1.116c0.391,0.31,0.859,0.579,1.408,0.795v-0.549
	c-0.409-0.252-0.736-0.55-0.982-0.9c-0.238-0.351-0.426-0.737-0.549-1.152s-0.204-0.853-0.24-1.315
	C207.292,8.304,207.275,7.83,207.275,7.357"/>
<path d="M42.531,24.959c0-4.303,1.033-6.586,2.536-6.839v-0.574c-2.088,0.264-3.534,2.766-3.534,7.413s1.446,7.149,3.534,7.414
	v-0.574C43.564,31.544,42.531,29.262,42.531,24.959"/>
<path d="M49.658,23.418l0.459,0.699l-0.597,3.03c-0.47,0.505-0.918,0.757-1.354,0.757c-0.665,0-0.998-0.458-0.998-1.376
	c0-1.824,0.987-3.109,2.329-3.109H49.658z M50.725,22.97l-0.229,0.252c-0.356-0.172-0.712-0.252-1.033-0.252
	c-1.136,0-2.066,0.539-2.651,1.503c-0.39,0.643-0.597,1.354-0.597,2.123c0,1.262,0.609,2.008,1.584,2.008
	c0.551,0,1.102-0.321,1.71-0.964v0.092c0,0.586,0.218,0.872,0.7,0.872c0.309,0,0.78-0.138,1.411-0.401v-0.345
	c-0.31,0.069-0.516,0.115-0.643,0.115c-0.424,0-0.619-0.161-0.619-0.528c0-0.161,0.034-0.424,0.115-0.803l0.413-2.031
	c0.172-0.849,0.321-1.4,0.436-1.641H50.725z"/>
<path d="M54.71,17.605l-0.849,0.189v0.144l0.47,0.086l-0.476,2.346h0.488l0.356-1.939c0.35-0.321,0.654-0.47,0.849-0.47
	c0.218,0,0.309,0.109,0.309,0.361c0,0.075-0.011,0.201-0.051,0.367l-0.247,1.062c-0.029,0.126-0.046,0.235-0.046,0.31
	c0,0.229,0.138,0.344,0.419,0.344c0.161,0,0.39-0.058,0.689-0.172v-0.161c-0.132,0.034-0.236,0.052-0.316,0.052
	c-0.189,0-0.298-0.098-0.298-0.281c0-0.087,0.028-0.213,0.063-0.379l0.195-0.889c0.046-0.207,0.08-0.368,0.08-0.511
	c0-0.281-0.183-0.459-0.482-0.459c-0.304,0-0.66,0.189-1.113,0.551l0.103-0.551H54.71z"/>
<line style="fill:none;stroke:#000000;stroke-width:0.459;stroke-miterlimit:10;" x1="53.528" y1="21.711" x2="56.862" y2="21.711"/>
<path d="M54.409,26.009c1.268-1.01,1.962-1.658,1.962-2.381c0-0.648-0.453-1.084-1.193-1.084c-0.712,0-1.217,0.407-1.217,0.809
	c0,0.195,0.121,0.321,0.322,0.321c0.092,0,0.178-0.029,0.258-0.086v-0.614c0.172-0.098,0.338-0.138,0.511-0.138
	c0.476,0,0.763,0.322,0.763,0.867c0,0.751-0.718,1.377-1.974,2.398v0.361h2.656v-0.941h-0.258l-0.103,0.488H54.409z"/>
<path d="M61.734,24.959c0,4.303-1.033,6.585-2.536,6.839v0.574c2.088-0.265,3.534-2.767,3.534-7.414s-1.446-7.149-3.534-7.413v0.574
	C60.701,18.373,61.734,20.656,61.734,24.959"/>
<path d="M64.637,20.133c1.689-1.345,2.614-2.209,2.614-3.173c0-0.863-0.603-1.444-1.59-1.444c-0.948,0-1.62,0.542-1.62,1.078
	c0,0.259,0.16,0.428,0.428,0.428c0.122,0,0.237-0.039,0.344-0.115v-0.818c0.229-0.13,0.451-0.183,0.68-0.183
	c0.635,0,1.017,0.428,1.017,1.154c0,1.001-0.956,1.835-2.63,3.195v0.482h3.54v-1.254h-0.344l-0.138,0.65H64.637z"/>
<path d="M109.044,27.999h-0.455c-0.135,0-0.258-0.013-0.38-0.029c-0.123-0.019-0.222-0.06-0.31-0.116
	c-0.094-0.064-0.164-0.152-0.21-0.264c-0.059-0.111-0.082-0.263-0.082-0.45v-4.488h1.689v-0.567h-1.689v-0.707
	c0-0.252,0.011-0.474,0.047-0.667c0.023-0.192,0.075-0.35,0.146-0.479c0.07-0.134,0.163-0.234,0.274-0.298
	c0.117-0.064,0.263-0.099,0.433-0.099c0.152,0,0.28,0.029,0.38,0.082c0.099,0.052,0.181,0.128,0.239,0.216
	c0.064,0.087,0.105,0.193,0.129,0.31c0.029,0.111,0.041,0.227,0.041,0.35c0.146,0,0.274-0.011,0.391-0.041
	c0.123-0.029,0.222-0.076,0.31-0.128l0.205-0.211c0.052-0.087,0.076-0.181,0.076-0.292c0-0.123-0.03-0.239-0.088-0.339
	c-0.059-0.099-0.152-0.187-0.286-0.263c-0.129-0.076-0.299-0.128-0.515-0.169c-0.216-0.041-0.479-0.065-0.789-0.065
	c-0.327,0-0.619,0.047-0.882,0.147c-0.263,0.093-0.485,0.233-0.666,0.42c-0.182,0.187-0.322,0.415-0.421,0.69
	c-0.1,0.275-0.146,0.59-0.146,0.947v0.596h-1.093v0.567h1.093v4.488c0,0.187-0.03,0.339-0.082,0.45
	c-0.053,0.111-0.123,0.199-0.211,0.264c-0.087,0.057-0.187,0.098-0.309,0.116c-0.117,0.017-0.246,0.029-0.38,0.029h-0.158v0.503
	h3.699V27.999z M102.445,20.145c0,0.14,0.018,0.257,0.053,0.35c0.035,0.094,0.082,0.17,0.146,0.228l0.216,0.129
	c0.082,0.023,0.17,0.035,0.269,0.035c0.094,0,0.181-0.012,0.263-0.035l0.216-0.129c0.059-0.058,0.106-0.134,0.141-0.228
	c0.04-0.093,0.058-0.21,0.058-0.35c0-0.141-0.018-0.258-0.058-0.351c-0.035-0.094-0.082-0.17-0.147-0.228l-0.21-0.123
	c-0.082-0.023-0.169-0.035-0.263-0.035c-0.099,0-0.187,0.012-0.269,0.035l-0.216,0.123c-0.064,0.058-0.111,0.134-0.146,0.228
	C102.463,19.886,102.445,20.003,102.445,20.145 M101.633,27.999h-0.158v0.503h3.401v-0.503h-0.157c-0.135,0-0.257-0.013-0.38-0.029
	c-0.123-0.019-0.222-0.06-0.31-0.116c-0.093-0.064-0.164-0.152-0.21-0.264c-0.059-0.111-0.082-0.263-0.082-0.45v-5.055h-2.139v0.502
	h0.035c0.134,0,0.257,0.012,0.374,0.03c0.123,0.017,0.228,0.058,0.316,0.116c0.087,0.059,0.157,0.141,0.21,0.252
	c0.053,0.105,0.082,0.245,0.082,0.421v3.792c0,0.176-0.029,0.316-0.082,0.427c-0.053,0.105-0.123,0.188-0.21,0.24
	c-0.088,0.052-0.193,0.093-0.316,0.111C101.89,27.992,101.767,27.999,101.633,27.999"/>
<path d="M114.905,22.97l-1.698,0.379v0.287l0.941,0.172l-0.953,4.693h0.976l0.711-3.879c0.7-0.642,1.308-0.941,1.698-0.941
	c0.436,0,0.62,0.218,0.62,0.723c0,0.149-0.023,0.402-0.103,0.735l-0.494,2.123c-0.057,0.252-0.092,0.47-0.092,0.619
	c0,0.459,0.276,0.688,0.838,0.688c0.321,0,0.78-0.115,1.377-0.345v-0.321c-0.264,0.069-0.47,0.104-0.631,0.104
	c-0.379,0-0.597-0.195-0.597-0.562c0-0.172,0.058-0.424,0.126-0.757l0.391-1.779c0.091-0.413,0.16-0.734,0.16-1.021
	c0-0.562-0.367-0.918-0.964-0.918c-0.608,0-1.319,0.379-2.226,1.102l0.207-1.102H114.905z"/>
<polygon points="122.521,22.649 128.671,25.196 122.521,27.744 122.521,28.49 129.911,25.426 129.911,24.967 122.521,21.903 "/>
<polygon points="137.148,20.664 134.658,21.41 134.658,21.892 136.46,21.57 136.46,27.744 136.322,27.939 135.002,28.007 
	135.002,28.501 138.846,28.501 138.846,28.019 137.607,27.962 137.469,27.791 137.469,20.664 "/>
<path d="M296.55,24.708c0,0.473-0.017,0.947-0.052,1.408c-0.041,0.462-0.123,0.9-0.246,1.315c-0.128,0.415-0.315,0.801-0.555,1.152
	c-0.239,0.35-0.567,0.648-0.977,0.898v0.551c0.55-0.217,1.018-0.485,1.409-0.795c0.391-0.311,0.707-0.685,0.952-1.11
	c0.246-0.433,0.427-0.93,0.538-1.496c0.117-0.561,0.175-1.204,0.175-1.923c0-0.719-0.058-1.362-0.175-1.917
	c-0.111-0.561-0.292-1.058-0.538-1.484c-0.245-0.427-0.562-0.795-0.952-1.105c-0.392-0.31-0.859-0.579-1.409-0.795v0.538
	c0.409,0.251,0.737,0.549,0.977,0.9c0.239,0.345,0.427,0.725,0.555,1.139c0.123,0.415,0.205,0.854,0.246,1.315
	C296.534,23.761,296.55,24.234,296.55,24.708 M291.375,28.619c0.356,0,0.66-0.041,0.923-0.117s0.485-0.176,0.66-0.293
	c0.176-0.116,0.304-0.245,0.392-0.385c0.088-0.135,0.128-0.263,0.128-0.386c0-0.099-0.022-0.187-0.075-0.263l-0.152-0.146
	c-0.07,0.111-0.157,0.21-0.274,0.31c-0.104,0.099-0.233,0.193-0.38,0.269c-0.146,0.076-0.304,0.14-0.479,0.187
	c-0.182,0.046-0.374,0.07-0.579,0.07c-0.286,0-0.538-0.047-0.754-0.146c-0.216-0.094-0.403-0.24-0.549-0.445
	c-0.152-0.204-0.27-0.461-0.346-0.777c-0.082-0.31-0.128-0.684-0.134-1.122h3.985v-0.549c0-0.474-0.059-0.889-0.169-1.245
	c-0.117-0.357-0.281-0.655-0.497-0.894c-0.216-0.24-0.474-0.415-0.783-0.538s-0.654-0.181-1.04-0.181
	c-0.848,0-1.502,0.28-1.964,0.847s-0.689,1.409-0.689,2.525c0,0.52,0.064,0.982,0.192,1.385c0.123,0.409,0.304,0.754,0.544,1.034
	c0.24,0.281,0.532,0.491,0.877,0.638C290.555,28.542,290.942,28.619,291.375,28.619 M291.227,22.61c0.24,0,0.445,0.052,0.608,0.152
	c0.17,0.099,0.304,0.245,0.403,0.432s0.176,0.409,0.223,0.672c0.046,0.263,0.07,0.55,0.07,0.865h-2.753
	c0.041-0.695,0.181-1.221,0.421-1.584C290.438,22.792,290.784,22.61,291.227,22.61 M285.056,28.619c0.357,0,0.679-0.041,0.971-0.117
	c0.285-0.076,0.538-0.199,0.741-0.352c0.205-0.164,0.369-0.355,0.48-0.589c0.111-0.234,0.169-0.509,0.169-0.818
	c0-0.252-0.035-0.468-0.105-0.661c-0.069-0.193-0.175-0.362-0.321-0.514s-0.333-0.292-0.562-0.421
	c-0.228-0.128-0.496-0.257-0.812-0.391c-0.264-0.111-0.491-0.205-0.678-0.293c-0.193-0.087-0.346-0.181-0.463-0.274
	c-0.121-0.094-0.21-0.193-0.263-0.304c-0.052-0.111-0.081-0.246-0.081-0.398c0-0.14,0.023-0.268,0.064-0.385
	c0.041-0.117,0.11-0.216,0.204-0.304c0.088-0.088,0.205-0.152,0.351-0.199c0.146-0.047,0.316-0.07,0.52-0.07
	c0.357,0,0.614,0.111,0.783,0.333c0.164,0.222,0.246,0.532,0.246,0.935c0.274,0,0.491-0.064,0.644-0.193
	c0.146-0.134,0.222-0.309,0.222-0.526c0-0.146-0.035-0.286-0.111-0.42c-0.076-0.135-0.187-0.252-0.333-0.351
	c-0.146-0.099-0.334-0.181-0.55-0.24c-0.216-0.058-0.467-0.087-0.754-0.087c-0.339,0-0.648,0.035-0.923,0.111
	c-0.275,0.076-0.514,0.181-0.713,0.327c-0.199,0.14-0.352,0.316-0.456,0.526c-0.111,0.21-0.163,0.45-0.163,0.725
	c0,0.263,0.035,0.485,0.111,0.678c0.075,0.187,0.187,0.356,0.333,0.502c0.146,0.146,0.339,0.286,0.566,0.415
	c0.228,0.123,0.49,0.257,0.8,0.392c0.287,0.122,0.526,0.233,0.72,0.333c0.192,0.099,0.345,0.193,0.456,0.286
	c0.11,0.094,0.187,0.193,0.233,0.304c0.041,0.105,0.064,0.234,0.064,0.38c0,0.158-0.029,0.31-0.088,0.444
	c-0.059,0.134-0.141,0.245-0.251,0.345c-0.111,0.093-0.251,0.169-0.415,0.222c-0.164,0.052-0.352,0.076-0.567,0.076
	c-0.239,0-0.444-0.041-0.608-0.117c-0.169-0.082-0.304-0.192-0.402-0.327c-0.1-0.141-0.175-0.304-0.216-0.485
	c-0.041-0.182-0.064-0.38-0.064-0.591l-0.234,0.041l-0.245,0.129c-0.076,0.064-0.141,0.146-0.192,0.257
	c-0.053,0.105-0.082,0.24-0.082,0.397c0,0.211,0.046,0.393,0.14,0.557c0.094,0.151,0.229,0.285,0.397,0.396
	c0.17,0.105,0.38,0.188,0.626,0.234C284.484,28.594,284.758,28.619,285.056,28.619 M279.021,22.563c0.245,0,0.444,0.035,0.591,0.105
	c0.14,0.076,0.257,0.176,0.333,0.304c0.075,0.135,0.129,0.287,0.151,0.468c0.023,0.181,0.035,0.38,0.035,0.596v0.719l-0.993,0.035
	c-0.918,0.029-1.602,0.193-2.052,0.502c-0.45,0.31-0.678,0.778-0.678,1.415c0,0.327,0.047,0.607,0.141,0.847
	c0.093,0.24,0.222,0.438,0.392,0.596c0.163,0.158,0.362,0.275,0.591,0.352c0.227,0.076,0.473,0.117,0.735,0.117
	c0.251,0,0.462-0.03,0.644-0.088c0.175-0.053,0.333-0.135,0.473-0.234c0.141-0.1,0.27-0.223,0.386-0.361
	c0.117-0.141,0.239-0.292,0.362-0.463h0.1l0.187,1.029h1.619v-0.503h-0.035c-0.134,0-0.245-0.013-0.339-0.041
	c-0.1-0.029-0.175-0.076-0.233-0.14c-0.059-0.064-0.1-0.152-0.129-0.264c-0.029-0.111-0.041-0.246-0.041-0.415v-3.103
	c0-0.38-0.047-0.707-0.134-0.97c-0.094-0.263-0.234-0.474-0.415-0.637c-0.181-0.164-0.409-0.281-0.684-0.357
	c-0.275-0.07-0.591-0.105-0.959-0.105c-0.299,0-0.572,0.023-0.835,0.064c-0.264,0.041-0.491,0.111-0.69,0.199
	c-0.193,0.093-0.35,0.21-0.462,0.356c-0.111,0.147-0.169,0.322-0.169,0.526c0,0.275,0.088,0.474,0.257,0.585
	c0.175,0.111,0.427,0.169,0.76,0.169c0-0.187,0.013-0.362,0.041-0.52c0.029-0.158,0.082-0.298,0.163-0.415
	c0.076-0.117,0.188-0.21,0.334-0.274C278.607,22.592,278.793,22.563,279.021,22.563 M277.572,26.765c0-0.234,0.029-0.438,0.088-0.62
	c0.063-0.181,0.164-0.327,0.304-0.449c0.14-0.129,0.327-0.223,0.549-0.293c0.234-0.064,0.516-0.105,0.854-0.122l0.765-0.035v0.97
	c0,0.251-0.035,0.485-0.111,0.689c-0.075,0.205-0.181,0.38-0.314,0.526c-0.141,0.146-0.311,0.257-0.503,0.333
	c-0.199,0.076-0.421,0.117-0.66,0.117c-0.334,0-0.573-0.093-0.731-0.28C277.654,27.42,277.572,27.139,277.572,26.765
	 M272.999,19.834c-0.631,0-1.188,0.105-1.666,0.321c-0.479,0.217-0.882,0.515-1.198,0.9c-0.327,0.386-0.566,0.848-0.729,1.385
	c-0.164,0.538-0.246,1.128-0.246,1.777c0,0.66,0.076,1.256,0.233,1.8c0.158,0.543,0.387,1.005,0.695,1.391
	c0.304,0.386,0.684,0.684,1.134,0.894s0.977,0.316,1.572,0.316c0.444,0,0.83-0.041,1.151-0.129c0.321-0.082,0.591-0.188,0.801-0.316
	c0.21-0.128,0.368-0.268,0.468-0.432c0.105-0.152,0.157-0.311,0.157-0.462c0-0.122-0.023-0.216-0.064-0.292l-0.163-0.175
	c-0.1,0.134-0.217,0.257-0.351,0.38c-0.129,0.122-0.281,0.233-0.45,0.327c-0.17,0.093-0.368,0.169-0.59,0.222
	c-0.228,0.058-0.485,0.088-0.778,0.088c-0.438,0-0.817-0.088-1.128-0.263c-0.314-0.176-0.571-0.421-0.776-0.743
	c-0.204-0.315-0.352-0.695-0.444-1.139c-0.094-0.444-0.14-0.935-0.14-1.467c0-0.602,0.046-1.134,0.134-1.601
	c0.088-0.462,0.233-0.854,0.433-1.175c0.198-0.316,0.455-0.555,0.771-0.725c0.315-0.163,0.701-0.245,1.15-0.245
	c0.264,0,0.48,0.047,0.661,0.134c0.175,0.094,0.321,0.211,0.433,0.357c0.11,0.146,0.187,0.315,0.239,0.497
	c0.047,0.181,0.07,0.368,0.07,0.555c0.146,0,0.286-0.018,0.415-0.059c0.123-0.041,0.234-0.093,0.327-0.163
	c0.094-0.076,0.17-0.164,0.222-0.263c0.053-0.106,0.076-0.222,0.076-0.351c0-0.193-0.047-0.368-0.146-0.532
	c-0.099-0.163-0.251-0.304-0.449-0.426c-0.204-0.123-0.456-0.217-0.754-0.281C273.763,19.869,273.408,19.834,272.999,19.834
	 M262.405,28.619c0.356,0,0.66-0.041,0.923-0.117s0.484-0.176,0.661-0.293c0.175-0.116,0.304-0.245,0.391-0.385
	c0.088-0.135,0.129-0.263,0.129-0.386c0-0.099-0.022-0.187-0.076-0.263l-0.151-0.146c-0.07,0.111-0.158,0.21-0.275,0.31
	c-0.104,0.099-0.233,0.193-0.38,0.269s-0.303,0.14-0.479,0.187c-0.181,0.046-0.374,0.07-0.577,0.07
	c-0.287,0-0.538-0.047-0.754-0.146c-0.217-0.094-0.403-0.24-0.551-0.445c-0.151-0.204-0.268-0.461-0.344-0.777
	c-0.082-0.31-0.129-0.684-0.135-1.122h3.985v-0.549c0-0.474-0.059-0.889-0.17-1.245c-0.115-0.357-0.279-0.655-0.495-0.894
	c-0.218-0.24-0.475-0.415-0.783-0.538c-0.311-0.123-0.655-0.181-1.041-0.181c-0.848,0-1.502,0.28-1.963,0.847
	c-0.463,0.567-0.69,1.409-0.69,2.525c0,0.52,0.064,0.982,0.193,1.385c0.123,0.409,0.304,0.754,0.543,1.034
	c0.239,0.281,0.531,0.491,0.877,0.638C261.586,28.542,261.972,28.619,262.405,28.619 M262.258,22.61c0.24,0,0.444,0.052,0.608,0.152
	c0.169,0.099,0.304,0.245,0.402,0.432c0.1,0.187,0.176,0.409,0.223,0.672c0.047,0.263,0.069,0.55,0.069,0.865h-2.752
	c0.041-0.695,0.182-1.221,0.42-1.584C261.469,22.792,261.815,22.61,262.258,22.61 M252.091,22.586h0.035
	c0.117,0,0.217,0.012,0.304,0.03l0.229,0.099l0.175,0.199c0.053,0.082,0.1,0.187,0.147,0.309l1.922,5.278h1.093l1.888-4.979
	c0.076-0.193,0.141-0.345,0.204-0.468c0.059-0.123,0.123-0.216,0.188-0.286l0.222-0.146c0.082-0.024,0.182-0.036,0.298-0.036h0.147
	v-0.502h-2.566v0.502h0.088c0.263,0,0.461,0.047,0.59,0.141c0.134,0.093,0.199,0.245,0.199,0.45l-0.03,0.233
	c-0.011,0.088-0.04,0.182-0.081,0.281l-0.858,2.332c-0.054,0.146-0.112,0.292-0.17,0.45c-0.064,0.158-0.123,0.31-0.176,0.456
	c-0.059,0.152-0.11,0.292-0.151,0.415c-0.047,0.128-0.082,0.233-0.101,0.321h-0.04c-0.018-0.099-0.041-0.228-0.082-0.368
	c-0.041-0.152-0.082-0.304-0.129-0.468c-0.052-0.163-0.104-0.327-0.157-0.502c-0.053-0.164-0.105-0.322-0.157-0.462l-0.813-2.262
	l-0.069-0.233l-0.023-0.205c0-0.199,0.058-0.345,0.181-0.438c0.117-0.094,0.299-0.141,0.538-0.141h0.151v-0.502h-2.992V22.586z
	 M249.466,20.145c0,0.14,0.019,0.257,0.053,0.35c0.035,0.094,0.082,0.17,0.146,0.228l0.216,0.129c0.082,0.023,0.17,0.035,0.27,0.035
	c0.093,0,0.181-0.012,0.263-0.035l0.216-0.129c0.059-0.058,0.105-0.134,0.14-0.228c0.041-0.093,0.06-0.21,0.06-0.35
	c0-0.141-0.019-0.258-0.06-0.351c-0.034-0.094-0.081-0.17-0.146-0.228l-0.21-0.123c-0.082-0.023-0.17-0.035-0.263-0.035
	c-0.1,0-0.188,0.012-0.27,0.035l-0.216,0.123c-0.064,0.058-0.111,0.134-0.146,0.228C249.485,19.886,249.466,20.003,249.466,20.145
	 M248.655,27.999h-0.158v0.503h3.4v-0.503h-0.156c-0.135,0-0.258-0.013-0.38-0.029c-0.123-0.019-0.223-0.06-0.311-0.116
	c-0.094-0.064-0.164-0.152-0.21-0.264c-0.059-0.111-0.082-0.263-0.082-0.45v-5.055h-2.139v0.502h0.035
	c0.134,0,0.257,0.012,0.374,0.03c0.123,0.017,0.228,0.058,0.314,0.117c0.088,0.058,0.158,0.14,0.211,0.251
	c0.052,0.105,0.082,0.245,0.082,0.421v3.792c0,0.176-0.03,0.316-0.082,0.427c-0.053,0.105-0.123,0.188-0.211,0.24
	c-0.087,0.052-0.191,0.093-0.314,0.111C248.912,27.992,248.789,27.999,248.655,27.999 M245.34,28.619
	c0.357,0,0.678-0.041,0.97-0.117c0.287-0.076,0.538-0.199,0.743-0.352c0.204-0.164,0.368-0.355,0.479-0.589
	c0.11-0.234,0.169-0.509,0.169-0.818c0-0.252-0.035-0.468-0.105-0.661c-0.069-0.193-0.175-0.362-0.32-0.514
	c-0.146-0.152-0.333-0.292-0.562-0.421c-0.228-0.128-0.497-0.257-0.813-0.391c-0.264-0.111-0.491-0.205-0.679-0.293
	c-0.191-0.087-0.344-0.181-0.461-0.274c-0.123-0.094-0.211-0.193-0.263-0.304c-0.053-0.111-0.082-0.246-0.082-0.398
	c0-0.14,0.023-0.268,0.063-0.385c0.041-0.117,0.111-0.216,0.205-0.304c0.088-0.088,0.204-0.152,0.351-0.199
	c0.146-0.047,0.315-0.07,0.521-0.07c0.356,0,0.613,0.111,0.783,0.333c0.163,0.222,0.245,0.532,0.245,0.935
	c0.275,0,0.491-0.064,0.643-0.193c0.146-0.134,0.223-0.309,0.223-0.526c0-0.146-0.035-0.286-0.111-0.42
	c-0.076-0.135-0.187-0.252-0.333-0.351c-0.146-0.099-0.333-0.181-0.549-0.24c-0.217-0.058-0.468-0.087-0.754-0.087
	c-0.339,0-0.649,0.035-0.924,0.111s-0.515,0.181-0.713,0.327c-0.198,0.14-0.351,0.316-0.456,0.526
	c-0.111,0.21-0.163,0.45-0.163,0.725c0,0.263,0.035,0.485,0.11,0.678c0.076,0.187,0.188,0.356,0.333,0.502
	c0.146,0.146,0.34,0.286,0.567,0.415c0.228,0.123,0.491,0.257,0.8,0.392c0.287,0.122,0.526,0.233,0.719,0.333
	c0.193,0.099,0.346,0.193,0.456,0.286c0.111,0.094,0.188,0.193,0.234,0.304c0.041,0.105,0.063,0.234,0.063,0.38
	c0,0.158-0.028,0.31-0.087,0.444c-0.059,0.134-0.141,0.245-0.252,0.345c-0.11,0.093-0.251,0.169-0.415,0.222
	c-0.162,0.052-0.35,0.076-0.566,0.076c-0.239,0-0.444-0.041-0.607-0.117c-0.17-0.082-0.304-0.192-0.403-0.327
	c-0.1-0.141-0.176-0.304-0.217-0.485c-0.041-0.182-0.063-0.38-0.063-0.591l-0.234,0.041l-0.245,0.129
	c-0.075,0.064-0.141,0.146-0.192,0.257c-0.054,0.105-0.082,0.24-0.082,0.397c0,0.211,0.047,0.393,0.14,0.557
	c0.094,0.151,0.229,0.285,0.398,0.396c0.169,0.105,0.38,0.188,0.625,0.234C244.768,28.594,245.042,28.619,245.34,28.619
	 M241.045,28.501v-0.503h-0.333c-0.134,0-0.257-0.013-0.374-0.022c-0.123-0.025-0.228-0.06-0.314-0.111
	c-0.089-0.053-0.158-0.135-0.212-0.24c-0.052-0.111-0.081-0.251-0.081-0.427v-1.881c0-0.152,0.006-0.322,0.023-0.509
	c0.017-0.187,0.041-0.374,0.082-0.561c0.035-0.193,0.081-0.374,0.14-0.555c0.064-0.181,0.141-0.339,0.223-0.479
	c0.093-0.135,0.192-0.246,0.31-0.333c0.116-0.082,0.251-0.123,0.397-0.123c0.233,0,0.396,0.07,0.49,0.216s0.141,0.386,0.141,0.719
	c0.205,0,0.374-0.023,0.514-0.064c0.142-0.041,0.258-0.1,0.345-0.176c0.089-0.076,0.152-0.163,0.199-0.268
	c0.041-0.106,0.059-0.223,0.059-0.345c0-0.275-0.105-0.491-0.315-0.643c-0.216-0.152-0.538-0.228-0.976-0.228
	c-0.264,0-0.485,0.035-0.661,0.099c-0.175,0.07-0.321,0.164-0.438,0.281c-0.123,0.123-0.222,0.257-0.304,0.415
	c-0.082,0.158-0.163,0.327-0.239,0.508h-0.059l-0.229-1.186h-1.841v0.502h0.035c0.135,0,0.258,0.012,0.38,0.03
	c0.117,0.017,0.222,0.058,0.311,0.117c0.088,0.058,0.164,0.14,0.216,0.245c0.053,0.111,0.076,0.251,0.076,0.427v3.734
	c0,0.187-0.023,0.339-0.076,0.45c-0.052,0.111-0.122,0.199-0.21,0.257c-0.088,0.063-0.193,0.104-0.311,0.123
	c-0.123,0.017-0.251,0.029-0.386,0.029h-0.035v0.503H241.045z M235.912,27.197v-5.113h-2.14v0.502h0.035
	c0.135,0,0.264,0.012,0.38,0.03c0.123,0.017,0.223,0.058,0.315,0.117c0.088,0.064,0.158,0.152,0.211,0.263
	c0.052,0.116,0.076,0.268,0.076,0.455v2.467c0,0.286-0.029,0.549-0.088,0.789c-0.059,0.239-0.146,0.438-0.27,0.607
	c-0.122,0.17-0.279,0.304-0.467,0.398c-0.193,0.093-0.421,0.141-0.684,0.141c-0.24,0-0.444-0.035-0.603-0.111
	c-0.164-0.07-0.292-0.175-0.386-0.316c-0.099-0.14-0.163-0.309-0.204-0.514c-0.041-0.204-0.064-0.432-0.064-0.695v-4.132h-2.145
	v0.502h0.035c0.134,0,0.257,0.012,0.38,0.03c0.117,0.017,0.222,0.058,0.309,0.117c0.089,0.058,0.164,0.14,0.218,0.245
	c0.052,0.111,0.075,0.251,0.075,0.427v2.869c0,0.409,0.047,0.76,0.135,1.058c0.088,0.298,0.21,0.538,0.38,0.729
	c0.169,0.193,0.374,0.334,0.619,0.422c0.246,0.088,0.525,0.135,0.842,0.135c0.193,0,0.38-0.012,0.561-0.047
	c0.182-0.024,0.352-0.082,0.515-0.164c0.164-0.076,0.321-0.188,0.468-0.327c0.146-0.14,0.274-0.322,0.396-0.549h0.06l0.157,0.97
	h1.899v-0.503h-0.035c-0.135,0-0.258-0.013-0.374-0.022c-0.123-0.025-0.228-0.06-0.315-0.111c-0.088-0.053-0.158-0.135-0.21-0.24
	C235.941,27.513,235.912,27.374,235.912,27.197 M227.111,28.619c0.339,0,0.637-0.035,0.889-0.106
	c0.251-0.063,0.467-0.151,0.637-0.263c0.169-0.111,0.292-0.233,0.38-0.368c0.087-0.134,0.128-0.274,0.128-0.409
	c0-0.111-0.017-0.204-0.058-0.28l-0.146-0.187c-0.136,0.245-0.346,0.444-0.62,0.602c-0.275,0.157-0.603,0.233-0.971,0.233
	c-0.643,0-1.104-0.21-1.385-0.625c-0.286-0.415-0.427-1.052-0.427-1.899c0-0.532,0.035-0.976,0.104-1.333
	c0.071-0.356,0.17-0.637,0.305-0.847c0.135-0.211,0.293-0.357,0.479-0.444c0.182-0.088,0.392-0.129,0.619-0.129
	c0.205,0,0.368,0.035,0.503,0.111c0.128,0.07,0.233,0.17,0.31,0.298c0.075,0.123,0.129,0.269,0.157,0.438
	c0.029,0.17,0.047,0.345,0.047,0.532c0.356,0,0.619-0.058,0.802-0.169c0.181-0.111,0.268-0.31,0.268-0.585
	c0-0.204-0.063-0.385-0.187-0.537c-0.122-0.158-0.286-0.287-0.485-0.386c-0.198-0.099-0.42-0.175-0.666-0.222
	c-0.251-0.053-0.497-0.076-0.748-0.076c-0.38,0-0.729,0.053-1.052,0.164c-0.327,0.111-0.608,0.292-0.848,0.555
	c-0.239,0.263-0.427,0.608-0.561,1.04c-0.135,0.427-0.205,0.964-0.205,1.601c0,0.591,0.07,1.093,0.205,1.508
	c0.134,0.415,0.321,0.754,0.561,1.018c0.239,0.262,0.532,0.461,0.865,0.584S226.713,28.619,227.111,28.619 M220.759,28.619
	c0.356,0,0.66-0.041,0.923-0.117c0.264-0.076,0.485-0.176,0.661-0.293c0.175-0.116,0.303-0.245,0.392-0.385
	c0.088-0.135,0.129-0.263,0.129-0.386c0-0.099-0.024-0.187-0.076-0.263l-0.152-0.146c-0.069,0.111-0.158,0.21-0.274,0.31
	c-0.105,0.099-0.234,0.193-0.38,0.269c-0.146,0.076-0.305,0.14-0.479,0.187c-0.181,0.046-0.374,0.07-0.579,0.07
	c-0.286,0-0.537-0.047-0.753-0.146c-0.217-0.094-0.404-0.24-0.55-0.445c-0.152-0.204-0.27-0.461-0.345-0.777
	c-0.081-0.31-0.129-0.684-0.135-1.122h3.986v-0.549c0-0.474-0.059-0.889-0.17-1.245c-0.117-0.357-0.28-0.655-0.497-0.894
	c-0.216-0.24-0.473-0.415-0.783-0.538c-0.309-0.123-0.654-0.181-1.04-0.181c-0.847,0-1.502,0.28-1.964,0.847
	c-0.461,0.567-0.688,1.409-0.688,2.525c0,0.52,0.063,0.982,0.192,1.385c0.122,0.409,0.305,0.754,0.543,1.034
	c0.24,0.281,0.532,0.491,0.877,0.638C219.942,28.542,220.327,28.619,220.759,28.619 M220.614,22.61c0.238,0,0.443,0.052,0.606,0.152
	c0.17,0.099,0.305,0.245,0.404,0.432c0.099,0.187,0.175,0.409,0.222,0.672c0.047,0.263,0.07,0.55,0.07,0.865h-2.753
	c0.041-0.695,0.181-1.221,0.421-1.584C219.825,22.792,220.169,22.61,220.614,22.61 M212.283,24.17v-3.641h0.812
	c0.339,0,0.625,0.035,0.865,0.1c0.234,0.064,0.426,0.163,0.573,0.309c0.146,0.141,0.257,0.322,0.32,0.55
	c0.064,0.222,0.1,0.491,0.1,0.812c0,0.31-0.029,0.585-0.093,0.818c-0.06,0.234-0.158,0.427-0.299,0.585
	c-0.14,0.157-0.326,0.274-0.561,0.35c-0.234,0.076-0.526,0.117-0.877,0.117H212.283z M216.116,27.041l-1.643-2.595
	c0.21-0.07,0.421-0.164,0.631-0.281c0.212-0.117,0.398-0.263,0.567-0.438c0.17-0.175,0.304-0.38,0.403-0.625
	c0.105-0.234,0.158-0.515,0.158-0.836c0-0.771-0.252-1.35-0.761-1.736c-0.508-0.38-1.278-0.572-2.313-0.572h-3.221v0.502h0.152
	c0.134,0,0.257,0.012,0.374,0.029c0.123,0.018,0.229,0.053,0.316,0.111c0.087,0.059,0.156,0.141,0.21,0.252
	c0.053,0.105,0.082,0.245,0.082,0.421v5.925c0,0.176-0.029,0.316-0.082,0.427c-0.054,0.105-0.123,0.188-0.21,0.24
	c-0.088,0.052-0.193,0.093-0.316,0.111c-0.117,0.016-0.24,0.022-0.374,0.022h-0.152v0.503h3.483v-0.503h-0.158
	c-0.134,0-0.257-0.007-0.379-0.022c-0.117-0.019-0.223-0.06-0.31-0.111c-0.088-0.053-0.158-0.135-0.211-0.24
	c-0.053-0.111-0.081-0.251-0.081-0.427v-2.466h0.993l1.618,2.694c0.135,0.228,0.264,0.409,0.387,0.551
	c0.115,0.139,0.257,0.25,0.426,0.326c0.17,0.076,0.368,0.129,0.614,0.158c0.238,0.029,0.543,0.041,0.917,0.041h0.17v-0.503h-0.035
	c-0.252,0-0.474-0.082-0.666-0.24C216.513,27.602,216.321,27.361,216.116,27.041 M207.272,24.708c0-0.474,0.018-0.947,0.059-1.409
	c0.035-0.461,0.117-0.9,0.24-1.315c0.123-0.414,0.31-0.794,0.549-1.139c0.246-0.351,0.573-0.649,0.981-0.9v-0.538
	c-0.549,0.216-1.017,0.479-1.407,0.795c-0.393,0.304-0.707,0.678-0.959,1.105c-0.245,0.426-0.427,0.923-0.537,1.478
	c-0.111,0.561-0.17,1.204-0.17,1.923c0,0.719,0.059,1.362,0.17,1.923c0.11,0.566,0.292,1.063,0.537,1.49
	c0.252,0.432,0.566,0.806,0.959,1.116c0.391,0.31,0.858,0.578,1.407,0.795v-0.551c-0.408-0.25-0.735-0.549-0.981-0.898
	c-0.239-0.352-0.426-0.737-0.549-1.152s-0.205-0.853-0.24-1.315C207.29,25.655,207.272,25.181,207.272,24.708 M191.227,27.999
	h-0.034c-0.135,0-0.258-0.013-0.374-0.022c-0.123-0.025-0.229-0.06-0.316-0.111c-0.087-0.053-0.157-0.135-0.21-0.24
	c-0.053-0.111-0.082-0.251-0.082-0.427v-2.524c0-0.257,0.024-0.503,0.076-0.737c0.047-0.233,0.129-0.438,0.24-0.619
	c0.11-0.181,0.263-0.321,0.443-0.427c0.188-0.105,0.415-0.157,0.689-0.157c0.24,0,0.444,0.035,0.614,0.111
	c0.17,0.07,0.304,0.175,0.408,0.315c0.101,0.14,0.177,0.31,0.223,0.514c0.047,0.205,0.069,0.433,0.069,0.696v4.132h2.087v-0.503
	h-0.041c-0.135,0-0.257-0.013-0.367-0.029c-0.111-0.019-0.211-0.06-0.293-0.116c-0.081-0.064-0.146-0.152-0.188-0.264
	c-0.046-0.111-0.07-0.263-0.07-0.45v-2.829c0-0.409-0.046-0.759-0.134-1.057c-0.094-0.298-0.228-0.538-0.397-0.725
	c-0.176-0.193-0.386-0.333-0.631-0.421c-0.252-0.093-0.531-0.14-0.848-0.14c-0.192,0-0.374,0.017-0.549,0.047
	c-0.17,0.029-0.334,0.082-0.491,0.163c-0.151,0.076-0.298,0.187-0.433,0.333c-0.141,0.141-0.274,0.322-0.397,0.544h-0.059
	l-0.157-0.97h-1.935v0.502h0.034c0.136,0,0.258,0.012,0.375,0.03c0.122,0.017,0.228,0.058,0.315,0.117
	c0.088,0.058,0.158,0.14,0.21,0.251c0.053,0.105,0.082,0.245,0.082,0.421v3.734c0,0.187-0.029,0.339-0.082,0.45
	c-0.052,0.111-0.122,0.199-0.21,0.264c-0.088,0.057-0.187,0.098-0.31,0.116c-0.117,0.017-0.245,0.029-0.381,0.029h-0.099v0.503h3.22
	V27.999z M184.712,28.619c0.356,0,0.66-0.041,0.923-0.117c0.264-0.076,0.485-0.176,0.661-0.293c0.175-0.116,0.303-0.245,0.391-0.385
	c0.089-0.135,0.13-0.263,0.13-0.386c0-0.099-0.024-0.187-0.076-0.263l-0.152-0.146c-0.07,0.111-0.158,0.21-0.275,0.31
	c-0.104,0.099-0.233,0.193-0.38,0.269c-0.146,0.076-0.304,0.14-0.479,0.187c-0.181,0.046-0.374,0.07-0.579,0.07
	c-0.286,0-0.537-0.047-0.753-0.146c-0.217-0.094-0.404-0.24-0.55-0.445c-0.152-0.204-0.27-0.461-0.346-0.777
	c-0.081-0.31-0.128-0.684-0.134-1.122h3.986v-0.549c0-0.474-0.06-0.889-0.17-1.245c-0.117-0.357-0.28-0.655-0.497-0.894
	c-0.216-0.24-0.473-0.415-0.783-0.538c-0.309-0.123-0.654-0.181-1.04-0.181c-0.847,0-1.502,0.28-1.964,0.847
	c-0.461,0.567-0.689,1.409-0.689,2.525c0,0.52,0.064,0.982,0.193,1.385c0.122,0.409,0.304,0.754,0.543,1.034
	c0.24,0.281,0.532,0.491,0.877,0.638S184.28,28.619,184.712,28.619 M184.567,22.61c0.238,0,0.443,0.052,0.606,0.152
	c0.17,0.099,0.304,0.245,0.404,0.432c0.099,0.187,0.175,0.409,0.222,0.672c0.047,0.263,0.07,0.55,0.07,0.865h-2.753
	c0.041-0.695,0.182-1.221,0.421-1.584C183.778,22.792,184.123,22.61,184.567,22.61 M174.4,22.586h0.034
	c0.117,0,0.217,0.012,0.305,0.03l0.228,0.099l0.175,0.199c0.054,0.082,0.101,0.187,0.146,0.309l1.923,5.278h1.093l1.889-4.979
	c0.075-0.193,0.14-0.345,0.203-0.468c0.06-0.123,0.123-0.216,0.188-0.286l0.222-0.146c0.082-0.024,0.182-0.036,0.298-0.036h0.146
	v-0.502h-2.565v0.502h0.087c0.264,0,0.463,0.047,0.592,0.141c0.134,0.093,0.197,0.245,0.197,0.45l-0.028,0.233
	c-0.013,0.088-0.041,0.182-0.082,0.281l-0.859,2.332c-0.052,0.146-0.111,0.292-0.169,0.45c-0.064,0.158-0.123,0.31-0.176,0.456
	c-0.059,0.152-0.111,0.292-0.151,0.415c-0.047,0.128-0.082,0.233-0.1,0.321h-0.041c-0.018-0.099-0.041-0.228-0.082-0.368
	c-0.04-0.152-0.081-0.304-0.128-0.468c-0.053-0.163-0.105-0.327-0.158-0.502c-0.053-0.164-0.105-0.322-0.158-0.462l-0.812-2.262
	l-0.07-0.233l-0.024-0.205c0-0.199,0.06-0.345,0.183-0.438c0.116-0.094,0.298-0.141,0.537-0.141h0.151v-0.502H174.4V22.586z
	 M171.39,28.619c0.357,0,0.661-0.041,0.925-0.117c0.263-0.076,0.484-0.176,0.659-0.293c0.176-0.116,0.305-0.245,0.393-0.385
	c0.087-0.135,0.128-0.263,0.128-0.386c0-0.099-0.023-0.187-0.076-0.263l-0.152-0.146c-0.069,0.111-0.157,0.21-0.273,0.31
	c-0.106,0.099-0.234,0.193-0.38,0.269c-0.146,0.076-0.305,0.14-0.48,0.187c-0.181,0.046-0.374,0.07-0.578,0.07
	c-0.286,0-0.538-0.047-0.754-0.146c-0.216-0.094-0.403-0.24-0.549-0.445c-0.152-0.204-0.269-0.461-0.345-0.777
	c-0.082-0.31-0.129-0.684-0.136-1.122h3.986v-0.549c0-0.474-0.058-0.889-0.169-1.245c-0.117-0.357-0.281-0.655-0.497-0.894
	c-0.216-0.24-0.473-0.415-0.783-0.538c-0.31-0.123-0.654-0.181-1.04-0.181c-0.848,0-1.502,0.28-1.964,0.847
	s-0.689,1.409-0.689,2.525c0,0.52,0.064,0.982,0.192,1.385c0.123,0.409,0.305,0.754,0.544,1.034
	c0.239,0.281,0.531,0.491,0.876,0.638C170.573,28.542,170.958,28.619,171.39,28.619 M171.245,22.61c0.24,0,0.443,0.052,0.607,0.152
	c0.169,0.099,0.305,0.245,0.403,0.432c0.101,0.187,0.176,0.409,0.222,0.672c0.048,0.263,0.07,0.55,0.07,0.865h-2.752
	c0.041-0.695,0.181-1.221,0.421-1.584C170.456,22.792,170.8,22.61,171.245,22.61 M160.81,27.853c-0.531,0-0.911-0.21-1.14-0.632
	c-0.228-0.421-0.345-1.058-0.345-1.905c0-0.415,0.028-0.789,0.082-1.111c0.053-0.321,0.14-0.59,0.263-0.806
	c0.117-0.216,0.27-0.386,0.456-0.497s0.409-0.169,0.672-0.169c0.316,0,0.578,0.058,0.789,0.169c0.21,0.111,0.38,0.275,0.502,0.491
	c0.129,0.216,0.223,0.485,0.27,0.806c0.059,0.322,0.082,0.69,0.082,1.105c0,0.432-0.023,0.806-0.082,1.128
	c-0.047,0.321-0.141,0.584-0.264,0.795c-0.128,0.21-0.298,0.368-0.508,0.467C161.382,27.799,161.12,27.853,160.81,27.853
	 M163.562,27.187v-7.779h-2.202v0.503h0.099c0.135,0,0.257,0.012,0.374,0.023c0.123,0.024,0.228,0.059,0.316,0.117
	c0.088,0.059,0.157,0.14,0.21,0.251c0.059,0.106,0.082,0.246,0.082,0.421v0.982c0,0.07,0.006,0.181,0.012,0.327
	c0.006,0.14,0.017,0.292,0.022,0.439c0.013,0.169,0.024,0.356,0.035,0.549h-0.069c-0.089-0.158-0.188-0.298-0.305-0.427
	c-0.117-0.128-0.251-0.239-0.396-0.333c-0.152-0.093-0.322-0.163-0.509-0.216c-0.188-0.053-0.397-0.076-0.625-0.076
	c-0.393,0-0.742,0.064-1.047,0.199c-0.304,0.128-0.561,0.327-0.766,0.602c-0.204,0.274-0.362,0.619-0.467,1.04
	c-0.105,0.421-0.158,0.917-0.158,1.496c0,0.573,0.053,1.069,0.158,1.484c0.104,0.415,0.263,0.76,0.467,1.035
	c0.205,0.269,0.462,0.467,0.766,0.596c0.305,0.134,0.654,0.199,1.047,0.199c0.233,0,0.443-0.03,0.631-0.088
	c0.187-0.053,0.356-0.135,0.503-0.24c0.146-0.1,0.279-0.229,0.396-0.374c0.111-0.146,0.216-0.309,0.305-0.491h0.047l0.128,1.076
	h2.027v-0.503h-0.099c-0.134,0-0.257-0.013-0.374-0.029c-0.123-0.019-0.228-0.053-0.316-0.11c-0.087-0.06-0.162-0.141-0.21-0.251
	C163.591,27.501,163.562,27.361,163.562,27.187 M153.35,27.999h-0.035c-0.135,0-0.256-0.013-0.373-0.022
	c-0.123-0.025-0.229-0.06-0.316-0.111c-0.087-0.053-0.158-0.135-0.21-0.24c-0.054-0.111-0.082-0.251-0.082-0.427v-2.524
	c0-0.257,0.022-0.503,0.076-0.737c0.047-0.233,0.129-0.438,0.239-0.619c0.111-0.181,0.264-0.321,0.444-0.427
	c0.187-0.105,0.415-0.157,0.689-0.157c0.239,0,0.443,0.035,0.613,0.111c0.17,0.07,0.305,0.175,0.409,0.315
	c0.1,0.14,0.176,0.31,0.223,0.514c0.047,0.205,0.069,0.433,0.069,0.696v4.132h2.087v-0.503h-0.041c-0.135,0-0.257-0.013-0.367-0.029
	c-0.111-0.019-0.211-0.06-0.293-0.116c-0.081-0.064-0.146-0.152-0.188-0.264c-0.046-0.111-0.07-0.263-0.07-0.45v-2.829
	c0-0.409-0.047-0.759-0.134-1.057c-0.094-0.298-0.228-0.538-0.397-0.725c-0.176-0.193-0.386-0.333-0.632-0.421
	c-0.251-0.093-0.531-0.14-0.847-0.14c-0.193,0-0.374,0.017-0.55,0.047c-0.169,0.029-0.333,0.082-0.49,0.163
	c-0.151,0.076-0.298,0.187-0.433,0.333c-0.141,0.141-0.275,0.322-0.397,0.544h-0.059l-0.158-0.97h-1.935v0.502h0.035
	c0.135,0,0.258,0.012,0.375,0.03c0.123,0.017,0.228,0.058,0.315,0.117c0.087,0.058,0.158,0.14,0.21,0.251
	c0.053,0.105,0.082,0.245,0.082,0.421v3.734c0,0.187-0.029,0.339-0.082,0.45c-0.052,0.111-0.123,0.199-0.21,0.264
	c-0.088,0.057-0.187,0.098-0.31,0.116c-0.117,0.017-0.246,0.029-0.381,0.029h-0.099v0.503h3.22V27.999z M146.274,22.563
	c0.246,0,0.444,0.035,0.591,0.105c0.14,0.076,0.257,0.176,0.333,0.304c0.076,0.135,0.128,0.287,0.152,0.468
	c0.023,0.181,0.035,0.38,0.035,0.596v0.719l-0.994,0.035c-0.917,0.029-1.601,0.193-2.051,0.502c-0.45,0.31-0.678,0.778-0.678,1.415
	c0,0.327,0.047,0.607,0.14,0.847c0.094,0.24,0.222,0.438,0.392,0.596c0.163,0.158,0.362,0.275,0.59,0.352
	c0.228,0.076,0.473,0.117,0.736,0.117c0.252,0,0.462-0.03,0.643-0.088c0.176-0.053,0.333-0.135,0.474-0.234
	c0.14-0.1,0.269-0.223,0.385-0.361c0.117-0.141,0.24-0.292,0.363-0.463h0.099l0.187,1.029h1.619v-0.503h-0.035
	c-0.135,0-0.246-0.013-0.339-0.041c-0.099-0.029-0.175-0.076-0.234-0.14c-0.058-0.064-0.099-0.152-0.128-0.264
	c-0.03-0.111-0.041-0.246-0.041-0.415v-3.103c0-0.38-0.047-0.707-0.135-0.97c-0.093-0.263-0.234-0.474-0.415-0.637
	c-0.181-0.164-0.409-0.281-0.683-0.357c-0.275-0.07-0.591-0.105-0.959-0.105c-0.298,0-0.573,0.023-0.836,0.064
	c-0.263,0.041-0.491,0.111-0.689,0.199c-0.193,0.093-0.351,0.21-0.462,0.356c-0.111,0.147-0.169,0.322-0.169,0.526
	c0,0.275,0.087,0.474,0.257,0.585c0.175,0.111,0.426,0.169,0.76,0.169c0-0.187,0.011-0.362,0.04-0.52
	c0.03-0.158,0.082-0.298,0.164-0.415c0.076-0.117,0.187-0.21,0.333-0.274C145.859,22.592,146.046,22.563,146.274,22.563
	 M144.826,26.765c0-0.234,0.029-0.438,0.088-0.62c0.064-0.181,0.163-0.327,0.304-0.449c0.14-0.129,0.327-0.223,0.549-0.293
	c0.234-0.064,0.514-0.105,0.853-0.122l0.766-0.035v0.97c0,0.251-0.035,0.485-0.111,0.689c-0.076,0.205-0.181,0.38-0.316,0.526
	c-0.14,0.146-0.31,0.257-0.502,0.333c-0.199,0.076-0.421,0.117-0.661,0.117c-0.333,0-0.573-0.093-0.73-0.28
	C144.907,27.42,144.826,27.139,144.826,26.765"/>
<path d="M44.654,42.766l0.459,0.699l-0.597,3.03c-0.47,0.505-0.918,0.757-1.354,0.757c-0.665,0-0.998-0.459-0.998-1.377
	c0-1.824,0.987-3.109,2.329-3.109H44.654z M45.721,42.318l-0.229,0.252c-0.356-0.172-0.712-0.252-1.033-0.252
	c-1.136,0-2.066,0.539-2.651,1.504c-0.39,0.643-0.597,1.354-0.597,2.123c0,1.262,0.609,2.008,1.584,2.008
	c0.551,0,1.102-0.321,1.71-0.965v0.092c0,0.586,0.218,0.873,0.7,0.873c0.309,0,0.78-0.139,1.411-0.402v-0.344
	c-0.31,0.068-0.516,0.115-0.643,0.115c-0.424,0-0.619-0.162-0.619-0.528c0-0.161,0.034-0.425,0.115-0.804l0.413-2.03
	c0.172-0.849,0.321-1.4,0.436-1.642H45.721z"/>
<path d="M51.793,44.544c0-0.402-0.321-0.734-0.723-0.734s-0.734,0.332-0.734,0.734s0.332,0.723,0.734,0.723
	S51.793,44.947,51.793,44.544"/>
<path d="M56.728,44.261c0-5.496,1.285-8.422,3.156-8.744v-0.619c-2.468,0.311-4.177,3.511-4.177,9.363
	c0,5.852,1.709,9.053,4.177,9.362v-0.618C58.013,52.683,56.728,49.757,56.728,44.261"/>
<path d="M64.475,42.766l0.459,0.699l-0.597,3.03c-0.47,0.505-0.918,0.757-1.354,0.757c-0.665,0-0.998-0.459-0.998-1.377
	c0-1.824,0.987-3.109,2.329-3.109H64.475z M65.542,42.318l-0.229,0.252c-0.356-0.172-0.712-0.252-1.033-0.252
	c-1.136,0-2.066,0.539-2.651,1.504c-0.39,0.643-0.597,1.354-0.597,2.123c0,1.262,0.609,2.008,1.584,2.008
	c0.551,0,1.102-0.321,1.71-0.965v0.092c0,0.586,0.218,0.873,0.7,0.873c0.309,0,0.78-0.139,1.411-0.402v-0.344
	c-0.31,0.068-0.516,0.115-0.643,0.115c-0.424,0-0.619-0.162-0.619-0.528c0-0.161,0.034-0.425,0.115-0.804l0.413-2.03
	c0.172-0.849,0.321-1.4,0.436-1.642H65.542z"/>
<path d="M69.527,36.954l-0.849,0.188v0.145l0.47,0.086l-0.476,2.346h0.488l0.356-1.938c0.35-0.321,0.654-0.47,0.849-0.47
	c0.218,0,0.309,0.108,0.309,0.36c0,0.075-0.011,0.201-0.051,0.367l-0.247,1.062c-0.029,0.127-0.046,0.235-0.046,0.311
	c0,0.229,0.138,0.344,0.419,0.344c0.161,0,0.39-0.058,0.689-0.172V39.42c-0.132,0.034-0.236,0.052-0.316,0.052
	c-0.189,0-0.298-0.098-0.298-0.281c0-0.086,0.028-0.213,0.063-0.379l0.195-0.889c0.046-0.207,0.08-0.367,0.08-0.511
	c0-0.281-0.183-0.459-0.482-0.459c-0.304,0-0.66,0.188-1.113,0.551l0.103-0.551H69.527z"/>
<rect x="71.816" y="37.895" width="3.901" height="0.344"/>
<polygon points="77.656,35.8 76.411,36.173 76.411,36.415 77.312,36.253 77.312,39.34 77.243,39.437 76.583,39.472 76.583,39.719 
	78.505,39.719 78.505,39.478 77.885,39.45 77.817,39.363 77.817,35.8 "/>
<line style="fill:none;stroke:#000000;stroke-width:0.459;stroke-miterlimit:10;" x1="68.344" y1="41.058" x2="79.064" y2="41.058"/>
<path d="M72.918,45.357c1.268-1.01,1.962-1.658,1.962-2.381c0-0.648-0.453-1.084-1.193-1.084c-0.712,0-1.217,0.406-1.217,0.809
	c0,0.195,0.121,0.321,0.322,0.321c0.092,0,0.178-0.029,0.258-0.087v-0.613c0.172-0.098,0.338-0.139,0.511-0.139
	c0.476,0,0.763,0.322,0.763,0.867c0,0.752-0.718,1.377-1.974,2.398v0.361h2.656v-0.941h-0.258l-0.103,0.488H72.918z"/>
<path d="M84.557,44.261c0,5.496-1.285,8.422-3.156,8.744v0.618c2.468-0.31,4.177-3.511,4.177-9.362c0-5.853-1.709-9.053-4.177-9.363
	v0.619C83.271,35.839,84.557,38.765,84.557,44.261"/>
<path d="M87.563,37.484c1.689-1.345,2.614-2.209,2.614-3.173c0-0.862-0.603-1.444-1.59-1.444c-0.948,0-1.62,0.543-1.62,1.078
	c0,0.26,0.16,0.428,0.428,0.428c0.122,0,0.237-0.039,0.344-0.114V33.44c0.229-0.13,0.451-0.185,0.68-0.185
	c0.635,0,1.017,0.43,1.017,1.156c0,1-0.956,1.834-2.63,3.194v0.481h3.54v-1.254h-0.344l-0.138,0.65H87.563z"/>
<path d="M109.044,47.346h-0.455c-0.135,0-0.258-0.012-0.38-0.028c-0.123-0.019-0.222-0.06-0.31-0.117
	c-0.094-0.064-0.164-0.152-0.21-0.264c-0.059-0.111-0.082-0.263-0.082-0.449V42h1.689v-0.566h-1.689v-0.707
	c0-0.253,0.011-0.475,0.047-0.668c0.023-0.191,0.075-0.35,0.146-0.479c0.07-0.135,0.163-0.234,0.274-0.299
	c0.117-0.063,0.263-0.098,0.433-0.098c0.152,0,0.28,0.028,0.38,0.081c0.099,0.052,0.181,0.128,0.239,0.216
	c0.064,0.088,0.105,0.193,0.129,0.311c0.029,0.111,0.041,0.227,0.041,0.35c0.146,0,0.274-0.011,0.391-0.041
	c0.123-0.029,0.222-0.076,0.31-0.128l0.205-0.211c0.052-0.087,0.076-0.181,0.076-0.292c0-0.123-0.03-0.238-0.088-0.339
	c-0.059-0.099-0.152-0.187-0.286-0.263c-0.129-0.076-0.299-0.129-0.515-0.17c-0.216-0.041-0.479-0.064-0.789-0.064
	c-0.327,0-0.619,0.047-0.882,0.146c-0.263,0.094-0.485,0.233-0.666,0.42c-0.182,0.188-0.322,0.416-0.421,0.69
	c-0.1,0.275-0.146,0.591-0.146,0.947v0.597h-1.093V42h1.093v4.488c0,0.187-0.03,0.338-0.082,0.449
	c-0.053,0.111-0.123,0.199-0.211,0.264c-0.087,0.058-0.187,0.099-0.309,0.117c-0.117,0.017-0.246,0.028-0.38,0.028h-0.158v0.503
	h3.699V47.346z M102.445,39.492c0,0.141,0.018,0.258,0.053,0.351c0.035,0.095,0.082,0.17,0.146,0.228l0.216,0.129
	c0.082,0.023,0.17,0.035,0.269,0.035c0.094,0,0.181-0.012,0.263-0.035l0.216-0.129c0.059-0.058,0.106-0.133,0.141-0.228
	c0.04-0.093,0.058-0.21,0.058-0.351s-0.018-0.258-0.058-0.35c-0.035-0.095-0.082-0.171-0.147-0.229l-0.21-0.123
	c-0.082-0.023-0.169-0.035-0.263-0.035c-0.099,0-0.187,0.012-0.269,0.035l-0.216,0.123c-0.064,0.058-0.111,0.134-0.146,0.229
	C102.463,39.234,102.445,39.351,102.445,39.492 M101.633,47.346h-0.158v0.503h3.401v-0.503h-0.157c-0.135,0-0.257-0.012-0.38-0.028
	c-0.123-0.019-0.222-0.06-0.31-0.117c-0.093-0.064-0.164-0.152-0.21-0.264c-0.059-0.111-0.082-0.263-0.082-0.449v-5.055h-2.139
	v0.502h0.035c0.134,0,0.257,0.012,0.374,0.029c0.123,0.018,0.228,0.059,0.316,0.116c0.087,0.059,0.157,0.141,0.21,0.252
	c0.053,0.104,0.082,0.245,0.082,0.421v3.792c0,0.176-0.029,0.315-0.082,0.427c-0.053,0.105-0.123,0.188-0.21,0.24
	c-0.088,0.052-0.193,0.093-0.316,0.111C101.89,47.34,101.767,47.346,101.633,47.346"/>
<path d="M114.905,42.318l-1.698,0.379v0.287l0.941,0.172l-0.953,4.693h0.976l0.711-3.879c0.7-0.643,1.308-0.941,1.698-0.941
	c0.436,0,0.62,0.219,0.62,0.724c0,0.149-0.023,0.401-0.103,0.735l-0.494,2.123c-0.057,0.252-0.092,0.469-0.092,0.618
	c0,0.459,0.276,0.688,0.838,0.688c0.321,0,0.78-0.114,1.377-0.344v-0.321c-0.264,0.069-0.47,0.103-0.631,0.103
	c-0.379,0-0.597-0.195-0.597-0.563c0-0.172,0.058-0.424,0.126-0.756l0.391-1.779c0.091-0.413,0.16-0.734,0.16-1.021
	c0-0.562-0.367-0.918-0.964-0.918c-0.608,0-1.319,0.379-2.226,1.103l0.207-1.103H114.905z"/>
<polygon points="122.521,41.998 128.671,44.544 122.521,47.091 122.521,47.837 129.911,44.774 129.911,44.315 122.521,41.251 "/>
<polygon points="137.148,40.011 134.658,40.757 134.658,41.24 136.46,40.917 136.46,47.091 136.322,47.287 135.002,47.356 
	135.002,47.849 138.846,47.849 138.846,47.367 137.607,47.31 137.469,47.138 137.469,40.011 "/>
<path d="M296.553,44.056c0,0.473-0.018,0.947-0.053,1.408c-0.041,0.462-0.123,0.9-0.245,1.314c-0.129,0.416-0.315,0.801-0.555,1.152
	c-0.24,0.35-0.567,0.648-0.977,0.898v0.551c0.55-0.217,1.017-0.485,1.408-0.795c0.393-0.311,0.707-0.684,0.953-1.11
	c0.245-0.433,0.426-0.93,0.537-1.495c0.117-0.562,0.176-1.205,0.176-1.924s-0.059-1.361-0.176-1.917
	c-0.111-0.562-0.292-1.058-0.537-1.483c-0.246-0.428-0.561-0.795-0.953-1.105c-0.392-0.311-0.858-0.579-1.408-0.795v0.538
	c0.409,0.251,0.736,0.549,0.977,0.899c0.239,0.346,0.426,0.726,0.555,1.14c0.122,0.415,0.204,0.854,0.245,1.315
	C296.536,43.109,296.553,43.583,296.553,44.056 M291.376,47.966c0.356,0,0.66-0.041,0.923-0.117s0.485-0.176,0.661-0.293
	c0.175-0.115,0.303-0.245,0.391-0.385c0.089-0.135,0.13-0.264,0.13-0.387c0-0.099-0.024-0.187-0.076-0.262l-0.152-0.146
	c-0.07,0.111-0.158,0.21-0.275,0.31c-0.104,0.099-0.233,0.193-0.38,0.269c-0.146,0.076-0.304,0.141-0.479,0.188
	c-0.182,0.047-0.374,0.07-0.579,0.07c-0.286,0-0.537-0.047-0.753-0.146c-0.217-0.094-0.404-0.24-0.55-0.445
	c-0.152-0.203-0.27-0.461-0.346-0.776c-0.081-0.31-0.128-0.685-0.134-1.122h3.986v-0.549c0-0.475-0.06-0.889-0.17-1.245
	c-0.117-0.356-0.28-0.655-0.497-0.894c-0.216-0.24-0.474-0.416-0.783-0.539c-0.309-0.123-0.654-0.18-1.04-0.18
	c-0.847,0-1.502,0.279-1.964,0.846c-0.461,0.568-0.689,1.41-0.689,2.525c0,0.521,0.064,0.982,0.193,1.385
	c0.122,0.41,0.304,0.754,0.543,1.035c0.24,0.28,0.532,0.49,0.877,0.637S290.944,47.966,291.376,47.966 M291.231,41.958
	c0.238,0,0.443,0.052,0.607,0.152c0.169,0.099,0.303,0.244,0.403,0.432c0.099,0.188,0.175,0.408,0.222,0.672
	c0.047,0.263,0.07,0.55,0.07,0.865h-2.753c0.041-0.695,0.182-1.221,0.421-1.584C290.442,42.139,290.787,41.958,291.231,41.958
	 M285.058,47.966c0.357,0,0.679-0.041,0.971-0.117c0.287-0.076,0.538-0.199,0.742-0.352c0.204-0.163,0.368-0.355,0.479-0.59
	c0.111-0.233,0.169-0.508,0.169-0.817c0-0.252-0.035-0.468-0.104-0.661c-0.07-0.193-0.176-0.361-0.321-0.514
	c-0.146-0.152-0.333-0.293-0.562-0.422c-0.228-0.127-0.497-0.256-0.813-0.391c-0.263-0.111-0.491-0.205-0.678-0.293
	c-0.192-0.087-0.345-0.181-0.461-0.273c-0.123-0.094-0.212-0.193-0.264-0.305c-0.053-0.111-0.082-0.246-0.082-0.397
	c0-0.14,0.023-0.269,0.064-0.386c0.041-0.116,0.11-0.215,0.205-0.304c0.087-0.088,0.204-0.151,0.35-0.198
	c0.147-0.047,0.316-0.07,0.521-0.07c0.355,0,0.612,0.111,0.782,0.333c0.163,0.222,0.245,0.532,0.245,0.935
	c0.275,0,0.491-0.064,0.644-0.193c0.146-0.133,0.222-0.309,0.222-0.525c0-0.146-0.035-0.286-0.111-0.42
	c-0.075-0.135-0.187-0.252-0.333-0.352c-0.146-0.099-0.333-0.181-0.549-0.24c-0.217-0.057-0.468-0.086-0.754-0.086
	c-0.339,0-0.649,0.035-0.924,0.111c-0.274,0.075-0.514,0.18-0.713,0.326c-0.198,0.141-0.351,0.316-0.456,0.526
	c-0.111,0.21-0.163,0.45-0.163,0.725c0,0.263,0.035,0.485,0.111,0.679c0.075,0.187,0.187,0.355,0.333,0.502
	c0.146,0.146,0.339,0.285,0.566,0.414c0.229,0.123,0.491,0.258,0.8,0.393c0.287,0.122,0.526,0.232,0.72,0.333
	c0.192,0.099,0.345,0.192,0.456,0.286c0.11,0.094,0.187,0.193,0.233,0.304c0.041,0.104,0.064,0.233,0.064,0.38
	c0,0.158-0.029,0.311-0.087,0.444c-0.06,0.134-0.142,0.245-0.252,0.345c-0.111,0.094-0.251,0.169-0.415,0.223
	c-0.163,0.051-0.351,0.075-0.567,0.075c-0.239,0-0.444-0.041-0.607-0.116c-0.17-0.082-0.304-0.193-0.403-0.328
	c-0.1-0.141-0.175-0.304-0.216-0.484c-0.041-0.182-0.064-0.38-0.064-0.592l-0.234,0.041l-0.244,0.13
	c-0.076,0.063-0.142,0.146-0.193,0.257c-0.053,0.105-0.082,0.24-0.082,0.396c0,0.211,0.047,0.393,0.14,0.557
	c0.095,0.152,0.229,0.285,0.398,0.396c0.169,0.105,0.38,0.188,0.625,0.234C284.487,47.943,284.76,47.966,285.058,47.966
	 M279.024,41.912c0.244,0,0.443,0.035,0.59,0.104c0.141,0.076,0.257,0.177,0.333,0.304c0.075,0.135,0.129,0.287,0.151,0.469
	c0.024,0.181,0.035,0.38,0.035,0.596v0.719l-0.993,0.035c-0.918,0.029-1.601,0.193-2.051,0.502c-0.45,0.311-0.678,0.778-0.678,1.415
	c0,0.327,0.046,0.606,0.14,0.847c0.093,0.24,0.223,0.438,0.393,0.596c0.163,0.158,0.361,0.275,0.59,0.352
	c0.228,0.076,0.473,0.117,0.735,0.117c0.251,0,0.463-0.03,0.644-0.088c0.175-0.053,0.333-0.135,0.473-0.234
	c0.142-0.099,0.27-0.222,0.386-0.361c0.117-0.141,0.24-0.293,0.362-0.463h0.101l0.187,1.029h1.619v-0.503h-0.035
	c-0.135,0-0.246-0.012-0.339-0.041c-0.1-0.028-0.176-0.075-0.234-0.14s-0.1-0.152-0.129-0.264c-0.028-0.11-0.041-0.246-0.041-0.414
	v-3.104c0-0.38-0.046-0.707-0.134-0.971c-0.094-0.262-0.234-0.473-0.415-0.637s-0.409-0.281-0.684-0.356
	c-0.274-0.07-0.591-0.104-0.958-0.104c-0.299,0-0.573,0.022-0.836,0.063c-0.264,0.041-0.491,0.11-0.69,0.198
	c-0.192,0.094-0.35,0.211-0.461,0.356c-0.111,0.147-0.17,0.322-0.17,0.526c0,0.275,0.088,0.474,0.257,0.585
	c0.176,0.11,0.427,0.169,0.76,0.169c0-0.188,0.013-0.362,0.041-0.52c0.029-0.158,0.082-0.299,0.164-0.416
	c0.076-0.117,0.188-0.209,0.333-0.273C278.609,41.941,278.795,41.912,279.024,41.912 M277.575,46.113
	c0-0.233,0.028-0.438,0.087-0.619c0.064-0.182,0.164-0.327,0.304-0.449c0.142-0.129,0.328-0.223,0.55-0.293
	c0.233-0.064,0.515-0.105,0.854-0.122l0.765-0.035v0.97c0,0.252-0.035,0.485-0.111,0.689c-0.075,0.205-0.181,0.38-0.314,0.525
	c-0.14,0.146-0.311,0.258-0.503,0.334c-0.198,0.076-0.421,0.117-0.66,0.117c-0.333,0-0.573-0.094-0.731-0.281
	C277.657,46.768,277.575,46.488,277.575,46.113 M273,39.182c-0.631,0-1.186,0.104-1.666,0.321c-0.479,0.217-0.882,0.515-1.198,0.9
	c-0.327,0.385-0.565,0.848-0.729,1.385s-0.246,1.128-0.246,1.777c0,0.659,0.076,1.256,0.233,1.799
	c0.158,0.543,0.387,1.006,0.696,1.392c0.304,0.386,0.684,0.685,1.133,0.894c0.45,0.211,0.977,0.316,1.572,0.316
	c0.445,0,0.83-0.041,1.152-0.129c0.32-0.082,0.59-0.188,0.8-0.316c0.211-0.128,0.369-0.268,0.468-0.432
	c0.105-0.152,0.158-0.311,0.158-0.462c0-0.122-0.024-0.216-0.065-0.292l-0.163-0.176c-0.1,0.135-0.216,0.258-0.351,0.381
	c-0.128,0.121-0.28,0.232-0.45,0.326c-0.169,0.094-0.368,0.17-0.59,0.223c-0.228,0.059-0.485,0.088-0.777,0.088
	c-0.438,0-0.818-0.088-1.128-0.264c-0.315-0.176-0.572-0.42-0.777-0.742c-0.204-0.314-0.351-0.695-0.444-1.139
	c-0.093-0.444-0.14-0.936-0.14-1.467c0-0.603,0.047-1.135,0.134-1.602c0.088-0.462,0.234-0.854,0.433-1.176
	c0.199-0.315,0.456-0.555,0.771-0.725c0.315-0.162,0.702-0.244,1.151-0.244c0.264,0,0.479,0.047,0.66,0.133
	c0.175,0.095,0.321,0.211,0.434,0.357c0.11,0.146,0.187,0.315,0.238,0.497c0.048,0.181,0.07,0.368,0.07,0.556
	c0.146,0,0.287-0.019,0.415-0.06c0.123-0.041,0.234-0.093,0.327-0.163c0.094-0.076,0.17-0.164,0.222-0.263
	c0.053-0.106,0.076-0.222,0.076-0.351c0-0.193-0.046-0.369-0.146-0.533c-0.1-0.162-0.252-0.303-0.45-0.426
	c-0.204-0.123-0.455-0.217-0.753-0.281C273.766,39.217,273.41,39.182,273,39.182 M262.407,47.966c0.356,0,0.661-0.041,0.924-0.117
	s0.485-0.176,0.66-0.293c0.175-0.115,0.304-0.245,0.392-0.385c0.087-0.135,0.128-0.264,0.128-0.387c0-0.099-0.022-0.187-0.076-0.262
	l-0.151-0.146c-0.07,0.111-0.157,0.21-0.274,0.31c-0.105,0.099-0.233,0.193-0.38,0.269c-0.146,0.076-0.304,0.141-0.479,0.188
	c-0.183,0.047-0.374,0.07-0.579,0.07c-0.286,0-0.538-0.047-0.754-0.146c-0.217-0.094-0.403-0.24-0.55-0.445
	c-0.151-0.203-0.269-0.461-0.345-0.776c-0.082-0.31-0.129-0.685-0.134-1.122h3.985v-0.549c0-0.475-0.059-0.889-0.17-1.245
	c-0.116-0.356-0.28-0.655-0.496-0.894c-0.217-0.24-0.474-0.416-0.783-0.539c-0.311-0.123-0.655-0.18-1.04-0.18
	c-0.849,0-1.502,0.279-1.964,0.846c-0.462,0.568-0.69,1.41-0.69,2.525c0,0.521,0.065,0.982,0.193,1.385
	c0.123,0.41,0.304,0.754,0.544,1.035c0.238,0.28,0.532,0.49,0.876,0.637C261.588,47.89,261.974,47.966,262.407,47.966
	 M262.26,41.958c0.24,0,0.444,0.052,0.608,0.152c0.17,0.099,0.304,0.244,0.402,0.432c0.101,0.188,0.177,0.408,0.223,0.672
	c0.047,0.263,0.069,0.55,0.069,0.865h-2.752c0.041-0.695,0.182-1.221,0.422-1.584C261.471,42.139,261.817,41.958,262.26,41.958
	 M252.094,41.934h0.035c0.117,0,0.216,0.013,0.304,0.03l0.229,0.1l0.175,0.198c0.052,0.082,0.099,0.187,0.146,0.31l1.923,5.277
	h1.092l1.888-4.979c0.076-0.193,0.141-0.346,0.205-0.469c0.059-0.123,0.122-0.216,0.188-0.285l0.222-0.146
	c0.082-0.023,0.181-0.036,0.298-0.036h0.146v-0.502h-2.566v0.502h0.088c0.263,0,0.462,0.048,0.59,0.142
	c0.136,0.093,0.199,0.244,0.199,0.449l-0.029,0.233c-0.012,0.088-0.041,0.183-0.082,0.28l-0.858,2.332
	c-0.054,0.146-0.111,0.293-0.17,0.451c-0.064,0.158-0.122,0.31-0.175,0.455c-0.059,0.152-0.111,0.293-0.152,0.416
	c-0.047,0.127-0.082,0.232-0.1,0.32h-0.041c-0.018-0.1-0.041-0.229-0.081-0.368c-0.041-0.151-0.082-0.304-0.13-0.468
	c-0.052-0.163-0.104-0.327-0.156-0.502c-0.054-0.164-0.106-0.322-0.158-0.462l-0.813-2.263l-0.07-0.232l-0.023-0.205
	c0-0.199,0.059-0.345,0.181-0.438c0.117-0.094,0.299-0.142,0.538-0.142h0.152v-0.502h-2.992V41.934z M249.469,39.492
	c0,0.141,0.018,0.258,0.052,0.351c0.035,0.094,0.082,0.17,0.146,0.228l0.216,0.129c0.082,0.023,0.17,0.035,0.27,0.035
	c0.094,0,0.181-0.012,0.263-0.035l0.217-0.129c0.059-0.058,0.105-0.134,0.14-0.228c0.041-0.093,0.059-0.21,0.059-0.351
	s-0.018-0.258-0.059-0.351c-0.034-0.094-0.081-0.17-0.146-0.228l-0.211-0.123c-0.082-0.023-0.169-0.035-0.263-0.035
	c-0.1,0-0.188,0.012-0.27,0.035l-0.216,0.123c-0.064,0.058-0.111,0.134-0.146,0.228C249.487,39.234,249.469,39.351,249.469,39.492
	 M248.657,47.346h-0.158v0.503h3.402v-0.503h-0.158c-0.135,0-0.257-0.012-0.38-0.028c-0.123-0.019-0.223-0.06-0.311-0.117
	c-0.093-0.064-0.163-0.152-0.21-0.264c-0.059-0.111-0.082-0.263-0.082-0.449v-5.056h-2.139v0.502h0.035
	c0.135,0,0.257,0.013,0.374,0.03c0.123,0.018,0.228,0.059,0.315,0.117c0.087,0.058,0.158,0.14,0.21,0.251
	c0.054,0.104,0.082,0.245,0.082,0.421v3.792c0,0.176-0.028,0.315-0.082,0.427c-0.052,0.105-0.123,0.188-0.21,0.24
	c-0.088,0.052-0.192,0.093-0.315,0.111C248.914,47.34,248.792,47.346,248.657,47.346 M245.343,47.966
	c0.356,0,0.677-0.041,0.97-0.117c0.286-0.076,0.537-0.199,0.742-0.352c0.204-0.163,0.368-0.355,0.479-0.59
	c0.11-0.233,0.17-0.508,0.17-0.817c0-0.252-0.035-0.468-0.106-0.661c-0.069-0.193-0.175-0.361-0.32-0.514
	c-0.146-0.152-0.333-0.293-0.562-0.422c-0.228-0.127-0.497-0.256-0.812-0.391c-0.264-0.111-0.491-0.205-0.679-0.293
	c-0.192-0.087-0.345-0.181-0.462-0.273c-0.123-0.094-0.21-0.193-0.263-0.305s-0.082-0.246-0.082-0.397
	c0-0.14,0.024-0.269,0.065-0.386c0.04-0.116,0.11-0.215,0.203-0.304c0.089-0.088,0.205-0.151,0.352-0.198
	c0.146-0.047,0.314-0.07,0.52-0.07c0.356,0,0.613,0.111,0.783,0.333c0.164,0.222,0.245,0.532,0.245,0.935
	c0.275,0,0.491-0.064,0.644-0.193c0.146-0.133,0.222-0.309,0.222-0.525c0-0.146-0.035-0.286-0.111-0.42
	c-0.076-0.135-0.187-0.252-0.333-0.352c-0.146-0.099-0.333-0.181-0.549-0.24c-0.216-0.057-0.468-0.086-0.754-0.086
	c-0.339,0-0.649,0.035-0.923,0.111c-0.275,0.075-0.516,0.18-0.713,0.326c-0.199,0.141-0.352,0.316-0.456,0.526
	c-0.111,0.21-0.164,0.45-0.164,0.725c0,0.263,0.035,0.485,0.11,0.679c0.076,0.187,0.188,0.355,0.333,0.502
	c0.146,0.146,0.34,0.285,0.567,0.414c0.228,0.123,0.491,0.258,0.801,0.393c0.286,0.122,0.526,0.232,0.72,0.333
	c0.191,0.099,0.344,0.192,0.454,0.286c0.111,0.094,0.188,0.193,0.234,0.304c0.041,0.104,0.064,0.233,0.064,0.38
	c0,0.158-0.029,0.311-0.088,0.444s-0.14,0.245-0.251,0.345c-0.111,0.094-0.252,0.169-0.414,0.223
	c-0.164,0.051-0.352,0.075-0.567,0.075c-0.24,0-0.444-0.041-0.608-0.116c-0.17-0.082-0.304-0.193-0.402-0.328
	c-0.101-0.141-0.177-0.304-0.218-0.484c-0.04-0.182-0.063-0.38-0.063-0.592l-0.234,0.041l-0.245,0.13
	c-0.075,0.063-0.14,0.146-0.192,0.257c-0.054,0.105-0.082,0.24-0.082,0.396c0,0.211,0.047,0.393,0.141,0.557
	c0.093,0.152,0.228,0.285,0.397,0.396c0.169,0.105,0.38,0.188,0.625,0.234C244.77,47.943,245.045,47.966,245.343,47.966
	 M241.048,47.849v-0.503h-0.334c-0.134,0-0.257-0.012-0.374-0.022c-0.122-0.024-0.227-0.06-0.314-0.111
	c-0.089-0.053-0.158-0.135-0.21-0.24c-0.054-0.111-0.082-0.251-0.082-0.427v-1.882c0-0.151,0.006-0.321,0.022-0.508
	c0.019-0.188,0.041-0.375,0.082-0.562c0.035-0.192,0.082-0.374,0.14-0.556c0.064-0.18,0.141-0.338,0.223-0.479
	c0.094-0.135,0.192-0.246,0.31-0.333c0.117-0.082,0.251-0.122,0.397-0.122c0.233,0,0.397,0.069,0.491,0.215
	c0.094,0.146,0.141,0.387,0.141,0.719c0.204,0,0.374-0.022,0.514-0.063c0.141-0.041,0.257-0.1,0.346-0.176
	c0.087-0.076,0.151-0.163,0.197-0.269c0.041-0.105,0.06-0.223,0.06-0.345c0-0.274-0.105-0.491-0.316-0.643
	c-0.216-0.152-0.537-0.228-0.976-0.228c-0.264,0-0.485,0.034-0.66,0.098c-0.176,0.07-0.322,0.164-0.438,0.281
	c-0.123,0.123-0.223,0.258-0.304,0.416c-0.082,0.157-0.164,0.326-0.24,0.508h-0.058l-0.229-1.187h-1.841v0.502h0.035
	c0.134,0,0.257,0.013,0.38,0.03c0.117,0.018,0.222,0.059,0.31,0.117c0.088,0.058,0.164,0.14,0.217,0.244
	c0.052,0.111,0.076,0.252,0.076,0.428v3.734c0,0.187-0.024,0.338-0.076,0.449c-0.053,0.111-0.123,0.199-0.211,0.258
	c-0.087,0.063-0.193,0.104-0.31,0.123c-0.123,0.017-0.252,0.028-0.386,0.028h-0.035v0.503H241.048z M235.914,46.545v-5.113h-2.139
	v0.502h0.034c0.136,0,0.264,0.013,0.381,0.03c0.122,0.018,0.222,0.059,0.315,0.117c0.087,0.063,0.158,0.152,0.21,0.263
	c0.053,0.116,0.076,0.269,0.076,0.455v2.467c0,0.286-0.029,0.55-0.088,0.789s-0.146,0.438-0.269,0.606
	c-0.123,0.171-0.28,0.305-0.468,0.398c-0.192,0.094-0.421,0.141-0.684,0.141c-0.239,0-0.444-0.035-0.603-0.111
	c-0.163-0.07-0.292-0.176-0.385-0.316c-0.1-0.14-0.164-0.309-0.205-0.514c-0.041-0.204-0.063-0.432-0.063-0.695v-4.132h-2.146v0.502
	h0.035c0.135,0,0.257,0.013,0.38,0.03c0.117,0.018,0.222,0.059,0.311,0.117c0.087,0.058,0.162,0.14,0.216,0.244
	c0.053,0.111,0.076,0.252,0.076,0.428v2.869c0,0.408,0.047,0.76,0.134,1.058c0.088,0.298,0.211,0.538,0.38,0.729
	c0.17,0.193,0.374,0.334,0.62,0.422c0.245,0.088,0.525,0.135,0.841,0.135c0.193,0,0.38-0.012,0.561-0.047
	c0.182-0.024,0.352-0.082,0.516-0.164c0.163-0.076,0.32-0.188,0.467-0.327c0.146-0.14,0.275-0.321,0.397-0.549h0.059l0.158,0.97
	h1.898v-0.503h-0.035c-0.134,0-0.257-0.012-0.374-0.022c-0.122-0.024-0.228-0.06-0.315-0.111c-0.087-0.053-0.157-0.135-0.21-0.24
	C235.943,46.861,235.914,46.721,235.914,46.545 M227.114,47.966c0.339,0,0.637-0.035,0.888-0.105
	c0.251-0.064,0.467-0.152,0.637-0.264c0.169-0.111,0.292-0.232,0.38-0.367s0.128-0.275,0.128-0.41c0-0.11-0.017-0.203-0.058-0.279
	l-0.146-0.188c-0.136,0.245-0.346,0.444-0.62,0.602c-0.274,0.158-0.603,0.234-0.971,0.234c-0.643,0-1.104-0.211-1.385-0.625
	c-0.286-0.416-0.426-1.053-0.426-1.9c0-0.531,0.035-0.975,0.104-1.332c0.07-0.356,0.17-0.637,0.305-0.848
	c0.134-0.211,0.292-0.356,0.479-0.443c0.182-0.088,0.392-0.129,0.619-0.129c0.205,0,0.369,0.035,0.503,0.111
	c0.129,0.069,0.234,0.17,0.311,0.297c0.075,0.123,0.128,0.27,0.156,0.438c0.03,0.17,0.048,0.345,0.048,0.532
	c0.356,0,0.619-0.059,0.801-0.17c0.181-0.11,0.269-0.31,0.269-0.584c0-0.204-0.064-0.385-0.187-0.537
	c-0.123-0.158-0.287-0.287-0.485-0.387c-0.199-0.099-0.421-0.174-0.667-0.222c-0.251-0.053-0.496-0.075-0.748-0.075
	c-0.379,0-0.729,0.053-1.052,0.164c-0.327,0.11-0.607,0.291-0.847,0.555c-0.24,0.263-0.428,0.607-0.562,1.039
	c-0.134,0.428-0.205,0.965-0.205,1.602c0,0.591,0.071,1.093,0.205,1.508s0.321,0.754,0.562,1.018
	c0.239,0.263,0.531,0.461,0.864,0.584S226.715,47.966,227.114,47.966 M220.761,47.966c0.357,0,0.66-0.041,0.923-0.117
	c0.264-0.076,0.485-0.176,0.661-0.293c0.175-0.115,0.305-0.245,0.392-0.385c0.088-0.135,0.129-0.264,0.129-0.387
	c0-0.099-0.023-0.187-0.076-0.262l-0.152-0.146c-0.069,0.111-0.158,0.21-0.274,0.31c-0.105,0.099-0.233,0.193-0.38,0.269
	c-0.146,0.076-0.304,0.141-0.479,0.188c-0.181,0.047-0.374,0.07-0.578,0.07c-0.287,0-0.538-0.047-0.754-0.146
	c-0.216-0.094-0.403-0.24-0.55-0.445c-0.151-0.203-0.269-0.461-0.344-0.776c-0.082-0.31-0.129-0.685-0.136-1.122h3.986v-0.549
	c0-0.475-0.058-0.889-0.17-1.245c-0.116-0.356-0.28-0.655-0.496-0.894c-0.217-0.24-0.474-0.416-0.783-0.539s-0.654-0.18-1.041-0.18
	c-0.847,0-1.502,0.279-1.963,0.846c-0.462,0.568-0.689,1.41-0.689,2.525c0,0.521,0.063,0.982,0.192,1.385
	c0.123,0.41,0.305,0.754,0.543,1.035c0.24,0.28,0.532,0.49,0.877,0.637C219.944,47.89,220.33,47.966,220.761,47.966 M220.616,41.958
	c0.24,0,0.443,0.052,0.607,0.152c0.169,0.099,0.305,0.244,0.403,0.432s0.175,0.408,0.222,0.672c0.047,0.263,0.07,0.55,0.07,0.865
	h-2.752c0.041-0.695,0.181-1.221,0.42-1.584C219.827,42.139,220.171,41.958,220.616,41.958 M212.285,43.518v-3.641h0.812
	c0.339,0,0.626,0.034,0.865,0.1c0.234,0.064,0.427,0.163,0.573,0.31c0.146,0.141,0.257,0.322,0.321,0.55
	c0.064,0.222,0.1,0.491,0.1,0.812c0,0.311-0.03,0.586-0.094,0.818c-0.059,0.234-0.158,0.427-0.299,0.585
	c-0.14,0.157-0.326,0.274-0.561,0.351c-0.234,0.075-0.526,0.116-0.877,0.116H212.285z M216.119,46.388l-1.644-2.595
	c0.211-0.07,0.421-0.164,0.633-0.281c0.21-0.117,0.396-0.263,0.565-0.438c0.17-0.174,0.304-0.379,0.404-0.625
	c0.104-0.233,0.157-0.515,0.157-0.836c0-0.771-0.251-1.35-0.76-1.735c-0.509-0.38-1.279-0.572-2.313-0.572h-3.221v0.502h0.151
	c0.135,0,0.257,0.013,0.374,0.029c0.123,0.019,0.229,0.053,0.316,0.11c0.088,0.06,0.158,0.142,0.21,0.252
	c0.053,0.105,0.082,0.246,0.082,0.422v5.925c0,0.176-0.029,0.315-0.082,0.427c-0.052,0.105-0.122,0.188-0.21,0.24
	c-0.088,0.052-0.193,0.093-0.316,0.111c-0.117,0.017-0.239,0.022-0.374,0.022h-0.151v0.503h3.482v-0.503h-0.157
	c-0.135,0-0.257-0.006-0.38-0.022c-0.117-0.019-0.222-0.06-0.31-0.111c-0.088-0.053-0.158-0.135-0.21-0.24
	c-0.054-0.111-0.082-0.251-0.082-0.427V44.08h0.993l1.618,2.693c0.136,0.229,0.264,0.409,0.387,0.551
	c0.117,0.14,0.257,0.25,0.427,0.326c0.169,0.076,0.368,0.129,0.613,0.158c0.239,0.029,0.544,0.041,0.918,0.041h0.169v-0.503h-0.035
	c-0.251,0-0.473-0.082-0.666-0.239C216.515,46.949,216.323,46.709,216.119,46.388 M207.275,44.056c0-0.474,0.018-0.947,0.059-1.408
	c0.035-0.462,0.117-0.9,0.239-1.315c0.123-0.414,0.31-0.794,0.55-1.14c0.245-0.351,0.572-0.648,0.98-0.899v-0.538
	c-0.549,0.216-1.016,0.479-1.407,0.795c-0.393,0.305-0.707,0.678-0.958,1.105c-0.246,0.426-0.428,0.922-0.538,1.478
	c-0.111,0.562-0.17,1.204-0.17,1.923s0.059,1.362,0.17,1.924c0.11,0.565,0.292,1.063,0.538,1.489
	c0.251,0.433,0.565,0.806,0.958,1.116c0.392,0.31,0.858,0.578,1.407,0.795V48.83c-0.408-0.25-0.735-0.549-0.98-0.898
	c-0.24-0.352-0.427-0.736-0.55-1.152c-0.122-0.414-0.204-0.853-0.239-1.314C207.292,45.003,207.275,44.529,207.275,44.056
	 M185.494,47.201c-0.532,0-0.912-0.211-1.14-0.631c-0.228-0.422-0.345-1.059-0.345-1.906c0-0.414,0.029-0.788,0.082-1.11
	c0.052-0.321,0.14-0.59,0.263-0.806c0.116-0.217,0.269-0.387,0.455-0.497c0.188-0.111,0.409-0.169,0.672-0.169
	c0.316,0,0.579,0.058,0.789,0.169c0.211,0.11,0.381,0.274,0.504,0.491c0.129,0.216,0.222,0.484,0.269,0.806
	c0.058,0.321,0.082,0.69,0.082,1.104c0,0.433-0.024,0.807-0.082,1.129c-0.047,0.32-0.14,0.584-0.263,0.795
	c-0.129,0.209-0.299,0.367-0.51,0.467C186.067,47.148,185.803,47.201,185.494,47.201 M188.247,46.535v-7.779h-2.204v0.503h0.1
	c0.135,0,0.258,0.012,0.374,0.022c0.123,0.024,0.229,0.06,0.315,0.117c0.088,0.06,0.158,0.141,0.211,0.252
	c0.058,0.105,0.082,0.245,0.082,0.42v0.982c0,0.07,0.005,0.182,0.011,0.327c0.006,0.14,0.019,0.292,0.024,0.438
	c0.011,0.17,0.022,0.356,0.035,0.549h-0.07c-0.088-0.157-0.188-0.297-0.304-0.426c-0.117-0.129-0.252-0.24-0.398-0.334
	c-0.152-0.093-0.321-0.162-0.508-0.216c-0.188-0.053-0.398-0.075-0.625-0.075c-0.393,0-0.743,0.063-1.047,0.198
	c-0.303,0.128-0.562,0.327-0.766,0.603c-0.205,0.273-0.361,0.619-0.468,1.039c-0.104,0.422-0.157,0.918-0.157,1.496
	c0,0.573,0.053,1.069,0.157,1.484c0.106,0.415,0.263,0.76,0.468,1.035c0.204,0.27,0.463,0.467,0.766,0.596
	c0.304,0.135,0.654,0.199,1.047,0.199c0.232,0,0.444-0.03,0.631-0.088c0.188-0.053,0.356-0.135,0.502-0.24
	c0.146-0.1,0.281-0.229,0.398-0.374c0.11-0.146,0.216-0.31,0.304-0.491h0.046l0.129,1.076h2.028v-0.503h-0.101
	c-0.134,0-0.257-0.012-0.374-0.028c-0.122-0.019-0.227-0.054-0.314-0.111c-0.088-0.059-0.164-0.141-0.21-0.252
	C188.276,46.849,188.247,46.709,188.247,46.535 M178.156,47.201c-0.532,0-0.912-0.211-1.14-0.631
	c-0.228-0.422-0.345-1.059-0.345-1.906c0-0.414,0.029-0.788,0.082-1.11c0.052-0.321,0.14-0.59,0.263-0.806
	c0.116-0.217,0.269-0.387,0.455-0.497c0.188-0.111,0.409-0.169,0.672-0.169c0.316,0,0.579,0.058,0.789,0.169
	c0.211,0.11,0.38,0.274,0.503,0.491c0.13,0.216,0.223,0.484,0.27,0.806c0.058,0.321,0.082,0.69,0.082,1.104
	c0,0.433-0.024,0.807-0.082,1.129c-0.047,0.32-0.14,0.584-0.263,0.795c-0.13,0.209-0.299,0.367-0.51,0.467
	C178.728,47.148,178.465,47.201,178.156,47.201 M180.909,46.535v-7.779h-2.204v0.503h0.1c0.134,0,0.257,0.012,0.374,0.022
	c0.123,0.024,0.229,0.06,0.315,0.117c0.088,0.06,0.158,0.141,0.211,0.252c0.058,0.105,0.082,0.245,0.082,0.42v0.982
	c0,0.07,0.005,0.182,0.011,0.327c0.006,0.14,0.019,0.292,0.024,0.438c0.011,0.17,0.022,0.356,0.034,0.549h-0.069
	c-0.088-0.157-0.188-0.297-0.304-0.426c-0.117-0.129-0.252-0.24-0.398-0.334c-0.152-0.093-0.321-0.162-0.508-0.216
	c-0.188-0.053-0.397-0.075-0.625-0.075c-0.393,0-0.743,0.063-1.047,0.198c-0.304,0.128-0.562,0.327-0.766,0.603
	c-0.205,0.273-0.361,0.619-0.468,1.039c-0.104,0.422-0.157,0.918-0.157,1.496c0,0.573,0.053,1.069,0.157,1.484
	c0.106,0.415,0.263,0.76,0.468,1.035c0.204,0.27,0.462,0.467,0.766,0.596c0.304,0.135,0.654,0.199,1.047,0.199
	c0.232,0,0.443-0.03,0.631-0.088c0.187-0.053,0.355-0.135,0.502-0.24c0.146-0.1,0.281-0.229,0.398-0.374
	c0.11-0.146,0.216-0.31,0.304-0.491h0.046l0.129,1.076h2.028v-0.503h-0.1c-0.135,0-0.258-0.012-0.375-0.028
	c-0.122-0.019-0.227-0.054-0.314-0.111c-0.088-0.059-0.164-0.141-0.21-0.252C180.937,46.849,180.909,46.709,180.909,46.535
	 M169.771,44.629c0-0.445,0.03-0.836,0.089-1.169s0.151-0.614,0.28-0.842c0.128-0.223,0.298-0.392,0.502-0.502
	c0.205-0.111,0.462-0.17,0.761-0.17c0.298,0,0.555,0.059,0.766,0.17c0.204,0.11,0.374,0.279,0.502,0.502
	c0.129,0.228,0.222,0.509,0.281,0.842c0.058,0.333,0.087,0.724,0.087,1.169c0,0.444-0.029,0.835-0.081,1.174
	c-0.059,0.339-0.152,0.62-0.281,0.849c-0.129,0.228-0.298,0.402-0.503,0.52c-0.204,0.117-0.461,0.175-0.759,0.175
	s-0.556-0.058-0.76-0.175c-0.21-0.117-0.38-0.292-0.51-0.52c-0.134-0.229-0.227-0.51-0.285-0.849S169.771,45.074,169.771,44.629
	 M174.202,44.629c0-0.562-0.064-1.047-0.193-1.468c-0.122-0.408-0.303-0.76-0.549-1.028c-0.234-0.28-0.526-0.479-0.871-0.619
	c-0.344-0.129-0.729-0.198-1.163-0.198c-0.929,0-1.624,0.274-2.098,0.817c-0.474,0.544-0.713,1.379-0.713,2.496
	c0,0.562,0.064,1.052,0.192,1.466c0.123,0.421,0.311,0.771,0.551,1.047c0.238,0.274,0.524,0.485,0.869,0.619
	c0.346,0.134,0.731,0.205,1.163,0.205c0.918,0,1.619-0.275,2.099-0.824C173.962,46.592,174.202,45.756,174.202,44.629
	 M160.81,47.201c-0.531,0-0.911-0.211-1.14-0.631c-0.228-0.422-0.345-1.059-0.345-1.906c0-0.414,0.028-0.788,0.082-1.11
	c0.053-0.321,0.14-0.59,0.263-0.806c0.117-0.217,0.27-0.387,0.456-0.497c0.187-0.111,0.409-0.169,0.672-0.169
	c0.316,0,0.578,0.058,0.789,0.169c0.21,0.11,0.38,0.274,0.502,0.491c0.129,0.216,0.223,0.484,0.27,0.806
	c0.059,0.321,0.082,0.69,0.082,1.104c0,0.433-0.023,0.807-0.082,1.129c-0.047,0.32-0.141,0.584-0.264,0.795
	c-0.128,0.209-0.298,0.367-0.508,0.467C161.382,47.148,161.12,47.201,160.81,47.201 M163.562,46.535v-7.779h-2.202v0.503h0.099
	c0.135,0,0.257,0.012,0.374,0.022c0.123,0.024,0.228,0.06,0.316,0.117c0.088,0.06,0.157,0.141,0.21,0.252
	c0.059,0.105,0.082,0.245,0.082,0.42v0.982c0,0.07,0.006,0.182,0.012,0.327c0.006,0.14,0.017,0.292,0.022,0.438
	c0.013,0.17,0.024,0.356,0.035,0.549h-0.069c-0.089-0.157-0.188-0.297-0.305-0.426s-0.251-0.24-0.396-0.334
	c-0.152-0.093-0.322-0.162-0.509-0.216c-0.188-0.053-0.397-0.075-0.625-0.075c-0.393,0-0.742,0.063-1.047,0.198
	c-0.304,0.128-0.561,0.327-0.766,0.603c-0.204,0.273-0.362,0.619-0.467,1.039c-0.105,0.422-0.158,0.918-0.158,1.496
	c0,0.573,0.053,1.069,0.158,1.484c0.104,0.415,0.263,0.76,0.467,1.035c0.205,0.27,0.462,0.467,0.766,0.596
	c0.305,0.135,0.654,0.199,1.047,0.199c0.233,0,0.443-0.03,0.631-0.088c0.187-0.053,0.356-0.135,0.503-0.24
	c0.146-0.1,0.279-0.229,0.396-0.374c0.111-0.146,0.216-0.31,0.305-0.491h0.047l0.128,1.076h2.027v-0.503h-0.099
	c-0.134,0-0.257-0.012-0.374-0.028c-0.123-0.019-0.228-0.054-0.316-0.111c-0.087-0.059-0.162-0.141-0.21-0.252
	C163.591,46.849,163.562,46.709,163.562,46.535 M153.35,47.346h-0.035c-0.135,0-0.256-0.012-0.373-0.022
	c-0.123-0.024-0.229-0.06-0.316-0.111c-0.087-0.053-0.158-0.135-0.21-0.24c-0.054-0.111-0.082-0.251-0.082-0.427v-2.524
	c0-0.257,0.022-0.503,0.076-0.736c0.047-0.233,0.129-0.438,0.239-0.619c0.111-0.182,0.264-0.321,0.444-0.428
	c0.187-0.104,0.415-0.156,0.689-0.156c0.239,0,0.443,0.035,0.613,0.111c0.17,0.069,0.305,0.174,0.409,0.314
	c0.1,0.141,0.176,0.311,0.223,0.514c0.047,0.205,0.069,0.434,0.069,0.696v4.132h2.087v-0.503h-0.041
	c-0.135,0-0.257-0.012-0.367-0.028c-0.111-0.019-0.211-0.06-0.293-0.117c-0.081-0.064-0.146-0.152-0.188-0.264
	c-0.046-0.111-0.07-0.263-0.07-0.449v-2.83c0-0.408-0.047-0.758-0.134-1.057c-0.094-0.298-0.228-0.537-0.397-0.725
	c-0.176-0.193-0.386-0.333-0.632-0.422c-0.251-0.092-0.531-0.139-0.847-0.139c-0.193,0-0.374,0.017-0.55,0.047
	c-0.169,0.028-0.333,0.082-0.49,0.162c-0.151,0.076-0.298,0.188-0.433,0.334c-0.141,0.141-0.275,0.321-0.397,0.543h-0.059
	l-0.158-0.97h-1.935v0.502h0.035c0.135,0,0.258,0.013,0.375,0.03c0.123,0.018,0.228,0.059,0.315,0.117
	c0.087,0.058,0.158,0.14,0.21,0.251c0.053,0.104,0.082,0.245,0.082,0.421v3.734c0,0.187-0.029,0.338-0.082,0.449
	c-0.052,0.111-0.123,0.199-0.21,0.264c-0.088,0.058-0.187,0.099-0.31,0.117c-0.117,0.017-0.246,0.028-0.381,0.028h-0.099v0.503h3.22
	V47.346z M146.274,41.912c0.246,0,0.444,0.035,0.591,0.104c0.14,0.076,0.257,0.177,0.333,0.304c0.076,0.135,0.128,0.287,0.152,0.469
	c0.023,0.181,0.035,0.38,0.035,0.596v0.719l-0.994,0.035c-0.917,0.029-1.601,0.193-2.051,0.502c-0.45,0.311-0.678,0.778-0.678,1.415
	c0,0.327,0.047,0.606,0.14,0.847c0.094,0.24,0.222,0.438,0.392,0.596c0.163,0.158,0.362,0.275,0.59,0.352
	c0.228,0.076,0.473,0.117,0.736,0.117c0.252,0,0.462-0.03,0.643-0.088c0.176-0.053,0.333-0.135,0.474-0.234
	c0.14-0.099,0.269-0.222,0.385-0.361c0.117-0.141,0.24-0.293,0.363-0.463h0.099l0.187,1.029h1.619v-0.503h-0.035
	c-0.135,0-0.246-0.012-0.339-0.041c-0.099-0.028-0.175-0.075-0.234-0.14c-0.058-0.064-0.099-0.152-0.128-0.264
	c-0.03-0.11-0.041-0.246-0.041-0.414v-3.104c0-0.38-0.047-0.707-0.135-0.971c-0.093-0.262-0.234-0.473-0.415-0.637
	s-0.409-0.281-0.683-0.356c-0.275-0.07-0.591-0.104-0.959-0.104c-0.298,0-0.573,0.022-0.836,0.063
	c-0.263,0.041-0.491,0.11-0.689,0.198c-0.193,0.094-0.351,0.211-0.462,0.356c-0.111,0.147-0.169,0.322-0.169,0.526
	c0,0.275,0.087,0.474,0.257,0.585c0.175,0.11,0.426,0.169,0.76,0.169c0-0.188,0.011-0.362,0.04-0.52
	c0.03-0.158,0.082-0.299,0.164-0.416c0.076-0.117,0.187-0.209,0.333-0.273C145.859,41.941,146.046,41.912,146.274,41.912
	 M144.826,46.113c0-0.233,0.029-0.438,0.088-0.619c0.064-0.182,0.163-0.327,0.304-0.449c0.14-0.129,0.327-0.223,0.549-0.293
	c0.234-0.064,0.514-0.105,0.853-0.122l0.766-0.035v0.97c0,0.252-0.035,0.485-0.111,0.689c-0.076,0.205-0.181,0.38-0.316,0.525
	c-0.14,0.146-0.31,0.258-0.502,0.334c-0.199,0.076-0.421,0.117-0.661,0.117c-0.333,0-0.573-0.094-0.73-0.281
	C144.907,46.768,144.826,46.488,144.826,46.113"/>
</svg>
