<?xml version="1.0" encoding="iso-8859-1"?>
<!-- Generator: Adobe Illustrator 14.0.0, SVG Export Plug-In . SVG Version: 6.00 Build 43363)  -->
<!DOCTYPE svg PUBLIC "-//W3C//DTD SVG 1.1//EN" "http://www.w3.org/Graphics/SVG/1.1/DTD/svg11.dtd">
<svg version="1.1" id="Layer_1" xmlns="http://www.w3.org/2000/svg" xmlns:xlink="http://www.w3.org/1999/xlink" x="0px" y="0px"
	 width="137.682px" height="37.734px" viewBox="0 0 137.682 37.734" style="enable-background:new 0 0 137.682 37.734;"
	 xml:space="preserve">
<polygon points="1.285,19.328 1.285,19.764 2.019,19.833 2.134,19.994 0.906,26.373 0.723,26.533 0,26.591 0,27.027 2.88,27.027 
	2.88,26.568 2.077,26.511 1.916,26.339 2.478,23.413 4.096,23.413 4.234,23.585 4.188,24.411 4.681,24.411 5.175,21.887 
	4.67,21.887 4.406,22.713 4.2,22.885 2.582,22.885 3.155,19.855 5.473,19.855 5.588,20.039 5.588,21.13 6.139,21.13 6.494,19.328 
	"/>
<path d="M7.715,25.937l-1.131,0.252v0.191l0.626,0.114l-0.634,3.127h0.65L7.7,27.037c0.466-0.428,0.871-0.627,1.131-0.627
	c0.291,0,0.413,0.146,0.413,0.482c0,0.1-0.015,0.268-0.069,0.489l-0.329,1.414c-0.038,0.168-0.061,0.313-0.061,0.413
	c0,0.306,0.184,0.459,0.558,0.459c0.214,0,0.52-0.077,0.918-0.23v-0.214c-0.176,0.046-0.314,0.069-0.421,0.069
	c-0.252,0-0.397-0.131-0.397-0.375c0-0.114,0.038-0.282,0.084-0.504l0.26-1.186c0.061-0.275,0.107-0.488,0.107-0.68
	c0-0.375-0.245-0.612-0.642-0.612c-0.406,0-0.88,0.252-1.483,0.734l0.137-0.734H7.715z"/>
<path d="M14.396,25.307h7.711v-0.688h-7.711V25.307z M14.396,22.827h7.711v-0.688h-7.711V22.827z"/>
<path d="M28.553,11.394c0-5.496,1.285-8.422,3.156-8.744V2.031c-2.468,0.31-4.177,3.511-4.177,9.363s1.709,9.053,4.177,9.364v-0.619
	C29.838,19.816,28.553,16.89,28.553,11.394"/>
<polygon points="35.949,4.436 34.29,4.933 34.29,5.254 35.49,5.04 35.49,9.153 35.399,9.283 34.519,9.329 34.519,9.657 37.08,9.657 
	37.08,9.336 36.255,9.298 36.163,9.183 36.163,4.436 "/>
<polygon points="40.378,7.685 40.378,9.81 40.837,9.81 40.837,7.685 42.962,7.685 42.962,7.226 40.837,7.226 40.837,5.101 
	40.378,5.101 40.378,7.226 38.253,7.226 38.253,7.685 38.482,7.685 "/>
<polygon points="44.527,8.105 45.062,7.654 46.018,10.215 46.521,10.215 49.565,3.396 50.069,3.396 50.069,2.938 49.259,2.938 
	46.492,9.152 45.574,6.691 44.267,7.792 "/>
<line style="fill:none;stroke:#000000;stroke-width:0.459;stroke-miterlimit:10;" x1="49.868" y1="3.167" x2="54.122" y2="3.167"/>
<path d="M50.64,4.528v2.523c0.168-0.031,0.39-0.046,0.673-0.046c1.062,0,1.59,0.359,1.59,1.147c0,0.711-0.489,1.223-1.208,1.223
	c-0.168,0-0.344-0.031-0.512-0.092l-0.306-0.657l-0.183-0.023c-0.26,0-0.444,0.168-0.444,0.405c0,0.367,0.528,0.718,1.315,0.718
	c1.254,0,2.041-0.741,2.041-1.727c0-0.872-0.65-1.468-1.674-1.468c-0.245,0-0.52,0.038-0.818,0.122V5.124h2.263V4.528H50.64z"/>
<line style="fill:none;stroke:#000000;stroke-width:0.689;stroke-miterlimit:10;" x1="33.571" y1="11.666" x2="54.123" y2="11.666"/>
<path d="M42.797,18.188c1.689-1.345,2.615-2.209,2.615-3.173c0-0.863-0.604-1.444-1.591-1.444c-0.948,0-1.62,0.542-1.62,1.078
	c0,0.259,0.16,0.428,0.428,0.428c0.122,0,0.237-0.039,0.344-0.115v-0.818c0.229-0.13,0.451-0.184,0.68-0.184
	c0.635,0,1.017,0.429,1.017,1.155c0,1.001-0.956,1.835-2.63,3.195v0.482h3.54v-1.254h-0.344l-0.138,0.65H42.797z"/>
<path d="M59.116,11.394c0,5.496-1.285,8.422-3.156,8.745v0.619c2.468-0.311,4.177-3.512,4.177-9.364s-1.709-9.053-4.177-9.363V2.65
	C57.832,2.972,59.116,5.898,59.116,11.394"/>
<path d="M62.62,1.537l-1.131,0.252v0.191l0.626,0.115l-0.634,3.127h0.65l0.474-2.584c0.466-0.428,0.871-0.627,1.131-0.627
	c0.291,0,0.413,0.145,0.413,0.482c0,0.099-0.015,0.267-0.069,0.489l-0.329,1.414c-0.038,0.168-0.061,0.314-0.061,0.413
	c0,0.306,0.184,0.459,0.558,0.459c0.214,0,0.52-0.077,0.918-0.23V4.824c-0.176,0.046-0.314,0.069-0.421,0.069
	c-0.252,0-0.397-0.13-0.397-0.375c0-0.114,0.038-0.282,0.084-0.504l0.26-1.185c0.061-0.275,0.107-0.489,0.107-0.68
	c0-0.375-0.245-0.612-0.642-0.612c-0.406,0-0.88,0.252-1.484,0.734l0.138-0.734H62.62z"/>
<polygon points="68.043,3.249 68.043,5.374 68.502,5.374 68.502,3.249 70.627,3.249 70.627,2.79 68.502,2.79 68.502,0.665 
	68.043,0.665 68.043,2.79 65.918,2.79 65.918,3.249 66.147,3.249 "/>
<polygon points="73.458,0 71.799,0.497 71.799,0.818 73,0.604 73,4.717 72.909,4.847 72.028,4.893 72.028,5.221 74.589,5.221 
	74.589,4.9 73.764,4.862 73.672,4.747 73.672,0 "/>
<rect x="78.246" y="11.334" width="7.803" height="0.688"/>
<path d="M90.4,11.394c0-5.496,1.285-8.422,3.156-8.744V2.031c-2.468,0.31-4.177,3.511-4.177,9.363s1.709,9.053,4.177,9.364v-0.619
	C91.685,19.816,90.4,16.89,90.4,11.394"/>
<polygon points="97.794,4.436 96.136,4.933 96.136,5.254 97.335,5.04 97.335,9.153 97.245,9.283 96.365,9.329 96.365,9.657 
	98.925,9.657 98.925,9.336 98.101,9.298 98.009,9.183 98.009,4.436 "/>
<rect x="99.854" y="7.227" width="5.198" height="0.459"/>
<polygon points="106.373,8.105 106.908,7.654 107.864,10.215 108.368,10.215 111.411,3.396 111.915,3.396 111.915,2.938 
	111.105,2.938 108.337,9.152 107.419,6.691 106.113,7.792 "/>
<line style="fill:none;stroke:#000000;stroke-width:0.459;stroke-miterlimit:10;" x1="111.714" y1="3.167" x2="115.968" y2="3.167"/>
<path d="M112.487,4.528v2.523c0.168-0.031,0.39-0.046,0.673-0.046c1.062,0,1.59,0.359,1.59,1.147c0,0.711-0.489,1.223-1.208,1.223
	c-0.168,0-0.344-0.031-0.512-0.092l-0.307-0.657l-0.183-0.023c-0.26,0-0.444,0.168-0.444,0.405c0,0.367,0.528,0.718,1.315,0.718
	c1.254,0,2.041-0.741,2.041-1.727c0-0.872-0.65-1.468-1.674-1.468c-0.245,0-0.521,0.038-0.818,0.122V5.124h2.263V4.528H112.487z"/>
<line style="fill:none;stroke:#000000;stroke-width:0.689;stroke-miterlimit:10;" x1="95.417" y1="11.666" x2="115.969" y2="11.666"/>
<path d="M104.644,18.188c1.689-1.345,2.615-2.209,2.615-3.173c0-0.863-0.604-1.444-1.591-1.444c-0.948,0-1.62,0.542-1.62,1.078
	c0,0.259,0.16,0.428,0.428,0.428c0.122,0,0.237-0.039,0.344-0.115v-0.818c0.229-0.13,0.451-0.184,0.681-0.184
	c0.635,0,1.017,0.429,1.017,1.155c0,1.001-0.956,1.835-2.63,3.195v0.482h3.54v-1.254h-0.344l-0.139,0.65H104.644z"/>
<path d="M120.962,11.394c0,5.496-1.285,8.422-3.156,8.745v0.619c2.468-0.311,4.178-3.512,4.178-9.364s-1.71-9.053-4.178-9.363V2.65
	C119.677,2.972,120.962,5.898,120.962,11.394"/>
<path d="M124.466,1.537l-1.132,0.252v0.191l0.626,0.115l-0.634,3.127h0.65l0.474-2.584c0.466-0.428,0.871-0.627,1.131-0.627
	c0.291,0,0.413,0.145,0.413,0.482c0,0.099-0.015,0.267-0.068,0.489l-0.329,1.414c-0.038,0.168-0.062,0.314-0.062,0.413
	c0,0.306,0.185,0.459,0.559,0.459c0.214,0,0.52-0.077,0.918-0.23V4.824c-0.177,0.046-0.314,0.069-0.421,0.069
	c-0.252,0-0.397-0.13-0.397-0.375c0-0.114,0.038-0.282,0.084-0.504l0.26-1.185c0.062-0.275,0.107-0.489,0.107-0.68
	c0-0.375-0.245-0.612-0.643-0.612c-0.405,0-0.88,0.252-1.482,0.734l0.137-0.734H124.466z"/>
<polygon points="129.889,3.249 129.889,5.374 130.348,5.374 130.348,3.249 132.473,3.249 132.473,2.79 130.348,2.79 130.348,0.665 
	129.889,0.665 129.889,2.79 127.764,2.79 127.764,3.249 127.994,3.249 "/>
<polygon points="135.304,0 133.645,0.497 133.645,0.818 134.845,0.604 134.845,4.717 134.754,4.847 133.875,4.893 133.875,5.221 
	136.435,5.221 136.435,4.9 135.61,4.862 135.518,4.747 135.518,0 "/>
<line style="fill:none;stroke:#000000;stroke-width:0.689;stroke-miterlimit:10;" x1="26.648" y1="23.711" x2="137.682" y2="23.711"/>
<polygon points="75.801,34.566 76.604,33.89 78.039,37.734 78.796,37.734 83.363,27.499 84.12,27.499 84.12,26.81 82.904,26.81 
	78.75,36.139 77.374,32.443 75.411,34.097 "/>
<line style="fill:none;stroke:#000000;stroke-width:0.689;stroke-miterlimit:10;" x1="83.812" y1="27.153" x2="90.193" y2="27.153"/>
<path d="M84.971,29.189v3.787c0.252-0.046,0.585-0.068,1.01-0.068c1.595,0,2.386,0.539,2.386,1.721c0,1.066-0.733,1.836-1.813,1.836
	c-0.252,0-0.516-0.046-0.768-0.138l-0.459-0.987c-0.115-0.023-0.207-0.034-0.276-0.034c-0.39,0-0.665,0.253-0.665,0.608
	c0,0.551,0.792,1.078,1.973,1.078c1.882,0,3.064-1.112,3.064-2.594c0-1.308-0.976-2.203-2.513-2.203
	c-0.367,0-0.78,0.059-1.229,0.185v-2.295h3.397v-0.896H84.971z"/>
</svg>
