<?xml version="1.0" encoding="iso-8859-1"?>
<!-- Generator: Adobe Illustrator 14.0.0, SVG Export Plug-In . SVG Version: 6.00 Build 43363)  -->
<!DOCTYPE svg PUBLIC "-//W3C//DTD SVG 1.1//EN" "http://www.w3.org/Graphics/SVG/1.1/DTD/svg11.dtd">
<svg version="1.1" id="Layer_1" xmlns="http://www.w3.org/2000/svg" xmlns:xlink="http://www.w3.org/1999/xlink" x="0px" y="0px"
	 width="1666px" height="461px" viewBox="0 0 1666 461" enable-background="new 0 0 1666 461" xml:space="preserve">
<linearGradient id="SVGID_1_" gradientUnits="userSpaceOnUse" x1="37" y1="386" x2="1637" y2="386">
	<stop  offset="0" style="stop-color:#A97C50"/>
	<stop  offset="1" style="stop-color:#594A42"/>
</linearGradient>
<rect x="37" y="361" fill="url(#SVGID_1_)" stroke="#000000" stroke-width="2" width="1600" height="50"/>
<linearGradient id="SVGID_2_" gradientUnits="userSpaceOnUse" x1="367" y1="211" x2="407" y2="211">
	<stop  offset="0" style="stop-color:#C2B59B"/>
	<stop  offset="1" style="stop-color:#726658"/>
</linearGradient>
<path fill="url(#SVGID_2_)" stroke="#000000" d="M407,81c0,0,0.4-20-20-20s-20,20-20,20v280H407V81z"/>
<linearGradient id="SVGID_3_" gradientUnits="userSpaceOnUse" x1="817" y1="211" x2="857" y2="211">
	<stop  offset="0" style="stop-color:#C2B59B"/>
	<stop  offset="1" style="stop-color:#726658"/>
</linearGradient>
<path fill="url(#SVGID_3_)" stroke="#000000" d="M856.999,81c0,0,0.4-20-19.999-20s-19.999,20-19.999,20v280h39.998V81z"/>
<linearGradient id="SVGID_4_" gradientUnits="userSpaceOnUse" x1="1267" y1="211" x2="1307" y2="211">
	<stop  offset="0" style="stop-color:#C2B59B"/>
	<stop  offset="1" style="stop-color:#726658"/>
</linearGradient>
<path fill="url(#SVGID_4_)" stroke="#000000" d="M1306.999,81c0,0,0.4-20-19.999-20s-19.999,20-19.999,20v280h39.998V81z"/>
<linearGradient id="SVGID_5_" gradientUnits="userSpaceOnUse" x1="212" y1="336" x2="562" y2="336">
	<stop  offset="0.25" style="stop-color:#C73F43"/>
	<stop  offset="1" style="stop-color:#411213"/>
</linearGradient>
<rect x="212" y="311" fill="url(#SVGID_5_)" stroke="#000000" stroke-width="2" width="350" height="50"/>
<linearGradient id="SVGID_6_" gradientUnits="userSpaceOnUse" x1="262" y1="286" x2="512" y2="286">
	<stop  offset="0.25" style="stop-color:#DE4E45"/>
	<stop  offset="1" style="stop-color:#7A2917"/>
</linearGradient>
<rect x="262" y="261" fill="url(#SVGID_6_)" stroke="#000000" stroke-width="2" width="250" height="50"/>
<linearGradient id="SVGID_7_" gradientUnits="userSpaceOnUse" x1="299.5" y1="236" x2="474.5" y2="236">
	<stop  offset="0.25" style="stop-color:#FFF200"/>
	<stop  offset="1" style="stop-color:#75722E"/>
</linearGradient>
<rect x="299.5" y="211" fill="url(#SVGID_7_)" stroke="#000000" stroke-width="2" width="175" height="50"/>
<linearGradient id="SVGID_8_" gradientUnits="userSpaceOnUse" x1="337" y1="186" x2="437" y2="186">
	<stop  offset="0.25" style="stop-color:#72C599"/>
	<stop  offset="1" style="stop-color:#1C7B4A"/>
</linearGradient>
<rect x="337" y="161" fill="url(#SVGID_8_)" stroke="#000000" stroke-width="2" width="100" height="50"/>
</svg>
