<?xml version="1.0" encoding="iso-8859-1"?>
<!-- Generator: Adobe Illustrator 14.0.0, SVG Export Plug-In . SVG Version: 6.00 Build 43363)  -->
<!DOCTYPE svg PUBLIC "-//W3C//DTD SVG 1.1//EN" "http://www.w3.org/Graphics/SVG/1.1/DTD/svg11.dtd">
<svg version="1.1" id="Layer_1" xmlns="http://www.w3.org/2000/svg" xmlns:xlink="http://www.w3.org/1999/xlink" x="0px" y="0px"
	 width="557px" height="557px" viewBox="0 0 557 557" enable-background="new 0 0 557 557" xml:space="preserve">
<polygon fill="#BCBEC0" points="294,417 294,366 243,366 243,264 169,264 169,315 118.667,315 118.667,366 66,366 40,366 
	40,264.667 40,264 40,238 91,238 91,214 91,187 192,187 192,112 117,112 117,163 40,163 40,35 15,35 15,10 66,10 66,136 91,136 
	91,86 219,86 219,214 191.333,214 117,214 117,264 66,264 66,338 91,338 91,289 141,289 141,238 269,238 269,339 320,339 320,390 
	344,390 344,214 294,214 294,187 294,163 269,163 269,214 243,214 243,135.667 320,135.667 320,187 371,187 371,390 371,417 "/>
<g>
	<path fill-rule="evenodd" clip-rule="evenodd" d="M66,10c0,8.333,0,16.667,0,25c67.667,0,135.333,0,203,0c0,17,0,34,0,51
		c8.333,0,16.667,0,25,0c0-17,0-34,0-51c25.667,0,51.333,0,77,0c0,17,0,34,0,51c8,0,16,0,24,0c0-17,0-34,0-51
		c42.667,0,85.333,0,128,0c0,42.667,0,85.333,0,128c-17,0-34,0-51,0c0,8,0,16,0,24c17,0,34,0,51,0c0,42.667,0,85.333,0,128
		c-33.667,0-67.333,0-101,0c0,8,0,16,0,24c33.667,0,67.333,0,101,0c0,9,0,18,0,27c-17,0-34,0-51,0c0,8,0,16,0,24c17,0,34,0,51,0
		c0,42.666,0,85.334,0,128c-25.667,0-51.333,0-77,0c0-17,0-34,0-51c-8,0-16,0-24,0c0,17,0,34,0,51c-26,0-52,0-78,0c0-17,0-34,0-51
		c-8,0-16,0-24,0c0,17,0,34,0,51c-76.333,0-152.667,0-229,0c0-17,0-34,0-51c-8.333,0-16.667,0-25,0c0,17,0,34,0,51
		c-8.667,0-17.333,0-26,0c0-25.666,0-51.333,0-77c25.667,0,51.333,0,77,0c0,17,0,34,0,51c59,0,118,0,177,0c0-17,0-34,0-51
		c25.667,0,51.333,0,77,0c0,17,0,34,0,51c8,0,16,0,24,0c0-17,0-34,0-51c25.667,0,51.333,0,77,0c0,17,0,34,0,51
		c8.333,0,16.667,0,25,0c0-25,0-50,0-75c-17,0-34,0-51,0c0-17,0-34,0-51c-17,0-34,0-51,0c0-25.666,0-51.333,0-77c34,0,68,0,102,0
		c0-25,0-50,0-75c-17,0-34,0-51,0c0-26,0-52,0-78c17,0,34,0,51,0c0-25,0-50,0-75c-25,0-50,0-75,0c0,8.333,0,16.667,0,25
		c16.667,0,33.333,0,50,0c0,8.667,0,17.333,0,26c-42.667,0-85.333,0-128,0c0-17,0-34,0-51c-8,0-16,0-24,0c0,17,0,34,0,51
		c-25.667,0-51.333,0-77,0c0-17,0-34,0-51c-59,0-118,0-177,0c0,25,0,50,0,75c8.333,0,16.667,0,25,0c0-16.667,0-33.333,0-50
		c42.667,0,85.333,0,128,0c0,42.667,0,85.333,0,128c-34,0-68,0-102,0c0,16.667,0,33.333,0,50c-17,0-34,0-51,0c0,25,0,50,0,75
		c8.333,0,16.667,0,25,0c0-16.666,0-33.334,0-50c16.667,0,33.333,0,50,0c0-17,0-34,0-51c42.667,0,85.333,0,128,0
		c0,33.667,0,67.334,0,101c17,0,34,0,51,0c0,17,0,34,0,51c8,0,16,0,24,0c0-42,0-84,0-126c-8,0-16,0-24,0c0,17,0,34,0,51
		c-8.667,0-17.333,0-26,0c0-25.666,0-51.333,0-77c16.667,0,33.333,0,50,0c0-8,0-16,0-24c-16.667,0-33.333,0-50,0c0-17,0-34,0-51
		c-8.333,0-16.667,0-25,0c0,17,0,34,0,51c-8.667,0-17.333,0-26,0c0-26,0-52,0-78c59.666,0,119.334,0,179,0c0,9,0,18,0,27
		c-34,0-68,0-102,0c0,8,0,16,0,24c34,0,68,0,102,0c0,17,0,34,0,51c16.667,0,33.333,0,50,0c0,8.667,0,17.333,0,26
		c-25.667,0-51.333,0-77,0c0-16.667,0-33.333,0-50c-8,0-16,0-24,0c0,58.666,0,117.334,0,176c17,0,34,0,51,0c0,9,0,18,0,27
		c-42.667,0-85.333,0-128,0c0-17,0-34,0-51c-25,0-50,0-75,0c0,25,0,50,0,75c8,0,16,0,24,0c0-17,0-34,0-51c8.667,0,17.333,0,26,0
		c0,25.666,0,51.333,0,77c-25.667,0-51.333,0-77,0c0-16.666,0-33.334,0-50c-8,0-16,0-24,0c0,16.666,0,33.334,0,50c-9,0-18,0-27,0
		c0-16.666,0-33.334,0-50c-33.667,0-67.333,0-101,0c0-9,0-18,0-27c50.667,0,101.334,0,152,0c0-8,0-16,0-24c-17,0-34,0-51,0
		c0-9,0-18,0-27c17,0,34,0,51,0c0-16.666,0-33.334,0-50c9,0,18,0,27,0c0,16.666,0,33.334,0,50c8,0,16,0,24,0c0-25,0-50,0-75
		c-25,0-50,0-75,0c0,17,0,34,0,51c-17,0-34,0-51,0c0,17,0,34,0,51c-25.667,0-51.333,0-77,0c0-42.666,0-85.334,0-128c17,0,34,0,51,0
		c0-8,0-16,0-24c-17,0-34,0-51,0c0-9,0-18,0-27c33.667,0,67.333,0,101,0c0-17,0-34,0-51c9,0,18,0,27,0c0,17,0,34,0,51c8,0,16,0,24,0
		c0-25,0-50,0-75c-25,0-50,0-75,0c0,17,0,34,0,51c-25.667,0-51.333,0-77,0c0-51,0-77,0-128c-8.333,0-16.667,0-25,0
		c0,177.667,0,330.332,0,508c177.667,0,355.332,0,533,0c0-177.667,0-355.332,0-533C387.33,10,226.672,10,66,10z"/>
</g>
<g>
	<path id="p" fill="#010101" d="M257.06,202.524c0.236-0.633-0.087-1.336-0.72-1.572c-0.072-0.026-0.146-0.047-0.223-0.061v-0.633
		c2.362-0.113,4.185-2.117,4.071-4.479c-0.094-1.971-1.522-3.622-3.459-3.997v-0.229c3.346,0.451,5.695,3.529,5.245,6.876
		c-0.008,0.062-0.018,0.124-0.027,0.186c3.162,1.187,4.762,4.712,3.576,7.874c-0.022,0.059-0.045,0.117-0.069,0.176l-0.197-0.114
		c0.77-2.235-0.417-4.671-2.652-5.441c-1.866-0.644-3.928,0.071-4.996,1.731L257.06,202.524z M258.452,198.908
		c-1.486-1.182-3.59-1.182-5.076,0c-0.362-0.313-0.663-0.692-0.887-1.118c2.005-1.594,4.844-1.594,6.85,0
		C259.111,198.212,258.812,198.591,258.452,198.908z"/>
	<path id="p_1_" fill="#010101" d="M254.972,202.878c0.431,0.521,1.202,0.593,1.721,0.162c0.06-0.049,0.115-0.103,0.163-0.162
		l0.549,0.316c-1.083,2.102-0.258,4.683,1.842,5.767c1.754,0.903,3.9,0.492,5.194-0.999l0.196,0.114
		c-2.063,2.675-5.903,3.168-8.577,1.104c-0.049-0.038-0.099-0.077-0.147-0.117c-2.609,2.146-6.462,1.77-8.607-0.84
		c-0.04-0.048-0.079-0.098-0.117-0.147l0.197-0.114c1.55,1.786,4.254,1.977,6.039,0.426c1.489-1.294,1.901-3.439,0.997-5.193
		L254.972,202.878z M257.408,205.892c1.766-0.695,2.819-2.52,2.538-4.396c0.453-0.157,0.932-0.229,1.411-0.209
		c0.379,2.533-1.042,4.992-3.426,5.933C257.68,206.811,257.503,206.36,257.408,205.892z"/>
	<path id="p_2_" fill="#010101" d="M255.71,200.892c-0.665,0.113-1.114,0.745-1.002,1.41c0.014,0.076,0.033,0.15,0.061,0.223
		l-0.549,0.316c-1.278-1.988-3.927-2.564-5.916-1.285c-1.66,1.066-2.375,3.129-1.732,4.995l-0.197,0.114
		c-1.284-3.125,0.208-6.697,3.332-7.98c0.058-0.023,0.117-0.047,0.175-0.069c-0.553-3.331,1.699-6.481,5.031-7.033
		c0.062-0.011,0.124-0.02,0.186-0.028v0.229c-2.32,0.449-3.837,2.695-3.387,5.016c0.376,1.938,2.027,3.367,3.998,3.461V200.892z
		 M251.883,201.495c-0.282,1.877,0.771,3.701,2.538,4.396c-0.091,0.471-0.27,0.921-0.524,1.327c-2.384-0.94-3.804-3.399-3.425-5.933
		C250.95,201.271,251.428,201.343,251.883,201.495z"/>
</g>
</svg>
