<?xml version="1.0" encoding="iso-8859-1"?>
<!-- Generator: Adobe Illustrator 14.0.0, SVG Export Plug-In . SVG Version: 6.00 Build 43363)  -->
<!DOCTYPE svg PUBLIC "-//W3C//DTD SVG 1.1//EN" "http://www.w3.org/Graphics/SVG/1.1/DTD/svg11.dtd">
<svg version="1.1" id="Layer_1" xmlns="http://www.w3.org/2000/svg" xmlns:xlink="http://www.w3.org/1999/xlink" x="0px" y="0px"
	 width="800px" height="400.069px" viewBox="0 0 800 400.069" enable-background="new 0 0 800 400.069" xml:space="preserve">
<rect x="350" y="25" fill="#FCE3EE" stroke="#000000" width="100" height="50"/>
<g>
	<path d="M384.875,42.578l-0.32,4.125h-1.211l-0.32-4.125H384.875z M388.172,42.578l-0.32,4.125h-1.211l-0.32-4.125H388.172z"/>
	<path d="M395.164,54.156c-1.125,0-2.051-0.405-2.777-1.215s-1.09-1.892-1.09-3.246c0-1.37,0.353-2.45,1.059-3.242
		c0.706-0.792,1.657-1.188,2.855-1.188c1.135,0,2.065,0.403,2.789,1.211c0.724,0.808,1.086,1.88,1.086,3.219
		c0,1.38-0.357,2.469-1.07,3.266C397.302,53.758,396.352,54.156,395.164,54.156z M395.195,52.977c1.614,0,2.422-1.094,2.422-3.281
		c0-2.167-0.813-3.25-2.438-3.25c-1.609,0-2.414,1.083-2.414,3.25C392.766,51.883,393.575,52.977,395.195,52.977z"/>
	<path d="M406.93,54v-5.523c0-1.354-0.62-2.031-1.859-2.031c-1.599,0-2.398,1.036-2.398,3.109V54h-1.422v-8.578h1.148l0.211,1.156
		h0.078c0.536-0.875,1.411-1.313,2.625-1.313c2.026,0,3.039,1.044,3.039,3.133V54H406.93z"/>
	<path d="M413.68,42.578l-0.32,4.125h-1.211l-0.32-4.125H413.68z M416.977,42.578l-0.32,4.125h-1.211l-0.32-4.125H416.977z"/>
</g>
<rect x="125" y="125" fill="#D8D6EC" stroke="#000000" width="100" height="50"/>
<g>
	<path d="M159.875,142.578l-0.32,4.125h-1.211l-0.32-4.125H159.875z M163.172,142.578l-0.32,4.125h-1.211l-0.32-4.125H163.172z"/>
	<path d="M172.406,152.852h-0.063c-0.589,0.87-1.427,1.305-2.516,1.305c-1.047,0-1.869-0.39-2.465-1.168
		c-0.597-0.778-0.895-1.866-0.895-3.262c0-1.406,0.299-2.501,0.898-3.285c0.599-0.784,1.419-1.176,2.461-1.176
		c1.073,0,1.911,0.417,2.516,1.25h0.094c-0.063-0.672-0.094-1.094-0.094-1.266v-3.406h1.422V154h-1.148L172.406,152.852z
		 M172.344,150.047v-0.32c0-1.183-0.181-2.024-0.543-2.527c-0.362-0.503-0.939-0.754-1.73-0.754c-1.417,0-2.125,1.099-2.125,3.297
		c0,2.156,0.713,3.234,2.141,3.234c0.792,0,1.36-0.23,1.707-0.691C172.139,151.824,172.323,151.078,172.344,150.047z"/>
	<path d="M179.766,154.156c-1.125,0-2.051-0.405-2.777-1.215s-1.09-1.892-1.09-3.246c0-1.37,0.353-2.45,1.059-3.242
		c0.706-0.792,1.657-1.188,2.855-1.188c1.135,0,2.065,0.403,2.789,1.211c0.724,0.808,1.086,1.88,1.086,3.219
		c0,1.38-0.357,2.469-1.07,3.266C181.903,153.758,180.953,154.156,179.766,154.156z M179.797,152.977
		c1.614,0,2.422-1.094,2.422-3.281c0-2.167-0.813-3.25-2.438-3.25c-1.609,0-2.414,1.083-2.414,3.25
		C177.367,151.883,178.177,152.977,179.797,152.977z"/>
	<path d="M188.68,142.578l-0.32,4.125h-1.211l-0.32-4.125H188.68z M191.977,142.578l-0.32,4.125h-1.211l-0.32-4.125H191.977z"/>
</g>
<g>
	<g>
		<line fill="none" stroke="#000000" stroke-width="2" x1="450" y1="75" x2="571" y2="123.4"/>
		<polygon points="567.603,126.419 566.928,124.845 570.638,123.256 569.048,119.544 570.622,118.871 572.886,124.154 		"/>
	</g>
</g>
<g>
	<g>
		<line fill="none" stroke="#000000" stroke-width="2" x1="325" y1="275" x2="348" y2="321"/>
		<polygon points="343.456,320.999 343.997,319.374 347.826,320.651 349.103,316.821 350.726,317.363 348.908,322.816 		"/>
	</g>
</g>
<rect x="25" y="225" fill="#DFF2F7" stroke="#000000" width="100" height="50"/>
<g>
	<path d="M55.074,242.578l-0.32,4.125h-1.211l-0.32-4.125H55.074z M58.371,242.578l-0.32,4.125H56.84l-0.32-4.125H58.371z"/>
	<path d="M67.59,254l-0.289-1.188h-0.063c-0.401,0.505-0.813,0.855-1.234,1.051s-0.966,0.293-1.633,0.293
		c-0.849,0-1.515-0.224-1.996-0.672c-0.482-0.448-0.723-1.075-0.723-1.883c0-1.729,1.328-2.636,3.984-2.719l1.586-0.055v-0.539
		c0-1.229-0.636-1.844-1.906-1.844c-0.766,0-1.62,0.214-2.563,0.641l-0.492-1.07c1.021-0.5,2.018-0.75,2.992-0.75
		c1.182,0,2.038,0.227,2.566,0.68c0.528,0.453,0.793,1.18,0.793,2.18V254H67.59z M67.207,249.805l-1.266,0.055
		c-1.021,0.042-1.745,0.202-2.172,0.48c-0.427,0.278-0.641,0.704-0.641,1.277c0,0.927,0.521,1.391,1.563,1.391
		c0.766,0,1.376-0.212,1.832-0.637c0.456-0.425,0.684-1.022,0.684-1.793V249.805z"/>
	<path d="M77.129,254v-5.523c0-1.354-0.62-2.031-1.859-2.031c-1.599,0-2.398,1.036-2.398,3.109V254h-1.422v-8.578h1.148l0.211,1.156
		h0.078c0.536-0.875,1.411-1.313,2.625-1.313c2.026,0,3.039,1.044,3.039,3.133V254H77.129z"/>
	<path d="M86.809,252.852h-0.063c-0.589,0.87-1.427,1.305-2.516,1.305c-1.047,0-1.869-0.39-2.465-1.168
		c-0.597-0.778-0.895-1.866-0.895-3.262c0-1.406,0.299-2.501,0.898-3.285c0.599-0.784,1.419-1.176,2.461-1.176
		c1.073,0,1.911,0.417,2.516,1.25h0.094c-0.063-0.672-0.094-1.094-0.094-1.266v-3.406h1.422V254H87.02L86.809,252.852z
		 M86.746,250.047v-0.32c0-1.183-0.181-2.024-0.543-2.527c-0.362-0.503-0.939-0.754-1.73-0.754c-1.417,0-2.125,1.099-2.125,3.297
		c0,2.156,0.713,3.234,2.141,3.234c0.792,0,1.36-0.23,1.707-0.691C86.542,251.824,86.725,251.078,86.746,250.047z"/>
	<path d="M93.48,242.578l-0.32,4.125h-1.211l-0.32-4.125H93.48z M96.777,242.578l-0.32,4.125h-1.211l-0.32-4.125H96.777z"/>
</g>
<rect x="225" y="225" fill="#D8D6EC" stroke="#000000" width="100" height="50"/>
<g>
	<path d="M250.273,242.578l-0.32,4.125h-1.211l-0.32-4.125H250.273z M253.57,242.578l-0.32,4.125h-1.211l-0.32-4.125H253.57z"/>
	<path d="M262.727,254v-5.523c0-1.354-0.62-2.031-1.859-2.031c-1.599,0-2.398,1.036-2.398,3.109V254h-1.422v-12.156h1.422v3.609
		l-0.063,1.125h0.078c0.536-0.875,1.411-1.313,2.625-1.313c2.026,0,3.039,1.044,3.039,3.133V254H262.727z"/>
	<path d="M272.391,254l-0.289-1.188h-0.063c-0.401,0.505-0.813,0.855-1.234,1.051s-0.966,0.293-1.633,0.293
		c-0.849,0-1.515-0.224-1.996-0.672c-0.482-0.448-0.723-1.075-0.723-1.883c0-1.729,1.328-2.636,3.984-2.719l1.586-0.055v-0.539
		c0-1.229-0.636-1.844-1.906-1.844c-0.766,0-1.62,0.214-2.563,0.641l-0.492-1.07c1.021-0.5,2.018-0.75,2.992-0.75
		c1.182,0,2.038,0.227,2.566,0.68c0.528,0.453,0.793,1.18,0.793,2.18V254H272.391z M272.008,249.805l-1.266,0.055
		c-1.021,0.042-1.745,0.202-2.172,0.48c-0.427,0.278-0.641,0.704-0.641,1.277c0,0.927,0.521,1.391,1.563,1.391
		c0.766,0,1.376-0.212,1.832-0.637c0.456-0.425,0.684-1.022,0.684-1.793V249.805z"/>
	<path d="M281.93,254v-5.523c0-1.354-0.62-2.031-1.859-2.031c-1.599,0-2.398,1.036-2.398,3.109V254h-1.422v-8.578h1.148l0.211,1.156
		h0.078c0.536-0.875,1.411-1.313,2.625-1.313c2.026,0,3.039,1.044,3.039,3.133V254H281.93z"/>
	<path d="M293.398,245.422v0.883l-1.531,0.211c0.338,0.442,0.508,0.997,0.508,1.664c0,0.839-0.277,1.507-0.832,2.004
		s-1.327,0.746-2.316,0.746c-0.287,0-0.511-0.016-0.672-0.047c-0.521,0.292-0.781,0.638-0.781,1.039
		c0,0.438,0.419,0.656,1.258,0.656h1.461c0.906,0,1.599,0.2,2.078,0.602c0.479,0.401,0.719,0.974,0.719,1.719
		c0,1.964-1.472,2.945-4.414,2.945c-1.136,0-1.999-0.21-2.59-0.629c-0.591-0.419-0.887-1.007-0.887-1.762
		c0-1.104,0.625-1.808,1.875-2.109c-0.5-0.245-0.75-0.646-0.75-1.203c0-0.583,0.346-1.083,1.039-1.5
		c-0.464-0.192-0.828-0.512-1.094-0.957s-0.398-0.931-0.398-1.457c0-0.948,0.277-1.679,0.832-2.191s1.345-0.77,2.371-0.77
		c0.448,0,0.838,0.052,1.172,0.156H293.398z M290.008,253.859h-1.469c-1.198,0-1.797,0.516-1.797,1.547
		c0,0.906,0.706,1.359,2.117,1.359c2.057,0,3.086-0.581,3.086-1.742c0-0.458-0.13-0.767-0.391-0.926
		C291.294,253.938,290.778,253.859,290.008,253.859z M289.242,249.953c1.161,0,1.742-0.599,1.742-1.797
		c0-1.245-0.586-1.867-1.758-1.867s-1.758,0.63-1.758,1.891C287.469,249.362,288.06,249.953,289.242,249.953z"/>
	<path d="M298.281,242.578l-0.32,4.125h-1.211l-0.32-4.125H298.281z M301.578,242.578l-0.32,4.125h-1.211l-0.32-4.125H301.578z"/>
</g>
<rect x="575" y="125" fill="#D8D6EC" stroke="#000000" width="100" height="50"/>
<g>
	<path d="M585.871,142.578l-0.32,4.125h-1.211l-0.32-4.125H585.871z M589.168,142.578l-0.32,4.125h-1.211l-0.32-4.125H589.168z"/>
	<path d="M599.363,152.828v1.078c-0.677,0.167-1.333,0.25-1.969,0.25c-1.886,0-2.828-0.896-2.828-2.688v-4.977h-2.086v-0.734
		l2.086-0.383l0.602-2.242h0.82v2.289h3.422v1.07h-3.422v4.977c0,1.016,0.5,1.523,1.5,1.523
		C597.973,152.992,598.598,152.938,599.363,152.828z"/>
	<path d="M607.926,154v-5.523c0-1.354-0.62-2.031-1.859-2.031c-1.599,0-2.398,1.036-2.398,3.109V154h-1.422v-12.156h1.422v3.609
		l-0.063,1.125h0.078c0.536-0.875,1.411-1.313,2.625-1.313c2.026,0,3.039,1.044,3.039,3.133V154H607.926z"/>
	<path d="M618.871,145.617l-0.383,1.297c-0.641-0.234-1.224-0.352-1.75-0.352c-0.849,0-1.504,0.241-1.965,0.723
		s-0.691,1.179-0.691,2.09V154h-1.422v-8.578h1.156l0.172,1.57h0.063c0.396-0.62,0.82-1.063,1.273-1.328s1.01-0.398,1.672-0.398
		C617.61,145.266,618.235,145.383,618.871,145.617z"/>
	<path d="M628.762,149.984h-6.047c0.042,1.953,0.938,2.93,2.688,2.93c1.016,0,1.979-0.198,2.891-0.594v1.25
		c-0.865,0.391-1.813,0.586-2.844,0.586c-1.276,0-2.297-0.39-3.063-1.168s-1.148-1.851-1.148-3.215c0-1.386,0.353-2.483,1.059-3.293
		c0.706-0.81,1.649-1.215,2.832-1.215c1.104,0,1.985,0.349,2.645,1.047c0.659,0.698,0.988,1.628,0.988,2.789V149.984z
		 M622.746,148.828h4.477c0-1.589-0.708-2.383-2.125-2.383C623.665,146.445,622.881,147.239,622.746,148.828z"/>
	<path d="M636.793,154l-0.289-1.188h-0.063c-0.401,0.505-0.813,0.855-1.234,1.051s-0.966,0.293-1.633,0.293
		c-0.849,0-1.515-0.224-1.996-0.672c-0.482-0.448-0.723-1.075-0.723-1.883c0-1.729,1.328-2.636,3.984-2.719l1.586-0.055v-0.539
		c0-1.229-0.636-1.844-1.906-1.844c-0.766,0-1.62,0.214-2.563,0.641l-0.492-1.07c1.021-0.5,2.018-0.75,2.992-0.75
		c1.182,0,2.038,0.227,2.566,0.68c0.528,0.453,0.793,1.18,0.793,2.18V154H636.793z M636.41,149.805l-1.266,0.055
		c-1.021,0.042-1.745,0.202-2.172,0.48c-0.427,0.278-0.641,0.704-0.641,1.277c0,0.927,0.521,1.391,1.563,1.391
		c0.766,0,1.376-0.212,1.832-0.637c0.456-0.425,0.684-1.022,0.684-1.793V149.805z"/>
	<path d="M646.41,152.852h-0.063c-0.589,0.87-1.427,1.305-2.516,1.305c-1.047,0-1.869-0.39-2.465-1.168
		c-0.597-0.778-0.895-1.866-0.895-3.262c0-1.406,0.299-2.501,0.898-3.285c0.599-0.784,1.419-1.176,2.461-1.176
		c1.073,0,1.911,0.417,2.516,1.25h0.094c-0.063-0.672-0.094-1.094-0.094-1.266v-3.406h1.422V154h-1.148L646.41,152.852z
		 M646.348,150.047v-0.32c0-1.183-0.181-2.024-0.543-2.527c-0.362-0.503-0.939-0.754-1.73-0.754c-1.417,0-2.125,1.099-2.125,3.297
		c0,2.156,0.713,3.234,2.141,3.234c0.792,0,1.36-0.23,1.707-0.691C646.143,151.824,646.327,151.078,646.348,150.047z"/>
	<path d="M650.59,153.617v-1.297c1.005,0.448,1.969,0.672,2.891,0.672c1.432,0,2.148-0.422,2.148-1.266
		c0-0.297-0.128-0.555-0.383-0.773c-0.255-0.219-0.844-0.495-1.766-0.828c-1.214-0.453-1.978-0.868-2.293-1.246
		c-0.315-0.378-0.473-0.824-0.473-1.34c0-0.708,0.29-1.265,0.871-1.668c0.581-0.403,1.384-0.605,2.41-0.605
		c1.031,0,1.992,0.192,2.883,0.578l-0.469,1.164c-0.948-0.375-1.779-0.563-2.492-0.563c-1.229,0-1.844,0.347-1.844,1.039
		c0,0.317,0.131,0.571,0.395,0.762c0.263,0.19,0.868,0.454,1.816,0.793c1.099,0.401,1.829,0.796,2.191,1.184
		c0.362,0.388,0.543,0.863,0.543,1.426c0,0.781-0.305,1.395-0.914,1.84s-1.472,0.668-2.586,0.668
		C652.228,154.156,651.251,153.977,650.59,153.617z"/>
	<path d="M662.684,142.578l-0.32,4.125h-1.211l-0.32-4.125H662.684z M665.98,142.578l-0.32,4.125h-1.211l-0.32-4.125H665.98z"/>
</g>
<g>
	<g>
		<line fill="none" stroke="#000000" stroke-width="2" x1="225" y1="175" x2="271" y2="221"/>
		<polygon points="266.688,222.437 266.688,220.724 270.725,220.725 270.725,216.687 272.437,216.688 272.437,222.437 		"/>
	</g>
</g>
<rect x="475" y="225" fill="#DFF2F7" stroke="#000000" width="100" height="50"/>
<g>
	<path d="M485.871,242.578l-0.32,4.125h-1.211l-0.32-4.125H485.871z M489.168,242.578l-0.32,4.125h-1.211l-0.32-4.125H489.168z"/>
	<path d="M492.98,253.617v-1.297c1.005,0.448,1.969,0.672,2.891,0.672c1.432,0,2.148-0.422,2.148-1.266
		c0-0.297-0.128-0.555-0.383-0.773c-0.255-0.219-0.844-0.495-1.766-0.828c-1.214-0.453-1.978-0.868-2.293-1.246
		c-0.315-0.378-0.473-0.824-0.473-1.34c0-0.708,0.29-1.265,0.871-1.668c0.581-0.403,1.384-0.605,2.41-0.605
		c1.031,0,1.992,0.192,2.883,0.578l-0.469,1.164c-0.948-0.375-1.779-0.563-2.492-0.563c-1.229,0-1.844,0.347-1.844,1.039
		c0,0.317,0.131,0.571,0.395,0.762c0.263,0.19,0.868,0.454,1.816,0.793c1.099,0.401,1.829,0.796,2.191,1.184
		c0.362,0.388,0.543,0.863,0.543,1.426c0,0.781-0.305,1.395-0.914,1.84s-1.472,0.668-2.586,0.668
		C494.618,254.156,493.642,253.977,492.98,253.617z"/>
	<path d="M505.152,242.961l-2.094-0.164v-0.953h3.523v11.039l2.75,0.156V254h-6.867v-0.961l2.688-0.156V242.961z"/>
	<path d="M519.16,249.984h-6.047c0.042,1.953,0.938,2.93,2.688,2.93c1.016,0,1.979-0.198,2.891-0.594v1.25
		c-0.865,0.391-1.813,0.586-2.844,0.586c-1.276,0-2.297-0.39-3.063-1.168s-1.148-1.851-1.148-3.215c0-1.386,0.353-2.483,1.059-3.293
		c0.706-0.81,1.649-1.215,2.832-1.215c1.104,0,1.985,0.349,2.645,1.047c0.659,0.698,0.988,1.628,0.988,2.789V249.984z
		 M513.145,248.828h4.477c0-1.589-0.708-2.383-2.125-2.383C514.063,246.445,513.28,247.239,513.145,248.828z"/>
	<path d="M527.129,254v-5.523c0-1.354-0.62-2.031-1.859-2.031c-1.599,0-2.398,1.036-2.398,3.109V254h-1.422v-8.578h1.148
		l0.211,1.156h0.078c0.536-0.875,1.411-1.313,2.625-1.313c2.026,0,3.039,1.044,3.039,3.133V254H527.129z"/>
	<path d="M536.809,252.852h-0.063c-0.589,0.87-1.427,1.305-2.516,1.305c-1.047,0-1.869-0.39-2.465-1.168
		c-0.597-0.778-0.895-1.866-0.895-3.262c0-1.406,0.299-2.501,0.898-3.285c0.599-0.784,1.419-1.176,2.461-1.176
		c1.073,0,1.911,0.417,2.516,1.25h0.094c-0.063-0.672-0.094-1.094-0.094-1.266v-3.406h1.422V254h-1.148L536.809,252.852z
		 M536.746,250.047v-0.32c0-1.183-0.181-2.024-0.543-2.527c-0.362-0.503-0.939-0.754-1.73-0.754c-1.417,0-2.125,1.099-2.125,3.297
		c0,2.156,0.713,3.234,2.141,3.234c0.792,0,1.36-0.23,1.707-0.691C536.542,251.824,536.725,251.078,536.746,250.047z"/>
	<path d="M547.965,249.984h-6.047c0.042,1.953,0.938,2.93,2.688,2.93c1.016,0,1.979-0.198,2.891-0.594v1.25
		c-0.865,0.391-1.813,0.586-2.844,0.586c-1.276,0-2.297-0.39-3.063-1.168s-1.148-1.851-1.148-3.215c0-1.386,0.353-2.483,1.059-3.293
		c0.706-0.81,1.649-1.215,2.832-1.215c1.104,0,1.985,0.349,2.645,1.047c0.659,0.698,0.988,1.628,0.988,2.789V249.984z
		 M541.949,248.828h4.477c0-1.589-0.708-2.383-2.125-2.383C542.868,246.445,542.084,247.239,541.949,248.828z"/>
	<path d="M557.277,245.617l-0.383,1.297c-0.641-0.234-1.224-0.352-1.75-0.352c-0.849,0-1.504,0.241-1.965,0.723
		s-0.691,1.179-0.691,2.09V254h-1.422v-8.578h1.156l0.172,1.57h0.063c0.396-0.62,0.82-1.063,1.273-1.328s1.01-0.398,1.672-0.398
		C556.017,245.266,556.642,245.383,557.277,245.617z"/>
	<path d="M562.684,242.578l-0.32,4.125h-1.211l-0.32-4.125H562.684z M565.98,242.578l-0.32,4.125h-1.211l-0.32-4.125H565.98z"/>
</g>
<g>
	<g>
		<line fill="none" stroke="#000000" stroke-width="2" x1="350" y1="75" x2="229" y2="123.4"/>
		<polygon points="229.378,118.871 230.952,119.546 229.362,123.256 233.073,124.847 232.397,126.419 227.114,124.154 		"/>
	</g>
</g>
<rect x="675" y="225" fill="#DFF2F7" stroke="#000000" width="100" height="50"/>
<g>
	<path d="M700.273,242.578l-0.32,4.125h-1.211l-0.32-4.125H700.273z M703.57,242.578l-0.32,4.125h-1.211l-0.32-4.125H703.57z"/>
	<path d="M712.148,254l-1.023-4.656l-0.531-2.578h-0.047l-0.508,2.609L708.984,254h-1.477l-1.742-8.578h1.266l0.766,4.242
		c0.177,0.969,0.325,1.992,0.445,3.07h0.047c0.161-0.964,0.338-1.896,0.531-2.797l1.039-4.516h1.508l0.992,4.516
		c0.224,1.016,0.398,1.948,0.523,2.797h0.047c0.161-1.261,0.317-2.284,0.469-3.07l0.797-4.242h1.234L713.672,254H712.148z"/>
	<path d="M722.328,254v-5.523c0-1.354-0.62-2.031-1.859-2.031c-1.6,0-2.398,1.036-2.398,3.109V254h-1.422v-12.156h1.422v3.609
		l-0.063,1.125h0.078c0.536-0.875,1.411-1.313,2.625-1.313c2.025,0,3.039,1.044,3.039,3.133V254H722.328z"/>
	<path d="M731.992,254l-0.289-1.188h-0.063c-0.401,0.505-0.813,0.855-1.234,1.051s-0.967,0.293-1.633,0.293
		c-0.85,0-1.515-0.224-1.996-0.672c-0.482-0.448-0.723-1.075-0.723-1.883c0-1.729,1.328-2.636,3.984-2.719l1.586-0.055v-0.539
		c0-1.229-0.636-1.844-1.906-1.844c-0.766,0-1.62,0.214-2.563,0.641l-0.492-1.07c1.021-0.5,2.018-0.75,2.992-0.75
		c1.182,0,2.037,0.227,2.566,0.68c0.528,0.453,0.793,1.18,0.793,2.18V254H731.992z M731.609,249.805l-1.266,0.055
		c-1.021,0.042-1.745,0.202-2.172,0.48c-0.428,0.278-0.641,0.704-0.641,1.277c0,0.927,0.521,1.391,1.563,1.391
		c0.766,0,1.376-0.212,1.832-0.637c0.455-0.425,0.684-1.022,0.684-1.793V249.805z"/>
	<path d="M742.57,252.828v1.078c-0.678,0.167-1.334,0.25-1.969,0.25c-1.886,0-2.828-0.896-2.828-2.688v-4.977h-2.086v-0.734
		l2.086-0.383l0.602-2.242h0.82v2.289h3.422v1.07h-3.422v4.977c0,1.016,0.5,1.523,1.5,1.523
		C741.18,252.992,741.805,252.938,742.57,252.828z"/>
	<path d="M748.281,242.578l-0.32,4.125h-1.211l-0.32-4.125H748.281z M751.578,242.578l-0.32,4.125h-1.211l-0.32-4.125H751.578z"/>
</g>
<rect x="150" y="325" fill="#DFF2F7" stroke="#000000" width="100" height="50"/>
<g>
	<path d="M160.871,342.578l-0.32,4.125h-1.211l-0.32-4.125H160.871z M164.168,342.578l-0.32,4.125h-1.211l-0.32-4.125H164.168z"/>
	<path d="M174.551,346.492h-3.039V354h-1.422v-7.508h-2.477v-0.859l2.477-0.258v-0.75c0-1.005,0.234-1.734,0.703-2.188
		s1.247-0.68,2.336-0.68c0.672,0,1.328,0.091,1.969,0.273l-0.32,1.117c-0.542-0.146-1.081-0.219-1.617-0.219
		c-0.641,0-1.076,0.13-1.305,0.391c-0.229,0.261-0.344,0.69-0.344,1.289v0.813h3.039V346.492z"/>
	<path d="M180.762,354.156c-1.125,0-2.051-0.405-2.777-1.215s-1.09-1.892-1.09-3.246c0-1.37,0.353-2.45,1.059-3.242
		c0.706-0.792,1.657-1.188,2.855-1.188c1.135,0,2.065,0.403,2.789,1.211c0.724,0.808,1.086,1.88,1.086,3.219
		c0,1.38-0.357,2.469-1.07,3.266C182.899,353.758,181.949,354.156,180.762,354.156z M180.793,352.977
		c1.614,0,2.422-1.094,2.422-3.281c0-2.167-0.813-3.25-2.438-3.25c-1.609,0-2.414,1.083-2.414,3.25
		C178.363,351.883,179.173,352.977,180.793,352.977z"/>
	<path d="M193.871,345.617l-0.383,1.297c-0.641-0.234-1.224-0.352-1.75-0.352c-0.849,0-1.504,0.241-1.965,0.723
		s-0.691,1.179-0.691,2.09V354h-1.422v-8.578h1.156l0.172,1.57h0.063c0.396-0.62,0.82-1.063,1.273-1.328s1.01-0.398,1.672-0.398
		C192.61,345.266,193.235,345.383,193.871,345.617z"/>
	<path d="M203.168,352.828v1.078c-0.677,0.167-1.333,0.25-1.969,0.25c-1.886,0-2.828-0.896-2.828-2.688v-4.977h-2.086v-0.734
		l2.086-0.383l0.602-2.242h0.82v2.289h3.422v1.07h-3.422v4.977c0,1.016,0.5,1.523,1.5,1.523
		C201.777,352.992,202.402,352.938,203.168,352.828z"/>
	<path d="M212.004,354l-0.211-1.148h-0.078c-0.547,0.87-1.417,1.305-2.609,1.305c-2.037,0-3.055-1.044-3.055-3.133v-5.602h1.422
		v5.523c0,1.354,0.614,2.031,1.844,2.031c0.838,0,1.45-0.241,1.836-0.723c0.385-0.481,0.578-1.274,0.578-2.379v-4.453h1.422V354
		H212.004z"/>
	<path d="M221.332,354v-5.523c0-1.354-0.62-2.031-1.859-2.031c-1.599,0-2.398,1.036-2.398,3.109V354h-1.422v-8.578h1.148
		l0.211,1.156h0.078c0.536-0.875,1.411-1.313,2.625-1.313c2.026,0,3.039,1.044,3.039,3.133V354H221.332z"/>
	<path d="M232.566,349.984h-6.047c0.042,1.953,0.938,2.93,2.688,2.93c1.016,0,1.979-0.198,2.891-0.594v1.25
		c-0.865,0.391-1.813,0.586-2.844,0.586c-1.276,0-2.297-0.39-3.063-1.168s-1.148-1.851-1.148-3.215c0-1.386,0.353-2.483,1.059-3.293
		c0.706-0.81,1.649-1.215,2.832-1.215c1.104,0,1.985,0.349,2.645,1.047c0.659,0.698,0.988,1.628,0.988,2.789V349.984z
		 M226.551,348.828h4.477c0-1.589-0.708-2.383-2.125-2.383C227.47,346.445,226.686,347.239,226.551,348.828z"/>
	<path d="M237.684,342.578l-0.32,4.125h-1.211l-0.32-4.125H237.684z M240.98,342.578l-0.32,4.125h-1.211l-0.32-4.125H240.98z"/>
</g>
<rect x="300" y="325" fill="#DFF2F7" stroke="#000000" width="100" height="50"/>
<g>
	<path d="M325.273,342.578l-0.32,4.125h-1.211l-0.32-4.125H325.273z M328.57,342.578l-0.32,4.125h-1.211l-0.32-4.125H328.57z"/>
	<path d="M334.953,342.961l-2.094-0.164v-0.953h3.523v11.039l2.75,0.156V354h-6.867v-0.961l2.688-0.156V342.961z"/>
	<path d="M344.625,346.547l-2.102-0.164v-0.961h3.523v7.461l2.75,0.156V354h-6.859v-0.961l2.688-0.156V346.547z M345.344,341.891
		c0.552,0,0.828,0.297,0.828,0.891c0,0.302-0.082,0.527-0.246,0.676s-0.358,0.223-0.582,0.223c-0.558,0-0.836-0.3-0.836-0.898
		C344.508,342.188,344.786,341.891,345.344,341.891z"/>
	<path d="M358.156,346.492h-3.039V354h-1.422v-7.508h-2.477v-0.859l2.477-0.258v-0.75c0-1.005,0.234-1.734,0.703-2.188
		s1.247-0.68,2.336-0.68c0.672,0,1.328,0.091,1.969,0.273l-0.32,1.117c-0.542-0.146-1.081-0.219-1.617-0.219
		c-0.641,0-1.076,0.13-1.305,0.391c-0.229,0.261-0.344,0.69-0.344,1.289v0.813h3.039V346.492z"/>
	<path d="M368.164,349.984h-6.047c0.042,1.953,0.938,2.93,2.688,2.93c1.016,0,1.979-0.198,2.891-0.594v1.25
		c-0.865,0.391-1.813,0.586-2.844,0.586c-1.276,0-2.297-0.39-3.063-1.168s-1.148-1.851-1.148-3.215c0-1.386,0.353-2.483,1.059-3.293
		c0.706-0.81,1.649-1.215,2.832-1.215c1.104,0,1.985,0.349,2.645,1.047c0.659,0.698,0.988,1.628,0.988,2.789V349.984z
		 M362.148,348.828h4.477c0-1.589-0.708-2.383-2.125-2.383C363.067,346.445,362.284,347.239,362.148,348.828z"/>
	<path d="M373.281,342.578l-0.32,4.125h-1.211l-0.32-4.125H373.281z M376.578,342.578l-0.32,4.125h-1.211l-0.32-4.125H376.578z"/>
</g>
<g>
	<g>
		<line fill="none" stroke="#000000" stroke-width="2" x1="675" y1="175" x2="721" y2="221"/>
		<polygon points="716.688,222.437 716.688,220.724 720.725,220.725 720.726,216.687 722.437,216.688 722.437,222.437 		"/>
	</g>
</g>
<g>
	<g>
		<line fill="none" stroke="#000000" stroke-width="2" x1="575" y1="175" x2="529" y2="221"/>
		<polygon points="527.563,216.688 529.276,216.688 529.275,220.725 533.313,220.726 533.312,222.437 527.563,222.437 		"/>
	</g>
</g>
<g>
	<g>
		<line fill="none" stroke="#000000" stroke-width="2" x1="125" y1="175" x2="79" y2="221"/>
		<polygon points="77.563,216.688 79.276,216.688 79.275,220.725 83.313,220.726 83.312,222.437 77.563,222.437 		"/>
	</g>
</g>
<g>
	<g>
		<line fill="none" stroke="#000000" stroke-width="2" x1="225" y1="275" x2="202" y2="321"/>
		<polygon points="199.274,317.364 200.898,316.822 202.174,320.651 206.005,319.375 206.544,320.999 201.092,322.816 		"/>
	</g>
</g>
</svg>
