<?xml version="1.0" encoding="iso-8859-1"?>
<!-- Generator: Adobe Illustrator 14.0.0, SVG Export Plug-In . SVG Version: 6.00 Build 43363)  -->
<!DOCTYPE svg PUBLIC "-//W3C//DTD SVG 1.1//EN" "http://www.w3.org/Graphics/SVG/1.1/DTD/svg11.dtd">
<svg version="1.1" id="Layer_1" xmlns="http://www.w3.org/2000/svg" xmlns:xlink="http://www.w3.org/1999/xlink" x="0px" y="0px"
	 width="494px" height="334px" viewBox="0 0 494 334" enable-background="new 0 0 494 334" xml:space="preserve">
<rect x="22.336" y="53.331" fill="#DFF2F7" stroke="#000000" width="100" height="40"/>
<rect x="83.336" y="63.331" fill="#D8ECD1" stroke="#000000" width="30" height="20"/>
<g>
	<path d="M41.587,18.385h-1.278V9.512h-2.857V8.391h6.986v1.121h-2.851V18.385z"/>
	<path d="M52.395,11.05l-0.335,1.135c-0.561-0.205-1.071-0.308-1.531-0.308c-0.743,0-1.316,0.211-1.719,0.632
		c-0.403,0.422-0.605,1.031-0.605,1.829v4.047H46.96v-7.506h1.012l0.15,1.374h0.055c0.346-0.543,0.718-0.93,1.114-1.162
		s0.884-0.349,1.463-0.349C51.292,10.742,51.838,10.845,52.395,11.05z"/>
	<path d="M61.049,14.871h-5.291c0.037,1.709,0.82,2.563,2.352,2.563c0.889,0,1.732-0.174,2.529-0.52v1.094
		c-0.756,0.342-1.586,0.513-2.488,0.513c-1.117,0-2.01-0.341-2.68-1.022c-0.67-0.681-1.005-1.619-1.005-2.813
		c0-1.213,0.309-2.173,0.926-2.881c0.618-0.709,1.443-1.063,2.478-1.063c0.966,0,1.737,0.306,2.314,0.916s0.865,1.425,0.865,2.44
		V14.871z M55.785,13.859h3.917c0-1.39-0.62-2.085-1.859-2.085C56.589,11.774,55.904,12.47,55.785,13.859z"/>
	<path d="M69.45,14.871h-5.291c0.037,1.709,0.82,2.563,2.352,2.563c0.889,0,1.732-0.174,2.529-0.52v1.094
		c-0.756,0.342-1.586,0.513-2.488,0.513c-1.117,0-2.01-0.341-2.68-1.022c-0.67-0.681-1.005-1.619-1.005-2.813
		c0-1.213,0.309-2.173,0.926-2.881c0.618-0.709,1.443-1.063,2.478-1.063c0.966,0,1.737,0.306,2.314,0.916s0.865,1.425,0.865,2.44
		V14.871z M64.187,13.859h3.917c0-1.39-0.62-2.085-1.859-2.085C64.991,11.774,64.305,12.47,64.187,13.859z"/>
	<path d="M79.74,15.156c0,1.129-0.239,1.969-0.718,2.52s-1.179,0.826-2.101,0.826c-0.434,0-0.822-0.068-1.166-0.205
		s-0.636-0.344-0.876-0.621s-0.424-0.626-0.551-1.046s-0.19-0.911-0.19-1.474c0-1.121,0.237-1.955,0.712-2.502
		s1.177-0.82,2.106-0.82c0.434,0,0.822,0.067,1.166,0.202s0.636,0.34,0.876,0.615s0.424,0.621,0.551,1.037
		S79.74,14.594,79.74,15.156z M75.299,15.156c0,0.445,0.029,0.838,0.088,1.178s0.153,0.624,0.284,0.853s0.301,0.401,0.51,0.519
		s0.464,0.176,0.765,0.176s0.555-0.059,0.762-0.176s0.375-0.29,0.504-0.519s0.222-0.513,0.278-0.853s0.085-0.732,0.085-1.178
		s-0.029-0.836-0.088-1.172s-0.152-0.616-0.281-0.841s-0.298-0.394-0.507-0.507s-0.464-0.17-0.765-0.17s-0.555,0.057-0.762,0.17
		s-0.375,0.282-0.504,0.507s-0.223,0.505-0.281,0.841S75.299,14.711,75.299,15.156z"/>
	<path d="M87.111,15.156c0,0.578-0.054,1.078-0.161,1.5s-0.265,0.77-0.472,1.043s-0.463,0.476-0.768,0.606s-0.654,0.196-1.049,0.196
		c-0.23,0-0.439-0.025-0.627-0.076s-0.356-0.123-0.507-0.217s-0.283-0.205-0.398-0.334s-0.216-0.271-0.302-0.428h-0.076
		l-0.211,0.938h-1.922v-0.504h0.094c0.137,0,0.265-0.01,0.384-0.029s0.223-0.06,0.311-0.12s0.158-0.147,0.211-0.261
		s0.079-0.264,0.079-0.451v-6.434c0-0.176-0.026-0.317-0.079-0.425s-0.124-0.19-0.214-0.249s-0.194-0.097-0.313-0.114
		s-0.245-0.026-0.378-0.026h-0.094V9.268h2.209v2.203c0,0.137-0.002,0.294-0.006,0.472s-0.01,0.349-0.018,0.513
		c-0.008,0.188-0.016,0.381-0.023,0.58h0.047c0.09-0.184,0.191-0.35,0.305-0.498s0.244-0.274,0.393-0.378s0.316-0.184,0.504-0.24
		s0.398-0.085,0.633-0.085c0.395,0,0.744,0.065,1.049,0.196s0.561,0.332,0.768,0.604s0.364,0.616,0.472,1.034
		S87.111,14.582,87.111,15.156z M84.457,12.602c-0.313,0-0.573,0.052-0.782,0.155s-0.376,0.261-0.501,0.472
		s-0.214,0.477-0.267,0.797s-0.079,0.697-0.079,1.131c0,0.418,0.026,0.787,0.079,1.107s0.143,0.59,0.27,0.809
		s0.295,0.384,0.504,0.495s0.472,0.167,0.788,0.167c0.266,0,0.491-0.056,0.677-0.167s0.338-0.276,0.457-0.495
		s0.206-0.489,0.261-0.812s0.082-0.694,0.082-1.116c0-0.426-0.027-0.798-0.082-1.116s-0.142-0.583-0.261-0.794
		s-0.273-0.369-0.463-0.475S84.723,12.602,84.457,12.602z"/>
	<path d="M90.193,11.951v6.527c0,0.539-0.059,0.987-0.176,1.345s-0.281,0.643-0.492,0.855s-0.462,0.364-0.753,0.454
		s-0.61,0.135-0.958,0.135h-0.193v-0.568h0.088c0.215,0,0.406-0.036,0.574-0.108s0.31-0.193,0.425-0.363s0.203-0.396,0.264-0.68
		s0.091-0.636,0.091-1.058v-5.215c0-0.176-0.026-0.317-0.079-0.425s-0.124-0.19-0.214-0.249s-0.194-0.098-0.313-0.117
		s-0.245-0.029-0.378-0.029h-0.035v-0.504H90.193z M88.898,10.006c0-0.141,0.018-0.258,0.053-0.352s0.083-0.17,0.144-0.229
		s0.133-0.1,0.217-0.123s0.173-0.035,0.267-0.035s0.183,0.012,0.267,0.035s0.156,0.064,0.217,0.123s0.109,0.135,0.146,0.229
		s0.056,0.211,0.056,0.352s-0.019,0.258-0.056,0.352s-0.086,0.17-0.146,0.229s-0.133,0.101-0.217,0.126s-0.173,0.038-0.267,0.038
		s-0.183-0.013-0.267-0.038s-0.156-0.067-0.217-0.126s-0.108-0.135-0.144-0.229S88.898,10.146,88.898,10.006z"/>
	<path d="M94.811,18.502c-0.434,0-0.823-0.073-1.169-0.22s-0.638-0.36-0.876-0.642s-0.421-0.626-0.548-1.034s-0.19-0.872-0.19-1.392
		c0-1.121,0.23-1.965,0.691-2.531s1.117-0.85,1.969-0.85c0.387,0,0.734,0.061,1.043,0.182s0.57,0.302,0.785,0.542
		s0.38,0.539,0.495,0.896s0.173,0.772,0.173,1.245v0.551h-3.996c0.008,0.438,0.052,0.813,0.132,1.128s0.195,0.573,0.346,0.776
		s0.335,0.353,0.554,0.448s0.471,0.144,0.756,0.144c0.207,0,0.399-0.023,0.577-0.07s0.339-0.109,0.483-0.188
		s0.272-0.167,0.384-0.267s0.202-0.204,0.272-0.313c0.055,0.023,0.106,0.072,0.155,0.146s0.073,0.162,0.073,0.264
		c0,0.121-0.043,0.251-0.129,0.39s-0.217,0.267-0.393,0.384s-0.396,0.215-0.659,0.293S95.166,18.502,94.811,18.502z M94.664,12.479
		c-0.445,0-0.788,0.181-1.028,0.542s-0.382,0.89-0.425,1.585h2.76c0-0.316-0.023-0.605-0.07-0.867s-0.121-0.486-0.223-0.674
		s-0.235-0.332-0.401-0.434S94.906,12.479,94.664,12.479z"/>
	<path d="M101.186,18.502c-0.398,0-0.766-0.062-1.102-0.185S99.459,18,99.217,17.734s-0.431-0.606-0.565-1.022
		s-0.202-0.919-0.202-1.509c0-0.641,0.067-1.177,0.202-1.608s0.322-0.778,0.563-1.04s0.523-0.447,0.85-0.557
		s0.679-0.164,1.058-0.164c0.25,0,0.499,0.024,0.747,0.073s0.472,0.124,0.671,0.226s0.361,0.229,0.486,0.384
		s0.188,0.335,0.188,0.542c0,0.277-0.09,0.473-0.27,0.586s-0.447,0.17-0.803,0.17c0-0.188-0.016-0.365-0.047-0.533
		s-0.085-0.315-0.161-0.442s-0.18-0.227-0.311-0.299s-0.298-0.108-0.501-0.108c-0.23,0-0.438,0.043-0.624,0.129
		s-0.345,0.234-0.478,0.445s-0.234,0.494-0.305,0.85s-0.105,0.801-0.105,1.336c0,0.852,0.142,1.486,0.425,1.904
		s0.747,0.627,1.392,0.627c0.371,0,0.695-0.078,0.973-0.234s0.484-0.357,0.621-0.604c0.059,0.047,0.107,0.109,0.146,0.188
		s0.059,0.172,0.059,0.281c0,0.137-0.043,0.273-0.129,0.41s-0.214,0.26-0.384,0.369s-0.382,0.198-0.636,0.267
		S101.525,18.502,101.186,18.502z"/>
	<path d="M106.875,17.869c0.145,0,0.277-0.008,0.398-0.023s0.244-0.035,0.369-0.059v0.527c-0.051,0.023-0.117,0.047-0.199,0.07
		s-0.171,0.044-0.267,0.062s-0.196,0.031-0.302,0.041s-0.205,0.015-0.299,0.015c-0.305,0-0.566-0.032-0.785-0.097
		s-0.398-0.169-0.539-0.313s-0.245-0.336-0.313-0.574s-0.103-0.529-0.103-0.873v-4.008h-0.914v-0.48
		c0.145,0,0.304-0.029,0.478-0.088s0.327-0.156,0.46-0.293c0.137-0.148,0.247-0.325,0.331-0.53s0.157-0.462,0.22-0.771h0.551v1.477
		h1.57v0.686h-1.57v4.043c0,0.41,0.083,0.711,0.249,0.902S106.598,17.869,106.875,17.869z"/>
</g>
<g>
</g>
<g>
	<path d="M53.736,71.044l-0.287,0.973c-0.48-0.176-0.918-0.264-1.313-0.264c-0.637,0-1.128,0.181-1.474,0.542
		s-0.519,0.884-0.519,1.567v3.469h-1.066v-6.434h0.867l0.129,1.178h0.047c0.297-0.465,0.615-0.797,0.955-0.996
		s0.758-0.299,1.254-0.299C52.791,70.78,53.26,70.868,53.736,71.044z"/>
	<path d="M58.307,77.448c-0.844,0-1.538-0.304-2.083-0.911s-0.817-1.419-0.817-2.435c0-1.027,0.265-1.838,0.794-2.432
		s1.243-0.891,2.142-0.891c0.852,0,1.549,0.303,2.092,0.908s0.814,1.41,0.814,2.414c0,1.035-0.268,1.852-0.803,2.449
		S59.197,77.448,58.307,77.448z M58.33,76.563c1.211,0,1.816-0.82,1.816-2.461c0-1.625-0.609-2.438-1.828-2.438
		c-1.207,0-1.811,0.813-1.811,2.438C56.508,75.743,57.115,76.563,58.33,76.563z"/>
	<path d="M65.508,77.448c-0.844,0-1.538-0.304-2.083-0.911s-0.817-1.419-0.817-2.435c0-1.027,0.265-1.838,0.794-2.432
		s1.243-0.891,2.142-0.891c0.852,0,1.549,0.303,2.092,0.908s0.814,1.41,0.814,2.414c0,1.035-0.268,1.852-0.803,2.449
		S66.398,77.448,65.508,77.448z M65.531,76.563c1.211,0,1.816-0.82,1.816-2.461c0-1.625-0.609-2.438-1.828-2.438
		c-1.207,0-1.811,0.813-1.811,2.438C63.709,75.743,64.316,76.563,65.531,76.563z"/>
	<path d="M75.111,76.452v0.809c-0.508,0.125-1,0.188-1.477,0.188c-1.414,0-2.121-0.672-2.121-2.016V71.7h-1.564v-0.551l1.564-0.287
		l0.451-1.682h0.615v1.717h2.566V71.7H72.58v3.732c0,0.762,0.375,1.143,1.125,1.143C74.068,76.575,74.537,76.534,75.111,76.452z"/>
</g>
<rect x="242.336" y="58.318" fill="#D8ECD1" stroke="#000000" width="80" height="30"/>
<g>
	<path d="M259.7,67.324l-0.28,3.609h-1.06l-0.28-3.609H259.7z M262.585,67.324l-0.28,3.609h-1.06l-0.28-3.609H262.585z"/>
	<path d="M271.506,76.293v0.943c-0.592,0.146-1.167,0.219-1.723,0.219c-1.65,0-2.475-0.784-2.475-2.352v-4.354h-1.825v-0.643
		l1.825-0.335l0.526-1.962h0.718v2.003h2.994v0.937h-2.994v4.354c0,0.889,0.438,1.333,1.313,1.333
		C270.289,76.437,270.836,76.389,271.506,76.293z"/>
	<path d="M280.174,69.983l-0.335,1.135c-0.561-0.205-1.071-0.308-1.531-0.308c-0.743,0-1.316,0.211-1.719,0.633
		c-0.403,0.421-0.605,1.03-0.605,1.828v4.047h-1.244v-7.506h1.012l0.15,1.374h0.055c0.346-0.542,0.718-0.93,1.114-1.162
		s0.884-0.349,1.463-0.349C279.071,69.676,279.618,69.778,280.174,69.983z"/>
	<path d="M288.828,73.805h-5.291c0.037,1.709,0.82,2.563,2.352,2.563c0.889,0,1.732-0.173,2.529-0.52v1.094
		c-0.756,0.342-1.586,0.513-2.488,0.513c-1.117,0-2.01-0.341-2.68-1.021c-0.67-0.682-1.005-1.619-1.005-2.813
		c0-1.212,0.309-2.173,0.926-2.882c0.618-0.708,1.443-1.063,2.478-1.063c0.966,0,1.737,0.306,2.314,0.916s0.865,1.424,0.865,2.44
		V73.805z M283.564,72.793h3.917c0-1.39-0.62-2.085-1.859-2.085C284.369,70.708,283.683,71.403,283.564,72.793z"/>
	<path d="M297.229,73.805h-5.291c0.037,1.709,0.82,2.563,2.352,2.563c0.889,0,1.732-0.173,2.529-0.52v1.094
		c-0.756,0.342-1.586,0.513-2.488,0.513c-1.117,0-2.01-0.341-2.68-1.021c-0.67-0.682-1.005-1.619-1.005-2.813
		c0-1.212,0.309-2.173,0.926-2.882c0.618-0.708,1.443-1.063,2.478-1.063c0.966,0,1.737,0.306,2.314,0.916s0.865,1.424,0.865,2.44
		V73.805z M291.966,72.793h3.917c0-1.39-0.62-2.085-1.859-2.085C292.77,70.708,292.084,71.403,291.966,72.793z"/>
	<path d="M301.707,67.324l-0.28,3.609h-1.06l-0.28-3.609H301.707z M304.592,67.324l-0.28,3.609h-1.06l-0.28-3.609H304.592z"/>
</g>
<g>
	<g>
		<line fill="none" stroke="#000000" stroke-width="2" x1="97.336" y1="73.331" x2="239.336" y2="73.331"/>
		<polygon points="237.303,77.396 236.092,76.185 238.946,73.331 236.092,70.476 237.303,69.267 241.367,73.331 		"/>
	</g>
</g>
<circle cx="97.336" cy="73.331" r="3"/>
<g>
	<path d="M267.257,44.806l-2.438-6.434h1.102l1.406,3.82c0.332,0.902,0.527,1.537,0.586,1.904h0.035
		c0.027-0.172,0.225-0.807,0.592-1.904l1.4-3.82h1.107l-2.438,6.434H267.257z"/>
	<path d="M276.784,44.806l-0.217-0.891h-0.047c-0.301,0.379-0.609,0.642-0.926,0.788s-0.725,0.22-1.225,0.22
		c-0.637,0-1.136-0.168-1.497-0.504s-0.542-0.807-0.542-1.412c0-1.297,0.996-1.977,2.988-2.039l1.189-0.041v-0.404
		c0-0.922-0.477-1.383-1.43-1.383c-0.574,0-1.215,0.16-1.922,0.48l-0.369-0.803c0.766-0.375,1.514-0.563,2.244-0.563
		c0.887,0,1.528,0.17,1.925,0.51s0.595,0.885,0.595,1.635v4.406H276.784z M276.497,41.659l-0.949,0.041
		c-0.766,0.031-1.309,0.151-1.629,0.36s-0.48,0.528-0.48,0.958c0,0.695,0.391,1.043,1.172,1.043c0.574,0,1.032-0.159,1.374-0.478
		s0.513-0.767,0.513-1.345V41.659z"/>
	<path d="M281.858,36.526l-1.57-0.123v-0.715h2.643v8.279l2.063,0.117v0.721h-5.15v-0.721l2.016-0.117V36.526z"/>
	<path d="M291.345,44.806l-0.158-0.861h-0.059c-0.41,0.652-1.063,0.979-1.957,0.979c-1.527,0-2.291-0.783-2.291-2.35v-4.201h1.066
		v4.143c0,1.016,0.461,1.523,1.383,1.523c0.629,0,1.088-0.181,1.377-0.542s0.434-0.956,0.434-1.784v-3.34h1.066v6.434H291.345z"/>
	<path d="M299.565,41.794h-4.535c0.031,1.465,0.703,2.197,2.016,2.197c0.762,0,1.484-0.148,2.168-0.445v0.938
		c-0.648,0.293-1.359,0.439-2.133,0.439c-0.957,0-1.723-0.292-2.297-0.876s-0.861-1.388-0.861-2.411c0-1.039,0.265-1.862,0.794-2.47
		s1.237-0.911,2.124-0.911c0.828,0,1.489,0.262,1.983,0.785s0.741,1.221,0.741,2.092V41.794z M295.054,40.927h3.357
		c0-1.191-0.531-1.787-1.594-1.787C295.743,39.14,295.155,39.735,295.054,40.927z"/>
</g>
<g>
	<path d="M251.582,18.385h-1.47l-3.965-8.271h-0.055c0.082,1.263,0.123,2.212,0.123,2.851v5.421h-1.176V8.391h1.456l3.951,8.23
		h0.041c-0.064-1.381-0.096-2.302-0.096-2.762V8.391h1.189V18.385z"/>
	<path d="M256.688,18.521c-0.984,0-1.794-0.354-2.43-1.063c-0.636-0.708-0.954-1.654-0.954-2.84c0-1.199,0.309-2.145,0.926-2.837
		s1.45-1.039,2.499-1.039c0.994,0,1.807,0.353,2.44,1.06s0.95,1.645,0.95,2.816c0,1.207-0.312,2.16-0.937,2.857
		S257.728,18.521,256.688,18.521z M256.716,17.489c1.413,0,2.119-0.957,2.119-2.871c0-1.896-0.711-2.844-2.133-2.844
		c-1.408,0-2.112,0.947-2.112,2.844C254.59,16.532,255.298,17.489,256.716,17.489z"/>
	<path d="M267.052,17.38h-0.055c-0.515,0.762-1.249,1.142-2.201,1.142c-0.916,0-1.635-0.341-2.157-1.022
		c-0.522-0.681-0.783-1.633-0.783-2.854c0-1.23,0.262-2.188,0.786-2.875c0.524-0.686,1.242-1.028,2.153-1.028
		c0.939,0,1.672,0.364,2.201,1.094h0.082c-0.055-0.588-0.082-0.957-0.082-1.107v-2.98h1.244v10.637h-1.005L267.052,17.38z
		 M266.997,14.926v-0.28c0-1.035-0.158-1.771-0.475-2.211c-0.317-0.44-0.821-0.66-1.514-0.66c-1.24,0-1.859,0.961-1.859,2.885
		c0,1.887,0.625,2.83,1.873,2.83c0.693,0,1.19-0.201,1.494-0.605C266.818,16.481,266.979,15.828,266.997,14.926z"/>
	<path d="M276.813,14.871h-5.291c0.037,1.709,0.82,2.563,2.352,2.563c0.889,0,1.732-0.174,2.529-0.52v1.094
		c-0.756,0.342-1.586,0.513-2.488,0.513c-1.117,0-2.01-0.341-2.68-1.022c-0.67-0.681-1.005-1.619-1.005-2.813
		c0-1.213,0.309-2.173,0.926-2.881c0.618-0.709,1.443-1.063,2.478-1.063c0.966,0,1.737,0.306,2.314,0.916s0.865,1.425,0.865,2.44
		V14.871z M271.55,13.859h3.917c0-1.39-0.62-2.085-1.859-2.085C272.354,11.774,271.668,12.47,271.55,13.859z"/>
	<path d="M287.104,15.156c0,1.129-0.239,1.969-0.718,2.52s-1.179,0.826-2.101,0.826c-0.434,0-0.822-0.068-1.166-0.205
		s-0.636-0.344-0.876-0.621s-0.424-0.626-0.551-1.046s-0.19-0.911-0.19-1.474c0-1.121,0.237-1.955,0.712-2.502
		s1.177-0.82,2.106-0.82c0.434,0,0.822,0.067,1.166,0.202s0.636,0.34,0.876,0.615s0.424,0.621,0.551,1.037
		S287.104,14.594,287.104,15.156z M282.662,15.156c0,0.445,0.029,0.838,0.088,1.178s0.153,0.624,0.284,0.853s0.301,0.401,0.51,0.519
		s0.464,0.176,0.765,0.176s0.555-0.059,0.762-0.176s0.375-0.29,0.504-0.519s0.222-0.513,0.278-0.853s0.085-0.732,0.085-1.178
		s-0.029-0.836-0.088-1.172s-0.152-0.616-0.281-0.841s-0.298-0.394-0.507-0.507s-0.464-0.17-0.765-0.17s-0.555,0.057-0.762,0.17
		s-0.375,0.282-0.504,0.507s-0.223,0.505-0.281,0.841S282.662,14.711,282.662,15.156z"/>
	<path d="M294.475,15.156c0,0.578-0.054,1.078-0.161,1.5s-0.265,0.77-0.472,1.043s-0.463,0.476-0.768,0.606
		s-0.654,0.196-1.049,0.196c-0.23,0-0.439-0.025-0.627-0.076s-0.356-0.123-0.507-0.217s-0.283-0.205-0.398-0.334
		s-0.216-0.271-0.302-0.428h-0.076l-0.211,0.938h-1.922v-0.504h0.094c0.137,0,0.265-0.01,0.384-0.029s0.223-0.06,0.311-0.12
		s0.158-0.147,0.211-0.261s0.079-0.264,0.079-0.451v-6.434c0-0.176-0.026-0.317-0.079-0.425s-0.124-0.19-0.214-0.249
		s-0.194-0.097-0.313-0.114s-0.245-0.026-0.378-0.026h-0.094V9.268h2.209v2.203c0,0.137-0.002,0.294-0.006,0.472
		s-0.01,0.349-0.018,0.513c-0.008,0.188-0.016,0.381-0.023,0.58h0.047c0.09-0.184,0.191-0.35,0.305-0.498s0.244-0.274,0.393-0.378
		s0.316-0.184,0.504-0.24s0.398-0.085,0.633-0.085c0.395,0,0.744,0.065,1.049,0.196s0.561,0.332,0.768,0.604
		s0.364,0.616,0.472,1.034S294.475,14.582,294.475,15.156z M291.82,12.602c-0.313,0-0.573,0.052-0.782,0.155
		s-0.376,0.261-0.501,0.472s-0.214,0.477-0.267,0.797s-0.079,0.697-0.079,1.131c0,0.418,0.026,0.787,0.079,1.107
		s0.143,0.59,0.27,0.809s0.295,0.384,0.504,0.495s0.472,0.167,0.788,0.167c0.266,0,0.491-0.056,0.677-0.167s0.338-0.276,0.457-0.495
		s0.206-0.489,0.261-0.812s0.082-0.694,0.082-1.116c0-0.426-0.027-0.798-0.082-1.116s-0.142-0.583-0.261-0.794
		s-0.273-0.369-0.463-0.475S292.086,12.602,291.82,12.602z"/>
	<path d="M297.557,11.951v6.527c0,0.539-0.059,0.987-0.176,1.345s-0.281,0.643-0.492,0.855s-0.462,0.364-0.753,0.454
		s-0.61,0.135-0.958,0.135h-0.193v-0.568h0.088c0.215,0,0.406-0.036,0.574-0.108s0.31-0.193,0.425-0.363s0.203-0.396,0.264-0.68
		s0.091-0.636,0.091-1.058v-5.215c0-0.176-0.026-0.317-0.079-0.425s-0.124-0.19-0.214-0.249s-0.194-0.098-0.313-0.117
		s-0.245-0.029-0.378-0.029h-0.035v-0.504H297.557z M296.262,10.006c0-0.141,0.018-0.258,0.053-0.352s0.083-0.17,0.144-0.229
		s0.133-0.1,0.217-0.123s0.173-0.035,0.267-0.035s0.183,0.012,0.267,0.035s0.156,0.064,0.217,0.123s0.109,0.135,0.146,0.229
		s0.056,0.211,0.056,0.352s-0.019,0.258-0.056,0.352s-0.086,0.17-0.146,0.229s-0.133,0.101-0.217,0.126s-0.173,0.038-0.267,0.038
		s-0.183-0.013-0.267-0.038s-0.156-0.067-0.217-0.126s-0.108-0.135-0.144-0.229S296.262,10.146,296.262,10.006z"/>
	<path d="M302.174,18.502c-0.434,0-0.823-0.073-1.169-0.22s-0.638-0.36-0.876-0.642s-0.421-0.626-0.548-1.034
		s-0.19-0.872-0.19-1.392c0-1.121,0.23-1.965,0.691-2.531s1.117-0.85,1.969-0.85c0.387,0,0.734,0.061,1.043,0.182
		s0.57,0.302,0.785,0.542s0.38,0.539,0.495,0.896s0.173,0.772,0.173,1.245v0.551h-3.996c0.008,0.438,0.052,0.813,0.132,1.128
		s0.195,0.573,0.346,0.776s0.335,0.353,0.554,0.448s0.471,0.144,0.756,0.144c0.207,0,0.399-0.023,0.577-0.07
		s0.339-0.109,0.483-0.188s0.272-0.167,0.384-0.267s0.202-0.204,0.272-0.313c0.055,0.023,0.106,0.072,0.155,0.146
		s0.073,0.162,0.073,0.264c0,0.121-0.043,0.251-0.129,0.39s-0.217,0.267-0.393,0.384s-0.396,0.215-0.659,0.293
		S302.529,18.502,302.174,18.502z M302.027,12.479c-0.445,0-0.788,0.181-1.028,0.542s-0.382,0.89-0.425,1.585h2.76
		c0-0.316-0.023-0.605-0.07-0.867s-0.121-0.486-0.223-0.674s-0.235-0.332-0.401-0.434S302.27,12.479,302.027,12.479z"/>
	<path d="M308.549,18.502c-0.398,0-0.766-0.062-1.102-0.185s-0.625-0.317-0.867-0.583s-0.431-0.606-0.565-1.022
		s-0.202-0.919-0.202-1.509c0-0.641,0.067-1.177,0.202-1.608s0.322-0.778,0.563-1.04s0.523-0.447,0.85-0.557
		s0.679-0.164,1.058-0.164c0.25,0,0.499,0.024,0.747,0.073s0.472,0.124,0.671,0.226s0.361,0.229,0.486,0.384
		s0.188,0.335,0.188,0.542c0,0.277-0.09,0.473-0.27,0.586s-0.447,0.17-0.803,0.17c0-0.188-0.016-0.365-0.047-0.533
		s-0.085-0.315-0.161-0.442s-0.18-0.227-0.311-0.299s-0.298-0.108-0.501-0.108c-0.23,0-0.438,0.043-0.624,0.129
		s-0.345,0.234-0.478,0.445s-0.234,0.494-0.305,0.85s-0.105,0.801-0.105,1.336c0,0.852,0.142,1.486,0.425,1.904
		s0.747,0.627,1.392,0.627c0.371,0,0.695-0.078,0.973-0.234s0.484-0.357,0.621-0.604c0.059,0.047,0.107,0.109,0.146,0.188
		s0.059,0.172,0.059,0.281c0,0.137-0.043,0.273-0.129,0.41s-0.214,0.26-0.384,0.369s-0.382,0.198-0.636,0.267
		S308.889,18.502,308.549,18.502z"/>
	<path d="M314.238,17.869c0.145,0,0.277-0.008,0.398-0.023s0.244-0.035,0.369-0.059v0.527c-0.051,0.023-0.117,0.047-0.199,0.07
		s-0.171,0.044-0.267,0.062s-0.196,0.031-0.302,0.041s-0.205,0.015-0.299,0.015c-0.305,0-0.566-0.032-0.785-0.097
		s-0.398-0.169-0.539-0.313s-0.245-0.336-0.313-0.574s-0.103-0.529-0.103-0.873v-4.008h-0.914v-0.48
		c0.145,0,0.304-0.029,0.478-0.088s0.327-0.156,0.46-0.293c0.137-0.148,0.247-0.325,0.331-0.53s0.157-0.462,0.22-0.771h0.551v1.477
		h1.57v0.686h-1.57v4.043c0,0.41,0.083,0.711,0.249,0.902S313.961,17.869,314.238,17.869z"/>
	<path d="M317.801,18.502c-0.301,0-0.573-0.026-0.817-0.079s-0.452-0.133-0.624-0.24s-0.305-0.24-0.398-0.398
		s-0.141-0.343-0.141-0.554c0-0.16,0.026-0.294,0.079-0.401s0.117-0.192,0.193-0.255s0.158-0.106,0.246-0.132
		s0.167-0.038,0.237-0.038c0,0.211,0.021,0.408,0.064,0.592s0.115,0.345,0.217,0.483s0.235,0.248,0.401,0.328s0.37,0.12,0.612,0.12
		c0.215,0,0.404-0.026,0.568-0.079s0.302-0.127,0.413-0.223s0.196-0.211,0.255-0.346s0.088-0.282,0.088-0.442
		c0-0.148-0.022-0.276-0.067-0.384s-0.123-0.208-0.234-0.302s-0.263-0.189-0.454-0.287s-0.432-0.209-0.721-0.334
		c-0.309-0.137-0.577-0.269-0.806-0.396s-0.417-0.265-0.565-0.413s-0.26-0.317-0.334-0.507s-0.111-0.415-0.111-0.677
		c0-0.273,0.054-0.516,0.161-0.727s0.261-0.388,0.46-0.53s0.438-0.251,0.715-0.325s0.586-0.111,0.926-0.111
		c0.285,0,0.537,0.029,0.756,0.088s0.402,0.138,0.551,0.237s0.26,0.217,0.334,0.352s0.111,0.276,0.111,0.425
		c0,0.219-0.075,0.394-0.226,0.524s-0.364,0.196-0.642,0.196c0-0.402-0.083-0.715-0.249-0.938s-0.427-0.334-0.782-0.334
		c-0.203,0-0.377,0.023-0.521,0.07s-0.263,0.113-0.354,0.199s-0.159,0.188-0.202,0.305s-0.064,0.246-0.064,0.387
		c0,0.152,0.027,0.284,0.082,0.396s0.142,0.214,0.261,0.308s0.273,0.185,0.463,0.272s0.417,0.187,0.683,0.296
		c0.316,0.133,0.588,0.264,0.814,0.393s0.413,0.27,0.56,0.422s0.255,0.324,0.325,0.516s0.105,0.412,0.105,0.662
		c0,0.313-0.057,0.586-0.17,0.82s-0.273,0.431-0.48,0.589s-0.456,0.276-0.747,0.354S318.156,18.502,317.801,18.502z"/>
</g>
<rect x="282.336" y="88.331" fill="#D8ECD1" stroke="#000000" width="40" height="30"/>
<rect x="242.336" y="88.331" fill="#D8ECD1" stroke="#000000" width="40" height="30"/>
<g>
	<path d="M211.648,98.564l-1.57-0.123v-0.715h2.643v8.279l2.063,0.117v0.721h-5.15v-0.721l2.016-0.117V98.564z"/>
	<path d="M222.154,103.832h-4.535c0.031,1.465,0.703,2.197,2.016,2.197c0.762,0,1.484-0.148,2.168-0.445v0.938
		c-0.648,0.293-1.359,0.439-2.133,0.439c-0.957,0-1.723-0.292-2.297-0.876s-0.861-1.388-0.861-2.411c0-1.039,0.265-1.862,0.794-2.47
		s1.237-0.911,2.124-0.911c0.828,0,1.489,0.262,1.983,0.785s0.741,1.221,0.741,2.092V103.832z M217.643,102.965H221
		c0-1.191-0.531-1.787-1.594-1.787C218.332,101.178,217.744,101.773,217.643,102.965z"/>
	<path d="M229.051,101.213h-2.279v5.631h-1.066v-5.631h-1.857v-0.645l1.857-0.193v-0.563c0-0.754,0.176-1.301,0.527-1.641
		s0.936-0.51,1.752-0.51c0.504,0,0.996,0.068,1.477,0.205l-0.24,0.838c-0.406-0.109-0.811-0.164-1.213-0.164
		c-0.48,0-0.807,0.098-0.979,0.293s-0.258,0.518-0.258,0.967v0.609h2.279V101.213z"/>
	<path d="M236.111,105.965v0.809c-0.508,0.125-1,0.188-1.477,0.188c-1.414,0-2.121-0.672-2.121-2.016v-3.732h-1.564v-0.551
		l1.564-0.287l0.451-1.682h0.615v1.717h2.566v0.803h-2.566v3.732c0,0.762,0.375,1.143,1.125,1.143
		C235.068,106.088,235.537,106.047,236.111,105.965z"/>
</g>
<g>
	<path d="M333.541,100.557l-0.287,0.973c-0.48-0.176-0.918-0.264-1.313-0.264c-0.637,0-1.128,0.181-1.474,0.542
		s-0.519,0.884-0.519,1.567v3.469h-1.066v-6.434h0.867l0.129,1.178h0.047c0.297-0.465,0.615-0.797,0.955-0.996
		s0.758-0.299,1.254-0.299C332.596,100.293,333.064,100.381,333.541,100.557z"/>
	<path d="M337.707,101.254l-1.576-0.123v-0.721h2.643v5.596l2.063,0.117v0.721h-5.145v-0.721l2.016-0.117V101.254z M338.246,97.762
		c0.414,0,0.621,0.223,0.621,0.668c0,0.227-0.062,0.396-0.185,0.507s-0.269,0.167-0.437,0.167c-0.418,0-0.627-0.225-0.627-0.674
		C337.619,97.984,337.828,97.762,338.246,97.762z"/>
	<path d="M348.336,100.41v0.662l-1.148,0.158c0.254,0.332,0.381,0.748,0.381,1.248c0,0.629-0.208,1.13-0.624,1.503
		s-0.995,0.56-1.737,0.56c-0.215,0-0.383-0.012-0.504-0.035c-0.391,0.219-0.586,0.479-0.586,0.779c0,0.328,0.314,0.492,0.943,0.492
		h1.096c0.68,0,1.199,0.15,1.559,0.451s0.539,0.73,0.539,1.289c0,1.473-1.104,2.209-3.311,2.209c-0.852,0-1.499-0.157-1.942-0.472
		s-0.665-0.755-0.665-1.321c0-0.828,0.469-1.355,1.406-1.582c-0.375-0.184-0.563-0.484-0.563-0.902c0-0.438,0.26-0.813,0.779-1.125
		c-0.348-0.145-0.621-0.384-0.82-0.718s-0.299-0.698-0.299-1.093c0-0.711,0.208-1.259,0.624-1.644s1.009-0.577,1.778-0.577
		c0.336,0,0.629,0.039,0.879,0.117H348.336z M345.793,106.738h-1.102c-0.898,0-1.348,0.387-1.348,1.16c0,0.68,0.529,1.02,1.588,1.02
		c1.543,0,2.314-0.436,2.314-1.307c0-0.344-0.098-0.575-0.293-0.694S346.371,106.738,345.793,106.738z M345.219,103.809
		c0.871,0,1.307-0.449,1.307-1.348c0-0.934-0.439-1.4-1.318-1.4s-1.318,0.473-1.318,1.418
		C343.889,103.365,344.332,103.809,345.219,103.809z"/>
	<path d="M354.137,106.844v-4.143c0-1.016-0.465-1.523-1.395-1.523c-1.199,0-1.799,0.777-1.799,2.332v3.334h-1.066v-9.117h1.066
		v2.707l-0.047,0.844h0.059c0.402-0.656,1.059-0.984,1.969-0.984c1.52,0,2.279,0.783,2.279,2.35v4.201H354.137z"/>
	<path d="M362.117,105.965v0.809c-0.508,0.125-1,0.188-1.477,0.188c-1.414,0-2.121-0.672-2.121-2.016v-3.732h-1.564v-0.551
		l1.564-0.287l0.451-1.682h0.615v1.717h2.566v0.803h-2.566v3.732c0,0.762,0.375,1.143,1.125,1.143
		C361.074,106.088,361.543,106.047,362.117,105.965z"/>
</g>
<rect x="122.336" y="158.331" fill="#D8ECD1" stroke="#000000" width="80" height="30"/>
<g>
	<path d="M148.102,167.324l-0.28,3.609h-1.06l-0.28-3.609H148.102z M150.986,167.324l-0.28,3.609h-1.06l-0.28-3.609H150.986z"/>
	<path d="M158.998,177.318v-4.833c0-1.185-0.542-1.777-1.627-1.777c-1.399,0-2.099,0.907-2.099,2.721v3.89h-1.244v-10.637h1.244
		v3.158l-0.055,0.984h0.068c0.469-0.766,1.235-1.148,2.297-1.148c1.773,0,2.659,0.914,2.659,2.741v4.901H158.998z"/>
	<path d="M168.828,173.805h-5.291c0.037,1.709,0.82,2.563,2.352,2.563c0.889,0,1.732-0.173,2.529-0.52v1.094
		c-0.756,0.342-1.586,0.513-2.488,0.513c-1.117,0-2.01-0.341-2.68-1.021c-0.67-0.682-1.005-1.619-1.005-2.813
		c0-1.212,0.309-2.173,0.926-2.882c0.618-0.708,1.443-1.063,2.478-1.063c0.966,0,1.737,0.306,2.314,0.916s0.865,1.424,0.865,2.44
		V173.805z M163.564,172.793h3.917c0-1.39-0.62-2.085-1.859-2.085C164.369,170.708,163.683,171.403,163.564,172.793z"/>
	<path d="M173.306,167.324l-0.28,3.609h-1.06l-0.28-3.609H173.306z M176.19,167.324l-0.28,3.609h-1.06l-0.28-3.609H176.19z"/>
</g>
<g>
	<path d="M147.257,144.806l-2.438-6.434h1.102l1.406,3.82c0.332,0.902,0.527,1.537,0.586,1.904h0.035
		c0.027-0.172,0.225-0.807,0.592-1.904l1.4-3.82h1.107l-2.438,6.434H147.257z"/>
	<path d="M156.784,144.806l-0.217-0.891h-0.047c-0.301,0.379-0.609,0.642-0.926,0.788s-0.725,0.22-1.225,0.22
		c-0.637,0-1.136-0.168-1.497-0.504s-0.542-0.807-0.542-1.412c0-1.297,0.996-1.977,2.988-2.039l1.189-0.041v-0.404
		c0-0.922-0.477-1.383-1.43-1.383c-0.574,0-1.215,0.16-1.922,0.48l-0.369-0.803c0.766-0.375,1.514-0.563,2.244-0.563
		c0.887,0,1.528,0.17,1.925,0.51s0.595,0.885,0.595,1.635v4.406H156.784z M156.497,141.659l-0.949,0.041
		c-0.766,0.031-1.309,0.151-1.629,0.36s-0.48,0.528-0.48,0.958c0,0.695,0.391,1.043,1.172,1.043c0.574,0,1.032-0.159,1.374-0.478
		s0.513-0.767,0.513-1.345V141.659z"/>
	<path d="M161.858,136.526l-1.57-0.123v-0.715h2.643v8.279l2.063,0.117v0.721h-5.15v-0.721l2.016-0.117V136.526z"/>
	<path d="M171.345,144.806l-0.158-0.861h-0.059c-0.41,0.652-1.063,0.979-1.957,0.979c-1.527,0-2.291-0.783-2.291-2.35v-4.201h1.066
		v4.143c0,1.016,0.461,1.523,1.383,1.523c0.629,0,1.088-0.181,1.377-0.542s0.434-0.956,0.434-1.784v-3.34h1.066v6.434H171.345z"/>
	<path d="M179.565,141.794h-4.535c0.031,1.465,0.703,2.197,2.016,2.197c0.762,0,1.484-0.148,2.168-0.445v0.938
		c-0.648,0.293-1.359,0.439-2.133,0.439c-0.957,0-1.723-0.292-2.297-0.876s-0.861-1.388-0.861-2.411c0-1.039,0.265-1.862,0.794-2.47
		s1.237-0.911,2.124-0.911c0.828,0,1.489,0.262,1.983,0.785s0.741,1.221,0.741,2.092V141.794z M175.054,140.927h3.357
		c0-1.191-0.531-1.787-1.594-1.787C175.743,139.14,175.155,139.735,175.054,140.927z"/>
</g>
<rect x="162.336" y="188.331" fill="#D8ECD1" stroke="#000000" width="40" height="30"/>
<rect x="122.336" y="188.331" fill="#D8ECD1" stroke="#000000" width="40" height="30"/>
<g>
	<path d="M91.648,198.564l-1.57-0.123v-0.715h2.643v8.279l2.063,0.117v0.721h-5.15v-0.721l2.016-0.117V198.564z"/>
	<path d="M102.154,203.832h-4.535c0.031,1.465,0.703,2.197,2.016,2.197c0.762,0,1.484-0.148,2.168-0.445v0.938
		c-0.648,0.293-1.359,0.439-2.133,0.439c-0.957,0-1.723-0.292-2.297-0.876s-0.861-1.388-0.861-2.411c0-1.039,0.265-1.862,0.794-2.47
		s1.237-0.911,2.124-0.911c0.828,0,1.489,0.262,1.983,0.785s0.741,1.221,0.741,2.092V203.832z M97.643,202.965H101
		c0-1.191-0.531-1.787-1.594-1.787C98.332,201.178,97.744,201.773,97.643,202.965z"/>
	<path d="M109.051,201.213h-2.279v5.631h-1.066v-5.631h-1.857v-0.645l1.857-0.193v-0.563c0-0.754,0.176-1.301,0.527-1.641
		s0.936-0.51,1.752-0.51c0.504,0,0.996,0.068,1.477,0.205l-0.24,0.838c-0.406-0.109-0.811-0.164-1.213-0.164
		c-0.48,0-0.807,0.098-0.979,0.293s-0.258,0.518-0.258,0.967v0.609h2.279V201.213z"/>
	<path d="M116.111,205.965v0.809c-0.508,0.125-1,0.188-1.477,0.188c-1.414,0-2.121-0.672-2.121-2.016v-3.732h-1.564v-0.551
		l1.564-0.287l0.451-1.682h0.615v1.717h2.566v0.803h-2.566v3.732c0,0.762,0.375,1.143,1.125,1.143
		C115.068,206.088,115.537,206.047,116.111,205.965z"/>
</g>
<g>
	<path d="M213.541,200.557l-0.287,0.973c-0.48-0.176-0.918-0.264-1.313-0.264c-0.637,0-1.128,0.181-1.474,0.542
		s-0.519,0.884-0.519,1.567v3.469h-1.066v-6.434h0.867l0.129,1.178h0.047c0.297-0.465,0.615-0.797,0.955-0.996
		s0.758-0.299,1.254-0.299C212.596,200.293,213.064,200.381,213.541,200.557z"/>
	<path d="M217.707,201.254l-1.576-0.123v-0.721h2.643v5.596l2.063,0.117v0.721h-5.145v-0.721l2.016-0.117V201.254z M218.246,197.762
		c0.414,0,0.621,0.223,0.621,0.668c0,0.227-0.062,0.396-0.185,0.507s-0.269,0.167-0.437,0.167c-0.418,0-0.627-0.225-0.627-0.674
		C217.619,197.984,217.828,197.762,218.246,197.762z"/>
	<path d="M228.336,200.41v0.662l-1.148,0.158c0.254,0.332,0.381,0.748,0.381,1.248c0,0.629-0.208,1.13-0.624,1.503
		s-0.995,0.56-1.737,0.56c-0.215,0-0.383-0.012-0.504-0.035c-0.391,0.219-0.586,0.479-0.586,0.779c0,0.328,0.314,0.492,0.943,0.492
		h1.096c0.68,0,1.199,0.15,1.559,0.451s0.539,0.73,0.539,1.289c0,1.473-1.104,2.209-3.311,2.209c-0.852,0-1.499-0.157-1.942-0.472
		s-0.665-0.755-0.665-1.321c0-0.828,0.469-1.355,1.406-1.582c-0.375-0.184-0.563-0.484-0.563-0.902c0-0.438,0.26-0.813,0.779-1.125
		c-0.348-0.145-0.621-0.384-0.82-0.718s-0.299-0.698-0.299-1.093c0-0.711,0.208-1.259,0.624-1.644s1.009-0.577,1.778-0.577
		c0.336,0,0.629,0.039,0.879,0.117H228.336z M225.793,206.738h-1.102c-0.898,0-1.348,0.387-1.348,1.16c0,0.68,0.529,1.02,1.588,1.02
		c1.543,0,2.314-0.436,2.314-1.307c0-0.344-0.098-0.575-0.293-0.694S226.371,206.738,225.793,206.738z M225.219,203.809
		c0.871,0,1.307-0.449,1.307-1.348c0-0.934-0.439-1.4-1.318-1.4s-1.318,0.473-1.318,1.418
		C223.889,203.365,224.332,203.809,225.219,203.809z"/>
	<path d="M234.137,206.844v-4.143c0-1.016-0.465-1.523-1.395-1.523c-1.199,0-1.799,0.777-1.799,2.332v3.334h-1.066v-9.117h1.066
		v2.707l-0.047,0.844h0.059c0.402-0.656,1.059-0.984,1.969-0.984c1.52,0,2.279,0.783,2.279,2.35v4.201H234.137z"/>
	<path d="M242.117,205.965v0.809c-0.508,0.125-1,0.188-1.477,0.188c-1.414,0-2.121-0.672-2.121-2.016v-3.732h-1.564v-0.551
		l1.564-0.287l0.451-1.682h0.615v1.717h2.566v0.803h-2.566v3.732c0,0.762,0.375,1.143,1.125,1.143
		C241.074,206.088,241.543,206.047,242.117,205.965z"/>
</g>
<rect x="362.336" y="158.331" fill="#D8ECD1" stroke="#000000" width="80" height="30"/>
<g>
	<path d="M383.901,167.324l-0.28,3.609h-1.06l-0.28-3.609H383.901z M386.786,167.324l-0.28,3.609h-1.06l-0.28-3.609H386.786z"/>
	<path d="M394.292,177.318l-0.896-4.074l-0.465-2.256h-0.041l-0.444,2.283l-0.923,4.047h-1.292l-1.524-7.506h1.107l0.67,3.712
		c0.155,0.848,0.285,1.743,0.39,2.687h0.041c0.141-0.843,0.296-1.659,0.465-2.447l0.909-3.951h1.319l0.868,3.951
		c0.196,0.889,0.349,1.704,0.458,2.447h0.041c0.141-1.103,0.278-1.998,0.41-2.687l0.697-3.712h1.08l-1.538,7.506H394.292z"/>
	<path d="M403.199,177.318v-4.833c0-1.185-0.542-1.777-1.627-1.777c-1.399,0-2.099,0.907-2.099,2.721v3.89h-1.244v-10.637h1.244
		v3.158l-0.055,0.984h0.068c0.469-0.766,1.235-1.148,2.297-1.148c1.773,0,2.659,0.914,2.659,2.741v4.901H403.199z"/>
	<path d="M409.707,177.455c-0.984,0-1.794-0.354-2.43-1.063c-0.636-0.709-0.954-1.656-0.954-2.841c0-1.198,0.309-2.145,0.926-2.837
		s1.45-1.039,2.499-1.039c0.994,0,1.807,0.354,2.44,1.06s0.95,1.646,0.95,2.816c0,1.208-0.312,2.16-0.937,2.857
		S410.746,177.455,409.707,177.455z M409.734,176.423c1.413,0,2.119-0.957,2.119-2.871c0-1.896-0.711-2.844-2.133-2.844
		c-1.408,0-2.112,0.948-2.112,2.844C407.608,175.466,408.316,176.423,409.734,176.423z"/>
	<path d="M417.506,167.324l-0.28,3.609h-1.06l-0.28-3.609H417.506z M420.391,167.324l-0.28,3.609h-1.06l-0.28-3.609H420.391z"/>
</g>
<g>
	<path d="M387.257,144.806l-2.438-6.434h1.102l1.406,3.82c0.332,0.902,0.527,1.537,0.586,1.904h0.035
		c0.027-0.172,0.225-0.807,0.592-1.904l1.4-3.82h1.107l-2.438,6.434H387.257z"/>
	<path d="M396.784,144.806l-0.217-0.891h-0.047c-0.301,0.379-0.609,0.642-0.926,0.788s-0.725,0.22-1.225,0.22
		c-0.637,0-1.136-0.168-1.497-0.504s-0.542-0.807-0.542-1.412c0-1.297,0.996-1.977,2.988-2.039l1.189-0.041v-0.404
		c0-0.922-0.477-1.383-1.43-1.383c-0.574,0-1.215,0.16-1.922,0.48l-0.369-0.803c0.766-0.375,1.514-0.563,2.244-0.563
		c0.887,0,1.528,0.17,1.925,0.51s0.595,0.885,0.595,1.635v4.406H396.784z M396.497,141.659l-0.949,0.041
		c-0.766,0.031-1.309,0.151-1.629,0.36s-0.48,0.528-0.48,0.958c0,0.695,0.391,1.043,1.172,1.043c0.574,0,1.032-0.159,1.374-0.478
		s0.513-0.767,0.513-1.345V141.659z"/>
	<path d="M401.858,136.526l-1.57-0.123v-0.715h2.643v8.279l2.063,0.117v0.721h-5.15v-0.721l2.016-0.117V136.526z"/>
	<path d="M411.345,144.806l-0.158-0.861h-0.059c-0.41,0.652-1.063,0.979-1.957,0.979c-1.527,0-2.291-0.783-2.291-2.35v-4.201h1.066
		v4.143c0,1.016,0.461,1.523,1.383,1.523c0.629,0,1.088-0.181,1.377-0.542s0.434-0.956,0.434-1.784v-3.34h1.066v6.434H411.345z"/>
	<path d="M419.565,141.794h-4.535c0.031,1.465,0.703,2.197,2.016,2.197c0.762,0,1.484-0.148,2.168-0.445v0.938
		c-0.648,0.293-1.359,0.439-2.133,0.439c-0.957,0-1.723-0.292-2.297-0.876s-0.861-1.388-0.861-2.411c0-1.039,0.265-1.862,0.794-2.47
		s1.237-0.911,2.124-0.911c0.828,0,1.489,0.262,1.983,0.785s0.741,1.221,0.741,2.092V141.794z M415.054,140.927h3.357
		c0-1.191-0.531-1.787-1.594-1.787C415.743,139.14,415.155,139.735,415.054,140.927z"/>
</g>
<rect x="402.336" y="188.331" fill="#D8ECD1" stroke="#000000" width="40" height="30"/>
<rect x="362.336" y="188.331" fill="#D8ECD1" stroke="#000000" width="40" height="30"/>
<g>
	<path d="M331.648,198.564l-1.57-0.123v-0.715h2.643v8.279l2.063,0.117v0.721h-5.15v-0.721l2.016-0.117V198.564z"/>
	<path d="M342.154,203.832h-4.535c0.031,1.465,0.703,2.197,2.016,2.197c0.762,0,1.484-0.148,2.168-0.445v0.938
		c-0.648,0.293-1.359,0.439-2.133,0.439c-0.957,0-1.723-0.292-2.297-0.876s-0.861-1.388-0.861-2.411c0-1.039,0.265-1.862,0.794-2.47
		s1.237-0.911,2.124-0.911c0.828,0,1.489,0.262,1.983,0.785s0.741,1.221,0.741,2.092V203.832z M337.643,202.965H341
		c0-1.191-0.531-1.787-1.594-1.787C338.332,201.178,337.744,201.773,337.643,202.965z"/>
	<path d="M349.051,201.213h-2.279v5.631h-1.066v-5.631h-1.857v-0.645l1.857-0.193v-0.563c0-0.754,0.176-1.301,0.527-1.641
		s0.936-0.51,1.752-0.51c0.504,0,0.996,0.068,1.477,0.205l-0.24,0.838c-0.406-0.109-0.811-0.164-1.213-0.164
		c-0.48,0-0.807,0.098-0.979,0.293s-0.258,0.518-0.258,0.967v0.609h2.279V201.213z"/>
	<path d="M356.111,205.965v0.809c-0.508,0.125-1,0.188-1.477,0.188c-1.414,0-2.121-0.672-2.121-2.016v-3.732h-1.564v-0.551
		l1.564-0.287l0.451-1.682h0.615v1.717h2.566v0.803h-2.566v3.732c0,0.762,0.375,1.143,1.125,1.143
		C355.068,206.088,355.537,206.047,356.111,205.965z"/>
</g>
<g>
	<path d="M453.541,200.557l-0.287,0.973c-0.48-0.176-0.918-0.264-1.313-0.264c-0.637,0-1.128,0.181-1.474,0.542
		s-0.519,0.884-0.519,1.567v3.469h-1.066v-6.434h0.867l0.129,1.178h0.047c0.297-0.465,0.615-0.797,0.955-0.996
		s0.758-0.299,1.254-0.299C452.596,200.293,453.064,200.381,453.541,200.557z"/>
	<path d="M457.707,201.254l-1.576-0.123v-0.721h2.643v5.596l2.063,0.117v0.721h-5.145v-0.721l2.016-0.117V201.254z M458.246,197.762
		c0.414,0,0.621,0.223,0.621,0.668c0,0.227-0.062,0.396-0.185,0.507s-0.269,0.167-0.437,0.167c-0.418,0-0.627-0.225-0.627-0.674
		C457.619,197.984,457.828,197.762,458.246,197.762z"/>
	<path d="M468.336,200.41v0.662l-1.148,0.158c0.254,0.332,0.381,0.748,0.381,1.248c0,0.629-0.208,1.13-0.624,1.503
		s-0.995,0.56-1.737,0.56c-0.215,0-0.383-0.012-0.504-0.035c-0.391,0.219-0.586,0.479-0.586,0.779c0,0.328,0.314,0.492,0.943,0.492
		h1.096c0.68,0,1.199,0.15,1.559,0.451s0.539,0.73,0.539,1.289c0,1.473-1.104,2.209-3.311,2.209c-0.852,0-1.499-0.157-1.942-0.472
		s-0.665-0.755-0.665-1.321c0-0.828,0.469-1.355,1.406-1.582c-0.375-0.184-0.563-0.484-0.563-0.902c0-0.438,0.26-0.813,0.779-1.125
		c-0.348-0.145-0.621-0.384-0.82-0.718s-0.299-0.698-0.299-1.093c0-0.711,0.208-1.259,0.624-1.644s1.009-0.577,1.778-0.577
		c0.336,0,0.629,0.039,0.879,0.117H468.336z M465.793,206.738h-1.102c-0.898,0-1.348,0.387-1.348,1.16c0,0.68,0.529,1.02,1.588,1.02
		c1.543,0,2.314-0.436,2.314-1.307c0-0.344-0.098-0.575-0.293-0.694S466.371,206.738,465.793,206.738z M465.219,203.809
		c0.871,0,1.307-0.449,1.307-1.348c0-0.934-0.439-1.4-1.318-1.4s-1.318,0.473-1.318,1.418
		C463.889,203.365,464.332,203.809,465.219,203.809z"/>
	<path d="M474.137,206.844v-4.143c0-1.016-0.465-1.523-1.395-1.523c-1.199,0-1.799,0.777-1.799,2.332v3.334h-1.066v-9.117h1.066
		v2.707l-0.047,0.844h0.059c0.402-0.656,1.059-0.984,1.969-0.984c1.52,0,2.279,0.783,2.279,2.35v4.201H474.137z"/>
	<path d="M482.117,205.965v0.809c-0.508,0.125-1,0.188-1.477,0.188c-1.414,0-2.121-0.672-2.121-2.016v-3.732h-1.564v-0.551
		l1.564-0.287l0.451-1.682h0.615v1.717h2.566v0.803h-2.566v3.732c0,0.762,0.375,1.143,1.125,1.143
		C481.074,206.088,481.543,206.047,482.117,205.965z"/>
</g>
<rect x="42.336" y="258.331" fill="#D8ECD1" stroke="#000000" width="80" height="30"/>
<g>
	<path d="M72.302,267.324l-0.28,3.609h-1.06l-0.28-3.609H72.302z M75.187,267.324l-0.28,3.609h-1.06l-0.28-3.609H75.187z"/>
	<path d="M83.253,277.318L83,276.279h-0.055c-0.351,0.442-0.711,0.748-1.08,0.92c-0.369,0.17-0.845,0.256-1.429,0.256
		c-0.743,0-1.325-0.196-1.747-0.588s-0.632-0.941-0.632-1.647c0-1.513,1.162-2.306,3.486-2.379l1.388-0.048v-0.472
		c0-1.075-0.556-1.613-1.668-1.613c-0.67,0-1.417,0.187-2.242,0.561l-0.431-0.937c0.893-0.438,1.766-0.656,2.618-0.656
		c1.035,0,1.783,0.198,2.246,0.595s0.694,1.032,0.694,1.907v5.141H83.253z M82.918,273.647l-1.107,0.048
		c-0.893,0.036-1.527,0.177-1.9,0.42c-0.374,0.244-0.561,0.617-0.561,1.118c0,0.812,0.456,1.217,1.367,1.217
		c0.67,0,1.204-0.186,1.603-0.558c0.399-0.371,0.598-0.894,0.598-1.568V273.647z"/>
	<path d="M89.105,267.324l-0.28,3.609h-1.06l-0.28-3.609H89.105z M91.99,267.324l-0.28,3.609h-1.06l-0.28-3.609H91.99z"/>
</g>
<g>
	<path d="M67.257,244.806l-2.438-6.434h1.102l1.406,3.82c0.332,0.902,0.527,1.537,0.586,1.904h0.035
		c0.027-0.172,0.225-0.807,0.592-1.904l1.4-3.82h1.107l-2.438,6.434H67.257z"/>
	<path d="M76.784,244.806l-0.217-0.891h-0.047c-0.301,0.379-0.609,0.642-0.926,0.788s-0.725,0.22-1.225,0.22
		c-0.637,0-1.136-0.168-1.497-0.504s-0.542-0.807-0.542-1.412c0-1.297,0.996-1.977,2.988-2.039l1.189-0.041v-0.404
		c0-0.922-0.477-1.383-1.43-1.383c-0.574,0-1.215,0.16-1.922,0.48l-0.369-0.803c0.766-0.375,1.514-0.563,2.244-0.563
		c0.887,0,1.528,0.17,1.925,0.51s0.595,0.885,0.595,1.635v4.406H76.784z M76.497,241.659l-0.949,0.041
		c-0.766,0.031-1.309,0.151-1.629,0.36s-0.48,0.528-0.48,0.958c0,0.695,0.391,1.043,1.172,1.043c0.574,0,1.032-0.159,1.374-0.478
		s0.513-0.767,0.513-1.345V241.659z"/>
	<path d="M81.858,236.526l-1.57-0.123v-0.715h2.643v8.279l2.063,0.117v0.721h-5.15v-0.721l2.016-0.117V236.526z"/>
	<path d="M91.345,244.806l-0.158-0.861h-0.059c-0.41,0.652-1.063,0.979-1.957,0.979c-1.527,0-2.291-0.783-2.291-2.35v-4.201h1.066
		v4.143c0,1.016,0.461,1.523,1.383,1.523c0.629,0,1.088-0.181,1.377-0.542s0.434-0.956,0.434-1.784v-3.34h1.066v6.434H91.345z"/>
	<path d="M99.565,241.794H95.03c0.031,1.465,0.703,2.197,2.016,2.197c0.762,0,1.484-0.148,2.168-0.445v0.938
		c-0.648,0.293-1.359,0.439-2.133,0.439c-0.957,0-1.723-0.292-2.297-0.876s-0.861-1.388-0.861-2.411c0-1.039,0.265-1.862,0.794-2.47
		s1.237-0.911,2.124-0.911c0.828,0,1.489,0.262,1.983,0.785s0.741,1.221,0.741,2.092V241.794z M95.054,240.927h3.357
		c0-1.191-0.531-1.787-1.594-1.787C95.743,239.14,95.155,239.735,95.054,240.927z"/>
</g>
<rect x="82.336" y="288.331" fill="#D8ECD1" stroke="#000000" width="40" height="30"/>
<rect x="42.336" y="288.331" fill="#D8ECD1" stroke="#000000" width="40" height="30"/>
<g>
	<path d="M11.648,298.564l-1.57-0.123v-0.715h2.643v8.279l2.063,0.117v0.721h-5.15v-0.721l2.016-0.117V298.564z"/>
	<path d="M22.154,303.832h-4.535c0.031,1.465,0.703,2.197,2.016,2.197c0.762,0,1.484-0.148,2.168-0.445v0.938
		c-0.648,0.293-1.359,0.439-2.133,0.439c-0.957,0-1.723-0.292-2.297-0.876s-0.861-1.388-0.861-2.411c0-1.039,0.265-1.862,0.794-2.47
		s1.237-0.911,2.124-0.911c0.828,0,1.489,0.262,1.983,0.785s0.741,1.221,0.741,2.092V303.832z M17.643,302.965H21
		c0-1.191-0.531-1.787-1.594-1.787C18.332,301.178,17.744,301.773,17.643,302.965z"/>
	<path d="M29.051,301.213h-2.279v5.631h-1.066v-5.631h-1.857v-0.645l1.857-0.193v-0.563c0-0.754,0.176-1.301,0.527-1.641
		s0.936-0.51,1.752-0.51c0.504,0,0.996,0.068,1.477,0.205l-0.24,0.838c-0.406-0.109-0.811-0.164-1.213-0.164
		c-0.48,0-0.807,0.098-0.979,0.293s-0.258,0.518-0.258,0.967v0.609h2.279V301.213z"/>
	<path d="M36.111,305.965v0.809c-0.508,0.125-1,0.188-1.477,0.188c-1.414,0-2.121-0.672-2.121-2.016v-3.732h-1.564v-0.551
		l1.564-0.287l0.451-1.682h0.615v1.717h2.566v0.803H33.58v3.732c0,0.762,0.375,1.143,1.125,1.143
		C35.068,306.088,35.537,306.047,36.111,305.965z"/>
</g>
<g>
	<path d="M133.541,300.557l-0.287,0.973c-0.48-0.176-0.918-0.264-1.313-0.264c-0.637,0-1.128,0.181-1.474,0.542
		s-0.519,0.884-0.519,1.567v3.469h-1.066v-6.434h0.867l0.129,1.178h0.047c0.297-0.465,0.615-0.797,0.955-0.996
		s0.758-0.299,1.254-0.299C132.596,300.293,133.064,300.381,133.541,300.557z"/>
	<path d="M137.707,301.254l-1.576-0.123v-0.721h2.643v5.596l2.063,0.117v0.721h-5.145v-0.721l2.016-0.117V301.254z M138.246,297.762
		c0.414,0,0.621,0.223,0.621,0.668c0,0.227-0.062,0.396-0.185,0.507s-0.269,0.167-0.437,0.167c-0.418,0-0.627-0.225-0.627-0.674
		C137.619,297.984,137.828,297.762,138.246,297.762z"/>
	<path d="M148.336,300.41v0.662l-1.148,0.158c0.254,0.332,0.381,0.748,0.381,1.248c0,0.629-0.208,1.13-0.624,1.503
		s-0.995,0.56-1.737,0.56c-0.215,0-0.383-0.012-0.504-0.035c-0.391,0.219-0.586,0.479-0.586,0.779c0,0.328,0.314,0.492,0.943,0.492
		h1.096c0.68,0,1.199,0.15,1.559,0.451s0.539,0.73,0.539,1.289c0,1.473-1.104,2.209-3.311,2.209c-0.852,0-1.499-0.157-1.942-0.472
		s-0.665-0.755-0.665-1.321c0-0.828,0.469-1.355,1.406-1.582c-0.375-0.184-0.563-0.484-0.563-0.902c0-0.438,0.26-0.813,0.779-1.125
		c-0.348-0.145-0.621-0.384-0.82-0.718s-0.299-0.698-0.299-1.093c0-0.711,0.208-1.259,0.624-1.644s1.009-0.577,1.778-0.577
		c0.336,0,0.629,0.039,0.879,0.117H148.336z M145.793,306.738h-1.102c-0.898,0-1.348,0.387-1.348,1.16c0,0.68,0.529,1.02,1.588,1.02
		c1.543,0,2.314-0.436,2.314-1.307c0-0.344-0.098-0.575-0.293-0.694S146.371,306.738,145.793,306.738z M145.219,303.809
		c0.871,0,1.307-0.449,1.307-1.348c0-0.934-0.439-1.4-1.318-1.4s-1.318,0.473-1.318,1.418
		C143.889,303.365,144.332,303.809,145.219,303.809z"/>
	<path d="M154.137,306.844v-4.143c0-1.016-0.465-1.523-1.395-1.523c-1.199,0-1.799,0.777-1.799,2.332v3.334h-1.066v-9.117h1.066
		v2.707l-0.047,0.844h0.059c0.402-0.656,1.059-0.984,1.969-0.984c1.52,0,2.279,0.783,2.279,2.35v4.201H154.137z"/>
	<path d="M162.117,305.965v0.809c-0.508,0.125-1,0.188-1.477,0.188c-1.414,0-2.121-0.672-2.121-2.016v-3.732h-1.564v-0.551
		l1.564-0.287l0.451-1.682h0.615v1.717h2.566v0.803h-2.566v3.732c0,0.762,0.375,1.143,1.125,1.143
		C161.074,306.088,161.543,306.047,162.117,305.965z"/>
</g>
<rect x="202.336" y="258.331" fill="#D8ECD1" stroke="#000000" width="80" height="30"/>
<g>
	<path d="M211.299,267.324l-0.28,3.609h-1.06l-0.28-3.609H211.299z M214.184,267.324l-0.28,3.609h-1.06l-0.28-3.609H214.184z"/>
	<path d="M218.456,276.368h-0.082c0.055,0.588,0.082,0.957,0.082,1.107v3.206h-1.244v-10.869h1.005l0.185,1.012h0.055
		c0.501-0.766,1.235-1.148,2.201-1.148c0.916,0,1.635,0.341,2.157,1.021c0.522,0.682,0.783,1.633,0.783,2.854
		c0,1.23-0.262,2.188-0.786,2.874c-0.524,0.687-1.242,1.029-2.153,1.029C219.714,277.455,218.98,277.093,218.456,276.368z
		 M218.456,273.271v0.28c0,1.034,0.158,1.771,0.475,2.212c0.317,0.439,0.821,0.659,1.514,0.659c1.24,0,1.859-0.962,1.859-2.885
		c0-1.887-0.625-2.83-1.873-2.83c-0.693,0-1.19,0.2-1.494,0.602S218.474,272.364,218.456,273.271z"/>
	<path d="M228.17,267.659l-1.832-0.144v-0.834h3.083v9.659l2.406,0.137v0.841h-6.009v-0.841l2.352-0.137V267.659z"/>
	<path d="M239.053,277.318l-0.253-1.039h-0.055c-0.351,0.442-0.711,0.748-1.08,0.92c-0.369,0.17-0.845,0.256-1.429,0.256
		c-0.743,0-1.325-0.196-1.747-0.588s-0.632-0.941-0.632-1.647c0-1.513,1.162-2.306,3.486-2.379l1.388-0.048v-0.472
		c0-1.075-0.556-1.613-1.668-1.613c-0.67,0-1.417,0.187-2.242,0.561l-0.431-0.937c0.893-0.438,1.766-0.656,2.618-0.656
		c1.035,0,1.783,0.198,2.246,0.595s0.694,1.032,0.694,1.907v5.141H239.053z M238.718,273.647l-1.107,0.048
		c-0.893,0.036-1.527,0.177-1.9,0.42c-0.374,0.244-0.561,0.617-0.561,1.118c0,0.812,0.456,1.217,1.367,1.217
		c0.67,0,1.204-0.186,1.603-0.558c0.399-0.371,0.598-0.894,0.598-1.568V273.647z"/>
	<path d="M247.399,277.318v-4.833c0-1.185-0.542-1.777-1.627-1.777c-1.399,0-2.099,0.907-2.099,2.721v3.89h-1.244v-7.506h1.005
		l0.185,1.012h0.068c0.469-0.766,1.235-1.148,2.297-1.148c1.773,0,2.659,0.914,2.659,2.741v4.901H247.399z"/>
	<path d="M256.71,276.293v0.943c-0.592,0.146-1.167,0.219-1.723,0.219c-1.65,0-2.475-0.784-2.475-2.352v-4.354h-1.825v-0.643
		l1.825-0.335l0.526-1.962h0.718v2.003h2.994v0.937h-2.994v4.354c0,0.889,0.438,1.333,1.313,1.333
		C255.493,276.437,256.04,276.389,256.71,276.293z"/>
	<path d="M259.526,276.983v-1.135c0.879,0.392,1.723,0.588,2.529,0.588c1.253,0,1.88-0.369,1.88-1.107
		c0-0.26-0.112-0.485-0.335-0.677s-0.738-0.433-1.545-0.725c-1.062-0.396-1.73-0.76-2.006-1.09
		c-0.276-0.331-0.414-0.722-0.414-1.173c0-0.62,0.254-1.106,0.762-1.46c0.508-0.353,1.211-0.529,2.109-0.529
		c0.902,0,1.743,0.169,2.522,0.506l-0.41,1.019c-0.83-0.328-1.556-0.492-2.181-0.492c-1.076,0-1.613,0.303-1.613,0.909
		c0,0.278,0.115,0.5,0.345,0.666c0.23,0.167,0.76,0.398,1.589,0.694c0.961,0.351,1.601,0.696,1.917,1.036
		c0.317,0.339,0.475,0.755,0.475,1.247c0,0.684-0.267,1.22-0.8,1.61c-0.533,0.389-1.288,0.584-2.263,0.584
		C260.959,277.455,260.105,277.298,259.526,276.983z"/>
	<path d="M270.108,267.324l-0.28,3.609h-1.06l-0.28-3.609H270.108z M272.993,267.324l-0.28,3.609h-1.06l-0.28-3.609H272.993z"/>
</g>
<g>
	<path d="M227.257,244.806l-2.438-6.434h1.102l1.406,3.82c0.332,0.902,0.527,1.537,0.586,1.904h0.035
		c0.027-0.172,0.225-0.807,0.592-1.904l1.4-3.82h1.107l-2.438,6.434H227.257z"/>
	<path d="M236.784,244.806l-0.217-0.891h-0.047c-0.301,0.379-0.609,0.642-0.926,0.788s-0.725,0.22-1.225,0.22
		c-0.637,0-1.136-0.168-1.497-0.504s-0.542-0.807-0.542-1.412c0-1.297,0.996-1.977,2.988-2.039l1.189-0.041v-0.404
		c0-0.922-0.477-1.383-1.43-1.383c-0.574,0-1.215,0.16-1.922,0.48l-0.369-0.803c0.766-0.375,1.514-0.563,2.244-0.563
		c0.887,0,1.528,0.17,1.925,0.51s0.595,0.885,0.595,1.635v4.406H236.784z M236.497,241.659l-0.949,0.041
		c-0.766,0.031-1.309,0.151-1.629,0.36s-0.48,0.528-0.48,0.958c0,0.695,0.391,1.043,1.172,1.043c0.574,0,1.032-0.159,1.374-0.478
		s0.513-0.767,0.513-1.345V241.659z"/>
	<path d="M241.858,236.526l-1.57-0.123v-0.715h2.643v8.279l2.063,0.117v0.721h-5.15v-0.721l2.016-0.117V236.526z"/>
	<path d="M251.345,244.806l-0.158-0.861h-0.059c-0.41,0.652-1.063,0.979-1.957,0.979c-1.527,0-2.291-0.783-2.291-2.35v-4.201h1.066
		v4.143c0,1.016,0.461,1.523,1.383,1.523c0.629,0,1.088-0.181,1.377-0.542s0.434-0.956,0.434-1.784v-3.34h1.066v6.434H251.345z"/>
	<path d="M259.565,241.794h-4.535c0.031,1.465,0.703,2.197,2.016,2.197c0.762,0,1.484-0.148,2.168-0.445v0.938
		c-0.648,0.293-1.359,0.439-2.133,0.439c-0.957,0-1.723-0.292-2.297-0.876s-0.861-1.388-0.861-2.411c0-1.039,0.265-1.862,0.794-2.47
		s1.237-0.911,2.124-0.911c0.828,0,1.489,0.262,1.983,0.785s0.741,1.221,0.741,2.092V241.794z M255.054,240.927h3.357
		c0-1.191-0.531-1.787-1.594-1.787C255.743,239.14,255.155,239.735,255.054,240.927z"/>
</g>
<rect x="242.336" y="288.331" fill="#D8ECD1" stroke="#000000" width="40" height="30"/>
<rect x="202.336" y="288.331" fill="#D8ECD1" stroke="#000000" width="40" height="30"/>
<g>
	<path d="M171.648,298.564l-1.57-0.123v-0.715h2.643v8.279l2.063,0.117v0.721h-5.15v-0.721l2.016-0.117V298.564z"/>
	<path d="M182.154,303.832h-4.535c0.031,1.465,0.703,2.197,2.016,2.197c0.762,0,1.484-0.148,2.168-0.445v0.938
		c-0.648,0.293-1.359,0.439-2.133,0.439c-0.957,0-1.723-0.292-2.297-0.876s-0.861-1.388-0.861-2.411c0-1.039,0.265-1.862,0.794-2.47
		s1.237-0.911,2.124-0.911c0.828,0,1.489,0.262,1.983,0.785s0.741,1.221,0.741,2.092V303.832z M177.643,302.965H181
		c0-1.191-0.531-1.787-1.594-1.787C178.332,301.178,177.744,301.773,177.643,302.965z"/>
	<path d="M189.051,301.213h-2.279v5.631h-1.066v-5.631h-1.857v-0.645l1.857-0.193v-0.563c0-0.754,0.176-1.301,0.527-1.641
		s0.936-0.51,1.752-0.51c0.504,0,0.996,0.068,1.477,0.205l-0.24,0.838c-0.406-0.109-0.811-0.164-1.213-0.164
		c-0.48,0-0.807,0.098-0.979,0.293s-0.258,0.518-0.258,0.967v0.609h2.279V301.213z"/>
	<path d="M196.111,305.965v0.809c-0.508,0.125-1,0.188-1.477,0.188c-1.414,0-2.121-0.672-2.121-2.016v-3.732h-1.564v-0.551
		l1.564-0.287l0.451-1.682h0.615v1.717h2.566v0.803h-2.566v3.732c0,0.762,0.375,1.143,1.125,1.143
		C195.068,306.088,195.537,306.047,196.111,305.965z"/>
</g>
<g>
	<path d="M293.541,300.557l-0.287,0.973c-0.48-0.176-0.918-0.264-1.313-0.264c-0.637,0-1.128,0.181-1.474,0.542
		s-0.519,0.884-0.519,1.567v3.469h-1.066v-6.434h0.867l0.129,1.178h0.047c0.297-0.465,0.615-0.797,0.955-0.996
		s0.758-0.299,1.254-0.299C292.596,300.293,293.064,300.381,293.541,300.557z"/>
	<path d="M297.707,301.254l-1.576-0.123v-0.721h2.643v5.596l2.063,0.117v0.721h-5.145v-0.721l2.016-0.117V301.254z M298.246,297.762
		c0.414,0,0.621,0.223,0.621,0.668c0,0.227-0.062,0.396-0.185,0.507s-0.269,0.167-0.437,0.167c-0.418,0-0.627-0.225-0.627-0.674
		C297.619,297.984,297.828,297.762,298.246,297.762z"/>
	<path d="M308.336,300.41v0.662l-1.148,0.158c0.254,0.332,0.381,0.748,0.381,1.248c0,0.629-0.208,1.13-0.624,1.503
		s-0.995,0.56-1.737,0.56c-0.215,0-0.383-0.012-0.504-0.035c-0.391,0.219-0.586,0.479-0.586,0.779c0,0.328,0.314,0.492,0.943,0.492
		h1.096c0.68,0,1.199,0.15,1.559,0.451s0.539,0.73,0.539,1.289c0,1.473-1.104,2.209-3.311,2.209c-0.852,0-1.499-0.157-1.942-0.472
		s-0.665-0.755-0.665-1.321c0-0.828,0.469-1.355,1.406-1.582c-0.375-0.184-0.563-0.484-0.563-0.902c0-0.438,0.26-0.813,0.779-1.125
		c-0.348-0.145-0.621-0.384-0.82-0.718s-0.299-0.698-0.299-1.093c0-0.711,0.208-1.259,0.624-1.644s1.009-0.577,1.778-0.577
		c0.336,0,0.629,0.039,0.879,0.117H308.336z M305.793,306.738h-1.102c-0.898,0-1.348,0.387-1.348,1.16c0,0.68,0.529,1.02,1.588,1.02
		c1.543,0,2.314-0.436,2.314-1.307c0-0.344-0.098-0.575-0.293-0.694S306.371,306.738,305.793,306.738z M305.219,303.809
		c0.871,0,1.307-0.449,1.307-1.348c0-0.934-0.439-1.4-1.318-1.4s-1.318,0.473-1.318,1.418
		C303.889,303.365,304.332,303.809,305.219,303.809z"/>
	<path d="M314.137,306.844v-4.143c0-1.016-0.465-1.523-1.395-1.523c-1.199,0-1.799,0.777-1.799,2.332v3.334h-1.066v-9.117h1.066
		v2.707l-0.047,0.844h0.059c0.402-0.656,1.059-0.984,1.969-0.984c1.52,0,2.279,0.783,2.279,2.35v4.201H314.137z"/>
	<path d="M322.117,305.965v0.809c-0.508,0.125-1,0.188-1.477,0.188c-1.414,0-2.121-0.672-2.121-2.016v-3.732h-1.564v-0.551
		l1.564-0.287l0.451-1.682h0.615v1.717h2.566v0.803h-2.566v3.732c0,0.762,0.375,1.143,1.125,1.143
		C321.074,306.088,321.543,306.047,322.117,305.965z"/>
</g>
<g>
	<g>
		<line fill="none" stroke="#000000" stroke-width="2" x1="262.336" y1="103.331" x2="205.336" y2="155.581"/>
		<polygon points="204.088,151.211 205.799,151.285 205.623,155.317 209.657,155.494 209.581,157.203 203.838,156.954 		"/>
	</g>
</g>
<g>
	<g>
		<line fill="none" stroke="#000000" stroke-width="2" x1="302.336" y1="103.331" x2="359.336" y2="155.581"/>
		<polygon points="355.091,157.203 355.016,155.492 359.049,155.317 358.874,151.284 360.583,151.211 360.833,156.954 		"/>
	</g>
</g>
<g>
	<g>
		<line fill="none" stroke="#000000" stroke-width="2" x1="142.336" y1="203.331" x2="123.427" y2="255.331"/>
		<polygon points="120.302,252.031 121.854,251.307 123.56,254.965 127.219,253.258 127.941,254.81 122.732,257.24 		"/>
	</g>
</g>
<g>
	<g>
		<line fill="none" stroke="#000000" stroke-width="2" x1="182.336" y1="203.331" x2="201.245" y2="255.331"/>
		<polygon points="196.73,254.81 197.455,253.258 201.112,254.965 202.82,251.307 204.37,252.031 201.939,257.24 		"/>
	</g>
</g>
<circle cx="262.336" cy="103.331" r="3"/>
<circle cx="302.336" cy="103.331" r="3"/>
<circle cx="142.336" cy="203.331" r="3"/>
<circle cx="182.336" cy="203.331" r="3"/>
<line fill="none" stroke="#000000" x1="42.336" y1="288.331" x2="82.336" y2="318.331"/>
<line fill="none" stroke="#000000" x1="42.336" y1="318.331" x2="82.336" y2="288.331"/>
<line fill="none" stroke="#000000" x1="82.336" y1="288.331" x2="122.336" y2="318.331"/>
<line fill="none" stroke="#000000" x1="82.336" y1="318.331" x2="122.336" y2="288.331"/>
<line fill="none" stroke="#000000" x1="202.336" y1="288.331" x2="242.336" y2="318.331"/>
<line fill="none" stroke="#000000" x1="202.336" y1="318.331" x2="242.336" y2="288.331"/>
<line fill="none" stroke="#000000" x1="242.336" y1="288.331" x2="282.336" y2="318.331"/>
<line fill="none" stroke="#000000" x1="242.336" y1="318.331" x2="282.336" y2="288.331"/>
<line fill="none" stroke="#000000" x1="362.336" y1="188.331" x2="402.336" y2="218.331"/>
<line fill="none" stroke="#000000" x1="362.336" y1="218.331" x2="402.336" y2="188.331"/>
<line fill="none" stroke="#000000" x1="402.336" y1="188.331" x2="442.336" y2="218.331"/>
<line fill="none" stroke="#000000" x1="402.336" y1="218.331" x2="442.336" y2="188.331"/>
</svg>
