<?xml version="1.0" encoding="iso-8859-1"?>
<!-- Generator: Adobe Illustrator 14.0.0, SVG Export Plug-In . SVG Version: 6.00 Build 43363)  -->
<!DOCTYPE svg PUBLIC "-//W3C//DTD SVG 1.1//EN" "http://www.w3.org/Graphics/SVG/1.1/DTD/svg11.dtd">
<svg version="1.1" id="Layer_1" xmlns="http://www.w3.org/2000/svg" xmlns:xlink="http://www.w3.org/1999/xlink" x="0px" y="0px"
	 width="600px" height="146.5px" viewBox="0 0 600 146.5" enable-background="new 0 0 600 146.5" xml:space="preserve">
<rect x="394.999" y="47" fill="#DFF2F7" stroke="#000000" width="200" height="79"/>
<rect x="456.999" y="55.75" fill="#D8ECD1" stroke="#000000" width="128" height="16.5"/>
<rect x="456.999" y="76.75" fill="#D8ECD1" stroke="#000000" width="120" height="16.5"/>
<rect x="456.999" y="98.75" fill="#D8ECD1" stroke="#000000" width="28" height="16.5"/>
<text transform="matrix(1 0 0 1 459.7817 18.4746)"><tspan x="0" y="0" font-family="'Courier New'" font-weight="bold" font-size="12px">Human</tspan><tspan x="36.006" y="0" font-family="'Noto Serif'" font-size="11px"> object</tspan></text>
<text transform="matrix(1 0 0 1 88.0957 18.4746)"><tspan x="0" y="0" font-family="'Courier New'" font-weight="bold" font-size="12px">Human</tspan><tspan x="36.006" y="0" font-family="'Noto Serif'" font-size="11px"> class</tspan></text>
<text transform="matrix(1 0 0 1 458.999 67.5)"><tspan x="0" y="0" font-family="'Courier New'" font-weight="bold" font-size="12px">&quot;Albert Einstein&quot;</tspan><tspan x="0" y="21.4" font-family="'Courier New'" font-weight="bold" font-size="12px">&quot;March 14, 1879&quot;</tspan><tspan x="0" y="42.8" font-family="'Courier New'" font-weight="bold" font-size="12px">175</tspan></text>
<text transform="matrix(1 0 0 1 420.1943 68)"><tspan x="0" y="0" font-family="'Courier New'" font-weight="bold" font-size="12px">name</tspan><tspan x="7.201" y="21.4" font-family="'Courier New'" font-weight="bold" font-size="12px">DOB</tspan><tspan x="-14.402" y="42.8" font-family="'Courier New'" font-weight="bold" font-size="12px">height</tspan></text>
<rect x="4.999" y="32" fill="#DFF2F7" stroke="#000000" width="230" height="109"/>
<rect x="19.999" y="47" fill="#FFFFFF" stroke="#000000" width="200" height="79"/>
<text transform="matrix(1 0 0 1 83.999 67.5)"><tspan x="0" y="0" font-family="'Courier New'" font-weight="bold" font-size="12px">String</tspan><tspan x="0" y="21.4" font-family="'Courier New'" font-weight="bold" font-size="12px">String</tspan><tspan x="0" y="42.8" font-family="'Courier New'" font-weight="bold" font-size="12px">int</tspan></text>
<text transform="matrix(1 0 0 1 45.1943 68)"><tspan x="0" y="0" font-family="'Courier New'" font-weight="bold" font-size="12px">name</tspan><tspan x="7.201" y="21.4" font-family="'Courier New'" font-weight="bold" font-size="12px">DOB</tspan><tspan x="-14.402" y="42.8" font-family="'Courier New'" font-weight="bold" font-size="12px">height</tspan></text>
<text transform="matrix(1 0 0 1 275.3335 57.667)" font-family="'Noto Serif'" font-size="11px">create instance</text>
<linearGradient id="SVGID_1_" gradientUnits="userSpaceOnUse" x1="181.5791" y1="86" x2="386.4151" y2="86">
	<stop  offset="0" style="stop-color:#00AEEF;stop-opacity:0"/>
	<stop  offset="1" style="stop-color:#00AEEF"/>
</linearGradient>
<polygon fill="url(#SVGID_1_)" points="392.155,86 361.843,68.5 361.843,80.167 180.249,80.167 180.249,91.833 361.843,91.833 
	361.843,103.5 "/>
<g>
	<path d="M332.679,79.047c1.839-1.839,2.373-4.485,1.613-6.798l-4.206,4.206l-4.243-4.243l4.206-4.206
		c-2.314-0.76-4.959-0.227-6.799,1.613c-1.839,1.839-2.373,4.485-1.613,6.798l-4.28,4.28l4.243,4.243l4.28-4.28
		C328.194,81.42,330.84,80.886,332.679,79.047z"/>
	<path d="M308.637,103.089c-1.839,1.839-4.485,2.373-6.798,1.612l4.206-4.206l-4.243-4.243l-4.206,4.206
		c-0.76-2.314-0.227-4.959,1.613-6.799c1.839-1.839,4.485-2.373,6.798-1.613l4.28-4.28l4.243,4.243l-4.28,4.28
		C311.01,98.604,310.477,101.25,308.637,103.089z"/>
	<rect x="299.772" y="86.182" transform="matrix(0.7071 0.7071 -0.7071 0.7071 156.4273 -199.2852)" width="38" height="6"/>
	<path d="M307.458,64.433c2.122-2.121,8.368,4.125,8.368,4.125s-3.86-1.562-4.832-0.589s-11.373,11.373-11.373,11.373l-3.536-3.535
		C296.086,75.806,305.337,66.555,307.458,64.433z"/>
	<rect x="291.785" y="76.872" transform="matrix(0.7071 0.7071 -0.7071 0.7071 142.8045 -186.2056)" width="8.75" height="4.792"/>
	<rect x="298.827" y="66.737" transform="matrix(0.7071 0.7071 -0.7071 0.7071 136.982 -191.2307)" width="1" height="6"/>
</g>
</svg>
