<?xml version="1.0" encoding="iso-8859-1"?>
<!-- Generator: Adobe Illustrator 14.0.0, SVG Export Plug-In . SVG Version: 6.00 Build 43363)  -->
<!DOCTYPE svg PUBLIC "-//W3C//DTD SVG 1.1//EN" "http://www.w3.org/Graphics/SVG/1.1/DTD/svg11.dtd">
<svg version="1.1" id="Layer_1" xmlns="http://www.w3.org/2000/svg" xmlns:xlink="http://www.w3.org/1999/xlink" x="0px" y="0px"
	 width="451.5px" height="257.333px" viewBox="0 0 451.5 257.333" enable-background="new 0 0 451.5 257.333" xml:space="preserve">
<rect x="313.5" y="48.667" fill="#DFF2F7" stroke="#000000" width="130" height="165"/>
<rect x="344.5" y="128.667" fill="#DFF2F7" stroke="#000000" width="70" height="30"/>
<rect x="373.101" y="61.116" fill="#D8ECD1" stroke="#000000" width="28" height="16.5"/>
<rect x="373.101" y="82.116" fill="#D8ECD1" stroke="#000000" width="28" height="16.5"/>
<rect x="373.101" y="135.116" fill="#D8ECD1" stroke="#000000" width="28" height="16.5"/>
<text transform="matrix(1 0 0 1 343.2827 18.1411)"><tspan x="0" y="0" font-family="'Courier New'" font-weight="bold" font-size="12px">Outer</tspan><tspan x="36.006" y="0" font-family="'Noto Serif'" font-size="11px"> object</tspan></text>
<text transform="matrix(1 0 0 1 56.5967 18.1411)"><tspan x="0" y="0" font-family="'Courier New'" font-weight="bold" font-size="12px">Outer</tspan><tspan x="36.006" y="0" font-family="'Noto Serif'" font-size="11px"> class</tspan></text>
<rect x="8.5" y="31.667" fill="#DFF2F7" stroke="#000000" width="160" height="195"/>
<rect x="23.5" y="46.667" fill="#FFFFFF" stroke="#000000" width="130" height="165"/>
<text transform="matrix(1 0 0 1 86.2988 70.1665)"><tspan x="0" y="0" font-family="'Courier New'" font-weight="bold" font-size="12px">int</tspan><tspan x="0" y="21.4" font-family="'Courier New'" font-weight="bold" font-size="12px">int</tspan></text>
<text transform="matrix(1 0 0 1 69.0977 70.6665)"><tspan x="0" y="0" font-family="'Courier New'" font-weight="bold" font-size="12px">a</tspan><tspan x="0" y="21.4" font-family="'Courier New'" font-weight="bold" font-size="12px">b</tspan></text>
<text transform="matrix(1 0 0 1 202.0015 45.3335)" font-family="'Noto Serif'" font-size="11px">create instance</text>
<text transform="matrix(1 0 0 1 199.52 210.3335)" font-family="'Noto Serif'" font-size="11px">create instances</text>
<rect x="38.5" y="133.667" fill="#DFF2F7" stroke="#000000" width="100" height="60"/>
<rect x="53.5" y="148.667" fill="#FFFFFF" stroke="#000000" width="70" height="30"/>
<text transform="matrix(1 0 0 1 69.0313 166.6665)" font-family="'Courier New'" font-weight="bold" font-size="12px">c</text>
<text transform="matrix(1 0 0 1 359.0313 146.6665)" font-family="'Courier New'" font-weight="bold" font-size="12px">c</text>
<text transform="matrix(1 0 0 1 56.6572 125.1411)"><tspan x="0" y="0" font-family="'Courier New'" font-weight="bold" font-size="12px">Inner</tspan><tspan x="36.006" y="0" font-family="'Noto Serif'" font-size="11px"> class</tspan></text>
<text transform="matrix(1 0 0 1 382.6982 72.1665)"><tspan x="0" y="0" font-family="'Courier New'" font-weight="bold" font-size="12px">8</tspan><tspan x="0" y="21.4" font-family="'Courier New'" font-weight="bold" font-size="12px">5</tspan></text>
<text transform="matrix(1 0 0 1 382.6982 146.1665)" font-family="'Courier New'" font-weight="bold" font-size="12px">2</text>
<rect x="344.5" y="168.667" fill="#DFF2F7" stroke="#000000" width="70" height="30"/>
<rect x="373.101" y="175.116" fill="#D8ECD1" stroke="#000000" width="28" height="16.5"/>
<text transform="matrix(1 0 0 1 359.0313 186.6665)" font-family="'Courier New'" font-weight="bold" font-size="12px">c</text>
<text transform="matrix(1 0 0 1 382.6982 186.1665)" font-family="'Courier New'" font-weight="bold" font-size="12px">7</text>
<text transform="matrix(1 0 0 1 359.0977 72.6665)"><tspan x="0" y="0" font-family="'Courier New'" font-weight="bold" font-size="12px">a</tspan><tspan x="0" y="21.4" font-family="'Courier New'" font-weight="bold" font-size="12px">b</tspan></text>
<text transform="matrix(1 0 0 1 326.4331 232.6665)"><tspan x="0" y="0" font-family="'Noto Serif'" font-size="11px">inner objects tied to</tspan><tspan x="-5" y="13.2" font-family="'Noto Serif'" font-size="11px">a specific outer object</tspan></text>
<text transform="matrix(1 0 0 1 319.1978 119.6411)"><tspan x="0" y="0" font-family="'Courier New'" font-weight="bold" font-size="12px">Outer.Inner</tspan><tspan x="79.213" y="0" font-family="'Noto Serif'" font-size="11px"> objects</tspan></text>
<text transform="matrix(1 0 0 1 86.2988 166.1665)" font-family="'Courier New'" font-weight="bold" font-size="12px">int</text>
<linearGradient id="SVGID_1_" gradientUnits="userSpaceOnUse" x1="130.6826" y1="77.6157" x2="305.5529" y2="77.6157">
	<stop  offset="0" style="stop-color:#00AEEF;stop-opacity:0"/>
	<stop  offset="1" style="stop-color:#00AEEF"/>
</linearGradient>
<polygon fill="url(#SVGID_1_)" points="310.453,77.616 280.141,60.116 280.141,71.783 129.547,71.782 129.547,83.449 
	280.141,83.449 280.141,95.116 "/>
<g>
	<path d="M258.347,70.148c1.839-1.839,2.373-4.485,1.613-6.798l-4.206,4.206l-4.243-4.243l4.206-4.206
		c-2.314-0.76-4.959-0.227-6.799,1.613c-1.839,1.839-2.373,4.485-1.613,6.798l-4.28,4.28l4.243,4.243l4.28-4.28
		C253.862,72.521,256.508,71.987,258.347,70.148z"/>
	<path d="M234.305,94.19c-1.839,1.839-4.485,2.373-6.798,1.612l4.206-4.206l-4.243-4.243l-4.206,4.206
		c-0.76-2.314-0.227-4.959,1.613-6.799c1.839-1.839,4.485-2.373,6.798-1.613l4.28-4.28l4.243,4.243l-4.28,4.28
		C236.678,89.705,236.145,92.351,234.305,94.19z"/>
	<rect x="225.44" y="77.283" transform="matrix(0.7071 0.7071 -0.7071 0.7071 128.3635 -149.331)" width="38" height="6"/>
	<path d="M233.126,55.534c2.122-2.121,8.368,4.125,8.368,4.125s-3.86-1.562-4.832-0.589S225.29,70.442,225.29,70.442l-3.536-3.535
		C221.754,66.907,231.005,57.656,233.126,55.534z"/>
	<rect x="217.453" y="67.973" transform="matrix(0.7071 0.7071 -0.7071 0.7071 114.7383 -136.2495)" width="8.75" height="4.792"/>
	<rect x="224.495" y="57.838" transform="matrix(0.7071 0.7071 -0.7071 0.7071 108.9182 -141.2765)" width="1" height="6"/>
</g>
<linearGradient id="SVGID_2_" gradientUnits="userSpaceOnUse" x1="140.1416" y1="143.6665" x2="334.3446" y2="143.6665">
	<stop  offset="0" style="stop-color:#00AEEF;stop-opacity:0"/>
	<stop  offset="1" style="stop-color:#00AEEF"/>
</linearGradient>
<polygon fill="url(#SVGID_2_)" points="339.787,143.667 309.474,126.167 309.474,137.833 138.88,137.833 138.88,149.5 
	309.474,149.5 309.474,161.167 "/>
<linearGradient id="SVGID_3_" gradientUnits="userSpaceOnUse" x1="140.1416" y1="183.6665" x2="334.3446" y2="183.6665">
	<stop  offset="0" style="stop-color:#00AEEF;stop-opacity:0"/>
	<stop  offset="1" style="stop-color:#00AEEF"/>
</linearGradient>
<polygon fill="url(#SVGID_3_)" points="339.787,183.667 309.474,166.167 309.474,177.833 138.88,177.833 138.88,189.5 
	309.474,189.5 309.474,201.167 "/>
<g>
	<path d="M258.347,156.148c1.839-1.839,2.373-4.485,1.613-6.798l-4.206,4.206l-4.243-4.243l4.206-4.206
		c-2.314-0.76-4.959-0.227-6.799,1.613c-1.839,1.839-2.373,4.485-1.613,6.798l-4.28,4.28l4.243,4.243l4.28-4.28
		C253.862,158.521,256.508,157.987,258.347,156.148z"/>
	<path d="M234.305,180.19c-1.839,1.839-4.485,2.373-6.798,1.612l4.206-4.206l-4.243-4.243l-4.206,4.206
		c-0.76-2.314-0.227-4.959,1.613-6.799c1.839-1.839,4.485-2.373,6.798-1.613l4.28-4.28l4.243,4.243l-4.28,4.28
		C236.678,175.705,236.145,178.351,234.305,180.19z"/>
	<rect x="225.44" y="163.283" transform="matrix(0.7071 0.7071 -0.7071 0.7071 189.1747 -124.1422)" width="38" height="6"/>
	<path d="M233.126,141.534c2.122-2.121,8.368,4.125,8.368,4.125s-3.86-1.562-4.832-0.589s-11.373,11.373-11.373,11.373l-3.536-3.535
		C221.754,152.907,231.005,143.656,233.126,141.534z"/>
	<rect x="217.453" y="153.973" transform="matrix(0.7071 0.7071 -0.7071 0.7071 175.5519 -111.0583)" width="8.75" height="4.792"/>
	<rect x="224.495" y="143.838" transform="matrix(0.7071 0.7071 -0.7071 0.7071 169.7294 -116.0876)" width="1" height="6"/>
</g>
</svg>
