<?xml version="1.0" encoding="iso-8859-1"?>
<!-- Generator: Adobe Illustrator 14.0.0, SVG Export Plug-In . SVG Version: 6.00 Build 43363)  -->
<!DOCTYPE svg PUBLIC "-//W3C//DTD SVG 1.1//EN" "http://www.w3.org/Graphics/SVG/1.1/DTD/svg11.dtd">
<svg version="1.1" id="Layer_1" xmlns="http://www.w3.org/2000/svg" xmlns:xlink="http://www.w3.org/1999/xlink" x="0px" y="0px"
	 width="451.5px" height="232px" viewBox="0 0 451.5 232" enable-background="new 0 0 451.5 232" xml:space="preserve">
<rect x="313.5" y="124.5" fill="#DFF2F7" stroke="#000000" width="70" height="50"/>
<rect x="342" y="129.917" fill="#D8ECD1" stroke="#000000" width="28" height="16.5"/>
<rect x="342" y="151.25" fill="#D8ECD1" stroke="#000000" width="28" height="16.5"/>
<text transform="matrix(1 0 0 1 352.6982 141.0508)"><tspan x="0" y="0" font-family="'Courier New'" font-weight="bold" font-size="12px">4</tspan><tspan x="0" y="21.4" font-family="'Courier New'" font-weight="bold" font-size="12px">9</tspan></text>
<rect x="314.5" y="28.5" fill="#DFF2F7" stroke="#000000" width="130" height="40"/>
<rect x="374.101" y="40.949" fill="#D8ECD1" stroke="#000000" width="28" height="16.5"/>
<text transform="matrix(1 0 0 1 340.8013 13.9746)"><tspan x="0" y="0" font-family="'Courier New'" font-weight="bold" font-size="12px">Outer</tspan><tspan x="36.006" y="0" font-family="'Noto Serif'" font-size="11px"> objects</tspan></text>
<text transform="matrix(1 0 0 1 56.5967 13.9746)"><tspan x="0" y="0" font-family="'Courier New'" font-weight="bold" font-size="12px">Outer</tspan><tspan x="36.006" y="0" font-family="'Noto Serif'" font-size="11px"> class</tspan></text>
<rect x="8.5" y="27.5" fill="#DFF2F7" stroke="#000000" width="160" height="195"/>
<rect x="23.5" y="42.5" fill="#FFFFFF" stroke="#000000" width="130" height="165"/>
<text transform="matrix(1 0 0 1 86.2988 72)" font-family="'Courier New'" font-weight="bold" font-size="12px">int</text>
<text transform="matrix(1 0 0 1 360.0977 52.5)" font-family="'Courier New'" font-weight="bold" font-size="12px">x</text>
<text transform="matrix(1 0 0 1 199.52 23.167)" font-family="'Noto Serif'" font-size="11px">create instances</text>
<text transform="matrix(1 0 0 1 202.0015 183.167)" font-family="'Noto Serif'" font-size="11px">create instance</text>
<rect x="38.5" y="109.5" fill="#DFF2F7" stroke="#000000" width="100" height="80"/>
<rect x="53.5" y="124.5" fill="#FFFFFF" stroke="#000000" width="70" height="50"/>
<text transform="matrix(1 0 0 1 68.4971 141.0508)"><tspan x="0" y="0" font-family="'Courier New'" font-weight="bold" font-size="12px">y</tspan><tspan x="0" y="21.4" font-family="'Courier New'" font-weight="bold" font-size="12px">z</tspan></text>
<text transform="matrix(1 0 0 1 53.0566 100.9746)"><tspan x="0" y="0" font-family="'Courier New'" font-weight="bold" font-size="12px">Nested</tspan><tspan x="43.207" y="0" font-family="'Noto Serif'" font-size="11px"> class</tspan></text>
<text transform="matrix(1 0 0 1 383.6982 53)" font-family="'Courier New'" font-weight="bold" font-size="12px">3</text>
<text transform="matrix(1 0 0 1 69.0977 72.5)" font-family="'Courier New'" font-weight="bold" font-size="12px">x</text>
<text transform="matrix(1 0 0 1 403.583 156.0996)"><tspan x="0" y="0" font-family="'Noto Serif'" font-size="11px">access</tspan><tspan x="-9.993" y="13.2" font-family="'Noto Serif'" font-size="11px">is allowed</tspan></text>
<text transform="matrix(1 0 0 1 307.293 194.4746)"><tspan x="0" y="0" font-family="'Courier New'" font-weight="bold" font-size="12px">Outer.Nested</tspan><tspan x="27.421" y="13.2" font-family="'Noto Serif'" font-size="11px">object</tspan></text>
<rect x="314.5" y="74.5" fill="#DFF2F7" stroke="#000000" width="130" height="40"/>
<rect x="374.101" y="86.949" fill="#D8ECD1" stroke="#000000" width="28" height="16.5"/>
<text transform="matrix(1 0 0 1 360.0977 98.5)" font-family="'Courier New'" font-weight="bold" font-size="12px">x</text>
<text transform="matrix(1 0 0 1 383.6982 99)" font-family="'Courier New'" font-weight="bold" font-size="12px">6</text>
<text transform="matrix(1 0 0 1 86.2988 141.0508)"><tspan x="0" y="0" font-family="'Courier New'" font-weight="bold" font-size="12px">int</tspan><tspan x="0" y="21.4" font-family="'Courier New'" font-weight="bold" font-size="12px">int</tspan></text>
<text transform="matrix(1 0 0 1 328.4971 141.0508)"><tspan x="0" y="0" font-family="'Courier New'" font-weight="bold" font-size="12px">y</tspan><tspan x="0" y="21.4" font-family="'Courier New'" font-weight="bold" font-size="12px">z</tspan></text>
<g>
	<g>
		<path fill="none" stroke="#000000" stroke-width="1.5" stroke-linecap="round" stroke-dasharray="0,3" d="M407.5,95.199
			c20.984,20.984-16.35,54.301-30.5,54.301"/>
		<polygon points="410.734,94.122 410.734,95.406 407.707,95.406 407.706,98.434 406.423,98.433 406.423,94.122 		"/>
	</g>
</g>
<g>
	<g>
		<path fill="none" stroke="#000000" stroke-width="1.5" stroke-linecap="round" stroke-dasharray="0,3" d="M407.5,49.199
			C458.25,99.949,391.814,149.5,377,149.5"/>
		<polygon points="410.734,48.122 410.734,49.406 407.707,49.406 407.706,52.434 406.423,52.433 406.423,48.122 		"/>
	</g>
</g>
<linearGradient id="SVGID_1_" gradientUnits="userSpaceOnUse" x1="140.6211" y1="48.5" x2="306.7926" y2="48.5">
	<stop  offset="0" style="stop-color:#00AEEF;stop-opacity:0"/>
	<stop  offset="1" style="stop-color:#00AEEF"/>
</linearGradient>
<polygon fill="url(#SVGID_1_)" points="311.449,48.5 281.137,31 281.137,42.667 139.542,42.667 139.542,54.333 281.137,54.333 
	281.137,66 "/>
<linearGradient id="SVGID_2_" gradientUnits="userSpaceOnUse" x1="140.6216" y1="94.5" x2="306.7927" y2="94.5">
	<stop  offset="0" style="stop-color:#00AEEF;stop-opacity:0"/>
	<stop  offset="1" style="stop-color:#00AEEF"/>
</linearGradient>
<polygon fill="url(#SVGID_2_)" points="311.449,94.5 281.137,77 281.137,88.667 139.542,88.667 139.542,100.333 281.137,100.333 
	281.137,112 "/>
<linearGradient id="SVGID_3_" gradientUnits="userSpaceOnUse" x1="99.8794" y1="149.5" x2="305.682" y2="149.5">
	<stop  offset="0" style="stop-color:#00AEEF;stop-opacity:0"/>
	<stop  offset="1" style="stop-color:#00AEEF"/>
</linearGradient>
<polygon fill="url(#SVGID_3_)" points="311.449,149.5 281.137,132 281.137,143.667 98.543,143.667 98.543,155.333 281.137,155.333 
	281.137,167 "/>
<g>
	<path d="M258.347,64.032c1.839-1.839,2.373-4.485,1.613-6.798l-4.206,4.206l-4.243-4.243l4.206-4.206
		c-2.314-0.76-4.959-0.227-6.799,1.613c-1.839,1.839-2.373,4.485-1.613,6.798l-4.28,4.28l4.243,4.243l4.28-4.28
		C253.861,66.405,256.507,65.871,258.347,64.032z"/>
	<path d="M234.305,88.074c-1.839,1.839-4.485,2.373-6.798,1.612l4.206-4.206l-4.243-4.243l-4.206,4.206
		c-0.76-2.314-0.227-4.959,1.613-6.799c1.839-1.839,4.485-2.373,6.798-1.613l4.28-4.28l4.243,4.243l-4.28,4.28
		C236.678,83.588,236.144,86.234,234.305,88.074z"/>
	<rect x="225.44" y="71.167" transform="matrix(0.7071 0.7071 -0.7071 0.7071 124.0385 -151.122)" width="38" height="6"/>
	<path d="M233.126,49.418c2.122-2.121,8.368,4.125,8.368,4.125s-3.86-1.562-4.832-0.589s-11.373,11.373-11.373,11.373l-3.536-3.535
		C221.753,60.791,231.005,51.54,233.126,49.418z"/>
	<rect x="217.452" y="61.857" transform="matrix(0.7071 0.7071 -0.7071 0.7071 110.4132 -138.0407)" width="8.75" height="4.792"/>
	<rect x="224.494" y="51.721" transform="matrix(0.7071 0.7071 -0.7071 0.7071 104.5932 -143.0675)" width="1" height="6"/>
</g>
<g>
	<path d="M258.347,142.032c1.839-1.839,2.373-4.485,1.613-6.798l-4.206,4.206l-4.243-4.243l4.206-4.206
		c-2.314-0.76-4.959-0.227-6.799,1.613c-1.839,1.839-2.373,4.485-1.613,6.798l-4.28,4.28l4.243,4.243l4.28-4.28
		C253.862,144.405,256.508,143.871,258.347,142.032z"/>
	<path d="M234.305,166.074c-1.839,1.839-4.485,2.373-6.798,1.612l4.206-4.206l-4.243-4.243l-4.206,4.206
		c-0.76-2.314-0.227-4.959,1.613-6.799c1.839-1.839,4.485-2.373,6.798-1.613l4.28-4.28l4.243,4.243l-4.28,4.28
		C236.678,161.588,236.145,164.234,234.305,166.074z"/>
	<rect x="225.44" y="149.167" transform="matrix(0.7071 0.7071 -0.7071 0.7071 179.193 -128.2767)" width="38" height="6"/>
	<path d="M233.126,127.418c2.122-2.121,8.368,4.125,8.368,4.125s-3.86-1.562-4.832-0.589s-11.373,11.373-11.373,11.373l-3.536-3.535
		C221.754,138.791,231.005,129.54,233.126,127.418z"/>
	<rect x="217.453" y="139.857" transform="matrix(0.7071 0.7071 -0.7071 0.7071 165.5698 -115.1932)" width="8.75" height="4.792"/>
	<rect x="224.495" y="129.721" transform="matrix(0.7071 0.7071 -0.7071 0.7071 159.7477 -120.2222)" width="1" height="6"/>
</g>
</svg>
