<?xml version="1.0" encoding="iso-8859-1"?>
<!-- Generator: Adobe Illustrator 14.0.0, SVG Export Plug-In . SVG Version: 6.00 Build 43363)  -->
<!DOCTYPE svg PUBLIC "-//W3C//DTD SVG 1.1//EN" "http://www.w3.org/Graphics/SVG/1.1/DTD/svg11.dtd">
<svg version="1.1" id="Layer_1" xmlns="http://www.w3.org/2000/svg" xmlns:xlink="http://www.w3.org/1999/xlink" x="0px" y="0px"
	 width="577.33px" height="206px" viewBox="0 0 577.33 206" enable-background="new 0 0 577.33 206" xml:space="preserve">
<rect x="372.832" y="32" fill="#DFF2F7" stroke="#000000" width="200" height="79"/>
<rect x="434.832" y="40.75" fill="#D8ECD1" stroke="#000000" width="128" height="16.5"/>
<rect x="434.832" y="61.75" fill="#D8ECD1" stroke="#000000" width="120" height="16.5"/>
<rect x="434.832" y="83.75" fill="#D8ECD1" stroke="#000000" width="28" height="16.5"/>
<text transform="matrix(1 0 0 1 437.6143 18.4746)"><tspan x="0" y="0" font-family="'Courier New'" font-weight="bold" font-size="12px">Human</tspan><tspan x="36.006" y="0" font-family="'Noto Serif'" font-size="11px"> object</tspan></text>
<text transform="matrix(1 0 0 1 88.9282 18.4746)"><tspan x="0" y="0" font-family="'Courier New'" font-weight="bold" font-size="12px">Human</tspan><tspan x="36.006" y="0" font-family="'Noto Serif'" font-size="11px"> class</tspan></text>
<text transform="matrix(1 0 0 1 436.8315 52.5)"><tspan x="0" y="0" font-family="'Courier New'" font-weight="bold" font-size="12px">&quot;Albert Einstein&quot;</tspan><tspan x="0" y="21.4" font-family="'Courier New'" font-weight="bold" font-size="12px">&quot;March 14, 1879&quot;</tspan><tspan x="0" y="42.8" font-family="'Courier New'" font-weight="bold" font-size="12px">175</tspan></text>
<text transform="matrix(1 0 0 1 398.0269 53)"><tspan x="0" y="0" font-family="'Courier New'" font-weight="bold" font-size="12px">name</tspan><tspan x="7.201" y="21.4" font-family="'Courier New'" font-weight="bold" font-size="12px">DOB</tspan><tspan x="-14.402" y="42.8" font-family="'Courier New'" font-weight="bold" font-size="12px">height</tspan></text>
<rect x="372.832" y="121" fill="#DFF2F7" stroke="#000000" width="200" height="79"/>
<rect x="434.832" y="129.75" fill="#D8ECD1" stroke="#000000" width="100" height="16.5"/>
<rect x="434.832" y="150.75" fill="#D8ECD1" stroke="#000000" width="126" height="16.5"/>
<rect x="434.832" y="172.75" fill="#D8ECD1" stroke="#000000" width="28" height="16.5"/>
<text transform="matrix(1 0 0 1 436.8315 141.5)"><tspan x="0" y="0" font-family="'Courier New'" font-weight="bold" font-size="12px">&quot;David Bowie&quot;</tspan><tspan x="0" y="21.4" font-family="'Courier New'" font-weight="bold" font-size="12px">&quot;January 8, 1947&quot;</tspan><tspan x="0" y="42.8" font-family="'Courier New'" font-weight="bold" font-size="12px">178</tspan></text>
<text transform="matrix(1 0 0 1 398.0269 142)"><tspan x="0" y="0" font-family="'Courier New'" font-weight="bold" font-size="12px">name</tspan><tspan x="7.201" y="21.4" font-family="'Courier New'" font-weight="bold" font-size="12px">DOB</tspan><tspan x="-14.402" y="42.8" font-family="'Courier New'" font-weight="bold" font-size="12px">height</tspan></text>
<rect x="5.832" y="60" fill="#DFF2F7" stroke="#000000" width="230" height="130"/>
<rect x="20.832" y="75" fill="#FFFFFF" stroke="#000000" width="200" height="79"/>
<text transform="matrix(1 0 0 1 102.8315 95.5)"><tspan x="0" y="0" font-family="'Courier New'" font-weight="bold" font-size="12px">String</tspan><tspan x="0" y="21.4" font-family="'Courier New'" font-weight="bold" font-size="12px">String</tspan><tspan x="0" y="42.8" font-family="'Courier New'" font-weight="bold" font-size="12px">int</tspan></text>
<text transform="matrix(1 0 0 1 64.0269 96)"><tspan x="0" y="0" font-family="'Courier New'" font-weight="bold" font-size="12px">name</tspan><tspan x="7.201" y="21.4" font-family="'Courier New'" font-weight="bold" font-size="12px">DOB</tspan><tspan x="-14.402" y="42.8" font-family="'Courier New'" font-weight="bold" font-size="12px">height</tspan></text>
<text transform="matrix(1 0 0 1 260.8516 65.667)" font-family="'Noto Serif'" font-size="11px">create instances</text>
<text transform="matrix(1 0 0 1 20.8198 173.5835)" font-family="'Courier New'" font-weight="bold" font-size="12px">population</text>
<rect x="102.832" y="162" fill="#D8ECD1" stroke="#000000" width="58" height="16.5"/>
<text transform="matrix(1 0 0 1 106.2563 174.0713)" font-family="'Courier New'" font-weight="bold" font-size="12px">7.023E9</text>
<linearGradient id="SVGID_1_" gradientUnits="userSpaceOnUse" x1="169.2588" y1="86.75" x2="369.165" y2="86.75">
	<stop  offset="0" style="stop-color:#00AEEF;stop-opacity:0"/>
	<stop  offset="1" style="stop-color:#00AEEF"/>
</linearGradient>
<polygon fill="url(#SVGID_1_)" points="369.165,86.75 338.853,69.25 338.853,80.917 169.259,80.917 169.259,92.583 338.853,92.583 
	338.853,104.25 "/>
<linearGradient id="SVGID_2_" gradientUnits="userSpaceOnUse" x1="170.5137" y1="141.75" x2="363.7501" y2="141.75">
	<stop  offset="0" style="stop-color:#00AEEF;stop-opacity:0"/>
	<stop  offset="1" style="stop-color:#00AEEF"/>
</linearGradient>
<polygon fill="url(#SVGID_2_)" points="369.165,141.75 338.853,124.25 338.853,135.917 169.259,135.917 169.259,147.583 
	338.853,147.583 338.853,159.25 "/>
<g>
	<path d="M319.679,108.497c1.839-1.839,2.373-4.485,1.613-6.798l-4.206,4.206l-4.243-4.243l4.206-4.206
		c-2.314-0.76-4.959-0.227-6.799,1.613c-1.839,1.839-2.373,4.485-1.613,6.798l-4.28,4.28l4.243,4.243l4.28-4.28
		C315.193,110.87,317.839,110.336,319.679,108.497z"/>
	<path d="M295.637,132.539c-1.839,1.839-4.485,2.373-6.798,1.612l4.206-4.206l-4.243-4.243l-4.206,4.206
		c-0.76-2.314-0.227-4.959,1.613-6.799c1.839-1.839,4.485-2.373,6.798-1.613l4.28-4.28l4.243,4.243l-4.28,4.28
		C298.01,128.053,297.476,130.699,295.637,132.539z"/>
	<rect x="286.772" y="115.632" transform="matrix(0.7071 0.7071 -0.7071 0.7071 173.4437 -181.4669)" width="38" height="6"/>
	<path d="M294.458,93.883c2.122-2.121,8.368,4.125,8.368,4.125s-3.86-1.562-4.832-0.589s-11.373,11.373-11.373,11.373l-3.536-3.535
		C283.085,105.256,292.337,96.004,294.458,93.883z"/>
	<rect x="278.784" y="106.322" transform="matrix(0.7071 0.7071 -0.7071 0.7071 159.8212 -168.386)" width="8.75" height="4.792"/>
	<rect x="285.826" y="96.186" transform="matrix(0.7071 0.7071 -0.7071 0.7071 153.9984 -173.4124)" width="1" height="6"/>
</g>
</svg>
