<?xml version="1.0" encoding="iso-8859-1"?>
<!-- Generator: Adobe Illustrator 14.0.0, SVG Export Plug-In . SVG Version: 6.00 Build 43363)  -->
<!DOCTYPE svg PUBLIC "-//W3C//DTD SVG 1.1//EN" "http://www.w3.org/Graphics/SVG/1.1/DTD/svg11.dtd">
<svg version="1.1" id="Layer_1" xmlns="http://www.w3.org/2000/svg" xmlns:xlink="http://www.w3.org/1999/xlink" x="0px" y="0px"
	 width="107.867px" height="26.429px" viewBox="0 0 107.867 26.429" style="enable-background:new 0 0 107.867 26.429;"
	 xml:space="preserve">
<polygon points="1.274,8.08 1.274,8.516 1.997,8.573 2.123,8.746 0.907,15.114 0.723,15.275 0,15.343 0,15.779 2.387,15.779 
	2.387,15.343 1.71,15.275 1.538,15.114 2.731,8.711 3.971,15.779 4.475,15.779 8.434,8.677 7.206,15.114 7.092,15.275 6.265,15.343 
	6.265,15.779 8.985,15.779 8.985,15.343 8.251,15.275 8.136,15.114 9.352,8.746 9.536,8.573 10.259,8.516 10.259,8.08 7.872,8.08 
	7.872,8.436 4.659,14.23 3.615,8.39 3.615,8.08 "/>
<path d="M14.433,14.058h7.711v-0.688h-7.711V14.058z M14.433,11.58h7.711v-0.688h-7.711V11.58z"/>
<path d="M28.911,8.596c0.16-0.011,0.321-0.023,0.47-0.023c1.263,0,1.848,0.459,1.848,1.504c0,1.422-0.93,2.272-2.571,2.272
	c-0.149,0-0.309-0.012-0.47-0.023L28.911,8.596z M27.029,8.08v0.437l0.734,0.057l0.127,0.173l-1.228,6.368l-0.184,0.161
	l-0.734,0.068v0.436h2.719v-0.436l-0.734-0.068l-0.08-0.161l0.436-2.249c0.309,0.011,0.539,0.023,0.711,0.023
	c2.157,0,3.5-1.251,3.5-2.995c0-0.734-0.436-1.365-1.102-1.606c-0.539-0.196-1.101-0.207-1.721-0.207H27.029z"/>
<path d="M37.621,12.475c0-0.402-0.321-0.734-0.723-0.734c-0.402,0-0.734,0.332-0.734,0.734s0.332,0.723,0.734,0.723
	C37.3,13.198,37.621,12.876,37.621,12.475"/>
<path d="M74.484,0v0.436l0.734,0.057l0.127,0.173l-0.804,4.142c-0.321,1.652-0.597,2.478-1.663,2.478
	c-0.104,0-0.241-0.011-0.402-0.046l-0.138-0.149V5.634h-0.573l-0.379,1.928c0.39,0.183,0.86,0.275,1.411,0.275
	c1.744,0,2.375-0.929,2.776-3.075l0.77-4.096l0.183-0.173l0.746-0.057V0H74.484z"/>
<line style="fill:none;stroke:#000000;stroke-width:0.689;stroke-miterlimit:10;" x1="41.847" y1="12.462" x2="107.867" y2="12.462"/>
<polygon points="45.416,16.435 42.925,17.181 42.925,17.664 44.728,17.341 44.728,23.515 44.589,23.71 43.27,23.779 43.27,24.272 
	47.114,24.272 47.114,23.791 45.875,23.734 45.736,23.561 45.736,16.435 "/>
<rect x="50.638" y="20.625" width="7.803" height="0.688"/>
<path d="M62.505,20.968c0-3.145,0.919-4.705,2.238-4.935v-0.528c-1.905,0.23-3.213,1.997-3.213,5.463
	c0,3.465,1.308,5.231,3.213,5.461v-0.527C63.424,25.673,62.505,24.112,62.505,20.968"/>
<polygon points="68.966,16.435 66.476,17.181 66.476,17.664 68.279,17.341 68.279,23.515 68.14,23.71 66.821,23.779 66.821,24.272 
	70.665,24.272 70.665,23.791 69.425,23.734 69.288,23.561 69.288,16.435 "/>
<polygon points="77.747,21.312 77.747,24.501 78.434,24.501 78.434,21.312 81.625,21.312 81.625,20.625 78.434,20.625 
	78.434,17.434 77.747,17.434 77.747,20.625 74.556,20.625 74.556,21.312 74.901,21.312 "/>
<path d="M87.341,16.573v0.437l0.733,0.057l0.127,0.173l-0.804,4.142c-0.321,1.652-0.596,2.479-1.663,2.479
	c-0.104,0-0.241-0.011-0.401-0.046l-0.139-0.149v-1.457h-0.572l-0.38,1.928c0.391,0.184,0.86,0.275,1.411,0.275
	c1.744,0,2.375-0.929,2.777-3.074l0.769-4.097l0.184-0.173l0.746-0.057v-0.437H87.341z"/>
<path d="M93.872,20.968c0,3.144-0.918,4.705-2.237,4.934v0.527c1.904-0.229,3.213-1.996,3.213-5.461
	c0-3.466-1.309-5.232-3.213-5.463v0.528C92.954,16.263,93.872,17.824,93.872,20.968"/>
<rect x="95.685" y="18.719" width="5.198" height="0.459"/>
<polygon points="101.906,16.021 101.906,16.312 102.403,16.349 102.479,16.464 101.661,20.707 101.54,20.814 101.05,20.86 
	101.05,21.151 102.664,21.151 102.664,20.86 102.174,20.814 102.089,20.707 102.832,16.9 104.842,21.151 105.285,21.151 
	106.179,16.464 106.302,16.349 106.792,16.312 106.792,16.021 105.186,16.021 105.186,16.312 105.675,16.349 105.751,16.464 
	105.048,20.087 103.221,16.212 103.221,16.021 "/>
</svg>
