<?xml version="1.0" encoding="iso-8859-1"?>
<!-- Generator: Adobe Illustrator 14.0.0, SVG Export Plug-In . SVG Version: 6.00 Build 43363)  -->
<!DOCTYPE svg PUBLIC "-//W3C//DTD SVG 1.1//EN" "http://www.w3.org/Graphics/SVG/1.1/DTD/svg11.dtd">
<svg version="1.1" id="Layer_1" xmlns="http://www.w3.org/2000/svg" xmlns:xlink="http://www.w3.org/1999/xlink" x="0px" y="0px"
	 width="65.746px" height="33.374px" viewBox="0 0 65.746 33.374" style="enable-background:new 0 0 65.746 33.374;"
	 xml:space="preserve">
<path d="M5.76,12.551c-0.62-0.229-1.262-0.333-1.916-0.333c-1.71,0-2.834,1.056-2.834,2.433c0,0.929,0.734,1.377,1.939,1.996
	c0.746,0.379,1.262,0.574,1.262,1.309c0,1.01-0.769,1.676-1.962,1.676c-0.425,0-0.838-0.115-1.274-0.334L0.86,19.149l0.115-1.32
	H0.378L0,19.654c0.642,0.354,1.354,0.528,2.111,0.528c1.836,0,3.11-1.057,3.11-2.456c0-0.976-0.597-1.423-1.721-1.951
	c-0.964-0.447-1.515-0.665-1.515-1.503c0-0.849,0.746-1.537,1.813-1.537c0.333,0,0.665,0.068,0.998,0.218l0.138,0.206l-0.046,1.136
	h0.505L5.76,12.551z"/>
<path d="M9.944,18.323h7.711v-0.688H9.944V18.323z M9.944,15.844h7.711v-0.688H9.944V15.844z"/>
<polygon points="26.727,0 26.727,0.291 27.224,0.329 27.3,0.443 26.481,4.686 26.359,4.793 25.871,4.839 25.871,5.13 27.483,5.13 
	27.483,4.839 26.995,4.793 26.91,4.686 27.651,0.879 29.663,5.13 30.105,5.13 31,0.443 31.123,0.329 31.612,0.291 31.612,0 
	30.007,0 30.007,0.291 30.496,0.329 30.572,0.443 29.869,4.067 28.042,0.191 28.042,0 "/>
<polygon points="21.645,7.437 21.645,8.239 28.931,16.593 21.129,25.646 36.401,25.646 36.401,20.896 35.655,20.896 35.242,23.328 
	34.405,24.167 23.435,24.167 30.469,15.996 23.71,8.239 34.428,8.239 35.242,9.054 35.655,11.509 36.401,11.509 36.401,7.437 
	23.71,7.437 "/>
<path d="M24.105,29.637l-1.131,0.245v0.199l0.619,0.113l-0.451,2.278c-0.031,0.168-0.046,0.306-0.046,0.397
	c0,0.336,0.161,0.504,0.489,0.504c0.291,0,0.658-0.09,1.078-0.267V32.87c-0.237,0.076-0.42,0.114-0.566,0.114
	c-0.237,0-0.366-0.099-0.366-0.298l0.022-0.191l0.551-2.858H24.105z M24.258,27.939c-0.229,0-0.413,0.183-0.413,0.413
	c0,0.236,0.184,0.413,0.413,0.413c0.222,0,0.413-0.185,0.413-0.413C24.671,28.13,24.48,27.939,24.258,27.939"/>
<path d="M25.729,32.175h5.137v-0.459h-5.137V32.175z M25.729,30.523h5.137v-0.459h-5.137V30.523z"/>
<polygon points="33.698,28.101 32.04,28.597 32.04,28.918 33.239,28.704 33.239,32.817 33.148,32.947 32.269,32.993 32.269,33.321 
	34.829,33.321 34.829,33 34.004,32.962 33.913,32.847 33.913,28.101 "/>
<path d="M44.202,12.918c0.356-0.069,0.563-0.298,0.563-0.597c0-0.344-0.401-0.677-0.952-0.677c-1.067,0-2.031,1.067-2.41,3.041
	l-0.872,0.356l-0.011,0.378l0.768-0.08l-0.48,3.293c-0.219,1.526-0.414,2.571-0.953,3.133l-1.193-0.31
	c-0.161,0.115-0.253,0.275-0.253,0.459c0,0.367,0.253,0.607,0.62,0.607c0.551,0,1.182-0.436,1.79-1.296
	c0.505-0.712,0.711-1.571,0.861-2.628l0.459-3.259h1.709v-0.516h-1.618c0.253-1.492,0.597-2.387,1.033-2.674L44.202,12.918z"/>
<path d="M49.419,16.739c0-3.144,0.918-4.705,2.238-4.934v-0.528c-1.905,0.23-3.213,1.997-3.213,5.461
	c0,3.465,1.308,5.232,3.213,5.463v-0.528C50.337,21.444,49.419,19.884,49.419,16.739"/>
<path d="M56.236,14.962l0.459,0.699l-0.598,3.03c-0.47,0.506-0.918,0.758-1.354,0.758c-0.665,0-0.998-0.459-0.998-1.377
	c0-1.825,0.987-3.109,2.329-3.109H56.236z M57.303,14.514l-0.229,0.252c-0.356-0.172-0.712-0.252-1.033-0.252
	c-1.136,0-2.066,0.539-2.651,1.503c-0.39,0.643-0.597,1.354-0.597,2.123c0,1.262,0.609,2.008,1.584,2.008
	c0.551,0,1.103-0.32,1.71-0.964v0.092c0,0.585,0.218,0.872,0.7,0.872c0.309,0,0.78-0.138,1.411-0.402v-0.344
	c-0.311,0.069-0.517,0.115-0.644,0.115c-0.424,0-0.619-0.161-0.619-0.527c0-0.162,0.034-0.425,0.115-0.804l0.413-2.031
	c0.172-0.849,0.321-1.4,0.437-1.641H57.303z"/>
<path d="M60.199,18.954l-1.131,0.244v0.199l0.619,0.114l-0.451,2.278c-0.031,0.168-0.046,0.306-0.046,0.397
	c0,0.336,0.16,0.504,0.488,0.504c0.291,0,0.658-0.091,1.078-0.267v-0.237c-0.236,0.076-0.42,0.114-0.565,0.114
	c-0.237,0-0.366-0.1-0.366-0.299l0.021-0.19l0.552-2.858H60.199z M60.352,17.257c-0.229,0-0.412,0.183-0.412,0.412
	c0,0.238,0.184,0.414,0.412,0.414c0.223,0,0.413-0.185,0.413-0.414C60.765,17.448,60.574,17.257,60.352,17.257"/>
<path d="M64.771,16.739c0,3.145-0.918,4.705-2.238,4.935v0.528c1.905-0.23,3.213-1.998,3.213-5.463c0-3.464-1.308-5.231-3.213-5.461
	v0.528C63.854,12.035,64.771,13.596,64.771,16.739"/>
</svg>
