<?xml version="1.0" encoding="iso-8859-1"?>
<!-- Generator: Adobe Illustrator 14.0.0, SVG Export Plug-In . SVG Version: 6.00 Build 43363)  -->
<!DOCTYPE svg PUBLIC "-//W3C//DTD SVG 1.1//EN" "http://www.w3.org/Graphics/SVG/1.1/DTD/svg11.dtd">
<svg version="1.1" id="Layer_1" xmlns="http://www.w3.org/2000/svg" xmlns:xlink="http://www.w3.org/1999/xlink" x="0px" y="0px"
	 width="199.689px" height="27.081px" viewBox="0 0 199.689 27.081" style="enable-background:new 0 0 199.689 27.081;"
	 xml:space="preserve">
<path d="M46.609,12.697c0-0.573-0.052-1.069-0.157-1.484c-0.112-0.415-0.269-0.76-0.474-1.035c-0.204-0.269-0.462-0.467-0.765-0.596
	c-0.304-0.134-0.655-0.199-1.047-0.199c-0.233,0-0.444,0.03-0.631,0.082c-0.187,0.059-0.356,0.14-0.502,0.246
	c-0.146,0.099-0.281,0.228-0.392,0.374c-0.111,0.146-0.216,0.315-0.304,0.496H42.29L42.168,9.5h-2.092v0.503h0.152
	c0.134,0,0.257,0.012,0.379,0.029c0.117,0.018,0.222,0.059,0.31,0.117c0.088,0.058,0.164,0.14,0.216,0.251
	c0.053,0.105,0.076,0.246,0.076,0.421v6.604c0,0.187-0.023,0.339-0.076,0.456c-0.052,0.111-0.122,0.197-0.21,0.257
	c-0.088,0.063-0.193,0.104-0.31,0.123c-0.122,0.017-0.251,0.028-0.385,0.028h-0.094v0.502h3.22V18.29h-0.035
	c-0.134,0-0.257-0.012-0.374-0.028c-0.123-0.019-0.228-0.054-0.316-0.111c-0.087-0.053-0.157-0.135-0.21-0.245
	c-0.053-0.105-0.082-0.246-0.082-0.422v-1.145v-0.129l-0.006-0.193l-0.005-0.227l-0.012-0.229c-0.006-0.182-0.018-0.374-0.024-0.579
	h0.047c0.088,0.158,0.187,0.298,0.304,0.427c0.111,0.129,0.246,0.239,0.398,0.334c0.146,0.092,0.315,0.162,0.502,0.215
	c0.187,0.054,0.398,0.076,0.625,0.076c0.392,0,0.743-0.063,1.047-0.199c0.303-0.127,0.561-0.326,0.765-0.602
	c0.205-0.273,0.362-0.619,0.474-1.039C46.557,13.772,46.609,13.276,46.609,12.697 M43.962,10.149c0.263,0,0.491,0.053,0.678,0.158
	c0.193,0.105,0.345,0.263,0.467,0.473c0.117,0.211,0.205,0.474,0.257,0.789c0.053,0.322,0.082,0.69,0.082,1.116
	c0,0.421-0.029,0.789-0.082,1.117c-0.052,0.315-0.14,0.59-0.257,0.806c-0.122,0.217-0.274,0.387-0.455,0.491
	c-0.187,0.117-0.415,0.169-0.678,0.169c-0.316,0-0.579-0.052-0.784-0.169c-0.21-0.104-0.379-0.274-0.502-0.491
	c-0.129-0.216-0.216-0.484-0.269-0.806c-0.053-0.322-0.082-0.69-0.082-1.105c0-0.432,0.029-0.806,0.082-1.128
	c0.053-0.321,0.14-0.584,0.263-0.795c0.123-0.21,0.292-0.368,0.503-0.467C43.389,10.202,43.652,10.149,43.962,10.149 M38.635,14.614
	V9.5h-2.139v0.503h0.035c0.134,0,0.263,0.012,0.38,0.029c0.122,0.018,0.222,0.059,0.315,0.117c0.088,0.064,0.158,0.152,0.211,0.263
	c0.052,0.117,0.076,0.269,0.076,0.456v2.466c0,0.286-0.03,0.549-0.088,0.79c-0.059,0.24-0.146,0.438-0.269,0.607
	c-0.123,0.169-0.28,0.305-0.467,0.397c-0.193,0.094-0.421,0.14-0.684,0.14c-0.24,0-0.444-0.035-0.602-0.111
	c-0.164-0.069-0.292-0.175-0.386-0.314c-0.099-0.141-0.164-0.311-0.204-0.514c-0.041-0.205-0.065-0.434-0.065-0.696V9.5h-2.145
	v0.503h0.036c0.134,0,0.257,0.012,0.379,0.029c0.117,0.018,0.222,0.059,0.31,0.117c0.088,0.058,0.164,0.14,0.216,0.245
	c0.053,0.111,0.076,0.252,0.076,0.427v2.869c0,0.41,0.047,0.76,0.135,1.059c0.087,0.298,0.21,0.537,0.38,0.73
	c0.169,0.193,0.374,0.333,0.619,0.421c0.246,0.087,0.526,0.134,0.842,0.134c0.193,0,0.38-0.012,0.561-0.047
	c0.181-0.022,0.35-0.082,0.514-0.162c0.164-0.076,0.321-0.188,0.467-0.328c0.147-0.141,0.275-0.321,0.398-0.549h0.058l0.158,0.969
	h1.899v-0.502h-0.035c-0.134,0-0.257-0.012-0.374-0.023c-0.122-0.023-0.228-0.059-0.315-0.111c-0.088-0.052-0.158-0.134-0.211-0.238
	C38.664,14.929,38.635,14.79,38.635,14.614 M28.293,15.268c-0.532,0-0.912-0.21-1.14-0.631s-0.345-1.059-0.345-1.905
	c0-0.415,0.03-0.789,0.082-1.11c0.053-0.322,0.14-0.591,0.263-0.807c0.117-0.216,0.269-0.385,0.456-0.497
	c0.187-0.111,0.409-0.169,0.672-0.169c0.316,0,0.579,0.058,0.789,0.169c0.21,0.112,0.38,0.275,0.503,0.491
	c0.128,0.217,0.222,0.485,0.268,0.807c0.059,0.321,0.082,0.689,0.082,1.104c0,0.433-0.023,0.808-0.082,1.128
	c-0.046,0.322-0.14,0.585-0.263,0.795c-0.128,0.211-0.298,0.368-0.508,0.469C28.865,15.216,28.602,15.268,28.293,15.268
	 M31.045,14.602V6.824h-2.203v0.502h0.099c0.135,0,0.258,0.012,0.374,0.024c0.123,0.023,0.228,0.058,0.316,0.117
	c0.088,0.058,0.158,0.14,0.21,0.251c0.059,0.105,0.082,0.245,0.082,0.421V9.12c0,0.071,0.006,0.182,0.012,0.328
	c0.006,0.14,0.017,0.292,0.023,0.438c0.012,0.169,0.024,0.356,0.035,0.549h-0.07c-0.087-0.157-0.187-0.298-0.304-0.426
	c-0.117-0.129-0.251-0.24-0.397-0.333c-0.152-0.094-0.321-0.164-0.508-0.217c-0.188-0.052-0.398-0.076-0.626-0.076
	c-0.391,0-0.742,0.065-1.046,0.199c-0.304,0.129-0.561,0.327-0.765,0.602c-0.205,0.275-0.363,0.62-0.468,1.04
	c-0.105,0.421-0.158,0.918-0.158,1.496c0,0.573,0.053,1.069,0.158,1.485c0.105,0.414,0.263,0.76,0.468,1.033
	c0.204,0.27,0.461,0.469,0.765,0.596c0.304,0.136,0.655,0.199,1.046,0.199c0.234,0,0.444-0.028,0.631-0.088
	c0.187-0.052,0.357-0.134,0.503-0.238c0.146-0.101,0.28-0.229,0.397-0.375c0.111-0.146,0.217-0.31,0.304-0.49h0.047l0.129,1.074
	h2.027v-0.502h-0.099c-0.134,0-0.257-0.012-0.374-0.029c-0.123-0.018-0.228-0.053-0.315-0.111c-0.088-0.058-0.164-0.14-0.211-0.251
	C31.075,14.918,31.045,14.778,31.045,14.602 M22.029,16.034c0.356,0,0.66-0.041,0.923-0.117c0.263-0.075,0.485-0.174,0.661-0.291
	c0.175-0.117,0.303-0.246,0.391-0.387c0.088-0.134,0.129-0.263,0.129-0.385c0-0.1-0.024-0.188-0.076-0.263l-0.152-0.147
	c-0.07,0.111-0.158,0.211-0.275,0.311c-0.105,0.1-0.234,0.193-0.38,0.269c-0.146,0.076-0.304,0.14-0.479,0.187
	c-0.181,0.048-0.374,0.07-0.579,0.07c-0.286,0-0.537-0.047-0.753-0.146c-0.217-0.093-0.404-0.24-0.55-0.444
	c-0.152-0.205-0.269-0.462-0.345-0.777c-0.081-0.31-0.128-0.684-0.134-1.122h3.986v-0.55c0-0.473-0.059-0.888-0.17-1.245
	c-0.117-0.356-0.28-0.654-0.497-0.894c-0.216-0.239-0.473-0.415-0.783-0.537c-0.309-0.123-0.654-0.182-1.04-0.182
	c-0.847,0-1.502,0.281-1.964,0.848c-0.461,0.567-0.689,1.408-0.689,2.524c0,0.521,0.064,0.981,0.193,1.386
	c0.122,0.409,0.304,0.753,0.543,1.034c0.24,0.28,0.532,0.491,0.877,0.637C21.211,15.958,21.596,16.034,22.029,16.034 M21.883,10.026
	c0.239,0,0.444,0.053,0.608,0.152c0.169,0.1,0.303,0.246,0.403,0.433c0.099,0.187,0.175,0.409,0.222,0.672
	c0.047,0.263,0.07,0.549,0.07,0.865h-2.753c0.041-0.696,0.182-1.222,0.421-1.584C21.094,10.207,21.439,10.026,21.883,10.026
	 M15.63,16.034c0.357,0,0.661-0.041,0.924-0.117c0.263-0.075,0.485-0.174,0.66-0.291c0.176-0.117,0.304-0.246,0.392-0.387
	c0.087-0.134,0.128-0.263,0.128-0.385c0-0.1-0.023-0.188-0.076-0.263l-0.152-0.147c-0.07,0.111-0.157,0.211-0.274,0.311
	c-0.105,0.1-0.234,0.193-0.38,0.269c-0.146,0.076-0.304,0.14-0.479,0.187c-0.181,0.048-0.374,0.07-0.579,0.07
	c-0.286,0-0.538-0.047-0.754-0.146c-0.216-0.093-0.403-0.24-0.549-0.444c-0.152-0.205-0.269-0.462-0.345-0.777
	c-0.082-0.31-0.129-0.684-0.134-1.122h3.985v-0.55c0-0.473-0.058-0.888-0.169-1.245c-0.117-0.356-0.281-0.654-0.497-0.894
	c-0.216-0.239-0.473-0.415-0.783-0.537c-0.31-0.123-0.655-0.182-1.04-0.182c-0.848,0-1.502,0.281-1.964,0.848
	c-0.462,0.567-0.689,1.408-0.689,2.524c0,0.521,0.064,0.981,0.192,1.386c0.123,0.409,0.304,0.753,0.544,1.034
	c0.239,0.28,0.532,0.491,0.876,0.637C14.812,15.958,15.198,16.034,15.63,16.034 M15.484,10.026c0.24,0,0.445,0.053,0.608,0.152
	c0.17,0.1,0.304,0.246,0.403,0.433c0.1,0.187,0.176,0.409,0.222,0.672c0.047,0.263,0.071,0.549,0.071,0.865h-2.753
	c0.041-0.696,0.181-1.222,0.421-1.584C14.695,10.207,15.04,10.026,15.484,10.026 M11.548,12.697c0-0.573-0.053-1.069-0.158-1.484
	c-0.111-0.415-0.269-0.76-0.474-1.035c-0.204-0.269-0.461-0.467-0.765-0.596C9.847,9.448,9.496,9.383,9.105,9.383
	c-0.234,0-0.444,0.03-0.631,0.082c-0.187,0.059-0.357,0.14-0.503,0.246C7.825,9.81,7.691,9.939,7.58,10.085
	c-0.112,0.146-0.217,0.315-0.304,0.496H7.229L7.106,9.5H5.014v0.503h0.152c0.134,0,0.257,0.012,0.38,0.029
	c0.117,0.018,0.222,0.059,0.309,0.117c0.088,0.058,0.164,0.14,0.217,0.251c0.052,0.105,0.076,0.246,0.076,0.421v6.604
	c0,0.187-0.024,0.339-0.076,0.456c-0.053,0.111-0.123,0.197-0.211,0.257c-0.087,0.063-0.193,0.104-0.309,0.123
	C5.429,18.278,5.3,18.29,5.166,18.29H5.072v0.502h3.22V18.29H8.257c-0.134,0-0.257-0.012-0.374-0.028
	c-0.122-0.019-0.228-0.054-0.315-0.111c-0.088-0.053-0.158-0.135-0.211-0.245c-0.052-0.105-0.081-0.246-0.081-0.422v-1.145v-0.129
	L7.27,16.016L7.264,15.79l-0.012-0.229c-0.006-0.182-0.017-0.374-0.023-0.579h0.047c0.087,0.158,0.187,0.298,0.304,0.427
	c0.111,0.129,0.245,0.239,0.397,0.334c0.146,0.092,0.315,0.162,0.503,0.215c0.187,0.054,0.397,0.076,0.625,0.076
	c0.391,0,0.742-0.063,1.046-0.199c0.304-0.127,0.561-0.326,0.765-0.602c0.205-0.273,0.363-0.619,0.474-1.039
	C11.495,13.772,11.548,13.276,11.548,12.697 M8.9,10.149c0.263,0,0.491,0.053,0.678,0.158c0.193,0.105,0.345,0.263,0.468,0.473
	c0.117,0.211,0.204,0.474,0.257,0.789c0.052,0.322,0.082,0.69,0.082,1.116c0,0.421-0.03,0.789-0.082,1.117
	c-0.053,0.315-0.14,0.59-0.257,0.806c-0.123,0.217-0.275,0.387-0.456,0.491c-0.187,0.117-0.415,0.169-0.678,0.169
	c-0.316,0-0.579-0.052-0.783-0.169c-0.211-0.104-0.38-0.274-0.503-0.491c-0.128-0.216-0.216-0.484-0.269-0.806
	c-0.052-0.322-0.081-0.69-0.081-1.105c0-0.432,0.029-0.806,0.081-1.128c0.053-0.321,0.141-0.584,0.263-0.795
	c0.123-0.21,0.293-0.368,0.503-0.467C8.328,10.202,8.591,10.149,8.9,10.149 M1.975,16.034c0.356,0,0.678-0.041,0.97-0.117
	c0.286-0.075,0.538-0.198,0.742-0.351c0.205-0.163,0.369-0.356,0.48-0.59c0.111-0.233,0.169-0.508,0.169-0.817
	c0-0.252-0.035-0.469-0.105-0.66c-0.07-0.193-0.175-0.363-0.322-0.516c-0.146-0.152-0.333-0.292-0.561-0.42
	c-0.228-0.129-0.496-0.258-0.812-0.392c-0.263-0.111-0.491-0.205-0.678-0.292c-0.193-0.088-0.345-0.181-0.462-0.275
	c-0.122-0.093-0.21-0.193-0.263-0.304c-0.052-0.111-0.081-0.245-0.081-0.397c0-0.14,0.023-0.269,0.064-0.386
	s0.111-0.216,0.204-0.304c0.088-0.087,0.205-0.152,0.351-0.198c0.146-0.047,0.316-0.071,0.52-0.071c0.357,0,0.614,0.111,0.783,0.334
	C3.138,10.5,3.22,10.809,3.22,11.213c0.274,0,0.491-0.065,0.643-0.193c0.146-0.135,0.222-0.31,0.222-0.526
	c0-0.146-0.035-0.287-0.111-0.421C3.898,9.939,3.787,9.822,3.641,9.722c-0.147-0.099-0.334-0.181-0.55-0.239
	C2.875,9.424,2.624,9.395,2.337,9.395c-0.339,0-0.648,0.035-0.923,0.111C1.139,9.582,0.9,9.687,0.701,9.833
	c-0.199,0.141-0.351,0.316-0.456,0.526c-0.111,0.211-0.163,0.45-0.163,0.725c0,0.263,0.035,0.485,0.111,0.678
	c0.076,0.187,0.187,0.356,0.333,0.503c0.146,0.146,0.339,0.286,0.567,0.414c0.227,0.123,0.49,0.258,0.8,0.392
	c0.287,0.123,0.526,0.234,0.719,0.333s0.345,0.193,0.456,0.286c0.111,0.094,0.187,0.193,0.234,0.305
	c0.041,0.105,0.064,0.233,0.064,0.379c0,0.158-0.029,0.311-0.088,0.445c-0.058,0.135-0.14,0.245-0.251,0.344
	c-0.111,0.095-0.251,0.17-0.415,0.223s-0.351,0.076-0.567,0.076c-0.239,0-0.444-0.041-0.608-0.117
	c-0.169-0.081-0.304-0.191-0.403-0.327c-0.099-0.14-0.175-0.304-0.216-0.485c-0.041-0.181-0.064-0.379-0.064-0.59L0.52,13.983
	l-0.246,0.129c-0.076,0.064-0.14,0.146-0.192,0.256C0.029,14.474,0,14.608,0,14.766c0,0.21,0.046,0.391,0.14,0.555
	c0.093,0.152,0.228,0.286,0.397,0.397c0.17,0.106,0.38,0.187,0.626,0.233C1.402,16.011,1.677,16.034,1.975,16.034"/>
<path d="M50.568,14.196h7.711v-0.688h-7.711V14.196z M50.568,11.717h7.711v-0.688h-7.711V11.717z"/>
<path d="M65.709,0.896l-0.574,1.147l-0.837,0.368v0.344l0.711-0.057l-0.62,3.109c-0.068,0.321-0.091,0.585-0.091,0.769
	c0,0.7,0.309,1.044,0.963,1.044c0.402,0,0.999-0.172,1.768-0.505V6.748c-0.459,0.149-0.827,0.23-1.091,0.23
	c-0.458,0-0.699-0.253-0.699-0.712c0-0.126,0.034-0.298,0.068-0.505l0.597-3.063h1.744V2.204h-1.652l0.241-1.308H65.709z"/>
<path d="M70.223,7.313c0.283-0.015,0.443-0.176,0.443-0.39c0-0.267-0.275-0.474-0.711-0.474c-0.733,0-1.314,0.528-1.314,1.154
	c0,0.429,0.29,0.635,0.726,0.964c0.321,0.244,0.527,0.42,0.527,0.711c0,0.405-0.26,0.649-0.695,0.649
	c-0.237,0-0.428-0.091-0.551-0.267l0.138-0.382c-0.123-0.092-0.222-0.138-0.329-0.138c-0.237,0-0.397,0.153-0.397,0.39
	c0,0.397,0.374,0.673,1.016,0.673c0.834,0,1.399-0.513,1.399-1.178c0-0.458-0.313-0.657-0.772-1.009
	c-0.359-0.275-0.573-0.435-0.573-0.711c0-0.298,0.229-0.512,0.535-0.512l0.237,0.077L70.223,7.313z"/>
<line style="fill:none;stroke:#000000;stroke-width:0.689;stroke-miterlimit:10;" x1="62.822" y1="12.6" x2="71.993" y2="12.6"/>
<path d="M65.426,17.766l-0.574,1.147l-0.837,0.368v0.344l0.711-0.057l-0.62,3.108c-0.068,0.321-0.091,0.585-0.091,0.769
	c0,0.701,0.309,1.045,0.963,1.045c0.402,0,0.999-0.172,1.768-0.506v-0.366c-0.459,0.149-0.827,0.229-1.091,0.229
	c-0.458,0-0.699-0.253-0.699-0.712c0-0.126,0.034-0.298,0.068-0.505l0.597-3.063h1.744v-0.494h-1.652l0.241-1.309H65.426z"/>
<path d="M70.444,24.252c0.29-0.008,0.482-0.184,0.482-0.42c0-0.291-0.291-0.536-0.711-0.536c-0.474,0-0.979,0.237-1.369,0.666
	c-0.405,0.442-0.634,1.047-0.634,1.727c0,0.864,0.458,1.392,1.131,1.392c0.451,0,0.956-0.244,1.43-0.741v-0.353
	c-0.413,0.422-0.841,0.635-1.193,0.635c-0.474,0-0.764-0.375-0.764-1.039c0-1.139,0.527-1.911,1.146-1.911h0.039L70.444,24.252z"/>
<path d="M76.499,14.196h7.711v-0.688h-7.711V14.196z M76.499,11.717h7.711v-0.688h-7.711V11.717z"/>
<path d="M127.851,0.539c1.056,0,1.63,1.171,1.63,3.443s-0.574,3.442-1.63,3.442c-1.055,0-1.641-1.159-1.641-3.431
	C126.21,1.71,126.796,0.539,127.851,0.539 M127.851,0c-1.641,0-2.719,1.446-2.719,3.982s1.078,3.993,2.719,3.993
	s2.72-1.457,2.72-3.993S129.491,0,127.851,0 M121.47,0.539c1.056,0,1.629,1.171,1.629,3.443s-0.573,3.442-1.629,3.442
	s-1.642-1.159-1.642-3.431C119.828,1.71,120.414,0.539,121.47,0.539 M121.47,0c-1.642,0-2.719,1.446-2.719,3.982
	s1.077,3.993,2.719,3.993c1.641,0,2.72-1.457,2.72-3.993S123.11,0,121.47,0 M115.468,0l-2.49,0.746v0.482l1.801-0.321V7.08
	l-0.138,0.195l-1.319,0.069v0.493h3.845V7.355l-1.239-0.057l-0.138-0.172V0H115.468z M107.549,9.777
	c1.159-0.127,1.938-1.022,1.938-2.009c0-0.734-0.344-1.147-0.918-1.147c-0.39,0-0.677,0.252-0.677,0.631
	c0,0.207,0.058,0.367,0.184,0.505h0.734v0.126c0,0.838-0.424,1.354-1.262,1.515V9.777z M104.725,1.32v3.545h-2.834L104.725,1.32z
	 M104.942,0.069l-3.913,4.796v0.746h3.695v2.651h0.884V5.611h1.296V4.865h-1.296V0.069H104.942z"/>
<line style="fill:none;stroke:#000000;stroke-width:0.689;stroke-miterlimit:10;" x1="88.753" y1="12.6" x2="143.005" y2="12.6"/>
<path d="M139.813,17.112c1.056,0,1.629,1.172,1.629,3.443s-0.573,3.441-1.629,3.441s-1.641-1.158-1.641-3.431
	C138.173,18.284,138.758,17.112,139.813,17.112 M139.813,16.573c-1.641,0-2.72,1.446-2.72,3.982s1.079,3.993,2.72,3.993
	s2.719-1.457,2.719-3.993S141.454,16.573,139.813,16.573 M133.433,17.112c1.055,0,1.629,1.172,1.629,3.443s-0.574,3.441-1.629,3.441
	c-1.056,0-1.642-1.158-1.642-3.431C131.791,18.284,132.377,17.112,133.433,17.112 M133.433,16.573c-1.642,0-2.72,1.446-2.72,3.982
	s1.078,3.993,2.72,3.993c1.641,0,2.719-1.457,2.719-3.993S135.073,16.573,133.433,16.573 M127.051,17.112
	c1.056,0,1.63,1.172,1.63,3.443s-0.574,3.441-1.63,3.441s-1.641-1.158-1.641-3.431C125.41,18.284,125.995,17.112,127.051,17.112
	 M127.051,16.573c-1.641,0-2.72,1.446-2.72,3.982s1.079,3.993,2.72,3.993s2.72-1.457,2.72-3.993S128.691,16.573,127.051,16.573
	 M119.512,26.349c1.159-0.126,1.938-1.021,1.938-2.008c0-0.734-0.344-1.147-0.918-1.147c-0.39,0-0.677,0.252-0.677,0.631
	c0,0.207,0.057,0.367,0.183,0.506h0.735v0.125c0,0.838-0.425,1.354-1.262,1.516V26.349z M115.872,17.112
	c1.057,0,1.63,1.172,1.63,3.443s-0.573,3.441-1.63,3.441c-1.056,0-1.641-1.158-1.641-3.431
	C114.231,18.284,114.816,17.112,115.872,17.112 M115.872,16.573c-1.641,0-2.72,1.446-2.72,3.982s1.079,3.993,2.72,3.993
	c1.642,0,2.72-1.457,2.72-3.993S117.514,16.573,115.872,16.573 M107.966,20.509c0.47-0.345,1.031-0.517,1.663-0.517
	c0.976,0,1.652,0.734,1.652,1.916c0,1.217-0.688,2.088-1.641,2.088c-1.079,0-1.698-0.963-1.698-2.787
	C107.942,20.991,107.942,20.75,107.966,20.509 M111.385,16.217c-2.812,0.184-4.511,2.076-4.511,5.015
	c0,2.065,1.125,3.316,2.675,3.316c1.571,0,2.776-1.194,2.776-2.743c0-1.457-1.021-2.501-2.387-2.501c-0.677,0-1.354,0.241-1.95,0.7
	c0.355-2.043,1.526-3.121,3.362-3.121h0.034V16.217z M101.584,20.509c0.471-0.345,1.032-0.517,1.663-0.517
	c0.976,0,1.652,0.734,1.652,1.916c0,1.217-0.688,2.088-1.64,2.088c-1.079,0-1.699-0.963-1.699-2.787
	C101.561,20.991,101.561,20.75,101.584,20.509 M105.004,16.217c-2.813,0.184-4.51,2.076-4.51,5.015c0,2.065,1.125,3.316,2.674,3.316
	c1.571,0,2.776-1.194,2.776-2.743c0-1.457-1.021-2.501-2.387-2.501c-0.677,0-1.354,0.241-1.951,0.7
	c0.356-2.043,1.526-3.121,3.362-3.121h0.035V16.217z M95.582,26.349c1.159-0.126,1.939-1.021,1.939-2.008
	c0-0.734-0.344-1.147-0.918-1.147c-0.39,0-0.677,0.252-0.677,0.631c0,0.207,0.058,0.367,0.184,0.506h0.734v0.125
	c0,0.838-0.424,1.354-1.262,1.516V26.349z M92.321,16.573l-2.49,0.746v0.482l1.802-0.322v6.174l-0.138,0.195l-1.32,0.068v0.494
	h3.844v-0.482l-1.239-0.057L92.643,23.7v-7.127H92.321z"/>
<path d="M147.511,14.196h7.711v-0.688h-7.711V14.196z M147.511,11.717h7.711v-0.688h-7.711V11.717z"/>
<path d="M195.33,12.016c0.47-0.344,1.031-0.517,1.663-0.517c0.976,0,1.652,0.735,1.652,1.917c0,1.215-0.688,2.088-1.641,2.088
	c-1.079,0-1.698-0.965-1.698-2.788C195.307,12.498,195.307,12.257,195.33,12.016 M198.749,7.724c-2.812,0.184-4.51,2.077-4.51,5.015
	c0,2.065,1.125,3.316,2.674,3.316c1.571,0,2.776-1.194,2.776-2.743c0-1.457-1.021-2.501-2.387-2.501c-0.677,0-1.354,0.241-1.951,0.7
	c0.356-2.043,1.527-3.121,3.363-3.121h0.034V7.724z M191.289,9.4v3.545h-2.834L191.289,9.4z M191.507,8.149l-3.913,4.796v0.746
	h3.695v2.651h0.884v-2.651h1.296v-0.746h-1.296V8.149H191.507z M182.521,15.011c2.536-2.02,3.925-3.316,3.925-4.762
	c0-1.297-0.906-2.169-2.387-2.169c-1.423,0-2.433,0.815-2.433,1.618c0,0.39,0.241,0.642,0.643,0.642
	c0.184,0,0.355-0.057,0.517-0.172V8.941c0.344-0.195,0.677-0.276,1.021-0.276c0.953,0,1.526,0.643,1.526,1.733
	c0,1.503-1.435,2.754-3.947,4.796v0.723h5.313v-1.881h-0.517l-0.207,0.976H182.521z M177.712,8.619c1.056,0,1.629,1.171,1.629,3.443
	c0,2.272-0.573,3.442-1.629,3.442s-1.642-1.159-1.642-3.431C176.07,9.79,176.656,8.619,177.712,8.619 M177.712,8.08
	c-1.642,0-2.719,1.446-2.719,3.982s1.077,3.993,2.719,3.993c1.641,0,2.72-1.457,2.72-3.993S179.353,8.08,177.712,8.08
	 M171.331,8.619c1.055,0,1.629,1.171,1.629,3.443c0,2.272-0.574,3.442-1.629,3.442c-1.057,0-1.642-1.159-1.642-3.431
	C169.689,9.79,170.274,8.619,171.331,8.619 M171.331,8.08c-1.642,0-2.721,1.446-2.721,3.982s1.079,3.993,2.721,3.993
	c1.641,0,2.719-1.457,2.719-3.993S172.972,8.08,171.331,8.08 M166.545,14.563c-0.401,0-0.734,0.321-0.734,0.734
	c0,0.414,0.333,0.723,0.734,0.723c0.402,0,0.723-0.32,0.723-0.723C167.268,14.884,166.947,14.563,166.545,14.563 M161.759,8.619
	c1.056,0,1.629,1.171,1.629,3.443c0,2.272-0.573,3.442-1.629,3.442s-1.641-1.159-1.641-3.431
	C160.118,9.79,160.703,8.619,161.759,8.619 M161.759,8.08c-1.641,0-2.719,1.446-2.719,3.982s1.078,3.993,2.719,3.993
	s2.719-1.457,2.719-3.993S163.399,8.08,161.759,8.08"/>
</svg>
