<?xml version="1.0" encoding="iso-8859-1"?>
<!-- Generator: Adobe Illustrator 14.0.0, SVG Export Plug-In . SVG Version: 6.00 Build 43363)  -->
<!DOCTYPE svg PUBLIC "-//W3C//DTD SVG 1.1//EN" "http://www.w3.org/Graphics/SVG/1.1/DTD/svg11.dtd">
<svg version="1.1" id="Layer_1" xmlns="http://www.w3.org/2000/svg" xmlns:xlink="http://www.w3.org/1999/xlink" x="0px" y="0px"
	 width="203.424px" height="15.296px" viewBox="0 0 203.424 15.296" style="enable-background:new 0 0 203.424 15.296;"
	 xml:space="preserve">
<path d="M3.35,7.003l0.551,0.654l-0.516,2.914c-0.517,0.654-1.045,0.976-1.469,0.976c-0.597,0-0.987-0.505-0.987-1.412
	c0-1.916,1.113-3.167,2.146-3.167C3.155,6.968,3.247,6.991,3.35,7.003 M5.209,3.652L3.453,3.985v0.321l1.01,0.115L4.062,6.716
	c-0.31-0.138-0.609-0.195-0.918-0.195c-0.953,0-1.963,0.573-2.582,1.548C0.195,8.656,0,9.367,0,10.148
	c0,1.308,0.585,2.053,1.503,2.053c0.608,0,1.227-0.355,1.79-1.067l-0.012,0.229c0,0.563,0.241,0.815,0.769,0.815
	c0.298,0,0.78-0.104,1.411-0.333v-0.344c-0.344,0.08-0.596,0.126-0.745,0.126c-0.345,0-0.505-0.161-0.505-0.481
	c0-0.149,0.023-0.367,0.069-0.621l1.227-6.873H5.209z"/>
<path d="M9.934,10.376h7.711V9.689H9.934V10.376z M9.934,7.898h7.711V7.209H9.934V7.898z"/>
<polygon points="22.941,9.984 23.745,9.307 25.752,15.296 26.51,15.296 32.155,0.69 32.901,0.69 32.901,0.001 31.673,0.001 
	26.453,13.484 24.547,7.815 22.54,9.501 "/>
<line style="fill:none;stroke:#000000;stroke-width:0.689;stroke-miterlimit:10;" x1="32.606" y1="0.345" x2="203.424" y2="0.345"/>
<path d="M34.224,8.792c0-3.144,0.918-4.705,2.238-4.934V3.331c-1.905,0.23-3.213,1.997-3.213,5.461c0,3.465,1.308,5.232,3.213,5.463
	v-0.528C35.142,13.498,34.224,11.937,34.224,8.792"/>
<path d="M39.457,6.533l-1.159,0.402v0.275l0.952,0.126c0.31,0.287,0.574,0.953,0.873,1.997c-0.471,1.136-1.079,1.87-1.595,2.146
	L38,10.984c-0.356,0.07-0.563,0.276-0.563,0.586c0,0.367,0.276,0.619,0.712,0.619c0.757,0,1.446-0.769,2.192-2.328
	c0.378,1.629,0.527,2.306,1.331,2.306c0.309,0,0.745-0.115,1.285-0.333v-0.355c-0.276,0.08-0.482,0.127-0.608,0.127
	c-0.689,0-0.85-0.724-1.297-2.272c0.505-1.171,1.01-1.825,1.538-1.962l0.493,0.447c0.367-0.149,0.562-0.367,0.562-0.643
	c0-0.356-0.287-0.643-0.654-0.643c-0.723,0-1.434,0.769-2.191,2.306c-0.402-1.56-0.54-2.317-1.217-2.317L39.457,6.533z"/>
<polygon points="46.403,9.47 44.744,9.967 44.744,10.289 45.944,10.074 45.944,14.187 45.853,14.318 44.973,14.363 44.973,14.691 
	47.534,14.691 47.534,14.371 46.709,14.333 46.617,14.217 46.617,9.47 "/>
<rect x="51.188" y="8.45" width="7.803" height="0.688"/>
<path d="M63.778,6.533l-1.159,0.402v0.275l0.952,0.126c0.31,0.287,0.574,0.953,0.873,1.997c-0.471,1.136-1.079,1.87-1.595,2.146
	l-0.528-0.494c-0.356,0.07-0.563,0.276-0.563,0.586c0,0.367,0.276,0.619,0.712,0.619c0.757,0,1.446-0.769,2.192-2.328
	c0.378,1.629,0.527,2.306,1.331,2.306c0.309,0,0.745-0.115,1.285-0.333v-0.355c-0.276,0.08-0.482,0.127-0.608,0.127
	c-0.689,0-0.85-0.724-1.297-2.272c0.505-1.171,1.01-1.825,1.538-1.962l0.493,0.447c0.367-0.149,0.562-0.367,0.562-0.643
	c0-0.356-0.287-0.643-0.654-0.643c-0.723,0-1.434,0.769-2.191,2.306c-0.402-1.56-0.54-2.317-1.217-2.317L63.778,6.533z"/>
<path d="M69.424,14.087c1.689-1.345,2.615-2.209,2.615-3.173c0-0.862-0.604-1.444-1.591-1.444c-0.948,0-1.62,0.543-1.62,1.078
	c0,0.26,0.16,0.428,0.428,0.428c0.122,0,0.237-0.038,0.344-0.114v-0.817c0.229-0.131,0.451-0.185,0.68-0.185
	c0.635,0,1.017,0.429,1.017,1.155c0,1-0.956,1.834-2.63,3.195v0.481h3.54v-1.254h-0.344l-0.138,0.649H69.424z"/>
<path d="M75.979,8.792c0,3.145-0.918,4.705-2.238,4.935v0.528c1.905-0.23,3.213-1.998,3.213-5.463c0-3.464-1.308-5.231-3.213-5.461
	v0.528C75.061,4.088,75.979,5.649,75.979,8.792"/>
<path d="M78.687,8.373c1.689-1.345,2.615-2.209,2.615-3.173c0-0.863-0.604-1.444-1.591-1.444c-0.948,0-1.62,0.542-1.62,1.078
	c0,0.259,0.16,0.428,0.428,0.428c0.122,0,0.237-0.039,0.344-0.115V4.329c0.229-0.13,0.451-0.183,0.68-0.183
	c0.635,0,1.017,0.428,1.017,1.154c0,1.001-0.956,1.835-2.63,3.195v0.481h3.54V7.722h-0.344l-0.138,0.65H78.687z"/>
<path d="M96.634,8.793c0-3.144,0.918-4.705,2.238-4.934V3.332c-1.905,0.229-3.213,1.996-3.213,5.462
	c0,3.465,1.308,5.231,3.213,5.462v-0.527C97.552,13.498,96.634,11.937,96.634,8.793 M88.328,9.137v3.19h0.688v-3.19h3.19V8.449
	h-3.19V5.259h-0.688v3.189h-3.19v0.688h0.344H88.328z"/>
<path d="M101.918,6.533l-1.125,0.367v0.253l0.976,0.08c0.206,0.275,0.356,0.666,0.459,1.193l0.711,3.454l0.035-0.022
	c-0.677,1.297-1.308,1.974-2.008,2.02l-0.677-0.677c-0.379,0.057-0.62,0.321-0.62,0.631c0,0.413,0.402,0.757,0.964,0.757
	c0.952,0,1.996-0.964,3.052-2.88c0.952-1.722,1.411-3.315,2.249-4.257l0.585-0.344V6.866l-0.906-0.299h-0.218
	c-0.723,1.687-1.32,3.133-1.802,4.361l-0.378-1.939c-0.333-1.675-0.413-2.466-1.148-2.466L101.918,6.533z"/>
<polygon points="108.794,9.47 107.135,9.967 107.135,10.289 108.335,10.074 108.335,14.187 108.245,14.318 107.364,14.363 
	107.364,14.691 109.925,14.691 109.925,14.371 109.1,14.333 109.008,14.217 109.008,9.47 "/>
<rect x="113.579" y="8.45" width="7.803" height="0.688"/>
<path d="M126.215,6.533l-1.125,0.367v0.253l0.976,0.08c0.206,0.275,0.356,0.666,0.459,1.193l0.711,3.454l0.035-0.022
	c-0.677,1.297-1.308,1.974-2.008,2.02l-0.677-0.677c-0.379,0.057-0.62,0.321-0.62,0.631c0,0.413,0.401,0.757,0.964,0.757
	c0.952,0,1.996-0.964,3.052-2.88c0.952-1.722,1.411-3.315,2.249-4.257l0.585-0.344V6.866l-0.906-0.299h-0.218
	c-0.723,1.687-1.319,3.133-1.802,4.361l-0.378-1.939c-0.333-1.675-0.413-2.466-1.148-2.466L126.215,6.533z"/>
<path d="M131.792,14.087c1.689-1.345,2.614-2.209,2.614-3.173c0-0.862-0.604-1.444-1.59-1.444c-0.948,0-1.62,0.543-1.62,1.078
	c0,0.26,0.16,0.428,0.428,0.428c0.122,0,0.237-0.038,0.344-0.114v-0.817c0.229-0.131,0.451-0.185,0.681-0.185
	c0.635,0,1.017,0.429,1.017,1.155c0,1-0.956,1.834-2.63,3.195v0.481h3.54v-1.254h-0.344l-0.139,0.649H131.792z"/>
<path d="M138.347,8.792c0,3.145-0.918,4.705-2.238,4.935v0.528c1.905-0.23,3.213-1.998,3.213-5.463c0-3.464-1.308-5.231-3.213-5.461
	v0.528C137.429,4.088,138.347,5.649,138.347,8.792"/>
<path d="M141.055,8.373c1.689-1.345,2.614-2.209,2.614-3.173c0-0.863-0.603-1.444-1.59-1.444c-0.948,0-1.62,0.542-1.62,1.078
	c0,0.259,0.16,0.428,0.428,0.428c0.122,0,0.237-0.039,0.345-0.115V4.329c0.229-0.13,0.451-0.183,0.68-0.183
	c0.635,0,1.017,0.428,1.017,1.154c0,1.001-0.955,1.835-2.63,3.195v0.481h3.54V7.722h-0.344l-0.138,0.65H141.055z"/>
<path d="M159.002,8.793c0-3.144,0.918-4.705,2.238-4.934V3.332c-1.905,0.229-3.214,1.996-3.214,5.462
	c0,3.465,1.309,5.231,3.214,5.462v-0.527C159.92,13.498,159.002,11.937,159.002,8.793 M150.696,9.137v3.19h0.688v-3.19h3.19V8.449
	h-3.19V5.259h-0.688v3.189h-3.189v0.688h0.344H150.696z"/>
<path d="M166.179,6.475l-0.219,0.562c-0.126,0.058-0.241,0.092-0.344,0.092c-0.241,0-0.482-0.115-0.781-0.264
	c-0.309-0.161-0.596-0.31-0.939-0.31c-0.792,0-1.55,0.804-1.55,1.606c0,0.424,0.218,0.678,0.539,0.678
	c0.229,0,0.401-0.127,0.539-0.367l-0.607-0.734c0.172-0.242,0.424-0.367,0.723-0.367c0.241,0,0.585,0.114,1.01,0.332l1.137-0.252
	l-3.948,4.43l0.631,0.344l0.276-0.494c0.126-0.068,0.24-0.104,0.367-0.104c0.551,0,1.136,0.494,1.789,0.494
	c0.839,0,1.596-0.814,1.596-1.606c0-0.413-0.241-0.688-0.563-0.688c-0.194,0-0.39,0.137-0.551,0.414l0.631,0.699
	c-0.184,0.275-0.424,0.413-0.711,0.413c-0.218,0-0.607-0.127-1.171-0.379l-1.113,0.287l3.959-4.418L166.179,6.475z"/>
<polygon points="169.327,9.47 167.667,9.967 167.667,10.289 168.868,10.074 168.868,14.187 168.776,14.318 167.896,14.363 
	167.896,14.691 170.458,14.691 170.458,14.371 169.632,14.333 169.541,14.217 169.541,9.47 "/>
<rect x="174.111" y="8.45" width="7.803" height="0.688"/>
<path d="M188.641,6.475l-0.219,0.562c-0.126,0.058-0.24,0.092-0.344,0.092c-0.241,0-0.481-0.115-0.781-0.264
	c-0.309-0.161-0.596-0.31-0.939-0.31c-0.792,0-1.55,0.804-1.55,1.606c0,0.424,0.218,0.678,0.54,0.678c0.229,0,0.4-0.127,0.539-0.367
	l-0.608-0.734c0.172-0.242,0.424-0.367,0.723-0.367c0.241,0,0.585,0.114,1.011,0.332l1.136-0.252l-3.948,4.43l0.631,0.344
	l0.276-0.494c0.126-0.068,0.241-0.104,0.367-0.104c0.551,0,1.136,0.494,1.79,0.494c0.838,0,1.595-0.814,1.595-1.606
	c0-0.413-0.241-0.688-0.563-0.688c-0.194,0-0.39,0.137-0.551,0.414l0.631,0.699c-0.184,0.275-0.424,0.413-0.711,0.413
	c-0.218,0-0.607-0.127-1.171-0.379l-1.113,0.287l3.959-4.418L188.641,6.475z"/>
<path d="M190.488,14.087c1.688-1.345,2.615-2.209,2.615-3.173c0-0.862-0.604-1.444-1.592-1.444c-0.947,0-1.619,0.543-1.619,1.078
	c0,0.26,0.159,0.428,0.428,0.428c0.122,0,0.236-0.038,0.344-0.114v-0.817c0.229-0.131,0.451-0.185,0.68-0.185
	c0.636,0,1.018,0.429,1.018,1.155c0,1-0.956,1.834-2.63,3.195v0.481h3.54v-1.254h-0.345l-0.138,0.649H190.488z"/>
<path d="M197.042,8.792c0,3.145-0.918,4.705-2.237,4.935v0.528c1.904-0.23,3.213-1.998,3.213-5.463c0-3.464-1.309-5.231-3.213-5.461
	v0.528C196.125,4.088,197.042,5.649,197.042,8.792"/>
<path d="M199.75,8.373c1.689-1.345,2.615-2.209,2.615-3.173c0-0.863-0.604-1.444-1.591-1.444c-0.948,0-1.62,0.542-1.62,1.078
	c0,0.259,0.16,0.428,0.428,0.428c0.122,0,0.237-0.039,0.344-0.115V4.329c0.229-0.13,0.451-0.183,0.681-0.183
	c0.635,0,1.017,0.428,1.017,1.154c0,1.001-0.956,1.835-2.63,3.195v0.481h3.54V7.722h-0.344l-0.139,0.65H199.75z"/>
</svg>
