<?xml version="1.0" encoding="iso-8859-1"?>
<!-- Generator: Adobe Illustrator 14.0.0, SVG Export Plug-In . SVG Version: 6.00 Build 43363)  -->
<!DOCTYPE svg PUBLIC "-//W3C//DTD SVG 1.1//EN" "http://www.w3.org/Graphics/SVG/1.1/DTD/svg11.dtd">
<svg version="1.1" id="Layer_1" xmlns="http://www.w3.org/2000/svg" xmlns:xlink="http://www.w3.org/1999/xlink" x="0px" y="0px"
	 width="69.265px" height="14.825px" viewBox="0 0 69.265 14.825" style="enable-background:new 0 0 69.265 14.825;"
	 xml:space="preserve">
<path d="M2.249,6.77L1.124,7.137v0.252L2.1,7.469c0.206,0.275,0.356,0.666,0.459,1.193l0.711,3.454l0.035-0.022
	c-0.677,1.297-1.308,1.973-2.008,2.02L0.62,13.436C0.241,13.494,0,13.757,0,14.067c0,0.414,0.402,0.758,0.964,0.758
	c0.952,0,1.996-0.965,3.052-2.881c0.952-1.721,1.411-3.315,2.249-4.256L6.85,7.344V7.103L5.944,6.804H5.726
	c-0.723,1.687-1.32,3.132-1.802,4.361L3.546,9.225C3.213,7.549,3.133,6.758,2.398,6.758L2.249,6.77z"/>
<path d="M11.022,10.614h7.711V9.926h-7.711V10.614z M11.022,8.135h7.711V7.447h-7.711V8.135z"/>
<polygon points="24.089,8.836 24.893,8.16 26.843,13.106 27.601,13.106 33.223,0.69 33.992,0.69 33.992,0.002 32.788,0.002 
	27.543,11.568 25.638,6.726 23.688,8.355 "/>
<line style="fill:none;stroke:#000000;stroke-width:0.689;stroke-miterlimit:10;" x1="33.695" y1="0.345" x2="69.265" y2="0.345"/>
<path d="M36.301,6.804l-1.698,0.379v0.286l0.94,0.173l-0.953,4.692h0.964l0.471-2.696c0.184-1.056,0.55-1.675,1.675-2.111
	l0.298,0.62h0.081c0.471,0,0.769-0.311,0.769-0.746c0-0.345-0.252-0.597-0.643-0.597c-0.573,0-1.308,0.529-2.043,1.572l0.367-1.572
	H36.301z"/>
<path d="M40.787,8.61c1.689-1.346,2.614-2.209,2.614-3.173c0-0.863-0.603-1.444-1.59-1.444c-0.948,0-1.62,0.542-1.62,1.078
	c0,0.259,0.16,0.428,0.428,0.428c0.122,0,0.237-0.039,0.345-0.115V4.566c0.229-0.13,0.45-0.184,0.68-0.184
	c0.635,0,1.017,0.429,1.017,1.155c0,1.001-0.956,1.835-2.63,3.195v0.481h3.54V7.959h-0.344l-0.138,0.65H40.787z"/>
<rect x="46.871" y="8.686" width="7.804" height="0.688"/>
<path d="M59.463,6.77l-1.159,0.402v0.275l0.952,0.126c0.31,0.287,0.574,0.953,0.873,1.996c-0.472,1.137-1.079,1.871-1.596,2.146
	l-0.527-0.494c-0.356,0.069-0.563,0.276-0.563,0.586c0,0.367,0.276,0.619,0.712,0.619c0.758,0,1.446-0.769,2.192-2.328
	c0.378,1.629,0.527,2.305,1.331,2.305c0.309,0,0.745-0.114,1.285-0.332v-0.355c-0.276,0.08-0.482,0.126-0.608,0.126
	c-0.688,0-0.85-0.723-1.297-2.272c0.505-1.17,1.01-1.824,1.538-1.961l0.493,0.447c0.367-0.149,0.562-0.367,0.562-0.643
	c0-0.356-0.287-0.643-0.653-0.643c-0.724,0-1.435,0.769-2.191,2.306c-0.402-1.56-0.54-2.317-1.217-2.317L59.463,6.77z"/>
<path d="M65.591,8.61c1.688-1.346,2.613-2.209,2.613-3.173c0-0.863-0.603-1.444-1.59-1.444c-0.948,0-1.62,0.542-1.62,1.078
	c0,0.259,0.16,0.428,0.428,0.428c0.122,0,0.237-0.039,0.345-0.115V4.566c0.229-0.13,0.451-0.184,0.68-0.184
	c0.635,0,1.017,0.429,1.017,1.155c0,1.001-0.955,1.835-2.63,3.195v0.481h3.54V7.959h-0.344l-0.138,0.65H65.591z"/>
</svg>
