<?xml version="1.0" encoding="iso-8859-1"?>
<!-- Generator: Adobe Illustrator 14.0.0, SVG Export Plug-In . SVG Version: 6.00 Build 43363)  -->
<!DOCTYPE svg PUBLIC "-//W3C//DTD SVG 1.1//EN" "http://www.w3.org/Graphics/SVG/1.1/DTD/svg11.dtd">
<svg version="1.1" id="Layer_1" xmlns="http://www.w3.org/2000/svg" xmlns:xlink="http://www.w3.org/1999/xlink" x="0px" y="0px"
	 width="228.436px" height="32.155px" viewBox="0 0 228.436 32.155" style="enable-background:new 0 0 228.436 32.155;"
	 xml:space="preserve">
<path d="M6.667,11.151c-0.746-0.264-1.434-0.39-2.077-0.39c-1.056,0-2.019,0.344-2.811,0.987C0.654,12.678,0,14.066,0,15.558
	c0,1.939,1.194,3.179,3.087,3.179c0.711,0,1.492-0.139,2.283-0.402l0.31-1.813H5.187l-0.505,1.32l-0.218,0.194
	c-0.333,0.103-0.666,0.16-0.987,0.16c-1.515,0-2.387-0.918-2.387-2.501c0-1.503,0.54-2.811,1.435-3.615
	c0.562-0.504,1.273-0.78,2.031-0.78c0.424,0,0.826,0.092,1.216,0.299l0.092,0.218v1.101h0.482L6.667,11.151z"/>
<path d="M11.541,17.508l-1.162,0.221v0.177l0.772,0.091l-0.344,2.256c-0.152,0.971-0.26,1.674-0.642,2.088l-0.787-0.207
	c-0.107,0.076-0.168,0.184-0.168,0.305c0,0.246,0.16,0.406,0.405,0.406c0.359,0,0.787-0.283,1.192-0.856
	c0.383-0.535,0.482-1.116,0.581-1.759l0.429-2.721H11.541z M11.679,15.833c-0.229,0-0.413,0.183-0.413,0.413
	c0,0.229,0.184,0.413,0.413,0.413c0.222,0,0.413-0.185,0.413-0.413C12.091,16.016,11.9,15.833,11.679,15.833 M8.037,17.508
	l-1.131,0.244v0.199l0.619,0.114l-0.451,2.278c-0.031,0.168-0.046,0.306-0.046,0.397c0,0.336,0.161,0.504,0.489,0.504
	c0.291,0,0.658-0.091,1.078-0.267v-0.237c-0.237,0.076-0.42,0.114-0.566,0.114c-0.237,0-0.366-0.1-0.366-0.299l0.022-0.19
	l0.551-2.858H8.037z M8.189,15.811c-0.229,0-0.413,0.183-0.413,0.412c0,0.237,0.184,0.414,0.413,0.414
	c0.222,0,0.413-0.185,0.413-0.414C8.603,16.001,8.412,15.811,8.189,15.811"/>
<path d="M16.438,16.877h7.711V16.19h-7.711V16.877z M16.438,14.398h7.711V13.71h-7.711V14.398z"/>
<path d="M34.899,0l-1.131,0.252v0.191l0.626,0.115l-0.634,3.127h0.65l0.474-2.584c0.466-0.428,0.871-0.627,1.131-0.627
	c0.291,0,0.413,0.145,0.413,0.482c0,0.099-0.015,0.267-0.069,0.489l-0.329,1.414c-0.038,0.168-0.061,0.313-0.061,0.413
	c0,0.306,0.184,0.459,0.558,0.459c0.214,0,0.52-0.077,0.918-0.23V3.287c-0.176,0.046-0.314,0.069-0.421,0.069
	c-0.252,0-0.397-0.13-0.397-0.375c0-0.114,0.038-0.282,0.084-0.504l0.26-1.185c0.061-0.275,0.107-0.489,0.107-0.68
	C37.079,0.237,36.833,0,36.437,0c-0.406,0-0.88,0.252-1.483,0.734L35.09,0H34.899z"/>
<polygon points="28.138,5.992 28.138,6.794 35.424,15.148 27.623,24.202 42.895,24.202 42.895,19.452 42.148,19.452 41.735,21.883 
	40.898,22.721 29.928,22.721 36.962,14.552 30.204,6.794 40.921,6.794 41.735,7.61 42.148,10.064 42.895,10.064 42.895,5.992 
	30.204,5.992 "/>
<path d="M30.163,26.491l-1.2,0.221v0.215l0.703,0.038l-1.032,5.151h0.635l0.244-1.467l0.436-0.398l0.65,1.315
	c0.199,0.398,0.413,0.589,0.718,0.589c0.146,0,0.451-0.061,0.895-0.207v-0.214c-0.153,0.031-0.283,0.054-0.398,0.054
	c-0.527,0-0.833-0.649-1.414-1.965c0.336-0.306,0.657-0.589,0.986-0.826l0.275,0.299c0.283-0.114,0.421-0.275,0.421-0.473
	c0-0.223-0.184-0.391-0.436-0.391c-0.183,0-0.405,0.13-0.673,0.404l-1.414,1.461l0.818-3.807H30.163z"/>
<path d="M32.995,30.969h5.137V30.51h-5.137V30.969z M32.995,29.319h5.137V28.86h-5.137V29.319z"/>
<polygon points="40.965,26.895 39.306,27.392 39.306,27.713 40.506,27.5 40.506,31.612 40.415,31.743 39.535,31.788 39.535,32.116 
	42.096,32.116 42.096,31.795 41.271,31.757 41.179,31.642 41.179,26.895 "/>
<path d="M49.158,11.955l0.528,3.304h-2.398L49.158,11.955z M49.158,10.83l-4.234,7.263l-0.631,0.069v0.436h2.272v-0.436l-0.7-0.057
	l-0.092-0.162L47,15.753h2.788l0.356,2.19l-0.081,0.162l-0.677,0.057v0.436h2.513v-0.436l-0.562-0.057l-0.195-0.207l-1.228-7.069
	H49.158z"/>
<path d="M56.835,15.566l-1.2,0.222v0.214l0.703,0.038l-1.032,5.153h0.635l0.244-1.468l0.436-0.397l0.65,1.313
	c0.199,0.398,0.413,0.59,0.718,0.59c0.146,0,0.452-0.062,0.895-0.206v-0.214c-0.153,0.029-0.283,0.053-0.398,0.053
	c-0.527,0-0.833-0.65-1.414-1.965c0.337-0.305,0.658-0.588,0.986-0.825l0.276,0.298c0.282-0.115,0.42-0.275,0.42-0.475
	c0-0.221-0.184-0.389-0.436-0.389c-0.183,0-0.405,0.129-0.673,0.404l-1.414,1.46l0.818-3.807H56.835z M53.729,17.508l-1.131,0.244
	v0.199l0.619,0.114l-0.451,2.278c-0.031,0.168-0.046,0.306-0.046,0.397c0,0.336,0.161,0.504,0.489,0.504
	c0.291,0,0.658-0.091,1.078-0.267v-0.237c-0.237,0.076-0.42,0.114-0.566,0.114c-0.237,0-0.366-0.1-0.366-0.299l0.022-0.19
	l0.551-2.858H53.729z M53.882,15.811c-0.229,0-0.413,0.183-0.413,0.412c0,0.237,0.184,0.414,0.413,0.414
	c0.222,0,0.413-0.185,0.413-0.414C54.295,16.001,54.104,15.811,53.882,15.811"/>
<path d="M61.597,18.094l0.62-3.19c0.378-0.035,0.677-0.058,0.883-0.058c1.228,0,1.813,0.379,1.813,1.273
	c0,1.332-0.86,2.008-2.559,2.008C62.114,18.127,61.861,18.118,61.597,18.094 M62.309,14.364l0.55-2.983
	c0.276-0.023,0.482-0.034,0.631-0.034c1.102,0,1.63,0.344,1.63,1.101c0,1.17-0.826,1.951-2.226,1.951
	C62.745,14.399,62.561,14.387,62.309,14.364 M60.989,10.899v0.436l0.734,0.057l0.115,0.173l-1.216,6.368l-0.195,0.161l-0.723,0.068
	v0.436h2.868c2.318,0,3.466-0.837,3.466-2.559c0-0.94-0.62-1.468-1.813-1.525c1.331-0.333,2.031-1.091,2.031-2.181
	c0-0.998-0.769-1.434-2.318-1.434H60.989z"/>
<path d="M73.397,17.508l-1.162,0.221v0.176l0.772,0.092l-0.344,2.256c-0.152,0.971-0.259,1.674-0.642,2.086l-0.787-0.205
	c-0.107,0.076-0.168,0.183-0.168,0.306c0,0.244,0.16,0.405,0.405,0.405c0.359,0,0.787-0.283,1.192-0.855
	c0.383-0.537,0.482-1.117,0.581-1.76l0.429-2.721H73.397z M73.535,15.834c-0.229,0-0.413,0.183-0.413,0.412s0.184,0.412,0.413,0.412
	c0.222,0,0.413-0.183,0.413-0.412S73.757,15.834,73.535,15.834 M68.684,15.566l-1.2,0.222v0.215l0.703,0.037l-1.032,5.152h0.635
	l0.244-1.467l0.436-0.398l0.65,1.315c0.198,0.397,0.413,0.589,0.718,0.589c0.146,0,0.451-0.061,0.895-0.207V20.81
	c-0.153,0.031-0.283,0.054-0.398,0.054c-0.527,0-0.833-0.65-1.414-1.965c0.336-0.306,0.657-0.589,0.986-0.826l0.275,0.299
	c0.283-0.114,0.421-0.275,0.421-0.474c0-0.222-0.184-0.39-0.436-0.39c-0.183,0-0.405,0.13-0.673,0.404l-1.414,1.461l0.818-3.808
	H68.684z"/>
<path d="M78.295,16.877h7.711V16.19h-7.711V16.877z M78.295,14.398h7.711V13.71h-7.711V14.398z"/>
<path d="M93.312,11.955l0.528,3.304h-2.398L93.312,11.955z M93.312,10.83l-4.234,7.263l-0.631,0.069v0.436h2.272v-0.436l-0.7-0.057
	l-0.092-0.162l1.228-2.19h2.788l0.356,2.19l-0.081,0.162l-0.677,0.057v0.436h2.513v-0.436l-0.562-0.057l-0.195-0.207l-1.228-7.069
	H93.312z"/>
<path d="M97.882,17.508l-1.131,0.244v0.199l0.619,0.114l-0.451,2.278c-0.031,0.168-0.046,0.306-0.046,0.397
	c0,0.336,0.161,0.504,0.489,0.504c0.291,0,0.658-0.091,1.078-0.267v-0.237c-0.237,0.076-0.42,0.114-0.566,0.114
	c-0.237,0-0.366-0.1-0.366-0.299l0.022-0.19l0.551-2.858H97.882z M98.036,15.811c-0.229,0-0.413,0.183-0.413,0.412
	c0,0.237,0.184,0.414,0.413,0.414c0.222,0,0.413-0.185,0.413-0.414C98.448,16.001,98.257,15.811,98.036,15.811"/>
<polygon points="101.456,15.971 99.796,16.468 99.796,16.79 100.996,16.575 100.996,20.688 100.905,20.819 100.025,20.864 
	100.025,21.192 102.586,21.192 102.586,20.872 101.761,20.833 101.669,20.718 101.669,15.971 "/>
<path d="M105.688,18.094l0.62-3.19c0.378-0.035,0.677-0.058,0.883-0.058c1.228,0,1.813,0.379,1.813,1.273
	c0,1.332-0.86,2.008-2.559,2.008C106.206,18.127,105.953,18.118,105.688,18.094 M106.401,14.364l0.55-2.983
	c0.276-0.023,0.482-0.034,0.631-0.034c1.102,0,1.63,0.344,1.63,1.101c0,1.17-0.826,1.951-2.226,1.951
	C106.837,14.399,106.653,14.387,106.401,14.364 M105.081,10.899v0.436l0.734,0.057l0.115,0.173l-1.216,6.368l-0.195,0.161
	l-0.723,0.068v0.436h2.868c2.318,0,3.466-0.837,3.466-2.559c0-0.94-0.62-1.468-1.813-1.525c1.331-0.333,2.031-1.091,2.031-2.181
	c0-0.998-0.769-1.434-2.318-1.434H105.081z"/>
<polygon points="113.242,15.971 111.583,16.468 111.583,16.79 112.783,16.575 112.783,20.688 112.692,20.819 111.813,20.864 
	111.813,21.192 114.374,21.192 114.374,20.872 113.548,20.833 113.457,20.718 113.457,15.971 "/>
<path d="M117.428,17.508l-1.161,0.221v0.177l0.772,0.091l-0.345,2.256c-0.152,0.971-0.259,1.674-0.643,2.088l-0.787-0.207
	c-0.106,0.076-0.167,0.184-0.167,0.305c0,0.246,0.16,0.406,0.405,0.406c0.359,0,0.787-0.283,1.192-0.856
	c0.383-0.535,0.481-1.116,0.581-1.759l0.429-2.721H117.428z M117.567,15.833c-0.229,0-0.413,0.183-0.413,0.413
	c0,0.229,0.184,0.413,0.413,0.413c0.222,0,0.413-0.185,0.413-0.413C117.98,16.016,117.789,15.833,117.567,15.833"/>
<polygon points="124.982,15.638 124.982,18.829 125.67,18.829 125.67,15.638 128.861,15.638 128.861,14.95 125.67,14.95 
	125.67,11.76 124.982,11.76 124.982,14.95 121.792,14.95 121.792,15.638 122.136,15.638 "/>
<path d="M135.632,11.955l0.528,3.304h-2.398L135.632,11.955z M135.632,10.83l-4.233,7.263l-0.631,0.069v0.436h2.271v-0.436
	l-0.7-0.057l-0.092-0.162l1.229-2.19h2.787l0.356,2.19l-0.081,0.162l-0.677,0.057v0.436h2.513v-0.436l-0.562-0.057l-0.195-0.207
	l-1.229-7.069H135.632z"/>
<path d="M140.204,17.508l-1.131,0.244v0.199l0.619,0.114l-0.451,2.278c-0.031,0.168-0.046,0.306-0.046,0.397
	c0,0.336,0.16,0.504,0.488,0.504c0.291,0,0.658-0.091,1.078-0.267v-0.237c-0.236,0.076-0.42,0.114-0.565,0.114
	c-0.237,0-0.366-0.1-0.366-0.299l0.021-0.19l0.552-2.858H140.204z M140.357,15.811c-0.229,0-0.413,0.183-0.413,0.412
	c0,0.237,0.184,0.414,0.413,0.414c0.222,0,0.412-0.185,0.412-0.414C140.769,16.001,140.579,15.811,140.357,15.811"/>
<path d="M142.477,20.588c1.688-1.345,2.614-2.209,2.614-3.173c0-0.862-0.604-1.444-1.591-1.444c-0.948,0-1.62,0.543-1.62,1.078
	c0,0.26,0.16,0.428,0.429,0.428c0.122,0,0.236-0.039,0.344-0.114v-0.818c0.229-0.13,0.451-0.183,0.68-0.183
	c0.635,0,1.018,0.428,1.018,1.154c0,1-0.956,1.834-2.63,3.194v0.481h3.539v-1.254h-0.344l-0.138,0.65H142.477z"/>
<path d="M148.009,18.094l0.62-3.19c0.378-0.035,0.678-0.058,0.884-0.058c1.228,0,1.813,0.379,1.813,1.273
	c0,1.332-0.86,2.008-2.559,2.008C148.527,18.127,148.274,18.118,148.009,18.094 M148.722,14.364l0.55-2.983
	c0.275-0.023,0.481-0.034,0.631-0.034c1.102,0,1.63,0.344,1.63,1.101c0,1.17-0.826,1.951-2.226,1.951
	C149.158,14.399,148.974,14.387,148.722,14.364 M147.402,10.899v0.436l0.733,0.057l0.115,0.173l-1.216,6.368l-0.195,0.161
	l-0.723,0.068v0.436h2.868c2.317,0,3.466-0.837,3.466-2.559c0-0.94-0.62-1.468-1.813-1.525c1.33-0.333,2.03-1.091,2.03-2.181
	c0-0.998-0.769-1.434-2.317-1.434H147.402z"/>
<path d="M154.265,20.588c1.688-1.345,2.613-2.209,2.613-3.173c0-0.862-0.603-1.444-1.59-1.444c-0.948,0-1.62,0.543-1.62,1.078
	c0,0.26,0.16,0.428,0.429,0.428c0.121,0,0.236-0.039,0.344-0.114v-0.818c0.229-0.13,0.451-0.183,0.68-0.183
	c0.635,0,1.018,0.428,1.018,1.154c0,1-0.956,1.834-2.631,3.194v0.481h3.54v-1.254h-0.344l-0.138,0.65H154.265z"/>
<path d="M159.75,17.508l-1.162,0.221v0.177l0.773,0.091l-0.346,2.256c-0.151,0.971-0.259,1.674-0.642,2.088l-0.787-0.207
	c-0.106,0.076-0.168,0.184-0.168,0.305c0,0.246,0.16,0.406,0.405,0.406c0.358,0,0.787-0.283,1.191-0.856
	c0.384-0.535,0.482-1.116,0.581-1.759l0.43-2.721H159.75z M159.887,15.833c-0.229,0-0.413,0.183-0.413,0.413
	c0,0.229,0.185,0.413,0.413,0.413c0.223,0,0.413-0.185,0.413-0.413C160.3,16.016,160.11,15.833,159.887,15.833"/>
<polygon points="167.303,15.638 167.303,18.829 167.992,18.829 167.992,15.638 171.181,15.638 171.181,14.95 167.992,14.95 
	167.992,11.76 167.303,11.76 167.303,14.95 164.114,14.95 164.114,15.638 164.458,15.638 "/>
<path d="M185.172,17.245c-0.4,0-0.733,0.32-0.733,0.734c0,0.412,0.333,0.723,0.733,0.723c0.402,0,0.724-0.321,0.724-0.723
	C185.896,17.565,185.575,17.245,185.172,17.245 M180.387,17.245c-0.401,0-0.734,0.32-0.734,0.734c0,0.412,0.333,0.723,0.734,0.723
	s0.723-0.321,0.723-0.723C181.11,17.565,180.789,17.245,180.387,17.245 M175.589,17.245c-0.401,0-0.733,0.32-0.733,0.734
	c0,0.412,0.332,0.723,0.733,0.723c0.402,0,0.724-0.321,0.724-0.723C176.313,17.565,175.992,17.245,175.589,17.245"/>
<polygon points="192.736,15.638 192.736,18.829 193.424,18.829 193.424,15.638 196.615,15.638 196.615,14.95 193.424,14.95 
	193.424,11.76 192.736,11.76 192.736,14.95 189.546,14.95 189.546,15.638 189.89,15.638 "/>
<path d="M203.386,11.955l0.528,3.304h-2.398L203.386,11.955z M203.386,10.83l-4.233,7.263l-0.631,0.069v0.436h2.271v-0.436
	l-0.7-0.057l-0.092-0.162l1.229-2.19h2.787l0.356,2.19l-0.081,0.162l-0.677,0.057v0.436h2.513v-0.436l-0.562-0.057l-0.195-0.207
	l-1.229-7.069H203.386z"/>
<path d="M210.727,17.508l-1.132,0.252v0.191l0.627,0.114l-0.634,3.127h0.65l0.474-2.584c0.466-0.429,0.871-0.627,1.131-0.627
	c0.29,0,0.413,0.145,0.413,0.481c0,0.1-0.016,0.268-0.069,0.489l-0.328,1.414c-0.038,0.168-0.062,0.313-0.062,0.413
	c0,0.306,0.183,0.459,0.558,0.459c0.215,0,0.521-0.077,0.917-0.23v-0.214c-0.175,0.046-0.313,0.069-0.42,0.069
	c-0.252,0-0.397-0.13-0.397-0.374c0-0.115,0.039-0.283,0.085-0.505l0.259-1.186c0.063-0.274,0.108-0.488,0.108-0.68
	c0-0.375-0.245-0.611-0.644-0.611c-0.404,0-0.879,0.252-1.482,0.733l0.138-0.733H210.727z M207.958,17.508l-1.131,0.244v0.199
	l0.619,0.114l-0.451,2.278c-0.031,0.168-0.046,0.306-0.046,0.397c0,0.336,0.161,0.504,0.488,0.504c0.291,0,0.658-0.091,1.078-0.267
	v-0.237c-0.236,0.076-0.42,0.114-0.565,0.114c-0.237,0-0.366-0.1-0.366-0.299l0.021-0.19l0.552-2.858H207.958z M208.111,15.811
	c-0.229,0-0.413,0.183-0.413,0.412c0,0.237,0.184,0.414,0.413,0.414c0.222,0,0.412-0.185,0.412-0.414
	C208.523,16.001,208.333,15.811,208.111,15.811"/>
<path d="M215.955,18.094l0.62-3.19c0.378-0.035,0.677-0.058,0.883-0.058c1.229,0,1.813,0.379,1.813,1.273
	c0,1.332-0.86,2.008-2.56,2.008C216.471,18.127,216.218,18.118,215.955,18.094 M216.667,14.364l0.55-2.983
	c0.276-0.023,0.482-0.034,0.631-0.034c1.103,0,1.631,0.344,1.631,1.101c0,1.17-0.826,1.951-2.227,1.951
	C217.103,14.399,216.918,14.387,216.667,14.364 M215.346,10.899v0.436l0.734,0.057l0.115,0.173l-1.216,6.368l-0.195,0.161
	l-0.723,0.068v0.436h2.867c2.318,0,3.467-0.837,3.467-2.559c0-0.94-0.62-1.468-1.813-1.525c1.331-0.333,2.031-1.091,2.031-2.181
	c0-0.998-0.77-1.434-2.318-1.434H215.346z"/>
<path d="M227.886,17.508l-1.162,0.222v0.176l0.772,0.091l-0.344,2.256c-0.153,0.971-0.261,1.674-0.643,2.086l-0.788-0.205
	c-0.106,0.076-0.168,0.184-0.168,0.306c0,0.244,0.161,0.405,0.405,0.405c0.36,0,0.788-0.283,1.193-0.856
	c0.382-0.535,0.48-1.116,0.581-1.759l0.428-2.721H227.886z M228.023,15.834c-0.229,0-0.411,0.183-0.411,0.412
	s0.183,0.412,0.411,0.412c0.223,0,0.413-0.183,0.413-0.412S228.246,15.834,228.023,15.834 M222.707,17.508l-1.131,0.252v0.19
	l0.626,0.115l-0.634,3.127h0.649l0.474-2.584c0.467-0.429,0.871-0.627,1.132-0.627c0.291,0,0.413,0.146,0.413,0.481
	c0,0.1-0.016,0.268-0.069,0.489l-0.329,1.414c-0.038,0.168-0.061,0.313-0.061,0.413c0,0.307,0.184,0.459,0.558,0.459
	c0.214,0,0.52-0.076,0.918-0.23v-0.213c-0.176,0.045-0.314,0.068-0.421,0.068c-0.252,0-0.397-0.13-0.397-0.375
	c0-0.113,0.038-0.281,0.084-0.504l0.261-1.186c0.061-0.274,0.106-0.488,0.106-0.68c0-0.375-0.245-0.611-0.642-0.611
	c-0.406,0-0.88,0.252-1.483,0.733l0.137-0.733H222.707z"/>
</svg>
