<?xml version="1.0" encoding="iso-8859-1"?>
<!-- Generator: Adobe Illustrator 14.0.0, SVG Export Plug-In . SVG Version: 6.00 Build 43363)  -->
<!DOCTYPE svg PUBLIC "-//W3C//DTD SVG 1.1//EN" "http://www.w3.org/Graphics/SVG/1.1/DTD/svg11.dtd">
<svg version="1.1" id="Layer_1" xmlns="http://www.w3.org/2000/svg" xmlns:xlink="http://www.w3.org/1999/xlink" x="0px" y="0px"
	 width="211.843px" height="41.681px" viewBox="0 0 211.843 41.681" style="enable-background:new 0 0 211.843 41.681;"
	 xml:space="preserve">
<path d="M5.76,16.329c-0.62-0.229-1.262-0.333-1.916-0.333c-1.71,0-2.834,1.056-2.834,2.433c0,0.929,0.734,1.377,1.939,1.996
	c0.746,0.379,1.262,0.574,1.262,1.31c0,1.009-0.769,1.675-1.962,1.675c-0.425,0-0.838-0.115-1.274-0.333L0.86,22.926l0.115-1.319
	H0.378L0,23.432c0.642,0.354,1.354,0.527,2.111,0.527c1.836,0,3.11-1.056,3.11-2.455c0-0.976-0.597-1.424-1.721-1.952
	c-0.964-0.447-1.515-0.665-1.515-1.503c0-0.849,0.746-1.537,1.813-1.537c0.333,0,0.665,0.068,0.998,0.218l0.138,0.206l-0.046,1.136
	h0.505L5.76,16.329z"/>
<polygon points="8.437,21.194 6.778,21.692 6.778,22.012 7.978,21.798 7.978,25.911 7.887,26.042 7.007,26.087 7.007,26.416 
	9.568,26.416 9.568,26.094 8.743,26.056 8.651,25.942 8.651,21.194 "/>
<path d="M14.123,22.1h7.711v-0.688h-7.711V22.1z M14.123,19.622h7.711v-0.688h-7.711V19.622z"/>
<polygon points="27.304,1.559 27.809,1.559 27.809,8.378 29.139,8.378 29.139,8.837 27.304,8.837 "/>
<polygon points="31.487,0 31.487,0.218 31.86,0.247 31.917,0.333 31.303,3.517 31.212,3.597 30.844,3.632 30.844,3.85 32.055,3.85 
	32.055,3.632 31.688,3.597 31.625,3.517 32.181,0.66 33.69,3.85 34.023,3.85 34.694,0.333 34.786,0.247 35.153,0.218 35.153,0 
	33.948,0 33.948,0.218 34.315,0.247 34.373,0.333 33.845,3.052 32.474,0.143 32.474,0 "/>
<line style="fill:none;stroke:#000000;stroke-width:0.459;stroke-miterlimit:10;" x1="30.879" y1="5.188" x2="35.585" y2="5.188"/>
<path d="M32.445,9.487c1.268-1.01,1.962-1.658,1.962-2.381c0-0.648-0.453-1.084-1.193-1.084c-0.712,0-1.217,0.407-1.217,0.809
	c0,0.195,0.121,0.321,0.322,0.321c0.092,0,0.178-0.029,0.258-0.086V6.452c0.172-0.098,0.338-0.138,0.511-0.138
	c0.476,0,0.763,0.322,0.763,0.867c0,0.751-0.718,1.377-1.974,2.398V9.94h2.656V9h-0.258l-0.103,0.488H32.445z"/>
<polygon points="39.15,1.559 39.15,8.837 37.315,8.837 37.315,8.378 38.645,8.378 38.645,1.559 "/>
<polygon points="25.823,11.214 25.823,12.018 33.109,20.372 25.307,29.424 40.579,29.424 40.579,24.674 39.833,24.674 39.42,27.106 
	38.583,27.945 27.613,27.945 34.647,19.775 27.888,12.018 38.606,12.018 39.42,12.833 39.833,15.288 40.579,15.288 40.579,11.214 
	27.888,11.214 "/>
<path d="M28.284,33.414l-1.131,0.245v0.199l0.619,0.113l-0.451,2.278c-0.031,0.168-0.046,0.306-0.046,0.398
	c0,0.336,0.161,0.504,0.489,0.504c0.291,0,0.658-0.091,1.078-0.267v-0.237c-0.237,0.075-0.42,0.114-0.566,0.114
	c-0.237,0-0.366-0.1-0.366-0.299l0.022-0.19l0.551-2.859H28.284z M28.437,31.717c-0.229,0-0.413,0.183-0.413,0.412
	c0,0.237,0.184,0.413,0.413,0.413c0.222,0,0.413-0.184,0.413-0.413C28.85,31.908,28.659,31.717,28.437,31.717"/>
<path d="M29.907,35.952h5.137v-0.459h-5.137V35.952z M29.907,34.301h5.137v-0.459h-5.137V34.301z"/>
<polygon points="37.877,31.877 36.218,32.374 36.218,32.696 37.418,32.481 37.418,36.594 37.327,36.724 36.447,36.77 36.447,37.098 
	39.008,37.098 39.008,36.778 38.183,36.739 38.091,36.624 38.091,31.877 "/>
<path d="M48.38,16.696c0.356-0.069,0.562-0.298,0.562-0.597c0-0.344-0.401-0.677-0.952-0.677c-1.067,0-2.031,1.067-2.41,3.041
	l-0.872,0.356l-0.011,0.378l0.768-0.08l-0.481,3.293c-0.219,1.526-0.414,2.571-0.953,3.134l-1.193-0.311
	c-0.161,0.115-0.253,0.275-0.253,0.459c0,0.367,0.253,0.607,0.62,0.607c0.551,0,1.182-0.436,1.79-1.295
	c0.505-0.713,0.711-1.572,0.861-2.629l0.459-3.259h1.709v-0.516h-1.618c0.253-1.492,0.597-2.387,1.033-2.674L48.38,16.696z"/>
<path d="M53.597,20.517c0-3.144,0.918-4.705,2.238-4.934v-0.528c-1.905,0.229-3.213,1.997-3.213,5.462
	c0,3.465,1.308,5.231,3.213,5.462v-0.528C54.515,25.222,53.597,23.661,53.597,20.517"/>
<path d="M60.415,18.739l0.459,0.699l-0.597,3.029c-0.47,0.506-0.918,0.758-1.354,0.758c-0.665,0-0.998-0.459-0.998-1.377
	c0-1.824,0.987-3.109,2.329-3.109H60.415z M61.482,18.291l-0.229,0.252c-0.356-0.172-0.712-0.252-1.033-0.252
	c-1.136,0-2.066,0.539-2.651,1.503c-0.39,0.643-0.597,1.354-0.597,2.123c0,1.262,0.609,2.008,1.584,2.008
	c0.551,0,1.102-0.32,1.71-0.963v0.092c0,0.584,0.218,0.871,0.7,0.871c0.309,0,0.78-0.138,1.411-0.401v-0.345
	c-0.31,0.069-0.516,0.115-0.643,0.115c-0.424,0-0.619-0.16-0.619-0.527c0-0.161,0.034-0.424,0.115-0.803l0.413-2.032
	c0.172-0.849,0.321-1.4,0.436-1.641H61.482z"/>
<path d="M64.377,22.731l-1.131,0.244v0.199l0.619,0.114l-0.451,2.278c-0.031,0.168-0.046,0.306-0.046,0.398
	c0,0.336,0.161,0.504,0.489,0.504c0.291,0,0.658-0.092,1.078-0.268v-0.236c-0.237,0.075-0.42,0.113-0.566,0.113
	c-0.237,0-0.366-0.099-0.366-0.298l0.022-0.19l0.551-2.859H64.377z M64.53,21.034c-0.229,0-0.413,0.184-0.413,0.413
	c0,0.237,0.184,0.413,0.413,0.413c0.222,0,0.413-0.184,0.413-0.413C64.943,21.225,64.752,21.034,64.53,21.034"/>
<path d="M68.95,20.517c0,3.144-0.918,4.705-2.238,4.934v0.528c1.905-0.23,3.213-1.997,3.213-5.462c0-3.465-1.308-5.232-3.213-5.462
	v0.528C68.032,15.812,68.95,17.373,68.95,20.517"/>
<path d="M132.045,16.329c-0.62-0.229-1.262-0.333-1.916-0.333c-1.71,0-2.834,1.056-2.834,2.433c0,0.929,0.733,1.377,1.938,1.996
	c0.746,0.379,1.263,0.574,1.263,1.309c0,1.01-0.77,1.676-1.962,1.676c-0.426,0-0.839-0.115-1.274-0.333l-0.115-0.149l0.115-1.32
	h-0.597l-0.378,1.826c0.642,0.354,1.354,0.527,2.11,0.527c1.836,0,3.11-1.056,3.11-2.456c0-0.975-0.597-1.423-1.721-1.951
	c-0.965-0.447-1.516-0.665-1.516-1.503c0-0.849,0.746-1.537,1.813-1.537c0.333,0,0.665,0.068,0.998,0.218l0.138,0.206l-0.046,1.136
	h0.505L132.045,16.329z"/>
<path d="M133.423,25.811c1.689-1.344,2.615-2.209,2.615-3.172c0-0.863-0.604-1.444-1.591-1.444c-0.948,0-1.62,0.542-1.62,1.077
	c0,0.26,0.16,0.429,0.428,0.429c0.122,0,0.237-0.039,0.345-0.115v-0.817c0.229-0.131,0.45-0.184,0.68-0.184
	c0.635,0,1.017,0.428,1.017,1.154c0,1.001-0.956,1.835-2.63,3.195v0.481h3.54v-1.254h-0.344l-0.138,0.649H133.423z"/>
<path d="M140.408,22.1h7.711v-0.688h-7.711V22.1z M140.408,19.622h7.711v-0.688h-7.711V19.622z"/>
<polygon points="165.007,3.778 165.007,4.069 165.504,4.107 165.579,4.221 164.762,8.464 164.64,8.571 164.15,8.617 164.15,8.908 
	165.764,8.908 165.764,8.617 165.274,8.571 165.189,8.464 165.932,4.657 167.942,8.908 168.386,8.908 169.279,4.221 169.402,4.107 
	169.892,4.069 169.892,3.778 168.286,3.778 168.286,4.069 168.775,4.107 168.852,4.221 168.148,7.845 166.321,3.969 166.321,3.778 
	"/>
<polygon points="159.925,11.214 159.925,12.018 167.211,20.372 159.409,29.424 174.681,29.424 174.681,24.674 173.935,24.674 
	173.521,27.106 172.685,27.945 161.715,27.945 168.749,19.775 161.99,12.018 172.708,12.018 173.521,12.833 173.935,15.288 
	174.681,15.288 174.681,11.214 161.99,11.214 "/>
<path d="M153.041,35.457l-1.131,0.245v0.199l0.619,0.113l-0.451,2.278c-0.031,0.169-0.046,0.306-0.046,0.398
	c0,0.336,0.16,0.504,0.488,0.504c0.291,0,0.658-0.091,1.078-0.267v-0.237c-0.236,0.075-0.42,0.114-0.565,0.114
	c-0.237,0-0.366-0.1-0.366-0.299l0.021-0.19l0.552-2.859H153.041z M153.194,33.76c-0.229,0-0.413,0.183-0.413,0.412
	c0,0.237,0.184,0.414,0.413,0.414c0.222,0,0.412-0.185,0.412-0.414C153.606,33.951,153.416,33.76,153.194,33.76"/>
<path d="M154.664,37.995h5.138v-0.459h-5.138V37.995z M154.664,36.344h5.138v-0.459h-5.138V36.344z"/>
<polygon points="160.876,33.301 161.381,33.301 161.381,40.12 162.711,40.12 162.711,40.579 160.876,40.579 "/>
<polygon points="165.061,31.742 165.061,31.959 165.434,31.989 165.491,32.075 164.877,35.258 164.786,35.338 164.418,35.374 
	164.418,35.592 165.629,35.592 165.629,35.374 165.262,35.338 165.199,35.258 165.755,32.402 167.264,35.592 167.597,35.592 
	168.268,32.075 168.36,31.989 168.727,31.959 168.727,31.742 167.522,31.742 167.522,31.959 167.889,31.989 167.947,32.075 
	167.419,34.793 166.048,31.885 166.048,31.742 "/>
<line style="fill:none;stroke:#000000;stroke-width:0.459;stroke-miterlimit:10;" x1="164.452" y1="36.93" x2="169.158" y2="36.93"/>
<path d="M166.02,41.229c1.268-1.011,1.962-1.658,1.962-2.382c0-0.647-0.453-1.084-1.193-1.084c-0.712,0-1.217,0.407-1.217,0.81
	c0,0.195,0.121,0.32,0.322,0.32c0.092,0,0.178-0.029,0.258-0.086v-0.613c0.172-0.099,0.338-0.139,0.511-0.139
	c0.477,0,0.763,0.322,0.763,0.867c0,0.751-0.718,1.377-1.974,2.398v0.36h2.656v-0.94h-0.258l-0.104,0.488H166.02z"/>
<polygon points="172.724,33.301 172.724,40.579 170.888,40.579 170.888,40.12 172.218,40.12 172.218,33.301 "/>
<polygon points="175.906,37.169 175.906,39.294 176.365,39.294 176.365,37.169 178.49,37.169 178.49,36.71 176.365,36.71 
	176.365,34.585 175.906,34.585 175.906,36.71 173.781,36.71 173.781,37.169 174.011,37.169 "/>
<polygon points="181.321,33.92 179.662,34.417 179.662,34.739 180.862,34.524 180.862,38.637 180.771,38.767 179.892,38.813 
	179.892,39.141 182.452,39.141 182.452,38.821 181.627,38.782 181.535,38.667 181.535,33.92 "/>
<path d="M190.298,16.696c0.356-0.069,0.563-0.298,0.563-0.597c0-0.344-0.401-0.677-0.952-0.677c-1.067,0-2.031,1.067-2.41,3.041
	l-0.872,0.356l-0.011,0.378l0.768-0.08l-0.48,3.293c-0.219,1.526-0.414,2.571-0.953,3.134l-1.193-0.311
	c-0.16,0.115-0.253,0.275-0.253,0.459c0,0.367,0.253,0.607,0.62,0.607c0.551,0,1.183-0.436,1.79-1.295
	c0.505-0.713,0.711-1.572,0.861-2.629l0.459-3.259h1.709v-0.516h-1.618c0.253-1.492,0.597-2.387,1.033-2.674L190.298,16.696z"/>
<path d="M195.516,20.517c0-3.144,0.918-4.705,2.237-4.934v-0.528c-1.904,0.229-3.213,1.997-3.213,5.462
	c0,3.465,1.309,5.231,3.213,5.462v-0.528C196.434,25.222,195.516,23.661,195.516,20.517"/>
<path d="M202.332,18.739l0.459,0.699l-0.597,3.029c-0.471,0.506-0.918,0.758-1.354,0.758c-0.665,0-0.998-0.459-0.998-1.377
	c0-1.824,0.987-3.109,2.329-3.109H202.332z M203.398,18.291l-0.229,0.252c-0.356-0.172-0.712-0.252-1.033-0.252
	c-1.136,0-2.065,0.539-2.65,1.503c-0.391,0.643-0.598,1.354-0.598,2.123c0,1.262,0.609,2.008,1.584,2.008
	c0.551,0,1.103-0.32,1.71-0.963v0.092c0,0.585,0.219,0.871,0.7,0.871c0.31,0,0.78-0.137,1.411-0.401v-0.345
	c-0.311,0.07-0.516,0.115-0.643,0.115c-0.425,0-0.619-0.16-0.619-0.527c0-0.161,0.033-0.424,0.114-0.803l0.413-2.031
	c0.172-0.849,0.321-1.4,0.437-1.641H203.398z"/>
<path d="M206.295,22.731l-1.131,0.244v0.199l0.619,0.114l-0.451,2.278c-0.031,0.168-0.046,0.306-0.046,0.398
	c0,0.336,0.161,0.504,0.488,0.504c0.291,0,0.658-0.092,1.078-0.268v-0.236c-0.236,0.075-0.42,0.113-0.565,0.113
	c-0.237,0-0.366-0.099-0.366-0.298l0.021-0.19l0.552-2.859H206.295z M206.448,21.034c-0.229,0-0.413,0.184-0.413,0.413
	c0,0.237,0.184,0.413,0.413,0.413c0.222,0,0.413-0.184,0.413-0.413C206.861,21.225,206.67,21.034,206.448,21.034"/>
<path d="M210.867,20.517c0,3.144-0.918,4.705-2.237,4.934v0.528c1.904-0.23,3.213-1.997,3.213-5.462
	c0-3.465-1.309-5.232-3.213-5.462v0.528C209.949,15.812,210.867,17.373,210.867,20.517"/>
</svg>
