<?xml version="1.0" encoding="iso-8859-1"?>
<!-- Generator: Adobe Illustrator 14.0.0, SVG Export Plug-In . SVG Version: 6.00 Build 43363)  -->
<!DOCTYPE svg PUBLIC "-//W3C//DTD SVG 1.1//EN" "http://www.w3.org/Graphics/SVG/1.1/DTD/svg11.dtd">
<svg version="1.1" id="Layer_1" xmlns="http://www.w3.org/2000/svg" xmlns:xlink="http://www.w3.org/1999/xlink" x="0px" y="0px"
	 width="68.477px" height="25.248px" viewBox="0 0 68.477 25.248" style="enable-background:new 0 0 68.477 25.248;"
	 xml:space="preserve">
<polygon points="1.635,5.521 0.373,7.701 1.268,7.701 2.14,6.267 3.023,7.701 3.907,7.701 2.645,5.521 "/>
<path d="M0.057,14.092h3.167v-0.516L2.409,13.53l-0.172-0.172v-3.295c0.356-0.218,0.631-0.32,0.815-0.32
	c0.333,0,0.574,0.126,0.746,0.413h0.596l0.15-1.583C4.291,8.446,4.039,8.378,3.786,8.378L3.534,8.401
	c-0.471,0.332-0.93,0.722-1.343,1.17l0.046-1.17H1.686L0,8.94v0.459h0.826v3.959L0.665,13.53l-0.608,0.046V14.092z"/>
<path d="M10.37,16.136l0.436-2.278c0.367-0.252,0.642-0.405,0.918-0.405c0.374,0,0.634,0.344,0.634,0.934
	c0,0.526-0.183,1.101-0.428,1.467c-0.26,0.39-0.558,0.589-0.879,0.589C10.798,16.441,10.577,16.342,10.37,16.136 M11.111,11.06
	L9.95,11.289v0.191l0.665,0.122l-0.894,4.815c0.367,0.23,0.756,0.337,1.162,0.337c0.581,0,1.116-0.253,1.506-0.727
	c0.39-0.474,0.596-1.085,0.596-1.743c0-0.787-0.421-1.299-0.994-1.299c-0.306,0-0.68,0.191-1.131,0.573l0.328-1.796
	c0.046-0.261,0.107-0.49,0.176-0.704H11.111z M7.17,13.299l0.306,0.467l-0.398,2.019c-0.313,0.336-0.611,0.504-0.902,0.504
	c-0.443,0-0.665-0.306-0.665-0.917c0-1.216,0.658-2.072,1.552-2.072H7.17z M7.881,13.001l-0.153,0.168
	c-0.237-0.114-0.474-0.168-0.688-0.168c-0.757,0-1.376,0.359-1.766,1.001c-0.26,0.43-0.397,0.903-0.397,1.415
	c0,0.841,0.405,1.338,1.055,1.338c0.367,0,0.734-0.215,1.139-0.643v0.062c0,0.39,0.146,0.581,0.466,0.581
	c0.206,0,0.52-0.092,0.94-0.268v-0.229c-0.206,0.046-0.344,0.076-0.428,0.076c-0.283,0-0.413-0.106-0.413-0.352
	c0-0.107,0.023-0.282,0.077-0.535l0.275-1.353c0.115-0.566,0.214-0.933,0.291-1.094H7.881z"/>
<path d="M17.409,12.371h7.711v-0.688h-7.711V12.371z M17.409,9.892h7.711V9.204h-7.711V9.892z"/>
<path d="M33.221,5.714h3.167V5.198l-0.814-0.046L35.4,4.979V1.686c0.356-0.218,0.632-0.32,0.815-0.32
	c0.333,0,0.574,0.126,0.746,0.413h0.596l0.15-1.583C37.455,0.068,37.203,0,36.95,0l-0.252,0.023
	c-0.472,0.331-0.931,0.722-1.343,1.17l0.045-1.17H34.85l-1.686,0.538v0.459h0.826v3.959l-0.161,0.173l-0.608,0.046V5.714z"/>
<path d="M39.134,7.758l0.436-2.278c0.367-0.252,0.643-0.405,0.918-0.405c0.374,0,0.635,0.345,0.635,0.933
	c0,0.527-0.184,1.101-0.429,1.468c-0.26,0.39-0.558,0.589-0.879,0.589C39.563,8.063,39.341,7.964,39.134,7.758 M39.876,2.682
	L38.714,2.91v0.191l0.665,0.123l-0.895,4.816c0.367,0.229,0.757,0.336,1.162,0.336c0.581,0,1.116-0.252,1.506-0.727
	c0.391-0.474,0.597-1.086,0.597-1.743c0-0.787-0.421-1.3-0.994-1.3c-0.306,0-0.68,0.192-1.131,0.574l0.328-1.797
	c0.046-0.26,0.106-0.489,0.176-0.703H39.876z"/>
<rect x="45.272" y="2.066" width="7.803" height="0.688"/>
<path d="M55.854,5.714h3.167V5.198l-0.815-0.046l-0.172-0.173V1.686c0.355-0.218,0.631-0.32,0.814-0.32
	c0.333,0,0.574,0.126,0.746,0.413h0.597l0.149-1.583C60.088,0.068,59.836,0,59.583,0l-0.252,0.023
	c-0.471,0.331-0.93,0.722-1.343,1.17l0.046-1.17h-0.551l-1.687,0.538v0.459h0.826v3.959l-0.161,0.173l-0.607,0.046V5.714z"/>
<path d="M62.968,4.921l0.306,0.467l-0.397,2.019c-0.313,0.336-0.611,0.504-0.902,0.504c-0.443,0-0.665-0.306-0.665-0.917
	c0-1.216,0.658-2.072,1.552-2.072H62.968z M63.679,4.623l-0.153,0.168c-0.237-0.114-0.474-0.168-0.688-0.168
	c-0.758,0-1.376,0.359-1.767,1.001c-0.26,0.43-0.396,0.903-0.396,1.415c0,0.841,0.404,1.338,1.055,1.338
	c0.367,0,0.733-0.215,1.139-0.643v0.062c0,0.39,0.146,0.581,0.467,0.581c0.206,0,0.52-0.092,0.939-0.268V7.88
	c-0.206,0.045-0.344,0.076-0.428,0.076c-0.283,0-0.413-0.106-0.413-0.352c0-0.107,0.023-0.282,0.077-0.535l0.274-1.354
	C63.9,5.15,64,4.784,64.076,4.623H63.679z"/>
<line style="fill:none;stroke:#000000;stroke-width:0.689;stroke-miterlimit:10;" x1="29.663" y1="10.775" x2="68.477" y2="10.775"/>
<rect x="30.925" y="13.818" width="0.689" height="10.924"/>
<path d="M33.221,22.585h3.167v-0.516l-0.814-0.046l-0.172-0.173v-3.294c0.356-0.218,0.631-0.32,0.814-0.32
	c0.333,0,0.574,0.126,0.746,0.413h0.597l0.149-1.583c-0.253-0.126-0.505-0.195-0.758-0.195l-0.252,0.022
	c-0.471,0.332-0.931,0.724-1.343,1.17l0.046-1.17H34.85l-1.686,0.539v0.459h0.826v3.959l-0.161,0.173l-0.608,0.046V22.585"/>
<path d="M39.134,24.629l0.436-2.278c0.367-0.252,0.643-0.405,0.917-0.405c0.375,0,0.636,0.345,0.636,0.933
	c0,0.527-0.184,1.101-0.429,1.468c-0.26,0.39-0.558,0.589-0.879,0.589C39.563,24.935,39.341,24.835,39.134,24.629 M39.876,19.553
	l-1.162,0.229v0.192l0.665,0.122l-0.895,4.815c0.367,0.229,0.757,0.336,1.162,0.336c0.581,0,1.116-0.252,1.506-0.726
	c0.391-0.474,0.597-1.086,0.597-1.743c0-0.787-0.42-1.3-0.994-1.3c-0.307,0-0.681,0.191-1.131,0.574l0.329-1.797
	c0.045-0.261,0.105-0.489,0.175-0.703H39.876"/>
<rect x="45.273" y="18.936" width="7.803" height="0.689"/>
<path d="M55.854,22.585h3.167v-0.516l-0.815-0.046l-0.172-0.173v-3.294c0.355-0.218,0.631-0.32,0.814-0.32
	c0.333,0,0.574,0.126,0.746,0.413h0.597l0.149-1.583c-0.253-0.128-0.505-0.195-0.758-0.195l-0.252,0.022
	c-0.471,0.332-0.93,0.723-1.343,1.17l0.046-1.17h-0.551l-1.687,0.539v0.459h0.826v3.959l-0.161,0.173l-0.607,0.046V22.585z"/>
<path d="M62.968,21.792l0.306,0.466l-0.397,2.02c-0.313,0.336-0.611,0.504-0.902,0.504c-0.443,0-0.665-0.306-0.665-0.917
	c0-1.216,0.658-2.072,1.552-2.072H62.968z M63.679,21.494l-0.153,0.168c-0.237-0.115-0.474-0.168-0.688-0.168
	c-0.758,0-1.376,0.359-1.767,1.001c-0.26,0.429-0.396,0.903-0.396,1.415c0,0.841,0.404,1.338,1.055,1.338
	c0.367,0,0.733-0.215,1.139-0.643v0.062c0,0.39,0.146,0.581,0.467,0.581c0.206,0,0.52-0.092,0.939-0.268v-0.229
	c-0.206,0.045-0.344,0.076-0.428,0.076c-0.283,0-0.413-0.106-0.413-0.352c0-0.107,0.023-0.282,0.077-0.535l0.274-1.354
	c0.115-0.565,0.215-0.932,0.291-1.093H63.679z"/>
<rect x="66.514" y="13.818" width="0.688" height="10.924"/>
</svg>
