<?xml version="1.0" encoding="UTF-8" standalone="no"?>
<!-- Created with Inkscape (http://www.inkscape.org/) -->

<svg
   xmlns:dc="http://purl.org/dc/elements/1.1/"
   xmlns:cc="http://creativecommons.org/ns#"
   xmlns:rdf="http://www.w3.org/1999/02/22-rdf-syntax-ns#"
   xmlns:svg="http://www.w3.org/2000/svg"
   xmlns="http://www.w3.org/2000/svg"
   xmlns:sodipodi="http://sodipodi.sourceforge.net/DTD/sodipodi-0.dtd"
   xmlns:inkscape="http://www.inkscape.org/namespaces/inkscape"
   version="1.1"
   id="svg10"
   xml:space="preserve"
   width="719.33331"
   height="277.33334"
   viewBox="0 0 719.33331 277.33334"
   sodipodi:docname="circuit.svg"
   inkscape:version="0.92.3 (2405546, 2018-03-11)"><metadata
     id="metadata16"><rdf:RDF><cc:Work
         rdf:about=""><dc:format>image/svg+xml</dc:format><dc:type
           rdf:resource="http://purl.org/dc/dcmitype/StillImage" /><dc:title></dc:title></cc:Work></rdf:RDF></metadata><defs
     id="defs14"><clipPath
       clipPathUnits="userSpaceOnUse"
       id="clipPath38"><path
         d="M 0,208 H 539.5 V 0 H 0 Z"
         id="path36"
         inkscape:connector-curvature="0" /></clipPath><clipPath
       clipPathUnits="userSpaceOnUse"
       id="clipPath58"><path
         d="M 0,208 H 539.5 V 0 H 0 Z"
         id="path56"
         inkscape:connector-curvature="0" /></clipPath><clipPath
       clipPathUnits="userSpaceOnUse"
       id="clipPath90"><path
         d="M 0,208 H 539.5 V 0 H 0 Z"
         id="path88"
         inkscape:connector-curvature="0" /></clipPath><clipPath
       clipPathUnits="userSpaceOnUse"
       id="clipPath108"><path
         d="M 0,208 H 539.5 V 0 H 0 Z"
         id="path106"
         inkscape:connector-curvature="0" /></clipPath><clipPath
       clipPathUnits="userSpaceOnUse"
       id="clipPath128"><path
         d="M 0,208 H 539.5 V 0 H 0 Z"
         id="path126"
         inkscape:connector-curvature="0" /></clipPath><clipPath
       clipPathUnits="userSpaceOnUse"
       id="clipPath164"><path
         d="M 0,208 H 539.5 V 0 H 0 Z"
         id="path162"
         inkscape:connector-curvature="0" /></clipPath></defs><sodipodi:namedview
     pagecolor="#ffffff"
     bordercolor="#666666"
     borderopacity="1"
     objecttolerance="10"
     gridtolerance="10"
     guidetolerance="10"
     inkscape:pageopacity="0"
     inkscape:pageshadow="2"
     inkscape:window-width="2560"
     inkscape:window-height="1377"
     id="namedview12"
     showgrid="false"
     inkscape:zoom="2.8693235"
     inkscape:cx="359.66666"
     inkscape:cy="138.66667"
     inkscape:window-x="-8"
     inkscape:window-y="-8"
     inkscape:window-maximized="1"
     inkscape:current-layer="g18" /><g
     id="g18"
     inkscape:groupmode="layer"
     inkscape:label="circuit"
     transform="matrix(1.3333333,0,0,-1.3333333,0,277.33333)"><g
       id="g20"
       transform="translate(12.5508,83.8516)"><path
         d="M 0,0 57.359,-28.681 0,-57.361 Z"
         style="fill:none;stroke:#231f20;stroke-width:1.5;stroke-linecap:round;stroke-linejoin:miter;stroke-miterlimit:10;stroke-dasharray:none;stroke-opacity:1"
         id="path22"
         inkscape:connector-curvature="0" /></g><g
       id="g24"
       transform="translate(12.3105,195.4512)"><path
         d="M 0,0 57.359,-28.68 0,-57.36 Z"
         style="fill:none;stroke:#231f20;stroke-width:1.5;stroke-linecap:round;stroke-linejoin:miter;stroke-miterlimit:10;stroke-dasharray:none;stroke-opacity:1"
         id="path26"
         inkscape:connector-curvature="0" /></g><g
       id="g28"
       transform="translate(101.5898,140.8516)"><path
         d="M 0,0 H 51.841"
         style="fill:none;stroke:#231f20;stroke-width:1.5;stroke-linecap:round;stroke-linejoin:round;stroke-miterlimit:10;stroke-dasharray:none;stroke-opacity:1"
         id="path30"
         inkscape:connector-curvature="0" /></g><g
       id="g32"><g
         id="g34"
         clip-path="url(#clipPath38)"><g
           id="g40"
           transform="translate(161.2305,127.8906)"><path
             d="M 0,0 H -41.46 V 51.84 H 0 C 14.34,51.84 25.92,40.2 25.92,25.92 25.92,11.58 14.34,0 0,0"
             style="fill:#ffffff;fill-opacity:1;fill-rule:nonzero;stroke:none"
             id="path42"
             inkscape:connector-curvature="0" /></g><g
           id="g44"
           transform="translate(161.2305,127.8906)"><path
             d="M 0,0 H -41.46 V 51.84 H 0 C 14.34,51.84 25.92,40.2 25.92,25.92 25.92,11.58 14.34,0 0,0 Z"
             style="fill:none;stroke:#000000;stroke-width:1.5;stroke-linecap:round;stroke-linejoin:round;stroke-miterlimit:10;stroke-dasharray:none;stroke-opacity:1"
             id="path46"
             inkscape:connector-curvature="0" /></g></g></g><text
       transform="matrix(1,0,0,-1,138.7705,112.0713)"
       style="font-variant:normal;font-weight:normal;font-stretch:normal;font-size:11px;font-family:'Noto Serif';-inkscape-font-specification:NotoSerif;writing-mode:lr-tb;fill:#000000;fill-opacity:1;fill-rule:nonzero;stroke:none"
       id="text50"><tspan
         x="0 7.7550001 16.148001"
         y="0"
         sodipodi:role="line"
         id="tspan48">AND</tspan></text>
<g
       id="g52"><g
         id="g54"
         clip-path="url(#clipPath58)"><g
           id="g60"
           transform="translate(213.9102,127.7715)"><path
             d="M 0,0 H 52.2"
             style="fill:none;stroke:#231f20;stroke-width:1.5;stroke-linecap:round;stroke-linejoin:round;stroke-miterlimit:10;stroke-dasharray:none;stroke-opacity:1"
             id="path62"
             inkscape:connector-curvature="0" /></g><g
           id="g64"
           transform="translate(318.3105,140.8516)"><path
             d="M 0,0 H -52.2"
             style="fill:none;stroke:#231f20;stroke-width:1.5;stroke-linecap:round;stroke-linejoin:round;stroke-miterlimit:10;stroke-dasharray:none;stroke-opacity:1"
             id="path66"
             inkscape:connector-curvature="0" /></g><g
           id="g68"
           transform="translate(300.0703,140.791)"><path
             d="m 0,0 c -8.1,-12.84 -23,-26.04 -47.52,-26.04 h -20.34 c 12.6,16.5 12.6,35.64 0,52.2 h 20.34 C -20.965,26.16 -7.98,12.96 0,0"
             style="fill:#ffffff;fill-opacity:1;fill-rule:evenodd;stroke:#231f20;stroke-width:1.5;stroke-linecap:butt;stroke-linejoin:miter;stroke-miterlimit:4;stroke-dasharray:none;stroke-opacity:1"
             id="path70"
             inkscape:connector-curvature="0" /></g><g
           id="g72"
           transform="translate(232.21,114.751)"><path
             d="M 0,0 C 12.601,16.5 12.601,35.64 0,52.2"
             style="fill:none;stroke:#231f20;stroke-width:1.5;stroke-linecap:round;stroke-linejoin:round;stroke-miterlimit:10;stroke-dasharray:none;stroke-opacity:1"
             id="path74"
             inkscape:connector-curvature="0" /></g><g
           id="g76"
           transform="translate(225.4307,114.751)"><path
             d="M 0,0 C 12.6,16.5 12.6,35.64 0,52.2"
             style="fill:none;stroke:#231f20;stroke-width:1.5;stroke-linecap:round;stroke-linejoin:round;stroke-miterlimit:10;stroke-dasharray:none;stroke-opacity:1"
             id="path78"
             inkscape:connector-curvature="0" /></g></g></g><text
       transform="matrix(1,0,0,-1,250.0898,99.9297)"
       style="font-variant:normal;font-weight:normal;font-stretch:normal;font-size:11px;font-family:'Noto Serif';-inkscape-font-specification:NotoSerif;writing-mode:lr-tb;fill:#000000;fill-opacity:1;fill-rule:nonzero;stroke:none"
       id="text82"><tspan
         x="0 7.2930002 15.433"
         y="0"
         sodipodi:role="line"
         id="tspan80">XOR</tspan></text>
<g
       id="g84"><g
         id="g86"
         clip-path="url(#clipPath90)"><g
           id="g92"
           transform="translate(333.4307,169.4111)"><path
             d="M 0,0 57.12,-28.56 0,-57.181 Z"
             style="fill:none;stroke:#231f20;stroke-width:1.5;stroke-linecap:round;stroke-linejoin:miter;stroke-miterlimit:10;stroke-dasharray:none;stroke-opacity:1"
             id="path94"
             inkscape:connector-curvature="0" /></g></g></g><text
       transform="matrix(1,0,0,-1,349.3306,99.4707)"
       style="font-variant:normal;font-weight:normal;font-stretch:normal;font-size:11px;font-family:'Noto Serif';-inkscape-font-specification:NotoSerif;writing-mode:lr-tb;fill:#000000;fill-opacity:1;fill-rule:nonzero;stroke:none"
       id="text100"><tspan
         x="0 8.3929996 16.555"
         y="0"
         sodipodi:role="line"
         id="tspan96">NOT</tspan><tspan
         x="-324.66501 -320.793 -315.612 -308.62701"
         y="-26.796"
         sodipodi:role="line"
         id="tspan98">true</tspan></text>
<g
       id="g102"><g
         id="g104"
         clip-path="url(#clipPath108)"><g
           id="g110"
           transform="translate(431.0503,140.8516)"><path
             d="M 0,0 V 16.619 H 66.6 L 99.9,0 66.6,-16.681 H 0 Z"
             style="fill:#ffffff;fill-opacity:1;fill-rule:evenodd;stroke:none"
             id="path112"
             inkscape:connector-curvature="0" /></g><g
           id="g114"
           transform="translate(431.0503,140.8516)"><path
             d="M 0,0 V 16.619 H 66.6 L 99.9,0 66.6,-16.681 H 0 V 0"
             style="fill:none;stroke:#231f20;stroke-width:1.5;stroke-linecap:butt;stroke-linejoin:miter;stroke-miterlimit:4;stroke-dasharray:none;stroke-opacity:1"
             id="path116"
             inkscape:connector-curvature="0" /></g></g></g><text
       transform="matrix(1,0,0,-1,453.3306,168.0908)"
       style="font-variant:normal;font-weight:normal;font-stretch:normal;font-size:11px;font-family:'Noto Serif';-inkscape-font-specification:NotoSerif;writing-mode:lr-tb;fill:#000000;fill-opacity:1;fill-rule:nonzero;stroke:none"
       id="text120"><tspan
         x="0 8.1619997 16.049 22.792 29.436001 37.323002 44.055 46.937"
         y="0"
         sodipodi:role="line"
         id="tspan118">OUTPUT 1</tspan></text>
<g
       id="g122"><g
         id="g124"
         clip-path="url(#clipPath128)"><g
           id="g130"
           transform="translate(69.6699,166.7715)"><path
             d="M 0,0 H 50.101"
             style="fill:none;stroke:#231f20;stroke-width:1.5;stroke-linecap:round;stroke-linejoin:round;stroke-miterlimit:10;stroke-dasharray:none;stroke-opacity:1"
             id="path132"
             inkscape:connector-curvature="0" /></g><g
           id="g134"
           transform="translate(69.9102,55.1709)"><path
             d="M 0,0 H 54"
             style="fill:none;stroke:#231f20;stroke-width:1.5;stroke-linecap:round;stroke-linejoin:round;stroke-miterlimit:10;stroke-dasharray:none;stroke-opacity:1"
             id="path136"
             inkscape:connector-curvature="0" /></g><g
           id="g138"
           transform="translate(101.5898,55.1709)"><path
             d="M 0,0 V 85.681"
             style="fill:none;stroke:#231f20;stroke-width:1.5;stroke-linecap:round;stroke-linejoin:round;stroke-miterlimit:10;stroke-dasharray:none;stroke-opacity:1"
             id="path140"
             inkscape:connector-curvature="0" /></g><g
           id="g142"
           transform="translate(123.9102,55.1709)"><path
             d="M 0,0 H 90 V 72.601"
             style="fill:none;stroke:#231f20;stroke-width:1.5;stroke-linecap:round;stroke-linejoin:round;stroke-miterlimit:10;stroke-dasharray:none;stroke-opacity:1"
             id="path144"
             inkscape:connector-curvature="0" /></g><g
           id="g146"
           transform="translate(318.3105,140.8516)"><path
             d="M 0,0 H 15.12"
             style="fill:none;stroke:#231f20;stroke-width:1.5;stroke-linecap:round;stroke-linejoin:round;stroke-miterlimit:10;stroke-dasharray:none;stroke-opacity:1"
             id="path148"
             inkscape:connector-curvature="0" /></g><g
           id="g150"
           transform="translate(399.1304,140.8516)"><path
             d="M 0,0 H 31.92"
             style="fill:none;stroke:#231f20;stroke-width:1.5;stroke-linecap:round;stroke-linejoin:round;stroke-miterlimit:10;stroke-dasharray:none;stroke-opacity:1"
             id="path152"
             inkscape:connector-curvature="0" /></g></g></g><text
       transform="matrix(1,0,0,-1,22.2114,14.6709)"
       style="font-variant:normal;font-weight:normal;font-stretch:normal;font-size:11px;font-family:'Noto Serif';-inkscape-font-specification:NotoSerif;writing-mode:lr-tb;fill:#000000;fill-opacity:1;fill-rule:nonzero;stroke:none"
       id="text156"><tspan
         x="0 4.059 10.252 13.662 18.622999"
         y="0"
         sodipodi:role="line"
         id="tspan154">false</tspan></text>
<g
       id="g158"><g
         id="g160"
         clip-path="url(#clipPath164)"><g
           id="g166"
           transform="translate(390.5503,140.8516)"><path
             d="M 0,0 C 0,-2.4 1.92,-4.32 4.32,-4.32 6.66,-4.32 8.58,-2.4 8.58,0 8.58,2.34 6.66,4.26 4.32,4.26 1.92,4.26 0,2.34 0,0 Z"
             style="fill:none;stroke:#231f20;stroke-width:1.5;stroke-linecap:round;stroke-linejoin:round;stroke-miterlimit:10;stroke-dasharray:none;stroke-opacity:1"
             id="path168"
             inkscape:connector-curvature="0" /></g><g
           id="g170"
           transform="translate(187.1504,153.8105)"><path
             d="M 0,0 H 52.257"
             style="fill:none;stroke:#231f20;stroke-width:1.5;stroke-linecap:butt;stroke-linejoin:miter;stroke-miterlimit:4;stroke-dasharray:none;stroke-opacity:1"
             id="path172"
             inkscape:connector-curvature="0" /></g><g
           id="g174"
           transform="translate(431.0503,140.8516)"><path
             d="M 0,0 V 16.619 H 66.6 L 99.9,0 66.6,-16.681 H 0 Z"
             style="fill:#ffffff;fill-opacity:1;fill-rule:nonzero;stroke:none"
             id="path176"
             inkscape:connector-curvature="0" /></g><g
           id="g178"
           transform="translate(431.0503,140.8516)"><path
             d="M 0,0 V 16.619 H 66.6 L 99.9,0 66.6,-16.681 H 0 Z"
             style="fill:none;stroke:#231f20;stroke-width:1.5;stroke-linecap:round;stroke-linejoin:round;stroke-miterlimit:10;stroke-dasharray:none;stroke-opacity:1"
             id="path180"
             inkscape:connector-curvature="0" /></g><g
           id="g182"
           transform="translate(390.5503,140.8516)"><path
             d="M 0,0 C 0,-2.4 1.92,-4.32 4.32,-4.32 6.66,-4.32 8.58,-2.4 8.58,0 8.58,2.34 6.66,4.26 4.32,4.26 1.92,4.26 0,2.34 0,0"
             style="fill:#ffffff;fill-opacity:1;fill-rule:evenodd;stroke:none"
             id="path184"
             inkscape:connector-curvature="0" /></g><g
           id="g186"
           transform="translate(390.5503,140.8516)"><path
             d="M 0,0 C 0,-2.4 1.92,-4.32 4.32,-4.32 6.66,-4.32 8.58,-2.4 8.58,0 8.58,2.34 6.66,4.26 4.32,4.26 1.92,4.26 0,2.34 0,0 Z"
             style="fill:none;stroke:#231f20;stroke-width:1.5;stroke-linecap:butt;stroke-linejoin:round;stroke-miterlimit:4;stroke-dasharray:none;stroke-opacity:1"
             id="path188"
             inkscape:connector-curvature="0" /></g></g></g></g></svg>