<?xml version="1.0" encoding="UTF-8" standalone="no"?>
<!-- Created with Inkscape (http://www.inkscape.org/) -->

<svg
   xmlns:dc="http://purl.org/dc/elements/1.1/"
   xmlns:cc="http://creativecommons.org/ns#"
   xmlns:rdf="http://www.w3.org/1999/02/22-rdf-syntax-ns#"
   xmlns:svg="http://www.w3.org/2000/svg"
   xmlns="http://www.w3.org/2000/svg"
   xmlns:sodipodi="http://sodipodi.sourceforge.net/DTD/sodipodi-0.dtd"
   xmlns:inkscape="http://www.inkscape.org/namespaces/inkscape"
   version="1.1"
   id="svg190"
   xml:space="preserve"
   width="1080"
   height="426.66666"
   viewBox="0 0 1080 426.66666"
   sodipodi:docname="gates.svg"
   inkscape:version="0.92.3 (2405546, 2018-03-11)"><metadata
     id="metadata196"><rdf:RDF><cc:Work
         rdf:about=""><dc:format>image/svg+xml</dc:format><dc:type
           rdf:resource="http://purl.org/dc/dcmitype/StillImage" /><dc:title></dc:title></cc:Work></rdf:RDF></metadata><defs
     id="defs194" /><sodipodi:namedview
     pagecolor="#ffffff"
     bordercolor="#666666"
     borderopacity="1"
     objecttolerance="10"
     gridtolerance="10"
     guidetolerance="10"
     inkscape:pageopacity="0"
     inkscape:pageshadow="2"
     inkscape:window-width="2560"
     inkscape:window-height="1377"
     id="namedview192"
     showgrid="false"
     inkscape:zoom="1.5189701"
     inkscape:cx="464.82256"
     inkscape:cy="208.33501"
     inkscape:window-x="-8"
     inkscape:window-y="-8"
     inkscape:window-maximized="1"
     inkscape:current-layer="g198" /><g
     id="g198"
     inkscape:groupmode="layer"
     inkscape:label="gates"
     transform="matrix(1.3333333,0,0,-1.3333333,0,426.66667)"><path
       d="M 480,230 H 330 v 50 h 150 z"
       style="fill:#dcd5ee;fill-opacity:1;fill-rule:nonzero;stroke:#231f20;stroke-width:1;stroke-linecap:butt;stroke-linejoin:miter;stroke-miterlimit:4;stroke-dasharray:none;stroke-opacity:1"
       id="path200"
       inkscape:connector-curvature="0" /><text
       transform="matrix(1,0,0,-1,390.5981,258.9238)"
       style="font-variant:normal;font-weight:bold;font-stretch:normal;font-size:12px;font-family:'Courier New';-inkscape-font-specification:CourierNewPS-BoldMT;writing-mode:lr-tb;fill:#231f20;fill-opacity:1;fill-rule:nonzero;stroke:none"
       id="text204"><tspan
         x="0 7.1999998 14.4 21.6"
         y="0"
         sodipodi:role="line"
         id="tspan202">Gate</tspan></text>
<text
       transform="matrix(1,0,0,-1,369.9888,245.7236)"
       style="font-variant:normal;font-weight:normal;font-stretch:normal;font-size:11px;font-family:'Noto Serif';-inkscape-font-specification:NotoSerif;writing-mode:lr-tb;fill:#231f20;fill-opacity:1;fill-rule:nonzero;stroke:none"
       id="text208"><tspan
         x="0 6.1929998 12.947 17.908001 21.780001 26.740999 32.933998 38.346001 42.217999 45.077999 50.490002 53.900002 60.092999 65.054001"
         y="0"
         sodipodi:role="line"
         id="tspan206">abstract class</tspan></text>
<path
       d="M 800,260 H 650 v 50 h 150 z"
       style="fill:#e3f6f8;fill-opacity:1;fill-rule:nonzero;stroke:#231f20;stroke-width:1;stroke-linecap:butt;stroke-linejoin:miter;stroke-miterlimit:4;stroke-dasharray:none;stroke-opacity:1"
       id="path210"
       inkscape:connector-curvature="0" /><text
       transform="matrix(1,0,0,-1,710.5981,288.9248)"
       style="font-variant:normal;font-weight:bold;font-stretch:normal;font-size:12px;font-family:'Courier New';-inkscape-font-specification:CourierNewPS-BoldMT;writing-mode:lr-tb;fill:#231f20;fill-opacity:1;fill-rule:nonzero;stroke:none"
       id="text214"><tspan
         x="0 7.1999998 14.4 21.6"
         y="0"
         sodipodi:role="line"
         id="tspan212">True</tspan></text>
<text
       transform="matrix(1,0,0,-1,712.5288,275.7246)"
       style="font-variant:normal;font-weight:normal;font-stretch:normal;font-size:11px;font-family:'Noto Serif';-inkscape-font-specification:NotoSerif;writing-mode:lr-tb;fill:#231f20;fill-opacity:1;fill-rule:nonzero;stroke:none"
       id="text218"><tspan
         x="0 5.4120002 8.8219995 15.015 19.976"
         y="0"
         sodipodi:role="line"
         id="tspan216">class</tspan></text>
<path
       d="M 800,200 H 650 v 50 h 150 z"
       style="fill:#e3f6f8;fill-opacity:1;fill-rule:nonzero;stroke:#231f20;stroke-width:1;stroke-linecap:butt;stroke-linejoin:miter;stroke-miterlimit:4;stroke-dasharray:none;stroke-opacity:1"
       id="path220"
       inkscape:connector-curvature="0" /><text
       transform="matrix(1,0,0,-1,706.9976,228.9248)"
       style="font-variant:normal;font-weight:bold;font-stretch:normal;font-size:12px;font-family:'Courier New';-inkscape-font-specification:CourierNewPS-BoldMT;writing-mode:lr-tb;fill:#231f20;fill-opacity:1;fill-rule:nonzero;stroke:none"
       id="text224"><tspan
         x="0 7.1999998 14.4 21.6 28.799999"
         y="0"
         sodipodi:role="line"
         id="tspan222">False</tspan></text>
<text
       transform="matrix(1,0,0,-1,712.5288,215.7246)"
       style="font-variant:normal;font-weight:normal;font-stretch:normal;font-size:11px;font-family:'Noto Serif';-inkscape-font-specification:NotoSerif;writing-mode:lr-tb;fill:#231f20;fill-opacity:1;fill-rule:nonzero;stroke:none"
       id="text228"><tspan
         x="0 5.4120002 8.8219995 15.015 19.976"
         y="0"
         sodipodi:role="line"
         id="tspan226">class</tspan></text>
<path
       d="M 240,110 H 90 v 50 h 150 z"
       style="fill:#dcd5ee;fill-opacity:1;fill-rule:nonzero;stroke:#231f20;stroke-width:1;stroke-linecap:butt;stroke-linejoin:miter;stroke-miterlimit:4;stroke-dasharray:none;stroke-opacity:1"
       id="path230"
       inkscape:connector-curvature="0" /><text
       transform="matrix(1,0,0,-1,118.1924,138.9248)"
       style="font-variant:normal;font-weight:bold;font-stretch:normal;font-size:12px;font-family:'Courier New';-inkscape-font-specification:CourierNewPS-BoldMT;writing-mode:lr-tb;fill:#231f20;fill-opacity:1;fill-rule:nonzero;stroke:none"
       id="text234"><tspan
         x="0 7.1999998 14.4 21.6 28.799999 36 43.200001 50.400002 57.599998 64.800003 72 79.199997 86.400002"
         y="0"
         sodipodi:role="line"
         id="tspan232">UnaryOperator</tspan></text>
<text
       transform="matrix(1,0,0,-1,129.9883,125.7246)"
       style="font-variant:normal;font-weight:normal;font-stretch:normal;font-size:11px;font-family:'Noto Serif';-inkscape-font-specification:NotoSerif;writing-mode:lr-tb;fill:#231f20;fill-opacity:1;fill-rule:nonzero;stroke:none"
       id="text238"><tspan
         x="0 6.1929998 12.947 17.908001 21.780001 26.740999 32.933998 38.346001 42.217999 45.077999 50.490002 53.900002 60.092999 65.054001"
         y="0"
         sodipodi:role="line"
         id="tspan236">abstract class</tspan></text>
<path
       d="M 480,110 H 330 v 50 h 150 z"
       style="fill:#dcd5ee;fill-opacity:1;fill-rule:nonzero;stroke:#231f20;stroke-width:1;stroke-linecap:butt;stroke-linejoin:miter;stroke-miterlimit:4;stroke-dasharray:none;stroke-opacity:1"
       id="path240"
       inkscape:connector-curvature="0" /><text
       transform="matrix(1,0,0,-1,359.3208,138.9248)"
       style="font-variant:normal;font-weight:bold;font-stretch:normal;font-size:12px;font-family:'Courier New';-inkscape-font-specification:CourierNewPS-BoldMT;writing-mode:lr-tb;fill:#231f20;fill-opacity:1;fill-rule:nonzero;stroke:none"
       id="text244"><tspan
         x="0 7.1999998 14.4 21.6 28.799999 36 43.200001 50.400002 57.599998 64.800003 72 79.199997 86.400002 93.599998"
         y="0"
         sodipodi:role="line"
         id="tspan242">BinaryOperator</tspan></text>
<text
       transform="matrix(1,0,0,-1,374.7173,125.7246)"
       style="font-variant:normal;font-weight:normal;font-stretch:normal;font-size:11px;font-family:'Noto Serif';-inkscape-font-specification:NotoSerif;writing-mode:lr-tb;fill:#231f20;fill-opacity:1;fill-rule:nonzero;stroke:none"
       id="text248"><tspan
         x="0 6.1929998 12.947 17.908001 21.780001 26.740999 32.933998 38.346001 42.217999 45.077999 50.490002 53.900002 60.092999 65.054001"
         y="0"
         sodipodi:role="line"
         id="tspan246">abstract class</tspan></text>
<path
       d="M 320,10 H 170 v 50 h 150 z"
       style="fill:#e3f6f8;fill-opacity:1;fill-rule:nonzero;stroke:#231f20;stroke-width:1;stroke-linecap:butt;stroke-linejoin:miter;stroke-miterlimit:4;stroke-dasharray:none;stroke-opacity:1"
       id="path250"
       inkscape:connector-curvature="0" /><text
       transform="matrix(1,0,0,-1,234.1987,38.9238)"
       style="font-variant:normal;font-weight:bold;font-stretch:normal;font-size:12px;font-family:'Courier New';-inkscape-font-specification:CourierNewPS-BoldMT;writing-mode:lr-tb;fill:#231f20;fill-opacity:1;fill-rule:nonzero;stroke:none"
       id="text254"><tspan
         x="0 7.1999998 14.4"
         y="0"
         sodipodi:role="line"
         id="tspan252">Not</tspan></text>
<text
       transform="matrix(1,0,0,-1,232.5288,25.7236)"
       style="font-variant:normal;font-weight:normal;font-stretch:normal;font-size:11px;font-family:'Noto Serif';-inkscape-font-specification:NotoSerif;writing-mode:lr-tb;fill:#231f20;fill-opacity:1;fill-rule:nonzero;stroke:none"
       id="text258"><tspan
         x="0 5.4120002 8.8219995 15.015 19.976"
         y="0"
         sodipodi:role="line"
         id="tspan256">class</tspan></text>
<path
       d="M 160,10 H 10 v 50 h 150 z"
       style="fill:#e3f6f8;fill-opacity:1;fill-rule:nonzero;stroke:#231f20;stroke-width:1;stroke-linecap:butt;stroke-linejoin:miter;stroke-miterlimit:4;stroke-dasharray:none;stroke-opacity:1"
       id="path260"
       inkscape:connector-curvature="0" /><text
       transform="matrix(1,0,0,-1,63.397,38.9238)"
       style="font-variant:normal;font-weight:bold;font-stretch:normal;font-size:12px;font-family:'Courier New';-inkscape-font-specification:CourierNewPS-BoldMT;writing-mode:lr-tb;fill:#231f20;fill-opacity:1;fill-rule:nonzero;stroke:none"
       id="text264"><tspan
         x="0 7.1999998 14.4 21.6 28.799999 36"
         y="0"
         sodipodi:role="line"
         id="tspan262">Output</tspan></text>
<text
       transform="matrix(1,0,0,-1,72.5288,25.7236)"
       style="font-variant:normal;font-weight:normal;font-stretch:normal;font-size:11px;font-family:'Noto Serif';-inkscape-font-specification:NotoSerif;writing-mode:lr-tb;fill:#231f20;fill-opacity:1;fill-rule:nonzero;stroke:none"
       id="text268"><tspan
         x="0 5.4120002 8.8219995 15.015 19.976"
         y="0"
         sodipodi:role="line"
         id="tspan266">class</tspan></text>
<path
       d="M 640,10 H 490 v 50 h 150 z"
       style="fill:#e3f6f8;fill-opacity:1;fill-rule:nonzero;stroke:#231f20;stroke-width:1;stroke-linecap:butt;stroke-linejoin:miter;stroke-miterlimit:4;stroke-dasharray:none;stroke-opacity:1"
       id="path270"
       inkscape:connector-curvature="0" /><text
       transform="matrix(1,0,0,-1,557.7993,38.9238)"
       style="font-variant:normal;font-weight:bold;font-stretch:normal;font-size:12px;font-family:'Courier New';-inkscape-font-specification:CourierNewPS-BoldMT;writing-mode:lr-tb;fill:#231f20;fill-opacity:1;fill-rule:nonzero;stroke:none"
       id="text274"><tspan
         x="0 7.1999998"
         y="0"
         sodipodi:role="line"
         id="tspan272">Or</tspan></text>
<text
       transform="matrix(1,0,0,-1,552.5288,25.7236)"
       style="font-variant:normal;font-weight:normal;font-stretch:normal;font-size:11px;font-family:'Noto Serif';-inkscape-font-specification:NotoSerif;writing-mode:lr-tb;fill:#231f20;fill-opacity:1;fill-rule:nonzero;stroke:none"
       id="text278"><tspan
         x="0 5.4120002 8.8219995 15.015 19.976"
         y="0"
         sodipodi:role="line"
         id="tspan276">class</tspan></text>
<path
       d="M 480,10 H 330 v 50 h 150 z"
       style="fill:#e3f6f8;fill-opacity:1;fill-rule:nonzero;stroke:#231f20;stroke-width:1;stroke-linecap:butt;stroke-linejoin:miter;stroke-miterlimit:4;stroke-dasharray:none;stroke-opacity:1"
       id="path280"
       inkscape:connector-curvature="0" /><text
       transform="matrix(1,0,0,-1,394.1987,38.9238)"
       style="font-variant:normal;font-weight:bold;font-stretch:normal;font-size:12px;font-family:'Courier New';-inkscape-font-specification:CourierNewPS-BoldMT;writing-mode:lr-tb;fill:#231f20;fill-opacity:1;fill-rule:nonzero;stroke:none"
       id="text284"><tspan
         x="0 7.1999998 14.4"
         y="0"
         sodipodi:role="line"
         id="tspan282">And</tspan></text>
<text
       transform="matrix(1,0,0,-1,392.5288,25.7236)"
       style="font-variant:normal;font-weight:normal;font-stretch:normal;font-size:11px;font-family:'Noto Serif';-inkscape-font-specification:NotoSerif;writing-mode:lr-tb;fill:#231f20;fill-opacity:1;fill-rule:nonzero;stroke:none"
       id="text288"><tspan
         x="0 5.4120002 8.8219995 15.015 19.976"
         y="0"
         sodipodi:role="line"
         id="tspan286">class</tspan></text>
<path
       d="M 800,10 H 650 v 50 h 150 z"
       style="fill:#e3f6f8;fill-opacity:1;fill-rule:nonzero;stroke:#231f20;stroke-width:1;stroke-linecap:butt;stroke-linejoin:miter;stroke-miterlimit:4;stroke-dasharray:none;stroke-opacity:1"
       id="path290"
       inkscape:connector-curvature="0" /><text
       transform="matrix(1,0,0,-1,714.1987,38.9238)"
       style="font-variant:normal;font-weight:bold;font-stretch:normal;font-size:12px;font-family:'Courier New';-inkscape-font-specification:CourierNewPS-BoldMT;writing-mode:lr-tb;fill:#231f20;fill-opacity:1;fill-rule:nonzero;stroke:none"
       id="text294"><tspan
         x="0 7.1999998 14.4"
         y="0"
         sodipodi:role="line"
         id="tspan292">Xor</tspan></text>
<text
       transform="matrix(1,0,0,-1,712.5288,25.7236)"
       style="font-variant:normal;font-weight:normal;font-stretch:normal;font-size:11px;font-family:'Noto Serif';-inkscape-font-specification:NotoSerif;writing-mode:lr-tb;fill:#231f20;fill-opacity:1;fill-rule:nonzero;stroke:none"
       id="text298"><tspan
         x="0 5.4120002 8.8219995 15.015 19.976"
         y="0"
         sodipodi:role="line"
         id="tspan296">class</tspan></text>
<g
       id="g300"
       transform="translate(650,270)"><path
         d="M 0,0 H -166"
         style="fill:none;stroke:#231f20;stroke-width:2;stroke-linecap:butt;stroke-linejoin:miter;stroke-miterlimit:4;stroke-dasharray:none;stroke-opacity:1"
         id="path302"
         inkscape:connector-curvature="0" /></g><g
       id="g304"
       transform="translate(486.0332,274.0645)"><path
         d="M 0,0 1.211,-1.211 -1.644,-4.064 1.211,-6.92 0,-8.129 -4.064,-4.064 Z"
         style="fill:#231f20;fill-opacity:1;fill-rule:nonzero;stroke:none"
         id="path306"
         inkscape:connector-curvature="0" /></g><g
       id="g308"
       transform="translate(650,240)"><path
         d="M 0,0 H -166"
         style="fill:none;stroke:#231f20;stroke-width:2;stroke-linecap:butt;stroke-linejoin:miter;stroke-miterlimit:4;stroke-dasharray:none;stroke-opacity:1"
         id="path310"
         inkscape:connector-curvature="0" /></g><g
       id="g312"
       transform="translate(486.0332,244.0645)"><path
         d="M 0,0 1.211,-1.211 -1.644,-4.064 1.211,-6.92 0,-8.129 -4.064,-4.064 Z"
         style="fill:#231f20;fill-opacity:1;fill-rule:nonzero;stroke:none"
         id="path314"
         inkscape:connector-curvature="0" /></g><g
       id="g316"
       transform="translate(725,60)"><path
         d="M 0,0 V 90 H -241"
         style="fill:none;stroke:#231f20;stroke-width:2;stroke-linecap:butt;stroke-linejoin:miter;stroke-miterlimit:4;stroke-dasharray:none;stroke-opacity:1"
         id="path318"
         inkscape:connector-curvature="0" /></g><g
       id="g320"
       transform="translate(486.0332,154.0645)"><path
         d="M 0,0 1.211,-1.211 -1.644,-4.064 1.211,-6.92 0,-8.129 -4.064,-4.064 Z"
         style="fill:#231f20;fill-opacity:1;fill-rule:nonzero;stroke:none"
         id="path322"
         inkscape:connector-curvature="0" /></g><g
       id="g324"
       transform="translate(120,60)"><path
         d="M 0,0 V 46"
         style="fill:none;stroke:#231f20;stroke-width:2;stroke-linecap:butt;stroke-linejoin:miter;stroke-miterlimit:4;stroke-dasharray:none;stroke-opacity:1"
         id="path326"
         inkscape:connector-curvature="0" /></g><g
       id="g328"
       transform="translate(124.0645,103.9668)"><path
         d="M 0,0 -1.211,-1.211 -4.064,1.644 -6.92,-1.211 -8.129,0 -4.064,4.064 Z"
         style="fill:#231f20;fill-opacity:1;fill-rule:nonzero;stroke:none"
         id="path330"
         inkscape:connector-curvature="0" /></g><g
       id="g332"
       transform="translate(200,60)"><path
         d="M 0,0 V 46"
         style="fill:none;stroke:#231f20;stroke-width:2;stroke-linecap:butt;stroke-linejoin:miter;stroke-miterlimit:4;stroke-dasharray:none;stroke-opacity:1"
         id="path334"
         inkscape:connector-curvature="0" /></g><g
       id="g336"
       transform="translate(204.0645,103.9668)"><path
         d="M 0,0 -1.211,-1.211 -4.064,1.644 -6.92,-1.211 -8.129,0 -4.064,4.064 Z"
         style="fill:#231f20;fill-opacity:1;fill-rule:nonzero;stroke:none"
         id="path338"
         inkscape:connector-curvature="0" /></g><g
       id="g340"
       transform="translate(165,160)"><path
         d="M 0,0 V 94.999 H 161.75"
         style="fill:none;stroke:#231f20;stroke-width:2;stroke-linecap:butt;stroke-linejoin:miter;stroke-miterlimit:4;stroke-dasharray:none;stroke-opacity:1"
         id="path342"
         inkscape:connector-curvature="0" /></g><g
       id="g344"
       transform="translate(324.7168,250.9346)"><path
         d="M 0,0 -1.211,1.211 1.644,4.064 -1.211,6.92 0,8.129 4.064,4.064 Z"
         style="fill:#231f20;fill-opacity:1;fill-rule:nonzero;stroke:none"
         id="path346"
         inkscape:connector-curvature="0" /></g><g
       id="g348"
       transform="translate(405,160)"><path
         d="M 0,0 V 66"
         style="fill:none;stroke:#231f20;stroke-width:2;stroke-linecap:butt;stroke-linejoin:miter;stroke-miterlimit:4;stroke-dasharray:none;stroke-opacity:1"
         id="path350"
         inkscape:connector-curvature="0" /></g><g
       id="g352"
       transform="translate(409.0645,223.9668)"><path
         d="M 0,0 -1.211,-1.211 -4.064,1.644 -6.92,-1.211 -8.129,0 -4.064,4.064 Z"
         style="fill:#231f20;fill-opacity:1;fill-rule:nonzero;stroke:none"
         id="path354"
         inkscape:connector-curvature="0" /></g><g
       id="g356"
       transform="translate(405,60)"><path
         d="M 0,0 V 46"
         style="fill:none;stroke:#231f20;stroke-width:2;stroke-linecap:butt;stroke-linejoin:miter;stroke-miterlimit:4;stroke-dasharray:none;stroke-opacity:1"
         id="path358"
         inkscape:connector-curvature="0" /></g><g
       id="g360"
       transform="translate(409.0645,103.9668)"><path
         d="M 0,0 -1.211,-1.211 -4.064,1.644 -6.92,-1.211 -8.129,0 -4.064,4.064 Z"
         style="fill:#231f20;fill-opacity:1;fill-rule:nonzero;stroke:none"
         id="path362"
         inkscape:connector-curvature="0" /></g><g
       id="g364"
       transform="translate(567,60)"><path
         d="M 0,0 V 60 H -83"
         style="fill:none;stroke:#231f20;stroke-width:2;stroke-linecap:butt;stroke-linejoin:miter;stroke-miterlimit:4;stroke-dasharray:none;stroke-opacity:1"
         id="path366"
         inkscape:connector-curvature="0" /></g><g
       id="g368"
       transform="translate(486.0332,124.0645)"><path
         d="M 0,0 1.211,-1.211 -1.644,-4.064 1.211,-6.92 0,-8.129 -4.064,-4.064 Z"
         style="fill:#231f20;fill-opacity:1;fill-rule:nonzero;stroke:none"
         id="path370"
         inkscape:connector-curvature="0" /></g></g></svg>