<?xml version="1.0" encoding="iso-8859-1"?>
<!-- Generator: Adobe Illustrator 14.0.0, SVG Export Plug-In . SVG Version: 6.00 Build 43363)  -->
<!DOCTYPE svg PUBLIC "-//W3C//DTD SVG 1.1//EN" "http://www.w3.org/Graphics/SVG/1.1/DTD/svg11.dtd">
<svg version="1.1" id="Layer_1" xmlns="http://www.w3.org/2000/svg" xmlns:xlink="http://www.w3.org/1999/xlink" x="0px" y="0px"
	 width="738px" height="170px" viewBox="0 0 738 170" enable-background="new 0 0 738 170" xml:space="preserve">
<line fill="none" stroke="#000000" x1="52.334" y1="150.001" x2="52.334" y2="75.001"/>
<line fill="none" stroke="#000000" x1="52.334" y1="75.001" x2="105.367" y2="21.968"/>
<line fill="none" stroke="#000000" x1="52.334" y1="75.001" x2="16.979" y2="39.646"/>
<line fill="none" stroke="#000000" x1="202.334" y1="150.001" x2="202.334" y2="75.001"/>
<g>
	<line fill="none" stroke="#000000" x1="202.334" y1="75.001" x2="233.399" y2="43.936"/>
	<line fill="none" stroke="#000000" x1="233.399" y1="43.936" x2="277.334" y2="43.935"/>
	<line fill="none" stroke="#000000" x1="233.399" y1="43.936" x2="233.4" y2="14.646"/>
</g>
<g>
	<line fill="none" stroke="#000000" x1="202.334" y1="75.001" x2="181.624" y2="54.29"/>
	<line fill="none" stroke="#000000" x1="181.624" y1="54.29" x2="181.624" y2="25.001"/>
	<line fill="none" stroke="#000000" x1="181.624" y1="54.29" x2="162.097" y2="54.29"/>
</g>
<line fill="none" stroke="#000000" x1="352.334" y1="150.001" x2="352.334" y2="75.001"/>
<g>
	<line fill="none" stroke="#000000" x1="352.334" y1="75.001" x2="332.743" y2="55.41"/>
	<g>
		<line fill="none" stroke="#000000" x1="332.743" y1="55.41" x2="332.743" y2="39.182"/>
		<line fill="none" stroke="#000000" x1="332.743" y1="39.182" x2="344.219" y2="27.705"/>
		<line fill="none" stroke="#000000" x1="332.743" y1="39.182" x2="325.093" y2="31.53"/>
	</g>
	<g>
		<line fill="none" stroke="#000000" x1="332.743" y1="55.41" x2="321.924" y2="55.41"/>
		<line fill="none" stroke="#000000" x1="321.924" y1="55.41" x2="314.273" y2="47.76"/>
		<line fill="none" stroke="#000000" x1="321.924" y1="55.41" x2="316.824" y2="60.511"/>
	</g>
</g>
<g>
	<line fill="none" stroke="#000000" x1="352.334" y1="75.001" x2="381.72" y2="45.616"/>
	<g>
		<line fill="none" stroke="#000000" x1="381.72" y1="45.616" x2="406.063" y2="45.616"/>
		<line fill="none" stroke="#000000" x1="406.063" y1="45.616" x2="423.277" y2="62.829"/>
		<line fill="none" stroke="#000000" x1="406.063" y1="45.616" x2="417.539" y2="34.141"/>
	</g>
	<g>
		<line fill="none" stroke="#000000" x1="381.72" y1="45.616" x2="381.72" y2="29.387"/>
		<line fill="none" stroke="#000000" x1="381.72" y1="29.387" x2="393.195" y2="17.911"/>
		<line fill="none" stroke="#000000" x1="381.72" y1="29.387" x2="374.069" y2="21.736"/>
	</g>
</g>
<line fill="none" stroke="#000000" x1="502.334" y1="150.001" x2="502.334" y2="75.001"/>
<g>
	<line fill="none" stroke="#000000" x1="502.334" y1="75.001" x2="482.259" y2="54.927"/>
	<g>
		<line fill="none" stroke="#000000" x1="482.259" y1="54.927" x2="471.771" y2="54.927"/>
		<g>
			<line fill="none" stroke="#000000" x1="471.771" y1="54.927" x2="467.428" y2="50.583"/>
			<line fill="none" stroke="#000000" x1="467.428" y1="50.583" x2="467.427" y2="44.439"/>
			<line fill="none" stroke="#000000" x1="467.428" y1="50.583" x2="463.332" y2="50.582"/>
		</g>
		<g>
			<line fill="none" stroke="#000000" x1="471.771" y1="54.927" x2="468.875" y2="57.822"/>
			<line fill="none" stroke="#000000" x1="468.875" y1="57.822" x2="464.78" y2="57.822"/>
			<line fill="none" stroke="#000000" x1="468.875" y1="57.822" x2="468.876" y2="60.552"/>
		</g>
	</g>
	<g>
		<line fill="none" stroke="#000000" x1="482.259" y1="54.927" x2="482.259" y2="39.196"/>
		<g>
			<line fill="none" stroke="#000000" x1="482.259" y1="39.196" x2="488.774" y2="32.68"/>
			<line fill="none" stroke="#000000" x1="488.774" y1="32.68" x2="497.99" y2="32.68"/>
			<line fill="none" stroke="#000000" x1="488.774" y1="32.68" x2="488.774" y2="26.537"/>
		</g>
		<g>
			<line fill="none" stroke="#000000" x1="482.259" y1="39.196" x2="477.915" y2="34.852"/>
			<line fill="none" stroke="#000000" x1="477.915" y1="34.852" x2="477.915" y2="28.709"/>
			<line fill="none" stroke="#000000" x1="477.915" y1="34.852" x2="473.82" y2="34.852"/>
		</g>
	</g>
</g>
<g>
	<line fill="none" stroke="#000000" x1="502.334" y1="75.001" x2="532.446" y2="44.889"/>
	<g>
		<line fill="none" stroke="#000000" x1="532.446" y1="44.889" x2="532.445" y2="29.158"/>
		<g>
			<line fill="none" stroke="#000000" x1="532.445" y1="29.158" x2="538.962" y2="22.642"/>
			<line fill="none" stroke="#000000" x1="538.962" y1="22.642" x2="548.178" y2="22.642"/>
			<line fill="none" stroke="#000000" x1="538.962" y1="22.642" x2="538.962" y2="16.498"/>
		</g>
		<g>
			<line fill="none" stroke="#000000" x1="532.445" y1="29.158" x2="528.103" y2="24.814"/>
			<line fill="none" stroke="#000000" x1="528.103" y1="24.814" x2="528.103" y2="18.671"/>
			<line fill="none" stroke="#000000" x1="528.103" y1="24.814" x2="524.008" y2="24.814"/>
		</g>
	</g>
	<g>
		<line fill="none" stroke="#000000" x1="532.446" y1="44.889" x2="556.042" y2="44.889"/>
		<g>
			<line fill="none" stroke="#000000" x1="556.042" y1="44.889" x2="565.815" y2="54.663"/>
			<line fill="none" stroke="#000000" x1="565.815" y1="54.663" x2="565.816" y2="68.485"/>
			<line fill="none" stroke="#000000" x1="565.815" y1="54.663" x2="575.031" y2="54.663"/>
		</g>
		<g>
			<line fill="none" stroke="#000000" x1="556.042" y1="44.889" x2="562.558" y2="38.373"/>
			<line fill="none" stroke="#000000" x1="562.558" y1="38.373" x2="571.773" y2="38.374"/>
			<line fill="none" stroke="#000000" x1="562.558" y1="38.373" x2="562.558" y2="32.23"/>
		</g>
	</g>
</g>
<line fill="none" stroke="#000000" x1="652.334" y1="150.001" x2="652.334" y2="75.001"/>
<g>
	<line fill="none" stroke="#000000" x1="652.334" y1="75.001" x2="632.473" y2="55.139"/>
	<g>
		<line fill="none" stroke="#000000" x1="632.473" y1="55.139" x2="621.84" y2="55.139"/>
		<g>
			<line fill="none" stroke="#000000" x1="621.84" y1="55.139" x2="619.063" y2="57.916"/>
			<g>
				<line fill="none" stroke="#000000" x1="619.063" y1="57.916" x2="616.762" y2="57.916"/>
				<line fill="none" stroke="#000000" x1="616.762" y1="57.916" x2="615.134" y2="56.29"/>
				<line fill="none" stroke="#000000" x1="616.762" y1="57.916" x2="615.677" y2="59.001"/>
			</g>
			<g>
				<line fill="none" stroke="#000000" x1="619.063" y1="57.916" x2="619.062" y2="59.45"/>
				<line fill="none" stroke="#000000" x1="619.062" y1="59.45" x2="617.977" y2="60.534"/>
				<line fill="none" stroke="#000000" x1="619.062" y1="59.45" x2="619.784" y2="60.173"/>
			</g>
		</g>
		<g>
			<line fill="none" stroke="#000000" x1="621.84" y1="55.139" x2="617.674" y2="50.973"/>
			<g>
				<line fill="none" stroke="#000000" x1="617.674" y1="50.973" x2="617.673" y2="47.522"/>
				<line fill="none" stroke="#000000" x1="617.673" y1="47.522" x2="620.114" y2="45.081"/>
				<line fill="none" stroke="#000000" x1="617.673" y1="47.522" x2="616.046" y2="45.896"/>
			</g>
			<g>
				<line fill="none" stroke="#000000" x1="617.674" y1="50.973" x2="615.373" y2="50.973"/>
				<line fill="none" stroke="#000000" x1="615.373" y1="50.973" x2="613.746" y2="49.346"/>
				<line fill="none" stroke="#000000" x1="615.373" y1="50.973" x2="614.288" y2="52.058"/>
			</g>
		</g>
	</g>
	<g>
		<line fill="none" stroke="#000000" x1="632.473" y1="55.139" x2="632.472" y2="39.189"/>
		<g>
			<line fill="none" stroke="#000000" x1="632.472" y1="39.189" x2="628.306" y2="35.023"/>
			<g>
				<line fill="none" stroke="#000000" x1="628.306" y1="35.023" x2="628.306" y2="31.572"/>
				<line fill="none" stroke="#000000" x1="628.306" y1="31.572" x2="630.746" y2="29.132"/>
				<line fill="none" stroke="#000000" x1="628.306" y1="31.572" x2="626.679" y2="29.945"/>
			</g>
			<g>
				<line fill="none" stroke="#000000" x1="628.306" y1="35.023" x2="626.005" y2="35.023"/>
				<line fill="none" stroke="#000000" x1="626.005" y1="35.023" x2="624.378" y2="33.396"/>
				<line fill="none" stroke="#000000" x1="626.005" y1="35.023" x2="624.921" y2="36.107"/>
			</g>
		</g>
		<g>
			<line fill="none" stroke="#000000" x1="632.472" y1="39.189" x2="638.721" y2="32.94"/>
			<g>
				<line fill="none" stroke="#000000" x1="638.721" y1="32.94" x2="643.898" y2="32.94"/>
				<line fill="none" stroke="#000000" x1="643.898" y1="32.94" x2="647.559" y2="36.602"/>
				<line fill="none" stroke="#000000" x1="643.898" y1="32.94" x2="646.339" y2="30.5"/>
			</g>
			<g>
				<line fill="none" stroke="#000000" x1="638.721" y1="32.94" x2="638.721" y2="29.489"/>
				<line fill="none" stroke="#000000" x1="638.721" y1="29.489" x2="641.162" y2="27.049"/>
				<line fill="none" stroke="#000000" x1="638.721" y1="29.489" x2="637.094" y2="27.863"/>
			</g>
		</g>
	</g>
</g>
<g>
	<line fill="none" stroke="#000000" x1="652.334" y1="75.001" x2="682.127" y2="45.208"/>
	<g>
		<line fill="none" stroke="#000000" x1="682.127" y1="45.208" x2="682.126" y2="29.259"/>
		<g>
			<line fill="none" stroke="#000000" x1="682.126" y1="29.259" x2="677.96" y2="25.093"/>
			<g>
				<line fill="none" stroke="#000000" x1="677.96" y1="25.093" x2="677.961" y2="21.642"/>
				<line fill="none" stroke="#000000" x1="677.961" y1="21.642" x2="680.4" y2="19.201"/>
				<line fill="none" stroke="#000000" x1="677.961" y1="21.642" x2="676.334" y2="20.014"/>
			</g>
			<g>
				<line fill="none" stroke="#000000" x1="677.96" y1="25.093" x2="675.659" y2="25.093"/>
				<line fill="none" stroke="#000000" x1="675.659" y1="25.093" x2="674.033" y2="23.466"/>
				<line fill="none" stroke="#000000" x1="675.659" y1="25.093" x2="674.576" y2="26.177"/>
			</g>
		</g>
		<g>
			<line fill="none" stroke="#000000" x1="682.126" y1="29.259" x2="688.375" y2="23.01"/>
			<g>
				<line fill="none" stroke="#000000" x1="688.375" y1="23.01" x2="693.553" y2="23.01"/>
				<line fill="none" stroke="#000000" x1="693.553" y1="23.01" x2="697.213" y2="26.67"/>
				<line fill="none" stroke="#000000" x1="693.553" y1="23.01" x2="695.993" y2="20.569"/>
			</g>
			<g>
				<line fill="none" stroke="#000000" x1="688.375" y1="23.01" x2="688.376" y2="19.559"/>
				<line fill="none" stroke="#000000" x1="688.376" y1="19.559" x2="690.815" y2="17.119"/>
				<line fill="none" stroke="#000000" x1="688.376" y1="19.559" x2="686.749" y2="17.932"/>
			</g>
		</g>
	</g>
	<g>
		<line fill="none" stroke="#000000" x1="682.127" y1="45.208" x2="706.051" y2="45.208"/>
		<g>
			<line fill="none" stroke="#000000" x1="706.051" y1="45.208" x2="712.299" y2="38.958"/>
			<g>
				<line fill="none" stroke="#000000" x1="712.299" y1="38.958" x2="717.477" y2="38.958"/>
				<line fill="none" stroke="#000000" x1="717.477" y1="38.958" x2="721.138" y2="42.619"/>
				<line fill="none" stroke="#000000" x1="717.477" y1="38.958" x2="719.917" y2="36.518"/>
			</g>
			<g>
				<line fill="none" stroke="#000000" x1="712.299" y1="38.958" x2="712.3" y2="35.508"/>
				<line fill="none" stroke="#000000" x1="712.3" y1="35.508" x2="714.74" y2="33.067"/>
				<line fill="none" stroke="#000000" x1="712.3" y1="35.508" x2="710.673" y2="33.881"/>
			</g>
		</g>
		<g>
			<line fill="none" stroke="#000000" x1="706.051" y1="45.208" x2="715.425" y2="54.581"/>
			<g>
				<line fill="none" stroke="#000000" x1="715.425" y1="54.581" x2="715.424" y2="62.346"/>
				<line fill="none" stroke="#000000" x1="715.424" y1="62.346" x2="709.933" y2="67.837"/>
				<line fill="none" stroke="#000000" x1="715.424" y1="62.346" x2="719.085" y2="66.007"/>
			</g>
			<g>
				<line fill="none" stroke="#000000" x1="715.425" y1="54.581" x2="720.601" y2="54.581"/>
				<line fill="none" stroke="#000000" x1="720.601" y1="54.581" x2="724.261" y2="58.242"/>
				<line fill="none" stroke="#000000" x1="720.601" y1="54.581" x2="723.041" y2="52.141"/>
			</g>
		</g>
	</g>
</g>
</svg>
